<svg xmlns="http://www.w3.org/2000/svg" xmlns:v="https://svgstorm.com"
viewBox = "0 0 612 612"
width="612"
height="612">
<g fill="None" fill-opacity="0.0" stroke="#FEFEFE" stroke-opacity="1.00" stroke-width="0.3"><path d="
M 0.00 612.00 
L 612.00 612.00
L 612.00 0.00
L 0.00 0.00
L 0.00 612.00
M 260.00 175.00 
C 251.99 179.23 242.73 178.89 234.93 183.93 C 227.13 188.97 220.84 194.68 210.00 193.00 C 199.16 191.32 189.44 192.66 179.00 190.00
C 176.42 214.50 198.15 246.93 225.00 232.00
C 226.00 235.34 229.63 239.06 233.00 240.00
C 224.55 248.38 210.29 249.54 199.32 245.68 C 188.35 241.81 181.74 235.89 175.23 225.77 C 168.72 215.65 169.87 202.41 166.07 190.93 C 162.27 179.45 160.67 164.44 162.00 151.00
C 158.67 150.01 155.51 148.54 152.00 148.00
C 152.68 153.21 153.68 172.26 144.33 168.67 C 134.98 165.07 141.92 152.11 140.00 144.00 C 138.08 135.89 148.67 131.90 155.22 130.22 C 161.78 128.55 169.49 124.72 176.23 122.23 C 182.97 119.74 190.91 117.79 197.68 114.68 C 204.45 111.56 212.40 108.84 219.22 112.78 C 226.05 116.71 233.74 116.95 240.23 120.77 C 246.72 124.59 255.83 123.94 261.69 128.31 C 267.55 132.67 278.67 129.71 280.92 138.08 C 283.17 146.44 269.89 147.29 263.78 149.78 C 257.67 152.26 260.51 168.11 260.00 175.00
M 367.00 221.00 
C 370.02 220.46 372.84 219.13 376.00 219.00
C 382.37 233.64 400.74 240.38 414.69 231.69 C 428.65 223.01 432.27 205.32 433.00 190.00
C 422.49 192.52 412.92 191.26 402.00 193.00 C 391.08 194.74 384.84 189.19 376.92 184.08 C 369.01 178.96 360.20 179.10 352.00 175.00
C 350.64 164.96 357.34 147.33 342.00 148.00
C 342.05 153.74 344.36 171.30 334.77 168.21 C 325.19 165.13 331.56 151.61 330.00 143.00 C 328.44 134.39 339.71 132.68 346.02 130.02 C 352.34 127.37 361.20 124.81 368.02 122.02 C 374.85 119.24 382.07 117.48 389.07 114.07 C 396.07 110.67 404.38 109.54 411.22 113.78 C 418.07 118.01 426.13 117.79 432.68 121.32 C 439.23 124.86 448.55 126.49 454.68 129.32 C 460.80 132.15 472.96 133.16 471.00 142.00 C 469.04 150.84 453.86 144.51 450.26 151.26 C 446.65 158.00 453.42 172.89 450.00 180.00 C 446.58 187.11 444.26 195.86 444.00 204.00 C 443.74 212.14 439.58 218.68 436.70 225.70 C 433.81 232.71 428.58 237.40 422.30 241.30 C 416.03 245.20 407.83 248.39 400.00 248.00 C 392.17 247.61 384.29 244.43 377.77 240.23 C 371.25 236.03 364.97 229.58 367.00 221.00
M 355.00 212.00 
C 356.43 224.91 354.80 238.19 351.03 249.03 C 347.25 259.87 349.30 273.54 343.68 283.68 C 338.06 293.81 333.42 299.86 322.92 304.92 C 312.42 309.98 300.61 309.84 289.78 305.22 C 278.95 300.61 274.60 294.07 269.03 283.97 C 263.46 273.88 264.40 261.07 261.00 250.00 C 257.61 238.92 255.29 225.15 257.00 212.00
C 253.57 211.38 250.47 209.62 247.00 209.00
C 247.80 214.07 248.53 233.43 239.33 229.67 C 230.12 225.90 236.65 212.22 235.00 204.00 C 233.35 195.78 244.77 193.49 251.07 191.07 C 257.37 188.65 266.27 185.84 273.07 183.07 C 279.88 180.31 287.34 178.92 294.22 175.22 C 301.10 171.53 309.43 170.80 316.22 174.78 C 323.02 178.75 331.10 179.29 337.68 182.32 C 344.26 185.35 353.28 188.21 359.22 190.78 C 365.17 193.34 378.40 194.49 376.00 203.00 C 373.60 211.51 360.12 207.52 355.00 212.00
M 123.00 300.00 
C 121.57 310.02 124.25 321.00 123.00 331.00 C 121.75 341.00 125.33 352.99 122.00 362.00
C 116.63 376.56 106.97 357.60 110.00 348.00 C 113.03 338.40 109.35 322.23 110.00 312.00 C 110.65 301.77 110.57 290.55 118.75 283.75 C 126.93 276.95 131.79 273.44 140.69 269.70 C 149.60 265.95 157.87 261.95 166.23 258.23 C 174.59 254.51 183.94 248.04 191.25 254.75 C 198.55 261.47 203.85 266.45 212.00 271.00
C 223.08 262.46 235.13 243.24 250.00 256.00
C 249.47 260.54 251.72 264.39 251.00 269.00
C 246.15 268.98 242.67 264.70 238.00 264.00
C 232.60 270.36 225.28 274.65 219.00 280.00
C 223.16 293.28 228.66 306.20 231.00 320.00
C 227.01 320.51 224.01 323.80 220.00 324.00
C 217.44 314.64 214.83 304.64 211.00 296.00
C 208.56 302.60 205.83 310.40 204.07 317.07 C 202.32 323.75 196.43 331.78 205.00 336.00
C 199.81 342.59 198.46 346.58 191.75 340.25 C 185.05 333.92 187.64 328.40 189.98 320.98 C 192.32 313.55 194.40 307.89 196.78 300.78 C 199.15 293.67 200.44 286.98 203.00 280.00
C 196.12 275.99 189.89 269.40 184.00 264.00
C 164.09 275.72 134.53 278.14 123.00 300.00
M 489.00 280.00 
C 492.15 282.34 495.99 285.65 498.00 289.00
C 503.38 297.97 500.77 307.78 502.00 318.00 C 503.23 328.22 499.04 341.29 502.00 351.00 C 504.96 360.71 494.53 375.07 490.00 362.00
C 483.65 343.68 492.49 319.46 489.00 300.00
C 485.26 288.18 472.07 284.00 461.93 279.07 C 451.78 274.15 438.49 268.88 428.00 264.00
C 422.68 269.16 419.20 272.39 412.92 276.92 C 406.63 281.44 412.32 289.08 413.98 296.02 C 415.63 302.97 419.26 310.62 420.98 318.02 C 422.69 325.43 428.01 331.63 421.75 338.75 C 415.49 345.87 412.76 344.19 407.00 337.00
C 414.57 331.75 410.61 324.85 408.07 317.93 C 405.54 311.00 403.97 302.89 401.00 296.00
C 397.41 304.76 394.48 314.57 392.00 324.00
C 387.85 324.24 384.99 320.41 381.00 320.00
C 383.46 308.62 386.09 298.38 390.32 287.32 C 394.55 276.27 379.71 272.00 374.00 264.00
C 369.46 265.02 365.74 268.45 361.00 269.00
C 360.28 264.40 362.53 260.57 362.00 256.00
C 377.85 242.10 388.63 265.44 402.00 271.00
C 407.41 263.44 413.95 262.38 420.25 255.25 C 426.55 248.11 436.16 253.92 443.68 257.32 C 451.20 260.73 459.40 264.65 467.08 267.92 C 474.75 271.20 482.27 274.89 489.00 280.00
M 314.00 341.00 
C 316.44 349.09 318.86 356.22 321.78 364.22 C 324.70 372.23 325.10 380.08 328.93 388.07 C 332.75 396.06 324.26 403.02 319.25 408.25 C 314.24 413.47 308.06 423.11 300.77 417.23 C 293.48 411.35 293.10 406.85 286.25 400.75 C 279.39 394.65 283.05 385.22 286.32 377.32 C 289.59 369.42 289.73 362.29 293.93 353.93 C 298.12 345.56 296.30 340.00 288.75 334.25 C 281.21 328.49 277.20 324.33 268.77 329.77 C 260.34 335.22 255.25 335.05 246.98 338.98 C 238.70 342.90 234.81 345.15 226.77 349.77 C 218.73 354.39 216.29 363.09 217.00 372.00 C 217.71 380.91 217.35 395.07 217.00 403.00 C 216.65 410.93 221.12 428.32 210.99 427.99 C 200.86 427.66 205.98 409.83 205.00 402.00 C 204.02 394.17 205.91 379.51 205.00 371.00 C 204.09 362.49 205.76 352.78 211.75 346.75 C 217.75 340.73 223.02 336.94 230.23 333.23 C 237.44 329.51 244.48 327.59 251.69 323.70 C 258.91 319.80 265.97 318.76 273.22 314.22 C 280.48 309.69 287.72 316.76 293.25 321.75 C 298.78 326.75 304.36 334.69 310.70 328.70 C 317.03 322.70 320.68 319.73 327.25 314.25 C 333.81 308.76 342.76 316.93 349.69 319.31 C 356.63 321.68 364.23 325.68 371.23 328.77 C 378.23 331.86 385.48 334.02 391.70 339.30 C 397.92 344.59 403.86 348.06 405.98 357.03 C 408.09 365.99 406.29 376.41 407.00 387.00 C 407.71 397.59 405.76 405.94 407.00 418.00 C 408.24 430.06 393.95 429.79 395.00 418.00 C 396.05 406.21 395.06 397.12 395.00 387.00 C 394.94 376.88 397.06 365.60 393.07 357.93 C 389.09 350.25 381.75 347.26 375.30 343.70 C 368.86 340.13 360.48 336.73 353.78 334.22 C 347.07 331.72 338.60 324.82 331.78 326.78 C 324.96 328.74 320.80 338.68 314.00 341.00
M 193.00 395.00 
C 193.00 399.33 193.00 403.67 193.00 408.00
C 180.55 407.25 178.81 419.83 175.08 429.08 C 171.34 438.32 167.21 448.46 164.00 458.00
C 208.89 447.65 264.78 432.34 306.00 462.00
C 347.20 432.27 403.11 447.65 448.00 458.00
C 444.66 448.67 441.10 439.00 437.08 429.92 C 433.05 420.85 431.98 407.03 419.00 408.00
C 419.00 403.67 419.00 399.33 419.00 395.00
C 428.10 397.06 437.57 398.52 441.32 407.68 C 445.07 416.83 462.21 410.11 468.07 416.93 C 473.93 423.74 475.94 432.65 479.77 441.23 C 483.61 449.81 486.51 457.24 490.31 466.69 C 494.11 476.15 497.31 480.95 500.92 492.08 C 504.54 503.20 487.32 502.93 477.00 502.00 C 466.68 501.07 452.17 502.38 441.00 502.00 C 429.83 501.62 416.46 502.09 405.00 502.00 C 393.54 501.91 380.40 501.86 369.00 502.00 C 357.60 502.15 343.93 501.53 333.00 502.00 C 322.07 502.47 316.15 493.18 305.98 493.02 C 295.80 492.87 290.84 502.20 279.99 501.99 C 269.14 501.78 255.35 502.06 244.00 502.00 C 232.65 501.95 219.42 501.93 208.00 502.00 C 196.58 502.07 183.09 501.75 172.00 502.00 C 160.91 502.25 146.17 501.41 136.00 502.00 C 125.83 502.59 108.28 503.92 110.93 492.93 C 113.58 481.93 118.30 477.17 121.77 467.77 C 125.24 458.37 127.97 450.48 131.98 441.98 C 135.98 433.47 137.94 424.67 143.25 417.25 C 148.56 409.84 166.52 417.32 170.30 408.30 C 174.07 399.27 183.17 396.67 193.00 395.00 Z"/>
</g>
<g fill="None" fill-opacity="0.0" stroke="#010101" stroke-opacity="1.00" stroke-width="0.3"><path d="
M 260.00 175.00 
C 260.51 168.11 257.67 152.26 263.78 149.78 C 269.89 147.29 283.17 146.44 280.92 138.08 C 278.67 129.71 267.55 132.67 261.69 128.31 C 255.83 123.94 246.72 124.59 240.23 120.77 C 233.74 116.95 226.05 116.71 219.22 112.78 C 212.40 108.84 204.45 111.56 197.68 114.68 C 190.91 117.79 182.97 119.74 176.23 122.23 C 169.49 124.72 161.78 128.55 155.22 130.22 C 148.67 131.90 138.08 135.89 140.00 144.00 C 141.92 152.11 134.98 165.07 144.33 168.67 C 153.68 172.26 152.68 153.21 152.00 148.00
C 155.51 148.54 158.67 150.01 162.00 151.00
C 160.67 164.44 162.27 179.45 166.07 190.93 C 169.87 202.41 168.72 215.65 175.23 225.77 C 181.74 235.89 188.35 241.81 199.32 245.68 C 210.29 249.54 224.55 248.38 233.00 240.00
C 229.63 239.06 226.00 235.34 225.00 232.00
C 198.15 246.93 176.42 214.50 179.00 190.00
C 189.44 192.66 199.16 191.32 210.00 193.00 C 220.84 194.68 227.13 188.97 234.93 183.93 C 242.73 178.89 251.99 179.23 260.00 175.00
M 255.00 139.00 
C 246.03 144.55 235.73 143.41 225.99 147.99 C 216.25 152.57 206.57 152.81 196.78 148.22 C 186.99 143.64 176.14 144.13 167.00 139.00
C 176.70 134.16 186.54 133.37 196.22 128.22 C 205.91 123.07 216.25 122.92 226.02 127.98 C 235.80 133.04 245.14 134.54 255.00 139.00
M 219.00 180.00 
C 213.96 180.49 207.97 180.48 203.00 180.00
C 198.65 180.00 191.80 180.68 187.99 179.01 C 184.19 177.33 177.75 179.35 175.00 176.00
C 173.23 173.85 172.50 156.61 175.00 155.00
C 178.91 152.48 187.98 160.38 193.02 159.98 C 198.07 159.57 205.15 165.83 211.01 164.99 C 216.87 164.15 223.14 161.71 229.07 160.07 C 235.01 158.43 241.73 155.88 248.00 155.00
C 248.00 162.00 248.00 169.00 248.00 176.00
C 238.71 178.70 229.03 180.11 219.00 180.00 Z"/>
</g>
<g fill="None" fill-opacity="0.0" stroke="#010101" stroke-opacity="1.00" stroke-width="0.3"><path d="
M 367.00 221.00 
C 364.97 229.58 371.25 236.03 377.77 240.23 C 384.29 244.43 392.17 247.61 400.00 248.00 C 407.83 248.39 416.03 245.20 422.30 241.30 C 428.58 237.40 433.81 232.71 436.70 225.70 C 439.58 218.68 443.74 212.14 444.00 204.00 C 444.26 195.86 446.58 187.11 450.00 180.00 C 453.42 172.89 446.65 158.00 450.26 151.26 C 453.86 144.51 469.04 150.84 471.00 142.00 C 472.96 133.16 460.80 132.15 454.68 129.32 C 448.55 126.49 439.23 124.86 432.68 121.32 C 426.13 117.79 418.07 118.01 411.22 113.78 C 404.38 109.54 396.07 110.67 389.07 114.07 C 382.07 117.48 374.85 119.24 368.02 122.02 C 361.20 124.81 352.34 127.37 346.02 130.02 C 339.71 132.68 328.44 134.39 330.00 143.00 C 331.56 151.61 325.19 165.13 334.77 168.21 C 344.36 171.30 342.05 153.74 342.00 148.00
C 357.34 147.33 350.64 164.96 352.00 175.00
C 360.20 179.10 369.01 178.96 376.92 184.08 C 384.84 189.19 391.08 194.74 402.00 193.00 C 412.92 191.26 422.49 192.52 433.00 190.00
C 432.27 205.32 428.65 223.01 414.69 231.69 C 400.74 240.38 382.37 233.64 376.00 219.00
C 372.84 219.13 370.02 220.46 367.00 221.00
M 445.00 139.00 
C 435.90 144.04 425.73 143.53 415.98 147.98 C 406.22 152.42 396.53 152.82 386.78 148.22 C 377.02 143.63 366.03 144.41 357.00 139.00
C 366.79 134.34 376.29 133.09 386.07 128.07 C 395.86 123.06 406.02 122.94 415.69 128.31 C 425.37 133.67 435.31 133.96 445.00 139.00
M 437.00 155.00 
C 439.51 156.62 438.75 174.00 437.00 176.00
C 434.50 178.87 428.39 177.38 424.93 178.93 C 421.46 180.48 414.97 180.00 411.00 180.00
C 405.02 180.58 397.91 180.57 392.00 180.00
C 382.20 180.00 373.07 178.81 364.00 176.00
C 364.00 169.00 364.00 162.00 364.00 155.00
C 376.52 155.40 387.56 164.57 400.02 164.98 C 412.49 165.38 424.64 155.93 437.00 155.00 Z"/>
</g>
<g fill="None" fill-opacity="0.0" stroke="#F7F7F7" stroke-opacity="1.00" stroke-width="0.3"><path d="
M 255.00 139.00 
C 245.14 134.54 235.80 133.04 226.02 127.98 C 216.25 122.92 205.91 123.07 196.22 128.22 C 186.54 133.37 176.70 134.16 167.00 139.00
C 176.14 144.13 186.99 143.64 196.78 148.22 C 206.57 152.81 216.25 152.57 225.99 147.99 C 235.73 143.41 246.03 144.55 255.00 139.00 Z"/>
</g>
<g fill="None" fill-opacity="0.0" stroke="#F7F7F7" stroke-opacity="1.00" stroke-width="0.3"><path d="
M 445.00 139.00 
C 435.31 133.96 425.37 133.67 415.69 128.31 C 406.02 122.94 395.86 123.06 386.07 128.07 C 376.29 133.09 366.79 134.34 357.00 139.00
C 366.03 144.41 377.02 143.63 386.78 148.22 C 396.53 152.82 406.22 152.42 415.98 147.98 C 425.73 143.53 435.90 144.04 445.00 139.00 Z"/>
</g>
<g fill="None" fill-opacity="0.0" stroke="#8A8A8A" stroke-opacity="1.00" stroke-width="0.3"><path d="
M 175.00 176.00 
C 171.99 170.71 177.26 160.71 175.00 155.00
C 172.50 156.61 173.23 173.85 175.00 176.00 Z"/>
</g>
<g fill="None" fill-opacity="0.0" stroke="#F9F9F9" stroke-opacity="1.00" stroke-width="0.3"><path d="
M 175.00 176.00 
C 177.75 179.35 184.19 177.33 187.99 179.01 C 191.80 180.68 198.65 180.00 203.00 180.00
C 208.33 180.00 213.67 180.00 219.00 180.00
C 229.03 180.11 238.71 178.70 248.00 176.00
C 248.00 169.00 248.00 162.00 248.00 155.00
C 241.73 155.88 235.01 158.43 229.07 160.07 C 223.14 161.71 216.87 164.15 211.01 164.99 C 205.15 165.83 198.07 159.57 193.02 159.98 C 187.98 160.38 178.91 152.48 175.00 155.00
C 177.26 160.71 171.99 170.71 175.00 176.00 Z"/>
</g>
<g fill="None" fill-opacity="0.0" stroke="#F9F9F9" stroke-opacity="1.00" stroke-width="0.3"><path d="
M 392.00 180.00 
C 398.33 180.00 404.67 180.00 411.00 180.00
C 414.97 180.00 421.46 180.48 424.93 178.93 C 428.39 177.38 434.50 178.87 437.00 176.00
C 437.00 169.00 437.00 162.00 437.00 155.00
C 424.64 155.93 412.49 165.38 400.02 164.98 C 387.56 164.57 376.52 155.40 364.00 155.00
C 364.00 162.00 364.00 169.00 364.00 176.00
C 373.07 178.81 382.20 180.00 392.00 180.00 Z"/>
</g>
<g fill="None" fill-opacity="0.0" stroke="#929292" stroke-opacity="1.00" stroke-width="0.3"><path d="
M 437.00 176.00 
C 438.75 174.00 439.51 156.62 437.00 155.00
C 437.00 162.00 437.00 169.00 437.00 176.00 Z"/>
</g>
<g fill="None" fill-opacity="0.0" stroke="#010101" stroke-opacity="1.00" stroke-width="0.3"><path d="
M 355.00 212.00 
C 360.12 207.52 373.60 211.51 376.00 203.00 C 378.40 194.49 365.17 193.34 359.22 190.78 C 353.28 188.21 344.26 185.35 337.68 182.32 C 331.10 179.29 323.02 178.75 316.22 174.78 C 309.43 170.80 301.10 171.53 294.22 175.22 C 287.34 178.92 279.88 180.31 273.07 183.07 C 266.27 185.84 257.37 188.65 251.07 191.07 C 244.77 193.49 233.35 195.78 235.00 204.00 C 236.65 212.22 230.12 225.90 239.33 229.67 C 248.53 233.43 247.80 214.07 247.00 209.00
C 250.47 209.62 253.57 211.38 257.00 212.00
C 255.29 225.15 257.61 238.92 261.00 250.00 C 264.40 261.07 263.46 273.88 269.03 283.97 C 274.60 294.07 278.95 300.61 289.78 305.22 C 300.61 309.84 312.42 309.98 322.92 304.92 C 333.42 299.86 338.06 293.81 343.68 283.68 C 349.30 273.54 347.25 259.87 351.03 249.03 C 354.80 238.19 356.43 224.91 355.00 212.00
M 350.00 200.00 
C 341.18 205.28 330.95 204.97 321.32 209.32 C 311.70 213.68 301.09 214.15 291.32 209.68 C 281.55 205.21 271.02 205.23 262.00 200.00
C 271.86 195.67 281.48 194.31 291.22 189.22 C 300.97 184.13 310.95 184.17 320.68 189.32 C 330.41 194.47 340.16 195.49 350.00 200.00
M 343.00 216.00 
C 343.00 223.00 343.00 230.00 343.00 237.00
C 319.48 243.65 292.51 243.69 269.00 237.00
C 269.00 230.00 269.00 223.00 269.00 216.00
C 281.59 216.83 293.30 225.99 306.00 226.00 C 318.70 226.01 330.39 216.95 343.00 216.00
M 338.00 251.00 
C 338.02 270.39 329.54 297.06 305.99 296.99 C 282.44 296.92 274.10 270.46 274.00 251.00
C 294.60 254.94 317.43 255.30 338.00 251.00 Z"/>
</g>
<g fill="None" fill-opacity="0.0" stroke="#767676" stroke-opacity="1.00" stroke-width="0.3"><path d="
M 219.00 180.00 
C 213.67 180.00 208.33 180.00 203.00 180.00
C 207.97 180.48 213.96 180.49 219.00 180.00 Z"/>
</g>
<g fill="None" fill-opacity="0.0" stroke="#707070" stroke-opacity="1.00" stroke-width="0.3"><path d="
M 411.00 180.00 
C 404.67 180.00 398.33 180.00 392.00 180.00
C 397.91 180.57 405.02 180.58 411.00 180.00 Z"/>
</g>
<g fill="None" fill-opacity="0.0" stroke="#F7F7F7" stroke-opacity="1.00" stroke-width="0.3"><path d="
M 350.00 200.00 
C 340.16 195.49 330.41 194.47 320.68 189.32 C 310.95 184.17 300.97 184.13 291.22 189.22 C 281.48 194.31 271.86 195.67 262.00 200.00
C 271.02 205.23 281.55 205.21 291.32 209.68 C 301.09 214.15 311.70 213.68 321.32 209.32 C 330.95 204.97 341.18 205.28 350.00 200.00 Z"/>
</g>
<g fill="None" fill-opacity="0.0" stroke="#F6F6F6" stroke-opacity="1.00" stroke-width="0.3"><path d="
M 343.00 216.00 
C 330.39 216.95 318.70 226.01 306.00 226.00 C 293.30 225.99 281.59 216.83 269.00 216.00
C 269.00 223.00 269.00 230.00 269.00 237.00
C 292.51 243.69 319.48 243.65 343.00 237.00
C 343.00 230.00 343.00 223.00 343.00 216.00 Z"/>
</g>
<g fill="None" fill-opacity="0.0" stroke="#010101" stroke-opacity="1.00" stroke-width="0.3"><path d="
M 122.00 362.00 
C 126.36 342.32 117.84 319.04 123.00 300.00
C 134.53 278.14 164.09 275.72 184.00 264.00
C 189.89 269.40 196.12 275.99 203.00 280.00
C 200.44 286.98 199.15 293.67 196.78 300.78 C 194.40 307.89 192.32 313.55 189.98 320.98 C 187.64 328.40 185.05 333.92 191.75 340.25 C 198.46 346.58 199.81 342.59 205.00 336.00
C 196.43 331.78 202.32 323.75 204.07 317.07 C 205.83 310.40 208.56 302.60 211.00 296.00
C 214.83 304.64 217.44 314.64 220.00 324.00
C 224.01 323.80 227.01 320.51 231.00 320.00
C 228.66 306.20 223.16 293.28 219.00 280.00
C 225.28 274.65 232.60 270.36 238.00 264.00
C 242.67 264.70 246.15 268.98 251.00 269.00
C 251.72 264.39 249.47 260.54 250.00 256.00
C 235.13 243.24 223.08 262.46 212.00 271.00
C 203.85 266.45 198.55 261.47 191.25 254.75 C 183.94 248.04 174.59 254.51 166.23 258.23 C 157.87 261.95 149.60 265.95 140.69 269.70 C 131.79 273.44 126.93 276.95 118.75 283.75 C 110.57 290.55 110.65 301.77 110.00 312.00 C 109.35 322.23 113.03 338.40 110.00 348.00 C 106.97 357.60 116.63 376.56 122.00 362.00 Z"/>
</g>
<g fill="None" fill-opacity="0.0" stroke="#FAFAFA" stroke-opacity="1.00" stroke-width="0.3"><path d="
M 338.00 251.00 
C 317.43 255.30 294.60 254.94 274.00 251.00
C 274.10 270.46 282.44 296.92 305.99 296.99 C 329.54 297.06 338.02 270.39 338.00 251.00 Z"/>
</g>
<g fill="None" fill-opacity="0.0" stroke="#010101" stroke-opacity="1.00" stroke-width="0.3"><path d="
M 489.00 300.00 
C 494.93 318.75 486.01 342.38 490.00 362.00
C 494.53 375.07 504.96 360.71 502.00 351.00 C 499.04 341.29 503.23 328.22 502.00 318.00 C 500.77 307.78 503.38 297.97 498.00 289.00
C 496.09 286.30 491.49 282.17 489.00 280.00
C 482.27 274.89 474.75 271.20 467.08 267.92 C 459.40 264.65 451.20 260.73 443.68 257.32 C 436.16 253.92 426.55 248.11 420.25 255.25 C 413.95 262.38 407.41 263.44 402.00 271.00
C 388.63 265.44 377.85 242.10 362.00 256.00
C 362.53 260.57 360.28 264.40 361.00 269.00
C 365.74 268.45 369.46 265.02 374.00 264.00
C 379.71 272.00 394.55 276.27 390.32 287.32 C 386.09 298.38 383.46 308.62 381.00 320.00
C 384.99 320.41 387.85 324.24 392.00 324.00
C 394.48 314.57 397.41 304.76 401.00 296.00
C 403.97 302.89 405.54 311.00 408.07 317.93 C 410.61 324.85 414.57 331.75 407.00 337.00
C 412.76 344.19 415.49 345.87 421.75 338.75 C 428.01 331.63 422.69 325.43 420.98 318.02 C 419.26 310.62 415.63 302.97 413.98 296.02 C 412.32 289.08 406.63 281.44 412.92 276.92 C 419.20 272.39 422.68 269.16 428.00 264.00
C 438.49 268.88 451.78 274.15 461.93 279.07 C 472.07 284.00 485.26 288.18 489.00 300.00 Z"/>
</g>
<g fill="None" fill-opacity="0.0" stroke="#7E7E7E" stroke-opacity="1.00" stroke-width="0.3"><path d="
M 498.00 289.00 
C 495.99 285.65 492.15 282.34 489.00 280.00
C 491.49 282.17 496.09 286.30 498.00 289.00 Z"/>
</g>
<g fill="None" fill-opacity="0.0" stroke="#8F8F8F" stroke-opacity="1.00" stroke-width="0.3"><path d="
M 122.00 362.00 
C 125.33 352.99 121.75 341.00 123.00 331.00 C 124.25 321.00 121.57 310.02 123.00 300.00
C 117.84 319.04 126.36 342.32 122.00 362.00 Z"/>
</g>
<g fill="None" fill-opacity="0.0" stroke="#909090" stroke-opacity="1.00" stroke-width="0.3"><path d="
M 490.00 362.00 
C 486.01 342.38 494.93 318.75 489.00 300.00
C 492.49 319.46 483.65 343.68 490.00 362.00 Z"/>
</g>
<g fill="None" fill-opacity="0.0" stroke="#010101" stroke-opacity="1.00" stroke-width="0.3"><path d="
M 314.00 341.00 
C 320.80 338.68 324.96 328.74 331.78 326.78 C 338.60 324.82 347.07 331.72 353.78 334.22 C 360.48 336.73 368.86 340.13 375.30 343.70 C 381.75 347.26 389.09 350.25 393.07 357.93 C 397.06 365.60 394.94 376.88 395.00 387.00 C 395.06 397.12 396.05 406.21 395.00 418.00 C 393.95 429.79 408.24 430.06 407.00 418.00 C 405.76 405.94 407.71 397.59 407.00 387.00 C 406.29 376.41 408.09 365.99 405.98 357.03 C 403.86 348.06 397.92 344.59 391.70 339.30 C 385.48 334.02 378.23 331.86 371.23 328.77 C 364.23 325.68 356.63 321.68 349.69 319.31 C 342.76 316.93 333.81 308.76 327.25 314.25 C 320.68 319.73 317.03 322.70 310.70 328.70 C 304.36 334.69 298.78 326.75 293.25 321.75 C 287.72 316.76 280.48 309.69 273.22 314.22 C 265.97 318.76 258.91 319.80 251.69 323.70 C 244.48 327.59 237.44 329.51 230.23 333.23 C 223.02 336.94 217.75 340.73 211.75 346.75 C 205.76 352.78 204.09 362.49 205.00 371.00 C 205.91 379.51 204.02 394.17 205.00 402.00 C 205.98 409.83 200.86 427.66 210.99 427.99 C 221.12 428.32 216.65 410.93 217.00 403.00 C 217.35 395.07 217.71 380.91 217.00 372.00 C 216.29 363.09 218.73 354.39 226.77 349.77 C 234.81 345.15 238.70 342.90 246.98 338.98 C 255.25 335.05 260.34 335.22 268.77 329.77 C 277.20 324.33 281.21 328.49 288.75 334.25 C 296.30 340.00 298.12 345.56 293.93 353.93 C 289.73 362.29 289.59 369.42 286.32 377.32 C 283.05 385.22 279.39 394.65 286.25 400.75 C 293.10 406.85 293.48 411.35 300.77 417.23 C 308.06 423.11 314.24 413.47 319.25 408.25 C 324.26 403.02 332.75 396.06 328.93 388.07 C 325.10 380.08 324.70 372.23 321.78 364.22 C 318.86 356.22 316.44 349.09 314.00 341.00
M 307.00 404.00 
C 286.01 395.03 301.76 372.52 306.00 358.00
C 311.16 365.67 309.81 374.27 314.32 382.68 C 318.83 391.08 313.62 397.71 307.00 404.00 Z"/>
</g>
<g fill="None" fill-opacity="0.0" stroke="#F4F4F4" stroke-opacity="1.00" stroke-width="0.3"><path d="
M 307.00 404.00 
C 313.62 397.71 318.83 391.08 314.32 382.68 C 309.81 374.27 311.16 365.67 306.00 358.00
C 301.76 372.52 286.01 395.03 307.00 404.00 Z"/>
</g>
<g fill="None" fill-opacity="0.0" stroke="#010101" stroke-opacity="1.00" stroke-width="0.3"><path d="
M 193.00 395.00 
C 183.17 396.67 174.07 399.27 170.30 408.30 C 166.52 417.32 148.56 409.84 143.25 417.25 C 137.94 424.67 135.98 433.47 131.98 441.98 C 127.97 450.48 125.24 458.37 121.77 467.77 C 118.30 477.17 113.58 481.93 110.93 492.93 C 108.28 503.92 125.83 502.59 136.00 502.00 C 146.17 501.41 160.91 502.25 172.00 502.00 C 183.09 501.75 196.58 502.07 208.00 502.00 C 219.42 501.93 232.65 501.95 244.00 502.00 C 255.35 502.06 269.14 501.78 279.99 501.99 C 290.84 502.20 295.80 492.87 305.98 493.02 C 316.15 493.18 322.07 502.47 333.00 502.00 C 343.93 501.53 357.60 502.15 369.00 502.00 C 380.40 501.86 393.54 501.91 405.00 502.00 C 416.46 502.09 429.83 501.62 441.00 502.00 C 452.17 502.38 466.68 501.07 477.00 502.00 C 487.32 502.93 504.54 503.20 500.92 492.08 C 497.31 480.95 494.11 476.15 490.31 466.69 C 486.51 457.24 483.61 449.81 479.77 441.23 C 475.94 432.65 473.93 423.74 468.07 416.93 C 462.21 410.11 445.07 416.83 441.32 407.68 C 437.57 398.52 428.10 397.06 419.00 395.00
C 419.00 399.33 419.00 403.67 419.00 408.00
C 431.98 407.03 433.05 420.85 437.08 429.92 C 441.10 439.00 444.66 448.67 448.00 458.00
C 403.11 447.65 347.20 432.27 306.00 462.00
C 264.78 432.34 208.89 447.65 164.00 458.00
C 167.21 448.46 171.34 438.32 175.08 429.08 C 178.81 419.83 180.55 407.25 193.00 408.00
C 193.00 403.67 193.00 399.33 193.00 395.00
M 164.00 424.00 
C 158.13 433.60 159.04 443.00 152.68 452.68 C 146.32 462.35 146.00 477.41 159.68 472.68 C 173.36 467.95 178.55 466.54 191.02 464.02 C 203.50 461.51 213.96 459.01 226.02 458.02 C 238.09 457.04 253.70 455.26 265.00 458.00 C 276.30 460.74 285.63 459.77 294.23 468.77 C 302.83 477.77 308.73 479.19 317.25 469.25 C 325.76 459.30 335.38 461.68 346.67 458.67 C 357.96 455.66 372.89 456.60 385.00 458.00 C 397.11 459.40 407.66 460.85 420.02 463.98 C 432.38 467.10 438.16 467.05 451.68 472.32 C 465.20 477.59 466.44 463.39 459.69 453.31 C 452.95 443.22 453.96 434.04 448.00 424.00
C 464.15 423.93 465.54 441.28 470.98 453.03 C 476.41 464.77 481.98 477.69 486.00 490.00
C 468.34 489.34 449.55 490.87 432.00 490.00 C 414.45 489.13 395.14 491.68 378.00 490.00 C 360.86 488.32 341.78 494.64 326.32 487.68 C 310.86 480.71 301.79 479.88 286.31 487.31 C 270.82 494.73 252.27 488.36 235.00 490.00 C 217.73 491.64 198.73 489.16 181.00 490.00 C 163.27 490.84 143.88 489.37 126.00 490.00
C 130.15 477.76 135.49 464.66 140.92 452.92 C 146.36 441.18 147.98 423.99 164.00 424.00 Z"/>
</g>
<g fill="None" fill-opacity="0.0" stroke="#F7F7F7" stroke-opacity="1.00" stroke-width="0.3"><path d="
M 164.00 424.00 
C 147.98 423.99 146.36 441.18 140.92 452.92 C 135.49 464.66 130.15 477.76 126.00 490.00
C 143.88 489.37 163.27 490.84 181.00 490.00 C 198.73 489.16 217.73 491.64 235.00 490.00 C 252.27 488.36 270.82 494.73 286.31 487.31 C 301.79 479.88 310.86 480.71 326.32 487.68 C 341.78 494.64 360.86 488.32 378.00 490.00 C 395.14 491.68 414.45 489.13 432.00 490.00 C 449.55 490.87 468.34 489.34 486.00 490.00
C 481.98 477.69 476.41 464.77 470.98 453.03 C 465.54 441.28 464.15 423.93 448.00 424.00
C 453.96 434.04 452.95 443.22 459.69 453.31 C 466.44 463.39 465.20 477.59 451.68 472.32 C 438.16 467.05 432.38 467.10 420.02 463.98 C 407.66 460.85 397.11 459.40 385.00 458.00 C 372.89 456.60 357.96 455.66 346.67 458.67 C 335.38 461.68 325.76 459.30 317.25 469.25 C 308.73 479.19 302.83 477.77 294.23 468.77 C 285.63 459.77 276.30 460.74 265.00 458.00 C 253.70 455.26 238.09 457.04 226.02 458.02 C 213.96 459.01 203.50 461.51 191.02 464.02 C 178.55 466.54 173.36 467.95 159.68 472.68 C 146.00 477.41 146.32 462.35 152.68 452.68 C 159.04 443.00 158.13 433.60 164.00 424.00 Z"/>
</g>
<g fill="#FEFEFE" fill-opacity="1.00" stroke="None">
<path d="
M 0.00 612.00 
L 612.00 612.00
L 612.00 0.00
L 0.00 0.00
L 0.00 612.00
M 260.00 175.00 
C 251.99 179.23 242.73 178.89 234.93 183.93 C 227.13 188.97 220.84 194.68 210.00 193.00 C 199.16 191.32 189.44 192.66 179.00 190.00
C 176.42 214.50 198.15 246.93 225.00 232.00
C 226.00 235.34 229.63 239.06 233.00 240.00
C 224.55 248.38 210.29 249.54 199.32 245.68 C 188.35 241.81 181.74 235.89 175.23 225.77 C 168.72 215.65 169.87 202.41 166.07 190.93 C 162.27 179.45 160.67 164.44 162.00 151.00
C 158.67 150.01 155.51 148.54 152.00 148.00
C 152.68 153.21 153.68 172.26 144.33 168.67 C 134.98 165.07 141.92 152.11 140.00 144.00 C 138.08 135.89 148.67 131.90 155.22 130.22 C 161.78 128.55 169.49 124.72 176.23 122.23 C 182.97 119.74 190.91 117.79 197.68 114.68 C 204.45 111.56 212.40 108.84 219.22 112.78 C 226.05 116.71 233.74 116.95 240.23 120.77 C 246.72 124.59 255.83 123.94 261.69 128.31 C 267.55 132.67 278.67 129.71 280.92 138.08 C 283.17 146.44 269.89 147.29 263.78 149.78 C 257.67 152.26 260.51 168.11 260.00 175.00
M 367.00 221.00 
C 370.02 220.46 372.84 219.13 376.00 219.00
C 382.37 233.64 400.74 240.38 414.69 231.69 C 428.65 223.01 432.27 205.32 433.00 190.00
C 422.49 192.52 412.92 191.26 402.00 193.00 C 391.08 194.74 384.84 189.19 376.92 184.08 C 369.01 178.96 360.20 179.10 352.00 175.00
C 350.64 164.96 357.34 147.33 342.00 148.00
C 342.05 153.74 344.36 171.30 334.77 168.21 C 325.19 165.13 331.56 151.61 330.00 143.00 C 328.44 134.39 339.71 132.68 346.02 130.02 C 352.34 127.37 361.20 124.81 368.02 122.02 C 374.85 119.24 382.07 117.48 389.07 114.07 C 396.07 110.67 404.38 109.54 411.22 113.78 C 418.07 118.01 426.13 117.79 432.68 121.32 C 439.23 124.86 448.55 126.49 454.68 129.32 C 460.80 132.15 472.96 133.16 471.00 142.00 C 469.04 150.84 453.86 144.51 450.26 151.26 C 446.65 158.00 453.42 172.89 450.00 180.00 C 446.58 187.11 444.26 195.86 444.00 204.00 C 443.74 212.14 439.58 218.68 436.70 225.70 C 433.81 232.71 428.58 237.40 422.30 241.30 C 416.03 245.20 407.83 248.39 400.00 248.00 C 392.17 247.61 384.29 244.43 377.77 240.23 C 371.25 236.03 364.97 229.58 367.00 221.00
M 355.00 212.00 
C 356.43 224.91 354.80 238.19 351.03 249.03 C 347.25 259.87 349.30 273.54 343.68 283.68 C 338.06 293.81 333.42 299.86 322.92 304.92 C 312.42 309.98 300.61 309.84 289.78 305.22 C 278.95 300.61 274.60 294.07 269.03 283.97 C 263.46 273.88 264.40 261.07 261.00 250.00 C 257.61 238.92 255.29 225.15 257.00 212.00
C 253.57 211.38 250.47 209.62 247.00 209.00
C 247.80 214.07 248.53 233.43 239.33 229.67 C 230.12 225.90 236.65 212.22 235.00 204.00 C 233.35 195.78 244.77 193.49 251.07 191.07 C 257.37 188.65 266.27 185.84 273.07 183.07 C 279.88 180.31 287.34 178.92 294.22 175.22 C 301.10 171.53 309.43 170.80 316.22 174.78 C 323.02 178.75 331.10 179.29 337.68 182.32 C 344.26 185.35 353.28 188.21 359.22 190.78 C 365.17 193.34 378.40 194.49 376.00 203.00 C 373.60 211.51 360.12 207.52 355.00 212.00
M 123.00 300.00 
C 121.57 310.02 124.25 321.00 123.00 331.00 C 121.75 341.00 125.33 352.99 122.00 362.00
C 116.63 376.56 106.97 357.60 110.00 348.00 C 113.03 338.40 109.35 322.23 110.00 312.00 C 110.65 301.77 110.57 290.55 118.75 283.75 C 126.93 276.95 131.79 273.44 140.69 269.70 C 149.60 265.95 157.87 261.95 166.23 258.23 C 174.59 254.51 183.94 248.04 191.25 254.75 C 198.55 261.47 203.85 266.45 212.00 271.00
C 223.08 262.46 235.13 243.24 250.00 256.00
C 249.47 260.54 251.72 264.39 251.00 269.00
C 246.15 268.98 242.67 264.70 238.00 264.00
C 232.60 270.36 225.28 274.65 219.00 280.00
C 223.16 293.28 228.66 306.20 231.00 320.00
C 227.01 320.51 224.01 323.80 220.00 324.00
C 217.44 314.64 214.83 304.64 211.00 296.00
C 208.56 302.60 205.83 310.40 204.07 317.07 C 202.32 323.75 196.43 331.78 205.00 336.00
C 199.81 342.59 198.46 346.58 191.75 340.25 C 185.05 333.92 187.64 328.40 189.98 320.98 C 192.32 313.55 194.40 307.89 196.78 300.78 C 199.15 293.67 200.44 286.98 203.00 280.00
C 196.12 275.99 189.89 269.40 184.00 264.00
C 164.09 275.72 134.53 278.14 123.00 300.00
M 489.00 280.00 
C 492.15 282.34 495.99 285.65 498.00 289.00
C 503.38 297.97 500.77 307.78 502.00 318.00 C 503.23 328.22 499.04 341.29 502.00 351.00 C 504.96 360.71 494.53 375.07 490.00 362.00
C 483.65 343.68 492.49 319.46 489.00 300.00
C 485.26 288.18 472.07 284.00 461.93 279.07 C 451.78 274.15 438.49 268.88 428.00 264.00
C 422.68 269.16 419.20 272.39 412.92 276.92 C 406.63 281.44 412.32 289.08 413.98 296.02 C 415.63 302.97 419.26 310.62 420.98 318.02 C 422.69 325.43 428.01 331.63 421.75 338.75 C 415.49 345.87 412.76 344.19 407.00 337.00
C 414.57 331.75 410.61 324.85 408.07 317.93 C 405.54 311.00 403.97 302.89 401.00 296.00
C 397.41 304.76 394.48 314.57 392.00 324.00
C 387.85 324.24 384.99 320.41 381.00 320.00
C 383.46 308.62 386.09 298.38 390.32 287.32 C 394.55 276.27 379.71 272.00 374.00 264.00
C 369.46 265.02 365.74 268.45 361.00 269.00
C 360.28 264.40 362.53 260.57 362.00 256.00
C 377.85 242.10 388.63 265.44 402.00 271.00
C 407.41 263.44 413.95 262.38 420.25 255.25 C 426.55 248.11 436.16 253.92 443.68 257.32 C 451.20 260.73 459.40 264.65 467.08 267.92 C 474.75 271.20 482.27 274.89 489.00 280.00
M 314.00 341.00 
C 316.44 349.09 318.86 356.22 321.78 364.22 C 324.70 372.23 325.10 380.08 328.93 388.07 C 332.75 396.06 324.26 403.02 319.25 408.25 C 314.24 413.47 308.06 423.11 300.77 417.23 C 293.48 411.35 293.10 406.85 286.25 400.75 C 279.39 394.65 283.05 385.22 286.32 377.32 C 289.59 369.42 289.73 362.29 293.93 353.93 C 298.12 345.56 296.30 340.00 288.75 334.25 C 281.21 328.49 277.20 324.33 268.77 329.77 C 260.34 335.22 255.25 335.05 246.98 338.98 C 238.70 342.90 234.81 345.15 226.77 349.77 C 218.73 354.39 216.29 363.09 217.00 372.00 C 217.71 380.91 217.35 395.07 217.00 403.00 C 216.65 410.93 221.12 428.32 210.99 427.99 C 200.86 427.66 205.98 409.83 205.00 402.00 C 204.02 394.17 205.91 379.51 205.00 371.00 C 204.09 362.49 205.76 352.78 211.75 346.75 C 217.75 340.73 223.02 336.94 230.23 333.23 C 237.44 329.51 244.48 327.59 251.69 323.70 C 258.91 319.80 265.97 318.76 273.22 314.22 C 280.48 309.69 287.72 316.76 293.25 321.75 C 298.78 326.75 304.36 334.69 310.70 328.70 C 317.03 322.70 320.68 319.73 327.25 314.25 C 333.81 308.76 342.76 316.93 349.69 319.31 C 356.63 321.68 364.23 325.68 371.23 328.77 C 378.23 331.86 385.48 334.02 391.70 339.30 C 397.92 344.59 403.86 348.06 405.98 357.03 C 408.09 365.99 406.29 376.41 407.00 387.00 C 407.71 397.59 405.76 405.94 407.00 418.00 C 408.24 430.06 393.95 429.79 395.00 418.00 C 396.05 406.21 395.06 397.12 395.00 387.00 C 394.94 376.88 397.06 365.60 393.07 357.93 C 389.09 350.25 381.75 347.26 375.30 343.70 C 368.86 340.13 360.48 336.73 353.78 334.22 C 347.07 331.72 338.60 324.82 331.78 326.78 C 324.96 328.74 320.80 338.68 314.00 341.00
M 193.00 395.00 
C 193.00 399.33 193.00 403.67 193.00 408.00
C 180.55 407.25 178.81 419.83 175.08 429.08 C 171.34 438.32 167.21 448.46 164.00 458.00
C 208.89 447.65 264.78 432.34 306.00 462.00
C 347.20 432.27 403.11 447.65 448.00 458.00
C 444.66 448.67 441.10 439.00 437.08 429.92 C 433.05 420.85 431.98 407.03 419.00 408.00
C 419.00 403.67 419.00 399.33 419.00 395.00
C 428.10 397.06 437.57 398.52 441.32 407.68 C 445.07 416.83 462.21 410.11 468.07 416.93 C 473.93 423.74 475.94 432.65 479.77 441.23 C 483.61 449.81 486.51 457.24 490.31 466.69 C 494.11 476.15 497.31 480.95 500.92 492.08 C 504.54 503.20 487.32 502.93 477.00 502.00 C 466.68 501.07 452.17 502.38 441.00 502.00 C 429.83 501.62 416.46 502.09 405.00 502.00 C 393.54 501.91 380.40 501.86 369.00 502.00 C 357.60 502.15 343.93 501.53 333.00 502.00 C 322.07 502.47 316.15 493.18 305.98 493.02 C 295.80 492.87 290.84 502.20 279.99 501.99 C 269.14 501.78 255.35 502.06 244.00 502.00 C 232.65 501.95 219.42 501.93 208.00 502.00 C 196.58 502.07 183.09 501.75 172.00 502.00 C 160.91 502.25 146.17 501.41 136.00 502.00 C 125.83 502.59 108.28 503.92 110.93 492.93 C 113.58 481.93 118.30 477.17 121.77 467.77 C 125.24 458.37 127.97 450.48 131.98 441.98 C 135.98 433.47 137.94 424.67 143.25 417.25 C 148.56 409.84 166.52 417.32 170.30 408.30 C 174.07 399.27 183.17 396.67 193.00 395.00 Z"/>
</g>
<g fill="#010101" fill-opacity="1.00" stroke="None">
<path d="
M 260.00 175.00 
C 260.51 168.11 257.67 152.26 263.78 149.78 C 269.89 147.29 283.17 146.44 280.92 138.08 C 278.67 129.71 267.55 132.67 261.69 128.31 C 255.83 123.94 246.72 124.59 240.23 120.77 C 233.74 116.95 226.05 116.71 219.22 112.78 C 212.40 108.84 204.45 111.56 197.68 114.68 C 190.91 117.79 182.97 119.74 176.23 122.23 C 169.49 124.72 161.78 128.55 155.22 130.22 C 148.67 131.90 138.08 135.89 140.00 144.00 C 141.92 152.11 134.98 165.07 144.33 168.67 C 153.68 172.26 152.68 153.21 152.00 148.00
C 155.51 148.54 158.67 150.01 162.00 151.00
C 160.67 164.44 162.27 179.45 166.07 190.93 C 169.87 202.41 168.72 215.65 175.23 225.77 C 181.74 235.89 188.35 241.81 199.32 245.68 C 210.29 249.54 224.55 248.38 233.00 240.00
C 229.63 239.06 226.00 235.34 225.00 232.00
C 198.15 246.93 176.42 214.50 179.00 190.00
C 189.44 192.66 199.16 191.32 210.00 193.00 C 220.84 194.68 227.13 188.97 234.93 183.93 C 242.73 178.89 251.99 179.23 260.00 175.00
M 255.00 139.00 
C 246.03 144.55 235.73 143.41 225.99 147.99 C 216.25 152.57 206.57 152.81 196.78 148.22 C 186.99 143.64 176.14 144.13 167.00 139.00
C 176.70 134.16 186.54 133.37 196.22 128.22 C 205.91 123.07 216.25 122.92 226.02 127.98 C 235.80 133.04 245.14 134.54 255.00 139.00
M 219.00 180.00 
C 213.96 180.49 207.97 180.48 203.00 180.00
C 198.65 180.00 191.80 180.68 187.99 179.01 C 184.19 177.33 177.75 179.35 175.00 176.00
C 173.23 173.85 172.50 156.61 175.00 155.00
C 178.91 152.48 187.98 160.38 193.02 159.98 C 198.07 159.57 205.15 165.83 211.01 164.99 C 216.87 164.15 223.14 161.71 229.07 160.07 C 235.01 158.43 241.73 155.88 248.00 155.00
C 248.00 162.00 248.00 169.00 248.00 176.00
C 238.71 178.70 229.03 180.11 219.00 180.00 Z"/>
</g>
<g fill="#010101" fill-opacity="1.00" stroke="None">
<path d="
M 367.00 221.00 
C 364.97 229.58 371.25 236.03 377.77 240.23 C 384.29 244.43 392.17 247.61 400.00 248.00 C 407.83 248.39 416.03 245.20 422.30 241.30 C 428.58 237.40 433.81 232.71 436.70 225.70 C 439.58 218.68 443.74 212.14 444.00 204.00 C 444.26 195.86 446.58 187.11 450.00 180.00 C 453.42 172.89 446.65 158.00 450.26 151.26 C 453.86 144.51 469.04 150.84 471.00 142.00 C 472.96 133.16 460.80 132.15 454.68 129.32 C 448.55 126.49 439.23 124.86 432.68 121.32 C 426.13 117.79 418.07 118.01 411.22 113.78 C 404.38 109.54 396.07 110.67 389.07 114.07 C 382.07 117.48 374.85 119.24 368.02 122.02 C 361.20 124.81 352.34 127.37 346.02 130.02 C 339.71 132.68 328.44 134.39 330.00 143.00 C 331.56 151.61 325.19 165.13 334.77 168.21 C 344.36 171.30 342.05 153.74 342.00 148.00
C 357.34 147.33 350.64 164.96 352.00 175.00
C 360.20 179.10 369.01 178.96 376.92 184.08 C 384.84 189.19 391.08 194.74 402.00 193.00 C 412.92 191.26 422.49 192.52 433.00 190.00
C 432.27 205.32 428.65 223.01 414.69 231.69 C 400.74 240.38 382.37 233.64 376.00 219.00
C 372.84 219.13 370.02 220.46 367.00 221.00
M 445.00 139.00 
C 435.90 144.04 425.73 143.53 415.98 147.98 C 406.22 152.42 396.53 152.82 386.78 148.22 C 377.02 143.63 366.03 144.41 357.00 139.00
C 366.79 134.34 376.29 133.09 386.07 128.07 C 395.86 123.06 406.02 122.94 415.69 128.31 C 425.37 133.67 435.31 133.96 445.00 139.00
M 437.00 155.00 
C 439.51 156.62 438.75 174.00 437.00 176.00
C 434.50 178.87 428.39 177.38 424.93 178.93 C 421.46 180.48 414.97 180.00 411.00 180.00
C 405.02 180.58 397.91 180.57 392.00 180.00
C 382.20 180.00 373.07 178.81 364.00 176.00
C 364.00 169.00 364.00 162.00 364.00 155.00
C 376.52 155.40 387.56 164.57 400.02 164.98 C 412.49 165.38 424.64 155.93 437.00 155.00 Z"/>
</g>
<g fill="#F7F7F7" fill-opacity="1.00" stroke="None">
<path d="
M 255.00 139.00 
C 245.14 134.54 235.80 133.04 226.02 127.98 C 216.25 122.92 205.91 123.07 196.22 128.22 C 186.54 133.37 176.70 134.16 167.00 139.00
C 176.14 144.13 186.99 143.64 196.78 148.22 C 206.57 152.81 216.25 152.57 225.99 147.99 C 235.73 143.41 246.03 144.55 255.00 139.00 Z"/>
</g>
<g fill="#F7F7F7" fill-opacity="1.00" stroke="None">
<path d="
M 445.00 139.00 
C 435.31 133.96 425.37 133.67 415.69 128.31 C 406.02 122.94 395.86 123.06 386.07 128.07 C 376.29 133.09 366.79 134.34 357.00 139.00
C 366.03 144.41 377.02 143.63 386.78 148.22 C 396.53 152.82 406.22 152.42 415.98 147.98 C 425.73 143.53 435.90 144.04 445.00 139.00 Z"/>
</g>
<g fill="#8A8A8A" fill-opacity="1.00" stroke="None">
<path d="
M 175.00 176.00 
C 171.99 170.71 177.26 160.71 175.00 155.00
C 172.50 156.61 173.23 173.85 175.00 176.00 Z"/>
</g>
<g fill="#F9F9F9" fill-opacity="1.00" stroke="None">
<path d="
M 175.00 176.00 
C 177.75 179.35 184.19 177.33 187.99 179.01 C 191.80 180.68 198.65 180.00 203.00 180.00
C 208.33 180.00 213.67 180.00 219.00 180.00
C 229.03 180.11 238.71 178.70 248.00 176.00
C 248.00 169.00 248.00 162.00 248.00 155.00
C 241.73 155.88 235.01 158.43 229.07 160.07 C 223.14 161.71 216.87 164.15 211.01 164.99 C 205.15 165.83 198.07 159.57 193.02 159.98 C 187.98 160.38 178.91 152.48 175.00 155.00
C 177.26 160.71 171.99 170.71 175.00 176.00 Z"/>
</g>
<g fill="#F9F9F9" fill-opacity="1.00" stroke="None">
<path d="
M 392.00 180.00 
C 398.33 180.00 404.67 180.00 411.00 180.00
C 414.97 180.00 421.46 180.48 424.93 178.93 C 428.39 177.38 434.50 178.87 437.00 176.00
C 437.00 169.00 437.00 162.00 437.00 155.00
C 424.64 155.93 412.49 165.38 400.02 164.98 C 387.56 164.57 376.52 155.40 364.00 155.00
C 364.00 162.00 364.00 169.00 364.00 176.00
C 373.07 178.81 382.20 180.00 392.00 180.00 Z"/>
</g>
<g fill="#929292" fill-opacity="1.00" stroke="None">
<path d="
M 437.00 176.00 
C 438.75 174.00 439.51 156.62 437.00 155.00
C 437.00 162.00 437.00 169.00 437.00 176.00 Z"/>
</g>
<g fill="#010101" fill-opacity="1.00" stroke="None">
<path d="
M 355.00 212.00 
C 360.12 207.52 373.60 211.51 376.00 203.00 C 378.40 194.49 365.17 193.34 359.22 190.78 C 353.28 188.21 344.26 185.35 337.68 182.32 C 331.10 179.29 323.02 178.75 316.22 174.78 C 309.43 170.80 301.10 171.53 294.22 175.22 C 287.34 178.92 279.88 180.31 273.07 183.07 C 266.27 185.84 257.37 188.65 251.07 191.07 C 244.77 193.49 233.35 195.78 235.00 204.00 C 236.65 212.22 230.12 225.90 239.33 229.67 C 248.53 233.43 247.80 214.07 247.00 209.00
C 250.47 209.62 253.57 211.38 257.00 212.00
C 255.29 225.15 257.61 238.92 261.00 250.00 C 264.40 261.07 263.46 273.88 269.03 283.97 C 274.60 294.07 278.95 300.61 289.78 305.22 C 300.61 309.84 312.42 309.98 322.92 304.92 C 333.42 299.86 338.06 293.81 343.68 283.68 C 349.30 273.54 347.25 259.87 351.03 249.03 C 354.80 238.19 356.43 224.91 355.00 212.00
M 350.00 200.00 
C 341.18 205.28 330.95 204.97 321.32 209.32 C 311.70 213.68 301.09 214.15 291.32 209.68 C 281.55 205.21 271.02 205.23 262.00 200.00
C 271.86 195.67 281.48 194.31 291.22 189.22 C 300.97 184.13 310.95 184.17 320.68 189.32 C 330.41 194.47 340.16 195.49 350.00 200.00
M 343.00 216.00 
C 343.00 223.00 343.00 230.00 343.00 237.00
C 319.48 243.65 292.51 243.69 269.00 237.00
C 269.00 230.00 269.00 223.00 269.00 216.00
C 281.59 216.83 293.30 225.99 306.00 226.00 C 318.70 226.01 330.39 216.95 343.00 216.00
M 338.00 251.00 
C 338.02 270.39 329.54 297.06 305.99 296.99 C 282.44 296.92 274.10 270.46 274.00 251.00
C 294.60 254.94 317.43 255.30 338.00 251.00 Z"/>
</g>
<g fill="#767676" fill-opacity="1.00" stroke="None">
<path d="
M 219.00 180.00 
C 213.67 180.00 208.33 180.00 203.00 180.00
C 207.97 180.48 213.96 180.49 219.00 180.00 Z"/>
</g>
<g fill="#707070" fill-opacity="1.00" stroke="None">
<path d="
M 411.00 180.00 
C 404.67 180.00 398.33 180.00 392.00 180.00
C 397.91 180.57 405.02 180.58 411.00 180.00 Z"/>
</g>
<g fill="#F7F7F7" fill-opacity="1.00" stroke="None">
<path d="
M 350.00 200.00 
C 340.16 195.49 330.41 194.47 320.68 189.32 C 310.95 184.17 300.97 184.13 291.22 189.22 C 281.48 194.31 271.86 195.67 262.00 200.00
C 271.02 205.23 281.55 205.21 291.32 209.68 C 301.09 214.15 311.70 213.68 321.32 209.32 C 330.95 204.97 341.18 205.28 350.00 200.00 Z"/>
</g>
<g fill="#F6F6F6" fill-opacity="1.00" stroke="None">
<path d="
M 343.00 216.00 
C 330.39 216.95 318.70 226.01 306.00 226.00 C 293.30 225.99 281.59 216.83 269.00 216.00
C 269.00 223.00 269.00 230.00 269.00 237.00
C 292.51 243.69 319.48 243.65 343.00 237.00
C 343.00 230.00 343.00 223.00 343.00 216.00 Z"/>
</g>
<g fill="#010101" fill-opacity="1.00" stroke="None">
<path d="
M 122.00 362.00 
C 126.36 342.32 117.84 319.04 123.00 300.00
C 134.53 278.14 164.09 275.72 184.00 264.00
C 189.89 269.40 196.12 275.99 203.00 280.00
C 200.44 286.98 199.15 293.67 196.78 300.78 C 194.40 307.89 192.32 313.55 189.98 320.98 C 187.64 328.40 185.05 333.92 191.75 340.25 C 198.46 346.58 199.81 342.59 205.00 336.00
C 196.43 331.78 202.32 323.75 204.07 317.07 C 205.83 310.40 208.56 302.60 211.00 296.00
C 214.83 304.64 217.44 314.64 220.00 324.00
C 224.01 323.80 227.01 320.51 231.00 320.00
C 228.66 306.20 223.16 293.28 219.00 280.00
C 225.28 274.65 232.60 270.36 238.00 264.00
C 242.67 264.70 246.15 268.98 251.00 269.00
C 251.72 264.39 249.47 260.54 250.00 256.00
C 235.13 243.24 223.08 262.46 212.00 271.00
C 203.85 266.45 198.55 261.47 191.25 254.75 C 183.94 248.04 174.59 254.51 166.23 258.23 C 157.87 261.95 149.60 265.95 140.69 269.70 C 131.79 273.44 126.93 276.95 118.75 283.75 C 110.57 290.55 110.65 301.77 110.00 312.00 C 109.35 322.23 113.03 338.40 110.00 348.00 C 106.97 357.60 116.63 376.56 122.00 362.00 Z"/>
</g>
<g fill="#FAFAFA" fill-opacity="1.00" stroke="None">
<path d="
M 338.00 251.00 
C 317.43 255.30 294.60 254.94 274.00 251.00
C 274.10 270.46 282.44 296.92 305.99 296.99 C 329.54 297.06 338.02 270.39 338.00 251.00 Z"/>
</g>
<g fill="#010101" fill-opacity="1.00" stroke="None">
<path d="
M 489.00 300.00 
C 494.93 318.75 486.01 342.38 490.00 362.00
C 494.53 375.07 504.96 360.71 502.00 351.00 C 499.04 341.29 503.23 328.22 502.00 318.00 C 500.77 307.78 503.38 297.97 498.00 289.00
C 496.09 286.30 491.49 282.17 489.00 280.00
C 482.27 274.89 474.75 271.20 467.08 267.92 C 459.40 264.65 451.20 260.73 443.68 257.32 C 436.16 253.92 426.55 248.11 420.25 255.25 C 413.95 262.38 407.41 263.44 402.00 271.00
C 388.63 265.44 377.85 242.10 362.00 256.00
C 362.53 260.57 360.28 264.40 361.00 269.00
C 365.74 268.45 369.46 265.02 374.00 264.00
C 379.71 272.00 394.55 276.27 390.32 287.32 C 386.09 298.38 383.46 308.62 381.00 320.00
C 384.99 320.41 387.85 324.24 392.00 324.00
C 394.48 314.57 397.41 304.76 401.00 296.00
C 403.97 302.89 405.54 311.00 408.07 317.93 C 410.61 324.85 414.57 331.75 407.00 337.00
C 412.76 344.19 415.49 345.87 421.75 338.75 C 428.01 331.63 422.69 325.43 420.98 318.02 C 419.26 310.62 415.63 302.97 413.98 296.02 C 412.32 289.08 406.63 281.44 412.92 276.92 C 419.20 272.39 422.68 269.16 428.00 264.00
C 438.49 268.88 451.78 274.15 461.93 279.07 C 472.07 284.00 485.26 288.18 489.00 300.00 Z"/>
</g>
<g fill="#7E7E7E" fill-opacity="1.00" stroke="None">
<path d="
M 498.00 289.00 
C 495.99 285.65 492.15 282.34 489.00 280.00
C 491.49 282.17 496.09 286.30 498.00 289.00 Z"/>
</g>
<g fill="#8F8F8F" fill-opacity="1.00" stroke="None">
<path d="
M 122.00 362.00 
C 125.33 352.99 121.75 341.00 123.00 331.00 C 124.25 321.00 121.57 310.02 123.00 300.00
C 117.84 319.04 126.36 342.32 122.00 362.00 Z"/>
</g>
<g fill="#909090" fill-opacity="1.00" stroke="None">
<path d="
M 490.00 362.00 
C 486.01 342.38 494.93 318.75 489.00 300.00
C 492.49 319.46 483.65 343.68 490.00 362.00 Z"/>
</g>
<g fill="#010101" fill-opacity="1.00" stroke="None">
<path d="
M 314.00 341.00 
C 320.80 338.68 324.96 328.74 331.78 326.78 C 338.60 324.82 347.07 331.72 353.78 334.22 C 360.48 336.73 368.86 340.13 375.30 343.70 C 381.75 347.26 389.09 350.25 393.07 357.93 C 397.06 365.60 394.94 376.88 395.00 387.00 C 395.06 397.12 396.05 406.21 395.00 418.00 C 393.95 429.79 408.24 430.06 407.00 418.00 C 405.76 405.94 407.71 397.59 407.00 387.00 C 406.29 376.41 408.09 365.99 405.98 357.03 C 403.86 348.06 397.92 344.59 391.70 339.30 C 385.48 334.02 378.23 331.86 371.23 328.77 C 364.23 325.68 356.63 321.68 349.69 319.31 C 342.76 316.93 333.81 308.76 327.25 314.25 C 320.68 319.73 317.03 322.70 310.70 328.70 C 304.36 334.69 298.78 326.75 293.25 321.75 C 287.72 316.76 280.48 309.69 273.22 314.22 C 265.97 318.76 258.91 319.80 251.69 323.70 C 244.48 327.59 237.44 329.51 230.23 333.23 C 223.02 336.94 217.75 340.73 211.75 346.75 C 205.76 352.78 204.09 362.49 205.00 371.00 C 205.91 379.51 204.02 394.17 205.00 402.00 C 205.98 409.83 200.86 427.66 210.99 427.99 C 221.12 428.32 216.65 410.93 217.00 403.00 C 217.35 395.07 217.71 380.91 217.00 372.00 C 216.29 363.09 218.73 354.39 226.77 349.77 C 234.81 345.15 238.70 342.90 246.98 338.98 C 255.25 335.05 260.34 335.22 268.77 329.77 C 277.20 324.33 281.21 328.49 288.75 334.25 C 296.30 340.00 298.12 345.56 293.93 353.93 C 289.73 362.29 289.59 369.42 286.32 377.32 C 283.05 385.22 279.39 394.65 286.25 400.75 C 293.10 406.85 293.48 411.35 300.77 417.23 C 308.06 423.11 314.24 413.47 319.25 408.25 C 324.26 403.02 332.75 396.06 328.93 388.07 C 325.10 380.08 324.70 372.23 321.78 364.22 C 318.86 356.22 316.44 349.09 314.00 341.00
M 307.00 404.00 
C 286.01 395.03 301.76 372.52 306.00 358.00
C 311.16 365.67 309.81 374.27 314.32 382.68 C 318.83 391.08 313.62 397.71 307.00 404.00 Z"/>
</g>
<g fill="#F4F4F4" fill-opacity="1.00" stroke="None">
<path d="
M 307.00 404.00 
C 313.62 397.71 318.83 391.08 314.32 382.68 C 309.81 374.27 311.16 365.67 306.00 358.00
C 301.76 372.52 286.01 395.03 307.00 404.00 Z"/>
</g>
<g fill="#010101" fill-opacity="1.00" stroke="None">
<path d="
M 193.00 395.00 
C 183.17 396.67 174.07 399.27 170.30 408.30 C 166.52 417.32 148.56 409.84 143.25 417.25 C 137.94 424.67 135.98 433.47 131.98 441.98 C 127.97 450.48 125.24 458.37 121.77 467.77 C 118.30 477.17 113.58 481.93 110.93 492.93 C 108.28 503.92 125.83 502.59 136.00 502.00 C 146.17 501.41 160.91 502.25 172.00 502.00 C 183.09 501.75 196.58 502.07 208.00 502.00 C 219.42 501.93 232.65 501.95 244.00 502.00 C 255.35 502.06 269.14 501.78 279.99 501.99 C 290.84 502.20 295.80 492.87 305.98 493.02 C 316.15 493.18 322.07 502.47 333.00 502.00 C 343.93 501.53 357.60 502.15 369.00 502.00 C 380.40 501.86 393.54 501.91 405.00 502.00 C 416.46 502.09 429.83 501.62 441.00 502.00 C 452.17 502.38 466.68 501.07 477.00 502.00 C 487.32 502.93 504.54 503.20 500.92 492.08 C 497.31 480.95 494.11 476.15 490.31 466.69 C 486.51 457.24 483.61 449.81 479.77 441.23 C 475.94 432.65 473.93 423.74 468.07 416.93 C 462.21 410.11 445.07 416.83 441.32 407.68 C 437.57 398.52 428.10 397.06 419.00 395.00
C 419.00 399.33 419.00 403.67 419.00 408.00
C 431.98 407.03 433.05 420.85 437.08 429.92 C 441.10 439.00 444.66 448.67 448.00 458.00
C 403.11 447.65 347.20 432.27 306.00 462.00
C 264.78 432.34 208.89 447.65 164.00 458.00
C 167.21 448.46 171.34 438.32 175.08 429.08 C 178.81 419.83 180.55 407.25 193.00 408.00
C 193.00 403.67 193.00 399.33 193.00 395.00
M 164.00 424.00 
C 158.13 433.60 159.04 443.00 152.68 452.68 C 146.32 462.35 146.00 477.41 159.68 472.68 C 173.36 467.95 178.55 466.54 191.02 464.02 C 203.50 461.51 213.96 459.01 226.02 458.02 C 238.09 457.04 253.70 455.26 265.00 458.00 C 276.30 460.74 285.63 459.77 294.23 468.77 C 302.83 477.77 308.73 479.19 317.25 469.25 C 325.76 459.30 335.38 461.68 346.67 458.67 C 357.96 455.66 372.89 456.60 385.00 458.00 C 397.11 459.40 407.66 460.85 420.02 463.98 C 432.38 467.10 438.16 467.05 451.68 472.32 C 465.20 477.59 466.44 463.39 459.69 453.31 C 452.95 443.22 453.96 434.04 448.00 424.00
C 464.15 423.93 465.54 441.28 470.98 453.03 C 476.41 464.77 481.98 477.69 486.00 490.00
C 468.34 489.34 449.55 490.87 432.00 490.00 C 414.45 489.13 395.14 491.68 378.00 490.00 C 360.86 488.32 341.78 494.64 326.32 487.68 C 310.86 480.71 301.79 479.88 286.31 487.31 C 270.82 494.73 252.27 488.36 235.00 490.00 C 217.73 491.64 198.73 489.16 181.00 490.00 C 163.27 490.84 143.88 489.37 126.00 490.00
C 130.15 477.76 135.49 464.66 140.92 452.92 C 146.36 441.18 147.98 423.99 164.00 424.00 Z"/>
</g>
<g fill="#F7F7F7" fill-opacity="1.00" stroke="None">
<path d="
M 164.00 424.00 
C 147.98 423.99 146.36 441.18 140.92 452.92 C 135.49 464.66 130.15 477.76 126.00 490.00
C 143.88 489.37 163.27 490.84 181.00 490.00 C 198.73 489.16 217.73 491.64 235.00 490.00 C 252.27 488.36 270.82 494.73 286.31 487.31 C 301.79 479.88 310.86 480.71 326.32 487.68 C 341.78 494.64 360.86 488.32 378.00 490.00 C 395.14 491.68 414.45 489.13 432.00 490.00 C 449.55 490.87 468.34 489.34 486.00 490.00
C 481.98 477.69 476.41 464.77 470.98 453.03 C 465.54 441.28 464.15 423.93 448.00 424.00
C 453.96 434.04 452.95 443.22 459.69 453.31 C 466.44 463.39 465.20 477.59 451.68 472.32 C 438.16 467.05 432.38 467.10 420.02 463.98 C 407.66 460.85 397.11 459.40 385.00 458.00 C 372.89 456.60 357.96 455.66 346.67 458.67 C 335.38 461.68 325.76 459.30 317.25 469.25 C 308.73 479.19 302.83 477.77 294.23 468.77 C 285.63 459.77 276.30 460.74 265.00 458.00 C 253.70 455.26 238.09 457.04 226.02 458.02 C 213.96 459.01 203.50 461.51 191.02 464.02 C 178.55 466.54 173.36 467.95 159.68 472.68 C 146.00 477.41 146.32 462.35 152.68 452.68 C 159.04 443.00 158.13 433.60 164.00 424.00 Z"/>
</g>
</svg>