<svg xmlns="http://www.w3.org/2000/svg" xmlns:v="https://svgstorm.com"
viewBox = "0 0 512 512"
width="512"
height="512">
<g fill="None" fill-opacity="0.0" stroke="#000000" stroke-opacity="0.01" stroke-width="0.3"><path d="
M 0.00 340.00 
C 0.36 327.14 8.99 318.48 18.25 313.81 C 27.52 309.14 40.84 310.14 48.25 316.75 C 55.67 323.36 65.84 333.43 61.93 346.08 C 58.02 358.72 68.44 361.39 77.30 365.71 C 86.16 370.04 93.48 372.31 104.75 375.59 C 116.01 378.88 123.25 378.82 136.03 379.98 C 148.80 381.13 163.28 378.46 173.75 376.74 C 184.21 375.03 194.08 371.05 202.77 367.42 C 211.46 363.80 219.47 359.20 228.00 355.00
C 218.73 333.28 233.84 311.74 255.03 310.98 C 276.21 310.21 293.81 331.77 284.00 353.00
C 292.32 361.14 300.60 363.16 309.25 367.19 C 317.89 371.23 326.68 374.51 337.25 376.80 C 347.82 379.09 361.32 379.91 374.00 380.00 C 386.68 380.09 394.53 377.56 405.25 375.24 C 415.97 372.93 425.51 370.05 433.30 365.29 C 441.09 360.53 454.71 360.21 451.07 346.92 C 447.42 333.63 454.72 325.05 462.25 317.81 C 469.79 310.57 482.29 308.98 492.25 312.19 C 502.21 315.41 509.04 326.03 512.00 336.00
L 512.00 0.00
L 413.00 0.00
C 415.13 1.24 416.67 3.40 419.00 4.00
C 417.34 41.26 417.34 82.76 419.00 120.00
C 408.72 126.81 402.59 123.26 404.00 109.00 C 405.41 94.74 403.26 76.93 404.00 62.00 C 404.74 47.07 403.45 30.12 404.00 15.00
C 305.33 15.00 206.67 15.00 108.00 15.00
C 108.00 93.00 108.00 171.00 108.00 249.00
C 206.67 249.00 305.33 249.00 404.00 249.00
C 403.98 214.48 404.02 178.80 404.00 145.00
C 406.57 144.13 408.24 142.79 409.00 141.00
C 411.22 141.93 413.87 143.11 416.00 142.00
C 422.58 156.62 417.16 172.24 419.00 191.00 C 420.84 209.76 416.39 226.66 419.00 247.00 C 421.61 267.34 402.22 264.77 384.00 264.00 C 365.78 263.23 346.43 264.36 328.00 264.00 C 309.57 263.64 290.49 264.19 272.00 264.00 C 253.51 263.81 234.42 264.15 216.00 264.00 C 197.58 263.85 178.19 264.21 160.00 264.00 C 141.81 263.79 121.64 264.42 104.00 264.00 C 86.36 263.58 95.57 242.53 94.00 226.00 C 92.43 209.47 94.75 187.64 94.00 170.00 C 93.25 152.36 94.44 132.07 94.00 114.00 C 93.56 95.93 94.42 76.09 94.00 58.00 C 93.58 39.91 95.11 21.01 93.00 4.00
C 95.07 3.31 97.09 1.37 99.00 0.00
L 0.00 0.00
L 0.00 340.00
M 139.00 46.00 
C 139.00 79.00 139.00 112.00 139.00 145.00
C 148.96 138.15 159.29 122.28 168.75 115.75 C 178.22 109.22 188.35 87.35 198.25 94.19 C 208.16 101.03 217.07 115.42 227.25 123.75 C 237.43 132.09 246.64 144.19 256.75 153.25 C 266.86 162.31 276.56 174.27 287.00 183.00
C 294.41 172.11 302.22 160.49 310.70 150.70 C 319.19 140.92 324.14 125.17 337.00 124.00
C 350.34 140.57 359.69 155.04 373.00 171.00
C 373.00 129.33 373.00 87.67 373.00 46.00
C 317.81 46.01 261.47 45.99 207.00 46.00
C 206.13 43.43 204.79 41.76 203.00 41.00
C 203.93 38.78 205.11 36.13 204.00 34.00
C 215.47 28.60 230.85 31.36 246.00 31.00 C 261.15 30.64 279.48 30.90 295.00 31.00 C 310.52 31.10 328.66 30.38 344.00 31.00 C 359.34 31.62 376.81 27.72 388.00 35.00
C 385.98 49.22 387.31 64.64 387.00 80.00 C 386.69 95.36 387.26 112.55 387.00 128.00 C 386.74 143.45 387.37 161.93 387.00 177.00 C 386.63 192.07 387.75 211.09 387.00 225.00 C 386.25 238.91 366.74 230.31 353.00 232.00 C 339.26 233.69 319.89 231.40 305.00 232.00 C 290.11 232.60 271.15 232.05 256.00 232.00 C 240.85 231.95 222.72 232.76 208.00 232.00 C 193.28 231.24 173.44 233.99 160.00 232.00 C 146.56 230.01 126.48 239.23 124.94 225.92 C 123.39 212.60 125.77 192.82 125.00 178.00 C 124.23 163.18 125.45 144.38 125.00 129.00 C 124.55 113.62 125.41 96.42 125.00 81.00 C 124.59 65.58 126.10 49.34 124.00 35.00
C 129.56 29.40 145.34 30.29 154.00 31.00 C 162.66 31.71 180.36 28.21 184.75 33.26 C 189.15 38.32 185.20 47.49 176.00 46.00 C 166.80 44.51 148.98 47.12 139.00 46.00
M 282.00 62.00 
C 300.62 58.20 313.19 76.58 308.29 92.30 C 303.39 108.02 283.06 114.32 270.25 101.75 C 257.43 89.18 266.32 65.20 282.00 62.00 Z"/>
</g>
<g fill="None" fill-opacity="0.0" stroke="#000000" stroke-opacity="0.99" stroke-width="0.3"><path d="
M 413.00 0.00 
L 99.00 0.00
C 97.09 1.37 95.07 3.31 93.00 4.00
C 95.11 21.01 93.58 39.91 94.00 58.00 C 94.42 76.09 93.56 95.93 94.00 114.00 C 94.44 132.07 93.25 152.36 94.00 170.00 C 94.75 187.64 92.43 209.47 94.00 226.00 C 95.57 242.53 86.36 263.58 104.00 264.00 C 121.64 264.42 141.81 263.79 160.00 264.00 C 178.19 264.21 197.58 263.85 216.00 264.00 C 234.42 264.15 253.51 263.81 272.00 264.00 C 290.49 264.19 309.57 263.64 328.00 264.00 C 346.43 264.36 365.78 263.23 384.00 264.00 C 402.22 264.77 421.61 267.34 419.00 247.00 C 416.39 226.66 420.84 209.76 419.00 191.00 C 417.16 172.24 422.58 156.62 416.00 142.00
C 413.87 143.11 411.22 141.93 409.00 141.00
C 408.24 142.79 406.57 144.13 404.00 145.00
C 404.02 178.80 403.98 214.48 404.00 249.00
C 305.33 249.00 206.67 249.00 108.00 249.00
C 108.00 171.00 108.00 93.00 108.00 15.00
C 206.67 15.00 305.33 15.00 404.00 15.00
C 403.45 30.12 404.74 47.07 404.00 62.00 C 403.26 76.93 405.41 94.74 404.00 109.00 C 402.59 123.26 408.72 126.81 419.00 120.00
C 417.34 82.76 417.34 41.26 419.00 4.00
C 416.67 3.40 415.13 1.24 413.00 0.00 Z"/>
</g>
<g fill="None" fill-opacity="0.0" stroke="#000000" stroke-opacity="0.99" stroke-width="0.3"><path d="
M 139.00 46.00 
C 148.98 47.12 166.80 44.51 176.00 46.00 C 185.20 47.49 189.15 38.32 184.75 33.26 C 180.36 28.21 162.66 31.71 154.00 31.00 C 145.34 30.29 129.56 29.40 124.00 35.00
C 126.10 49.34 124.59 65.58 125.00 81.00 C 125.41 96.42 124.55 113.62 125.00 129.00 C 125.45 144.38 124.23 163.18 125.00 178.00 C 125.77 192.82 123.39 212.60 124.94 225.92 C 126.48 239.23 146.56 230.01 160.00 232.00 C 173.44 233.99 193.28 231.24 208.00 232.00 C 222.72 232.76 240.85 231.95 256.00 232.00 C 271.15 232.05 290.11 232.60 305.00 232.00 C 319.89 231.40 339.26 233.69 353.00 232.00 C 366.74 230.31 386.25 238.91 387.00 225.00 C 387.75 211.09 386.63 192.07 387.00 177.00 C 387.37 161.93 386.74 143.45 387.00 128.00 C 387.26 112.55 386.69 95.36 387.00 80.00 C 387.31 64.64 385.98 49.22 388.00 35.00
C 376.81 27.72 359.34 31.62 344.00 31.00 C 328.66 30.38 310.52 31.10 295.00 31.00 C 279.48 30.90 261.15 30.64 246.00 31.00 C 230.85 31.36 215.47 28.60 204.00 34.00
C 205.11 36.13 203.93 38.78 203.00 41.00
C 204.79 41.76 206.13 43.43 207.00 46.00
C 261.47 45.99 317.81 46.01 373.00 46.00
C 373.00 87.67 373.00 129.33 373.00 171.00
C 359.69 155.04 350.34 140.57 337.00 124.00
C 324.14 125.17 319.19 140.92 310.70 150.70 C 302.22 160.49 294.41 172.11 287.00 183.00
C 276.56 174.27 266.86 162.31 256.75 153.25 C 246.64 144.19 237.43 132.09 227.25 123.75 C 217.07 115.42 208.16 101.03 198.25 94.19 C 188.35 87.35 178.22 109.22 168.75 115.75 C 159.29 122.28 148.96 138.15 139.00 145.00
C 139.00 112.00 139.00 79.00 139.00 46.00
M 195.00 111.00 
C 229.11 147.27 267.10 181.27 300.00 218.00
C 246.33 218.00 192.67 218.00 139.00 218.00
C 140.66 200.92 140.66 182.05 139.00 165.00
C 158.27 147.89 175.27 126.91 195.00 111.00
M 334.00 144.00 
C 346.90 161.60 358.44 179.07 373.00 195.00
C 373.00 202.67 373.00 210.33 373.00 218.00
C 358.95 215.75 336.18 220.99 323.00 218.00 C 309.82 215.01 308.79 198.86 297.00 194.00
C 308.80 177.31 322.56 160.19 334.00 144.00 Z"/>
</g>
<g fill="None" fill-opacity="0.0" stroke="#000000" stroke-opacity="0.96" stroke-width="0.3"><path d="
M 282.00 62.00 
C 266.32 65.20 257.43 89.18 270.25 101.75 C 283.06 114.32 303.39 108.02 308.29 92.30 C 313.19 76.58 300.62 58.20 282.00 62.00
M 291.00 77.00 
C 301.69 86.42 288.00 100.21 279.00 89.00
C 280.01 86.14 279.98 83.58 279.00 81.00
C 282.78 77.43 286.16 77.27 291.00 77.00 Z"/>
</g>
<g fill="None" fill-opacity="0.0" stroke="#000000" stroke-opacity="0.07" stroke-width="0.3"><path d="
M 291.00 77.00 
C 286.16 77.27 282.78 77.43 279.00 81.00
C 279.98 83.58 280.01 86.14 279.00 89.00
C 288.00 100.21 301.69 86.42 291.00 77.00 Z"/>
</g>
<g fill="None" fill-opacity="0.0" stroke="#000000" stroke-opacity="0.02" stroke-width="0.3"><path d="
M 195.00 111.00 
C 175.27 126.91 158.27 147.89 139.00 165.00
C 140.66 182.05 140.66 200.92 139.00 218.00
C 192.67 218.00 246.33 218.00 300.00 218.00
C 267.10 181.27 229.11 147.27 195.00 111.00 Z"/>
</g>
<g fill="None" fill-opacity="0.0" stroke="#000000" stroke-opacity="0.02" stroke-width="0.3"><path d="
M 334.00 144.00 
C 322.56 160.19 308.80 177.31 297.00 194.00
C 308.79 198.86 309.82 215.01 323.00 218.00 C 336.18 220.99 358.95 215.75 373.00 218.00
C 373.00 210.33 373.00 202.67 373.00 195.00
C 358.44 179.07 346.90 161.60 334.00 144.00 Z"/>
</g>
<g fill="None" fill-opacity="0.0" stroke="#000000" stroke-opacity="0.98" stroke-width="0.3"><path d="
M 0.00 340.00 
L 0.00 345.00
C 3.17 356.25 8.93 361.92 8.00 377.00 C 7.07 392.08 8.25 408.96 8.00 424.00 C 7.75 439.04 7.69 455.34 8.00 470.00 C 8.31 484.66 5.97 499.62 10.00 511.00
C 11.17 509.75 13.33 510.66 14.00 512.00
L 50.00 512.00
C 50.31 510.19 52.00 508.23 54.00 508.00
C 52.16 487.65 57.75 460.62 51.00 443.00
C 48.99 444.20 46.17 442.83 44.00 442.00
C 43.33 443.58 41.58 445.26 39.00 446.00
C 39.09 462.17 38.93 480.14 39.00 497.00
C 33.33 497.00 27.67 497.00 22.00 497.00
C 22.00 455.00 22.00 413.00 22.00 371.00
C 27.61 372.66 33.42 372.97 39.00 371.00
C 36.67 382.26 38.68 396.52 38.00 408.00 C 37.32 419.48 39.70 425.67 50.00 425.00
C 50.10 422.60 52.85 421.87 54.00 420.00
C 51.72 404.54 53.63 385.74 53.00 369.00
C 78.62 384.42 105.63 395.04 143.00 395.00 C 180.37 394.96 206.90 384.00 233.00 369.00
C 233.64 415.49 231.71 466.04 234.00 510.00
C 235.53 511.27 237.95 509.54 239.00 512.00
L 275.00 512.00
C 282.10 503.28 278.37 486.56 279.00 471.00 C 279.63 455.44 278.68 436.37 279.00 420.00 C 279.32 403.63 278.76 384.61 279.00 368.00
C 304.38 384.08 328.94 394.26 366.07 394.93 C 403.21 395.60 433.09 385.21 459.00 369.00
C 458.34 415.25 460.33 462.17 458.00 508.00
C 460.07 508.69 462.09 510.63 464.00 512.00
L 500.00 512.00
C 508.57 502.40 504.44 484.47 505.00 468.00 C 505.56 451.53 504.90 431.07 505.00 414.00 C 505.10 396.93 505.76 377.75 504.00 361.00
C 509.88 357.47 509.65 351.23 512.00 345.00
L 512.00 336.00
C 509.04 326.03 502.21 315.41 492.25 312.19 C 482.29 308.98 469.79 310.57 462.25 317.81 C 454.72 325.05 447.42 333.63 451.07 346.92 C 454.71 360.21 441.09 360.53 433.30 365.29 C 425.51 370.05 415.97 372.93 405.25 375.24 C 394.53 377.56 386.68 380.09 374.00 380.00 C 361.32 379.91 347.82 379.09 337.25 376.80 C 326.68 374.51 317.89 371.23 309.25 367.19 C 300.60 363.16 292.32 361.14 284.00 353.00
C 293.81 331.77 276.21 310.21 255.03 310.98 C 233.84 311.74 218.73 333.28 228.00 355.00
C 219.47 359.20 211.46 363.80 202.77 367.42 C 194.08 371.05 184.21 375.03 173.75 376.74 C 163.28 378.46 148.80 381.13 136.03 379.98 C 123.25 378.82 116.01 378.88 104.75 375.59 C 93.48 372.31 86.16 370.04 77.30 365.71 C 68.44 361.39 58.02 358.72 61.93 346.08 C 65.84 333.43 55.67 323.36 48.25 316.75 C 40.84 310.14 27.52 309.14 18.25 313.81 C 8.99 318.48 0.36 327.14 0.00 340.00
M 29.00 325.00 
C 48.11 323.04 53.68 353.75 33.25 357.26 C 12.81 360.77 8.12 327.14 29.00 325.00
M 254.00 325.00 
C 273.37 322.74 278.50 352.98 258.75 356.80 C 239.01 360.62 232.91 327.46 254.00 325.00
M 479.00 325.00 
C 498.20 322.76 504.43 353.18 484.25 356.40 C 464.08 359.62 458.34 327.41 479.00 325.00
M 264.00 371.00 
C 264.00 413.00 264.00 455.00 264.00 497.00
C 258.67 497.00 253.33 497.00 248.00 497.00
C 248.00 455.00 248.00 413.00 248.00 371.00
C 253.07 373.18 258.79 372.59 264.00 371.00
M 490.00 371.00 
C 490.00 413.00 490.00 455.00 490.00 497.00
C 484.33 497.00 478.67 497.00 473.00 497.00
C 473.00 455.00 473.00 413.00 473.00 371.00
C 478.66 373.10 484.64 372.37 490.00 371.00 Z"/>
</g>
<g fill="None" fill-opacity="0.0" stroke="#000000" stroke-opacity="0.04" stroke-width="0.3"><path d="
M 29.00 325.00 
C 8.12 327.14 12.81 360.77 33.25 357.26 C 53.68 353.75 48.11 323.04 29.00 325.00 Z"/>
</g>
<g fill="None" fill-opacity="0.0" stroke="#000000" stroke-opacity="0.04" stroke-width="0.3"><path d="
M 254.00 325.00 
C 232.91 327.46 239.01 360.62 258.75 356.80 C 278.50 352.98 273.37 322.74 254.00 325.00 Z"/>
</g>
<g fill="None" fill-opacity="0.0" stroke="#000000" stroke-opacity="0.04" stroke-width="0.3"><path d="
M 479.00 325.00 
C 458.34 327.41 464.08 359.62 484.25 356.40 C 504.43 353.18 498.20 322.76 479.00 325.00 Z"/>
</g>
<g fill="None" fill-opacity="0.0" stroke="#000000" stroke-opacity="0.03" stroke-width="0.3"><path d="
M 0.00 512.00 
L 14.00 512.00
C 13.33 510.66 11.17 509.75 10.00 511.00
C 5.97 499.62 8.31 484.66 8.00 470.00 C 7.69 455.34 7.75 439.04 8.00 424.00 C 8.25 408.96 7.07 392.08 8.00 377.00 C 8.93 361.92 3.17 356.25 0.00 345.00
L 0.00 512.00 Z"/>
</g>
<g fill="None" fill-opacity="0.0" stroke="#000000" stroke-opacity="0.01" stroke-width="0.3"><path d="
M 500.00 512.00 
L 512.00 512.00
L 512.00 345.00
C 509.65 351.23 509.88 357.47 504.00 361.00
C 505.76 377.75 505.10 396.93 505.00 414.00 C 504.90 431.07 505.56 451.53 505.00 468.00 C 504.44 484.47 508.57 502.40 500.00 512.00 Z"/>
</g>
<g fill="None" fill-opacity="0.0" stroke="#000000" stroke-opacity="0.01" stroke-width="0.3"><path d="
M 275.00 512.00 
L 464.00 512.00
C 462.09 510.63 460.07 508.69 458.00 508.00
C 460.33 462.17 458.34 415.25 459.00 369.00
C 433.09 385.21 403.21 395.60 366.07 394.93 C 328.94 394.26 304.38 384.08 279.00 368.00
C 278.76 384.61 279.32 403.63 279.00 420.00 C 278.68 436.37 279.63 455.44 279.00 471.00 C 278.37 486.56 282.10 503.28 275.00 512.00 Z"/>
</g>
<g fill="None" fill-opacity="0.0" stroke="#000000" stroke-opacity="0.01" stroke-width="0.3"><path d="
M 50.00 512.00 
L 239.00 512.00
C 237.95 509.54 235.53 511.27 234.00 510.00
C 231.71 466.04 233.64 415.49 233.00 369.00
C 206.90 384.00 180.37 394.96 143.00 395.00 C 105.63 395.04 78.62 384.42 53.00 369.00
C 53.63 385.74 51.72 404.54 54.00 420.00
C 52.85 421.87 50.10 422.60 50.00 425.00
C 39.70 425.67 37.32 419.48 38.00 408.00 C 38.68 396.52 36.67 382.26 39.00 371.00
C 33.42 372.97 27.61 372.66 22.00 371.00
C 22.00 413.00 22.00 455.00 22.00 497.00
C 27.67 497.00 33.33 497.00 39.00 497.00
C 38.93 480.14 39.09 462.17 39.00 446.00
C 41.58 445.26 43.33 443.58 44.00 442.00
C 46.17 442.83 48.99 444.20 51.00 443.00
C 57.75 460.62 52.16 487.65 54.00 508.00
C 52.00 508.23 50.31 510.19 50.00 512.00 Z"/>
</g>
<g fill="None" fill-opacity="0.0" stroke="#000000" stroke-opacity="0.00" stroke-width="0.3"><path d="
M 264.00 371.00 
C 258.79 372.59 253.07 373.18 248.00 371.00
C 248.00 413.00 248.00 455.00 248.00 497.00
C 253.33 497.00 258.67 497.00 264.00 497.00
C 264.00 455.00 264.00 413.00 264.00 371.00 Z"/>
</g>
<g fill="None" fill-opacity="0.0" stroke="#000000" stroke-opacity="0.06" stroke-width="0.3"><path d="
M 490.00 371.00 
C 484.64 372.37 478.66 373.10 473.00 371.00
C 473.00 413.00 473.00 455.00 473.00 497.00
C 478.67 497.00 484.33 497.00 490.00 497.00
C 490.00 455.00 490.00 413.00 490.00 371.00 Z"/>
</g>
<g fill="#000000" fill-opacity="0.01" stroke="None">
<path d="
M 0.00 340.00 
C 0.36 327.14 8.99 318.48 18.25 313.81 C 27.52 309.14 40.84 310.14 48.25 316.75 C 55.67 323.36 65.84 333.43 61.93 346.08 C 58.02 358.72 68.44 361.39 77.30 365.71 C 86.16 370.04 93.48 372.31 104.75 375.59 C 116.01 378.88 123.25 378.82 136.03 379.98 C 148.80 381.13 163.28 378.46 173.75 376.74 C 184.21 375.03 194.08 371.05 202.77 367.42 C 211.46 363.80 219.47 359.20 228.00 355.00
C 218.73 333.28 233.84 311.74 255.03 310.98 C 276.21 310.21 293.81 331.77 284.00 353.00
C 292.32 361.14 300.60 363.16 309.25 367.19 C 317.89 371.23 326.68 374.51 337.25 376.80 C 347.82 379.09 361.32 379.91 374.00 380.00 C 386.68 380.09 394.53 377.56 405.25 375.24 C 415.97 372.93 425.51 370.05 433.30 365.29 C 441.09 360.53 454.71 360.21 451.07 346.92 C 447.42 333.63 454.72 325.05 462.25 317.81 C 469.79 310.57 482.29 308.98 492.25 312.19 C 502.21 315.41 509.04 326.03 512.00 336.00
L 512.00 0.00
L 413.00 0.00
C 415.13 1.24 416.67 3.40 419.00 4.00
C 417.34 41.26 417.34 82.76 419.00 120.00
C 408.72 126.81 402.59 123.26 404.00 109.00 C 405.41 94.74 403.26 76.93 404.00 62.00 C 404.74 47.07 403.45 30.12 404.00 15.00
C 305.33 15.00 206.67 15.00 108.00 15.00
C 108.00 93.00 108.00 171.00 108.00 249.00
C 206.67 249.00 305.33 249.00 404.00 249.00
C 403.98 214.48 404.02 178.80 404.00 145.00
C 406.57 144.13 408.24 142.79 409.00 141.00
C 411.22 141.93 413.87 143.11 416.00 142.00
C 422.58 156.62 417.16 172.24 419.00 191.00 C 420.84 209.76 416.39 226.66 419.00 247.00 C 421.61 267.34 402.22 264.77 384.00 264.00 C 365.78 263.23 346.43 264.36 328.00 264.00 C 309.57 263.64 290.49 264.19 272.00 264.00 C 253.51 263.81 234.42 264.15 216.00 264.00 C 197.58 263.85 178.19 264.21 160.00 264.00 C 141.81 263.79 121.64 264.42 104.00 264.00 C 86.36 263.58 95.57 242.53 94.00 226.00 C 92.43 209.47 94.75 187.64 94.00 170.00 C 93.25 152.36 94.44 132.07 94.00 114.00 C 93.56 95.93 94.42 76.09 94.00 58.00 C 93.58 39.91 95.11 21.01 93.00 4.00
C 95.07 3.31 97.09 1.37 99.00 0.00
L 0.00 0.00
L 0.00 340.00
M 139.00 46.00 
C 139.00 79.00 139.00 112.00 139.00 145.00
C 148.96 138.15 159.29 122.28 168.75 115.75 C 178.22 109.22 188.35 87.35 198.25 94.19 C 208.16 101.03 217.07 115.42 227.25 123.75 C 237.43 132.09 246.64 144.19 256.75 153.25 C 266.86 162.31 276.56 174.27 287.00 183.00
C 294.41 172.11 302.22 160.49 310.70 150.70 C 319.19 140.92 324.14 125.17 337.00 124.00
C 350.34 140.57 359.69 155.04 373.00 171.00
C 373.00 129.33 373.00 87.67 373.00 46.00
C 317.81 46.01 261.47 45.99 207.00 46.00
C 206.13 43.43 204.79 41.76 203.00 41.00
C 203.93 38.78 205.11 36.13 204.00 34.00
C 215.47 28.60 230.85 31.36 246.00 31.00 C 261.15 30.64 279.48 30.90 295.00 31.00 C 310.52 31.10 328.66 30.38 344.00 31.00 C 359.34 31.62 376.81 27.72 388.00 35.00
C 385.98 49.22 387.31 64.64 387.00 80.00 C 386.69 95.36 387.26 112.55 387.00 128.00 C 386.74 143.45 387.37 161.93 387.00 177.00 C 386.63 192.07 387.75 211.09 387.00 225.00 C 386.25 238.91 366.74 230.31 353.00 232.00 C 339.26 233.69 319.89 231.40 305.00 232.00 C 290.11 232.60 271.15 232.05 256.00 232.00 C 240.85 231.95 222.72 232.76 208.00 232.00 C 193.28 231.24 173.44 233.99 160.00 232.00 C 146.56 230.01 126.48 239.23 124.94 225.92 C 123.39 212.60 125.77 192.82 125.00 178.00 C 124.23 163.18 125.45 144.38 125.00 129.00 C 124.55 113.62 125.41 96.42 125.00 81.00 C 124.59 65.58 126.10 49.34 124.00 35.00
C 129.56 29.40 145.34 30.29 154.00 31.00 C 162.66 31.71 180.36 28.21 184.75 33.26 C 189.15 38.32 185.20 47.49 176.00 46.00 C 166.80 44.51 148.98 47.12 139.00 46.00
M 282.00 62.00 
C 300.62 58.20 313.19 76.58 308.29 92.30 C 303.39 108.02 283.06 114.32 270.25 101.75 C 257.43 89.18 266.32 65.20 282.00 62.00 Z"/>
</g>
<g fill="#000000" fill-opacity="0.99" stroke="None">
<path d="
M 413.00 0.00 
L 99.00 0.00
C 97.09 1.37 95.07 3.31 93.00 4.00
C 95.11 21.01 93.58 39.91 94.00 58.00 C 94.42 76.09 93.56 95.93 94.00 114.00 C 94.44 132.07 93.25 152.36 94.00 170.00 C 94.75 187.64 92.43 209.47 94.00 226.00 C 95.57 242.53 86.36 263.58 104.00 264.00 C 121.64 264.42 141.81 263.79 160.00 264.00 C 178.19 264.21 197.58 263.85 216.00 264.00 C 234.42 264.15 253.51 263.81 272.00 264.00 C 290.49 264.19 309.57 263.64 328.00 264.00 C 346.43 264.36 365.78 263.23 384.00 264.00 C 402.22 264.77 421.61 267.34 419.00 247.00 C 416.39 226.66 420.84 209.76 419.00 191.00 C 417.16 172.24 422.58 156.62 416.00 142.00
C 413.87 143.11 411.22 141.93 409.00 141.00
C 408.24 142.79 406.57 144.13 404.00 145.00
C 404.02 178.80 403.98 214.48 404.00 249.00
C 305.33 249.00 206.67 249.00 108.00 249.00
C 108.00 171.00 108.00 93.00 108.00 15.00
C 206.67 15.00 305.33 15.00 404.00 15.00
C 403.45 30.12 404.74 47.07 404.00 62.00 C 403.26 76.93 405.41 94.74 404.00 109.00 C 402.59 123.26 408.72 126.81 419.00 120.00
C 417.34 82.76 417.34 41.26 419.00 4.00
C 416.67 3.40 415.13 1.24 413.00 0.00 Z"/>
</g>
<g fill="#000000" fill-opacity="0.99" stroke="None">
<path d="
M 139.00 46.00 
C 148.98 47.12 166.80 44.51 176.00 46.00 C 185.20 47.49 189.15 38.32 184.75 33.26 C 180.36 28.21 162.66 31.71 154.00 31.00 C 145.34 30.29 129.56 29.40 124.00 35.00
C 126.10 49.34 124.59 65.58 125.00 81.00 C 125.41 96.42 124.55 113.62 125.00 129.00 C 125.45 144.38 124.23 163.18 125.00 178.00 C 125.77 192.82 123.39 212.60 124.94 225.92 C 126.48 239.23 146.56 230.01 160.00 232.00 C 173.44 233.99 193.28 231.24 208.00 232.00 C 222.72 232.76 240.85 231.95 256.00 232.00 C 271.15 232.05 290.11 232.60 305.00 232.00 C 319.89 231.40 339.26 233.69 353.00 232.00 C 366.74 230.31 386.25 238.91 387.00 225.00 C 387.75 211.09 386.63 192.07 387.00 177.00 C 387.37 161.93 386.74 143.45 387.00 128.00 C 387.26 112.55 386.69 95.36 387.00 80.00 C 387.31 64.64 385.98 49.22 388.00 35.00
C 376.81 27.72 359.34 31.62 344.00 31.00 C 328.66 30.38 310.52 31.10 295.00 31.00 C 279.48 30.90 261.15 30.64 246.00 31.00 C 230.85 31.36 215.47 28.60 204.00 34.00
C 205.11 36.13 203.93 38.78 203.00 41.00
C 204.79 41.76 206.13 43.43 207.00 46.00
C 261.47 45.99 317.81 46.01 373.00 46.00
C 373.00 87.67 373.00 129.33 373.00 171.00
C 359.69 155.04 350.34 140.57 337.00 124.00
C 324.14 125.17 319.19 140.92 310.70 150.70 C 302.22 160.49 294.41 172.11 287.00 183.00
C 276.56 174.27 266.86 162.31 256.75 153.25 C 246.64 144.19 237.43 132.09 227.25 123.75 C 217.07 115.42 208.16 101.03 198.25 94.19 C 188.35 87.35 178.22 109.22 168.75 115.75 C 159.29 122.28 148.96 138.15 139.00 145.00
C 139.00 112.00 139.00 79.00 139.00 46.00
M 195.00 111.00 
C 229.11 147.27 267.10 181.27 300.00 218.00
C 246.33 218.00 192.67 218.00 139.00 218.00
C 140.66 200.92 140.66 182.05 139.00 165.00
C 158.27 147.89 175.27 126.91 195.00 111.00
M 334.00 144.00 
C 346.90 161.60 358.44 179.07 373.00 195.00
C 373.00 202.67 373.00 210.33 373.00 218.00
C 358.95 215.75 336.18 220.99 323.00 218.00 C 309.82 215.01 308.79 198.86 297.00 194.00
C 308.80 177.31 322.56 160.19 334.00 144.00 Z"/>
</g>
<g fill="#000000" fill-opacity="0.96" stroke="None">
<path d="
M 282.00 62.00 
C 266.32 65.20 257.43 89.18 270.25 101.75 C 283.06 114.32 303.39 108.02 308.29 92.30 C 313.19 76.58 300.62 58.20 282.00 62.00
M 291.00 77.00 
C 301.69 86.42 288.00 100.21 279.00 89.00
C 280.01 86.14 279.98 83.58 279.00 81.00
C 282.78 77.43 286.16 77.27 291.00 77.00 Z"/>
</g>
<g fill="#000000" fill-opacity="0.07" stroke="None">
<path d="
M 291.00 77.00 
C 286.16 77.27 282.78 77.43 279.00 81.00
C 279.98 83.58 280.01 86.14 279.00 89.00
C 288.00 100.21 301.69 86.42 291.00 77.00 Z"/>
</g>
<g fill="#000000" fill-opacity="0.02" stroke="None">
<path d="
M 195.00 111.00 
C 175.27 126.91 158.27 147.89 139.00 165.00
C 140.66 182.05 140.66 200.92 139.00 218.00
C 192.67 218.00 246.33 218.00 300.00 218.00
C 267.10 181.27 229.11 147.27 195.00 111.00 Z"/>
</g>
<g fill="#000000" fill-opacity="0.02" stroke="None">
<path d="
M 334.00 144.00 
C 322.56 160.19 308.80 177.31 297.00 194.00
C 308.79 198.86 309.82 215.01 323.00 218.00 C 336.18 220.99 358.95 215.75 373.00 218.00
C 373.00 210.33 373.00 202.67 373.00 195.00
C 358.44 179.07 346.90 161.60 334.00 144.00 Z"/>
</g>
<g fill="#000000" fill-opacity="0.98" stroke="None">
<path d="
M 0.00 340.00 
L 0.00 345.00
C 3.17 356.25 8.93 361.92 8.00 377.00 C 7.07 392.08 8.25 408.96 8.00 424.00 C 7.75 439.04 7.69 455.34 8.00 470.00 C 8.31 484.66 5.97 499.62 10.00 511.00
C 11.17 509.75 13.33 510.66 14.00 512.00
L 50.00 512.00
C 50.31 510.19 52.00 508.23 54.00 508.00
C 52.16 487.65 57.75 460.62 51.00 443.00
C 48.99 444.20 46.17 442.83 44.00 442.00
C 43.33 443.58 41.58 445.26 39.00 446.00
C 39.09 462.17 38.93 480.14 39.00 497.00
C 33.33 497.00 27.67 497.00 22.00 497.00
C 22.00 455.00 22.00 413.00 22.00 371.00
C 27.61 372.66 33.42 372.97 39.00 371.00
C 36.67 382.26 38.68 396.52 38.00 408.00 C 37.32 419.48 39.70 425.67 50.00 425.00
C 50.10 422.60 52.85 421.87 54.00 420.00
C 51.72 404.54 53.63 385.74 53.00 369.00
C 78.62 384.42 105.63 395.04 143.00 395.00 C 180.37 394.96 206.90 384.00 233.00 369.00
C 233.64 415.49 231.71 466.04 234.00 510.00
C 235.53 511.27 237.95 509.54 239.00 512.00
L 275.00 512.00
C 282.10 503.28 278.37 486.56 279.00 471.00 C 279.63 455.44 278.68 436.37 279.00 420.00 C 279.32 403.63 278.76 384.61 279.00 368.00
C 304.38 384.08 328.94 394.26 366.07 394.93 C 403.21 395.60 433.09 385.21 459.00 369.00
C 458.34 415.25 460.33 462.17 458.00 508.00
C 460.07 508.69 462.09 510.63 464.00 512.00
L 500.00 512.00
C 508.57 502.40 504.44 484.47 505.00 468.00 C 505.56 451.53 504.90 431.07 505.00 414.00 C 505.10 396.93 505.76 377.75 504.00 361.00
C 509.88 357.47 509.65 351.23 512.00 345.00
L 512.00 336.00
C 509.04 326.03 502.21 315.41 492.25 312.19 C 482.29 308.98 469.79 310.57 462.25 317.81 C 454.72 325.05 447.42 333.63 451.07 346.92 C 454.71 360.21 441.09 360.53 433.30 365.29 C 425.51 370.05 415.97 372.93 405.25 375.24 C 394.53 377.56 386.68 380.09 374.00 380.00 C 361.32 379.91 347.82 379.09 337.25 376.80 C 326.68 374.51 317.89 371.23 309.25 367.19 C 300.60 363.16 292.32 361.14 284.00 353.00
C 293.81 331.77 276.21 310.21 255.03 310.98 C 233.84 311.74 218.73 333.28 228.00 355.00
C 219.47 359.20 211.46 363.80 202.77 367.42 C 194.08 371.05 184.21 375.03 173.75 376.74 C 163.28 378.46 148.80 381.13 136.03 379.98 C 123.25 378.82 116.01 378.88 104.75 375.59 C 93.48 372.31 86.16 370.04 77.30 365.71 C 68.44 361.39 58.02 358.72 61.93 346.08 C 65.84 333.43 55.67 323.36 48.25 316.75 C 40.84 310.14 27.52 309.14 18.25 313.81 C 8.99 318.48 0.36 327.14 0.00 340.00
M 29.00 325.00 
C 48.11 323.04 53.68 353.75 33.25 357.26 C 12.81 360.77 8.12 327.14 29.00 325.00
M 254.00 325.00 
C 273.37 322.74 278.50 352.98 258.75 356.80 C 239.01 360.62 232.91 327.46 254.00 325.00
M 479.00 325.00 
C 498.20 322.76 504.43 353.18 484.25 356.40 C 464.08 359.62 458.34 327.41 479.00 325.00
M 264.00 371.00 
C 264.00 413.00 264.00 455.00 264.00 497.00
C 258.67 497.00 253.33 497.00 248.00 497.00
C 248.00 455.00 248.00 413.00 248.00 371.00
C 253.07 373.18 258.79 372.59 264.00 371.00
M 490.00 371.00 
C 490.00 413.00 490.00 455.00 490.00 497.00
C 484.33 497.00 478.67 497.00 473.00 497.00
C 473.00 455.00 473.00 413.00 473.00 371.00
C 478.66 373.10 484.64 372.37 490.00 371.00 Z"/>
</g>
<g fill="#000000" fill-opacity="0.04" stroke="None">
<path d="
M 29.00 325.00 
C 8.12 327.14 12.81 360.77 33.25 357.26 C 53.68 353.75 48.11 323.04 29.00 325.00 Z"/>
</g>
<g fill="#000000" fill-opacity="0.04" stroke="None">
<path d="
M 254.00 325.00 
C 232.91 327.46 239.01 360.62 258.75 356.80 C 278.50 352.98 273.37 322.74 254.00 325.00 Z"/>
</g>
<g fill="#000000" fill-opacity="0.04" stroke="None">
<path d="
M 479.00 325.00 
C 458.34 327.41 464.08 359.62 484.25 356.40 C 504.43 353.18 498.20 322.76 479.00 325.00 Z"/>
</g>
<g fill="#000000" fill-opacity="0.03" stroke="None">
<path d="
M 0.00 512.00 
L 14.00 512.00
C 13.33 510.66 11.17 509.75 10.00 511.00
C 5.97 499.62 8.31 484.66 8.00 470.00 C 7.69 455.34 7.75 439.04 8.00 424.00 C 8.25 408.96 7.07 392.08 8.00 377.00 C 8.93 361.92 3.17 356.25 0.00 345.00
L 0.00 512.00 Z"/>
</g>
<g fill="#000000" fill-opacity="0.01" stroke="None">
<path d="
M 500.00 512.00 
L 512.00 512.00
L 512.00 345.00
C 509.65 351.23 509.88 357.47 504.00 361.00
C 505.76 377.75 505.10 396.93 505.00 414.00 C 504.90 431.07 505.56 451.53 505.00 468.00 C 504.44 484.47 508.57 502.40 500.00 512.00 Z"/>
</g>
<g fill="#000000" fill-opacity="0.01" stroke="None">
<path d="
M 275.00 512.00 
L 464.00 512.00
C 462.09 510.63 460.07 508.69 458.00 508.00
C 460.33 462.17 458.34 415.25 459.00 369.00
C 433.09 385.21 403.21 395.60 366.07 394.93 C 328.94 394.26 304.38 384.08 279.00 368.00
C 278.76 384.61 279.32 403.63 279.00 420.00 C 278.68 436.37 279.63 455.44 279.00 471.00 C 278.37 486.56 282.10 503.28 275.00 512.00 Z"/>
</g>
<g fill="#000000" fill-opacity="0.01" stroke="None">
<path d="
M 50.00 512.00 
L 239.00 512.00
C 237.95 509.54 235.53 511.27 234.00 510.00
C 231.71 466.04 233.64 415.49 233.00 369.00
C 206.90 384.00 180.37 394.96 143.00 395.00 C 105.63 395.04 78.62 384.42 53.00 369.00
C 53.63 385.74 51.72 404.54 54.00 420.00
C 52.85 421.87 50.10 422.60 50.00 425.00
C 39.70 425.67 37.32 419.48 38.00 408.00 C 38.68 396.52 36.67 382.26 39.00 371.00
C 33.42 372.97 27.61 372.66 22.00 371.00
C 22.00 413.00 22.00 455.00 22.00 497.00
C 27.67 497.00 33.33 497.00 39.00 497.00
C 38.93 480.14 39.09 462.17 39.00 446.00
C 41.58 445.26 43.33 443.58 44.00 442.00
C 46.17 442.83 48.99 444.20 51.00 443.00
C 57.75 460.62 52.16 487.65 54.00 508.00
C 52.00 508.23 50.31 510.19 50.00 512.00 Z"/>
</g>
<g fill="#000000" fill-opacity="0.00" stroke="None">
<path d="
M 264.00 371.00 
C 258.79 372.59 253.07 373.18 248.00 371.00
C 248.00 413.00 248.00 455.00 248.00 497.00
C 253.33 497.00 258.67 497.00 264.00 497.00
C 264.00 455.00 264.00 413.00 264.00 371.00 Z"/>
</g>
<g fill="#000000" fill-opacity="0.06" stroke="None">
<path d="
M 490.00 371.00 
C 484.64 372.37 478.66 373.10 473.00 371.00
C 473.00 413.00 473.00 455.00 473.00 497.00
C 478.67 497.00 484.33 497.00 490.00 497.00
C 490.00 455.00 490.00 413.00 490.00 371.00 Z"/>
</g>
</svg>