<svg xmlns="http://www.w3.org/2000/svg" xmlns:v="https://svgstorm.com"
viewBox = "0 0 350 350"
width="350"
height="350">
<g fill="None" fill-opacity="0.0" stroke="#FEFEFE" stroke-opacity="1.00" stroke-width="0.3"><path d="
M 0.00 350.00 
L 350.00 350.00
L 350.00 0.00
L 0.00 0.00
L 0.00 350.00
M 209.00 155.00 
C 209.56 158.45 209.55 161.61 209.00 165.00
C 208.26 178.65 202.40 186.21 191.25 195.25 C 180.10 204.29 165.70 197.43 151.32 203.32 C 136.95 209.22 158.11 229.05 147.75 236.75 C 137.39 244.46 120.17 238.19 109.77 233.23 C 99.37 228.26 90.66 221.53 83.25 211.75 C 75.84 201.97 70.00 188.82 70.00 176.00
C 69.69 172.75 69.54 169.24 70.00 166.00
C 71.28 132.46 101.33 103.39 134.01 100.01 C 166.69 96.63 207.08 119.66 209.00 155.00
M 231.00 197.00 
C 226.79 201.92 222.04 207.02 217.00 211.00
C 208.69 217.56 196.32 217.76 197.00 206.00 C 197.68 194.24 207.30 191.61 213.75 184.75 C 220.20 177.88 227.55 174.62 234.25 168.25 C 240.94 161.87 248.99 157.85 256.08 152.08 C 263.17 146.31 271.25 141.65 279.00 137.00
C 265.13 158.09 247.83 177.55 231.00 197.00
M 153.00 246.00 
C 169.24 238.46 164.63 224.34 178.75 213.75 C 192.87 203.16 207.99 224.36 195.69 237.69 C 183.40 251.03 168.71 253.25 153.00 246.00 Z"/>
</g>
<g fill="None" fill-opacity="0.0" stroke="#000000" stroke-opacity="1.00" stroke-width="0.3"><path d="
M 70.00 166.00 
C 69.87 169.32 70.00 172.67 70.00 176.00
C 70.00 188.82 75.84 201.97 83.25 211.75 C 90.66 221.53 99.37 228.26 109.77 233.23 C 120.17 238.19 137.39 244.46 147.75 236.75 C 158.11 229.05 136.95 209.22 151.32 203.32 C 165.70 197.43 180.10 204.29 191.25 195.25 C 202.40 186.21 208.26 178.65 209.00 165.00
C 209.18 161.73 209.18 158.27 209.00 155.00
C 207.08 119.66 166.69 96.63 134.01 100.01 C 101.33 103.39 71.28 132.46 70.00 166.00
M 121.00 115.00 
C 135.74 116.07 134.22 140.30 118.99 138.99 C 103.77 137.68 105.92 113.91 121.00 115.00
M 161.00 115.00 
C 175.82 117.09 172.11 141.82 157.00 139.00 C 141.89 136.18 146.09 112.90 161.00 115.00
M 101.00 147.00 
C 114.21 151.01 106.75 174.66 92.78 169.22 C 78.81 163.78 85.77 142.38 101.00 147.00
M 187.00 147.00 
C 200.73 151.17 192.84 175.00 178.78 169.22 C 164.72 163.44 171.99 142.44 187.00 147.00 Z"/>
</g>
<g fill="None" fill-opacity="0.0" stroke="#F3F3F3" stroke-opacity="1.00" stroke-width="0.3"><path d="
M 121.00 115.00 
C 105.92 113.91 103.77 137.68 118.99 138.99 C 134.22 140.30 135.74 116.07 121.00 115.00 Z"/>
</g>
<g fill="None" fill-opacity="0.0" stroke="#F1F1F1" stroke-opacity="1.00" stroke-width="0.3"><path d="
M 161.00 115.00 
C 146.09 112.90 141.89 136.18 157.00 139.00 C 172.11 141.82 175.82 117.09 161.00 115.00 Z"/>
</g>
<g fill="None" fill-opacity="0.0" stroke="#010101" stroke-opacity="1.00" stroke-width="0.3"><path d="
M 217.00 211.00 
C 221.68 206.67 226.52 201.48 231.00 197.00
C 247.83 177.55 265.13 158.09 279.00 137.00
C 271.25 141.65 263.17 146.31 256.08 152.08 C 248.99 157.85 240.94 161.87 234.25 168.25 C 227.55 174.62 220.20 177.88 213.75 184.75 C 207.30 191.61 197.68 194.24 197.00 206.00 C 196.32 217.76 208.69 217.56 217.00 211.00 Z"/>
</g>
<g fill="None" fill-opacity="0.0" stroke="#F4F4F4" stroke-opacity="1.00" stroke-width="0.3"><path d="
M 101.00 147.00 
C 85.77 142.38 78.81 163.78 92.78 169.22 C 106.75 174.66 114.21 151.01 101.00 147.00 Z"/>
</g>
<g fill="None" fill-opacity="0.0" stroke="#F3F3F3" stroke-opacity="1.00" stroke-width="0.3"><path d="
M 187.00 147.00 
C 171.99 142.44 164.72 163.44 178.78 169.22 C 192.84 175.00 200.73 151.17 187.00 147.00 Z"/>
</g>
<g fill="None" fill-opacity="0.0" stroke="#6D6D6D" stroke-opacity="1.00" stroke-width="0.3"><path d="
M 209.00 165.00 
C 209.55 161.61 209.56 158.45 209.00 155.00
C 209.18 158.27 209.18 161.73 209.00 165.00 Z"/>
</g>
<g fill="None" fill-opacity="0.0" stroke="#7E7E7E" stroke-opacity="1.00" stroke-width="0.3"><path d="
M 70.00 176.00 
C 70.00 172.67 69.87 169.32 70.00 166.00
C 69.54 169.24 69.69 172.75 70.00 176.00 Z"/>
</g>
<g fill="None" fill-opacity="0.0" stroke="#767676" stroke-opacity="1.00" stroke-width="0.3"><path d="
M 217.00 211.00 
C 222.04 207.02 226.79 201.92 231.00 197.00
C 226.52 201.48 221.68 206.67 217.00 211.00 Z"/>
</g>
<g fill="None" fill-opacity="0.0" stroke="#000000" stroke-opacity="1.00" stroke-width="0.3"><path d="
M 153.00 246.00 
C 168.71 253.25 183.40 251.03 195.69 237.69 C 207.99 224.36 192.87 203.16 178.75 213.75 C 164.63 224.34 169.24 238.46 153.00 246.00 Z"/>
</g>
<g fill="#FEFEFE" fill-opacity="1.00" stroke="None">
<path d="
M 0.00 350.00 
L 350.00 350.00
L 350.00 0.00
L 0.00 0.00
L 0.00 350.00
M 209.00 155.00 
C 209.56 158.45 209.55 161.61 209.00 165.00
C 208.26 178.65 202.40 186.21 191.25 195.25 C 180.10 204.29 165.70 197.43 151.32 203.32 C 136.95 209.22 158.11 229.05 147.75 236.75 C 137.39 244.46 120.17 238.19 109.77 233.23 C 99.37 228.26 90.66 221.53 83.25 211.75 C 75.84 201.97 70.00 188.82 70.00 176.00
C 69.69 172.75 69.54 169.24 70.00 166.00
C 71.28 132.46 101.33 103.39 134.01 100.01 C 166.69 96.63 207.08 119.66 209.00 155.00
M 231.00 197.00 
C 226.79 201.92 222.04 207.02 217.00 211.00
C 208.69 217.56 196.32 217.76 197.00 206.00 C 197.68 194.24 207.30 191.61 213.75 184.75 C 220.20 177.88 227.55 174.62 234.25 168.25 C 240.94 161.87 248.99 157.85 256.08 152.08 C 263.17 146.31 271.25 141.65 279.00 137.00
C 265.13 158.09 247.83 177.55 231.00 197.00
M 153.00 246.00 
C 169.24 238.46 164.63 224.34 178.75 213.75 C 192.87 203.16 207.99 224.36 195.69 237.69 C 183.40 251.03 168.71 253.25 153.00 246.00 Z"/>
</g>
<g fill="#000000" fill-opacity="1.00" stroke="None">
<path d="
M 70.00 166.00 
C 69.87 169.32 70.00 172.67 70.00 176.00
C 70.00 188.82 75.84 201.97 83.25 211.75 C 90.66 221.53 99.37 228.26 109.77 233.23 C 120.17 238.19 137.39 244.46 147.75 236.75 C 158.11 229.05 136.95 209.22 151.32 203.32 C 165.70 197.43 180.10 204.29 191.25 195.25 C 202.40 186.21 208.26 178.65 209.00 165.00
C 209.18 161.73 209.18 158.27 209.00 155.00
C 207.08 119.66 166.69 96.63 134.01 100.01 C 101.33 103.39 71.28 132.46 70.00 166.00
M 121.00 115.00 
C 135.74 116.07 134.22 140.30 118.99 138.99 C 103.77 137.68 105.92 113.91 121.00 115.00
M 161.00 115.00 
C 175.82 117.09 172.11 141.82 157.00 139.00 C 141.89 136.18 146.09 112.90 161.00 115.00
M 101.00 147.00 
C 114.21 151.01 106.75 174.66 92.78 169.22 C 78.81 163.78 85.77 142.38 101.00 147.00
M 187.00 147.00 
C 200.73 151.17 192.84 175.00 178.78 169.22 C 164.72 163.44 171.99 142.44 187.00 147.00 Z"/>
</g>
<g fill="#F3F3F3" fill-opacity="1.00" stroke="None">
<path d="
M 121.00 115.00 
C 105.92 113.91 103.77 137.68 118.99 138.99 C 134.22 140.30 135.74 116.07 121.00 115.00 Z"/>
</g>
<g fill="#F1F1F1" fill-opacity="1.00" stroke="None">
<path d="
M 161.00 115.00 
C 146.09 112.90 141.89 136.18 157.00 139.00 C 172.11 141.82 175.82 117.09 161.00 115.00 Z"/>
</g>
<g fill="#010101" fill-opacity="1.00" stroke="None">
<path d="
M 217.00 211.00 
C 221.68 206.67 226.52 201.48 231.00 197.00
C 247.83 177.55 265.13 158.09 279.00 137.00
C 271.25 141.65 263.17 146.31 256.08 152.08 C 248.99 157.85 240.94 161.87 234.25 168.25 C 227.55 174.62 220.20 177.88 213.75 184.75 C 207.30 191.61 197.68 194.24 197.00 206.00 C 196.32 217.76 208.69 217.56 217.00 211.00 Z"/>
</g>
<g fill="#F4F4F4" fill-opacity="1.00" stroke="None">
<path d="
M 101.00 147.00 
C 85.77 142.38 78.81 163.78 92.78 169.22 C 106.75 174.66 114.21 151.01 101.00 147.00 Z"/>
</g>
<g fill="#F3F3F3" fill-opacity="1.00" stroke="None">
<path d="
M 187.00 147.00 
C 171.99 142.44 164.72 163.44 178.78 169.22 C 192.84 175.00 200.73 151.17 187.00 147.00 Z"/>
</g>
<g fill="#6D6D6D" fill-opacity="1.00" stroke="None">
<path d="
M 209.00 165.00 
C 209.55 161.61 209.56 158.45 209.00 155.00
C 209.18 158.27 209.18 161.73 209.00 165.00 Z"/>
</g>
<g fill="#7E7E7E" fill-opacity="1.00" stroke="None">
<path d="
M 70.00 176.00 
C 70.00 172.67 69.87 169.32 70.00 166.00
C 69.54 169.24 69.69 172.75 70.00 176.00 Z"/>
</g>
<g fill="#767676" fill-opacity="1.00" stroke="None">
<path d="
M 217.00 211.00 
C 222.04 207.02 226.79 201.92 231.00 197.00
C 226.52 201.48 221.68 206.67 217.00 211.00 Z"/>
</g>
<g fill="#000000" fill-opacity="1.00" stroke="None">
<path d="
M 153.00 246.00 
C 168.71 253.25 183.40 251.03 195.69 237.69 C 207.99 224.36 192.87 203.16 178.75 213.75 C 164.63 224.34 169.24 238.46 153.00 246.00 Z"/>
</g>
</svg>