<?xml version="1.0" encoding="UTF-8"?>
<svg version="1.1" xmlns="http://www.w3.org/2000/svg" width="350" height="350">
<path d="M0 0 C115.5 0 231 0 350 0 C350 115.5 350 231 350 350 C234.5 350 119 350 0 350 C0 234.5 0 119 0 0 Z " fill="#FEFEFE" transform="translate(0,0)"/>
<path d="M0 0 C4.21366666 1.82508117 7.04930999 4.97226755 9.95703125 8.4375 C14.99716372 14.25615708 20.52556329 19.59562006 26 25 C32.56334452 31.47935291 39.03895754 37.95116125 45 45 C46.10140514 46.25243393 47.20522302 47.50275434 48.3125 48.75 C52.54402234 53.5264033 53.24645132 56.94713353 53.1953125 63.390625 C53.1924826 64.09523865 53.18965271 64.79985229 53.18673706 65.52581787 C53.17557801 67.7673876 53.15048193 70.00855186 53.125 72.25 C53.11496464 73.77343171 53.10583976 75.29686971 53.09765625 76.8203125 C53.07565291 80.54700586 53.04115272 84.27346333 53 88 C53.56162842 87.93143799 54.12325684 87.86287598 54.7019043 87.79223633 C62.07383294 86.96656258 69.39828419 86.7481728 76.8125 86.6875 C78.01326172 86.65849609 79.21402344 86.62949219 80.45117188 86.59960938 C81.60810547 86.59123047 82.76503906 86.58285156 83.95703125 86.57421875 C84.99835205 86.55963623 86.03967285 86.54505371 87.11254883 86.5300293 C90.73229975 87.11919143 92.38248914 88.48603131 95 91 C96.84467846 94.68935692 96.35009552 98.96435342 96 103 C94.25775551 107.30976269 92.13628814 109.00223779 88 111 C84.83155856 111.63444223 81.6569539 111.88316585 78.4375 112.125 C77.51654541 112.20282715 76.59559082 112.2806543 75.64672852 112.36083984 C36.08311392 115.57662653 36.08311392 115.57662653 31 112 C26.58717467 106.98542576 26.48721706 102.9621116 26.75 96.625 C26.76804687 95.79355469 26.78609375 94.96210938 26.8046875 94.10546875 C26.85148427 92.06980926 26.92321702 90.0347491 27 88 C20.21147014 93.86929614 13.59807578 99.91877349 7 106 C11.10105504 110.90004293 15.37432212 115.46896027 19.9375 119.9375 C27.32283247 127.2388323 27.32283247 127.2388323 30.4375 130.9375 C32.75432945 133.63152771 35.14260515 136.18856866 37.6796875 138.67578125 C38.69397827 139.67847046 38.69397827 139.67847046 39.72875977 140.70141602 C41.0969583 142.0465307 42.46971417 143.38702859 43.84741211 144.72241211 C44.48171143 145.34510986 45.11601074 145.96780762 45.76953125 146.609375 C46.62961792 147.4442041 46.62961792 147.4442041 47.50708008 148.29589844 C50.68329702 151.92140854 51.46742373 155.11769218 51.3046875 159.97265625 C50.77108778 163.52314667 49.42101378 165.39741018 47 168 C40.22755352 171.1923029 33.65548218 171.77149644 26.25 172.3515625 C25.03731445 172.45592621 23.82462891 172.56028992 22.57519531 172.66781616 C18.71761648 172.99762798 14.85895748 173.31177293 11 173.625 C7.14139423 173.94879909 3.28307054 174.27578493 -0.57519531 174.60360718 C-2.97011863 174.8059354 -5.36529303 175.00531992 -7.76074219 175.20132446 C-13.53049798 175.6774843 -19.25921727 176.25530477 -25 177 C-27.55981033 177.1569331 -30.12337249 177.26242968 -32.6875 177.3125 C-33.94949219 177.34988281 -35.21148437 177.38726562 -36.51171875 177.42578125 C-40.57040044 176.93037665 -42.12164478 175.83073537 -45 173 C-47.28326936 169.95564086 -47.41859308 166.7939921 -47.3203125 163.03125 C-46.78643864 159.64570842 -45.19273902 157.55819552 -43 155 C-39.95807898 153.12946885 -37.23466088 152.60008984 -33.7109375 152.18359375 C-32.68613281 152.05919922 -31.66132813 151.93480469 -30.60546875 151.80664062 C-29.53941406 151.68482422 -28.47335938 151.56300781 -27.375 151.4375 C-26.33214844 151.31181641 -25.28929687 151.18613281 -24.21484375 151.05664062 C-21.14463672 150.69059222 -18.07294869 150.34219525 -15 150 C-14.11489746 149.89776123 -13.22979492 149.79552246 -12.31787109 149.69018555 C-6.81527079 149.08748935 -1.40820372 148.87373081 4.125 148.9375 C4.89070313 148.94201172 5.65640625 148.94652344 6.4453125 148.95117188 C8.29691037 148.96274436 10.14846688 148.98066845 12 149 C4.69500819 140.15711518 -3.65588033 132.26989578 -11.8125 124.2265625 C-14 122 -14 122 -15.875 119.5625 C-18.13270268 116.83997619 -20.56518194 114.72910167 -23.26953125 112.46875 C-25.6597505 110.44003118 -27.84120377 108.27241708 -30 106 C-30.928125 105.071875 -31.85625 104.14375 -32.8125 103.1875 C-35.0151913 99.97786411 -35.55817067 98.10161646 -35.56640625 94.22265625 C-33.80187995 87.29841166 -29.05398497 82.66135545 -24.0625 77.875 C-23.45470703 77.28074219 -22.84691406 76.68648438 -22.22070312 76.07421875 C-21.03409418 74.91449092 -19.84504886 73.75724953 -18.65332031 72.6027832 C-14.16403147 68.28594571 -14.16403147 68.28594571 -10.125 63.5625 C-8.36773571 61.443446 -6.78730497 59.91785153 -4.6875 58.1875 C0.24547349 54.08377636 4.44289227 49.33566159 8 44 C3.71 39.71 -0.58 35.42 -5 31 C-8.55713883 32.77856942 -10.11389431 33.91523182 -12.75 36.6875 C-16.65786665 40.68979465 -20.69180109 44.4324139 -25 48 C-25.969375 48.804375 -26.93875 49.60875 -27.9375 50.4375 C-32.05878708 52.54019749 -35.46332592 52.95765213 -40 52 C-43.54332023 50.02898111 -45.7556466 47.36653011 -48 44 C-48.82232421 39.73886547 -48.94994662 37.45436572 -46.55078125 33.78125 C-44.15841671 31.04711909 -41.62613612 28.5055686 -39 26 C-38.38366699 25.40670898 -37.76733398 24.81341797 -37.13232422 24.20214844 C-30.46484509 17.80823182 -23.6956154 11.54951598 -16.70288086 5.51220703 C-15.2879078 4.25567038 -13.94561254 2.9178655 -12.625 1.5625 C-8.50659556 -0.88893122 -4.65989903 -0.82663829 0 0 Z " fill="#050505" transform="translate(201,76)"/>
<path d="M0 0 C1.68413953 2.20777955 3.23284447 4.37945024 4.6875 6.75 C7.26195004 10.36814601 10.18831458 13.11989346 13.48828125 16.0703125 C15 18 15 18 14.79488087 19.89681816 C13.84690776 22.40506803 12.6880972 23.68665549 10.79362488 25.58059692 C10.10807022 26.27316589 9.42251556 26.96573486 8.71618652 27.67929077 C7.95930542 28.42852814 7.20242432 29.1777655 6.42260742 29.94970703 C5.62909378 30.74687134 4.83558014 31.54403564 4.01802063 32.36535645 C1.3878581 35.00363784 -1.25302875 37.63088863 -3.89453125 40.2578125 C-5.72249078 42.08525356 -7.54993263 43.91321259 -9.37687683 45.7416687 C-13.20984809 49.57455018 -17.04777035 53.40236812 -20.88989258 57.22607422 C-25.32975356 61.64477531 -29.76072934 66.07223196 -34.18689996 70.50464356 C-38.44673355 74.77017556 -42.71226814 79.02994902 -46.98050499 83.28707504 C-48.79555329 85.09826974 -50.60924971 86.91082021 -52.42157936 88.72473526 C-54.9542974 91.25782354 -57.49340617 93.78432307 -60.03442383 96.30908203 C-61.16063644 97.43901077 -61.16063644 97.43901077 -62.30960083 98.59176636 C-63.00361496 99.27869568 -63.69762909 99.965625 -64.41267395 100.67337036 C-65.01238416 101.2710277 -65.61209436 101.86868504 -66.22997761 102.4844532 C-69.88827753 105.61680043 -73.09981557 106.50480858 -77.96875 106.38671875 C-82.27457989 105.56695498 -84.84034656 102.5813456 -87.375 99.125 C-88.35880872 95.78005035 -88.46531501 93.48986254 -88 90 C-84.31278112 83.74555623 -78.91148696 78.63503193 -73.79150391 73.56445312 C-72.99083496 72.76349213 -72.19016602 71.96253113 -71.36523438 71.13729858 C-68.74039406 68.51384196 -66.10856019 65.89752419 -63.4765625 63.28125 C-61.64624052 61.45466156 -59.81636212 59.62762852 -57.98690796 57.8001709 C-53.67712914 53.49722558 -49.36293021 49.19875956 -45.04651296 44.90247488 C-40.12833659 40.00673579 -35.21591019 35.10524414 -30.30393338 30.20328617 C-20.2089604 20.12915848 -10.10686819 10.06219309 0 0 Z " fill="#050505" transform="translate(156,175)"/>
<path d="M0 0 C7.470712 3.85499374 11.37701724 8.2312962 14.125 16.25 C15.32767607 23.63194278 14.04793237 29.90407999 10.125 36.25 C5.38690782 42.01254454 -0.66984823 45.61077084 -8.1015625 46.5234375 C-15.02712562 46.81670239 -20.2144836 45.30995659 -25.875 41.25 C-31.43077277 35.5564808 -34.15923968 29.81016915 -34.1875 21.8125 C-34.06817017 15.19715272 -32.97339915 11.56928327 -28.5 6.625 C-19.92994137 -1.12886257 -11.3174959 -4.80709692 0 0 Z " fill="#050505" transform="translate(277.875,70.75)"/>
<path d="M0 0 C12.21 0 24.42 0 37 0 C37 12.21 37 24.42 37 37 C24.79 37 12.58 37 0 37 C0 24.79 0 12.58 0 0 Z " fill="#4FA063" transform="translate(0,313)"/>
<path d="M0 0 C0.66700928 -0.00525696 1.33401855 -0.01051392 2.02124023 -0.01593018 C4.22606835 -0.0291334 6.4301743 -0.0203906 8.63500977 -0.01025391 C10.16813801 -0.0122748 11.70126531 -0.01518638 13.23439026 -0.01895142 C16.44818266 -0.02337538 19.66172495 -0.01694249 22.87548828 -0.00292969 C26.99265464 0.01414809 31.10923371 0.00433082 35.22637844 -0.01364708 C38.39285189 -0.02449542 41.55918647 -0.02103356 44.72566414 -0.0132637 C46.2435011 -0.01126384 47.76135071 -0.01371349 49.2791729 -0.02070236 C51.4025999 -0.02833282 53.52508084 -0.01669115 55.6484375 0 C57.46020729 0.00358017 57.46020729 0.00358017 59.30857849 0.00723267 C62.65865671 0.42154291 64.07632274 0.95418635 66.38891602 3.38818359 C66.88891602 6.88818359 66.88891602 6.88818359 66.38891602 10.38818359 C64.07632274 12.82218083 62.65865671 13.35482427 59.30857849 13.76913452 C58.10073196 13.7715213 56.89288544 13.77390808 55.6484375 13.77636719 C54.9796759 13.78162415 54.31091431 13.7868811 53.62188721 13.79229736 C51.41768849 13.80547053 49.21421545 13.79677045 47.01000977 13.78662109 C45.47591514 13.78864238 43.94182144 13.79155427 42.4077301 13.7953186 C39.19571771 13.79973809 35.98395589 13.7933223 32.77197266 13.77929688 C28.65361601 13.76219051 24.53584527 13.77205731 20.41751003 13.79001427 C17.25107907 13.80085009 14.08478726 13.797407 10.91835213 13.78963089 C9.39968865 13.78762906 7.88101256 13.79008758 6.36236382 13.79706955 C4.24123483 13.80468263 2.12105799 13.79308407 0 13.77636719 C-1.20705093 13.77398041 -2.41410187 13.77159363 -3.6577301 13.76913452 C-6.61108398 13.38818359 -6.61108398 13.38818359 -8.50083923 12.08267212 C-10.37667055 9.21972264 -9.96511988 6.69251864 -9.61108398 3.38818359 C-7.14846684 -0.37033586 -4.23036729 0.00836498 0 0 Z " fill="#0D0D0D" transform="translate(62.611083984375,117.61181640625)"/>
<path d="M0 0 C0.5534764 2.07553648 1 3.84365964 1 6 C1.66 6 2.32 6 3 6 C3 6.66 3 7.32 3 8 C3.66 8 4.32 8 5 8 C5.33 9.98 5.66 11.96 6 14 C6.66 14 7.32 14 8 14 C8.33 12.02 8.66 10.04 9 8 C13.05047576 6.64984141 15.7920168 7.37915002 20 8 C20.33 9.32 20.66 10.64 21 12 C21.66 12 22.32 12 23 12 C23 11.01 23 10.02 23 9 C29.625 8 29.625 8 33 8 C33.33 6.68 33.66 5.36 34 4 C35.90608098 7.21182149 36.22266247 9.53882603 36.125 13.25 C36.10695312 14.14203125 36.08890625 15.0340625 36.0703125 15.953125 C36.04710937 16.62859375 36.02390625 17.3040625 36 18 C34.35 18.66 32.7 19.32 31 20 C31.495 20.99 31.495 20.99 32 22 C31.01 22 30.02 22 29 22 C29 22.66 29 23.32 29 24 C29.99 24.33 30.98 24.66 32 25 C32 25.66 32 26.32 32 27 C29.69 26.34 27.38 25.68 25 25 C25.84566739 27.27173092 25.84566739 27.27173092 28.5 27.875 C31 29 31 29 31.9375 31 C31.958125 31.66 31.97875 32.32 32 33 C30 35 30 35 27.375 35.125 C26.59125 35.08375 25.8075 35.0425 25 35 C24.34 33.68 23.68 32.36 23 31 C24.98 31.33 26.96 31.66 29 32 C29.33 31.34 29.66 30.68 30 30 C26.846632 29.29925156 24.27275026 29 21 29 C20.67 29.33 20.34 29.66 20 30 C18.00041636 30.04080783 15.99954746 30.04254356 14 30 C13.67 31.32 13.34 32.64 13 34 C12.67 33.67 12.34 33.34 12 33 C11.67 33.66 11.34 34.32 11 35 C4.9453125 35.1953125 4.9453125 35.1953125 3 35 C2.34 34.34 1.68 33.68 1 33 C0.505 35.475 0.505 35.475 0 38 C-0.33 38 -0.66 38 -1 38 C-1.02464928 32.74894558 -1.04283568 27.49792455 -1.05493164 22.24682617 C-1.05997218 20.45905979 -1.06680454 18.67129755 -1.07543945 16.88354492 C-1.0875173 14.31948832 -1.09323094 11.75548603 -1.09765625 9.19140625 C-1.10281754 8.3872377 -1.10797882 7.58306915 -1.11329651 6.75453186 C-1.11349215 4.83598285 -1.06201983 2.91754632 -1 1 C-0.67 0.67 -0.34 0.34 0 0 Z " fill="#F4F8F5" transform="translate(38,312)"/>
<path d="M0 0 C0.87789688 -0.00570007 1.75579376 -0.01140015 2.66029358 -0.01727295 C4.5188781 -0.02672651 6.37747941 -0.03325834 8.23608398 -0.03710938 C11.08281564 -0.04682435 13.92882823 -0.07784779 16.77539062 -0.109375 C18.57942279 -0.11590406 20.38346012 -0.12115491 22.1875 -0.125 C23.04069321 -0.1373468 23.89388641 -0.1496936 24.77293396 -0.16241455 C30.71668765 -0.13995301 30.71668765 -0.13995301 32.88551331 1.53790283 C34.85104789 4.10572136 34.55128242 6.07411562 34.16015625 9.203125 C32.88452148 10.8653717 32.88452148 10.8653717 31.16015625 12.203125 C28.11194065 12.5137652 25.27237708 12.64725085 22.22265625 12.63671875 C21.34617432 12.6419606 20.46969238 12.64720245 19.56665039 12.65260315 C17.71404072 12.65902494 15.86139029 12.6576843 14.00878906 12.64916992 C11.17048784 12.64065599 8.33419624 12.66942411 5.49609375 12.70117188 C3.69661519 12.70278384 1.89713305 12.70220644 0.09765625 12.69921875 C-1.17742798 12.71606972 -1.17742798 12.71606972 -2.47827148 12.73326111 C-8.30980705 12.66409442 -8.30980705 12.66409442 -10.91015625 10.40258789 C-12.30980674 7.0912824 -11.67919273 4.62508622 -10.83984375 1.203125 C-7.48226493 -0.47566441 -3.69351277 0.01835437 0 0 Z " fill="#040404" transform="translate(101.83984375,91.796875)"/>
<path d="M0 0 C3.08698797 -0.30390136 5.96955928 -0.41982496 9.05859375 -0.3984375 C9.95868668 -0.40130768 10.8587796 -0.40417786 11.78614807 -0.40713501 C13.69182971 -0.40917859 15.59753219 -0.40362823 17.50317383 -0.39111328 C20.42251511 -0.37508229 23.34046796 -0.39094224 26.25976562 -0.41015625 C28.10937806 -0.4081735 29.95898963 -0.40432918 31.80859375 -0.3984375 C32.68366074 -0.40451019 33.55872772 -0.41058289 34.46031189 -0.4168396 C35.68156517 -0.40265488 35.68156517 -0.40265488 36.92749023 -0.38818359 C38.00098976 -0.38460342 38.00098976 -0.38460342 39.09617615 -0.38095093 C41.58414032 0.11688518 42.47251854 1.0039737 44 3 C44.4375 6 44.4375 6 44 9 C41.48910673 11.7939439 39.89903679 12.010517 36.12109375 12.40405273 C34.56008946 12.43053841 32.99871841 12.439337 31.4375 12.43359375 C30.60919678 12.4388356 29.78089355 12.44407745 28.92749023 12.44947815 C27.17921061 12.45589112 25.43088779 12.45457072 23.68261719 12.44604492 C21.00898448 12.43752862 18.33748453 12.46631413 15.6640625 12.49804688 C13.96354231 12.49965888 12.26301833 12.49908136 10.5625 12.49609375 C9.76448975 12.50732773 8.96647949 12.51856171 8.14428711 12.53013611 C4.53399887 12.48483242 2.42442916 12.31613537 -0.51171875 10.12915039 C-2.35494729 7.49220878 -2.48550756 6.15579914 -2 3 C-1.34 2.01 -0.68 1.02 0 0 Z " fill="#020202" transform="translate(92,145)"/>
<path d="M0 0 C0.33 0 0.66 0 1 0 C1.33 3.3 1.66 6.6 2 10 C4.64 10.33 7.28 10.66 10 11 C10.33 9.68 10.66 8.36 11 7 C11.33 7.66 11.66 8.32 12 9 C12.33 8.01 12.66 7.02 13 6 C13.94875 5.9175 14.8975 5.835 15.875 5.75 C19.10461791 5.34925077 19.10461791 5.34925077 20.375 2.9375 C20.684375 1.9784375 20.684375 1.9784375 21 1 C21 1.99 21 2.98 21 4 C21.763125 4.144375 22.52625 4.28875 23.3125 4.4375 C26 5 26 5 29 6 C28.67 6.99 28.34 7.98 28 9 C25.525 8.505 25.525 8.505 23 8 C24.39195915 10.7839183 26.15575779 10.97898997 29 12 C29 12.66 29 13.32 29 14 C19.1 14 9.2 14 -1 14 C-0.67 9.38 -0.34 4.76 0 0 Z " fill="#F7F8F7" transform="translate(39,336)"/>
<path d="M0 0 C12.21 0 24.42 0 37 0 C37 12.21 37 24.42 37 37 C36.34 37 35.68 37 35 37 C34.67 26.11 34.34 15.22 34 4 C22.78 3.67 11.56 3.34 0 3 C0 2.01 0 1.02 0 0 Z " fill="#69A174" transform="translate(0,313)"/>
<path d="M0 0 C1.90608098 3.21182149 2.22266247 5.53882603 2.125 9.25 C2.10695313 10.14203125 2.08890625 11.0340625 2.0703125 11.953125 C2.03550781 12.96632813 2.03550781 12.96632813 2 14 C-0.31 14.66 -2.62 15.32 -5 16 C-5 15.34 -5 14.68 -5 14 C-5.804375 13.855625 -6.60875 13.71125 -7.4375 13.5625 C-10 13 -10 13 -11 12 C-11.04092937 9.66702567 -11.04241723 7.33294775 -11 5 C-4.375 4 -4.375 4 -1 4 C-0.67 2.68 -0.34 1.36 0 0 Z " fill="#C7C7C7" transform="translate(72,316)"/>
<path d="M0 0 C0.33 0 0.66 0 1 0 C1.36923077 6.52307692 1.36923077 6.52307692 -0.5 8.9375 C-0.995 9.288125 -1.49 9.63875 -2 10 C-0.02 9.67 1.96 9.34 4 9 C4.99 10.485 4.99 10.485 6 12 C4.02 12.99 4.02 12.99 2 14 C1.67 13.67 1.34 13.34 1 13 C-4.91395622 12.35929146 -4.91395622 12.35929146 -9.9375 15.1875 C-11.97716583 17.96886249 -12.7090874 19.60601966 -13 23 C-13.66 23 -14.32 23 -15 23 C-14.38461538 16.47692308 -14.38461538 16.47692308 -12.4375 14.0625 C-11.963125 13.711875 -11.48875 13.36125 -11 13 C-12.423125 13.2784375 -12.423125 13.2784375 -13.875 13.5625 C-17 14 -17 14 -19 13 C-19 12.01 -19 11.02 -19 10 C-17.0625 9.4375 -17.0625 9.4375 -15 9 C-14.67 9.33 -14.34 9.66 -14 10 C-8.64966025 10.39775356 -8.64966025 10.39775356 -3.625 8.9375 C-1.34067465 6.21388131 -0.77546571 3.42497355 0 0 Z " fill="#C6F1D0" transform="translate(25,320)"/>
<path d="M0 0 C1.32 0.33 2.64 0.66 4 1 C4.25 3.8125 4.25 3.8125 4 7 C1.49182458 9.8647624 -0.11253943 10.0097221 -3.94238281 10.34057617 C-5.52937615 10.34010331 -7.11642107 10.32327908 -8.703125 10.29296875 C-9.54091492 10.28872391 -10.37870483 10.28447906 -11.24188232 10.28010559 C-13.91158502 10.26334408 -16.58052637 10.22569711 -19.25 10.1875 C-21.06248908 10.17244987 -22.87499002 10.15876203 -24.6875 10.14648438 C-29.12529231 10.11344889 -33.56251717 10.06168443 -38 10 C-38 9.67 -38 9.34 -38 9 C-26.12 9 -14.24 9 -2 9 C-2.495 6.03 -2.495 6.03 -3 3 C-2.01 2.67 -1.02 2.34 0 2 C0 1.34 0 0.68 0 0 Z " fill="#0C0C0C" transform="translate(132,147)"/>
<path d="M0 0 C2.33944736 0.28730055 4.6739143 0.61936779 7 1 C7.125 4.375 7.125 4.375 7 8 C5 10 5 10 2.375 10.125 C1.59125 10.08375 0.8075 10.0425 0 10 C-1.58538318 7.48203847 -2.0373656 6.32134414 -1.6875 3.3125 C-1 1 -1 1 0 0 Z " fill="#9A9A9A" transform="translate(77,320)"/>
<path d="M0 0 C0 4.62 0 9.24 0 14 C-0.33 14 -0.66 14 -1 14 C-1.33 10.37 -1.66 6.74 -2 3 C-5.78034623 6.47736026 -5.78034623 6.47736026 -8 11 C-8.99 11.33 -9.98 11.66 -11 12 C-11 9 -11 9 -9.1015625 6.73828125 C-8.28429687 5.93777344 -7.46703125 5.13726562 -6.625 4.3125 C-5.81289062 3.50425781 -5.00078125 2.69601563 -4.1640625 1.86328125 C-2 0 -2 0 0 0 Z M-15 12 C-14.34 12.33 -13.68 12.66 -13 13 C-13 13.99 -13 14.98 -13 16 C-13.66 16.66 -14.32 17.32 -15 18 C-15.69748583 19.31747324 -16.36959957 20.64914193 -17 22 C-18.32 20.68 -19.64 19.36 -21 18 C-19.02 16.02 -17.04 14.04 -15 12 Z " fill="#DDDDDD" transform="translate(228,164)"/>
<path d="M0 0 C0.02698189 1.62490954 0.04638757 3.24994633 0.0625 4.875 C0.07410156 5.77992188 0.08570312 6.68484375 0.09765625 7.6171875 C0 10 0 10 -1 12 C-3.4375 11.625 -3.4375 11.625 -6 11 C-7.39935013 8.20129973 -7.25265405 6.09501208 -7 3 C-4.82602976 -0.26095535 -4.13231215 0 0 0 Z " fill="#A3A3A3" transform="translate(91,335)"/>
<path d="M0 0 C0.33 0.66 0.66 1.32 1 2 C-1.06370038 4.67516715 -3.11058688 7.1051924 -5.5625 9.4375 C-8.11780739 12.12384879 -9.50929716 14.62630409 -11 18 C-11.66 18 -12.32 18 -13 18 C-13.33 18.99 -13.66 19.98 -14 21 C-17.0625 22.1875 -17.0625 22.1875 -20 23 C-20 20 -20 20 -18.1640625 17.82348633 C-17.32617188 17.00130615 -16.48828125 16.17912598 -15.625 15.33203125 C-14.72265625 14.43935547 -13.8203125 13.54667969 -12.890625 12.62695312 C-11.9272427 11.68863843 -10.96369892 10.7504895 -10 9.8125 C-9.03577654 8.86332231 -8.07222608 7.91346044 -7.109375 6.96289062 C-4.74613254 4.63509681 -2.37618518 2.31456867 0 0 Z " fill="#141414" transform="translate(125,206)"/>
<path d="M0 0 C0.6875 1.6875 0.6875 1.6875 1 4 C-0.64076492 7.44560634 -1.78512442 8.85674962 -5 11 C-9.18573976 11.19932094 -12.98575735 11.33808088 -17 10 C-17 9.34 -17 8.68 -17 8 C-16.06027344 8.03480469 -16.06027344 8.03480469 -15.1015625 8.0703125 C-13.87566406 8.09738281 -13.87566406 8.09738281 -12.625 8.125 C-11.40683594 8.15980469 -11.40683594 8.15980469 -10.1640625 8.1953125 C-7.78657757 8.21370051 -7.78657757 8.21370051 -6 6 C-6 6.66 -6 7.32 -6 8 C-5.34 8 -4.68 8 -4 8 C-3.67 5.69 -3.34 3.38 -3 1 C-2.01 0.67 -1.02 0.34 0 0 Z " fill="#5D9C6F" transform="translate(24,320)"/>
<path d="M0 0 C5.75 -0.125 5.75 -0.125 8 1 C8.042721 2.66611905 8.04063832 4.33382885 8 6 C7 7 7 7 3.9375 7.0625 C2.968125 7.041875 1.99875 7.02125 1 7 C0.67 8.32 0.34 9.64 0 11 C0 7.37 0 3.74 0 0 Z " fill="#B2B2B2" transform="translate(51,335)"/>
<path d="M0 0 C0.33 0.99 0.66 1.98 1 3 C-1.31 2.34 -3.62 1.68 -6 1 C-5.15433261 3.27173092 -5.15433261 3.27173092 -2.5 3.875 C0 5 0 5 0.9375 7 C0.958125 7.66 0.97875 8.32 1 9 C-1 11 -1 11 -3.625 11.125 C-4.40875 11.08375 -5.1925 11.0425 -6 11 C-6.66 9.68 -7.32 8.36 -8 7 C-5.03 7.495 -5.03 7.495 -2 8 C-1.67 7.34 -1.34 6.68 -1 6 C-2.175625 5.7834375 -2.175625 5.7834375 -3.375 5.5625 C-6 5 -6 5 -8 4 C-8 2.68 -8 1.36 -8 0 C-5.13822943 -1.43088528 -3.06624227 -0.59991697 0 0 Z " fill="#A3A3A3" transform="translate(69,336)"/>
<path d="M0 0 C0.78375 0.04125 1.5675 0.0825 2.375 0.125 C2.705 1.775 3.035 3.425 3.375 5.125 C1.065 5.125 -1.245 5.125 -3.625 5.125 C-3.295 5.785 -2.965 6.445 -2.625 7.125 C-0.645 7.125 1.335 7.125 3.375 7.125 C2.125 8.625 2.125 8.625 0.375 10.125 C-0.945 10.125 -2.265 10.125 -3.625 10.125 C-5.00625018 7.36249964 -4.81579306 5.17768901 -4.625 2.125 C-2.625 0.125 -2.625 0.125 0 0 Z " fill="#A4A4A4" transform="translate(55.625,319.875)"/>
<path d="M0 0 C2.97 0 5.94 0 9 0 C9 0.66 9 1.32 9 2 C6.69 2 4.38 2 2 2 C2 2.99 2 3.98 2 5 C3.98 5 5.96 5 8 5 C8 5.33 8 5.66 8 6 C6.02 6 4.04 6 2 6 C2 7.32 2 8.64 2 10 C3.98 10 5.96 10 8 10 C8 10.33 8 10.66 8 11 C5.36 11 2.72 11 0 11 C0 7.37 0 3.74 0 0 Z " fill="#A0A0A2" transform="translate(40,335)"/>
<path d="M0 0 C0.66 0 1.32 0 2 0 C4.05519054 5.31931669 4.05519054 5.31931669 3.8125 8.3125 C3.4103125 9.1478125 3.4103125 9.1478125 3 10 C2.01 10.33 1.02 10.66 0 11 C-2.1642235 7.75366476 -2.37569856 6.75698557 -2 3 C-1.34 2.01 -0.68 1.02 0 0 Z " fill="#111111" transform="translate(92,145)"/>
<path d="M0 0 C0.98120464 3.05263664 0.98120464 4.94736336 0 8 C-2.64 8 -5.28 8 -8 8 C-7.75 5.125 -7.75 5.125 -7 2 C-4.45285085 0.13209062 -3.19131 0 0 0 Z " fill="#D6D6D6" transform="translate(49,339)"/>
<path d="M0 0 C0.99 0.66 1.98 1.32 3 2 C2.67 4.97 2.34 7.94 2 11 C-1 11 -1 11 -2.6875 9.5 C-3.120625 9.005 -3.55375 8.51 -4 8 C-2.66666667 5.33333333 -1.33333333 2.66666667 0 0 Z " fill="#F7F7F7" transform="translate(170,181)"/>
<path d="M0 0 C3 4 3 4 4 7 C1.66666667 7 -0.66666667 7 -3 7 C-3.66 8.32 -4.32 9.64 -5 11 C-5.99 10.01 -6.98 9.02 -8 8 C-5.36 5.36 -2.72 2.72 0 0 Z " fill="#111111" transform="translate(156,175)"/>
<path d="M0 0 C1.98 1.65 3.96 3.3 6 5 C4 7 4 7 1 8 C-1.1875 6.5625 -1.1875 6.5625 -3 5 C-1.125 1.125 -1.125 1.125 0 0 Z " fill="#0B0B0B" transform="translate(244,120)"/>
<path d="M0 0 C0.66 0.33 1.32 0.66 2 1 C2 1.99 2 2.98 2 4 C1.34 4.66 0.68 5.32 0 6 C-0.69748583 7.31747324 -1.36959957 8.64914193 -2 10 C-3.32 8.68 -4.64 7.36 -6 6 C-4.02 4.02 -2.04 2.04 0 0 Z " fill="#E6E6E6" transform="translate(213,176)"/>
<path d="M0 0 C0.99 0.33 1.98 0.66 3 1 C2.278125 1.70125 1.55625 2.4025 0.8125 3.125 C-1.16932126 5.08993073 -2.94707153 7.13178456 -4.6875 9.3125 C-5.8321875 10.6428125 -5.8321875 10.6428125 -7 12 C-7.66 12 -8.32 12 -9 12 C-9.33 12.66 -9.66 13.32 -10 14 C-10.33 13.34 -10.66 12.68 -11 12 C-3.70159453 3.55353075 -3.70159453 3.55353075 0 0 Z " fill="#0E0E0E" transform="translate(179,152)"/>
<path d="M0 0 C0 3.54404336 -0.60989485 4.10267905 -2.875 6.6875 C-3.40867187 7.31011719 -3.94234375 7.93273437 -4.4921875 8.57421875 C-6 10 -6 10 -8 10 C-8 10.66 -8 11.32 -8 12 C-9.62626404 13.38232443 -11.2925002 14.71937515 -13 16 C-13.66 15.67 -14.32 15.34 -15 15 C-10.05 10.05 -5.1 5.1 0 0 Z " fill="#DDDDDD" transform="translate(106,260)"/>
<path d="M0 0 C2.31 0 4.62 0 7 0 C6.0919838 1.13199353 5.17316174 2.25532363 4.25 3.375 C3.73953125 4.00148437 3.2290625 4.62796875 2.703125 5.2734375 C1 7 1 7 -3 9 C-2.01 6.03 -1.02 3.06 0 0 Z " fill="#0C0C0C" transform="translate(110,249)"/>
<path d="M0 0 C0.66 0 1.32 0 2 0 C2.33 1.98 2.66 3.96 3 6 C3.66 6 4.32 6 5 6 C5.33 4.02 5.66 2.04 6 0 C6.66 0 7.32 0 8 0 C7.01 3.3 6.02 6.6 5 10 C4.34 10 3.68 10 3 10 C2.01 6.7 1.02 3.4 0 0 Z " fill="#999999" transform="translate(41,320)"/>
<path d="M0 0 C1.98 0.495 1.98 0.495 4 1 C4 2.98 4 4.96 4 7 C2.35 6.67 0.7 6.34 -1 6 C-0.67 4.02 -0.34 2.04 0 0 Z " fill="#F4F4F4" transform="translate(78,321)"/>
<path d="M0 0 C1.90608098 3.21182149 2.22266247 5.53882603 2.125 9.25 C2.10695313 10.14203125 2.08890625 11.0340625 2.0703125 11.953125 C2.03550781 12.96632813 2.03550781 12.96632813 2 14 C1.01 13.67 0.02 13.34 -1 13 C-1.2236337 11.58566794 -1.42826476 10.16832382 -1.625 8.75 C-1.74101563 7.96109375 -1.85703125 7.1721875 -1.9765625 6.359375 C-2.00319395 3.67847541 -1.36592084 2.27305911 0 0 Z " fill="#9E9E9E" transform="translate(72,316)"/>
<path d="M0 0 C0 4.29525524 -2.23382207 5.83865379 -5 9 C-5.99 10.485 -5.99 10.485 -7 12 C-8.32 11.67 -9.64 11.34 -11 11 C-7.37 7.37 -3.74 3.74 0 0 Z " fill="#282828" transform="translate(87,244)"/>
<path d="M0 0 C7.48291572 6.15034169 7.48291572 6.15034169 10 10 C6.50236796 10 5.90164472 9.44290244 3.3125 7.25 C2.68988281 6.73953125 2.06726563 6.2290625 1.42578125 5.703125 C0 4 0 4 0 0 Z " fill="#181818" transform="translate(217,92)"/>
<path d="M0 0 C0 3.64478912 -0.85802506 5.09303401 -3 8 C-4.9375 8.6875 -4.9375 8.6875 -7 9 C-8.3479743 9.63654342 -9.68596724 10.29605388 -11 11 C-7.81316569 6.66590534 -4.13621084 3.3810038 0 0 Z " fill="#1E1E1E" transform="translate(175,90)"/>
<path d="M0 0 C1.32 0.33 2.64 0.66 4 1 C4 2.98 4 4.96 4 7 C2.68 7 1.36 7 0 7 C0 4.69 0 2.38 0 0 Z " fill="#F7F7F7" transform="translate(86,337)"/>
<path d="M0 0 C0.99 0.33 1.98 0.66 3 1 C0.36 3.64 -2.28 6.28 -5 9 C-5.66 8.67 -6.32 8.34 -7 8 C-6.67 6.68 -6.34 5.36 -6 4 C-5.67 4.33 -5.34 4.66 -5 5 C-3.35 3.35 -1.7 1.7 0 0 Z " fill="#191919" transform="translate(160,203)"/>
<path d="M0 0 C0.66 0 1.32 0 2 0 C2 3.96 2 7.92 2 12 C1.34 12 0.68 12 0 12 C0 9.36 0 6.72 0 4 C-0.66 4 -1.32 4 -2 4 C-2 3.34 -2 2.68 -2 2 C-1.34 2 -0.68 2 0 2 C0 1.34 0 0.68 0 0 Z " fill="#A7A7A7" transform="translate(79,335)"/>
<path d="M0 0 C-0.5775 0.268125 -1.155 0.53625 -1.75 0.8125 C-4.05747896 1.95053246 -4.05747896 1.95053246 -6.125 3.625 C-8 5 -8 5 -10 5 C-10.33 5.66 -10.66 6.32 -11 7 C-11 3 -11 3 -9.4375 1.25 C-6.1945248 -0.4130642 -3.59133704 -0.20719252 0 0 Z " fill="#69A277" transform="translate(25,332)"/>
<path d="M0 0 C0 3 0 3 -1 5 C-1.66 5 -2.32 5 -3 5 C-3 5.66 -3 6.32 -3 7 C-3.66 7 -4.32 7 -5 7 C-5.33 7.99 -5.66 8.98 -6 10 C-8.0625 11.6875 -8.0625 11.6875 -10 13 C-10 10 -10 10 -7.8125 7.51953125 C-6.884375 6.62621094 -5.95625 5.73289063 -5 4.8125 C-4.071875 3.91144531 -3.14375 3.01039063 -2.1875 2.08203125 C-1.1046875 1.05142578 -1.1046875 1.05142578 0 0 Z " fill="#131313" transform="translate(147,184)"/>
<path d="M0 0 C0.66 0.33 1.32 0.66 2 1 C2.4140625 3.06640625 2.4140625 3.06640625 2.625 5.5625 C2.69976562 6.38878906 2.77453125 7.21507812 2.8515625 8.06640625 C2.90054688 8.70449219 2.94953125 9.34257812 3 10 C1.35 10.66 -0.3 11.32 -2 12 C-1.814375 11.38125 -1.62875 10.7625 -1.4375 10.125 C-0.76313824 7.95839822 -0.76313824 7.95839822 -2 6 C-1.01 6 -0.02 6 1 6 C0.67 4.02 0.34 2.04 0 0 Z " fill="#EAEAEA" transform="translate(69,320)"/>
<path d="M0 0 C1.15224028 0.92961422 2.29659176 1.8690125 3.4375 2.8125 C4.07558594 3.33457031 4.71367187 3.85664063 5.37109375 4.39453125 C7 6 7 6 8 9 C6.0625 8.6875 6.0625 8.6875 4 8 C3.67 7.01 3.34 6.02 3 5 C2.34 5 1.68 5 1 5 C0.67 3.35 0.34 1.7 0 0 Z " fill="#C5C5C5" transform="translate(205,216)"/>
<path d="M0 0 C1.65 0 3.3 0 5 0 C5 0.66 5 1.32 5 2 C4.01 2 3.02 2 2 2 C2 4.64 2 7.28 2 10 C1.34 10 0.68 10 0 10 C0 6.7 0 3.4 0 0 Z " fill="#9C9C9C" transform="translate(86,320)"/>
<path d="M0 0 C2.475 0.99 2.475 0.99 5 2 C3.35 3.65 1.7 5.3 0 7 C-0.66 5.68 -1.32 4.36 -2 3 C-1.34 2.01 -0.68 1.02 0 0 Z " fill="#F5F5F5" transform="translate(107,217)"/>
<path d="M0 0 C0.33 1.32 0.66 2.64 1 4 C-0.98 4.99 -0.98 4.99 -3 6 C-3 3 -3 3 -1.5 1.3125 C-0.7575 0.6628125 -0.7575 0.6628125 0 0 Z M-5 5 C-5 8 -5 8 -7 11 C-7.99 10.67 -8.98 10.34 -10 10 C-8.35 8.35 -6.7 6.7 -5 5 Z " fill="#F2F2F2" transform="translate(166,200)"/>
<path d="M0 0 C1.65 0 3.3 0 5 0 C4.54625 0.5775 4.0925 1.155 3.625 1.75 C2.15886484 3.7800333 1.05142216 5.73539843 0 8 C-1.125 6.25 -1.125 6.25 -2 4 C-1.125 1.75 -1.125 1.75 0 0 Z " fill="#6DA27B" transform="translate(10,332)"/>
<path d="M0 0 C1.32 0.33 2.64 0.66 4 1 C3.60196439 3.88575819 3.20990931 4.82189513 0.9375 6.75 C0.298125 7.1625 -0.34125 7.575 -1 8 C-1 4.88742431 -0.82638376 2.89234315 0 0 Z " fill="#0D0D0D" transform="translate(118,241)"/>
<path d="M0 0 C3.16115776 1.36983503 3.9927092 1.9890638 6 5 C3 6 3 6 0.9375 5.125 C0.298125 4.75375 -0.34125 4.3825 -1 4 C-1.66 3.67 -2.32 3.34 -3 3 C-2.01 2.01 -1.02 1.02 0 0 Z " fill="#DDDDDD" transform="translate(194,106)"/>
<path d="M0 0 C2.64 0 5.28 0 8 0 C8 1.65 8 3.3 8 5 C7.67 4.01 7.34 3.02 7 2 C4.69 2.33 2.38 2.66 0 3 C0 2.01 0 1.02 0 0 Z " fill="#FAFBFB" transform="translate(42,337)"/>
<path d="M0 0 C1.32 0.33 2.64 0.66 4 1 C4.12375 1.639375 4.2475 2.27875 4.375 2.9375 C4.684375 3.9584375 4.684375 3.9584375 5 5 C5.66 5.33 6.32 5.66 7 6 C6.34 6.66 5.68 7.32 5 8 C2.5 5.6875 2.5 5.6875 0 3 C0 2.01 0 1.02 0 0 Z " fill="#181818" transform="translate(192,200)"/>
<path d="M0 0 C0.66 0.66 1.32 1.32 2 2 C1.6442194 5.37991574 0.64284201 8.04288438 -1 11 C-2.38550197 8.22899606 -2.1877467 6.0665294 -2 3 C-1.34 2.01 -0.68 1.02 0 0 Z " fill="#F1F1F1" transform="translate(75,319)"/>
<path d="M0 0 C0.66 0.33 1.32 0.66 2 1 C0.75023244 4.65316671 0.32901247 5.78065836 -3 8 C-2.74438677 5.6568787 -2.40729228 3.32156597 -2 1 C-1.34 0.67 -0.68 0.34 0 0 Z " fill="#1B1B1B" transform="translate(93,92)"/>
<path d="M0 0 C2.1875 0.3125 2.1875 0.3125 4 1 C2.35 2.65 0.7 4.3 -1 6 C-1.66 5.01 -2.32 4.02 -3 3 C-1.75 1.4375 -1.75 1.4375 0 0 Z " fill="#F5F5F5" transform="translate(100,226)"/>
<path d="M0 0 C2.1875 0.3125 2.1875 0.3125 4 1 C2.35 2.65 0.7 4.3 -1 6 C-1.66 5.01 -2.32 4.02 -3 3 C-1.75 1.4375 -1.75 1.4375 0 0 Z " fill="#F3F3F3" transform="translate(116,210)"/>
<path d="M0 0 C0.66 0 1.32 0 2 0 C3.2890625 1.53125 3.2890625 1.53125 4.625 3.5 C5.07101563 4.1496875 5.51703125 4.799375 5.9765625 5.46875 C6.31429687 5.9740625 6.65203125 6.479375 7 7 C4 7 4 7 2.61328125 5.6875 C1.40885417 4.125 0.20442708 2.5625 -1 1 C-0.67 0.67 -0.34 0.34 0 0 Z " fill="#DADADA" transform="translate(242,115)"/>
<path d="M0 0 C0.33 0.66 0.66 1.32 1 2 C0.0409375 3.0209375 0.0409375 3.0209375 -0.9375 4.0625 C-3.3258493 7.46408839 -3.67877153 9.90433701 -4 14 C-4.33 14 -4.66 14 -5 14 C-5.602537 7.01057082 -5.602537 7.01057082 -3.88671875 4.1328125 C-2.66254412 2.69138998 -1.33721771 1.33721771 0 0 Z " fill="#303030" transform="translate(158,106)"/>
<path d="M0 0 C3.68754757 0.49831724 5.60490662 1.10067643 8 4 C4.79604584 4 2.90600261 3.25664978 0 2 C0 1.34 0 0.68 0 0 Z " fill="#F6F6F6" transform="translate(63,337)"/>
<path d="M0 0 C4.75 0.75 4.75 0.75 7 3 C6.01 3 5.02 3 4 3 C1.66435067 3.31669821 -0.6693782 3.64820803 -3 4 C-2.01 2.68 -1.02 1.36 0 0 Z " fill="#669775" transform="translate(25,327)"/>
<path d="M0 0 C0.33 1.32 0.66 2.64 1 4 C-0.65 5.32 -2.3 6.64 -4 8 C-4.33 7.34 -4.66 6.68 -5 6 C-3.35 4.02 -1.7 2.04 0 0 Z " fill="#202020" transform="translate(75,256)"/>
<path d="M0 0 C0.99 0.33 1.98 0.66 3 1 C2.34 2.32 1.68 3.64 1 5 C0.01 5 -0.98 5 -2 5 C-2 2 -2 2 0 0 Z " fill="#F3F3F3" transform="translate(124,202)"/>
<path d="M0 0 C0.99 0.66 1.98 1.32 3 2 C2.34 3.32 1.68 4.64 1 6 C-0.32 5.34 -1.64 4.68 -3 4 C-2 2 -2 2 0 0 Z " fill="#0C0C0C" transform="translate(188,106)"/>
<path d="M0 0 C1.98 0 3.96 0 6 0 C6 0.99 6 1.98 6 3 C4.02 3 2.04 3 0 3 C0 2.01 0 1.02 0 0 Z " fill="#FBFBFA" transform="translate(42,342)"/>
<path d="M0 0 C2.475 0.495 2.475 0.495 5 1 C4.34 3.31 3.68 5.62 3 8 C2.67 7.01 2.34 6.02 2 5 C1.34 5 0.68 5 0 5 C0 3.35 0 1.7 0 0 Z " fill="#DCDCDC" transform="translate(48,319)"/>
<path d="M0 0 C0 3 0 3 -1.25 4.625 C-3.17415516 6.1368362 -4.60989418 6.58791279 -7 7 C-7.33 6.34 -7.66 5.68 -8 5 C-4.04 2.525 -4.04 2.525 0 0 Z " fill="#D2D2D2" transform="translate(284,110)"/>
<path d="M0 0 C1.98 1.65 3.96 3.3 6 5 C5.01 5.66 4.02 6.32 3 7 C3 6.34 3 5.68 3 5 C2.01 4.67 1.02 4.34 0 4 C0 2.68 0 1.36 0 0 Z " fill="#282828" transform="translate(229,104)"/>
<path d="M0 0 C0.66 0 1.32 0 2 0 C2.66 1.65 3.32 3.3 4 5 C3.01 5.495 3.01 5.495 2 6 C1.01 5.34 0.02 4.68 -1 4 C-0.67 2.68 -0.34 1.36 0 0 Z " fill="#EAEAEA" transform="translate(202,73)"/>
</svg>
