<svg xmlns="http://www.w3.org/2000/svg" xmlns:v="https://svgstorm.com"
viewBox = "0 0 512 512"
width="512"
height="512">
<g fill="None" fill-opacity="0.0" stroke="#000000" stroke-opacity="0.01" stroke-width="0.3"><path d="
M 0.00 98.00 
C 0.39 79.68 9.97 68.41 23.25 57.20 C 36.53 45.99 51.84 47.11 75.00 47.00
C 78.79 21.33 101.54 0.74 128.00 0.00
L 0.00 0.00
L 0.00 98.00 Z"/>
</g>
<g fill="None" fill-opacity="0.0" stroke="#000000" stroke-opacity="0.98" stroke-width="0.3"><path d="
M 0.00 98.00 
L 0.00 339.00
C 3.37 357.33 11.82 371.07 27.25 380.75 C 42.69 390.43 72.77 385.86 97.00 387.00
C 94.31 408.07 101.96 424.99 120.00 431.00
C 114.75 472.31 126.80 504.41 161.00 512.00
L 187.00 512.00
C 210.44 507.08 232.21 490.25 231.35 465.30 C 230.49 440.35 246.57 419.23 272.01 418.99 C 297.45 418.76 315.28 439.18 314.65 464.69 C 314.01 490.21 333.73 505.54 355.00 512.00
L 370.00 512.00
C 384.21 508.87 398.25 502.06 406.70 487.70 C 415.15 473.33 412.63 456.57 413.00 432.00 C 413.37 407.43 412.83 378.65 413.00 353.00 C 413.17 327.35 412.91 299.14 413.00 273.00 C 413.09 246.86 412.93 219.27 413.00 193.00
C 425.47 185.33 439.82 168.56 452.75 155.75 C 465.69 142.95 480.73 128.16 493.70 115.70 C 506.66 103.23 507.64 91.81 512.00 76.00
L 512.00 58.00
C 507.96 37.41 492.05 15.18 471.23 6.42 C 450.41 -2.33 417.46 -0.18 404.00 15.00
C 390.88 6.73 385.39 3.39 367.92 1.93 C 350.45 0.48 338.69 3.84 327.23 10.58 C 315.77 17.32 304.01 31.99 299.81 42.25 C 295.61 52.52 291.97 71.92 296.26 85.75 C 300.56 99.58 304.25 107.99 317.75 120.25 C 331.26 132.50 342.65 146.36 355.75 158.25 C 368.85 170.14 380.81 186.44 393.00 193.00
C 392.48 225.65 393.70 262.80 393.00 295.00 C 392.30 327.20 394.33 367.53 393.00 398.00 C 391.67 428.47 398.46 462.13 387.09 480.10 C 375.73 498.07 352.24 494.45 340.81 480.75 C 329.37 467.05 338.11 442.79 325.74 428.25 C 313.36 413.71 302.45 401.07 281.75 399.20 C 261.06 397.33 242.87 402.93 228.25 417.25 C 213.63 431.57 213.37 449.38 210.65 470.70 C 207.93 492.02 178.47 495.76 159.25 490.60 C 140.04 485.44 136.13 454.77 141.00 430.00
C 158.88 426.21 165.17 407.64 163.00 387.00
C 197.76 387.79 224.89 390.51 244.25 370.25 C 263.60 349.99 260.95 324.57 260.00 288.00 C 259.05 251.43 261.59 202.99 260.00 167.00 C 258.41 131.01 265.98 96.75 253.20 73.75 C 240.42 50.75 214.84 44.43 185.00 47.00
C 182.66 23.67 159.72 2.47 136.00 0.00
L 128.00 0.00
C 101.54 0.74 78.79 21.33 75.00 47.00
C 51.84 47.11 36.53 45.99 23.25 57.20 C 9.97 68.41 0.39 79.68 0.00 98.00
M 165.00 47.00 
C 141.67 47.00 118.33 47.00 95.00 47.00
C 99.80 32.09 111.19 21.63 128.08 20.93 C 144.97 20.24 161.65 30.25 165.00 47.00
M 406.00 176.00 
C 404.06 175.26 402.02 175.32 400.00 176.00
C 390.36 163.20 375.98 151.05 364.75 139.25 C 353.52 127.45 339.60 114.63 328.75 103.25 C 317.90 91.87 314.68 85.24 314.07 69.93 C 313.47 54.61 318.63 45.08 329.30 33.30 C 339.97 21.52 350.28 23.93 366.07 21.93 C 381.87 19.92 386.91 33.35 400.25 37.19 C 413.60 41.03 420.08 20.42 435.25 21.81 C 450.42 23.19 465.59 20.71 474.92 32.13 C 484.25 43.55 491.82 49.61 491.93 65.08 C 492.05 80.56 488.93 91.85 477.77 102.77 C 466.61 113.69 453.18 127.11 441.75 138.75 C 430.33 150.40 415.80 163.29 406.00 176.00
M 47.00 67.00 
C 62.45 65.61 82.83 67.45 100.00 67.00 C 117.17 66.55 141.56 66.87 158.00 67.00 C 174.44 67.13 199.74 65.93 212.75 67.60 C 225.76 69.28 230.11 75.16 236.71 85.30 C 243.32 95.45 239.10 113.15 240.00 130.00 C 240.90 146.85 239.73 170.21 240.00 188.00 C 240.27 205.79 240.21 227.17 240.00 245.00 C 239.79 262.83 240.79 286.01 240.00 303.00 C 239.21 319.99 242.98 338.09 236.81 348.25 C 230.64 358.42 225.07 365.13 212.30 366.64 C 199.53 368.15 174.87 366.84 159.00 367.00 C 143.13 367.16 116.88 367.50 101.00 367.00 C 85.12 366.50 59.50 368.62 46.75 366.80 C 34.00 364.98 29.86 358.12 23.42 348.23 C 16.99 338.34 20.87 319.74 20.00 303.00 C 19.13 286.26 20.39 262.68 20.00 245.00 C 19.61 227.32 20.15 205.66 20.00 188.00 C 19.85 170.34 20.03 146.66 20.00 130.00 C 19.97 113.34 18.69 95.61 23.58 86.23 C 28.46 76.85 36.70 67.93 47.00 67.00
M 143.00 387.00 
C 144.53 399.60 142.47 413.06 129.92 412.93 C 117.37 412.81 115.77 399.67 117.00 387.00
C 125.67 387.00 134.33 387.00 143.00 387.00 Z"/>
</g>
<g fill="None" fill-opacity="0.0" stroke="#000000" stroke-opacity="0.01" stroke-width="0.3"><path d="
M 512.00 58.00 
L 512.00 0.00
L 136.00 0.00
C 159.72 2.47 182.66 23.67 185.00 47.00
C 214.84 44.43 240.42 50.75 253.20 73.75 C 265.98 96.75 258.41 131.01 260.00 167.00 C 261.59 202.99 259.05 251.43 260.00 288.00 C 260.95 324.57 263.60 349.99 244.25 370.25 C 224.89 390.51 197.76 387.79 163.00 387.00
C 165.17 407.64 158.88 426.21 141.00 430.00
C 136.13 454.77 140.04 485.44 159.25 490.60 C 178.47 495.76 207.93 492.02 210.65 470.70 C 213.37 449.38 213.63 431.57 228.25 417.25 C 242.87 402.93 261.06 397.33 281.75 399.20 C 302.45 401.07 313.36 413.71 325.74 428.25 C 338.11 442.79 329.37 467.05 340.81 480.75 C 352.24 494.45 375.73 498.07 387.09 480.10 C 398.46 462.13 391.67 428.47 393.00 398.00 C 394.33 367.53 392.30 327.20 393.00 295.00 C 393.70 262.80 392.48 225.65 393.00 193.00
C 380.81 186.44 368.85 170.14 355.75 158.25 C 342.65 146.36 331.26 132.50 317.75 120.25 C 304.25 107.99 300.56 99.58 296.26 85.75 C 291.97 71.92 295.61 52.52 299.81 42.25 C 304.01 31.99 315.77 17.32 327.23 10.58 C 338.69 3.84 350.45 0.48 367.92 1.93 C 385.39 3.39 390.88 6.73 404.00 15.00
C 417.46 -0.18 450.41 -2.33 471.23 6.42 C 492.05 15.18 507.96 37.41 512.00 58.00 Z"/>
</g>
<g fill="None" fill-opacity="0.0" stroke="#000000" stroke-opacity="0.02" stroke-width="0.3"><path d="
M 165.00 47.00 
C 161.65 30.25 144.97 20.24 128.08 20.93 C 111.19 21.63 99.80 32.09 95.00 47.00
C 118.33 47.00 141.67 47.00 165.00 47.00 Z"/>
</g>
<g fill="None" fill-opacity="0.0" stroke="#000000" stroke-opacity="0.00" stroke-width="0.3"><path d="
M 406.00 176.00 
C 415.80 163.29 430.33 150.40 441.75 138.75 C 453.18 127.11 466.61 113.69 477.77 102.77 C 488.93 91.85 492.05 80.56 491.93 65.08 C 491.82 49.61 484.25 43.55 474.92 32.13 C 465.59 20.71 450.42 23.19 435.25 21.81 C 420.08 20.42 413.60 41.03 400.25 37.19 C 386.91 33.35 381.87 19.92 366.07 21.93 C 350.28 23.93 339.97 21.52 329.30 33.30 C 318.63 45.08 313.47 54.61 314.07 69.93 C 314.68 85.24 317.90 91.87 328.75 103.25 C 339.60 114.63 353.52 127.45 364.75 139.25 C 375.98 151.05 390.36 163.20 400.00 176.00
C 402.02 175.32 404.06 175.26 406.00 176.00 Z"/>
</g>
<g fill="None" fill-opacity="0.0" stroke="#000000" stroke-opacity="0.00" stroke-width="0.3"><path d="
M 47.00 67.00 
C 36.70 67.93 28.46 76.85 23.58 86.23 C 18.69 95.61 19.97 113.34 20.00 130.00 C 20.03 146.66 19.85 170.34 20.00 188.00 C 20.15 205.66 19.61 227.32 20.00 245.00 C 20.39 262.68 19.13 286.26 20.00 303.00 C 20.87 319.74 16.99 338.34 23.42 348.23 C 29.86 358.12 34.00 364.98 46.75 366.80 C 59.50 368.62 85.12 366.50 101.00 367.00 C 116.88 367.50 143.13 367.16 159.00 367.00 C 174.87 366.84 199.53 368.15 212.30 366.64 C 225.07 365.13 230.64 358.42 236.81 348.25 C 242.98 338.09 239.21 319.99 240.00 303.00 C 240.79 286.01 239.79 262.83 240.00 245.00 C 240.21 227.17 240.27 205.79 240.00 188.00 C 239.73 170.21 240.90 146.85 240.00 130.00 C 239.10 113.15 243.32 95.45 236.71 85.30 C 230.11 75.16 225.76 69.28 212.75 67.60 C 199.74 65.93 174.44 67.13 158.00 67.00 C 141.56 66.87 117.17 66.55 100.00 67.00 C 82.83 67.45 62.45 65.61 47.00 67.00
M 46.00 151.00 
C 53.12 143.62 67.82 145.66 77.75 146.40 C 87.68 147.14 95.53 151.72 103.30 154.71 C 111.07 157.70 116.27 163.35 124.30 166.71 C 132.33 170.08 139.87 171.71 149.75 173.39 C 159.63 175.08 173.08 172.95 182.70 171.65 C 192.31 170.35 195.73 162.39 206.25 163.80 C 216.77 165.21 214.48 185.67 214.00 200.00 C 213.52 214.33 214.91 237.04 214.00 252.00 C 213.09 266.96 215.98 288.88 214.00 303.00 C 212.02 317.12 221.10 338.47 207.25 340.40 C 193.41 342.32 171.27 340.84 156.00 341.00 C 140.73 341.16 120.31 341.68 105.00 341.00 C 89.69 340.32 67.13 342.92 53.00 341.00 C 38.87 339.08 47.98 318.27 46.00 304.00 C 44.02 289.73 46.93 268.77 46.00 253.00 C 45.07 237.23 46.53 217.27 46.00 201.00 C 45.47 184.73 46.47 166.53 46.00 151.00 Z"/>
</g>
<g fill="None" fill-opacity="0.0" stroke="#000000" stroke-opacity="0.00" stroke-width="0.3"><path d="
M 370.00 512.00 
L 512.00 512.00
L 512.00 76.00
C 507.64 91.81 506.66 103.23 493.70 115.70 C 480.73 128.16 465.69 142.95 452.75 155.75 C 439.82 168.56 425.47 185.33 413.00 193.00
C 412.93 219.27 413.09 246.86 413.00 273.00 C 412.91 299.14 413.17 327.35 413.00 353.00 C 412.83 378.65 413.37 407.43 413.00 432.00 C 412.63 456.57 415.15 473.33 406.70 487.70 C 398.25 502.06 384.21 508.87 370.00 512.00 Z"/>
</g>
<g fill="None" fill-opacity="0.0" stroke="#000000" stroke-opacity="1.00" stroke-width="0.3"><path d="
M 46.00 151.00 
C 46.47 166.53 45.47 184.73 46.00 201.00 C 46.53 217.27 45.07 237.23 46.00 253.00 C 46.93 268.77 44.02 289.73 46.00 304.00 C 47.98 318.27 38.87 339.08 53.00 341.00 C 67.13 342.92 89.69 340.32 105.00 341.00 C 120.31 341.68 140.73 341.16 156.00 341.00 C 171.27 340.84 193.41 342.32 207.25 340.40 C 221.10 338.47 212.02 317.12 214.00 303.00 C 215.98 288.88 213.09 266.96 214.00 252.00 C 214.91 237.04 213.52 214.33 214.00 200.00 C 214.48 185.67 216.77 165.21 206.25 163.80 C 195.73 162.39 192.31 170.35 182.70 171.65 C 173.08 172.95 159.63 175.08 149.75 173.39 C 139.87 171.71 132.33 170.08 124.30 166.71 C 116.27 163.35 111.07 157.70 103.30 154.71 C 95.53 151.72 87.68 147.14 77.75 146.40 C 67.82 145.66 53.12 143.62 46.00 151.00 Z"/>
</g>
<g fill="None" fill-opacity="0.0" stroke="#000000" stroke-opacity="0.00" stroke-width="0.3"><path d="
M 0.00 512.00 
L 161.00 512.00
C 126.80 504.41 114.75 472.31 120.00 431.00
C 101.96 424.99 94.31 408.07 97.00 387.00
C 72.77 385.86 42.69 390.43 27.25 380.75 C 11.82 371.07 3.37 357.33 0.00 339.00
L 0.00 512.00 Z"/>
</g>
<g fill="None" fill-opacity="0.0" stroke="#000000" stroke-opacity="0.02" stroke-width="0.3"><path d="
M 143.00 387.00 
C 134.33 387.00 125.67 387.00 117.00 387.00
C 115.77 399.67 117.37 412.81 129.92 412.93 C 142.47 413.06 144.53 399.60 143.00 387.00 Z"/>
</g>
<g fill="None" fill-opacity="0.0" stroke="#000000" stroke-opacity="0.01" stroke-width="0.3"><path d="
M 187.00 512.00 
L 355.00 512.00
C 333.73 505.54 314.01 490.21 314.65 464.69 C 315.28 439.18 297.45 418.76 272.01 418.99 C 246.57 419.23 230.49 440.35 231.35 465.30 C 232.21 490.25 210.44 507.08 187.00 512.00 Z"/>
</g>
<g fill="#000000" fill-opacity="0.01" stroke="None">
<path d="
M 0.00 98.00 
C 0.39 79.68 9.97 68.41 23.25 57.20 C 36.53 45.99 51.84 47.11 75.00 47.00
C 78.79 21.33 101.54 0.74 128.00 0.00
L 0.00 0.00
L 0.00 98.00 Z"/>
</g>
<g fill="#000000" fill-opacity="0.98" stroke="None">
<path d="
M 0.00 98.00 
L 0.00 339.00
C 3.37 357.33 11.82 371.07 27.25 380.75 C 42.69 390.43 72.77 385.86 97.00 387.00
C 94.31 408.07 101.96 424.99 120.00 431.00
C 114.75 472.31 126.80 504.41 161.00 512.00
L 187.00 512.00
C 210.44 507.08 232.21 490.25 231.35 465.30 C 230.49 440.35 246.57 419.23 272.01 418.99 C 297.45 418.76 315.28 439.18 314.65 464.69 C 314.01 490.21 333.73 505.54 355.00 512.00
L 370.00 512.00
C 384.21 508.87 398.25 502.06 406.70 487.70 C 415.15 473.33 412.63 456.57 413.00 432.00 C 413.37 407.43 412.83 378.65 413.00 353.00 C 413.17 327.35 412.91 299.14 413.00 273.00 C 413.09 246.86 412.93 219.27 413.00 193.00
C 425.47 185.33 439.82 168.56 452.75 155.75 C 465.69 142.95 480.73 128.16 493.70 115.70 C 506.66 103.23 507.64 91.81 512.00 76.00
L 512.00 58.00
C 507.96 37.41 492.05 15.18 471.23 6.42 C 450.41 -2.33 417.46 -0.18 404.00 15.00
C 390.88 6.73 385.39 3.39 367.92 1.93 C 350.45 0.48 338.69 3.84 327.23 10.58 C 315.77 17.32 304.01 31.99 299.81 42.25 C 295.61 52.52 291.97 71.92 296.26 85.75 C 300.56 99.58 304.25 107.99 317.75 120.25 C 331.26 132.50 342.65 146.36 355.75 158.25 C 368.85 170.14 380.81 186.44 393.00 193.00
C 392.48 225.65 393.70 262.80 393.00 295.00 C 392.30 327.20 394.33 367.53 393.00 398.00 C 391.67 428.47 398.46 462.13 387.09 480.10 C 375.73 498.07 352.24 494.45 340.81 480.75 C 329.37 467.05 338.11 442.79 325.74 428.25 C 313.36 413.71 302.45 401.07 281.75 399.20 C 261.06 397.33 242.87 402.93 228.25 417.25 C 213.63 431.57 213.37 449.38 210.65 470.70 C 207.93 492.02 178.47 495.76 159.25 490.60 C 140.04 485.44 136.13 454.77 141.00 430.00
C 158.88 426.21 165.17 407.64 163.00 387.00
C 197.76 387.79 224.89 390.51 244.25 370.25 C 263.60 349.99 260.95 324.57 260.00 288.00 C 259.05 251.43 261.59 202.99 260.00 167.00 C 258.41 131.01 265.98 96.75 253.20 73.75 C 240.42 50.75 214.84 44.43 185.00 47.00
C 182.66 23.67 159.72 2.47 136.00 0.00
L 128.00 0.00
C 101.54 0.74 78.79 21.33 75.00 47.00
C 51.84 47.11 36.53 45.99 23.25 57.20 C 9.97 68.41 0.39 79.68 0.00 98.00
M 165.00 47.00 
C 141.67 47.00 118.33 47.00 95.00 47.00
C 99.80 32.09 111.19 21.63 128.08 20.93 C 144.97 20.24 161.65 30.25 165.00 47.00
M 406.00 176.00 
C 404.06 175.26 402.02 175.32 400.00 176.00
C 390.36 163.20 375.98 151.05 364.75 139.25 C 353.52 127.45 339.60 114.63 328.75 103.25 C 317.90 91.87 314.68 85.24 314.07 69.93 C 313.47 54.61 318.63 45.08 329.30 33.30 C 339.97 21.52 350.28 23.93 366.07 21.93 C 381.87 19.92 386.91 33.35 400.25 37.19 C 413.60 41.03 420.08 20.42 435.25 21.81 C 450.42 23.19 465.59 20.71 474.92 32.13 C 484.25 43.55 491.82 49.61 491.93 65.08 C 492.05 80.56 488.93 91.85 477.77 102.77 C 466.61 113.69 453.18 127.11 441.75 138.75 C 430.33 150.40 415.80 163.29 406.00 176.00
M 47.00 67.00 
C 62.45 65.61 82.83 67.45 100.00 67.00 C 117.17 66.55 141.56 66.87 158.00 67.00 C 174.44 67.13 199.74 65.93 212.75 67.60 C 225.76 69.28 230.11 75.16 236.71 85.30 C 243.32 95.45 239.10 113.15 240.00 130.00 C 240.90 146.85 239.73 170.21 240.00 188.00 C 240.27 205.79 240.21 227.17 240.00 245.00 C 239.79 262.83 240.79 286.01 240.00 303.00 C 239.21 319.99 242.98 338.09 236.81 348.25 C 230.64 358.42 225.07 365.13 212.30 366.64 C 199.53 368.15 174.87 366.84 159.00 367.00 C 143.13 367.16 116.88 367.50 101.00 367.00 C 85.12 366.50 59.50 368.62 46.75 366.80 C 34.00 364.98 29.86 358.12 23.42 348.23 C 16.99 338.34 20.87 319.74 20.00 303.00 C 19.13 286.26 20.39 262.68 20.00 245.00 C 19.61 227.32 20.15 205.66 20.00 188.00 C 19.85 170.34 20.03 146.66 20.00 130.00 C 19.97 113.34 18.69 95.61 23.58 86.23 C 28.46 76.85 36.70 67.93 47.00 67.00
M 143.00 387.00 
C 144.53 399.60 142.47 413.06 129.92 412.93 C 117.37 412.81 115.77 399.67 117.00 387.00
C 125.67 387.00 134.33 387.00 143.00 387.00 Z"/>
</g>
<g fill="#000000" fill-opacity="0.01" stroke="None">
<path d="
M 512.00 58.00 
L 512.00 0.00
L 136.00 0.00
C 159.72 2.47 182.66 23.67 185.00 47.00
C 214.84 44.43 240.42 50.75 253.20 73.75 C 265.98 96.75 258.41 131.01 260.00 167.00 C 261.59 202.99 259.05 251.43 260.00 288.00 C 260.95 324.57 263.60 349.99 244.25 370.25 C 224.89 390.51 197.76 387.79 163.00 387.00
C 165.17 407.64 158.88 426.21 141.00 430.00
C 136.13 454.77 140.04 485.44 159.25 490.60 C 178.47 495.76 207.93 492.02 210.65 470.70 C 213.37 449.38 213.63 431.57 228.25 417.25 C 242.87 402.93 261.06 397.33 281.75 399.20 C 302.45 401.07 313.36 413.71 325.74 428.25 C 338.11 442.79 329.37 467.05 340.81 480.75 C 352.24 494.45 375.73 498.07 387.09 480.10 C 398.46 462.13 391.67 428.47 393.00 398.00 C 394.33 367.53 392.30 327.20 393.00 295.00 C 393.70 262.80 392.48 225.65 393.00 193.00
C 380.81 186.44 368.85 170.14 355.75 158.25 C 342.65 146.36 331.26 132.50 317.75 120.25 C 304.25 107.99 300.56 99.58 296.26 85.75 C 291.97 71.92 295.61 52.52 299.81 42.25 C 304.01 31.99 315.77 17.32 327.23 10.58 C 338.69 3.84 350.45 0.48 367.92 1.93 C 385.39 3.39 390.88 6.73 404.00 15.00
C 417.46 -0.18 450.41 -2.33 471.23 6.42 C 492.05 15.18 507.96 37.41 512.00 58.00 Z"/>
</g>
<g fill="#000000" fill-opacity="0.02" stroke="None">
<path d="
M 165.00 47.00 
C 161.65 30.25 144.97 20.24 128.08 20.93 C 111.19 21.63 99.80 32.09 95.00 47.00
C 118.33 47.00 141.67 47.00 165.00 47.00 Z"/>
</g>
<g fill="#000000" fill-opacity="0.00" stroke="None">
<path d="
M 406.00 176.00 
C 415.80 163.29 430.33 150.40 441.75 138.75 C 453.18 127.11 466.61 113.69 477.77 102.77 C 488.93 91.85 492.05 80.56 491.93 65.08 C 491.82 49.61 484.25 43.55 474.92 32.13 C 465.59 20.71 450.42 23.19 435.25 21.81 C 420.08 20.42 413.60 41.03 400.25 37.19 C 386.91 33.35 381.87 19.92 366.07 21.93 C 350.28 23.93 339.97 21.52 329.30 33.30 C 318.63 45.08 313.47 54.61 314.07 69.93 C 314.68 85.24 317.90 91.87 328.75 103.25 C 339.60 114.63 353.52 127.45 364.75 139.25 C 375.98 151.05 390.36 163.20 400.00 176.00
C 402.02 175.32 404.06 175.26 406.00 176.00 Z"/>
</g>
<g fill="#000000" fill-opacity="0.00" stroke="None">
<path d="
M 47.00 67.00 
C 36.70 67.93 28.46 76.85 23.58 86.23 C 18.69 95.61 19.97 113.34 20.00 130.00 C 20.03 146.66 19.85 170.34 20.00 188.00 C 20.15 205.66 19.61 227.32 20.00 245.00 C 20.39 262.68 19.13 286.26 20.00 303.00 C 20.87 319.74 16.99 338.34 23.42 348.23 C 29.86 358.12 34.00 364.98 46.75 366.80 C 59.50 368.62 85.12 366.50 101.00 367.00 C 116.88 367.50 143.13 367.16 159.00 367.00 C 174.87 366.84 199.53 368.15 212.30 366.64 C 225.07 365.13 230.64 358.42 236.81 348.25 C 242.98 338.09 239.21 319.99 240.00 303.00 C 240.79 286.01 239.79 262.83 240.00 245.00 C 240.21 227.17 240.27 205.79 240.00 188.00 C 239.73 170.21 240.90 146.85 240.00 130.00 C 239.10 113.15 243.32 95.45 236.71 85.30 C 230.11 75.16 225.76 69.28 212.75 67.60 C 199.74 65.93 174.44 67.13 158.00 67.00 C 141.56 66.87 117.17 66.55 100.00 67.00 C 82.83 67.45 62.45 65.61 47.00 67.00
M 46.00 151.00 
C 53.12 143.62 67.82 145.66 77.75 146.40 C 87.68 147.14 95.53 151.72 103.30 154.71 C 111.07 157.70 116.27 163.35 124.30 166.71 C 132.33 170.08 139.87 171.71 149.75 173.39 C 159.63 175.08 173.08 172.95 182.70 171.65 C 192.31 170.35 195.73 162.39 206.25 163.80 C 216.77 165.21 214.48 185.67 214.00 200.00 C 213.52 214.33 214.91 237.04 214.00 252.00 C 213.09 266.96 215.98 288.88 214.00 303.00 C 212.02 317.12 221.10 338.47 207.25 340.40 C 193.41 342.32 171.27 340.84 156.00 341.00 C 140.73 341.16 120.31 341.68 105.00 341.00 C 89.69 340.32 67.13 342.92 53.00 341.00 C 38.87 339.08 47.98 318.27 46.00 304.00 C 44.02 289.73 46.93 268.77 46.00 253.00 C 45.07 237.23 46.53 217.27 46.00 201.00 C 45.47 184.73 46.47 166.53 46.00 151.00 Z"/>
</g>
<g fill="#000000" fill-opacity="0.00" stroke="None">
<path d="
M 370.00 512.00 
L 512.00 512.00
L 512.00 76.00
C 507.64 91.81 506.66 103.23 493.70 115.70 C 480.73 128.16 465.69 142.95 452.75 155.75 C 439.82 168.56 425.47 185.33 413.00 193.00
C 412.93 219.27 413.09 246.86 413.00 273.00 C 412.91 299.14 413.17 327.35 413.00 353.00 C 412.83 378.65 413.37 407.43 413.00 432.00 C 412.63 456.57 415.15 473.33 406.70 487.70 C 398.25 502.06 384.21 508.87 370.00 512.00 Z"/>
</g>
<g fill="#000000" fill-opacity="1.00" stroke="None">
<path d="
M 46.00 151.00 
C 46.47 166.53 45.47 184.73 46.00 201.00 C 46.53 217.27 45.07 237.23 46.00 253.00 C 46.93 268.77 44.02 289.73 46.00 304.00 C 47.98 318.27 38.87 339.08 53.00 341.00 C 67.13 342.92 89.69 340.32 105.00 341.00 C 120.31 341.68 140.73 341.16 156.00 341.00 C 171.27 340.84 193.41 342.32 207.25 340.40 C 221.10 338.47 212.02 317.12 214.00 303.00 C 215.98 288.88 213.09 266.96 214.00 252.00 C 214.91 237.04 213.52 214.33 214.00 200.00 C 214.48 185.67 216.77 165.21 206.25 163.80 C 195.73 162.39 192.31 170.35 182.70 171.65 C 173.08 172.95 159.63 175.08 149.75 173.39 C 139.87 171.71 132.33 170.08 124.30 166.71 C 116.27 163.35 111.07 157.70 103.30 154.71 C 95.53 151.72 87.68 147.14 77.75 146.40 C 67.82 145.66 53.12 143.62 46.00 151.00 Z"/>
</g>
<g fill="#000000" fill-opacity="0.00" stroke="None">
<path d="
M 0.00 512.00 
L 161.00 512.00
C 126.80 504.41 114.75 472.31 120.00 431.00
C 101.96 424.99 94.31 408.07 97.00 387.00
C 72.77 385.86 42.69 390.43 27.25 380.75 C 11.82 371.07 3.37 357.33 0.00 339.00
L 0.00 512.00 Z"/>
</g>
<g fill="#000000" fill-opacity="0.02" stroke="None">
<path d="
M 143.00 387.00 
C 134.33 387.00 125.67 387.00 117.00 387.00
C 115.77 399.67 117.37 412.81 129.92 412.93 C 142.47 413.06 144.53 399.60 143.00 387.00 Z"/>
</g>
<g fill="#000000" fill-opacity="0.01" stroke="None">
<path d="
M 187.00 512.00 
L 355.00 512.00
C 333.73 505.54 314.01 490.21 314.65 464.69 C 315.28 439.18 297.45 418.76 272.01 418.99 C 246.57 419.23 230.49 440.35 231.35 465.30 C 232.21 490.25 210.44 507.08 187.00 512.00 Z"/>
</g>
</svg>