<svg xmlns="http://www.w3.org/2000/svg" xmlns:v="https://svgstorm.com"
viewBox = "0 0 512 512"
width="512"
height="512">
<g fill="None" fill-opacity="0.0" stroke="#000000" stroke-opacity="0.01" stroke-width="0.3"><path d="
M 0.00 512.00 
L 176.00 512.00
C 163.44 507.99 153.72 506.28 144.25 500.61 C 134.77 494.94 121.92 481.82 118.00 472.00
C 103.94 471.57 92.50 468.87 83.25 463.61 C 73.99 458.35 59.82 444.49 55.81 434.75 C 51.80 425.00 43.94 415.78 46.01 400.99 C 48.07 386.20 36.56 376.58 31.87 367.08 C 27.18 357.58 25.51 344.39 26.80 331.75 C 28.09 319.12 31.98 307.78 39.00 300.00
C 21.19 271.87 19.65 225.17 52.00 203.00
C 43.11 188.99 46.23 164.06 51.13 150.08 C 56.04 136.10 70.88 116.03 87.00 111.00
C 82.27 78.04 103.79 51.13 133.00 45.00
C 140.82 22.36 165.00 1.55 193.00 0.00
L 0.00 0.00
L 0.00 512.00 Z"/>
</g>
<g fill="None" fill-opacity="0.0" stroke="#000000" stroke-opacity="0.98" stroke-width="0.3"><path d="
M 176.00 512.00 
L 197.00 512.00
C 209.36 508.12 218.81 505.32 228.77 498.43 C 238.73 491.54 250.92 477.16 257.00 469.00
C 269.02 492.15 291.90 507.15 315.00 512.00
L 338.00 512.00
C 344.41 509.81 352.07 506.95 358.30 504.29 C 364.54 501.62 371.01 498.60 377.30 492.30 C 383.59 485.99 392.92 479.87 394.00 472.00
C 405.24 472.37 417.19 468.75 424.75 465.61 C 432.32 462.46 442.98 452.69 450.57 444.23 C 458.16 435.77 458.52 428.95 463.76 418.75 C 468.99 408.56 460.70 394.41 467.75 384.75 C 474.80 375.10 481.36 368.47 483.71 358.70 C 486.07 348.93 486.49 337.04 484.69 326.30 C 482.89 315.57 478.73 306.60 473.00 300.00
C 490.90 271.58 492.08 223.64 460.00 203.00
C 468.99 189.02 465.75 163.98 460.87 150.08 C 455.99 136.18 440.96 116.04 425.00 111.00
C 426.83 93.63 424.04 82.58 416.81 70.75 C 409.58 58.91 397.24 51.29 386.23 46.42 C 375.22 41.56 371.47 26.84 359.75 17.81 C 348.02 8.79 339.29 2.62 323.00 0.00
L 313.00 0.00
C 287.12 1.25 271.48 15.58 255.00 36.00
C 252.75 26.45 239.30 16.91 231.75 11.20 C 224.20 5.50 215.71 3.10 205.00 0.00
L 193.00 0.00
C 165.00 1.55 140.82 22.36 133.00 45.00
C 103.79 51.13 82.27 78.04 87.00 111.00
C 70.88 116.03 56.04 136.10 51.13 150.08 C 46.23 164.06 43.11 188.99 52.00 203.00
C 19.65 225.17 21.19 271.87 39.00 300.00
C 31.98 307.78 28.09 319.12 26.80 331.75 C 25.51 344.39 27.18 357.58 31.87 367.08 C 36.56 376.58 48.07 386.20 46.01 400.99 C 43.94 415.78 51.80 425.00 55.81 434.75 C 59.82 444.49 73.99 458.35 83.25 463.61 C 92.50 468.87 103.94 471.57 118.00 472.00
C 121.92 481.82 134.77 494.94 144.25 500.61 C 153.72 506.28 163.44 507.99 176.00 512.00
M 246.00 151.00 
C 239.86 150.97 222.40 138.10 217.43 150.77 C 212.45 163.44 224.07 164.16 234.90 168.12 C 245.73 172.07 247.18 188.00 246.00 204.00 C 244.82 220.00 246.55 243.34 246.00 261.00 C 245.45 278.66 246.28 299.58 246.00 318.00 C 245.72 336.42 246.21 357.36 246.00 376.00
C 235.79 367.43 227.75 358.29 217.25 355.41 C 206.75 352.53 196.34 346.06 183.25 349.60 C 170.15 353.15 178.52 371.46 191.68 369.34 C 204.84 367.22 210.05 375.26 219.77 380.24 C 229.49 385.21 237.99 396.44 241.13 404.92 C 244.26 413.39 247.88 426.77 245.60 438.75 C 243.33 450.74 240.20 457.32 233.81 467.25 C 227.41 477.18 214.81 484.77 206.25 488.26 C 197.68 491.76 182.64 493.04 171.75 490.20 C 160.87 487.36 151.58 482.80 142.75 472.25 C 133.92 461.70 130.25 450.76 114.92 451.93 C 99.60 453.10 93.38 446.33 82.75 437.25 C 72.13 428.17 71.17 420.86 67.80 409.75 C 64.43 398.64 72.13 383.59 62.23 374.77 C 52.33 365.95 48.77 358.28 46.61 346.25 C 44.44 334.22 48.77 321.79 53.00 313.00
C 61.39 322.49 71.55 321.60 82.75 327.39 C 93.95 333.19 112.88 323.12 103.87 313.08 C 94.86 303.04 80.98 310.57 72.08 301.87 C 63.18 293.17 52.81 286.35 49.29 275.70 C 45.76 265.04 46.16 250.94 48.21 239.77 C 50.26 228.59 65.08 221.31 72.08 211.08 C 79.08 200.85 64.16 190.78 66.60 177.25 C 69.04 163.73 67.43 154.66 76.13 145.08 C 84.83 135.51 92.25 126.85 104.25 124.81 C 116.26 122.77 128.39 123.07 137.75 128.39 C 147.12 133.71 155.74 145.84 161.13 153.92 C 166.52 162.00 161.08 181.90 172.30 185.71 C 183.52 189.52 190.07 171.61 184.60 160.25 C 179.14 148.89 179.54 140.10 170.81 130.75 C 162.08 121.40 150.36 111.74 141.75 108.81 C 133.13 105.88 117.63 100.60 106.00 104.00
C 108.22 92.92 106.27 88.34 112.80 79.75 C 119.33 71.16 128.56 66.95 136.70 64.65 C 144.84 62.35 157.46 64.05 163.77 67.58 C 170.08 71.10 179.05 82.57 187.92 74.92 C 196.78 67.26 187.08 58.32 179.75 53.81 C 172.42 49.31 166.29 45.25 156.00 44.00
C 175.08 16.72 205.24 12.00 229.10 33.91 C 252.96 55.81 245.51 110.19 246.00 151.00
M 356.00 44.00 
C 341.64 44.28 339.75 52.06 327.75 57.75 C 315.74 63.43 322.64 81.74 334.30 76.29 C 345.95 70.84 349.78 63.34 363.25 63.80 C 376.71 64.26 384.92 65.17 393.75 73.39 C 402.59 81.61 404.79 91.28 406.00 104.00
C 395.24 101.62 380.71 104.66 372.30 107.64 C 363.88 110.61 354.11 117.16 345.75 126.75 C 337.39 136.34 331.44 142.57 329.24 153.25 C 327.05 163.93 320.41 177.66 331.25 184.19 C 342.10 190.72 347.09 174.66 347.64 164.30 C 348.20 153.94 354.79 144.81 363.10 137.10 C 371.41 129.39 378.85 124.44 389.75 123.40 C 400.66 122.36 413.67 124.22 421.75 130.39 C 429.84 136.56 440.06 148.20 442.71 156.30 C 445.36 164.41 448.43 181.04 443.41 190.75 C 438.39 200.46 436.08 210.37 448.30 218.70 C 460.51 227.04 461.63 235.28 464.80 246.25 C 467.98 257.22 463.95 270.37 460.81 279.25 C 457.67 288.14 445.71 297.10 437.23 303.58 C 428.75 310.05 412.35 303.64 406.87 314.92 C 401.39 326.20 420.63 332.45 430.70 327.65 C 440.76 322.85 451.02 320.92 459.00 313.00
C 462.42 321.11 468.48 334.72 465.80 346.25 C 463.13 357.77 459.75 367.33 449.75 375.75 C 439.75 384.18 448.38 400.38 444.61 410.75 C 440.83 421.12 438.92 431.18 427.75 439.75 C 416.59 448.32 412.20 452.49 396.31 451.65 C 380.41 450.80 378.38 463.07 369.75 473.75 C 361.12 484.44 351.70 485.21 341.25 489.40 C 330.80 493.59 314.59 491.46 305.75 488.20 C 296.91 484.94 285.89 476.43 278.81 466.75 C 271.73 457.07 268.24 450.38 266.23 437.77 C 264.22 425.16 267.96 412.66 271.58 404.23 C 275.19 395.80 284.38 383.44 293.77 378.43 C 303.16 373.42 309.45 368.36 322.23 369.79 C 335.01 371.21 341.19 351.83 328.25 349.61 C 315.30 347.39 305.02 351.78 294.75 355.19 C 284.47 358.60 276.09 367.24 266.00 376.00
C 266.29 353.76 265.62 328.99 266.00 307.00 C 266.38 285.01 265.26 259.07 266.00 238.00 C 266.74 216.93 263.61 193.00 267.80 176.75 C 271.99 160.51 294.58 172.60 295.20 156.75 C 295.81 140.91 274.32 146.85 266.00 151.00
C 266.77 110.10 259.01 56.46 282.30 34.30 C 305.60 12.15 337.27 16.42 356.00 44.00 Z"/>
</g>
<g fill="None" fill-opacity="0.0" stroke="#000000" stroke-opacity="0.04" stroke-width="0.3"><path d="
M 313.00 0.00 
L 205.00 0.00
C 215.71 3.10 224.20 5.50 231.75 11.20 C 239.30 16.91 252.75 26.45 255.00 36.00
C 271.48 15.58 287.12 1.25 313.00 0.00 Z"/>
</g>
<g fill="None" fill-opacity="0.0" stroke="#000000" stroke-opacity="0.00" stroke-width="0.3"><path d="
M 338.00 512.00 
L 512.00 512.00
L 512.00 0.00
L 323.00 0.00
C 339.29 2.62 348.02 8.79 359.75 17.81 C 371.47 26.84 375.22 41.56 386.23 46.42 C 397.24 51.29 409.58 58.91 416.81 70.75 C 424.04 82.58 426.83 93.63 425.00 111.00
C 440.96 116.04 455.99 136.18 460.87 150.08 C 465.75 163.98 468.99 189.02 460.00 203.00
C 492.08 223.64 490.90 271.58 473.00 300.00
C 478.73 306.60 482.89 315.57 484.69 326.30 C 486.49 337.04 486.07 348.93 483.71 358.70 C 481.36 368.47 474.80 375.10 467.75 384.75 C 460.70 394.41 468.99 408.56 463.76 418.75 C 458.52 428.95 458.16 435.77 450.57 444.23 C 442.98 452.69 432.32 462.46 424.75 465.61 C 417.19 468.75 405.24 472.37 394.00 472.00
C 392.92 479.87 383.59 485.99 377.30 492.30 C 371.01 498.60 364.54 501.62 358.30 504.29 C 352.07 506.95 344.41 509.81 338.00 512.00 Z"/>
</g>
<g fill="None" fill-opacity="0.0" stroke="#000000" stroke-opacity="0.01" stroke-width="0.3"><path d="
M 246.00 151.00 
C 245.51 110.19 252.96 55.81 229.10 33.91 C 205.24 12.00 175.08 16.72 156.00 44.00
C 166.29 45.25 172.42 49.31 179.75 53.81 C 187.08 58.32 196.78 67.26 187.92 74.92 C 179.05 82.57 170.08 71.10 163.77 67.58 C 157.46 64.05 144.84 62.35 136.70 64.65 C 128.56 66.95 119.33 71.16 112.80 79.75 C 106.27 88.34 108.22 92.92 106.00 104.00
C 117.63 100.60 133.13 105.88 141.75 108.81 C 150.36 111.74 162.08 121.40 170.81 130.75 C 179.54 140.10 179.14 148.89 184.60 160.25 C 190.07 171.61 183.52 189.52 172.30 185.71 C 161.08 181.90 166.52 162.00 161.13 153.92 C 155.74 145.84 147.12 133.71 137.75 128.39 C 128.39 123.07 116.26 122.77 104.25 124.81 C 92.25 126.85 84.83 135.51 76.13 145.08 C 67.43 154.66 69.04 163.73 66.60 177.25 C 64.16 190.78 79.08 200.85 72.08 211.08 C 65.08 221.31 50.26 228.59 48.21 239.77 C 46.16 250.94 45.76 265.04 49.29 275.70 C 52.81 286.35 63.18 293.17 72.08 301.87 C 80.98 310.57 94.86 303.04 103.87 313.08 C 112.88 323.12 93.95 333.19 82.75 327.39 C 71.55 321.60 61.39 322.49 53.00 313.00
C 48.77 321.79 44.44 334.22 46.61 346.25 C 48.77 358.28 52.33 365.95 62.23 374.77 C 72.13 383.59 64.43 398.64 67.80 409.75 C 71.17 420.86 72.13 428.17 82.75 437.25 C 93.38 446.33 99.60 453.10 114.92 451.93 C 130.25 450.76 133.92 461.70 142.75 472.25 C 151.58 482.80 160.87 487.36 171.75 490.20 C 182.64 493.04 197.68 491.76 206.25 488.26 C 214.81 484.77 227.41 477.18 233.81 467.25 C 240.20 457.32 243.33 450.74 245.60 438.75 C 247.88 426.77 244.26 413.39 241.13 404.92 C 237.99 396.44 229.49 385.21 219.77 380.24 C 210.05 375.26 204.84 367.22 191.68 369.34 C 178.52 371.46 170.15 353.15 183.25 349.60 C 196.34 346.06 206.75 352.53 217.25 355.41 C 227.75 358.29 235.79 367.43 246.00 376.00
C 246.21 357.36 245.72 336.42 246.00 318.00 C 246.28 299.58 245.45 278.66 246.00 261.00 C 246.55 243.34 244.82 220.00 246.00 204.00 C 247.18 188.00 245.73 172.07 234.90 168.12 C 224.07 164.16 212.45 163.44 217.43 150.77 C 222.40 138.10 239.86 150.97 246.00 151.00
M 203.00 83.00 
C 215.09 80.78 221.10 97.76 209.23 102.58 C 197.36 107.39 190.52 85.29 203.00 83.00
M 185.00 245.00 
C 182.72 256.37 177.75 266.58 167.25 274.39 C 156.75 282.21 150.64 285.68 136.25 285.60 C 121.86 285.53 125.22 264.29 138.75 265.61 C 152.28 266.93 159.28 254.48 165.00 245.00
C 152.66 242.58 147.26 240.31 137.75 234.81 C 128.23 229.31 120.21 218.47 114.87 210.08 C 109.53 201.69 108.32 191.65 106.35 179.31 C 104.39 166.96 122.19 160.81 125.39 173.75 C 128.59 186.70 126.74 194.27 134.58 203.77 C 142.41 213.27 151.39 220.46 160.30 223.71 C 169.20 226.96 182.58 224.62 192.08 223.94 C 201.59 223.26 208.70 205.39 220.70 211.35 C 232.69 217.31 220.23 233.87 212.08 236.13 C 203.94 238.39 194.83 245.93 185.00 245.00
M 184.00 309.00 
C 194.89 307.55 211.77 313.77 204.61 324.75 C 197.44 335.74 181.60 327.22 173.25 332.40 C 164.90 337.58 155.89 341.19 147.10 349.10 C 138.31 357.01 135.14 373.28 122.90 368.09 C 110.66 362.91 120.05 348.55 127.19 340.75 C 134.33 332.96 147.00 322.96 154.75 319.61 C 162.50 316.25 173.27 310.43 184.00 309.00
M 113.00 389.00 
C 122.04 386.45 136.75 393.22 143.30 395.71 C 149.86 398.20 164.08 407.60 170.70 416.30 C 177.32 425.00 180.75 432.34 183.59 442.75 C 186.43 453.17 190.23 468.21 178.25 471.39 C 166.27 474.57 165.81 457.25 163.74 448.25 C 161.66 439.24 156.40 427.29 147.23 421.43 C 138.06 415.57 131.94 407.31 120.75 409.20 C 109.56 411.09 98.40 393.11 113.00 389.00 Z"/>
</g>
<g fill="None" fill-opacity="0.0" stroke="#000000" stroke-opacity="0.01" stroke-width="0.3"><path d="
M 356.00 44.00 
C 337.27 16.42 305.60 12.15 282.30 34.30 C 259.01 56.46 266.77 110.10 266.00 151.00
C 274.32 146.85 295.81 140.91 295.20 156.75 C 294.58 172.60 271.99 160.51 267.80 176.75 C 263.61 193.00 266.74 216.93 266.00 238.00 C 265.26 259.07 266.38 285.01 266.00 307.00 C 265.62 328.99 266.29 353.76 266.00 376.00
C 276.09 367.24 284.47 358.60 294.75 355.19 C 305.02 351.78 315.30 347.39 328.25 349.61 C 341.19 351.83 335.01 371.21 322.23 369.79 C 309.45 368.36 303.16 373.42 293.77 378.43 C 284.38 383.44 275.19 395.80 271.58 404.23 C 267.96 412.66 264.22 425.16 266.23 437.77 C 268.24 450.38 271.73 457.07 278.81 466.75 C 285.89 476.43 296.91 484.94 305.75 488.20 C 314.59 491.46 330.80 493.59 341.25 489.40 C 351.70 485.21 361.12 484.44 369.75 473.75 C 378.38 463.07 380.41 450.80 396.31 451.65 C 412.20 452.49 416.59 448.32 427.75 439.75 C 438.92 431.18 440.83 421.12 444.61 410.75 C 448.38 400.38 439.75 384.18 449.75 375.75 C 459.75 367.33 463.13 357.77 465.80 346.25 C 468.48 334.72 462.42 321.11 459.00 313.00
C 451.02 320.92 440.76 322.85 430.70 327.65 C 420.63 332.45 401.39 326.20 406.87 314.92 C 412.35 303.64 428.75 310.05 437.23 303.58 C 445.71 297.10 457.67 288.14 460.81 279.25 C 463.95 270.37 467.98 257.22 464.80 246.25 C 461.63 235.28 460.51 227.04 448.30 218.70 C 436.08 210.37 438.39 200.46 443.41 190.75 C 448.43 181.04 445.36 164.41 442.71 156.30 C 440.06 148.20 429.84 136.56 421.75 130.39 C 413.67 124.22 400.66 122.36 389.75 123.40 C 378.85 124.44 371.41 129.39 363.10 137.10 C 354.79 144.81 348.20 153.94 347.64 164.30 C 347.09 174.66 342.10 190.72 331.25 184.19 C 320.41 177.66 327.05 163.93 329.24 153.25 C 331.44 142.57 337.39 136.34 345.75 126.75 C 354.11 117.16 363.88 110.61 372.30 107.64 C 380.71 104.66 395.24 101.62 406.00 104.00
C 404.79 91.28 402.59 81.61 393.75 73.39 C 384.92 65.17 376.71 64.26 363.25 63.80 C 349.78 63.34 345.95 70.84 334.30 76.29 C 322.64 81.74 315.74 63.43 327.75 57.75 C 339.75 52.06 341.64 44.28 356.00 44.00
M 303.00 83.00 
C 315.09 80.78 321.10 97.76 309.23 102.58 C 297.36 107.39 290.52 85.29 303.00 83.00
M 347.00 245.00 
C 352.16 254.04 360.17 267.49 373.25 265.80 C 386.32 264.11 390.46 285.08 376.75 285.20 C 363.04 285.32 355.65 284.20 345.25 275.74 C 334.85 267.27 329.15 255.73 327.00 245.00
C 318.99 243.86 309.26 241.94 302.75 237.81 C 296.23 233.68 282.37 227.37 287.71 216.70 C 293.06 206.02 306.02 214.29 312.25 219.19 C 318.49 224.09 329.48 226.28 340.02 225.02 C 350.57 223.77 358.51 222.00 366.75 215.75 C 374.99 209.50 379.85 200.02 383.76 191.75 C 387.67 183.48 381.86 167.82 394.25 166.20 C 406.64 164.58 407.01 179.81 404.81 189.25 C 402.60 198.69 399.27 206.94 394.29 214.30 C 389.30 221.67 380.12 232.69 372.23 236.24 C 364.34 239.78 357.51 243.68 347.00 245.00
M 313.00 309.00 
C 324.52 305.75 335.38 312.24 345.30 314.71 C 355.22 317.18 361.88 320.55 371.75 329.25 C 381.62 337.95 389.76 343.26 394.06 356.08 C 398.37 368.90 379.27 372.71 374.43 361.23 C 369.59 349.75 358.64 342.59 350.08 337.87 C 341.53 333.15 333.28 327.86 321.31 329.65 C 309.33 331.43 298.55 313.07 313.00 309.00
M 387.00 389.00 
C 396.19 388.04 409.07 391.92 405.60 402.75 C 402.14 413.59 387.31 407.52 380.77 411.21 C 374.23 414.91 363.77 421.09 358.74 428.75 C 353.70 436.41 346.28 443.24 346.24 453.25 C 346.21 463.25 343.39 475.02 332.25 471.60 C 321.10 468.19 327.21 453.12 328.76 444.75 C 330.31 436.38 333.51 426.73 338.19 420.75 C 342.87 414.76 355.26 401.70 361.77 398.43 C 368.28 395.16 377.11 390.04 387.00 389.00 Z"/>
</g>
<g fill="None" fill-opacity="0.0" stroke="#000000" stroke-opacity="0.95" stroke-width="0.3"><path d="
M 203.00 83.00 
C 190.52 85.29 197.36 107.39 209.23 102.58 C 221.10 97.76 215.09 80.78 203.00 83.00 Z"/>
</g>
<g fill="None" fill-opacity="0.0" stroke="#000000" stroke-opacity="0.95" stroke-width="0.3"><path d="
M 303.00 83.00 
C 290.52 85.29 297.36 107.39 309.23 102.58 C 321.10 97.76 315.09 80.78 303.00 83.00 Z"/>
</g>
<g fill="None" fill-opacity="0.0" stroke="#000000" stroke-opacity="0.97" stroke-width="0.3"><path d="
M 185.00 245.00 
C 194.83 245.93 203.94 238.39 212.08 236.13 C 220.23 233.87 232.69 217.31 220.70 211.35 C 208.70 205.39 201.59 223.26 192.08 223.94 C 182.58 224.62 169.20 226.96 160.30 223.71 C 151.39 220.46 142.41 213.27 134.58 203.77 C 126.74 194.27 128.59 186.70 125.39 173.75 C 122.19 160.81 104.39 166.96 106.35 179.31 C 108.32 191.65 109.53 201.69 114.87 210.08 C 120.21 218.47 128.23 229.31 137.75 234.81 C 147.26 240.31 152.66 242.58 165.00 245.00
C 159.28 254.48 152.28 266.93 138.75 265.61 C 125.22 264.29 121.86 285.53 136.25 285.60 C 150.64 285.68 156.75 282.21 167.25 274.39 C 177.75 266.58 182.72 256.37 185.00 245.00 Z"/>
</g>
<g fill="None" fill-opacity="0.0" stroke="#000000" stroke-opacity="0.97" stroke-width="0.3"><path d="
M 347.00 245.00 
C 357.51 243.68 364.34 239.78 372.23 236.24 C 380.12 232.69 389.30 221.67 394.29 214.30 C 399.27 206.94 402.60 198.69 404.81 189.25 C 407.01 179.81 406.64 164.58 394.25 166.20 C 381.86 167.82 387.67 183.48 383.76 191.75 C 379.85 200.02 374.99 209.50 366.75 215.75 C 358.51 222.00 350.57 223.77 340.02 225.02 C 329.48 226.28 318.49 224.09 312.25 219.19 C 306.02 214.29 293.06 206.02 287.71 216.70 C 282.37 227.37 296.23 233.68 302.75 237.81 C 309.26 241.94 318.99 243.86 327.00 245.00
C 329.15 255.73 334.85 267.27 345.25 275.74 C 355.65 284.20 363.04 285.32 376.75 285.20 C 390.46 285.08 386.32 264.11 373.25 265.80 C 360.17 267.49 352.16 254.04 347.00 245.00 Z"/>
</g>
<g fill="None" fill-opacity="0.0" stroke="#000000" stroke-opacity="0.97" stroke-width="0.3"><path d="
M 184.00 309.00 
C 173.27 310.43 162.50 316.25 154.75 319.61 C 147.00 322.96 134.33 332.96 127.19 340.75 C 120.05 348.55 110.66 362.91 122.90 368.09 C 135.14 373.28 138.31 357.01 147.10 349.10 C 155.89 341.19 164.90 337.58 173.25 332.40 C 181.60 327.22 197.44 335.74 204.61 324.75 C 211.77 313.77 194.89 307.55 184.00 309.00 Z"/>
</g>
<g fill="None" fill-opacity="0.0" stroke="#000000" stroke-opacity="0.97" stroke-width="0.3"><path d="
M 313.00 309.00 
C 298.55 313.07 309.33 331.43 321.31 329.65 C 333.28 327.86 341.53 333.15 350.08 337.87 C 358.64 342.59 369.59 349.75 374.43 361.23 C 379.27 372.71 398.37 368.90 394.06 356.08 C 389.76 343.26 381.62 337.95 371.75 329.25 C 361.88 320.55 355.22 317.18 345.30 314.71 C 335.38 312.24 324.52 305.75 313.00 309.00 Z"/>
</g>
<g fill="None" fill-opacity="0.0" stroke="#000000" stroke-opacity="0.97" stroke-width="0.3"><path d="
M 113.00 389.00 
C 98.40 393.11 109.56 411.09 120.75 409.20 C 131.94 407.31 138.06 415.57 147.23 421.43 C 156.40 427.29 161.66 439.24 163.74 448.25 C 165.81 457.25 166.27 474.57 178.25 471.39 C 190.23 468.21 186.43 453.17 183.59 442.75 C 180.75 432.34 177.32 425.00 170.70 416.30 C 164.08 407.60 149.86 398.20 143.30 395.71 C 136.75 393.22 122.04 386.45 113.00 389.00 Z"/>
</g>
<g fill="None" fill-opacity="0.0" stroke="#000000" stroke-opacity="0.97" stroke-width="0.3"><path d="
M 387.00 389.00 
C 377.11 390.04 368.28 395.16 361.77 398.43 C 355.26 401.70 342.87 414.76 338.19 420.75 C 333.51 426.73 330.31 436.38 328.76 444.75 C 327.21 453.12 321.10 468.19 332.25 471.60 C 343.39 475.02 346.21 463.25 346.24 453.25 C 346.28 443.24 353.70 436.41 358.74 428.75 C 363.77 421.09 374.23 414.91 380.77 411.21 C 387.31 407.52 402.14 413.59 405.60 402.75 C 409.07 391.92 396.19 388.04 387.00 389.00 Z"/>
</g>
<g fill="None" fill-opacity="0.0" stroke="#000000" stroke-opacity="0.03" stroke-width="0.3"><path d="
M 197.00 512.00 
L 315.00 512.00
C 291.90 507.15 269.02 492.15 257.00 469.00
C 250.92 477.16 238.73 491.54 228.77 498.43 C 218.81 505.32 209.36 508.12 197.00 512.00 Z"/>
</g>
<g fill="#000000" fill-opacity="0.01" stroke="None">
<path d="
M 0.00 512.00 
L 176.00 512.00
C 163.44 507.99 153.72 506.28 144.25 500.61 C 134.77 494.94 121.92 481.82 118.00 472.00
C 103.94 471.57 92.50 468.87 83.25 463.61 C 73.99 458.35 59.82 444.49 55.81 434.75 C 51.80 425.00 43.94 415.78 46.01 400.99 C 48.07 386.20 36.56 376.58 31.87 367.08 C 27.18 357.58 25.51 344.39 26.80 331.75 C 28.09 319.12 31.98 307.78 39.00 300.00
C 21.19 271.87 19.65 225.17 52.00 203.00
C 43.11 188.99 46.23 164.06 51.13 150.08 C 56.04 136.10 70.88 116.03 87.00 111.00
C 82.27 78.04 103.79 51.13 133.00 45.00
C 140.82 22.36 165.00 1.55 193.00 0.00
L 0.00 0.00
L 0.00 512.00 Z"/>
</g>
<g fill="#000000" fill-opacity="0.98" stroke="None">
<path d="
M 176.00 512.00 
L 197.00 512.00
C 209.36 508.12 218.81 505.32 228.77 498.43 C 238.73 491.54 250.92 477.16 257.00 469.00
C 269.02 492.15 291.90 507.15 315.00 512.00
L 338.00 512.00
C 344.41 509.81 352.07 506.95 358.30 504.29 C 364.54 501.62 371.01 498.60 377.30 492.30 C 383.59 485.99 392.92 479.87 394.00 472.00
C 405.24 472.37 417.19 468.75 424.75 465.61 C 432.32 462.46 442.98 452.69 450.57 444.23 C 458.16 435.77 458.52 428.95 463.76 418.75 C 468.99 408.56 460.70 394.41 467.75 384.75 C 474.80 375.10 481.36 368.47 483.71 358.70 C 486.07 348.93 486.49 337.04 484.69 326.30 C 482.89 315.57 478.73 306.60 473.00 300.00
C 490.90 271.58 492.08 223.64 460.00 203.00
C 468.99 189.02 465.75 163.98 460.87 150.08 C 455.99 136.18 440.96 116.04 425.00 111.00
C 426.83 93.63 424.04 82.58 416.81 70.75 C 409.58 58.91 397.24 51.29 386.23 46.42 C 375.22 41.56 371.47 26.84 359.75 17.81 C 348.02 8.79 339.29 2.62 323.00 0.00
L 313.00 0.00
C 287.12 1.25 271.48 15.58 255.00 36.00
C 252.75 26.45 239.30 16.91 231.75 11.20 C 224.20 5.50 215.71 3.10 205.00 0.00
L 193.00 0.00
C 165.00 1.55 140.82 22.36 133.00 45.00
C 103.79 51.13 82.27 78.04 87.00 111.00
C 70.88 116.03 56.04 136.10 51.13 150.08 C 46.23 164.06 43.11 188.99 52.00 203.00
C 19.65 225.17 21.19 271.87 39.00 300.00
C 31.98 307.78 28.09 319.12 26.80 331.75 C 25.51 344.39 27.18 357.58 31.87 367.08 C 36.56 376.58 48.07 386.20 46.01 400.99 C 43.94 415.78 51.80 425.00 55.81 434.75 C 59.82 444.49 73.99 458.35 83.25 463.61 C 92.50 468.87 103.94 471.57 118.00 472.00
C 121.92 481.82 134.77 494.94 144.25 500.61 C 153.72 506.28 163.44 507.99 176.00 512.00
M 246.00 151.00 
C 239.86 150.97 222.40 138.10 217.43 150.77 C 212.45 163.44 224.07 164.16 234.90 168.12 C 245.73 172.07 247.18 188.00 246.00 204.00 C 244.82 220.00 246.55 243.34 246.00 261.00 C 245.45 278.66 246.28 299.58 246.00 318.00 C 245.72 336.42 246.21 357.36 246.00 376.00
C 235.79 367.43 227.75 358.29 217.25 355.41 C 206.75 352.53 196.34 346.06 183.25 349.60 C 170.15 353.15 178.52 371.46 191.68 369.34 C 204.84 367.22 210.05 375.26 219.77 380.24 C 229.49 385.21 237.99 396.44 241.13 404.92 C 244.26 413.39 247.88 426.77 245.60 438.75 C 243.33 450.74 240.20 457.32 233.81 467.25 C 227.41 477.18 214.81 484.77 206.25 488.26 C 197.68 491.76 182.64 493.04 171.75 490.20 C 160.87 487.36 151.58 482.80 142.75 472.25 C 133.92 461.70 130.25 450.76 114.92 451.93 C 99.60 453.10 93.38 446.33 82.75 437.25 C 72.13 428.17 71.17 420.86 67.80 409.75 C 64.43 398.64 72.13 383.59 62.23 374.77 C 52.33 365.95 48.77 358.28 46.61 346.25 C 44.44 334.22 48.77 321.79 53.00 313.00
C 61.39 322.49 71.55 321.60 82.75 327.39 C 93.95 333.19 112.88 323.12 103.87 313.08 C 94.86 303.04 80.98 310.57 72.08 301.87 C 63.18 293.17 52.81 286.35 49.29 275.70 C 45.76 265.04 46.16 250.94 48.21 239.77 C 50.26 228.59 65.08 221.31 72.08 211.08 C 79.08 200.85 64.16 190.78 66.60 177.25 C 69.04 163.73 67.43 154.66 76.13 145.08 C 84.83 135.51 92.25 126.85 104.25 124.81 C 116.26 122.77 128.39 123.07 137.75 128.39 C 147.12 133.71 155.74 145.84 161.13 153.92 C 166.52 162.00 161.08 181.90 172.30 185.71 C 183.52 189.52 190.07 171.61 184.60 160.25 C 179.14 148.89 179.54 140.10 170.81 130.75 C 162.08 121.40 150.36 111.74 141.75 108.81 C 133.13 105.88 117.63 100.60 106.00 104.00
C 108.22 92.92 106.27 88.34 112.80 79.75 C 119.33 71.16 128.56 66.95 136.70 64.65 C 144.84 62.35 157.46 64.05 163.77 67.58 C 170.08 71.10 179.05 82.57 187.92 74.92 C 196.78 67.26 187.08 58.32 179.75 53.81 C 172.42 49.31 166.29 45.25 156.00 44.00
C 175.08 16.72 205.24 12.00 229.10 33.91 C 252.96 55.81 245.51 110.19 246.00 151.00
M 356.00 44.00 
C 341.64 44.28 339.75 52.06 327.75 57.75 C 315.74 63.43 322.64 81.74 334.30 76.29 C 345.95 70.84 349.78 63.34 363.25 63.80 C 376.71 64.26 384.92 65.17 393.75 73.39 C 402.59 81.61 404.79 91.28 406.00 104.00
C 395.24 101.62 380.71 104.66 372.30 107.64 C 363.88 110.61 354.11 117.16 345.75 126.75 C 337.39 136.34 331.44 142.57 329.24 153.25 C 327.05 163.93 320.41 177.66 331.25 184.19 C 342.10 190.72 347.09 174.66 347.64 164.30 C 348.20 153.94 354.79 144.81 363.10 137.10 C 371.41 129.39 378.85 124.44 389.75 123.40 C 400.66 122.36 413.67 124.22 421.75 130.39 C 429.84 136.56 440.06 148.20 442.71 156.30 C 445.36 164.41 448.43 181.04 443.41 190.75 C 438.39 200.46 436.08 210.37 448.30 218.70 C 460.51 227.04 461.63 235.28 464.80 246.25 C 467.98 257.22 463.95 270.37 460.81 279.25 C 457.67 288.14 445.71 297.10 437.23 303.58 C 428.75 310.05 412.35 303.64 406.87 314.92 C 401.39 326.20 420.63 332.45 430.70 327.65 C 440.76 322.85 451.02 320.92 459.00 313.00
C 462.42 321.11 468.48 334.72 465.80 346.25 C 463.13 357.77 459.75 367.33 449.75 375.75 C 439.75 384.18 448.38 400.38 444.61 410.75 C 440.83 421.12 438.92 431.18 427.75 439.75 C 416.59 448.32 412.20 452.49 396.31 451.65 C 380.41 450.80 378.38 463.07 369.75 473.75 C 361.12 484.44 351.70 485.21 341.25 489.40 C 330.80 493.59 314.59 491.46 305.75 488.20 C 296.91 484.94 285.89 476.43 278.81 466.75 C 271.73 457.07 268.24 450.38 266.23 437.77 C 264.22 425.16 267.96 412.66 271.58 404.23 C 275.19 395.80 284.38 383.44 293.77 378.43 C 303.16 373.42 309.45 368.36 322.23 369.79 C 335.01 371.21 341.19 351.83 328.25 349.61 C 315.30 347.39 305.02 351.78 294.75 355.19 C 284.47 358.60 276.09 367.24 266.00 376.00
C 266.29 353.76 265.62 328.99 266.00 307.00 C 266.38 285.01 265.26 259.07 266.00 238.00 C 266.74 216.93 263.61 193.00 267.80 176.75 C 271.99 160.51 294.58 172.60 295.20 156.75 C 295.81 140.91 274.32 146.85 266.00 151.00
C 266.77 110.10 259.01 56.46 282.30 34.30 C 305.60 12.15 337.27 16.42 356.00 44.00 Z"/>
</g>
<g fill="#000000" fill-opacity="0.04" stroke="None">
<path d="
M 313.00 0.00 
L 205.00 0.00
C 215.71 3.10 224.20 5.50 231.75 11.20 C 239.30 16.91 252.75 26.45 255.00 36.00
C 271.48 15.58 287.12 1.25 313.00 0.00 Z"/>
</g>
<g fill="#000000" fill-opacity="0.00" stroke="None">
<path d="
M 338.00 512.00 
L 512.00 512.00
L 512.00 0.00
L 323.00 0.00
C 339.29 2.62 348.02 8.79 359.75 17.81 C 371.47 26.84 375.22 41.56 386.23 46.42 C 397.24 51.29 409.58 58.91 416.81 70.75 C 424.04 82.58 426.83 93.63 425.00 111.00
C 440.96 116.04 455.99 136.18 460.87 150.08 C 465.75 163.98 468.99 189.02 460.00 203.00
C 492.08 223.64 490.90 271.58 473.00 300.00
C 478.73 306.60 482.89 315.57 484.69 326.30 C 486.49 337.04 486.07 348.93 483.71 358.70 C 481.36 368.47 474.80 375.10 467.75 384.75 C 460.70 394.41 468.99 408.56 463.76 418.75 C 458.52 428.95 458.16 435.77 450.57 444.23 C 442.98 452.69 432.32 462.46 424.75 465.61 C 417.19 468.75 405.24 472.37 394.00 472.00
C 392.92 479.87 383.59 485.99 377.30 492.30 C 371.01 498.60 364.54 501.62 358.30 504.29 C 352.07 506.95 344.41 509.81 338.00 512.00 Z"/>
</g>
<g fill="#000000" fill-opacity="0.01" stroke="None">
<path d="
M 246.00 151.00 
C 245.51 110.19 252.96 55.81 229.10 33.91 C 205.24 12.00 175.08 16.72 156.00 44.00
C 166.29 45.25 172.42 49.31 179.75 53.81 C 187.08 58.32 196.78 67.26 187.92 74.92 C 179.05 82.57 170.08 71.10 163.77 67.58 C 157.46 64.05 144.84 62.35 136.70 64.65 C 128.56 66.95 119.33 71.16 112.80 79.75 C 106.27 88.34 108.22 92.92 106.00 104.00
C 117.63 100.60 133.13 105.88 141.75 108.81 C 150.36 111.74 162.08 121.40 170.81 130.75 C 179.54 140.10 179.14 148.89 184.60 160.25 C 190.07 171.61 183.52 189.52 172.30 185.71 C 161.08 181.90 166.52 162.00 161.13 153.92 C 155.74 145.84 147.12 133.71 137.75 128.39 C 128.39 123.07 116.26 122.77 104.25 124.81 C 92.25 126.85 84.83 135.51 76.13 145.08 C 67.43 154.66 69.04 163.73 66.60 177.25 C 64.16 190.78 79.08 200.85 72.08 211.08 C 65.08 221.31 50.26 228.59 48.21 239.77 C 46.16 250.94 45.76 265.04 49.29 275.70 C 52.81 286.35 63.18 293.17 72.08 301.87 C 80.98 310.57 94.86 303.04 103.87 313.08 C 112.88 323.12 93.95 333.19 82.75 327.39 C 71.55 321.60 61.39 322.49 53.00 313.00
C 48.77 321.79 44.44 334.22 46.61 346.25 C 48.77 358.28 52.33 365.95 62.23 374.77 C 72.13 383.59 64.43 398.64 67.80 409.75 C 71.17 420.86 72.13 428.17 82.75 437.25 C 93.38 446.33 99.60 453.10 114.92 451.93 C 130.25 450.76 133.92 461.70 142.75 472.25 C 151.58 482.80 160.87 487.36 171.75 490.20 C 182.64 493.04 197.68 491.76 206.25 488.26 C 214.81 484.77 227.41 477.18 233.81 467.25 C 240.20 457.32 243.33 450.74 245.60 438.75 C 247.88 426.77 244.26 413.39 241.13 404.92 C 237.99 396.44 229.49 385.21 219.77 380.24 C 210.05 375.26 204.84 367.22 191.68 369.34 C 178.52 371.46 170.15 353.15 183.25 349.60 C 196.34 346.06 206.75 352.53 217.25 355.41 C 227.75 358.29 235.79 367.43 246.00 376.00
C 246.21 357.36 245.72 336.42 246.00 318.00 C 246.28 299.58 245.45 278.66 246.00 261.00 C 246.55 243.34 244.82 220.00 246.00 204.00 C 247.18 188.00 245.73 172.07 234.90 168.12 C 224.07 164.16 212.45 163.44 217.43 150.77 C 222.40 138.10 239.86 150.97 246.00 151.00
M 203.00 83.00 
C 215.09 80.78 221.10 97.76 209.23 102.58 C 197.36 107.39 190.52 85.29 203.00 83.00
M 185.00 245.00 
C 182.72 256.37 177.75 266.58 167.25 274.39 C 156.75 282.21 150.64 285.68 136.25 285.60 C 121.86 285.53 125.22 264.29 138.75 265.61 C 152.28 266.93 159.28 254.48 165.00 245.00
C 152.66 242.58 147.26 240.31 137.75 234.81 C 128.23 229.31 120.21 218.47 114.87 210.08 C 109.53 201.69 108.32 191.65 106.35 179.31 C 104.39 166.96 122.19 160.81 125.39 173.75 C 128.59 186.70 126.74 194.27 134.58 203.77 C 142.41 213.27 151.39 220.46 160.30 223.71 C 169.20 226.96 182.58 224.62 192.08 223.94 C 201.59 223.26 208.70 205.39 220.70 211.35 C 232.69 217.31 220.23 233.87 212.08 236.13 C 203.94 238.39 194.83 245.93 185.00 245.00
M 184.00 309.00 
C 194.89 307.55 211.77 313.77 204.61 324.75 C 197.44 335.74 181.60 327.22 173.25 332.40 C 164.90 337.58 155.89 341.19 147.10 349.10 C 138.31 357.01 135.14 373.28 122.90 368.09 C 110.66 362.91 120.05 348.55 127.19 340.75 C 134.33 332.96 147.00 322.96 154.75 319.61 C 162.50 316.25 173.27 310.43 184.00 309.00
M 113.00 389.00 
C 122.04 386.45 136.75 393.22 143.30 395.71 C 149.86 398.20 164.08 407.60 170.70 416.30 C 177.32 425.00 180.75 432.34 183.59 442.75 C 186.43 453.17 190.23 468.21 178.25 471.39 C 166.27 474.57 165.81 457.25 163.74 448.25 C 161.66 439.24 156.40 427.29 147.23 421.43 C 138.06 415.57 131.94 407.31 120.75 409.20 C 109.56 411.09 98.40 393.11 113.00 389.00 Z"/>
</g>
<g fill="#000000" fill-opacity="0.01" stroke="None">
<path d="
M 356.00 44.00 
C 337.27 16.42 305.60 12.15 282.30 34.30 C 259.01 56.46 266.77 110.10 266.00 151.00
C 274.32 146.85 295.81 140.91 295.20 156.75 C 294.58 172.60 271.99 160.51 267.80 176.75 C 263.61 193.00 266.74 216.93 266.00 238.00 C 265.26 259.07 266.38 285.01 266.00 307.00 C 265.62 328.99 266.29 353.76 266.00 376.00
C 276.09 367.24 284.47 358.60 294.75 355.19 C 305.02 351.78 315.30 347.39 328.25 349.61 C 341.19 351.83 335.01 371.21 322.23 369.79 C 309.45 368.36 303.16 373.42 293.77 378.43 C 284.38 383.44 275.19 395.80 271.58 404.23 C 267.96 412.66 264.22 425.16 266.23 437.77 C 268.24 450.38 271.73 457.07 278.81 466.75 C 285.89 476.43 296.91 484.94 305.75 488.20 C 314.59 491.46 330.80 493.59 341.25 489.40 C 351.70 485.21 361.12 484.44 369.75 473.75 C 378.38 463.07 380.41 450.80 396.31 451.65 C 412.20 452.49 416.59 448.32 427.75 439.75 C 438.92 431.18 440.83 421.12 444.61 410.75 C 448.38 400.38 439.75 384.18 449.75 375.75 C 459.75 367.33 463.13 357.77 465.80 346.25 C 468.48 334.72 462.42 321.11 459.00 313.00
C 451.02 320.92 440.76 322.85 430.70 327.65 C 420.63 332.45 401.39 326.20 406.87 314.92 C 412.35 303.64 428.75 310.05 437.23 303.58 C 445.71 297.10 457.67 288.14 460.81 279.25 C 463.95 270.37 467.98 257.22 464.80 246.25 C 461.63 235.28 460.51 227.04 448.30 218.70 C 436.08 210.37 438.39 200.46 443.41 190.75 C 448.43 181.04 445.36 164.41 442.71 156.30 C 440.06 148.20 429.84 136.56 421.75 130.39 C 413.67 124.22 400.66 122.36 389.75 123.40 C 378.85 124.44 371.41 129.39 363.10 137.10 C 354.79 144.81 348.20 153.94 347.64 164.30 C 347.09 174.66 342.10 190.72 331.25 184.19 C 320.41 177.66 327.05 163.93 329.24 153.25 C 331.44 142.57 337.39 136.34 345.75 126.75 C 354.11 117.16 363.88 110.61 372.30 107.64 C 380.71 104.66 395.24 101.62 406.00 104.00
C 404.79 91.28 402.59 81.61 393.75 73.39 C 384.92 65.17 376.71 64.26 363.25 63.80 C 349.78 63.34 345.95 70.84 334.30 76.29 C 322.64 81.74 315.74 63.43 327.75 57.75 C 339.75 52.06 341.64 44.28 356.00 44.00
M 303.00 83.00 
C 315.09 80.78 321.10 97.76 309.23 102.58 C 297.36 107.39 290.52 85.29 303.00 83.00
M 347.00 245.00 
C 352.16 254.04 360.17 267.49 373.25 265.80 C 386.32 264.11 390.46 285.08 376.75 285.20 C 363.04 285.32 355.65 284.20 345.25 275.74 C 334.85 267.27 329.15 255.73 327.00 245.00
C 318.99 243.86 309.26 241.94 302.75 237.81 C 296.23 233.68 282.37 227.37 287.71 216.70 C 293.06 206.02 306.02 214.29 312.25 219.19 C 318.49 224.09 329.48 226.28 340.02 225.02 C 350.57 223.77 358.51 222.00 366.75 215.75 C 374.99 209.50 379.85 200.02 383.76 191.75 C 387.67 183.48 381.86 167.82 394.25 166.20 C 406.64 164.58 407.01 179.81 404.81 189.25 C 402.60 198.69 399.27 206.94 394.29 214.30 C 389.30 221.67 380.12 232.69 372.23 236.24 C 364.34 239.78 357.51 243.68 347.00 245.00
M 313.00 309.00 
C 324.52 305.75 335.38 312.24 345.30 314.71 C 355.22 317.18 361.88 320.55 371.75 329.25 C 381.62 337.95 389.76 343.26 394.06 356.08 C 398.37 368.90 379.27 372.71 374.43 361.23 C 369.59 349.75 358.64 342.59 350.08 337.87 C 341.53 333.15 333.28 327.86 321.31 329.65 C 309.33 331.43 298.55 313.07 313.00 309.00
M 387.00 389.00 
C 396.19 388.04 409.07 391.92 405.60 402.75 C 402.14 413.59 387.31 407.52 380.77 411.21 C 374.23 414.91 363.77 421.09 358.74 428.75 C 353.70 436.41 346.28 443.24 346.24 453.25 C 346.21 463.25 343.39 475.02 332.25 471.60 C 321.10 468.19 327.21 453.12 328.76 444.75 C 330.31 436.38 333.51 426.73 338.19 420.75 C 342.87 414.76 355.26 401.70 361.77 398.43 C 368.28 395.16 377.11 390.04 387.00 389.00 Z"/>
</g>
<g fill="#000000" fill-opacity="0.95" stroke="None">
<path d="
M 203.00 83.00 
C 190.52 85.29 197.36 107.39 209.23 102.58 C 221.10 97.76 215.09 80.78 203.00 83.00 Z"/>
</g>
<g fill="#000000" fill-opacity="0.95" stroke="None">
<path d="
M 303.00 83.00 
C 290.52 85.29 297.36 107.39 309.23 102.58 C 321.10 97.76 315.09 80.78 303.00 83.00 Z"/>
</g>
<g fill="#000000" fill-opacity="0.97" stroke="None">
<path d="
M 185.00 245.00 
C 194.83 245.93 203.94 238.39 212.08 236.13 C 220.23 233.87 232.69 217.31 220.70 211.35 C 208.70 205.39 201.59 223.26 192.08 223.94 C 182.58 224.62 169.20 226.96 160.30 223.71 C 151.39 220.46 142.41 213.27 134.58 203.77 C 126.74 194.27 128.59 186.70 125.39 173.75 C 122.19 160.81 104.39 166.96 106.35 179.31 C 108.32 191.65 109.53 201.69 114.87 210.08 C 120.21 218.47 128.23 229.31 137.75 234.81 C 147.26 240.31 152.66 242.58 165.00 245.00
C 159.28 254.48 152.28 266.93 138.75 265.61 C 125.22 264.29 121.86 285.53 136.25 285.60 C 150.64 285.68 156.75 282.21 167.25 274.39 C 177.75 266.58 182.72 256.37 185.00 245.00 Z"/>
</g>
<g fill="#000000" fill-opacity="0.97" stroke="None">
<path d="
M 347.00 245.00 
C 357.51 243.68 364.34 239.78 372.23 236.24 C 380.12 232.69 389.30 221.67 394.29 214.30 C 399.27 206.94 402.60 198.69 404.81 189.25 C 407.01 179.81 406.64 164.58 394.25 166.20 C 381.86 167.82 387.67 183.48 383.76 191.75 C 379.85 200.02 374.99 209.50 366.75 215.75 C 358.51 222.00 350.57 223.77 340.02 225.02 C 329.48 226.28 318.49 224.09 312.25 219.19 C 306.02 214.29 293.06 206.02 287.71 216.70 C 282.37 227.37 296.23 233.68 302.75 237.81 C 309.26 241.94 318.99 243.86 327.00 245.00
C 329.15 255.73 334.85 267.27 345.25 275.74 C 355.65 284.20 363.04 285.32 376.75 285.20 C 390.46 285.08 386.32 264.11 373.25 265.80 C 360.17 267.49 352.16 254.04 347.00 245.00 Z"/>
</g>
<g fill="#000000" fill-opacity="0.97" stroke="None">
<path d="
M 184.00 309.00 
C 173.27 310.43 162.50 316.25 154.75 319.61 C 147.00 322.96 134.33 332.96 127.19 340.75 C 120.05 348.55 110.66 362.91 122.90 368.09 C 135.14 373.28 138.31 357.01 147.10 349.10 C 155.89 341.19 164.90 337.58 173.25 332.40 C 181.60 327.22 197.44 335.74 204.61 324.75 C 211.77 313.77 194.89 307.55 184.00 309.00 Z"/>
</g>
<g fill="#000000" fill-opacity="0.97" stroke="None">
<path d="
M 313.00 309.00 
C 298.55 313.07 309.33 331.43 321.31 329.65 C 333.28 327.86 341.53 333.15 350.08 337.87 C 358.64 342.59 369.59 349.75 374.43 361.23 C 379.27 372.71 398.37 368.90 394.06 356.08 C 389.76 343.26 381.62 337.95 371.75 329.25 C 361.88 320.55 355.22 317.18 345.30 314.71 C 335.38 312.24 324.52 305.75 313.00 309.00 Z"/>
</g>
<g fill="#000000" fill-opacity="0.97" stroke="None">
<path d="
M 113.00 389.00 
C 98.40 393.11 109.56 411.09 120.75 409.20 C 131.94 407.31 138.06 415.57 147.23 421.43 C 156.40 427.29 161.66 439.24 163.74 448.25 C 165.81 457.25 166.27 474.57 178.25 471.39 C 190.23 468.21 186.43 453.17 183.59 442.75 C 180.75 432.34 177.32 425.00 170.70 416.30 C 164.08 407.60 149.86 398.20 143.30 395.71 C 136.75 393.22 122.04 386.45 113.00 389.00 Z"/>
</g>
<g fill="#000000" fill-opacity="0.97" stroke="None">
<path d="
M 387.00 389.00 
C 377.11 390.04 368.28 395.16 361.77 398.43 C 355.26 401.70 342.87 414.76 338.19 420.75 C 333.51 426.73 330.31 436.38 328.76 444.75 C 327.21 453.12 321.10 468.19 332.25 471.60 C 343.39 475.02 346.21 463.25 346.24 453.25 C 346.28 443.24 353.70 436.41 358.74 428.75 C 363.77 421.09 374.23 414.91 380.77 411.21 C 387.31 407.52 402.14 413.59 405.60 402.75 C 409.07 391.92 396.19 388.04 387.00 389.00 Z"/>
</g>
<g fill="#000000" fill-opacity="0.03" stroke="None">
<path d="
M 197.00 512.00 
L 315.00 512.00
C 291.90 507.15 269.02 492.15 257.00 469.00
C 250.92 477.16 238.73 491.54 228.77 498.43 C 218.81 505.32 209.36 508.12 197.00 512.00 Z"/>
</g>
</svg>