<svg xmlns="http://www.w3.org/2000/svg" xmlns:v="https://svgstorm.com"
viewBox = "0 0 512 512"
width="512"
height="512">
<g fill="None" fill-opacity="0.0" stroke="#000000" stroke-opacity="0.00" stroke-width="0.3"><path d="
M 0.00 512.00 
L 512.00 512.00
L 512.00 0.00
L 0.00 0.00
L 0.00 512.00
M 276.00 120.00 
C 292.87 118.50 303.97 129.79 303.22 145.22 C 302.47 160.66 290.20 170.60 272.00 168.00
C 271.68 183.59 267.82 196.87 261.87 206.92 C 255.92 216.97 243.95 232.64 232.00 236.00
C 232.00 243.33 232.00 250.67 232.00 258.00
C 240.21 258.36 247.63 259.59 256.25 261.20 C 264.86 262.81 272.36 263.49 281.25 265.80 C 290.13 268.11 296.09 265.70 305.75 269.60 C 315.42 273.51 320.67 267.51 330.25 264.24 C 339.82 260.98 359.31 265.08 371.00 264.00 C 382.69 262.91 406.21 264.15 417.00 264.00 C 427.79 263.85 431.99 268.85 437.75 276.25 C 443.51 283.66 437.82 300.69 440.00 312.00
C 457.87 317.77 492.93 301.65 501.13 318.92 C 509.33 336.19 501.76 365.06 504.00 388.00 C 506.24 410.94 502.02 442.07 504.00 466.00 C 505.98 489.93 503.94 506.36 478.00 504.00 C 452.06 501.64 425.96 505.06 400.00 504.00 C 374.04 502.94 347.96 504.48 322.00 504.00 C 296.04 503.52 269.93 504.21 244.00 504.00 C 218.07 503.79 191.85 504.10 166.00 504.00 C 140.15 503.90 113.68 504.04 88.00 504.00 C 62.32 503.96 36.84 504.01 12.00 504.00
C 4.43 490.97 8.84 471.29 8.00 454.00 C 7.16 436.71 8.46 415.39 8.00 398.00 C 7.54 380.61 8.40 357.55 8.00 341.00 C 7.60 324.45 8.73 315.74 12.80 305.75 C 16.87 295.76 24.49 286.93 33.30 281.30 C 42.11 275.68 48.74 274.56 59.25 272.81 C 69.75 271.05 79.92 268.90 90.25 267.20 C 100.58 265.50 110.46 264.25 120.75 262.40 C 131.04 260.54 141.59 258.58 152.00 258.00
C 152.00 250.67 152.00 243.33 152.00 236.00
C 140.62 232.18 127.91 217.25 121.91 207.08 C 115.92 196.92 112.63 183.24 112.00 168.00
C 94.02 170.53 82.24 160.94 80.98 145.97 C 79.71 131.00 90.38 118.68 107.00 120.00
C 100.48 109.39 91.50 90.08 94.20 73.75 C 96.89 57.42 108.25 42.95 122.30 36.29 C 136.36 29.63 149.52 19.74 163.25 13.81 C 176.99 7.88 200.69 6.00 216.90 12.12 C 233.11 18.23 241.34 21.21 255.77 30.24 C 270.20 39.26 281.58 53.90 284.19 70.25 C 286.80 86.61 284.49 108.35 276.00 120.00 Z"/>
</g>
<g fill="None" fill-opacity="0.0" stroke="#000000" stroke-opacity="0.98" stroke-width="0.3"><path d="
M 276.00 120.00 
C 284.49 108.35 286.80 86.61 284.19 70.25 C 281.58 53.90 270.20 39.26 255.77 30.24 C 241.34 21.21 233.11 18.23 216.90 12.12 C 200.69 6.00 176.99 7.88 163.25 13.81 C 149.52 19.74 136.36 29.63 122.30 36.29 C 108.25 42.95 96.89 57.42 94.20 73.75 C 91.50 90.08 100.48 109.39 107.00 120.00
C 90.38 118.68 79.71 131.00 80.98 145.97 C 82.24 160.94 94.02 170.53 112.00 168.00
C 112.63 183.24 115.92 196.92 121.91 207.08 C 127.91 217.25 140.62 232.18 152.00 236.00
C 152.00 243.33 152.00 250.67 152.00 258.00
C 141.59 258.58 131.04 260.54 120.75 262.40 C 110.46 264.25 100.58 265.50 90.25 267.20 C 79.92 268.90 69.75 271.05 59.25 272.81 C 48.74 274.56 42.11 275.68 33.30 281.30 C 24.49 286.93 16.87 295.76 12.80 305.75 C 8.73 315.74 7.60 324.45 8.00 341.00 C 8.40 357.55 7.54 380.61 8.00 398.00 C 8.46 415.39 7.16 436.71 8.00 454.00 C 8.84 471.29 4.43 490.97 12.00 504.00
C 36.84 504.01 62.32 503.96 88.00 504.00 C 113.68 504.04 140.15 503.90 166.00 504.00 C 191.85 504.10 218.07 503.79 244.00 504.00 C 269.93 504.21 296.04 503.52 322.00 504.00 C 347.96 504.48 374.04 502.94 400.00 504.00 C 425.96 505.06 452.06 501.64 478.00 504.00 C 503.94 506.36 505.98 489.93 504.00 466.00 C 502.02 442.07 506.24 410.94 504.00 388.00 C 501.76 365.06 509.33 336.19 501.13 318.92 C 492.93 301.65 457.87 317.77 440.00 312.00
C 437.82 300.69 443.51 283.66 437.75 276.25 C 431.99 268.85 427.79 263.85 417.00 264.00 C 406.21 264.15 382.69 262.91 371.00 264.00 C 359.31 265.08 339.82 260.98 330.25 264.24 C 320.67 267.51 315.42 273.51 305.75 269.60 C 296.09 265.70 290.13 268.11 281.25 265.80 C 272.36 263.49 264.86 262.81 256.25 261.20 C 247.63 259.59 240.21 258.36 232.00 258.00
C 232.00 250.67 232.00 243.33 232.00 236.00
C 243.95 232.64 255.92 216.97 261.87 206.92 C 267.82 196.87 271.68 183.59 272.00 168.00
C 290.20 170.60 302.47 160.66 303.22 145.22 C 303.97 129.79 292.87 118.50 276.00 120.00
M 266.00 105.00 
C 259.60 95.64 258.99 89.19 252.00 80.00
C 236.61 83.45 227.17 94.57 214.25 99.40 C 201.34 104.23 183.30 104.67 170.08 99.87 C 156.86 95.07 147.76 83.25 132.00 80.00
C 125.86 89.63 122.40 95.45 119.00 106.00
C 104.77 92.63 108.22 64.81 125.75 53.74 C 143.28 42.66 167.51 49.15 177.00 69.00
C 181.64 65.22 186.40 63.73 191.00 59.00
C 183.79 46.39 168.52 37.37 158.00 33.00
C 184.12 16.70 215.24 27.61 236.92 38.13 C 258.60 48.65 280.13 75.21 266.00 105.00
M 247.00 102.00 
C 252.09 112.15 256.74 123.65 256.00 142.00 C 255.26 160.35 256.44 181.37 251.94 192.08 C 247.43 202.80 237.14 214.65 226.25 221.39 C 215.35 228.13 206.89 232.64 191.00 232.00 C 175.11 231.36 168.51 228.89 157.23 221.43 C 145.95 213.97 136.97 202.71 132.09 191.90 C 127.22 181.09 129.03 161.09 128.00 143.00 C 126.97 124.91 131.78 112.01 137.00 102.00
C 146.69 104.59 152.81 109.93 161.75 113.39 C 170.69 116.86 180.15 120.11 192.00 120.00 C 203.86 119.89 212.69 117.13 221.92 113.87 C 231.14 110.61 236.83 104.28 247.00 102.00
M 112.00 136.00 
C 112.00 141.33 112.00 146.67 112.00 152.00
C 105.20 152.53 100.10 152.07 96.00 148.00
C 96.25 145.20 97.28 142.74 96.00 140.00
C 99.98 136.10 105.30 135.58 112.00 136.00
M 288.00 140.00 
C 287.27 142.54 287.55 145.21 288.00 148.00
C 283.95 152.05 278.75 152.43 272.00 152.00
C 272.00 146.67 272.00 141.33 272.00 136.00
C 278.82 135.60 283.77 135.89 288.00 140.00
M 216.00 244.00 
C 221.81 263.26 203.20 272.35 193.00 285.00
C 180.72 274.62 162.71 263.01 168.00 244.00
C 183.29 249.25 200.73 249.15 216.00 244.00
M 188.00 480.00 
C 190.54 479.27 193.21 479.55 196.00 480.00
C 201.61 471.65 203.02 460.29 205.76 450.75 C 208.49 441.22 208.72 431.51 211.20 421.75 C 213.68 411.99 216.89 403.49 218.19 393.75 C 219.49 384.00 226.04 373.44 222.29 363.70 C 218.53 353.95 217.59 347.27 212.81 337.75 C 208.03 328.22 213.20 319.70 220.26 311.25 C 227.33 302.79 219.03 290.52 217.00 282.00
C 224.54 267.36 236.93 275.06 247.70 276.31 C 258.47 277.56 268.94 279.94 279.75 281.39 C 290.56 282.85 301.11 286.05 312.00 286.00
C 312.00 294.67 312.00 303.33 312.00 312.00
C 297.56 312.63 276.19 310.81 262.78 312.78 C 249.37 314.74 247.90 321.33 248.00 336.00 C 248.10 350.67 247.95 371.18 248.00 387.00 C 248.05 402.82 247.98 420.66 248.00 437.00 C 248.02 453.34 247.98 471.50 248.00 488.00
C 200.00 488.00 152.00 488.00 104.00 488.00
C 104.00 442.67 104.00 397.33 104.00 352.00
C 98.67 352.00 93.33 352.00 88.00 352.00
C 88.00 397.33 88.00 442.67 88.00 488.00
C 66.67 488.00 45.33 488.00 24.00 488.00
C 24.04 469.72 23.95 447.93 24.00 430.00 C 24.05 412.07 23.90 388.64 24.00 372.00 C 24.10 355.37 23.64 332.42 24.40 320.25 C 25.15 308.07 34.11 303.57 41.75 295.75 C 49.39 287.93 59.02 289.77 69.70 287.65 C 80.38 285.53 91.04 282.97 101.25 281.24 C 111.45 279.52 123.44 278.65 132.75 276.61 C 142.06 274.56 159.29 269.34 165.25 279.75 C 171.20 290.16 155.64 300.14 162.59 309.75 C 169.53 319.37 175.72 325.41 172.61 335.75 C 169.49 346.10 164.29 352.39 161.24 362.25 C 158.20 372.11 163.66 382.47 165.20 392.25 C 166.73 402.02 170.11 411.06 172.13 420.92 C 174.15 430.78 176.11 440.01 178.60 449.75 C 181.09 459.50 182.01 471.48 188.00 480.00
M 420.00 280.00 
C 427.22 287.12 422.79 301.23 424.00 312.00
C 407.00 312.00 390.00 312.00 373.00 312.00
C 370.34 300.81 361.15 287.34 348.00 281.00
C 370.97 278.62 396.97 280.73 420.00 280.00
M 356.00 312.00 
C 346.67 312.00 337.33 312.00 328.00 312.00
C 328.00 304.33 328.00 296.67 328.00 289.00
C 339.06 292.13 351.63 301.07 356.00 312.00
M 188.00 304.00 
C 190.54 303.27 193.21 303.55 196.00 304.00
C 197.83 300.40 201.03 296.12 205.00 295.00
C 210.93 305.35 198.38 311.30 197.00 320.00
C 193.67 320.00 190.33 320.00 187.00 320.00
C 185.61 311.35 173.18 305.42 179.00 295.00
C 182.95 296.18 186.23 300.39 188.00 304.00
M 488.00 328.00 
C 490.08 352.28 487.27 374.42 470.70 385.70 C 454.14 396.99 425.82 389.81 400.00 392.00
C 400.19 382.77 399.73 372.53 400.00 364.00
C 389.60 355.74 369.51 362.00 356.00 360.00
C 349.01 367.17 353.09 381.16 352.00 392.00
C 325.84 389.13 298.36 397.86 281.75 385.81 C 265.14 373.76 261.34 352.28 264.00 328.00
C 338.67 328.00 413.33 328.00 488.00 328.00
M 195.00 336.00 
C 198.77 344.26 199.26 351.22 203.39 358.75 C 207.52 366.28 207.63 374.89 204.80 383.25 C 201.97 391.61 200.65 400.27 198.20 408.25 C 195.75 416.23 196.49 426.81 191.00 433.00
C 190.11 421.44 184.54 410.63 183.23 399.77 C 181.92 388.91 176.26 377.85 177.13 367.08 C 178.00 356.31 187.82 348.04 188.00 337.00
C 189.97 335.41 192.66 336.20 195.00 336.00
M 384.00 376.00 
C 384.13 390.57 383.82 406.11 384.00 420.00
C 380.44 423.32 376.94 424.04 372.00 424.00
C 363.68 412.28 369.95 391.67 368.00 376.00
C 373.33 376.00 378.67 376.00 384.00 376.00
M 265.00 391.00 
C 282.11 414.49 318.08 406.58 352.00 408.00
C 349.66 425.55 359.66 439.86 376.01 439.99 C 392.36 440.12 402.43 425.54 400.00 408.00
C 434.65 406.53 469.87 414.48 487.00 391.00
C 489.33 411.76 487.34 434.49 488.00 456.00
C 413.33 456.00 338.66 456.00 264.00 456.00
C 264.67 434.50 262.67 411.68 265.00 391.00
M 488.00 472.00 
C 488.00 477.33 488.00 482.67 488.00 488.00
C 413.33 488.00 338.66 488.00 264.00 488.00
C 264.00 482.67 264.00 477.33 264.00 472.00
C 338.67 472.00 413.33 472.00 488.00 472.00 Z"/>
</g>
<g fill="None" fill-opacity="0.0" stroke="#000000" stroke-opacity="0.02" stroke-width="0.3"><path d="
M 266.00 105.00 
C 280.13 75.21 258.60 48.65 236.92 38.13 C 215.24 27.61 184.12 16.70 158.00 33.00
C 168.52 37.37 183.79 46.39 191.00 59.00
C 186.40 63.73 181.64 65.22 177.00 69.00
C 167.51 49.15 143.28 42.66 125.75 53.74 C 108.22 64.81 104.77 92.63 119.00 106.00
C 122.40 95.45 125.86 89.63 132.00 80.00
C 147.76 83.25 156.86 95.07 170.08 99.87 C 183.30 104.67 201.34 104.23 214.25 99.40 C 227.17 94.57 236.61 83.45 252.00 80.00
C 258.99 89.19 259.60 95.64 266.00 105.00 Z"/>
</g>
<g fill="None" fill-opacity="0.0" stroke="#000000" stroke-opacity="0.01" stroke-width="0.3"><path d="
M 247.00 102.00 
C 236.83 104.28 231.14 110.61 221.92 113.87 C 212.69 117.13 203.86 119.89 192.00 120.00 C 180.15 120.11 170.69 116.86 161.75 113.39 C 152.81 109.93 146.69 104.59 137.00 102.00
C 131.78 112.01 126.97 124.91 128.00 143.00 C 129.03 161.09 127.22 181.09 132.09 191.90 C 136.97 202.71 145.95 213.97 157.23 221.43 C 168.51 228.89 175.11 231.36 191.00 232.00 C 206.89 232.64 215.35 228.13 226.25 221.39 C 237.14 214.65 247.43 202.80 251.94 192.08 C 256.44 181.37 255.26 160.35 256.00 142.00 C 256.74 123.65 252.09 112.15 247.00 102.00 Z"/>
</g>
<g fill="None" fill-opacity="0.0" stroke="#000000" stroke-opacity="0.02" stroke-width="0.3"><path d="
M 112.00 136.00 
C 105.30 135.58 99.98 136.10 96.00 140.00
C 97.28 142.74 96.25 145.20 96.00 148.00
C 100.10 152.07 105.20 152.53 112.00 152.00
C 112.00 146.67 112.00 141.33 112.00 136.00 Z"/>
</g>
<g fill="None" fill-opacity="0.0" stroke="#000000" stroke-opacity="0.02" stroke-width="0.3"><path d="
M 288.00 140.00 
C 283.77 135.89 278.82 135.60 272.00 136.00
C 272.00 141.33 272.00 146.67 272.00 152.00
C 278.75 152.43 283.95 152.05 288.00 148.00
C 287.55 145.21 287.27 142.54 288.00 140.00 Z"/>
</g>
<g fill="None" fill-opacity="0.0" stroke="#000000" stroke-opacity="0.04" stroke-width="0.3"><path d="
M 216.00 244.00 
C 200.73 249.15 183.29 249.25 168.00 244.00
C 162.71 263.01 180.72 274.62 193.00 285.00
C 203.20 272.35 221.81 263.26 216.00 244.00 Z"/>
</g>
<g fill="None" fill-opacity="0.0" stroke="#000000" stroke-opacity="0.00" stroke-width="0.3"><path d="
M 188.00 480.00 
C 182.01 471.48 181.09 459.50 178.60 449.75 C 176.11 440.01 174.15 430.78 172.13 420.92 C 170.11 411.06 166.73 402.02 165.20 392.25 C 163.66 382.47 158.20 372.11 161.24 362.25 C 164.29 352.39 169.49 346.10 172.61 335.75 C 175.72 325.41 169.53 319.37 162.59 309.75 C 155.64 300.14 171.20 290.16 165.25 279.75 C 159.29 269.34 142.06 274.56 132.75 276.61 C 123.44 278.65 111.45 279.52 101.25 281.24 C 91.04 282.97 80.38 285.53 69.70 287.65 C 59.02 289.77 49.39 287.93 41.75 295.75 C 34.11 303.57 25.15 308.07 24.40 320.25 C 23.64 332.42 24.10 355.37 24.00 372.00 C 23.90 388.64 24.05 412.07 24.00 430.00 C 23.95 447.93 24.04 469.72 24.00 488.00
C 45.33 488.00 66.67 488.00 88.00 488.00
C 88.00 442.67 88.00 397.33 88.00 352.00
C 93.33 352.00 98.67 352.00 104.00 352.00
C 104.00 397.33 104.00 442.67 104.00 488.00
C 152.00 488.00 200.00 488.00 248.00 488.00
C 247.98 471.50 248.02 453.34 248.00 437.00 C 247.98 420.66 248.05 402.82 248.00 387.00 C 247.95 371.18 248.10 350.67 248.00 336.00 C 247.90 321.33 249.37 314.74 262.78 312.78 C 276.19 310.81 297.56 312.63 312.00 312.00
C 312.00 303.33 312.00 294.67 312.00 286.00
C 301.11 286.05 290.56 282.85 279.75 281.39 C 268.94 279.94 258.47 277.56 247.70 276.31 C 236.93 275.06 224.54 267.36 217.00 282.00
C 219.03 290.52 227.33 302.79 220.26 311.25 C 213.20 319.70 208.03 328.22 212.81 337.75 C 217.59 347.27 218.53 353.95 222.29 363.70 C 226.04 373.44 219.49 384.00 218.19 393.75 C 216.89 403.49 213.68 411.99 211.20 421.75 C 208.72 431.51 208.49 441.22 205.76 450.75 C 203.02 460.29 201.61 471.65 196.00 480.00
C 193.21 479.55 190.54 479.27 188.00 480.00 Z"/>
</g>
<g fill="None" fill-opacity="0.0" stroke="#000000" stroke-opacity="0.01" stroke-width="0.3"><path d="
M 420.00 280.00 
C 396.97 280.73 370.97 278.62 348.00 281.00
C 361.15 287.34 370.34 300.81 373.00 312.00
C 390.00 312.00 407.00 312.00 424.00 312.00
C 422.79 301.23 427.22 287.12 420.00 280.00 Z"/>
</g>
<g fill="None" fill-opacity="0.0" stroke="#000000" stroke-opacity="0.03" stroke-width="0.3"><path d="
M 356.00 312.00 
C 351.63 301.07 339.06 292.13 328.00 289.00
C 328.00 296.67 328.00 304.33 328.00 312.00
C 337.33 312.00 346.67 312.00 356.00 312.00 Z"/>
</g>
<g fill="None" fill-opacity="0.0" stroke="#000000" stroke-opacity="0.07" stroke-width="0.3"><path d="
M 188.00 304.00 
C 186.23 300.39 182.95 296.18 179.00 295.00
C 173.18 305.42 185.61 311.35 187.00 320.00
C 190.33 320.00 193.67 320.00 197.00 320.00
C 198.38 311.30 210.93 305.35 205.00 295.00
C 201.03 296.12 197.83 300.40 196.00 304.00
C 193.21 303.55 190.54 303.27 188.00 304.00 Z"/>
</g>
<g fill="None" fill-opacity="0.0" stroke="#000000" stroke-opacity="0.00" stroke-width="0.3"><path d="
M 488.00 328.00 
C 413.33 328.00 338.67 328.00 264.00 328.00
C 261.34 352.28 265.14 373.76 281.75 385.81 C 298.36 397.86 325.84 389.13 352.00 392.00
C 353.09 381.16 349.01 367.17 356.00 360.00
C 369.51 362.00 389.60 355.74 400.00 364.00
C 399.73 372.53 400.19 382.77 400.00 392.00
C 425.82 389.81 454.14 396.99 470.70 385.70 C 487.27 374.42 490.08 352.28 488.00 328.00 Z"/>
</g>
<g fill="None" fill-opacity="0.0" stroke="#000000" stroke-opacity="0.03" stroke-width="0.3"><path d="
M 195.00 336.00 
C 192.66 336.20 189.97 335.41 188.00 337.00
C 187.82 348.04 178.00 356.31 177.13 367.08 C 176.26 377.85 181.92 388.91 183.23 399.77 C 184.54 410.63 190.11 421.44 191.00 433.00
C 196.49 426.81 195.75 416.23 198.20 408.25 C 200.65 400.27 201.97 391.61 204.80 383.25 C 207.63 374.89 207.52 366.28 203.39 358.75 C 199.26 351.22 198.77 344.26 195.00 336.00 Z"/>
</g>
<g fill="None" fill-opacity="0.0" stroke="#000000" stroke-opacity="0.01" stroke-width="0.3"><path d="
M 384.00 376.00 
C 378.67 376.00 373.33 376.00 368.00 376.00
C 369.95 391.67 363.68 412.28 372.00 424.00
C 376.94 424.04 380.44 423.32 384.00 420.00
C 383.82 406.11 384.13 390.57 384.00 376.00 Z"/>
</g>
<g fill="None" fill-opacity="0.0" stroke="#000000" stroke-opacity="0.00" stroke-width="0.3"><path d="
M 265.00 391.00 
C 262.67 411.68 264.67 434.50 264.00 456.00
C 338.66 456.00 413.33 456.00 488.00 456.00
C 487.34 434.49 489.33 411.76 487.00 391.00
C 469.87 414.48 434.65 406.53 400.00 408.00
C 402.43 425.54 392.36 440.12 376.01 439.99 C 359.66 439.86 349.66 425.55 352.00 408.00
C 318.08 406.58 282.11 414.49 265.00 391.00 Z"/>
</g>
<g fill="None" fill-opacity="0.0" stroke="#000000" stroke-opacity="0.00" stroke-width="0.3"><path d="
M 488.00 472.00 
C 413.33 472.00 338.67 472.00 264.00 472.00
C 264.00 477.33 264.00 482.67 264.00 488.00
C 338.66 488.00 413.33 488.00 488.00 488.00
C 488.00 482.67 488.00 477.33 488.00 472.00 Z"/>
</g>
<g fill="#000000" fill-opacity="0.00" stroke="None">
<path d="
M 0.00 512.00 
L 512.00 512.00
L 512.00 0.00
L 0.00 0.00
L 0.00 512.00
M 276.00 120.00 
C 292.87 118.50 303.97 129.79 303.22 145.22 C 302.47 160.66 290.20 170.60 272.00 168.00
C 271.68 183.59 267.82 196.87 261.87 206.92 C 255.92 216.97 243.95 232.64 232.00 236.00
C 232.00 243.33 232.00 250.67 232.00 258.00
C 240.21 258.36 247.63 259.59 256.25 261.20 C 264.86 262.81 272.36 263.49 281.25 265.80 C 290.13 268.11 296.09 265.70 305.75 269.60 C 315.42 273.51 320.67 267.51 330.25 264.24 C 339.82 260.98 359.31 265.08 371.00 264.00 C 382.69 262.91 406.21 264.15 417.00 264.00 C 427.79 263.85 431.99 268.85 437.75 276.25 C 443.51 283.66 437.82 300.69 440.00 312.00
C 457.87 317.77 492.93 301.65 501.13 318.92 C 509.33 336.19 501.76 365.06 504.00 388.00 C 506.24 410.94 502.02 442.07 504.00 466.00 C 505.98 489.93 503.94 506.36 478.00 504.00 C 452.06 501.64 425.96 505.06 400.00 504.00 C 374.04 502.94 347.96 504.48 322.00 504.00 C 296.04 503.52 269.93 504.21 244.00 504.00 C 218.07 503.79 191.85 504.10 166.00 504.00 C 140.15 503.90 113.68 504.04 88.00 504.00 C 62.32 503.96 36.84 504.01 12.00 504.00
C 4.43 490.97 8.84 471.29 8.00 454.00 C 7.16 436.71 8.46 415.39 8.00 398.00 C 7.54 380.61 8.40 357.55 8.00 341.00 C 7.60 324.45 8.73 315.74 12.80 305.75 C 16.87 295.76 24.49 286.93 33.30 281.30 C 42.11 275.68 48.74 274.56 59.25 272.81 C 69.75 271.05 79.92 268.90 90.25 267.20 C 100.58 265.50 110.46 264.25 120.75 262.40 C 131.04 260.54 141.59 258.58 152.00 258.00
C 152.00 250.67 152.00 243.33 152.00 236.00
C 140.62 232.18 127.91 217.25 121.91 207.08 C 115.92 196.92 112.63 183.24 112.00 168.00
C 94.02 170.53 82.24 160.94 80.98 145.97 C 79.71 131.00 90.38 118.68 107.00 120.00
C 100.48 109.39 91.50 90.08 94.20 73.75 C 96.89 57.42 108.25 42.95 122.30 36.29 C 136.36 29.63 149.52 19.74 163.25 13.81 C 176.99 7.88 200.69 6.00 216.90 12.12 C 233.11 18.23 241.34 21.21 255.77 30.24 C 270.20 39.26 281.58 53.90 284.19 70.25 C 286.80 86.61 284.49 108.35 276.00 120.00 Z"/>
</g>
<g fill="#000000" fill-opacity="0.98" stroke="None">
<path d="
M 276.00 120.00 
C 284.49 108.35 286.80 86.61 284.19 70.25 C 281.58 53.90 270.20 39.26 255.77 30.24 C 241.34 21.21 233.11 18.23 216.90 12.12 C 200.69 6.00 176.99 7.88 163.25 13.81 C 149.52 19.74 136.36 29.63 122.30 36.29 C 108.25 42.95 96.89 57.42 94.20 73.75 C 91.50 90.08 100.48 109.39 107.00 120.00
C 90.38 118.68 79.71 131.00 80.98 145.97 C 82.24 160.94 94.02 170.53 112.00 168.00
C 112.63 183.24 115.92 196.92 121.91 207.08 C 127.91 217.25 140.62 232.18 152.00 236.00
C 152.00 243.33 152.00 250.67 152.00 258.00
C 141.59 258.58 131.04 260.54 120.75 262.40 C 110.46 264.25 100.58 265.50 90.25 267.20 C 79.92 268.90 69.75 271.05 59.25 272.81 C 48.74 274.56 42.11 275.68 33.30 281.30 C 24.49 286.93 16.87 295.76 12.80 305.75 C 8.73 315.74 7.60 324.45 8.00 341.00 C 8.40 357.55 7.54 380.61 8.00 398.00 C 8.46 415.39 7.16 436.71 8.00 454.00 C 8.84 471.29 4.43 490.97 12.00 504.00
C 36.84 504.01 62.32 503.96 88.00 504.00 C 113.68 504.04 140.15 503.90 166.00 504.00 C 191.85 504.10 218.07 503.79 244.00 504.00 C 269.93 504.21 296.04 503.52 322.00 504.00 C 347.96 504.48 374.04 502.94 400.00 504.00 C 425.96 505.06 452.06 501.64 478.00 504.00 C 503.94 506.36 505.98 489.93 504.00 466.00 C 502.02 442.07 506.24 410.94 504.00 388.00 C 501.76 365.06 509.33 336.19 501.13 318.92 C 492.93 301.65 457.87 317.77 440.00 312.00
C 437.82 300.69 443.51 283.66 437.75 276.25 C 431.99 268.85 427.79 263.85 417.00 264.00 C 406.21 264.15 382.69 262.91 371.00 264.00 C 359.31 265.08 339.82 260.98 330.25 264.24 C 320.67 267.51 315.42 273.51 305.75 269.60 C 296.09 265.70 290.13 268.11 281.25 265.80 C 272.36 263.49 264.86 262.81 256.25 261.20 C 247.63 259.59 240.21 258.36 232.00 258.00
C 232.00 250.67 232.00 243.33 232.00 236.00
C 243.95 232.64 255.92 216.97 261.87 206.92 C 267.82 196.87 271.68 183.59 272.00 168.00
C 290.20 170.60 302.47 160.66 303.22 145.22 C 303.97 129.79 292.87 118.50 276.00 120.00
M 266.00 105.00 
C 259.60 95.64 258.99 89.19 252.00 80.00
C 236.61 83.45 227.17 94.57 214.25 99.40 C 201.34 104.23 183.30 104.67 170.08 99.87 C 156.86 95.07 147.76 83.25 132.00 80.00
C 125.86 89.63 122.40 95.45 119.00 106.00
C 104.77 92.63 108.22 64.81 125.75 53.74 C 143.28 42.66 167.51 49.15 177.00 69.00
C 181.64 65.22 186.40 63.73 191.00 59.00
C 183.79 46.39 168.52 37.37 158.00 33.00
C 184.12 16.70 215.24 27.61 236.92 38.13 C 258.60 48.65 280.13 75.21 266.00 105.00
M 247.00 102.00 
C 252.09 112.15 256.74 123.65 256.00 142.00 C 255.26 160.35 256.44 181.37 251.94 192.08 C 247.43 202.80 237.14 214.65 226.25 221.39 C 215.35 228.13 206.89 232.64 191.00 232.00 C 175.11 231.36 168.51 228.89 157.23 221.43 C 145.95 213.97 136.97 202.71 132.09 191.90 C 127.22 181.09 129.03 161.09 128.00 143.00 C 126.97 124.91 131.78 112.01 137.00 102.00
C 146.69 104.59 152.81 109.93 161.75 113.39 C 170.69 116.86 180.15 120.11 192.00 120.00 C 203.86 119.89 212.69 117.13 221.92 113.87 C 231.14 110.61 236.83 104.28 247.00 102.00
M 112.00 136.00 
C 112.00 141.33 112.00 146.67 112.00 152.00
C 105.20 152.53 100.10 152.07 96.00 148.00
C 96.25 145.20 97.28 142.74 96.00 140.00
C 99.98 136.10 105.30 135.58 112.00 136.00
M 288.00 140.00 
C 287.27 142.54 287.55 145.21 288.00 148.00
C 283.95 152.05 278.75 152.43 272.00 152.00
C 272.00 146.67 272.00 141.33 272.00 136.00
C 278.82 135.60 283.77 135.89 288.00 140.00
M 216.00 244.00 
C 221.81 263.26 203.20 272.35 193.00 285.00
C 180.72 274.62 162.71 263.01 168.00 244.00
C 183.29 249.25 200.73 249.15 216.00 244.00
M 188.00 480.00 
C 190.54 479.27 193.21 479.55 196.00 480.00
C 201.61 471.65 203.02 460.29 205.76 450.75 C 208.49 441.22 208.72 431.51 211.20 421.75 C 213.68 411.99 216.89 403.49 218.19 393.75 C 219.49 384.00 226.04 373.44 222.29 363.70 C 218.53 353.95 217.59 347.27 212.81 337.75 C 208.03 328.22 213.20 319.70 220.26 311.25 C 227.33 302.79 219.03 290.52 217.00 282.00
C 224.54 267.36 236.93 275.06 247.70 276.31 C 258.47 277.56 268.94 279.94 279.75 281.39 C 290.56 282.85 301.11 286.05 312.00 286.00
C 312.00 294.67 312.00 303.33 312.00 312.00
C 297.56 312.63 276.19 310.81 262.78 312.78 C 249.37 314.74 247.90 321.33 248.00 336.00 C 248.10 350.67 247.95 371.18 248.00 387.00 C 248.05 402.82 247.98 420.66 248.00 437.00 C 248.02 453.34 247.98 471.50 248.00 488.00
C 200.00 488.00 152.00 488.00 104.00 488.00
C 104.00 442.67 104.00 397.33 104.00 352.00
C 98.67 352.00 93.33 352.00 88.00 352.00
C 88.00 397.33 88.00 442.67 88.00 488.00
C 66.67 488.00 45.33 488.00 24.00 488.00
C 24.04 469.72 23.95 447.93 24.00 430.00 C 24.05 412.07 23.90 388.64 24.00 372.00 C 24.10 355.37 23.64 332.42 24.40 320.25 C 25.15 308.07 34.11 303.57 41.75 295.75 C 49.39 287.93 59.02 289.77 69.70 287.65 C 80.38 285.53 91.04 282.97 101.25 281.24 C 111.45 279.52 123.44 278.65 132.75 276.61 C 142.06 274.56 159.29 269.34 165.25 279.75 C 171.20 290.16 155.64 300.14 162.59 309.75 C 169.53 319.37 175.72 325.41 172.61 335.75 C 169.49 346.10 164.29 352.39 161.24 362.25 C 158.20 372.11 163.66 382.47 165.20 392.25 C 166.73 402.02 170.11 411.06 172.13 420.92 C 174.15 430.78 176.11 440.01 178.60 449.75 C 181.09 459.50 182.01 471.48 188.00 480.00
M 420.00 280.00 
C 427.22 287.12 422.79 301.23 424.00 312.00
C 407.00 312.00 390.00 312.00 373.00 312.00
C 370.34 300.81 361.15 287.34 348.00 281.00
C 370.97 278.62 396.97 280.73 420.00 280.00
M 356.00 312.00 
C 346.67 312.00 337.33 312.00 328.00 312.00
C 328.00 304.33 328.00 296.67 328.00 289.00
C 339.06 292.13 351.63 301.07 356.00 312.00
M 188.00 304.00 
C 190.54 303.27 193.21 303.55 196.00 304.00
C 197.83 300.40 201.03 296.12 205.00 295.00
C 210.93 305.35 198.38 311.30 197.00 320.00
C 193.67 320.00 190.33 320.00 187.00 320.00
C 185.61 311.35 173.18 305.42 179.00 295.00
C 182.95 296.18 186.23 300.39 188.00 304.00
M 488.00 328.00 
C 490.08 352.28 487.27 374.42 470.70 385.70 C 454.14 396.99 425.82 389.81 400.00 392.00
C 400.19 382.77 399.73 372.53 400.00 364.00
C 389.60 355.74 369.51 362.00 356.00 360.00
C 349.01 367.17 353.09 381.16 352.00 392.00
C 325.84 389.13 298.36 397.86 281.75 385.81 C 265.14 373.76 261.34 352.28 264.00 328.00
C 338.67 328.00 413.33 328.00 488.00 328.00
M 195.00 336.00 
C 198.77 344.26 199.26 351.22 203.39 358.75 C 207.52 366.28 207.63 374.89 204.80 383.25 C 201.97 391.61 200.65 400.27 198.20 408.25 C 195.75 416.23 196.49 426.81 191.00 433.00
C 190.11 421.44 184.54 410.63 183.23 399.77 C 181.92 388.91 176.26 377.85 177.13 367.08 C 178.00 356.31 187.82 348.04 188.00 337.00
C 189.97 335.41 192.66 336.20 195.00 336.00
M 384.00 376.00 
C 384.13 390.57 383.82 406.11 384.00 420.00
C 380.44 423.32 376.94 424.04 372.00 424.00
C 363.68 412.28 369.95 391.67 368.00 376.00
C 373.33 376.00 378.67 376.00 384.00 376.00
M 265.00 391.00 
C 282.11 414.49 318.08 406.58 352.00 408.00
C 349.66 425.55 359.66 439.86 376.01 439.99 C 392.36 440.12 402.43 425.54 400.00 408.00
C 434.65 406.53 469.87 414.48 487.00 391.00
C 489.33 411.76 487.34 434.49 488.00 456.00
C 413.33 456.00 338.66 456.00 264.00 456.00
C 264.67 434.50 262.67 411.68 265.00 391.00
M 488.00 472.00 
C 488.00 477.33 488.00 482.67 488.00 488.00
C 413.33 488.00 338.66 488.00 264.00 488.00
C 264.00 482.67 264.00 477.33 264.00 472.00
C 338.67 472.00 413.33 472.00 488.00 472.00 Z"/>
</g>
<g fill="#000000" fill-opacity="0.02" stroke="None">
<path d="
M 266.00 105.00 
C 280.13 75.21 258.60 48.65 236.92 38.13 C 215.24 27.61 184.12 16.70 158.00 33.00
C 168.52 37.37 183.79 46.39 191.00 59.00
C 186.40 63.73 181.64 65.22 177.00 69.00
C 167.51 49.15 143.28 42.66 125.75 53.74 C 108.22 64.81 104.77 92.63 119.00 106.00
C 122.40 95.45 125.86 89.63 132.00 80.00
C 147.76 83.25 156.86 95.07 170.08 99.87 C 183.30 104.67 201.34 104.23 214.25 99.40 C 227.17 94.57 236.61 83.45 252.00 80.00
C 258.99 89.19 259.60 95.64 266.00 105.00 Z"/>
</g>
<g fill="#000000" fill-opacity="0.01" stroke="None">
<path d="
M 247.00 102.00 
C 236.83 104.28 231.14 110.61 221.92 113.87 C 212.69 117.13 203.86 119.89 192.00 120.00 C 180.15 120.11 170.69 116.86 161.75 113.39 C 152.81 109.93 146.69 104.59 137.00 102.00
C 131.78 112.01 126.97 124.91 128.00 143.00 C 129.03 161.09 127.22 181.09 132.09 191.90 C 136.97 202.71 145.95 213.97 157.23 221.43 C 168.51 228.89 175.11 231.36 191.00 232.00 C 206.89 232.64 215.35 228.13 226.25 221.39 C 237.14 214.65 247.43 202.80 251.94 192.08 C 256.44 181.37 255.26 160.35 256.00 142.00 C 256.74 123.65 252.09 112.15 247.00 102.00 Z"/>
</g>
<g fill="#000000" fill-opacity="0.02" stroke="None">
<path d="
M 112.00 136.00 
C 105.30 135.58 99.98 136.10 96.00 140.00
C 97.28 142.74 96.25 145.20 96.00 148.00
C 100.10 152.07 105.20 152.53 112.00 152.00
C 112.00 146.67 112.00 141.33 112.00 136.00 Z"/>
</g>
<g fill="#000000" fill-opacity="0.02" stroke="None">
<path d="
M 288.00 140.00 
C 283.77 135.89 278.82 135.60 272.00 136.00
C 272.00 141.33 272.00 146.67 272.00 152.00
C 278.75 152.43 283.95 152.05 288.00 148.00
C 287.55 145.21 287.27 142.54 288.00 140.00 Z"/>
</g>
<g fill="#000000" fill-opacity="0.04" stroke="None">
<path d="
M 216.00 244.00 
C 200.73 249.15 183.29 249.25 168.00 244.00
C 162.71 263.01 180.72 274.62 193.00 285.00
C 203.20 272.35 221.81 263.26 216.00 244.00 Z"/>
</g>
<g fill="#000000" fill-opacity="0.00" stroke="None">
<path d="
M 188.00 480.00 
C 182.01 471.48 181.09 459.50 178.60 449.75 C 176.11 440.01 174.15 430.78 172.13 420.92 C 170.11 411.06 166.73 402.02 165.20 392.25 C 163.66 382.47 158.20 372.11 161.24 362.25 C 164.29 352.39 169.49 346.10 172.61 335.75 C 175.72 325.41 169.53 319.37 162.59 309.75 C 155.64 300.14 171.20 290.16 165.25 279.75 C 159.29 269.34 142.06 274.56 132.75 276.61 C 123.44 278.65 111.45 279.52 101.25 281.24 C 91.04 282.97 80.38 285.53 69.70 287.65 C 59.02 289.77 49.39 287.93 41.75 295.75 C 34.11 303.57 25.15 308.07 24.40 320.25 C 23.64 332.42 24.10 355.37 24.00 372.00 C 23.90 388.64 24.05 412.07 24.00 430.00 C 23.95 447.93 24.04 469.72 24.00 488.00
C 45.33 488.00 66.67 488.00 88.00 488.00
C 88.00 442.67 88.00 397.33 88.00 352.00
C 93.33 352.00 98.67 352.00 104.00 352.00
C 104.00 397.33 104.00 442.67 104.00 488.00
C 152.00 488.00 200.00 488.00 248.00 488.00
C 247.98 471.50 248.02 453.34 248.00 437.00 C 247.98 420.66 248.05 402.82 248.00 387.00 C 247.95 371.18 248.10 350.67 248.00 336.00 C 247.90 321.33 249.37 314.74 262.78 312.78 C 276.19 310.81 297.56 312.63 312.00 312.00
C 312.00 303.33 312.00 294.67 312.00 286.00
C 301.11 286.05 290.56 282.85 279.75 281.39 C 268.94 279.94 258.47 277.56 247.70 276.31 C 236.93 275.06 224.54 267.36 217.00 282.00
C 219.03 290.52 227.33 302.79 220.26 311.25 C 213.20 319.70 208.03 328.22 212.81 337.75 C 217.59 347.27 218.53 353.95 222.29 363.70 C 226.04 373.44 219.49 384.00 218.19 393.75 C 216.89 403.49 213.68 411.99 211.20 421.75 C 208.72 431.51 208.49 441.22 205.76 450.75 C 203.02 460.29 201.61 471.65 196.00 480.00
C 193.21 479.55 190.54 479.27 188.00 480.00 Z"/>
</g>
<g fill="#000000" fill-opacity="0.01" stroke="None">
<path d="
M 420.00 280.00 
C 396.97 280.73 370.97 278.62 348.00 281.00
C 361.15 287.34 370.34 300.81 373.00 312.00
C 390.00 312.00 407.00 312.00 424.00 312.00
C 422.79 301.23 427.22 287.12 420.00 280.00 Z"/>
</g>
<g fill="#000000" fill-opacity="0.03" stroke="None">
<path d="
M 356.00 312.00 
C 351.63 301.07 339.06 292.13 328.00 289.00
C 328.00 296.67 328.00 304.33 328.00 312.00
C 337.33 312.00 346.67 312.00 356.00 312.00 Z"/>
</g>
<g fill="#000000" fill-opacity="0.07" stroke="None">
<path d="
M 188.00 304.00 
C 186.23 300.39 182.95 296.18 179.00 295.00
C 173.18 305.42 185.61 311.35 187.00 320.00
C 190.33 320.00 193.67 320.00 197.00 320.00
C 198.38 311.30 210.93 305.35 205.00 295.00
C 201.03 296.12 197.83 300.40 196.00 304.00
C 193.21 303.55 190.54 303.27 188.00 304.00 Z"/>
</g>
<g fill="#000000" fill-opacity="0.00" stroke="None">
<path d="
M 488.00 328.00 
C 413.33 328.00 338.67 328.00 264.00 328.00
C 261.34 352.28 265.14 373.76 281.75 385.81 C 298.36 397.86 325.84 389.13 352.00 392.00
C 353.09 381.16 349.01 367.17 356.00 360.00
C 369.51 362.00 389.60 355.74 400.00 364.00
C 399.73 372.53 400.19 382.77 400.00 392.00
C 425.82 389.81 454.14 396.99 470.70 385.70 C 487.27 374.42 490.08 352.28 488.00 328.00 Z"/>
</g>
<g fill="#000000" fill-opacity="0.03" stroke="None">
<path d="
M 195.00 336.00 
C 192.66 336.20 189.97 335.41 188.00 337.00
C 187.82 348.04 178.00 356.31 177.13 367.08 C 176.26 377.85 181.92 388.91 183.23 399.77 C 184.54 410.63 190.11 421.44 191.00 433.00
C 196.49 426.81 195.75 416.23 198.20 408.25 C 200.65 400.27 201.97 391.61 204.80 383.25 C 207.63 374.89 207.52 366.28 203.39 358.75 C 199.26 351.22 198.77 344.26 195.00 336.00 Z"/>
</g>
<g fill="#000000" fill-opacity="0.01" stroke="None">
<path d="
M 384.00 376.00 
C 378.67 376.00 373.33 376.00 368.00 376.00
C 369.95 391.67 363.68 412.28 372.00 424.00
C 376.94 424.04 380.44 423.32 384.00 420.00
C 383.82 406.11 384.13 390.57 384.00 376.00 Z"/>
</g>
<g fill="#000000" fill-opacity="0.00" stroke="None">
<path d="
M 265.00 391.00 
C 262.67 411.68 264.67 434.50 264.00 456.00
C 338.66 456.00 413.33 456.00 488.00 456.00
C 487.34 434.49 489.33 411.76 487.00 391.00
C 469.87 414.48 434.65 406.53 400.00 408.00
C 402.43 425.54 392.36 440.12 376.01 439.99 C 359.66 439.86 349.66 425.55 352.00 408.00
C 318.08 406.58 282.11 414.49 265.00 391.00 Z"/>
</g>
<g fill="#000000" fill-opacity="0.00" stroke="None">
<path d="
M 488.00 472.00 
C 413.33 472.00 338.67 472.00 264.00 472.00
C 264.00 477.33 264.00 482.67 264.00 488.00
C 338.66 488.00 413.33 488.00 488.00 488.00
C 488.00 482.67 488.00 477.33 488.00 472.00 Z"/>
</g>
</svg>