<svg xmlns="http://www.w3.org/2000/svg" xmlns:v="https://svgstorm.com"
viewBox = "0 0 512 512"
width="512"
height="512">
<g fill="None" fill-opacity="0.0" stroke="#000000" stroke-opacity="0.00" stroke-width="0.3"><path d="
M 0.00 512.00 
L 367.00 512.00
C 355.27 507.89 342.76 507.33 333.75 501.81 C 324.73 496.29 313.01 491.15 303.75 480.25 C 294.50 469.35 288.42 460.89 283.29 450.70 C 278.15 440.51 276.59 429.17 274.80 415.75 C 273.01 402.34 275.86 386.96 278.26 375.25 C 280.66 363.53 281.83 350.59 284.21 338.77 C 286.60 326.95 288.53 315.26 290.60 303.25 C 292.68 291.23 294.89 279.48 297.26 267.25 C 299.64 255.01 300.42 243.40 303.39 231.25 C 306.37 219.09 322.90 225.56 333.75 227.39 C 344.60 229.23 358.03 231.69 369.75 233.40 C 381.47 235.10 394.44 238.68 406.23 240.77 C 418.02 242.86 429.93 243.51 441.75 246.39 C 453.57 249.28 465.91 249.48 477.75 252.40 C 489.60 255.32 503.88 253.77 512.00 264.00
L 512.00 0.00
L 202.00 0.00
C 213.74 6.83 211.07 24.30 214.20 37.25 C 217.32 50.20 219.05 64.12 221.80 77.25 C 224.55 90.38 225.68 104.68 228.60 117.75 C 231.53 130.83 232.99 145.27 235.20 158.25 C 237.41 171.22 240.42 189.14 236.80 203.25 C 233.19 217.35 228.58 228.61 222.61 238.75 C 216.64 248.89 200.44 264.67 190.25 271.59 C 180.06 278.50 169.64 281.86 156.25 285.60 C 142.86 289.35 124.64 289.45 110.75 286.20 C 96.86 282.95 85.35 277.89 75.25 271.74 C 65.14 265.59 49.92 249.23 43.74 239.25 C 37.55 229.26 31.00 218.13 28.74 204.25 C 26.47 190.36 23.72 177.82 21.69 164.30 C 19.66 150.79 16.29 137.09 14.23 123.77 C 12.16 110.45 9.19 96.59 7.81 83.75 C 6.43 70.91 -0.70 53.98 1.00 41.00 C 2.70 28.02 24.37 32.39 35.75 28.74 C 47.12 25.09 63.67 24.58 76.25 21.24 C 88.82 17.91 103.18 18.03 116.25 14.81 C 129.32 11.58 143.36 10.48 156.75 7.61 C 170.15 4.73 184.67 3.29 199.00 0.00
L 0.00 0.00
L 0.00 512.00
M 376.00 159.00 
C 368.04 149.93 372.22 141.85 365.43 134.23 C 358.64 126.61 351.73 123.25 341.70 122.29 C 331.67 121.32 336.02 104.53 346.03 105.98 C 356.04 107.43 364.34 96.85 368.13 91.08 C 371.92 85.32 369.89 67.21 381.74 70.40 C 393.60 73.59 386.25 87.21 393.71 94.30 C 401.17 101.40 404.75 105.72 416.75 106.26 C 428.75 106.81 422.50 125.08 412.26 123.40 C 402.01 121.73 395.56 132.56 390.87 138.92 C 386.19 145.27 391.43 162.15 376.00 159.00
M 106.00 382.00 
C 103.71 368.52 120.26 371.61 126.77 367.42 C 133.28 363.24 143.52 357.28 141.39 347.25 C 139.27 337.22 156.11 330.25 158.59 340.75 C 161.08 351.25 161.88 356.87 170.30 365.70 C 178.72 374.53 186.65 363.94 193.57 374.77 C 200.49 385.60 182.33 388.17 175.70 390.71 C 169.07 393.26 157.59 400.82 159.61 410.75 C 161.63 420.68 144.57 428.35 142.81 417.75 C 141.05 407.14 139.12 401.24 131.30 393.70 C 123.49 386.15 114.87 392.31 106.00 382.00 Z"/>
</g>
<g fill="None" fill-opacity="0.0" stroke="#000000" stroke-opacity="0.97" stroke-width="0.3"><path d="
M 202.00 0.00 
L 199.00 0.00
C 184.67 3.29 170.15 4.73 156.75 7.61 C 143.36 10.48 129.32 11.58 116.25 14.81 C 103.18 18.03 88.82 17.91 76.25 21.24 C 63.67 24.58 47.12 25.09 35.75 28.74 C 24.37 32.39 2.70 28.02 1.00 41.00 C -0.70 53.98 6.43 70.91 7.81 83.75 C 9.19 96.59 12.16 110.45 14.23 123.77 C 16.29 137.09 19.66 150.79 21.69 164.30 C 23.72 177.82 26.47 190.36 28.74 204.25 C 31.00 218.13 37.55 229.26 43.74 239.25 C 49.92 249.23 65.14 265.59 75.25 271.74 C 85.35 277.89 96.86 282.95 110.75 286.20 C 124.64 289.45 142.86 289.35 156.25 285.60 C 169.64 281.86 180.06 278.50 190.25 271.59 C 200.44 264.67 216.64 248.89 222.61 238.75 C 228.58 228.61 233.19 217.35 236.80 203.25 C 240.42 189.14 237.41 171.22 235.20 158.25 C 232.99 145.27 231.53 130.83 228.60 117.75 C 225.68 104.68 224.55 90.38 221.80 77.25 C 219.05 64.12 217.32 50.20 214.20 37.25 C 211.07 24.30 213.74 6.83 202.00 0.00
M 194.00 19.00 
C 195.72 39.21 201.23 60.32 204.59 80.75 C 207.95 101.19 211.14 123.25 215.77 143.23 C 220.40 163.21 221.94 190.01 216.94 209.08 C 211.93 228.16 193.31 246.89 176.23 258.58 C 159.15 270.27 129.88 271.40 110.25 267.40 C 90.62 263.39 70.83 247.58 58.43 230.23 C 46.03 212.88 45.80 195.57 41.20 173.75 C 36.59 151.94 34.94 132.40 30.61 111.25 C 26.27 90.10 23.98 70.31 19.00 49.00
C 77.35 40.60 136.25 28.52 194.00 19.00 Z"/>
</g>
<g fill="None" fill-opacity="0.0" stroke="#000000" stroke-opacity="0.01" stroke-width="0.3"><path d="
M 194.00 19.00 
C 136.25 28.52 77.35 40.60 19.00 49.00
C 23.98 70.31 26.27 90.10 30.61 111.25 C 34.94 132.40 36.59 151.94 41.20 173.75 C 45.80 195.57 46.03 212.88 58.43 230.23 C 70.83 247.58 90.62 263.39 110.25 267.40 C 129.88 271.40 159.15 270.27 176.23 258.58 C 193.31 246.89 211.93 228.16 216.94 209.08 C 221.94 190.01 220.40 163.21 215.77 143.23 C 211.14 123.25 207.95 101.19 204.59 80.75 C 201.23 60.32 195.72 39.21 194.00 19.00
M 136.00 96.00 
C 144.35 89.71 149.98 85.24 158.25 83.81 C 166.53 82.38 170.74 72.17 180.75 75.40 C 190.77 78.62 185.27 93.42 176.75 94.19 C 168.22 94.96 163.27 101.94 155.70 104.71 C 148.12 107.49 134.06 110.67 136.00 96.00
M 47.00 110.00 
C 44.40 97.23 58.71 94.44 69.23 97.79 C 79.75 101.14 94.70 93.65 100.39 104.75 C 106.08 115.86 89.35 119.59 78.92 116.07 C 68.48 112.54 54.81 119.15 47.00 110.00
M 174.00 174.00 
C 190.97 172.47 187.39 196.39 184.65 207.70 C 181.91 219.01 169.48 230.03 159.08 237.13 C 148.68 244.23 131.30 244.21 118.08 240.87 C 104.86 237.53 94.78 226.55 87.81 215.75 C 80.85 204.94 79.50 189.06 95.25 188.20 C 111.00 187.34 119.43 183.05 134.25 181.81 C 149.06 180.56 159.63 175.30 174.00 174.00 Z"/>
</g>
<g fill="None" fill-opacity="0.0" stroke="#000000" stroke-opacity="0.97" stroke-width="0.3"><path d="
M 376.00 159.00 
C 391.43 162.15 386.19 145.27 390.87 138.92 C 395.56 132.56 402.01 121.73 412.26 123.40 C 422.50 125.08 428.75 106.81 416.75 106.26 C 404.75 105.72 401.17 101.40 393.71 94.30 C 386.25 87.21 393.60 73.59 381.74 70.40 C 369.89 67.21 371.92 85.32 368.13 91.08 C 364.34 96.85 356.04 107.43 346.03 105.98 C 336.02 104.53 331.67 121.32 341.70 122.29 C 351.73 123.25 358.64 126.61 365.43 134.23 C 372.22 141.85 368.04 149.93 376.00 159.00
M 381.00 106.00 
C 381.20 109.75 385.19 113.85 389.00 114.00
C 386.25 116.93 383.33 120.56 380.00 123.00
C 376.87 121.55 374.09 115.16 371.00 116.00
C 373.28 112.33 377.49 108.17 381.00 106.00 Z"/>
</g>
<g fill="None" fill-opacity="0.0" stroke="#000000" stroke-opacity="0.96" stroke-width="0.3"><path d="
M 136.00 96.00 
C 134.06 110.67 148.12 107.49 155.70 104.71 C 163.27 101.94 168.22 94.96 176.75 94.19 C 185.27 93.42 190.77 78.62 180.75 75.40 C 170.74 72.17 166.53 82.38 158.25 83.81 C 149.98 85.24 144.35 89.71 136.00 96.00 Z"/>
</g>
<g fill="None" fill-opacity="0.0" stroke="#000000" stroke-opacity="0.96" stroke-width="0.3"><path d="
M 47.00 110.00 
C 54.81 119.15 68.48 112.54 78.92 116.07 C 89.35 119.59 106.08 115.86 100.39 104.75 C 94.70 93.65 79.75 101.14 69.23 97.79 C 58.71 94.44 44.40 97.23 47.00 110.00 Z"/>
</g>
<g fill="None" fill-opacity="0.0" stroke="#000000" stroke-opacity="0.08" stroke-width="0.3"><path d="
M 381.00 106.00 
C 377.49 108.17 373.28 112.33 371.00 116.00
C 374.09 115.16 376.87 121.55 380.00 123.00
C 383.33 120.56 386.25 116.93 389.00 114.00
C 385.19 113.85 381.20 109.75 381.00 106.00 Z"/>
</g>
<g fill="None" fill-opacity="0.0" stroke="#000000" stroke-opacity="0.97" stroke-width="0.3"><path d="
M 174.00 174.00 
C 159.63 175.30 149.06 180.56 134.25 181.81 C 119.43 183.05 111.00 187.34 95.25 188.20 C 79.50 189.06 80.85 204.94 87.81 215.75 C 94.78 226.55 104.86 237.53 118.08 240.87 C 131.30 244.21 148.68 244.23 159.08 237.13 C 169.48 230.03 181.91 219.01 184.65 207.70 C 187.39 196.39 190.97 172.47 174.00 174.00
M 169.00 193.00 
C 169.03 226.45 116.27 239.86 102.00 205.00
C 124.71 201.43 146.71 197.81 169.00 193.00 Z"/>
</g>
<g fill="None" fill-opacity="0.0" stroke="#000000" stroke-opacity="0.03" stroke-width="0.3"><path d="
M 169.00 193.00 
C 146.71 197.81 124.71 201.43 102.00 205.00
C 116.27 239.86 169.03 226.45 169.00 193.00 Z"/>
</g>
<g fill="None" fill-opacity="0.0" stroke="#000000" stroke-opacity="0.97" stroke-width="0.3"><path d="
M 367.00 512.00 
L 392.00 512.00
C 417.36 506.14 436.23 500.64 456.25 480.25 C 476.26 459.86 481.09 439.88 486.26 414.25 C 491.44 388.61 493.63 366.52 498.20 341.75 C 502.77 316.98 507.69 293.75 512.00 268.00
L 512.00 264.00
C 503.88 253.77 489.60 255.32 477.75 252.40 C 465.91 249.48 453.57 249.28 441.75 246.39 C 429.93 243.51 418.02 242.86 406.23 240.77 C 394.44 238.68 381.47 235.10 369.75 233.40 C 358.03 231.69 344.60 229.23 333.75 227.39 C 322.90 225.56 306.37 219.09 303.39 231.25 C 300.42 243.40 299.64 255.01 297.26 267.25 C 294.89 279.48 292.68 291.23 290.60 303.25 C 288.53 315.26 286.60 326.95 284.21 338.77 C 281.83 350.59 280.66 363.53 278.26 375.25 C 275.86 386.96 273.01 402.34 274.80 415.75 C 276.59 429.17 278.15 440.51 283.29 450.70 C 288.42 460.89 294.50 469.35 303.75 480.25 C 313.01 491.15 324.73 496.29 333.75 501.81 C 342.76 507.33 355.27 507.89 367.00 512.00
M 493.00 273.00 
C 489.62 296.88 483.86 320.85 480.20 344.25 C 476.54 367.65 471.48 390.92 468.65 414.70 C 465.82 438.48 452.42 459.60 433.08 476.13 C 413.75 492.66 389.43 494.89 363.75 492.80 C 338.07 490.71 321.50 471.48 306.20 452.75 C 290.90 434.02 290.40 407.92 294.80 382.75 C 299.20 357.59 302.49 337.06 306.80 312.75 C 311.11 288.44 315.59 266.06 319.00 242.00
C 376.93 253.56 434.86 263.16 493.00 273.00 Z"/>
</g>
<g fill="None" fill-opacity="0.0" stroke="#000000" stroke-opacity="0.01" stroke-width="0.3"><path d="
M 493.00 273.00 
C 434.86 263.16 376.93 253.56 319.00 242.00
C 315.59 266.06 311.11 288.44 306.80 312.75 C 302.49 337.06 299.20 357.59 294.80 382.75 C 290.40 407.92 290.90 434.02 306.20 452.75 C 321.50 471.48 338.07 490.71 363.75 492.80 C 389.43 494.89 413.75 492.66 433.08 476.13 C 452.42 459.60 465.82 438.48 468.65 414.70 C 471.48 390.92 476.54 367.65 480.20 344.25 C 483.86 320.85 489.62 296.88 493.00 273.00
M 332.00 299.00 
C 339.45 297.65 345.07 304.09 351.70 305.35 C 358.33 306.61 361.28 312.72 369.25 313.80 C 377.22 314.88 379.40 330.87 369.90 331.91 C 360.40 332.94 357.08 325.53 350.23 324.42 C 343.38 323.32 339.30 317.84 332.23 316.42 C 325.16 315.01 322.97 300.64 332.00 299.00
M 461.00 321.00 
C 467.09 327.59 466.65 337.13 457.75 338.19 C 448.85 339.25 439.06 338.42 429.77 340.21 C 420.48 342.01 409.05 339.88 411.76 329.75 C 414.46 319.63 423.28 324.33 432.70 322.65 C 442.11 320.96 451.31 321.20 461.00 321.00
M 426.00 413.00 
C 433.17 423.93 430.27 433.92 422.81 444.25 C 415.35 454.59 402.38 462.03 393.25 465.26 C 384.12 468.50 365.91 466.68 357.23 462.42 C 348.55 458.17 336.14 448.12 331.29 438.70 C 326.43 429.28 325.14 416.87 326.00 403.00
C 335.54 393.58 348.08 400.80 359.08 401.93 C 370.08 403.06 380.91 406.47 392.25 407.80 C 403.59 409.13 414.83 413.03 426.00 413.00 Z"/>
</g>
<g fill="None" fill-opacity="0.0" stroke="#000000" stroke-opacity="0.01" stroke-width="0.3"><path d="
M 392.00 512.00 
L 512.00 512.00
L 512.00 268.00
C 507.69 293.75 502.77 316.98 498.20 341.75 C 493.63 366.52 491.44 388.61 486.26 414.25 C 481.09 439.88 476.26 459.86 456.25 480.25 C 436.23 500.64 417.36 506.14 392.00 512.00 Z"/>
</g>
<g fill="None" fill-opacity="0.0" stroke="#000000" stroke-opacity="0.96" stroke-width="0.3"><path d="
M 332.00 299.00 
C 322.97 300.64 325.16 315.01 332.23 316.42 C 339.30 317.84 343.38 323.32 350.23 324.42 C 357.08 325.53 360.40 332.94 369.90 331.91 C 379.40 330.87 377.22 314.88 369.25 313.80 C 361.28 312.72 358.33 306.61 351.70 305.35 C 345.07 304.09 339.45 297.65 332.00 299.00 Z"/>
</g>
<g fill="None" fill-opacity="0.0" stroke="#000000" stroke-opacity="0.96" stroke-width="0.3"><path d="
M 461.00 321.00 
C 451.31 321.20 442.11 320.96 432.70 322.65 C 423.28 324.33 414.46 319.63 411.76 329.75 C 409.05 339.88 420.48 342.01 429.77 340.21 C 439.06 338.42 448.85 339.25 457.75 338.19 C 466.65 337.13 467.09 327.59 461.00 321.00 Z"/>
</g>
<g fill="None" fill-opacity="0.0" stroke="#000000" stroke-opacity="0.97" stroke-width="0.3"><path d="
M 106.00 382.00 
C 114.87 392.31 123.49 386.15 131.30 393.70 C 139.12 401.24 141.05 407.14 142.81 417.75 C 144.57 428.35 161.63 420.68 159.61 410.75 C 157.59 400.82 169.07 393.26 175.70 390.71 C 182.33 388.17 200.49 385.60 193.57 374.77 C 186.65 363.94 178.72 374.53 170.30 365.70 C 161.88 356.87 161.08 351.25 158.59 340.75 C 156.11 330.25 139.27 337.22 141.39 347.25 C 143.52 357.28 133.28 363.24 126.77 367.42 C 120.26 371.61 103.71 368.52 106.00 382.00
M 159.00 379.00 
C 155.92 381.56 153.45 387.02 149.00 388.00
C 149.64 384.79 143.73 380.79 141.00 380.00
C 143.95 376.82 148.71 374.06 150.00 370.00
C 153.30 372.54 156.56 375.69 159.00 379.00 Z"/>
</g>
<g fill="None" fill-opacity="0.0" stroke="#000000" stroke-opacity="0.11" stroke-width="0.3"><path d="
M 159.00 379.00 
C 156.56 375.69 153.30 372.54 150.00 370.00
C 148.71 374.06 143.95 376.82 141.00 380.00
C 143.73 380.79 149.64 384.79 149.00 388.00
C 153.45 387.02 155.92 381.56 159.00 379.00 Z"/>
</g>
<g fill="None" fill-opacity="0.0" stroke="#000000" stroke-opacity="0.97" stroke-width="0.3"><path d="
M 426.00 413.00 
C 414.83 413.03 403.59 409.13 392.25 407.80 C 380.91 406.47 370.08 403.06 359.08 401.93 C 348.08 400.80 335.54 393.58 326.00 403.00
C 325.14 416.87 326.43 429.28 331.29 438.70 C 336.14 448.12 348.55 458.17 357.23 462.42 C 365.91 466.68 384.12 468.50 393.25 465.26 C 402.38 462.03 415.35 454.59 422.81 444.25 C 430.27 433.92 433.17 423.93 426.00 413.00
M 411.00 429.00 
C 396.64 461.89 344.75 452.16 343.00 417.00
C 366.06 421.13 387.74 425.09 411.00 429.00 Z"/>
</g>
<g fill="None" fill-opacity="0.0" stroke="#000000" stroke-opacity="0.03" stroke-width="0.3"><path d="
M 411.00 429.00 
C 387.74 425.09 366.06 421.13 343.00 417.00
C 344.75 452.16 396.64 461.89 411.00 429.00 Z"/>
</g>
<g fill="#000000" fill-opacity="0.00" stroke="None">
<path d="
M 0.00 512.00 
L 367.00 512.00
C 355.27 507.89 342.76 507.33 333.75 501.81 C 324.73 496.29 313.01 491.15 303.75 480.25 C 294.50 469.35 288.42 460.89 283.29 450.70 C 278.15 440.51 276.59 429.17 274.80 415.75 C 273.01 402.34 275.86 386.96 278.26 375.25 C 280.66 363.53 281.83 350.59 284.21 338.77 C 286.60 326.95 288.53 315.26 290.60 303.25 C 292.68 291.23 294.89 279.48 297.26 267.25 C 299.64 255.01 300.42 243.40 303.39 231.25 C 306.37 219.09 322.90 225.56 333.75 227.39 C 344.60 229.23 358.03 231.69 369.75 233.40 C 381.47 235.10 394.44 238.68 406.23 240.77 C 418.02 242.86 429.93 243.51 441.75 246.39 C 453.57 249.28 465.91 249.48 477.75 252.40 C 489.60 255.32 503.88 253.77 512.00 264.00
L 512.00 0.00
L 202.00 0.00
C 213.74 6.83 211.07 24.30 214.20 37.25 C 217.32 50.20 219.05 64.12 221.80 77.25 C 224.55 90.38 225.68 104.68 228.60 117.75 C 231.53 130.83 232.99 145.27 235.20 158.25 C 237.41 171.22 240.42 189.14 236.80 203.25 C 233.19 217.35 228.58 228.61 222.61 238.75 C 216.64 248.89 200.44 264.67 190.25 271.59 C 180.06 278.50 169.64 281.86 156.25 285.60 C 142.86 289.35 124.64 289.45 110.75 286.20 C 96.86 282.95 85.35 277.89 75.25 271.74 C 65.14 265.59 49.92 249.23 43.74 239.25 C 37.55 229.26 31.00 218.13 28.74 204.25 C 26.47 190.36 23.72 177.82 21.69 164.30 C 19.66 150.79 16.29 137.09 14.23 123.77 C 12.16 110.45 9.19 96.59 7.81 83.75 C 6.43 70.91 -0.70 53.98 1.00 41.00 C 2.70 28.02 24.37 32.39 35.75 28.74 C 47.12 25.09 63.67 24.58 76.25 21.24 C 88.82 17.91 103.18 18.03 116.25 14.81 C 129.32 11.58 143.36 10.48 156.75 7.61 C 170.15 4.73 184.67 3.29 199.00 0.00
L 0.00 0.00
L 0.00 512.00
M 376.00 159.00 
C 368.04 149.93 372.22 141.85 365.43 134.23 C 358.64 126.61 351.73 123.25 341.70 122.29 C 331.67 121.32 336.02 104.53 346.03 105.98 C 356.04 107.43 364.34 96.85 368.13 91.08 C 371.92 85.32 369.89 67.21 381.74 70.40 C 393.60 73.59 386.25 87.21 393.71 94.30 C 401.17 101.40 404.75 105.72 416.75 106.26 C 428.75 106.81 422.50 125.08 412.26 123.40 C 402.01 121.73 395.56 132.56 390.87 138.92 C 386.19 145.27 391.43 162.15 376.00 159.00
M 106.00 382.00 
C 103.71 368.52 120.26 371.61 126.77 367.42 C 133.28 363.24 143.52 357.28 141.39 347.25 C 139.27 337.22 156.11 330.25 158.59 340.75 C 161.08 351.25 161.88 356.87 170.30 365.70 C 178.72 374.53 186.65 363.94 193.57 374.77 C 200.49 385.60 182.33 388.17 175.70 390.71 C 169.07 393.26 157.59 400.82 159.61 410.75 C 161.63 420.68 144.57 428.35 142.81 417.75 C 141.05 407.14 139.12 401.24 131.30 393.70 C 123.49 386.15 114.87 392.31 106.00 382.00 Z"/>
</g>
<g fill="#000000" fill-opacity="0.97" stroke="None">
<path d="
M 202.00 0.00 
L 199.00 0.00
C 184.67 3.29 170.15 4.73 156.75 7.61 C 143.36 10.48 129.32 11.58 116.25 14.81 C 103.18 18.03 88.82 17.91 76.25 21.24 C 63.67 24.58 47.12 25.09 35.75 28.74 C 24.37 32.39 2.70 28.02 1.00 41.00 C -0.70 53.98 6.43 70.91 7.81 83.75 C 9.19 96.59 12.16 110.45 14.23 123.77 C 16.29 137.09 19.66 150.79 21.69 164.30 C 23.72 177.82 26.47 190.36 28.74 204.25 C 31.00 218.13 37.55 229.26 43.74 239.25 C 49.92 249.23 65.14 265.59 75.25 271.74 C 85.35 277.89 96.86 282.95 110.75 286.20 C 124.64 289.45 142.86 289.35 156.25 285.60 C 169.64 281.86 180.06 278.50 190.25 271.59 C 200.44 264.67 216.64 248.89 222.61 238.75 C 228.58 228.61 233.19 217.35 236.80 203.25 C 240.42 189.14 237.41 171.22 235.20 158.25 C 232.99 145.27 231.53 130.83 228.60 117.75 C 225.68 104.68 224.55 90.38 221.80 77.25 C 219.05 64.12 217.32 50.20 214.20 37.25 C 211.07 24.30 213.74 6.83 202.00 0.00
M 194.00 19.00 
C 195.72 39.21 201.23 60.32 204.59 80.75 C 207.95 101.19 211.14 123.25 215.77 143.23 C 220.40 163.21 221.94 190.01 216.94 209.08 C 211.93 228.16 193.31 246.89 176.23 258.58 C 159.15 270.27 129.88 271.40 110.25 267.40 C 90.62 263.39 70.83 247.58 58.43 230.23 C 46.03 212.88 45.80 195.57 41.20 173.75 C 36.59 151.94 34.94 132.40 30.61 111.25 C 26.27 90.10 23.98 70.31 19.00 49.00
C 77.35 40.60 136.25 28.52 194.00 19.00 Z"/>
</g>
<g fill="#000000" fill-opacity="0.01" stroke="None">
<path d="
M 194.00 19.00 
C 136.25 28.52 77.35 40.60 19.00 49.00
C 23.98 70.31 26.27 90.10 30.61 111.25 C 34.94 132.40 36.59 151.94 41.20 173.75 C 45.80 195.57 46.03 212.88 58.43 230.23 C 70.83 247.58 90.62 263.39 110.25 267.40 C 129.88 271.40 159.15 270.27 176.23 258.58 C 193.31 246.89 211.93 228.16 216.94 209.08 C 221.94 190.01 220.40 163.21 215.77 143.23 C 211.14 123.25 207.95 101.19 204.59 80.75 C 201.23 60.32 195.72 39.21 194.00 19.00
M 136.00 96.00 
C 144.35 89.71 149.98 85.24 158.25 83.81 C 166.53 82.38 170.74 72.17 180.75 75.40 C 190.77 78.62 185.27 93.42 176.75 94.19 C 168.22 94.96 163.27 101.94 155.70 104.71 C 148.12 107.49 134.06 110.67 136.00 96.00
M 47.00 110.00 
C 44.40 97.23 58.71 94.44 69.23 97.79 C 79.75 101.14 94.70 93.65 100.39 104.75 C 106.08 115.86 89.35 119.59 78.92 116.07 C 68.48 112.54 54.81 119.15 47.00 110.00
M 174.00 174.00 
C 190.97 172.47 187.39 196.39 184.65 207.70 C 181.91 219.01 169.48 230.03 159.08 237.13 C 148.68 244.23 131.30 244.21 118.08 240.87 C 104.86 237.53 94.78 226.55 87.81 215.75 C 80.85 204.94 79.50 189.06 95.25 188.20 C 111.00 187.34 119.43 183.05 134.25 181.81 C 149.06 180.56 159.63 175.30 174.00 174.00 Z"/>
</g>
<g fill="#000000" fill-opacity="0.97" stroke="None">
<path d="
M 376.00 159.00 
C 391.43 162.15 386.19 145.27 390.87 138.92 C 395.56 132.56 402.01 121.73 412.26 123.40 C 422.50 125.08 428.75 106.81 416.75 106.26 C 404.75 105.72 401.17 101.40 393.71 94.30 C 386.25 87.21 393.60 73.59 381.74 70.40 C 369.89 67.21 371.92 85.32 368.13 91.08 C 364.34 96.85 356.04 107.43 346.03 105.98 C 336.02 104.53 331.67 121.32 341.70 122.29 C 351.73 123.25 358.64 126.61 365.43 134.23 C 372.22 141.85 368.04 149.93 376.00 159.00
M 381.00 106.00 
C 381.20 109.75 385.19 113.85 389.00 114.00
C 386.25 116.93 383.33 120.56 380.00 123.00
C 376.87 121.55 374.09 115.16 371.00 116.00
C 373.28 112.33 377.49 108.17 381.00 106.00 Z"/>
</g>
<g fill="#000000" fill-opacity="0.96" stroke="None">
<path d="
M 136.00 96.00 
C 134.06 110.67 148.12 107.49 155.70 104.71 C 163.27 101.94 168.22 94.96 176.75 94.19 C 185.27 93.42 190.77 78.62 180.75 75.40 C 170.74 72.17 166.53 82.38 158.25 83.81 C 149.98 85.24 144.35 89.71 136.00 96.00 Z"/>
</g>
<g fill="#000000" fill-opacity="0.96" stroke="None">
<path d="
M 47.00 110.00 
C 54.81 119.15 68.48 112.54 78.92 116.07 C 89.35 119.59 106.08 115.86 100.39 104.75 C 94.70 93.65 79.75 101.14 69.23 97.79 C 58.71 94.44 44.40 97.23 47.00 110.00 Z"/>
</g>
<g fill="#000000" fill-opacity="0.08" stroke="None">
<path d="
M 381.00 106.00 
C 377.49 108.17 373.28 112.33 371.00 116.00
C 374.09 115.16 376.87 121.55 380.00 123.00
C 383.33 120.56 386.25 116.93 389.00 114.00
C 385.19 113.85 381.20 109.75 381.00 106.00 Z"/>
</g>
<g fill="#000000" fill-opacity="0.97" stroke="None">
<path d="
M 174.00 174.00 
C 159.63 175.30 149.06 180.56 134.25 181.81 C 119.43 183.05 111.00 187.34 95.25 188.20 C 79.50 189.06 80.85 204.94 87.81 215.75 C 94.78 226.55 104.86 237.53 118.08 240.87 C 131.30 244.21 148.68 244.23 159.08 237.13 C 169.48 230.03 181.91 219.01 184.65 207.70 C 187.39 196.39 190.97 172.47 174.00 174.00
M 169.00 193.00 
C 169.03 226.45 116.27 239.86 102.00 205.00
C 124.71 201.43 146.71 197.81 169.00 193.00 Z"/>
</g>
<g fill="#000000" fill-opacity="0.03" stroke="None">
<path d="
M 169.00 193.00 
C 146.71 197.81 124.71 201.43 102.00 205.00
C 116.27 239.86 169.03 226.45 169.00 193.00 Z"/>
</g>
<g fill="#000000" fill-opacity="0.97" stroke="None">
<path d="
M 367.00 512.00 
L 392.00 512.00
C 417.36 506.14 436.23 500.64 456.25 480.25 C 476.26 459.86 481.09 439.88 486.26 414.25 C 491.44 388.61 493.63 366.52 498.20 341.75 C 502.77 316.98 507.69 293.75 512.00 268.00
L 512.00 264.00
C 503.88 253.77 489.60 255.32 477.75 252.40 C 465.91 249.48 453.57 249.28 441.75 246.39 C 429.93 243.51 418.02 242.86 406.23 240.77 C 394.44 238.68 381.47 235.10 369.75 233.40 C 358.03 231.69 344.60 229.23 333.75 227.39 C 322.90 225.56 306.37 219.09 303.39 231.25 C 300.42 243.40 299.64 255.01 297.26 267.25 C 294.89 279.48 292.68 291.23 290.60 303.25 C 288.53 315.26 286.60 326.95 284.21 338.77 C 281.83 350.59 280.66 363.53 278.26 375.25 C 275.86 386.96 273.01 402.34 274.80 415.75 C 276.59 429.17 278.15 440.51 283.29 450.70 C 288.42 460.89 294.50 469.35 303.75 480.25 C 313.01 491.15 324.73 496.29 333.75 501.81 C 342.76 507.33 355.27 507.89 367.00 512.00
M 493.00 273.00 
C 489.62 296.88 483.86 320.85 480.20 344.25 C 476.54 367.65 471.48 390.92 468.65 414.70 C 465.82 438.48 452.42 459.60 433.08 476.13 C 413.75 492.66 389.43 494.89 363.75 492.80 C 338.07 490.71 321.50 471.48 306.20 452.75 C 290.90 434.02 290.40 407.92 294.80 382.75 C 299.20 357.59 302.49 337.06 306.80 312.75 C 311.11 288.44 315.59 266.06 319.00 242.00
C 376.93 253.56 434.86 263.16 493.00 273.00 Z"/>
</g>
<g fill="#000000" fill-opacity="0.01" stroke="None">
<path d="
M 493.00 273.00 
C 434.86 263.16 376.93 253.56 319.00 242.00
C 315.59 266.06 311.11 288.44 306.80 312.75 C 302.49 337.06 299.20 357.59 294.80 382.75 C 290.40 407.92 290.90 434.02 306.20 452.75 C 321.50 471.48 338.07 490.71 363.75 492.80 C 389.43 494.89 413.75 492.66 433.08 476.13 C 452.42 459.60 465.82 438.48 468.65 414.70 C 471.48 390.92 476.54 367.65 480.20 344.25 C 483.86 320.85 489.62 296.88 493.00 273.00
M 332.00 299.00 
C 339.45 297.65 345.07 304.09 351.70 305.35 C 358.33 306.61 361.28 312.72 369.25 313.80 C 377.22 314.88 379.40 330.87 369.90 331.91 C 360.40 332.94 357.08 325.53 350.23 324.42 C 343.38 323.32 339.30 317.84 332.23 316.42 C 325.16 315.01 322.97 300.64 332.00 299.00
M 461.00 321.00 
C 467.09 327.59 466.65 337.13 457.75 338.19 C 448.85 339.25 439.06 338.42 429.77 340.21 C 420.48 342.01 409.05 339.88 411.76 329.75 C 414.46 319.63 423.28 324.33 432.70 322.65 C 442.11 320.96 451.31 321.20 461.00 321.00
M 426.00 413.00 
C 433.17 423.93 430.27 433.92 422.81 444.25 C 415.35 454.59 402.38 462.03 393.25 465.26 C 384.12 468.50 365.91 466.68 357.23 462.42 C 348.55 458.17 336.14 448.12 331.29 438.70 C 326.43 429.28 325.14 416.87 326.00 403.00
C 335.54 393.58 348.08 400.80 359.08 401.93 C 370.08 403.06 380.91 406.47 392.25 407.80 C 403.59 409.13 414.83 413.03 426.00 413.00 Z"/>
</g>
<g fill="#000000" fill-opacity="0.01" stroke="None">
<path d="
M 392.00 512.00 
L 512.00 512.00
L 512.00 268.00
C 507.69 293.75 502.77 316.98 498.20 341.75 C 493.63 366.52 491.44 388.61 486.26 414.25 C 481.09 439.88 476.26 459.86 456.25 480.25 C 436.23 500.64 417.36 506.14 392.00 512.00 Z"/>
</g>
<g fill="#000000" fill-opacity="0.96" stroke="None">
<path d="
M 332.00 299.00 
C 322.97 300.64 325.16 315.01 332.23 316.42 C 339.30 317.84 343.38 323.32 350.23 324.42 C 357.08 325.53 360.40 332.94 369.90 331.91 C 379.40 330.87 377.22 314.88 369.25 313.80 C 361.28 312.72 358.33 306.61 351.70 305.35 C 345.07 304.09 339.45 297.65 332.00 299.00 Z"/>
</g>
<g fill="#000000" fill-opacity="0.96" stroke="None">
<path d="
M 461.00 321.00 
C 451.31 321.20 442.11 320.96 432.70 322.65 C 423.28 324.33 414.46 319.63 411.76 329.75 C 409.05 339.88 420.48 342.01 429.77 340.21 C 439.06 338.42 448.85 339.25 457.75 338.19 C 466.65 337.13 467.09 327.59 461.00 321.00 Z"/>
</g>
<g fill="#000000" fill-opacity="0.97" stroke="None">
<path d="
M 106.00 382.00 
C 114.87 392.31 123.49 386.15 131.30 393.70 C 139.12 401.24 141.05 407.14 142.81 417.75 C 144.57 428.35 161.63 420.68 159.61 410.75 C 157.59 400.82 169.07 393.26 175.70 390.71 C 182.33 388.17 200.49 385.60 193.57 374.77 C 186.65 363.94 178.72 374.53 170.30 365.70 C 161.88 356.87 161.08 351.25 158.59 340.75 C 156.11 330.25 139.27 337.22 141.39 347.25 C 143.52 357.28 133.28 363.24 126.77 367.42 C 120.26 371.61 103.71 368.52 106.00 382.00
M 159.00 379.00 
C 155.92 381.56 153.45 387.02 149.00 388.00
C 149.64 384.79 143.73 380.79 141.00 380.00
C 143.95 376.82 148.71 374.06 150.00 370.00
C 153.30 372.54 156.56 375.69 159.00 379.00 Z"/>
</g>
<g fill="#000000" fill-opacity="0.11" stroke="None">
<path d="
M 159.00 379.00 
C 156.56 375.69 153.30 372.54 150.00 370.00
C 148.71 374.06 143.95 376.82 141.00 380.00
C 143.73 380.79 149.64 384.79 149.00 388.00
C 153.45 387.02 155.92 381.56 159.00 379.00 Z"/>
</g>
<g fill="#000000" fill-opacity="0.97" stroke="None">
<path d="
M 426.00 413.00 
C 414.83 413.03 403.59 409.13 392.25 407.80 C 380.91 406.47 370.08 403.06 359.08 401.93 C 348.08 400.80 335.54 393.58 326.00 403.00
C 325.14 416.87 326.43 429.28 331.29 438.70 C 336.14 448.12 348.55 458.17 357.23 462.42 C 365.91 466.68 384.12 468.50 393.25 465.26 C 402.38 462.03 415.35 454.59 422.81 444.25 C 430.27 433.92 433.17 423.93 426.00 413.00
M 411.00 429.00 
C 396.64 461.89 344.75 452.16 343.00 417.00
C 366.06 421.13 387.74 425.09 411.00 429.00 Z"/>
</g>
<g fill="#000000" fill-opacity="0.03" stroke="None">
<path d="
M 411.00 429.00 
C 387.74 425.09 366.06 421.13 343.00 417.00
C 344.75 452.16 396.64 461.89 411.00 429.00 Z"/>
</g>
</svg>