<svg xmlns="http://www.w3.org/2000/svg" xmlns:v="https://svgstorm.com"
viewBox = "0 0 512 512"
width="512"
height="512">
<g fill="None" fill-opacity="0.0" stroke="#000000" stroke-opacity="0.00" stroke-width="0.3"><path d="
M 0.00 398.00 
C 5.71 373.50 29.95 380.58 56.00 380.00 C 82.05 379.42 116.21 380.44 143.00 380.00
C 134.35 412.89 123.18 446.28 116.00 480.00
C 94.43 479.49 66.98 480.69 46.00 480.00 C 25.02 479.31 5.07 485.42 0.00 467.00
L 0.00 512.00
L 152.00 512.00
C 133.48 500.78 146.93 482.13 149.92 467.92 C 152.91 453.71 157.93 439.42 161.64 424.30 C 165.35 409.18 170.88 396.43 173.00 380.00
C 228.33 380.00 283.67 380.00 339.00 380.00
C 341.69 396.54 346.31 408.99 350.19 424.25 C 354.07 439.52 359.13 454.02 362.80 468.25 C 366.47 482.48 376.73 503.17 360.00 512.00
L 512.00 512.00
L 512.00 470.00
C 504.43 484.08 485.68 479.59 465.00 480.00 C 444.32 480.41 417.26 479.69 396.00 480.00
C 388.86 445.89 377.76 412.69 369.00 380.00
C 395.22 380.59 428.49 379.22 454.00 380.00 C 479.51 380.78 503.50 373.55 512.00 395.00
L 512.00 0.00
L 478.00 0.00
C 497.05 6.02 490.28 27.17 491.00 50.00 C 491.72 72.83 490.67 100.99 491.00 125.00 C 491.33 149.01 490.85 175.46 491.00 200.00 C 491.15 224.54 490.92 250.24 491.00 275.00 C 491.08 299.76 490.94 325.18 491.00 350.00
C 481.00 350.00 471.00 350.00 461.00 350.00
C 461.00 336.67 461.00 323.33 461.00 310.00
C 447.67 310.00 434.33 310.00 421.00 310.00
C 421.00 323.33 421.00 336.67 421.00 350.00
C 411.00 350.00 401.00 350.00 391.00 350.00
C 391.00 243.33 391.00 136.67 391.00 30.00
C 371.00 30.00 351.00 30.00 331.00 30.00
C 331.00 40.33 331.00 50.67 331.00 61.00
C 338.59 65.07 346.55 73.05 345.93 82.08 C 345.32 91.12 350.86 113.53 339.70 115.71 C 328.54 117.89 305.93 115.52 293.78 115.22 C 281.62 114.92 287.25 93.85 286.93 83.93 C 286.60 74.00 291.78 65.84 301.00 61.00
C 301.00 50.67 301.00 40.33 301.00 30.00
C 271.00 30.00 241.00 30.00 211.00 30.00
C 211.00 40.33 211.00 50.67 211.00 61.00
C 218.59 65.07 226.55 73.05 225.93 82.08 C 225.32 91.12 230.86 113.53 219.70 115.71 C 208.54 117.89 185.93 115.52 173.78 115.22 C 161.62 114.92 167.25 93.85 166.93 83.93 C 166.60 74.00 171.78 65.84 181.00 61.00
C 181.00 50.67 181.00 40.33 181.00 30.00
C 161.00 30.00 141.00 30.00 121.00 30.00
C 121.00 136.67 121.00 243.33 121.00 350.00
C 111.00 350.00 101.00 350.00 91.00 350.00
C 91.00 336.67 91.00 323.33 91.00 310.00
C 77.67 310.00 64.33 310.00 51.00 310.00
C 51.00 323.33 51.00 336.67 51.00 350.00
C 41.00 350.00 31.00 350.00 21.00 350.00
C 21.06 325.18 20.92 299.76 21.00 275.00 C 21.08 250.24 20.84 224.55 21.00 200.00 C 21.16 175.45 20.66 149.03 21.00 125.00 C 21.34 100.97 20.26 72.87 21.00 50.00 C 21.74 27.13 14.88 6.13 34.00 0.00
L 0.00 0.00
L 0.00 398.00
M 361.00 245.00 
C 361.00 280.00 361.00 315.00 361.00 350.00
C 291.00 350.00 221.00 350.00 151.00 350.00
C 151.00 315.00 151.00 280.00 151.00 245.00
C 221.00 245.00 291.00 245.00 361.00 245.00 Z"/>
</g>
<g fill="None" fill-opacity="0.0" stroke="#000000" stroke-opacity="1.00" stroke-width="0.3"><path d="
M 478.00 0.00 
L 34.00 0.00
C 14.88 6.13 21.74 27.13 21.00 50.00 C 20.26 72.87 21.34 100.97 21.00 125.00 C 20.66 149.03 21.16 175.45 21.00 200.00 C 20.84 224.55 21.08 250.24 21.00 275.00 C 20.92 299.76 21.06 325.18 21.00 350.00
C 31.00 350.00 41.00 350.00 51.00 350.00
C 51.00 336.67 51.00 323.33 51.00 310.00
C 64.33 310.00 77.67 310.00 91.00 310.00
C 91.00 323.33 91.00 336.67 91.00 350.00
C 101.00 350.00 111.00 350.00 121.00 350.00
C 121.00 243.33 121.00 136.67 121.00 30.00
C 141.00 30.00 161.00 30.00 181.00 30.00
C 181.00 40.33 181.00 50.67 181.00 61.00
C 171.78 65.84 166.60 74.00 166.93 83.93 C 167.25 93.85 161.62 114.92 173.78 115.22 C 185.93 115.52 208.54 117.89 219.70 115.71 C 230.86 113.53 225.32 91.12 225.93 82.08 C 226.55 73.05 218.59 65.07 211.00 61.00
C 211.00 50.67 211.00 40.33 211.00 30.00
C 241.00 30.00 271.00 30.00 301.00 30.00
C 301.00 40.33 301.00 50.67 301.00 61.00
C 291.78 65.84 286.60 74.00 286.93 83.93 C 287.25 93.85 281.62 114.92 293.78 115.22 C 305.93 115.52 328.54 117.89 339.70 115.71 C 350.86 113.53 345.32 91.12 345.93 82.08 C 346.55 73.05 338.59 65.07 331.00 61.00
C 331.00 50.67 331.00 40.33 331.00 30.00
C 351.00 30.00 371.00 30.00 391.00 30.00
C 391.00 136.67 391.00 243.33 391.00 350.00
C 401.00 350.00 411.00 350.00 421.00 350.00
C 421.00 336.67 421.00 323.33 421.00 310.00
C 434.33 310.00 447.67 310.00 461.00 310.00
C 461.00 323.33 461.00 336.67 461.00 350.00
C 471.00 350.00 481.00 350.00 491.00 350.00
C 490.94 325.18 491.08 299.76 491.00 275.00 C 490.92 250.24 491.15 224.54 491.00 200.00 C 490.85 175.46 491.33 149.01 491.00 125.00 C 490.67 100.99 491.72 72.83 491.00 50.00 C 490.28 27.17 497.05 6.02 478.00 0.00
M 91.00 30.00 
C 91.00 43.33 91.00 56.67 91.00 70.00
C 77.67 70.00 64.33 70.00 51.00 70.00
C 51.00 56.67 51.00 43.33 51.00 30.00
C 64.33 30.00 77.67 30.00 91.00 30.00
M 461.00 30.00 
C 461.00 43.33 461.00 56.67 461.00 70.00
C 447.67 70.00 434.33 70.00 421.00 70.00
C 421.00 56.67 421.00 43.33 421.00 30.00
C 434.33 30.00 447.67 30.00 461.00 30.00
M 91.00 100.00 
C 91.00 113.33 91.00 126.67 91.00 140.00
C 77.67 140.00 64.33 140.00 51.00 140.00
C 51.00 126.67 51.00 113.33 51.00 100.00
C 64.33 100.00 77.67 100.00 91.00 100.00
M 461.00 100.00 
C 461.00 113.33 461.00 126.67 461.00 140.00
C 447.67 140.00 434.33 140.00 421.00 140.00
C 421.00 126.67 421.00 113.33 421.00 100.00
C 434.33 100.00 447.67 100.00 461.00 100.00
M 91.00 170.00 
C 91.00 183.33 91.00 196.67 91.00 210.00
C 77.67 210.00 64.33 210.00 51.00 210.00
C 51.00 196.67 51.00 183.33 51.00 170.00
C 64.33 170.00 77.67 170.00 91.00 170.00
M 461.00 170.00 
C 461.00 183.33 461.00 196.67 461.00 210.00
C 447.67 210.00 434.33 210.00 421.00 210.00
C 421.00 196.67 421.00 183.33 421.00 170.00
C 434.33 170.00 447.67 170.00 461.00 170.00
M 91.00 240.00 
C 91.00 253.33 91.00 266.67 91.00 280.00
C 77.67 280.00 64.33 280.00 51.00 280.00
C 51.00 266.67 51.00 253.33 51.00 240.00
C 64.33 240.00 77.67 240.00 91.00 240.00
M 461.00 240.00 
C 461.00 253.33 461.00 266.67 461.00 280.00
C 447.67 280.00 434.33 280.00 421.00 280.00
C 421.00 266.67 421.00 253.33 421.00 240.00
C 434.33 240.00 447.67 240.00 461.00 240.00 Z"/>
</g>
<g fill="None" fill-opacity="0.0" stroke="#000000" stroke-opacity="0.00" stroke-width="0.3"><path d="
M 91.00 30.00 
C 77.67 30.00 64.33 30.00 51.00 30.00
C 51.00 43.33 51.00 56.67 51.00 70.00
C 64.33 70.00 77.67 70.00 91.00 70.00
C 91.00 56.67 91.00 43.33 91.00 30.00 Z"/>
</g>
<g fill="None" fill-opacity="0.0" stroke="#000000" stroke-opacity="0.00" stroke-width="0.3"><path d="
M 461.00 30.00 
C 447.67 30.00 434.33 30.00 421.00 30.00
C 421.00 43.33 421.00 56.67 421.00 70.00
C 434.33 70.00 447.67 70.00 461.00 70.00
C 461.00 56.67 461.00 43.33 461.00 30.00 Z"/>
</g>
<g fill="None" fill-opacity="0.0" stroke="#000000" stroke-opacity="0.00" stroke-width="0.3"><path d="
M 91.00 100.00 
C 77.67 100.00 64.33 100.00 51.00 100.00
C 51.00 113.33 51.00 126.67 51.00 140.00
C 64.33 140.00 77.67 140.00 91.00 140.00
C 91.00 126.67 91.00 113.33 91.00 100.00 Z"/>
</g>
<g fill="None" fill-opacity="0.0" stroke="#000000" stroke-opacity="0.00" stroke-width="0.3"><path d="
M 461.00 100.00 
C 447.67 100.00 434.33 100.00 421.00 100.00
C 421.00 113.33 421.00 126.67 421.00 140.00
C 434.33 140.00 447.67 140.00 461.00 140.00
C 461.00 126.67 461.00 113.33 461.00 100.00 Z"/>
</g>
<g fill="None" fill-opacity="0.0" stroke="#000000" stroke-opacity="0.00" stroke-width="0.3"><path d="
M 91.00 170.00 
C 77.67 170.00 64.33 170.00 51.00 170.00
C 51.00 183.33 51.00 196.67 51.00 210.00
C 64.33 210.00 77.67 210.00 91.00 210.00
C 91.00 196.67 91.00 183.33 91.00 170.00 Z"/>
</g>
<g fill="None" fill-opacity="0.0" stroke="#000000" stroke-opacity="0.00" stroke-width="0.3"><path d="
M 461.00 170.00 
C 447.67 170.00 434.33 170.00 421.00 170.00
C 421.00 183.33 421.00 196.67 421.00 210.00
C 434.33 210.00 447.67 210.00 461.00 210.00
C 461.00 196.67 461.00 183.33 461.00 170.00 Z"/>
</g>
<g fill="None" fill-opacity="0.0" stroke="#000000" stroke-opacity="0.00" stroke-width="0.3"><path d="
M 91.00 240.00 
C 77.67 240.00 64.33 240.00 51.00 240.00
C 51.00 253.33 51.00 266.67 51.00 280.00
C 64.33 280.00 77.67 280.00 91.00 280.00
C 91.00 266.67 91.00 253.33 91.00 240.00 Z"/>
</g>
<g fill="None" fill-opacity="0.0" stroke="#000000" stroke-opacity="0.00" stroke-width="0.3"><path d="
M 461.00 240.00 
C 447.67 240.00 434.33 240.00 421.00 240.00
C 421.00 253.33 421.00 266.67 421.00 280.00
C 434.33 280.00 447.67 280.00 461.00 280.00
C 461.00 266.67 461.00 253.33 461.00 240.00 Z"/>
</g>
<g fill="None" fill-opacity="0.0" stroke="#000000" stroke-opacity="1.00" stroke-width="0.3"><path d="
M 361.00 245.00 
C 291.00 245.00 221.00 245.00 151.00 245.00
C 151.00 280.00 151.00 315.00 151.00 350.00
C 221.00 350.00 291.00 350.00 361.00 350.00
C 361.00 315.00 361.00 280.00 361.00 245.00 Z"/>
</g>
<g fill="None" fill-opacity="0.0" stroke="#000000" stroke-opacity="1.00" stroke-width="0.3"><path d="
M 0.00 398.00 
L 0.00 467.00
C 5.07 485.42 25.02 479.31 46.00 480.00 C 66.98 480.69 94.43 479.49 116.00 480.00
C 123.18 446.28 134.35 412.89 143.00 380.00
C 116.21 380.44 82.05 379.42 56.00 380.00 C 29.95 380.58 5.71 373.50 0.00 398.00 Z"/>
</g>
<g fill="None" fill-opacity="0.0" stroke="#000000" stroke-opacity="1.00" stroke-width="0.3"><path d="
M 152.00 512.00 
L 360.00 512.00
C 376.73 503.17 366.47 482.48 362.80 468.25 C 359.13 454.02 354.07 439.52 350.19 424.25 C 346.31 408.99 341.69 396.54 339.00 380.00
C 283.67 380.00 228.33 380.00 173.00 380.00
C 170.88 396.43 165.35 409.18 161.64 424.30 C 157.93 439.42 152.91 453.71 149.92 467.92 C 146.93 482.13 133.48 500.78 152.00 512.00 Z"/>
</g>
<g fill="None" fill-opacity="0.0" stroke="#000000" stroke-opacity="1.00" stroke-width="0.3"><path d="
M 512.00 470.00 
L 512.00 395.00
C 503.50 373.55 479.51 380.78 454.00 380.00 C 428.49 379.22 395.22 380.59 369.00 380.00
C 377.76 412.69 388.86 445.89 396.00 480.00
C 417.26 479.69 444.32 480.41 465.00 480.00 C 485.68 479.59 504.43 484.08 512.00 470.00 Z"/>
</g>
<g fill="#000000" fill-opacity="0.00" stroke="None">
<path d="
M 0.00 398.00 
C 5.71 373.50 29.95 380.58 56.00 380.00 C 82.05 379.42 116.21 380.44 143.00 380.00
C 134.35 412.89 123.18 446.28 116.00 480.00
C 94.43 479.49 66.98 480.69 46.00 480.00 C 25.02 479.31 5.07 485.42 0.00 467.00
L 0.00 512.00
L 152.00 512.00
C 133.48 500.78 146.93 482.13 149.92 467.92 C 152.91 453.71 157.93 439.42 161.64 424.30 C 165.35 409.18 170.88 396.43 173.00 380.00
C 228.33 380.00 283.67 380.00 339.00 380.00
C 341.69 396.54 346.31 408.99 350.19 424.25 C 354.07 439.52 359.13 454.02 362.80 468.25 C 366.47 482.48 376.73 503.17 360.00 512.00
L 512.00 512.00
L 512.00 470.00
C 504.43 484.08 485.68 479.59 465.00 480.00 C 444.32 480.41 417.26 479.69 396.00 480.00
C 388.86 445.89 377.76 412.69 369.00 380.00
C 395.22 380.59 428.49 379.22 454.00 380.00 C 479.51 380.78 503.50 373.55 512.00 395.00
L 512.00 0.00
L 478.00 0.00
C 497.05 6.02 490.28 27.17 491.00 50.00 C 491.72 72.83 490.67 100.99 491.00 125.00 C 491.33 149.01 490.85 175.46 491.00 200.00 C 491.15 224.54 490.92 250.24 491.00 275.00 C 491.08 299.76 490.94 325.18 491.00 350.00
C 481.00 350.00 471.00 350.00 461.00 350.00
C 461.00 336.67 461.00 323.33 461.00 310.00
C 447.67 310.00 434.33 310.00 421.00 310.00
C 421.00 323.33 421.00 336.67 421.00 350.00
C 411.00 350.00 401.00 350.00 391.00 350.00
C 391.00 243.33 391.00 136.67 391.00 30.00
C 371.00 30.00 351.00 30.00 331.00 30.00
C 331.00 40.33 331.00 50.67 331.00 61.00
C 338.59 65.07 346.55 73.05 345.93 82.08 C 345.32 91.12 350.86 113.53 339.70 115.71 C 328.54 117.89 305.93 115.52 293.78 115.22 C 281.62 114.92 287.25 93.85 286.93 83.93 C 286.60 74.00 291.78 65.84 301.00 61.00
C 301.00 50.67 301.00 40.33 301.00 30.00
C 271.00 30.00 241.00 30.00 211.00 30.00
C 211.00 40.33 211.00 50.67 211.00 61.00
C 218.59 65.07 226.55 73.05 225.93 82.08 C 225.32 91.12 230.86 113.53 219.70 115.71 C 208.54 117.89 185.93 115.52 173.78 115.22 C 161.62 114.92 167.25 93.85 166.93 83.93 C 166.60 74.00 171.78 65.84 181.00 61.00
C 181.00 50.67 181.00 40.33 181.00 30.00
C 161.00 30.00 141.00 30.00 121.00 30.00
C 121.00 136.67 121.00 243.33 121.00 350.00
C 111.00 350.00 101.00 350.00 91.00 350.00
C 91.00 336.67 91.00 323.33 91.00 310.00
C 77.67 310.00 64.33 310.00 51.00 310.00
C 51.00 323.33 51.00 336.67 51.00 350.00
C 41.00 350.00 31.00 350.00 21.00 350.00
C 21.06 325.18 20.92 299.76 21.00 275.00 C 21.08 250.24 20.84 224.55 21.00 200.00 C 21.16 175.45 20.66 149.03 21.00 125.00 C 21.34 100.97 20.26 72.87 21.00 50.00 C 21.74 27.13 14.88 6.13 34.00 0.00
L 0.00 0.00
L 0.00 398.00
M 361.00 245.00 
C 361.00 280.00 361.00 315.00 361.00 350.00
C 291.00 350.00 221.00 350.00 151.00 350.00
C 151.00 315.00 151.00 280.00 151.00 245.00
C 221.00 245.00 291.00 245.00 361.00 245.00 Z"/>
</g>
<g fill="#000000" fill-opacity="1.00" stroke="None">
<path d="
M 478.00 0.00 
L 34.00 0.00
C 14.88 6.13 21.74 27.13 21.00 50.00 C 20.26 72.87 21.34 100.97 21.00 125.00 C 20.66 149.03 21.16 175.45 21.00 200.00 C 20.84 224.55 21.08 250.24 21.00 275.00 C 20.92 299.76 21.06 325.18 21.00 350.00
C 31.00 350.00 41.00 350.00 51.00 350.00
C 51.00 336.67 51.00 323.33 51.00 310.00
C 64.33 310.00 77.67 310.00 91.00 310.00
C 91.00 323.33 91.00 336.67 91.00 350.00
C 101.00 350.00 111.00 350.00 121.00 350.00
C 121.00 243.33 121.00 136.67 121.00 30.00
C 141.00 30.00 161.00 30.00 181.00 30.00
C 181.00 40.33 181.00 50.67 181.00 61.00
C 171.78 65.84 166.60 74.00 166.93 83.93 C 167.25 93.85 161.62 114.92 173.78 115.22 C 185.93 115.52 208.54 117.89 219.70 115.71 C 230.86 113.53 225.32 91.12 225.93 82.08 C 226.55 73.05 218.59 65.07 211.00 61.00
C 211.00 50.67 211.00 40.33 211.00 30.00
C 241.00 30.00 271.00 30.00 301.00 30.00
C 301.00 40.33 301.00 50.67 301.00 61.00
C 291.78 65.84 286.60 74.00 286.93 83.93 C 287.25 93.85 281.62 114.92 293.78 115.22 C 305.93 115.52 328.54 117.89 339.70 115.71 C 350.86 113.53 345.32 91.12 345.93 82.08 C 346.55 73.05 338.59 65.07 331.00 61.00
C 331.00 50.67 331.00 40.33 331.00 30.00
C 351.00 30.00 371.00 30.00 391.00 30.00
C 391.00 136.67 391.00 243.33 391.00 350.00
C 401.00 350.00 411.00 350.00 421.00 350.00
C 421.00 336.67 421.00 323.33 421.00 310.00
C 434.33 310.00 447.67 310.00 461.00 310.00
C 461.00 323.33 461.00 336.67 461.00 350.00
C 471.00 350.00 481.00 350.00 491.00 350.00
C 490.94 325.18 491.08 299.76 491.00 275.00 C 490.92 250.24 491.15 224.54 491.00 200.00 C 490.85 175.46 491.33 149.01 491.00 125.00 C 490.67 100.99 491.72 72.83 491.00 50.00 C 490.28 27.17 497.05 6.02 478.00 0.00
M 91.00 30.00 
C 91.00 43.33 91.00 56.67 91.00 70.00
C 77.67 70.00 64.33 70.00 51.00 70.00
C 51.00 56.67 51.00 43.33 51.00 30.00
C 64.33 30.00 77.67 30.00 91.00 30.00
M 461.00 30.00 
C 461.00 43.33 461.00 56.67 461.00 70.00
C 447.67 70.00 434.33 70.00 421.00 70.00
C 421.00 56.67 421.00 43.33 421.00 30.00
C 434.33 30.00 447.67 30.00 461.00 30.00
M 91.00 100.00 
C 91.00 113.33 91.00 126.67 91.00 140.00
C 77.67 140.00 64.33 140.00 51.00 140.00
C 51.00 126.67 51.00 113.33 51.00 100.00
C 64.33 100.00 77.67 100.00 91.00 100.00
M 461.00 100.00 
C 461.00 113.33 461.00 126.67 461.00 140.00
C 447.67 140.00 434.33 140.00 421.00 140.00
C 421.00 126.67 421.00 113.33 421.00 100.00
C 434.33 100.00 447.67 100.00 461.00 100.00
M 91.00 170.00 
C 91.00 183.33 91.00 196.67 91.00 210.00
C 77.67 210.00 64.33 210.00 51.00 210.00
C 51.00 196.67 51.00 183.33 51.00 170.00
C 64.33 170.00 77.67 170.00 91.00 170.00
M 461.00 170.00 
C 461.00 183.33 461.00 196.67 461.00 210.00
C 447.67 210.00 434.33 210.00 421.00 210.00
C 421.00 196.67 421.00 183.33 421.00 170.00
C 434.33 170.00 447.67 170.00 461.00 170.00
M 91.00 240.00 
C 91.00 253.33 91.00 266.67 91.00 280.00
C 77.67 280.00 64.33 280.00 51.00 280.00
C 51.00 266.67 51.00 253.33 51.00 240.00
C 64.33 240.00 77.67 240.00 91.00 240.00
M 461.00 240.00 
C 461.00 253.33 461.00 266.67 461.00 280.00
C 447.67 280.00 434.33 280.00 421.00 280.00
C 421.00 266.67 421.00 253.33 421.00 240.00
C 434.33 240.00 447.67 240.00 461.00 240.00 Z"/>
</g>
<g fill="#000000" fill-opacity="0.00" stroke="None">
<path d="
M 91.00 30.00 
C 77.67 30.00 64.33 30.00 51.00 30.00
C 51.00 43.33 51.00 56.67 51.00 70.00
C 64.33 70.00 77.67 70.00 91.00 70.00
C 91.00 56.67 91.00 43.33 91.00 30.00 Z"/>
</g>
<g fill="#000000" fill-opacity="0.00" stroke="None">
<path d="
M 461.00 30.00 
C 447.67 30.00 434.33 30.00 421.00 30.00
C 421.00 43.33 421.00 56.67 421.00 70.00
C 434.33 70.00 447.67 70.00 461.00 70.00
C 461.00 56.67 461.00 43.33 461.00 30.00 Z"/>
</g>
<g fill="#000000" fill-opacity="0.00" stroke="None">
<path d="
M 91.00 100.00 
C 77.67 100.00 64.33 100.00 51.00 100.00
C 51.00 113.33 51.00 126.67 51.00 140.00
C 64.33 140.00 77.67 140.00 91.00 140.00
C 91.00 126.67 91.00 113.33 91.00 100.00 Z"/>
</g>
<g fill="#000000" fill-opacity="0.00" stroke="None">
<path d="
M 461.00 100.00 
C 447.67 100.00 434.33 100.00 421.00 100.00
C 421.00 113.33 421.00 126.67 421.00 140.00
C 434.33 140.00 447.67 140.00 461.00 140.00
C 461.00 126.67 461.00 113.33 461.00 100.00 Z"/>
</g>
<g fill="#000000" fill-opacity="0.00" stroke="None">
<path d="
M 91.00 170.00 
C 77.67 170.00 64.33 170.00 51.00 170.00
C 51.00 183.33 51.00 196.67 51.00 210.00
C 64.33 210.00 77.67 210.00 91.00 210.00
C 91.00 196.67 91.00 183.33 91.00 170.00 Z"/>
</g>
<g fill="#000000" fill-opacity="0.00" stroke="None">
<path d="
M 461.00 170.00 
C 447.67 170.00 434.33 170.00 421.00 170.00
C 421.00 183.33 421.00 196.67 421.00 210.00
C 434.33 210.00 447.67 210.00 461.00 210.00
C 461.00 196.67 461.00 183.33 461.00 170.00 Z"/>
</g>
<g fill="#000000" fill-opacity="0.00" stroke="None">
<path d="
M 91.00 240.00 
C 77.67 240.00 64.33 240.00 51.00 240.00
C 51.00 253.33 51.00 266.67 51.00 280.00
C 64.33 280.00 77.67 280.00 91.00 280.00
C 91.00 266.67 91.00 253.33 91.00 240.00 Z"/>
</g>
<g fill="#000000" fill-opacity="0.00" stroke="None">
<path d="
M 461.00 240.00 
C 447.67 240.00 434.33 240.00 421.00 240.00
C 421.00 253.33 421.00 266.67 421.00 280.00
C 434.33 280.00 447.67 280.00 461.00 280.00
C 461.00 266.67 461.00 253.33 461.00 240.00 Z"/>
</g>
<g fill="#000000" fill-opacity="1.00" stroke="None">
<path d="
M 361.00 245.00 
C 291.00 245.00 221.00 245.00 151.00 245.00
C 151.00 280.00 151.00 315.00 151.00 350.00
C 221.00 350.00 291.00 350.00 361.00 350.00
C 361.00 315.00 361.00 280.00 361.00 245.00 Z"/>
</g>
<g fill="#000000" fill-opacity="1.00" stroke="None">
<path d="
M 0.00 398.00 
L 0.00 467.00
C 5.07 485.42 25.02 479.31 46.00 480.00 C 66.98 480.69 94.43 479.49 116.00 480.00
C 123.18 446.28 134.35 412.89 143.00 380.00
C 116.21 380.44 82.05 379.42 56.00 380.00 C 29.95 380.58 5.71 373.50 0.00 398.00 Z"/>
</g>
<g fill="#000000" fill-opacity="1.00" stroke="None">
<path d="
M 152.00 512.00 
L 360.00 512.00
C 376.73 503.17 366.47 482.48 362.80 468.25 C 359.13 454.02 354.07 439.52 350.19 424.25 C 346.31 408.99 341.69 396.54 339.00 380.00
C 283.67 380.00 228.33 380.00 173.00 380.00
C 170.88 396.43 165.35 409.18 161.64 424.30 C 157.93 439.42 152.91 453.71 149.92 467.92 C 146.93 482.13 133.48 500.78 152.00 512.00 Z"/>
</g>
<g fill="#000000" fill-opacity="1.00" stroke="None">
<path d="
M 512.00 470.00 
L 512.00 395.00
C 503.50 373.55 479.51 380.78 454.00 380.00 C 428.49 379.22 395.22 380.59 369.00 380.00
C 377.76 412.69 388.86 445.89 396.00 480.00
C 417.26 479.69 444.32 480.41 465.00 480.00 C 485.68 479.59 504.43 484.08 512.00 470.00 Z"/>
</g>
</svg>