<svg xmlns="http://www.w3.org/2000/svg" xmlns:v="https://svgstorm.com"
viewBox = "0 0 512 512"
width="512"
height="512">
<g fill="None" fill-opacity="0.0" stroke="#000000" stroke-opacity="0.00" stroke-width="0.3"><path d="
M 0.00 320.00 
C 0.50 320.00 1.00 320.00 1.00 320.00
C 1.00 288.62 8.52 259.57 13.76 233.75 C 18.99 207.93 29.13 181.67 38.13 161.08 C 47.12 140.50 68.23 112.18 90.75 98.61 C 113.28 85.04 144.44 87.47 172.25 93.20 C 200.05 98.93 221.14 109.06 250.25 110.20 C 279.35 111.33 307.05 101.54 331.25 95.81 C 355.46 90.08 389.16 82.94 414.25 94.19 C 439.35 105.44 460.12 131.83 471.13 153.92 C 482.14 176.01 491.34 202.98 498.31 229.70 C 505.28 256.41 508.36 284.73 512.00 314.00
L 512.00 0.00
L 0.00 0.00
L 0.00 320.00 Z"/>
</g>
<g fill="None" fill-opacity="0.0" stroke="#000000" stroke-opacity="0.98" stroke-width="0.3"><path d="
M 1.00 320.00 
C 1.00 330.65 0.68 341.36 1.00 352.00
C 1.77 377.59 6.16 401.74 27.30 416.71 C 48.45 431.69 77.21 421.13 94.92 410.87 C 112.63 400.61 135.06 385.72 152.30 368.30 C 169.54 350.88 191.52 340.44 214.75 335.61 C 237.98 330.77 272.45 330.27 296.25 335.20 C 320.05 340.12 341.64 350.48 359.10 367.91 C 376.56 385.34 398.24 400.03 416.25 410.19 C 434.26 420.35 462.39 432.00 484.75 416.74 C 507.12 401.47 507.32 376.79 512.00 352.00
L 512.00 347.00
C 510.35 338.74 510.32 327.19 512.00 319.00
L 512.00 314.00
C 508.36 284.73 505.28 256.41 498.31 229.70 C 491.34 202.98 482.14 176.01 471.13 153.92 C 460.12 131.83 439.35 105.44 414.25 94.19 C 389.16 82.94 355.46 90.08 331.25 95.81 C 307.05 101.54 279.35 111.33 250.25 110.20 C 221.14 109.06 200.05 98.93 172.25 93.20 C 144.44 87.47 113.28 85.04 90.75 98.61 C 68.23 112.18 47.12 140.50 38.13 161.08 C 29.13 181.67 18.99 207.93 13.76 233.75 C 8.52 259.57 1.00 288.62 1.00 320.00
M 124.00 112.00 
C 148.05 107.90 168.59 118.15 190.08 121.93 C 211.57 125.72 227.48 132.96 251.08 133.07 C 274.69 133.17 296.02 129.08 316.25 123.80 C 336.48 118.53 355.25 113.02 378.67 112.67 C 402.10 112.32 418.62 123.05 433.39 140.75 C 448.17 158.45 452.77 170.91 460.39 189.75 C 468.02 208.59 473.84 226.54 477.80 248.25 C 481.76 269.95 485.92 284.64 487.98 310.03 C 490.03 335.41 488.90 365.96 479.87 385.92 C 470.84 405.87 443.60 401.95 427.75 391.81 C 411.89 381.67 393.11 369.50 376.10 352.90 C 359.09 336.30 343.62 326.15 324.75 319.81 C 305.89 313.46 285.92 307.65 261.98 307.02 C 238.03 306.40 214.02 311.58 195.75 316.76 C 177.49 321.93 159.48 330.20 144.70 343.71 C 129.91 357.23 108.26 375.69 93.70 384.71 C 79.13 393.74 55.81 407.44 38.70 394.30 C 21.59 381.17 23.23 350.67 23.00 326.00 C 22.77 301.32 27.97 279.03 31.20 257.75 C 34.43 236.47 41.76 217.37 47.40 198.25 C 53.04 179.14 61.34 167.28 72.09 149.08 C 82.83 130.88 103.29 115.53 124.00 112.00 Z"/>
</g>
<g fill="None" fill-opacity="0.0" stroke="#000000" stroke-opacity="0.01" stroke-width="0.3"><path d="
M 124.00 112.00 
C 103.29 115.53 82.83 130.88 72.09 149.08 C 61.34 167.28 53.04 179.14 47.40 198.25 C 41.76 217.37 34.43 236.47 31.20 257.75 C 27.97 279.03 22.77 301.32 23.00 326.00 C 23.23 350.67 21.59 381.17 38.70 394.30 C 55.81 407.44 79.13 393.74 93.70 384.71 C 108.26 375.69 129.91 357.23 144.70 343.71 C 159.48 330.20 177.49 321.93 195.75 316.76 C 214.02 311.58 238.03 306.40 261.98 307.02 C 285.92 307.65 305.89 313.46 324.75 319.81 C 343.62 326.15 359.09 336.30 376.10 352.90 C 393.11 369.50 411.89 381.67 427.75 391.81 C 443.60 401.95 470.84 405.87 479.87 385.92 C 488.90 365.96 490.03 335.41 487.98 310.03 C 485.92 284.64 481.76 269.95 477.80 248.25 C 473.84 226.54 468.02 208.59 460.39 189.75 C 452.77 170.91 448.17 158.45 433.39 140.75 C 418.62 123.05 402.10 112.32 378.67 112.67 C 355.25 113.02 336.48 118.53 316.25 123.80 C 296.02 129.08 274.69 133.17 251.08 133.07 C 227.48 132.96 211.57 125.72 190.08 121.93 C 168.59 118.15 148.05 107.90 124.00 112.00
M 174.00 186.00 
C 191.72 185.98 208.87 203.20 208.92 222.08 C 208.97 240.96 192.52 258.35 174.00 259.00
C 173.95 277.23 156.39 292.44 137.25 292.60 C 118.11 292.77 101.81 278.22 101.00 259.00
C 82.54 258.59 66.37 242.24 66.20 222.75 C 66.03 203.26 81.95 184.97 101.00 186.00
C 100.48 165.61 119.74 151.63 139.01 151.99 C 158.28 152.35 173.50 167.83 174.00 186.00
M 365.00 154.00 
C 380.96 151.64 395.06 171.69 387.65 186.70 C 380.24 201.71 356.31 203.52 347.90 189.10 C 339.49 174.67 348.65 156.42 365.00 154.00
M 316.00 200.00 
C 331.98 197.39 347.76 211.19 343.65 227.70 C 339.53 244.20 319.32 249.41 307.08 238.91 C 294.84 228.41 298.57 202.85 316.00 200.00
M 407.00 200.00 
C 422.75 197.07 439.60 213.10 433.94 229.08 C 428.27 245.07 408.38 249.28 396.75 237.25 C 385.11 225.23 390.20 203.13 407.00 200.00
M 362.00 245.00 
C 378.88 241.56 392.47 258.13 388.21 274.23 C 383.96 290.33 361.80 294.61 350.30 282.70 C 338.79 270.80 346.54 248.15 362.00 245.00 Z"/>
</g>
<g fill="None" fill-opacity="0.0" stroke="#000000" stroke-opacity="0.98" stroke-width="0.3"><path d="
M 174.00 186.00 
C 173.50 167.83 158.28 152.35 139.01 151.99 C 119.74 151.63 100.48 165.61 101.00 186.00
C 81.95 184.97 66.03 203.26 66.20 222.75 C 66.37 242.24 82.54 258.59 101.00 259.00
C 101.81 278.22 118.11 292.77 137.25 292.60 C 156.39 292.44 173.95 277.23 174.00 259.00
C 192.52 258.35 208.97 240.96 208.92 222.08 C 208.87 203.20 191.72 185.98 174.00 186.00
M 135.00 174.00 
C 148.44 172.01 151.97 185.31 151.59 198.75 C 151.21 212.19 174.24 204.85 181.30 212.71 C 188.37 220.58 185.58 238.64 169.99 235.01 C 154.40 231.37 149.99 246.89 150.60 259.75 C 151.22 272.61 126.42 272.29 125.81 261.75 C 125.20 251.20 124.20 233.21 109.99 235.01 C 95.78 236.80 87.01 229.55 90.19 216.75 C 93.38 203.95 113.43 214.26 120.90 204.90 C 128.37 195.54 119.29 176.32 135.00 174.00 Z"/>
</g>
<g fill="None" fill-opacity="0.0" stroke="#000000" stroke-opacity="0.98" stroke-width="0.3"><path d="
M 365.00 154.00 
C 348.65 156.42 339.49 174.67 347.90 189.10 C 356.31 203.52 380.24 201.71 387.65 186.70 C 395.06 171.69 380.96 151.64 365.00 154.00 Z"/>
</g>
<g fill="None" fill-opacity="0.0" stroke="#000000" stroke-opacity="0.02" stroke-width="0.3"><path d="
M 135.00 174.00 
C 119.29 176.32 128.37 195.54 120.90 204.90 C 113.43 214.26 93.38 203.95 90.19 216.75 C 87.01 229.55 95.78 236.80 109.99 235.01 C 124.20 233.21 125.20 251.20 125.81 261.75 C 126.42 272.29 151.22 272.61 150.60 259.75 C 149.99 246.89 154.40 231.37 169.99 235.01 C 185.58 238.64 188.37 220.58 181.30 212.71 C 174.24 204.85 151.21 212.19 151.59 198.75 C 151.97 185.31 148.44 172.01 135.00 174.00 Z"/>
</g>
<g fill="None" fill-opacity="0.0" stroke="#000000" stroke-opacity="0.98" stroke-width="0.3"><path d="
M 316.00 200.00 
C 298.57 202.85 294.84 228.41 307.08 238.91 C 319.32 249.41 339.53 244.20 343.65 227.70 C 347.76 211.19 331.98 197.39 316.00 200.00 Z"/>
</g>
<g fill="None" fill-opacity="0.0" stroke="#000000" stroke-opacity="0.98" stroke-width="0.3"><path d="
M 407.00 200.00 
C 390.20 203.13 385.11 225.23 396.75 237.25 C 408.38 249.28 428.27 245.07 433.94 229.08 C 439.60 213.10 422.75 197.07 407.00 200.00 Z"/>
</g>
<g fill="None" fill-opacity="0.0" stroke="#000000" stroke-opacity="0.97" stroke-width="0.3"><path d="
M 362.00 245.00 
C 346.54 248.15 338.79 270.80 350.30 282.70 C 361.80 294.61 383.96 290.33 388.21 274.23 C 392.47 258.13 378.88 241.56 362.00 245.00 Z"/>
</g>
<g fill="None" fill-opacity="0.0" stroke="#000000" stroke-opacity="0.77" stroke-width="0.3"><path d="
M 512.00 347.00 
L 512.00 319.00
C 510.32 327.19 510.35 338.74 512.00 347.00 Z"/>
</g>
<g fill="None" fill-opacity="0.0" stroke="#000000" stroke-opacity="0.72" stroke-width="0.3"><path d="
M 0.00 352.00 
C 0.50 352.00 1.00 352.00 1.00 352.00
C 0.68 341.36 1.00 330.65 1.00 320.00
C 1.00 320.00 0.50 320.00 0.00 320.00
L 0.00 352.00 Z"/>
</g>
<g fill="None" fill-opacity="0.0" stroke="#000000" stroke-opacity="0.00" stroke-width="0.3"><path d="
M 1.00 352.00 
C 1.00 352.00 0.50 352.00 0.00 352.00
L 0.00 512.00
L 512.00 512.00
L 512.00 352.00
C 507.32 376.79 507.12 401.47 484.75 416.74 C 462.39 432.00 434.26 420.35 416.25 410.19 C 398.24 400.03 376.56 385.34 359.10 367.91 C 341.64 350.48 320.05 340.12 296.25 335.20 C 272.45 330.27 237.98 330.77 214.75 335.61 C 191.52 340.44 169.54 350.88 152.30 368.30 C 135.06 385.72 112.63 400.61 94.92 410.87 C 77.21 421.13 48.45 431.69 27.30 416.71 C 6.16 401.74 1.77 377.59 1.00 352.00 Z"/>
</g>
<g fill="#000000" fill-opacity="0.00" stroke="None">
<path d="
M 0.00 320.00 
C 0.50 320.00 1.00 320.00 1.00 320.00
C 1.00 288.62 8.52 259.57 13.76 233.75 C 18.99 207.93 29.13 181.67 38.13 161.08 C 47.12 140.50 68.23 112.18 90.75 98.61 C 113.28 85.04 144.44 87.47 172.25 93.20 C 200.05 98.93 221.14 109.06 250.25 110.20 C 279.35 111.33 307.05 101.54 331.25 95.81 C 355.46 90.08 389.16 82.94 414.25 94.19 C 439.35 105.44 460.12 131.83 471.13 153.92 C 482.14 176.01 491.34 202.98 498.31 229.70 C 505.28 256.41 508.36 284.73 512.00 314.00
L 512.00 0.00
L 0.00 0.00
L 0.00 320.00 Z"/>
</g>
<g fill="#000000" fill-opacity="0.98" stroke="None">
<path d="
M 1.00 320.00 
C 1.00 330.65 0.68 341.36 1.00 352.00
C 1.77 377.59 6.16 401.74 27.30 416.71 C 48.45 431.69 77.21 421.13 94.92 410.87 C 112.63 400.61 135.06 385.72 152.30 368.30 C 169.54 350.88 191.52 340.44 214.75 335.61 C 237.98 330.77 272.45 330.27 296.25 335.20 C 320.05 340.12 341.64 350.48 359.10 367.91 C 376.56 385.34 398.24 400.03 416.25 410.19 C 434.26 420.35 462.39 432.00 484.75 416.74 C 507.12 401.47 507.32 376.79 512.00 352.00
L 512.00 347.00
C 510.35 338.74 510.32 327.19 512.00 319.00
L 512.00 314.00
C 508.36 284.73 505.28 256.41 498.31 229.70 C 491.34 202.98 482.14 176.01 471.13 153.92 C 460.12 131.83 439.35 105.44 414.25 94.19 C 389.16 82.94 355.46 90.08 331.25 95.81 C 307.05 101.54 279.35 111.33 250.25 110.20 C 221.14 109.06 200.05 98.93 172.25 93.20 C 144.44 87.47 113.28 85.04 90.75 98.61 C 68.23 112.18 47.12 140.50 38.13 161.08 C 29.13 181.67 18.99 207.93 13.76 233.75 C 8.52 259.57 1.00 288.62 1.00 320.00
M 124.00 112.00 
C 148.05 107.90 168.59 118.15 190.08 121.93 C 211.57 125.72 227.48 132.96 251.08 133.07 C 274.69 133.17 296.02 129.08 316.25 123.80 C 336.48 118.53 355.25 113.02 378.67 112.67 C 402.10 112.32 418.62 123.05 433.39 140.75 C 448.17 158.45 452.77 170.91 460.39 189.75 C 468.02 208.59 473.84 226.54 477.80 248.25 C 481.76 269.95 485.92 284.64 487.98 310.03 C 490.03 335.41 488.90 365.96 479.87 385.92 C 470.84 405.87 443.60 401.95 427.75 391.81 C 411.89 381.67 393.11 369.50 376.10 352.90 C 359.09 336.30 343.62 326.15 324.75 319.81 C 305.89 313.46 285.92 307.65 261.98 307.02 C 238.03 306.40 214.02 311.58 195.75 316.76 C 177.49 321.93 159.48 330.20 144.70 343.71 C 129.91 357.23 108.26 375.69 93.70 384.71 C 79.13 393.74 55.81 407.44 38.70 394.30 C 21.59 381.17 23.23 350.67 23.00 326.00 C 22.77 301.32 27.97 279.03 31.20 257.75 C 34.43 236.47 41.76 217.37 47.40 198.25 C 53.04 179.14 61.34 167.28 72.09 149.08 C 82.83 130.88 103.29 115.53 124.00 112.00 Z"/>
</g>
<g fill="#000000" fill-opacity="0.01" stroke="None">
<path d="
M 124.00 112.00 
C 103.29 115.53 82.83 130.88 72.09 149.08 C 61.34 167.28 53.04 179.14 47.40 198.25 C 41.76 217.37 34.43 236.47 31.20 257.75 C 27.97 279.03 22.77 301.32 23.00 326.00 C 23.23 350.67 21.59 381.17 38.70 394.30 C 55.81 407.44 79.13 393.74 93.70 384.71 C 108.26 375.69 129.91 357.23 144.70 343.71 C 159.48 330.20 177.49 321.93 195.75 316.76 C 214.02 311.58 238.03 306.40 261.98 307.02 C 285.92 307.65 305.89 313.46 324.75 319.81 C 343.62 326.15 359.09 336.30 376.10 352.90 C 393.11 369.50 411.89 381.67 427.75 391.81 C 443.60 401.95 470.84 405.87 479.87 385.92 C 488.90 365.96 490.03 335.41 487.98 310.03 C 485.92 284.64 481.76 269.95 477.80 248.25 C 473.84 226.54 468.02 208.59 460.39 189.75 C 452.77 170.91 448.17 158.45 433.39 140.75 C 418.62 123.05 402.10 112.32 378.67 112.67 C 355.25 113.02 336.48 118.53 316.25 123.80 C 296.02 129.08 274.69 133.17 251.08 133.07 C 227.48 132.96 211.57 125.72 190.08 121.93 C 168.59 118.15 148.05 107.90 124.00 112.00
M 174.00 186.00 
C 191.72 185.98 208.87 203.20 208.92 222.08 C 208.97 240.96 192.52 258.35 174.00 259.00
C 173.95 277.23 156.39 292.44 137.25 292.60 C 118.11 292.77 101.81 278.22 101.00 259.00
C 82.54 258.59 66.37 242.24 66.20 222.75 C 66.03 203.26 81.95 184.97 101.00 186.00
C 100.48 165.61 119.74 151.63 139.01 151.99 C 158.28 152.35 173.50 167.83 174.00 186.00
M 365.00 154.00 
C 380.96 151.64 395.06 171.69 387.65 186.70 C 380.24 201.71 356.31 203.52 347.90 189.10 C 339.49 174.67 348.65 156.42 365.00 154.00
M 316.00 200.00 
C 331.98 197.39 347.76 211.19 343.65 227.70 C 339.53 244.20 319.32 249.41 307.08 238.91 C 294.84 228.41 298.57 202.85 316.00 200.00
M 407.00 200.00 
C 422.75 197.07 439.60 213.10 433.94 229.08 C 428.27 245.07 408.38 249.28 396.75 237.25 C 385.11 225.23 390.20 203.13 407.00 200.00
M 362.00 245.00 
C 378.88 241.56 392.47 258.13 388.21 274.23 C 383.96 290.33 361.80 294.61 350.30 282.70 C 338.79 270.80 346.54 248.15 362.00 245.00 Z"/>
</g>
<g fill="#000000" fill-opacity="0.98" stroke="None">
<path d="
M 174.00 186.00 
C 173.50 167.83 158.28 152.35 139.01 151.99 C 119.74 151.63 100.48 165.61 101.00 186.00
C 81.95 184.97 66.03 203.26 66.20 222.75 C 66.37 242.24 82.54 258.59 101.00 259.00
C 101.81 278.22 118.11 292.77 137.25 292.60 C 156.39 292.44 173.95 277.23 174.00 259.00
C 192.52 258.35 208.97 240.96 208.92 222.08 C 208.87 203.20 191.72 185.98 174.00 186.00
M 135.00 174.00 
C 148.44 172.01 151.97 185.31 151.59 198.75 C 151.21 212.19 174.24 204.85 181.30 212.71 C 188.37 220.58 185.58 238.64 169.99 235.01 C 154.40 231.37 149.99 246.89 150.60 259.75 C 151.22 272.61 126.42 272.29 125.81 261.75 C 125.20 251.20 124.20 233.21 109.99 235.01 C 95.78 236.80 87.01 229.55 90.19 216.75 C 93.38 203.95 113.43 214.26 120.90 204.90 C 128.37 195.54 119.29 176.32 135.00 174.00 Z"/>
</g>
<g fill="#000000" fill-opacity="0.98" stroke="None">
<path d="
M 365.00 154.00 
C 348.65 156.42 339.49 174.67 347.90 189.10 C 356.31 203.52 380.24 201.71 387.65 186.70 C 395.06 171.69 380.96 151.64 365.00 154.00 Z"/>
</g>
<g fill="#000000" fill-opacity="0.02" stroke="None">
<path d="
M 135.00 174.00 
C 119.29 176.32 128.37 195.54 120.90 204.90 C 113.43 214.26 93.38 203.95 90.19 216.75 C 87.01 229.55 95.78 236.80 109.99 235.01 C 124.20 233.21 125.20 251.20 125.81 261.75 C 126.42 272.29 151.22 272.61 150.60 259.75 C 149.99 246.89 154.40 231.37 169.99 235.01 C 185.58 238.64 188.37 220.58 181.30 212.71 C 174.24 204.85 151.21 212.19 151.59 198.75 C 151.97 185.31 148.44 172.01 135.00 174.00 Z"/>
</g>
<g fill="#000000" fill-opacity="0.98" stroke="None">
<path d="
M 316.00 200.00 
C 298.57 202.85 294.84 228.41 307.08 238.91 C 319.32 249.41 339.53 244.20 343.65 227.70 C 347.76 211.19 331.98 197.39 316.00 200.00 Z"/>
</g>
<g fill="#000000" fill-opacity="0.98" stroke="None">
<path d="
M 407.00 200.00 
C 390.20 203.13 385.11 225.23 396.75 237.25 C 408.38 249.28 428.27 245.07 433.94 229.08 C 439.60 213.10 422.75 197.07 407.00 200.00 Z"/>
</g>
<g fill="#000000" fill-opacity="0.97" stroke="None">
<path d="
M 362.00 245.00 
C 346.54 248.15 338.79 270.80 350.30 282.70 C 361.80 294.61 383.96 290.33 388.21 274.23 C 392.47 258.13 378.88 241.56 362.00 245.00 Z"/>
</g>
<g fill="#000000" fill-opacity="0.77" stroke="None">
<path d="
M 512.00 347.00 
L 512.00 319.00
C 510.32 327.19 510.35 338.74 512.00 347.00 Z"/>
</g>
<g fill="#000000" fill-opacity="0.72" stroke="None">
<path d="
M 0.00 352.00 
C 0.50 352.00 1.00 352.00 1.00 352.00
C 0.68 341.36 1.00 330.65 1.00 320.00
C 1.00 320.00 0.50 320.00 0.00 320.00
L 0.00 352.00 Z"/>
</g>
<g fill="#000000" fill-opacity="0.00" stroke="None">
<path d="
M 1.00 352.00 
C 1.00 352.00 0.50 352.00 0.00 352.00
L 0.00 512.00
L 512.00 512.00
L 512.00 352.00
C 507.32 376.79 507.12 401.47 484.75 416.74 C 462.39 432.00 434.26 420.35 416.25 410.19 C 398.24 400.03 376.56 385.34 359.10 367.91 C 341.64 350.48 320.05 340.12 296.25 335.20 C 272.45 330.27 237.98 330.77 214.75 335.61 C 191.52 340.44 169.54 350.88 152.30 368.30 C 135.06 385.72 112.63 400.61 94.92 410.87 C 77.21 421.13 48.45 431.69 27.30 416.71 C 6.16 401.74 1.77 377.59 1.00 352.00 Z"/>
</g>
</svg>