<svg xmlns="http://www.w3.org/2000/svg" xmlns:v="https://svgstorm.com"
viewBox = "0 0 512 512"
width="512"
height="512">
<g fill="None" fill-opacity="0.0" stroke="#000000" stroke-opacity="0.01" stroke-width="0.3"><path d="
M 0.00 512.00 
L 202.00 512.00
C 187.95 507.68 175.44 503.63 162.70 497.29 C 149.95 490.94 131.61 477.87 130.00 463.00
C 112.83 459.54 109.47 433.74 124.00 423.00
C 90.24 402.95 63.55 365.33 48.81 337.75 C 34.07 310.16 22.88 269.36 24.00 227.00 C 25.12 184.64 35.01 155.41 49.19 125.75 C 63.37 96.08 95.57 60.05 127.00 39.00
C 128.34 43.79 132.29 46.70 134.00 51.00
C 123.07 62.59 108.57 69.83 97.00 85.00
C 114.80 89.70 132.86 97.57 154.00 101.00
C 162.69 72.46 174.00 51.85 199.00 25.00
C 199.50 24.46 199.61 23.54 200.00 23.00
C 179.62 27.97 163.78 34.79 147.00 44.00
C 145.21 38.17 142.12 36.16 140.00 30.00
C 169.27 15.34 203.69 2.06 246.00 0.00
L 0.00 0.00
L 0.00 512.00 Z"/>
</g>
<g fill="None" fill-opacity="0.0" stroke="#000000" stroke-opacity="0.97" stroke-width="0.3"><path d="
M 200.00 23.00 
C 200.77 21.94 201.32 20.60 203.00 21.00
C 203.11 23.00 201.05 25.17 199.00 25.00
C 174.00 51.85 162.69 72.46 154.00 101.00
C 132.86 97.57 114.80 89.70 97.00 85.00
C 108.57 69.83 123.07 62.59 134.00 51.00
C 132.29 46.70 128.34 43.79 127.00 39.00
C 95.57 60.05 63.37 96.08 49.19 125.75 C 35.01 155.41 25.12 184.64 24.00 227.00 C 22.88 269.36 34.07 310.16 48.81 337.75 C 63.55 365.33 90.24 402.95 124.00 423.00
C 109.47 433.74 112.83 459.54 130.00 463.00
C 131.61 477.87 149.95 490.94 162.70 497.29 C 175.44 503.63 187.95 507.68 202.00 512.00
L 311.00 512.00
C 322.99 506.84 338.34 504.02 350.25 497.81 C 362.17 491.60 380.23 476.95 382.00 463.00
C 399.18 460.00 402.65 433.76 388.00 423.00
C 397.66 417.78 405.86 411.01 415.00 402.00
C 413.48 396.97 407.79 395.76 406.00 391.00
C 395.37 399.59 387.42 406.43 377.00 413.00
C 368.79 401.81 358.19 391.66 351.00 382.00
C 370.43 340.55 379.48 295.20 380.00 240.00
C 411.33 240.00 442.67 240.00 474.00 240.00
C 469.19 298.60 452.40 337.34 416.00 381.00
C 422.96 387.13 427.54 392.87 432.70 383.70 C 437.86 374.53 440.18 376.97 445.70 367.70 C 451.22 358.42 459.01 347.26 462.39 338.25 C 465.78 329.23 467.74 330.34 469.40 323.25 C 471.05 316.17 475.27 314.31 476.71 307.70 C 478.15 301.09 479.99 296.06 481.58 290.23 C 483.16 284.40 483.50 279.96 484.40 273.25 C 485.29 266.54 487.89 262.54 487.80 254.75 C 487.71 246.97 489.92 237.21 489.00 227.00 C 488.08 216.79 488.08 214.91 486.80 203.75 C 485.53 192.60 482.25 176.93 479.20 166.75 C 476.14 156.57 476.00 157.27 473.61 149.25 C 471.21 141.23 468.95 141.46 466.42 134.23 C 463.90 127.00 459.95 120.88 456.91 116.08 C 453.88 111.28 452.27 106.85 448.81 101.75 C 445.35 96.64 440.30 91.41 436.43 86.23 C 432.55 81.06 427.86 75.09 421.75 69.25 C 415.65 63.41 409.85 58.34 404.70 53.30 C 399.55 48.26 394.79 47.05 389.25 42.61 C 383.70 38.16 380.62 36.20 374.25 32.61 C 367.87 29.02 368.32 28.30 360.23 24.42 C 352.14 20.55 338.35 14.88 329.70 11.29 C 321.05 7.70 319.50 9.49 312.23 6.42 C 304.96 3.36 300.37 5.50 293.75 3.20 C 287.13 0.90 282.29 3.08 276.00 0.00
L 246.00 0.00
C 203.69 2.06 169.27 15.34 140.00 30.00
C 142.12 36.16 145.21 38.17 147.00 44.00
C 163.78 34.79 179.62 27.97 200.00 23.00
M 249.00 15.00 
C 249.00 47.67 249.00 80.33 249.00 113.00
C 218.45 111.82 194.12 108.49 168.00 105.00
C 176.67 84.38 180.00 70.98 194.19 52.75 C 208.38 34.51 229.54 17.08 249.00 15.00
M 344.00 105.00 
C 318.43 108.55 293.33 111.58 263.00 113.00
C 264.67 80.92 264.67 47.05 263.00 15.00
C 282.58 17.31 303.83 34.44 317.70 52.30 C 331.57 70.15 335.45 84.44 344.00 105.00
M 415.00 84.00 
C 397.79 91.04 379.02 96.85 358.00 101.00
C 354.66 85.62 348.14 75.81 341.81 62.75 C 335.48 49.68 322.54 37.16 312.00 22.00
C 352.91 34.38 380.80 49.85 415.00 84.00
M 88.00 96.00 
C 105.27 104.35 125.72 110.39 148.00 115.00
C 138.59 149.57 131.47 182.56 132.00 225.00
C 100.67 225.00 69.33 225.00 38.00 225.00
C 43.10 171.98 55.40 133.60 88.00 96.00
M 426.00 96.00 
C 454.54 133.51 469.72 171.26 474.00 225.00
C 442.67 225.00 411.33 225.00 380.00 225.00
C 380.47 182.66 373.37 148.89 364.00 115.00
C 385.33 111.07 406.50 103.77 426.00 96.00
M 249.00 127.00 
C 249.00 155.00 249.00 183.00 249.00 211.00
C 242.26 212.56 234.17 216.75 231.00 225.00
C 202.67 225.00 174.33 225.00 146.00 225.00
C 147.27 184.55 153.49 153.00 162.00 118.00
C 190.77 124.27 216.58 127.19 249.00 127.00
M 350.00 118.00 
C 358.72 153.06 364.77 184.88 366.00 225.00
C 337.67 225.00 309.33 225.00 281.00 225.00
C 278.49 217.19 269.59 212.41 263.00 211.00
C 263.00 183.00 263.00 155.00 263.00 127.00
C 296.08 127.13 321.48 124.13 350.00 118.00
M 271.00 243.00 
C 262.59 238.16 250.08 238.02 241.00 243.00
C 237.74 220.05 274.15 219.77 271.00 243.00
M 132.00 240.00 
C 132.69 295.49 141.57 340.58 161.00 382.00
C 154.93 391.90 143.71 401.06 135.00 413.00
C 105.69 395.40 76.62 359.61 63.29 334.70 C 49.96 309.78 40.90 276.10 38.00 240.00
C 69.33 240.00 100.67 240.00 132.00 240.00
M 229.00 252.00 
C 213.02 265.49 215.71 307.66 226.00 322.00
C 213.86 328.72 204.39 326.50 194.08 336.13 C 183.77 345.76 176.25 356.65 171.00 368.00
C 154.73 330.65 148.55 288.69 146.00 240.00
C 154.43 239.87 162.54 240.17 171.00 240.00 C 179.46 239.83 187.42 240.33 196.00 240.00 C 204.58 239.67 212.14 240.71 221.00 240.00 C 229.86 239.29 224.59 248.24 229.00 252.00
M 366.00 240.00 
C 364.33 288.15 356.24 328.02 343.00 366.00
C 333.68 358.66 329.21 345.60 318.30 336.70 C 307.39 327.79 299.24 327.74 286.00 322.00
C 296.94 307.88 299.36 265.38 283.00 252.00
C 286.41 248.92 284.70 244.25 286.00 240.00
C 312.67 240.00 339.33 240.00 366.00 240.00
M 278.00 274.00 
C 265.18 272.53 246.82 272.53 234.00 274.00
C 233.68 248.97 277.86 248.64 278.00 274.00
M 239.00 288.00 
C 247.31 285.57 261.08 289.15 270.67 288.33 C 280.26 287.51 279.03 298.45 277.29 304.30 C 275.55 310.15 272.95 316.92 266.23 319.58 C 259.51 322.23 255.75 321.93 247.25 320.60 C 238.75 319.27 224.01 292.38 239.00 288.00
M 279.00 336.00 
C 279.84 343.87 284.58 348.90 286.00 358.00
C 277.02 361.05 268.72 366.95 255.98 366.98 C 243.23 367.00 234.98 360.93 226.00 358.00
C 227.38 348.99 232.09 344.03 233.00 336.00
C 241.53 331.95 245.52 336.52 255.03 336.98 C 264.53 337.43 270.75 331.47 279.00 336.00
M 213.00 342.00 
C 214.18 351.12 208.44 358.72 205.41 367.75 C 202.38 376.78 198.29 383.28 192.61 391.75 C 186.92 400.22 182.17 406.28 175.23 416.23 C 168.29 426.19 154.67 431.30 148.25 443.25 C 141.83 455.19 122.17 447.22 132.09 437.08 C 142.01 426.94 147.74 418.47 156.77 409.77 C 165.79 401.07 171.25 393.57 176.26 385.25 C 181.28 376.93 186.80 370.70 191.26 362.25 C 195.73 353.80 203.95 346.58 213.00 342.00
M 297.00 344.00 
C 307.11 341.95 317.09 355.83 321.59 363.75 C 326.09 371.68 333.82 381.61 338.59 389.75 C 343.35 397.90 354.67 409.79 361.75 418.25 C 368.84 426.71 389.96 439.42 380.09 448.10 C 370.23 456.78 358.36 435.70 348.77 428.23 C 339.18 420.76 330.99 407.88 325.81 399.75 C 320.64 391.61 312.33 382.32 308.42 373.23 C 304.52 364.14 301.77 353.13 297.00 344.00
M 292.00 371.00 
C 299.01 382.99 292.83 395.66 290.24 407.25 C 287.65 418.84 286.60 436.83 290.00 450.00
C 277.84 453.56 268.48 458.33 258.00 466.00
C 243.63 461.11 235.95 453.08 222.00 450.00
C 231.87 420.63 210.45 396.39 220.00 371.00
C 240.06 384.72 272.06 384.76 292.00 371.00
M 204.00 402.00 
C 208.43 413.70 210.26 428.04 209.00 443.00
C 198.82 438.60 188.63 438.77 180.00 431.00
C 192.37 421.97 195.96 409.98 204.00 402.00
M 333.00 434.00 
C 321.00 435.73 314.23 440.17 303.00 443.00
C 302.56 428.12 303.08 414.16 308.00 402.00
C 315.95 411.31 322.02 421.85 333.00 434.00
M 217.00 497.00 
C 184.83 493.96 167.70 487.53 146.00 466.00
C 149.79 460.30 157.41 456.00 162.92 448.92 C 168.43 441.84 176.51 448.91 182.90 450.12 C 189.29 451.32 195.22 454.42 201.75 456.39 C 208.28 458.36 211.78 461.89 218.75 463.39 C 225.73 464.90 227.45 471.56 223.43 477.77 C 219.40 483.98 220.21 490.01 217.00 497.00
M 366.00 463.00 
C 360.73 474.57 347.00 483.99 337.75 486.19 C 328.49 488.39 313.64 500.27 302.25 495.74 C 290.86 491.21 282.42 480.02 272.00 474.00
C 279.08 470.30 286.22 467.18 293.77 463.42 C 301.32 459.67 308.07 458.17 316.25 454.81 C 324.43 451.45 332.62 448.76 341.70 446.65 C 350.77 444.54 357.43 462.13 366.00 463.00
M 278.00 496.00 
C 263.57 498.33 247.18 496.34 232.00 497.00
C 236.70 489.37 236.12 482.16 242.00 475.00
C 254.03 481.65 264.80 489.55 278.00 496.00 Z"/>
</g>
<g fill="None" fill-opacity="0.0" stroke="#000000" stroke-opacity="0.00" stroke-width="0.3"><path d="
M 311.00 512.00 
L 512.00 512.00
L 512.00 0.00
L 276.00 0.00
C 282.29 3.08 287.13 0.90 293.75 3.20 C 300.37 5.50 304.96 3.36 312.23 6.42 C 319.50 9.49 321.05 7.70 329.70 11.29 C 338.35 14.88 352.14 20.55 360.23 24.42 C 368.32 28.30 367.87 29.02 374.25 32.61 C 380.62 36.20 383.70 38.16 389.25 42.61 C 394.79 47.05 399.55 48.26 404.70 53.30 C 409.85 58.34 415.65 63.41 421.75 69.25 C 427.86 75.09 432.55 81.06 436.43 86.23 C 440.30 91.41 445.35 96.64 448.81 101.75 C 452.27 106.85 453.88 111.28 456.91 116.08 C 459.95 120.88 463.90 127.00 466.42 134.23 C 468.95 141.46 471.21 141.23 473.61 149.25 C 476.00 157.27 476.14 156.57 479.20 166.75 C 482.25 176.93 485.53 192.60 486.80 203.75 C 488.08 214.91 488.08 216.79 489.00 227.00 C 489.92 237.21 487.71 246.97 487.80 254.75 C 487.89 262.54 485.29 266.54 484.40 273.25 C 483.50 279.96 483.16 284.40 481.58 290.23 C 479.99 296.06 478.15 301.09 476.71 307.70 C 475.27 314.31 471.05 316.17 469.40 323.25 C 467.74 330.34 465.78 329.23 462.39 338.25 C 459.01 347.26 451.22 358.42 445.70 367.70 C 440.18 376.97 437.86 374.53 432.70 383.70 C 427.54 392.87 422.96 387.13 416.00 381.00
C 452.40 337.34 469.19 298.60 474.00 240.00
C 442.67 240.00 411.33 240.00 380.00 240.00
C 379.48 295.20 370.43 340.55 351.00 382.00
C 358.19 391.66 368.79 401.81 377.00 413.00
C 387.42 406.43 395.37 399.59 406.00 391.00
C 407.79 395.76 413.48 396.97 415.00 402.00
C 405.86 411.01 397.66 417.78 388.00 423.00
C 402.65 433.76 399.18 460.00 382.00 463.00
C 380.23 476.95 362.17 491.60 350.25 497.81 C 338.34 504.02 322.99 506.84 311.00 512.00 Z"/>
</g>
<g fill="None" fill-opacity="0.0" stroke="#000000" stroke-opacity="0.02" stroke-width="0.3"><path d="
M 249.00 15.00 
C 229.54 17.08 208.38 34.51 194.19 52.75 C 180.00 70.98 176.67 84.38 168.00 105.00
C 194.12 108.49 218.45 111.82 249.00 113.00
C 249.00 80.33 249.00 47.67 249.00 15.00 Z"/>
</g>
<g fill="None" fill-opacity="0.0" stroke="#000000" stroke-opacity="0.01" stroke-width="0.3"><path d="
M 344.00 105.00 
C 335.45 84.44 331.57 70.15 317.70 52.30 C 303.83 34.44 282.58 17.31 263.00 15.00
C 264.67 47.05 264.67 80.92 263.00 113.00
C 293.33 111.58 318.43 108.55 344.00 105.00 Z"/>
</g>
<g fill="None" fill-opacity="0.0" stroke="#000000" stroke-opacity="0.58" stroke-width="0.3"><path d="
M 200.00 23.00 
C 199.61 23.54 199.50 24.46 199.00 25.00
C 201.05 25.17 203.11 23.00 203.00 21.00
C 201.32 20.60 200.77 21.94 200.00 23.00 Z"/>
</g>
<g fill="None" fill-opacity="0.0" stroke="#000000" stroke-opacity="0.02" stroke-width="0.3"><path d="
M 415.00 84.00 
C 380.80 49.85 352.91 34.38 312.00 22.00
C 322.54 37.16 335.48 49.68 341.81 62.75 C 348.14 75.81 354.66 85.62 358.00 101.00
C 379.02 96.85 397.79 91.04 415.00 84.00 Z"/>
</g>
<g fill="None" fill-opacity="0.0" stroke="#000000" stroke-opacity="0.01" stroke-width="0.3"><path d="
M 88.00 96.00 
C 55.40 133.60 43.10 171.98 38.00 225.00
C 69.33 225.00 100.67 225.00 132.00 225.00
C 131.47 182.56 138.59 149.57 148.00 115.00
C 125.72 110.39 105.27 104.35 88.00 96.00 Z"/>
</g>
<g fill="None" fill-opacity="0.0" stroke="#000000" stroke-opacity="0.01" stroke-width="0.3"><path d="
M 426.00 96.00 
C 406.50 103.77 385.33 111.07 364.00 115.00
C 373.37 148.89 380.47 182.66 380.00 225.00
C 411.33 225.00 442.67 225.00 474.00 225.00
C 469.72 171.26 454.54 133.51 426.00 96.00
M 427.00 121.00 
C 427.00 126.33 427.00 131.67 427.00 137.00
C 422.00 137.00 417.00 137.00 412.00 137.00
C 412.00 131.67 412.00 126.33 412.00 121.00
C 417.00 121.00 422.00 121.00 427.00 121.00
M 442.00 151.00 
C 442.00 156.33 442.00 161.67 442.00 167.00
C 437.00 167.00 432.00 167.00 427.00 167.00
C 427.00 161.67 427.00 156.33 427.00 151.00
C 432.00 151.00 437.00 151.00 442.00 151.00 Z"/>
</g>
<g fill="None" fill-opacity="0.0" stroke="#000000" stroke-opacity="0.01" stroke-width="0.3"><path d="
M 249.00 127.00 
C 216.58 127.19 190.77 124.27 162.00 118.00
C 153.49 153.00 147.27 184.55 146.00 225.00
C 174.33 225.00 202.67 225.00 231.00 225.00
C 234.17 216.75 242.26 212.56 249.00 211.00
C 249.00 183.00 249.00 155.00 249.00 127.00 Z"/>
</g>
<g fill="None" fill-opacity="0.0" stroke="#000000" stroke-opacity="0.01" stroke-width="0.3"><path d="
M 350.00 118.00 
C 321.48 124.13 296.08 127.13 263.00 127.00
C 263.00 155.00 263.00 183.00 263.00 211.00
C 269.59 212.41 278.49 217.19 281.00 225.00
C 309.33 225.00 337.67 225.00 366.00 225.00
C 364.77 184.88 358.72 153.06 350.00 118.00 Z"/>
</g>
<g fill="None" fill-opacity="0.0" stroke="#000000" stroke-opacity="0.93" stroke-width="0.3"><path d="
M 427.00 121.00 
C 422.00 121.00 417.00 121.00 412.00 121.00
C 412.00 126.33 412.00 131.67 412.00 137.00
C 417.00 137.00 422.00 137.00 427.00 137.00
C 427.00 131.67 427.00 126.33 427.00 121.00 Z"/>
</g>
<g fill="None" fill-opacity="0.0" stroke="#000000" stroke-opacity="0.93" stroke-width="0.3"><path d="
M 442.00 151.00 
C 437.00 151.00 432.00 151.00 427.00 151.00
C 427.00 156.33 427.00 161.67 427.00 167.00
C 432.00 167.00 437.00 167.00 442.00 167.00
C 442.00 161.67 442.00 156.33 442.00 151.00 Z"/>
</g>
<g fill="None" fill-opacity="0.0" stroke="#000000" stroke-opacity="0.05" stroke-width="0.3"><path d="
M 271.00 243.00 
C 274.15 219.77 237.74 220.05 241.00 243.00
C 250.08 238.02 262.59 238.16 271.00 243.00 Z"/>
</g>
<g fill="None" fill-opacity="0.0" stroke="#000000" stroke-opacity="0.01" stroke-width="0.3"><path d="
M 132.00 240.00 
C 100.67 240.00 69.33 240.00 38.00 240.00
C 40.90 276.10 49.96 309.78 63.29 334.70 C 76.62 359.61 105.69 395.40 135.00 413.00
C 143.71 401.06 154.93 391.90 161.00 382.00
C 141.57 340.58 132.69 295.49 132.00 240.00 Z"/>
</g>
<g fill="None" fill-opacity="0.0" stroke="#000000" stroke-opacity="0.01" stroke-width="0.3"><path d="
M 229.00 252.00 
C 224.59 248.24 229.86 239.29 221.00 240.00 C 212.14 240.71 204.58 239.67 196.00 240.00 C 187.42 240.33 179.46 239.83 171.00 240.00 C 162.54 240.17 154.43 239.87 146.00 240.00
C 148.55 288.69 154.73 330.65 171.00 368.00
C 176.25 356.65 183.77 345.76 194.08 336.13 C 204.39 326.50 213.86 328.72 226.00 322.00
C 215.71 307.66 213.02 265.49 229.00 252.00 Z"/>
</g>
<g fill="None" fill-opacity="0.0" stroke="#000000" stroke-opacity="0.01" stroke-width="0.3"><path d="
M 366.00 240.00 
C 339.33 240.00 312.67 240.00 286.00 240.00
C 284.70 244.25 286.41 248.92 283.00 252.00
C 299.36 265.38 296.94 307.88 286.00 322.00
C 299.24 327.74 307.39 327.79 318.30 336.70 C 329.21 345.60 333.68 358.66 343.00 366.00
C 356.24 328.02 364.33 288.15 366.00 240.00 Z"/>
</g>
<g fill="None" fill-opacity="0.0" stroke="#000000" stroke-opacity="0.03" stroke-width="0.3"><path d="
M 278.00 274.00 
C 277.86 248.64 233.68 248.97 234.00 274.00
C 246.82 272.53 265.18 272.53 278.00 274.00 Z"/>
</g>
<g fill="None" fill-opacity="0.0" stroke="#000000" stroke-opacity="0.03" stroke-width="0.3"><path d="
M 239.00 288.00 
C 224.01 292.38 238.75 319.27 247.25 320.60 C 255.75 321.93 259.51 322.23 266.23 319.58 C 272.95 316.92 275.55 310.15 277.29 304.30 C 279.03 298.45 280.26 287.51 270.67 288.33 C 261.08 289.15 247.31 285.57 239.00 288.00 Z"/>
</g>
<g fill="None" fill-opacity="0.0" stroke="#000000" stroke-opacity="0.03" stroke-width="0.3"><path d="
M 279.00 336.00 
C 270.75 331.47 264.53 337.43 255.03 336.98 C 245.52 336.52 241.53 331.95 233.00 336.00
C 232.09 344.03 227.38 348.99 226.00 358.00
C 234.98 360.93 243.23 367.00 255.98 366.98 C 268.72 366.95 277.02 361.05 286.00 358.00
C 284.58 348.90 279.84 343.87 279.00 336.00 Z"/>
</g>
<g fill="None" fill-opacity="0.0" stroke="#000000" stroke-opacity="0.04" stroke-width="0.3"><path d="
M 213.00 342.00 
C 203.95 346.58 195.73 353.80 191.26 362.25 C 186.80 370.70 181.28 376.93 176.26 385.25 C 171.25 393.57 165.79 401.07 156.77 409.77 C 147.74 418.47 142.01 426.94 132.09 437.08 C 122.17 447.22 141.83 455.19 148.25 443.25 C 154.67 431.30 168.29 426.19 175.23 416.23 C 182.17 406.28 186.92 400.22 192.61 391.75 C 198.29 383.28 202.38 376.78 205.41 367.75 C 208.44 358.72 214.18 351.12 213.00 342.00 Z"/>
</g>
<g fill="None" fill-opacity="0.0" stroke="#000000" stroke-opacity="0.04" stroke-width="0.3"><path d="
M 297.00 344.00 
C 301.77 353.13 304.52 364.14 308.42 373.23 C 312.33 382.32 320.64 391.61 325.81 399.75 C 330.99 407.88 339.18 420.76 348.77 428.23 C 358.36 435.70 370.23 456.78 380.09 448.10 C 389.96 439.42 368.84 426.71 361.75 418.25 C 354.67 409.79 343.35 397.90 338.59 389.75 C 333.82 381.61 326.09 371.68 321.59 363.75 C 317.09 355.83 307.11 341.95 297.00 344.00 Z"/>
</g>
<g fill="None" fill-opacity="0.0" stroke="#000000" stroke-opacity="0.02" stroke-width="0.3"><path d="
M 292.00 371.00 
C 272.06 384.76 240.06 384.72 220.00 371.00
C 210.45 396.39 231.87 420.63 222.00 450.00
C 235.95 453.08 243.63 461.11 258.00 466.00
C 268.48 458.33 277.84 453.56 290.00 450.00
C 286.60 436.83 287.65 418.84 290.24 407.25 C 292.83 395.66 299.01 382.99 292.00 371.00 Z"/>
</g>
<g fill="None" fill-opacity="0.0" stroke="#000000" stroke-opacity="0.06" stroke-width="0.3"><path d="
M 204.00 402.00 
C 195.96 409.98 192.37 421.97 180.00 431.00
C 188.63 438.77 198.82 438.60 209.00 443.00
C 210.26 428.04 208.43 413.70 204.00 402.00 Z"/>
</g>
<g fill="None" fill-opacity="0.0" stroke="#000000" stroke-opacity="0.07" stroke-width="0.3"><path d="
M 333.00 434.00 
C 322.02 421.85 315.95 411.31 308.00 402.00
C 303.08 414.16 302.56 428.12 303.00 443.00
C 314.23 440.17 321.00 435.73 333.00 434.00 Z"/>
</g>
<g fill="None" fill-opacity="0.0" stroke="#000000" stroke-opacity="0.02" stroke-width="0.3"><path d="
M 217.00 497.00 
C 220.21 490.01 219.40 483.98 223.43 477.77 C 227.45 471.56 225.73 464.90 218.75 463.39 C 211.78 461.89 208.28 458.36 201.75 456.39 C 195.22 454.42 189.29 451.32 182.90 450.12 C 176.51 448.91 168.43 441.84 162.92 448.92 C 157.41 456.00 149.79 460.30 146.00 466.00
C 167.70 487.53 184.83 493.96 217.00 497.00 Z"/>
</g>
<g fill="None" fill-opacity="0.0" stroke="#000000" stroke-opacity="0.02" stroke-width="0.3"><path d="
M 366.00 463.00 
C 357.43 462.13 350.77 444.54 341.70 446.65 C 332.62 448.76 324.43 451.45 316.25 454.81 C 308.07 458.17 301.32 459.67 293.77 463.42 C 286.22 467.18 279.08 470.30 272.00 474.00
C 282.42 480.02 290.86 491.21 302.25 495.74 C 313.64 500.27 328.49 488.39 337.75 486.19 C 347.00 483.99 360.73 474.57 366.00 463.00 Z"/>
</g>
<g fill="None" fill-opacity="0.0" stroke="#000000" stroke-opacity="0.04" stroke-width="0.3"><path d="
M 278.00 496.00 
C 264.80 489.55 254.03 481.65 242.00 475.00
C 236.12 482.16 236.70 489.37 232.00 497.00
C 247.18 496.34 263.57 498.33 278.00 496.00 Z"/>
</g>
<g fill="#000000" fill-opacity="0.01" stroke="None">
<path d="
M 0.00 512.00 
L 202.00 512.00
C 187.95 507.68 175.44 503.63 162.70 497.29 C 149.95 490.94 131.61 477.87 130.00 463.00
C 112.83 459.54 109.47 433.74 124.00 423.00
C 90.24 402.95 63.55 365.33 48.81 337.75 C 34.07 310.16 22.88 269.36 24.00 227.00 C 25.12 184.64 35.01 155.41 49.19 125.75 C 63.37 96.08 95.57 60.05 127.00 39.00
C 128.34 43.79 132.29 46.70 134.00 51.00
C 123.07 62.59 108.57 69.83 97.00 85.00
C 114.80 89.70 132.86 97.57 154.00 101.00
C 162.69 72.46 174.00 51.85 199.00 25.00
C 199.50 24.46 199.61 23.54 200.00 23.00
C 179.62 27.97 163.78 34.79 147.00 44.00
C 145.21 38.17 142.12 36.16 140.00 30.00
C 169.27 15.34 203.69 2.06 246.00 0.00
L 0.00 0.00
L 0.00 512.00 Z"/>
</g>
<g fill="#000000" fill-opacity="0.97" stroke="None">
<path d="
M 200.00 23.00 
C 200.77 21.94 201.32 20.60 203.00 21.00
C 203.11 23.00 201.05 25.17 199.00 25.00
C 174.00 51.85 162.69 72.46 154.00 101.00
C 132.86 97.57 114.80 89.70 97.00 85.00
C 108.57 69.83 123.07 62.59 134.00 51.00
C 132.29 46.70 128.34 43.79 127.00 39.00
C 95.57 60.05 63.37 96.08 49.19 125.75 C 35.01 155.41 25.12 184.64 24.00 227.00 C 22.88 269.36 34.07 310.16 48.81 337.75 C 63.55 365.33 90.24 402.95 124.00 423.00
C 109.47 433.74 112.83 459.54 130.00 463.00
C 131.61 477.87 149.95 490.94 162.70 497.29 C 175.44 503.63 187.95 507.68 202.00 512.00
L 311.00 512.00
C 322.99 506.84 338.34 504.02 350.25 497.81 C 362.17 491.60 380.23 476.95 382.00 463.00
C 399.18 460.00 402.65 433.76 388.00 423.00
C 397.66 417.78 405.86 411.01 415.00 402.00
C 413.48 396.97 407.79 395.76 406.00 391.00
C 395.37 399.59 387.42 406.43 377.00 413.00
C 368.79 401.81 358.19 391.66 351.00 382.00
C 370.43 340.55 379.48 295.20 380.00 240.00
C 411.33 240.00 442.67 240.00 474.00 240.00
C 469.19 298.60 452.40 337.34 416.00 381.00
C 422.96 387.13 427.54 392.87 432.70 383.70 C 437.86 374.53 440.18 376.97 445.70 367.70 C 451.22 358.42 459.01 347.26 462.39 338.25 C 465.78 329.23 467.74 330.34 469.40 323.25 C 471.05 316.17 475.27 314.31 476.71 307.70 C 478.15 301.09 479.99 296.06 481.58 290.23 C 483.16 284.40 483.50 279.96 484.40 273.25 C 485.29 266.54 487.89 262.54 487.80 254.75 C 487.71 246.97 489.92 237.21 489.00 227.00 C 488.08 216.79 488.08 214.91 486.80 203.75 C 485.53 192.60 482.25 176.93 479.20 166.75 C 476.14 156.57 476.00 157.27 473.61 149.25 C 471.21 141.23 468.95 141.46 466.42 134.23 C 463.90 127.00 459.95 120.88 456.91 116.08 C 453.88 111.28 452.27 106.85 448.81 101.75 C 445.35 96.64 440.30 91.41 436.43 86.23 C 432.55 81.06 427.86 75.09 421.75 69.25 C 415.65 63.41 409.85 58.34 404.70 53.30 C 399.55 48.26 394.79 47.05 389.25 42.61 C 383.70 38.16 380.62 36.20 374.25 32.61 C 367.87 29.02 368.32 28.30 360.23 24.42 C 352.14 20.55 338.35 14.88 329.70 11.29 C 321.05 7.70 319.50 9.49 312.23 6.42 C 304.96 3.36 300.37 5.50 293.75 3.20 C 287.13 0.90 282.29 3.08 276.00 0.00
L 246.00 0.00
C 203.69 2.06 169.27 15.34 140.00 30.00
C 142.12 36.16 145.21 38.17 147.00 44.00
C 163.78 34.79 179.62 27.97 200.00 23.00
M 249.00 15.00 
C 249.00 47.67 249.00 80.33 249.00 113.00
C 218.45 111.82 194.12 108.49 168.00 105.00
C 176.67 84.38 180.00 70.98 194.19 52.75 C 208.38 34.51 229.54 17.08 249.00 15.00
M 344.00 105.00 
C 318.43 108.55 293.33 111.58 263.00 113.00
C 264.67 80.92 264.67 47.05 263.00 15.00
C 282.58 17.31 303.83 34.44 317.70 52.30 C 331.57 70.15 335.45 84.44 344.00 105.00
M 415.00 84.00 
C 397.79 91.04 379.02 96.85 358.00 101.00
C 354.66 85.62 348.14 75.81 341.81 62.75 C 335.48 49.68 322.54 37.16 312.00 22.00
C 352.91 34.38 380.80 49.85 415.00 84.00
M 88.00 96.00 
C 105.27 104.35 125.72 110.39 148.00 115.00
C 138.59 149.57 131.47 182.56 132.00 225.00
C 100.67 225.00 69.33 225.00 38.00 225.00
C 43.10 171.98 55.40 133.60 88.00 96.00
M 426.00 96.00 
C 454.54 133.51 469.72 171.26 474.00 225.00
C 442.67 225.00 411.33 225.00 380.00 225.00
C 380.47 182.66 373.37 148.89 364.00 115.00
C 385.33 111.07 406.50 103.77 426.00 96.00
M 249.00 127.00 
C 249.00 155.00 249.00 183.00 249.00 211.00
C 242.26 212.56 234.17 216.75 231.00 225.00
C 202.67 225.00 174.33 225.00 146.00 225.00
C 147.27 184.55 153.49 153.00 162.00 118.00
C 190.77 124.27 216.58 127.19 249.00 127.00
M 350.00 118.00 
C 358.72 153.06 364.77 184.88 366.00 225.00
C 337.67 225.00 309.33 225.00 281.00 225.00
C 278.49 217.19 269.59 212.41 263.00 211.00
C 263.00 183.00 263.00 155.00 263.00 127.00
C 296.08 127.13 321.48 124.13 350.00 118.00
M 271.00 243.00 
C 262.59 238.16 250.08 238.02 241.00 243.00
C 237.74 220.05 274.15 219.77 271.00 243.00
M 132.00 240.00 
C 132.69 295.49 141.57 340.58 161.00 382.00
C 154.93 391.90 143.71 401.06 135.00 413.00
C 105.69 395.40 76.62 359.61 63.29 334.70 C 49.96 309.78 40.90 276.10 38.00 240.00
C 69.33 240.00 100.67 240.00 132.00 240.00
M 229.00 252.00 
C 213.02 265.49 215.71 307.66 226.00 322.00
C 213.86 328.72 204.39 326.50 194.08 336.13 C 183.77 345.76 176.25 356.65 171.00 368.00
C 154.73 330.65 148.55 288.69 146.00 240.00
C 154.43 239.87 162.54 240.17 171.00 240.00 C 179.46 239.83 187.42 240.33 196.00 240.00 C 204.58 239.67 212.14 240.71 221.00 240.00 C 229.86 239.29 224.59 248.24 229.00 252.00
M 366.00 240.00 
C 364.33 288.15 356.24 328.02 343.00 366.00
C 333.68 358.66 329.21 345.60 318.30 336.70 C 307.39 327.79 299.24 327.74 286.00 322.00
C 296.94 307.88 299.36 265.38 283.00 252.00
C 286.41 248.92 284.70 244.25 286.00 240.00
C 312.67 240.00 339.33 240.00 366.00 240.00
M 278.00 274.00 
C 265.18 272.53 246.82 272.53 234.00 274.00
C 233.68 248.97 277.86 248.64 278.00 274.00
M 239.00 288.00 
C 247.31 285.57 261.08 289.15 270.67 288.33 C 280.26 287.51 279.03 298.45 277.29 304.30 C 275.55 310.15 272.95 316.92 266.23 319.58 C 259.51 322.23 255.75 321.93 247.25 320.60 C 238.75 319.27 224.01 292.38 239.00 288.00
M 279.00 336.00 
C 279.84 343.87 284.58 348.90 286.00 358.00
C 277.02 361.05 268.72 366.95 255.98 366.98 C 243.23 367.00 234.98 360.93 226.00 358.00
C 227.38 348.99 232.09 344.03 233.00 336.00
C 241.53 331.95 245.52 336.52 255.03 336.98 C 264.53 337.43 270.75 331.47 279.00 336.00
M 213.00 342.00 
C 214.18 351.12 208.44 358.72 205.41 367.75 C 202.38 376.78 198.29 383.28 192.61 391.75 C 186.92 400.22 182.17 406.28 175.23 416.23 C 168.29 426.19 154.67 431.30 148.25 443.25 C 141.83 455.19 122.17 447.22 132.09 437.08 C 142.01 426.94 147.74 418.47 156.77 409.77 C 165.79 401.07 171.25 393.57 176.26 385.25 C 181.28 376.93 186.80 370.70 191.26 362.25 C 195.73 353.80 203.95 346.58 213.00 342.00
M 297.00 344.00 
C 307.11 341.95 317.09 355.83 321.59 363.75 C 326.09 371.68 333.82 381.61 338.59 389.75 C 343.35 397.90 354.67 409.79 361.75 418.25 C 368.84 426.71 389.96 439.42 380.09 448.10 C 370.23 456.78 358.36 435.70 348.77 428.23 C 339.18 420.76 330.99 407.88 325.81 399.75 C 320.64 391.61 312.33 382.32 308.42 373.23 C 304.52 364.14 301.77 353.13 297.00 344.00
M 292.00 371.00 
C 299.01 382.99 292.83 395.66 290.24 407.25 C 287.65 418.84 286.60 436.83 290.00 450.00
C 277.84 453.56 268.48 458.33 258.00 466.00
C 243.63 461.11 235.95 453.08 222.00 450.00
C 231.87 420.63 210.45 396.39 220.00 371.00
C 240.06 384.72 272.06 384.76 292.00 371.00
M 204.00 402.00 
C 208.43 413.70 210.26 428.04 209.00 443.00
C 198.82 438.60 188.63 438.77 180.00 431.00
C 192.37 421.97 195.96 409.98 204.00 402.00
M 333.00 434.00 
C 321.00 435.73 314.23 440.17 303.00 443.00
C 302.56 428.12 303.08 414.16 308.00 402.00
C 315.95 411.31 322.02 421.85 333.00 434.00
M 217.00 497.00 
C 184.83 493.96 167.70 487.53 146.00 466.00
C 149.79 460.30 157.41 456.00 162.92 448.92 C 168.43 441.84 176.51 448.91 182.90 450.12 C 189.29 451.32 195.22 454.42 201.75 456.39 C 208.28 458.36 211.78 461.89 218.75 463.39 C 225.73 464.90 227.45 471.56 223.43 477.77 C 219.40 483.98 220.21 490.01 217.00 497.00
M 366.00 463.00 
C 360.73 474.57 347.00 483.99 337.75 486.19 C 328.49 488.39 313.64 500.27 302.25 495.74 C 290.86 491.21 282.42 480.02 272.00 474.00
C 279.08 470.30 286.22 467.18 293.77 463.42 C 301.32 459.67 308.07 458.17 316.25 454.81 C 324.43 451.45 332.62 448.76 341.70 446.65 C 350.77 444.54 357.43 462.13 366.00 463.00
M 278.00 496.00 
C 263.57 498.33 247.18 496.34 232.00 497.00
C 236.70 489.37 236.12 482.16 242.00 475.00
C 254.03 481.65 264.80 489.55 278.00 496.00 Z"/>
</g>
<g fill="#000000" fill-opacity="0.00" stroke="None">
<path d="
M 311.00 512.00 
L 512.00 512.00
L 512.00 0.00
L 276.00 0.00
C 282.29 3.08 287.13 0.90 293.75 3.20 C 300.37 5.50 304.96 3.36 312.23 6.42 C 319.50 9.49 321.05 7.70 329.70 11.29 C 338.35 14.88 352.14 20.55 360.23 24.42 C 368.32 28.30 367.87 29.02 374.25 32.61 C 380.62 36.20 383.70 38.16 389.25 42.61 C 394.79 47.05 399.55 48.26 404.70 53.30 C 409.85 58.34 415.65 63.41 421.75 69.25 C 427.86 75.09 432.55 81.06 436.43 86.23 C 440.30 91.41 445.35 96.64 448.81 101.75 C 452.27 106.85 453.88 111.28 456.91 116.08 C 459.95 120.88 463.90 127.00 466.42 134.23 C 468.95 141.46 471.21 141.23 473.61 149.25 C 476.00 157.27 476.14 156.57 479.20 166.75 C 482.25 176.93 485.53 192.60 486.80 203.75 C 488.08 214.91 488.08 216.79 489.00 227.00 C 489.92 237.21 487.71 246.97 487.80 254.75 C 487.89 262.54 485.29 266.54 484.40 273.25 C 483.50 279.96 483.16 284.40 481.58 290.23 C 479.99 296.06 478.15 301.09 476.71 307.70 C 475.27 314.31 471.05 316.17 469.40 323.25 C 467.74 330.34 465.78 329.23 462.39 338.25 C 459.01 347.26 451.22 358.42 445.70 367.70 C 440.18 376.97 437.86 374.53 432.70 383.70 C 427.54 392.87 422.96 387.13 416.00 381.00
C 452.40 337.34 469.19 298.60 474.00 240.00
C 442.67 240.00 411.33 240.00 380.00 240.00
C 379.48 295.20 370.43 340.55 351.00 382.00
C 358.19 391.66 368.79 401.81 377.00 413.00
C 387.42 406.43 395.37 399.59 406.00 391.00
C 407.79 395.76 413.48 396.97 415.00 402.00
C 405.86 411.01 397.66 417.78 388.00 423.00
C 402.65 433.76 399.18 460.00 382.00 463.00
C 380.23 476.95 362.17 491.60 350.25 497.81 C 338.34 504.02 322.99 506.84 311.00 512.00 Z"/>
</g>
<g fill="#000000" fill-opacity="0.02" stroke="None">
<path d="
M 249.00 15.00 
C 229.54 17.08 208.38 34.51 194.19 52.75 C 180.00 70.98 176.67 84.38 168.00 105.00
C 194.12 108.49 218.45 111.82 249.00 113.00
C 249.00 80.33 249.00 47.67 249.00 15.00 Z"/>
</g>
<g fill="#000000" fill-opacity="0.01" stroke="None">
<path d="
M 344.00 105.00 
C 335.45 84.44 331.57 70.15 317.70 52.30 C 303.83 34.44 282.58 17.31 263.00 15.00
C 264.67 47.05 264.67 80.92 263.00 113.00
C 293.33 111.58 318.43 108.55 344.00 105.00 Z"/>
</g>
<g fill="#000000" fill-opacity="0.58" stroke="None">
<path d="
M 200.00 23.00 
C 199.61 23.54 199.50 24.46 199.00 25.00
C 201.05 25.17 203.11 23.00 203.00 21.00
C 201.32 20.60 200.77 21.94 200.00 23.00 Z"/>
</g>
<g fill="#000000" fill-opacity="0.02" stroke="None">
<path d="
M 415.00 84.00 
C 380.80 49.85 352.91 34.38 312.00 22.00
C 322.54 37.16 335.48 49.68 341.81 62.75 C 348.14 75.81 354.66 85.62 358.00 101.00
C 379.02 96.85 397.79 91.04 415.00 84.00 Z"/>
</g>
<g fill="#000000" fill-opacity="0.01" stroke="None">
<path d="
M 88.00 96.00 
C 55.40 133.60 43.10 171.98 38.00 225.00
C 69.33 225.00 100.67 225.00 132.00 225.00
C 131.47 182.56 138.59 149.57 148.00 115.00
C 125.72 110.39 105.27 104.35 88.00 96.00 Z"/>
</g>
<g fill="#000000" fill-opacity="0.01" stroke="None">
<path d="
M 426.00 96.00 
C 406.50 103.77 385.33 111.07 364.00 115.00
C 373.37 148.89 380.47 182.66 380.00 225.00
C 411.33 225.00 442.67 225.00 474.00 225.00
C 469.72 171.26 454.54 133.51 426.00 96.00
M 427.00 121.00 
C 427.00 126.33 427.00 131.67 427.00 137.00
C 422.00 137.00 417.00 137.00 412.00 137.00
C 412.00 131.67 412.00 126.33 412.00 121.00
C 417.00 121.00 422.00 121.00 427.00 121.00
M 442.00 151.00 
C 442.00 156.33 442.00 161.67 442.00 167.00
C 437.00 167.00 432.00 167.00 427.00 167.00
C 427.00 161.67 427.00 156.33 427.00 151.00
C 432.00 151.00 437.00 151.00 442.00 151.00 Z"/>
</g>
<g fill="#000000" fill-opacity="0.01" stroke="None">
<path d="
M 249.00 127.00 
C 216.58 127.19 190.77 124.27 162.00 118.00
C 153.49 153.00 147.27 184.55 146.00 225.00
C 174.33 225.00 202.67 225.00 231.00 225.00
C 234.17 216.75 242.26 212.56 249.00 211.00
C 249.00 183.00 249.00 155.00 249.00 127.00 Z"/>
</g>
<g fill="#000000" fill-opacity="0.01" stroke="None">
<path d="
M 350.00 118.00 
C 321.48 124.13 296.08 127.13 263.00 127.00
C 263.00 155.00 263.00 183.00 263.00 211.00
C 269.59 212.41 278.49 217.19 281.00 225.00
C 309.33 225.00 337.67 225.00 366.00 225.00
C 364.77 184.88 358.72 153.06 350.00 118.00 Z"/>
</g>
<g fill="#000000" fill-opacity="0.93" stroke="None">
<path d="
M 427.00 121.00 
C 422.00 121.00 417.00 121.00 412.00 121.00
C 412.00 126.33 412.00 131.67 412.00 137.00
C 417.00 137.00 422.00 137.00 427.00 137.00
C 427.00 131.67 427.00 126.33 427.00 121.00 Z"/>
</g>
<g fill="#000000" fill-opacity="0.93" stroke="None">
<path d="
M 442.00 151.00 
C 437.00 151.00 432.00 151.00 427.00 151.00
C 427.00 156.33 427.00 161.67 427.00 167.00
C 432.00 167.00 437.00 167.00 442.00 167.00
C 442.00 161.67 442.00 156.33 442.00 151.00 Z"/>
</g>
<g fill="#000000" fill-opacity="0.05" stroke="None">
<path d="
M 271.00 243.00 
C 274.15 219.77 237.74 220.05 241.00 243.00
C 250.08 238.02 262.59 238.16 271.00 243.00 Z"/>
</g>
<g fill="#000000" fill-opacity="0.01" stroke="None">
<path d="
M 132.00 240.00 
C 100.67 240.00 69.33 240.00 38.00 240.00
C 40.90 276.10 49.96 309.78 63.29 334.70 C 76.62 359.61 105.69 395.40 135.00 413.00
C 143.71 401.06 154.93 391.90 161.00 382.00
C 141.57 340.58 132.69 295.49 132.00 240.00 Z"/>
</g>
<g fill="#000000" fill-opacity="0.01" stroke="None">
<path d="
M 229.00 252.00 
C 224.59 248.24 229.86 239.29 221.00 240.00 C 212.14 240.71 204.58 239.67 196.00 240.00 C 187.42 240.33 179.46 239.83 171.00 240.00 C 162.54 240.17 154.43 239.87 146.00 240.00
C 148.55 288.69 154.73 330.65 171.00 368.00
C 176.25 356.65 183.77 345.76 194.08 336.13 C 204.39 326.50 213.86 328.72 226.00 322.00
C 215.71 307.66 213.02 265.49 229.00 252.00 Z"/>
</g>
<g fill="#000000" fill-opacity="0.01" stroke="None">
<path d="
M 366.00 240.00 
C 339.33 240.00 312.67 240.00 286.00 240.00
C 284.70 244.25 286.41 248.92 283.00 252.00
C 299.36 265.38 296.94 307.88 286.00 322.00
C 299.24 327.74 307.39 327.79 318.30 336.70 C 329.21 345.60 333.68 358.66 343.00 366.00
C 356.24 328.02 364.33 288.15 366.00 240.00 Z"/>
</g>
<g fill="#000000" fill-opacity="0.03" stroke="None">
<path d="
M 278.00 274.00 
C 277.86 248.64 233.68 248.97 234.00 274.00
C 246.82 272.53 265.18 272.53 278.00 274.00 Z"/>
</g>
<g fill="#000000" fill-opacity="0.03" stroke="None">
<path d="
M 239.00 288.00 
C 224.01 292.38 238.75 319.27 247.25 320.60 C 255.75 321.93 259.51 322.23 266.23 319.58 C 272.95 316.92 275.55 310.15 277.29 304.30 C 279.03 298.45 280.26 287.51 270.67 288.33 C 261.08 289.15 247.31 285.57 239.00 288.00 Z"/>
</g>
<g fill="#000000" fill-opacity="0.03" stroke="None">
<path d="
M 279.00 336.00 
C 270.75 331.47 264.53 337.43 255.03 336.98 C 245.52 336.52 241.53 331.95 233.00 336.00
C 232.09 344.03 227.38 348.99 226.00 358.00
C 234.98 360.93 243.23 367.00 255.98 366.98 C 268.72 366.95 277.02 361.05 286.00 358.00
C 284.58 348.90 279.84 343.87 279.00 336.00 Z"/>
</g>
<g fill="#000000" fill-opacity="0.04" stroke="None">
<path d="
M 213.00 342.00 
C 203.95 346.58 195.73 353.80 191.26 362.25 C 186.80 370.70 181.28 376.93 176.26 385.25 C 171.25 393.57 165.79 401.07 156.77 409.77 C 147.74 418.47 142.01 426.94 132.09 437.08 C 122.17 447.22 141.83 455.19 148.25 443.25 C 154.67 431.30 168.29 426.19 175.23 416.23 C 182.17 406.28 186.92 400.22 192.61 391.75 C 198.29 383.28 202.38 376.78 205.41 367.75 C 208.44 358.72 214.18 351.12 213.00 342.00 Z"/>
</g>
<g fill="#000000" fill-opacity="0.04" stroke="None">
<path d="
M 297.00 344.00 
C 301.77 353.13 304.52 364.14 308.42 373.23 C 312.33 382.32 320.64 391.61 325.81 399.75 C 330.99 407.88 339.18 420.76 348.77 428.23 C 358.36 435.70 370.23 456.78 380.09 448.10 C 389.96 439.42 368.84 426.71 361.75 418.25 C 354.67 409.79 343.35 397.90 338.59 389.75 C 333.82 381.61 326.09 371.68 321.59 363.75 C 317.09 355.83 307.11 341.95 297.00 344.00 Z"/>
</g>
<g fill="#000000" fill-opacity="0.02" stroke="None">
<path d="
M 292.00 371.00 
C 272.06 384.76 240.06 384.72 220.00 371.00
C 210.45 396.39 231.87 420.63 222.00 450.00
C 235.95 453.08 243.63 461.11 258.00 466.00
C 268.48 458.33 277.84 453.56 290.00 450.00
C 286.60 436.83 287.65 418.84 290.24 407.25 C 292.83 395.66 299.01 382.99 292.00 371.00 Z"/>
</g>
<g fill="#000000" fill-opacity="0.06" stroke="None">
<path d="
M 204.00 402.00 
C 195.96 409.98 192.37 421.97 180.00 431.00
C 188.63 438.77 198.82 438.60 209.00 443.00
C 210.26 428.04 208.43 413.70 204.00 402.00 Z"/>
</g>
<g fill="#000000" fill-opacity="0.07" stroke="None">
<path d="
M 333.00 434.00 
C 322.02 421.85 315.95 411.31 308.00 402.00
C 303.08 414.16 302.56 428.12 303.00 443.00
C 314.23 440.17 321.00 435.73 333.00 434.00 Z"/>
</g>
<g fill="#000000" fill-opacity="0.02" stroke="None">
<path d="
M 217.00 497.00 
C 220.21 490.01 219.40 483.98 223.43 477.77 C 227.45 471.56 225.73 464.90 218.75 463.39 C 211.78 461.89 208.28 458.36 201.75 456.39 C 195.22 454.42 189.29 451.32 182.90 450.12 C 176.51 448.91 168.43 441.84 162.92 448.92 C 157.41 456.00 149.79 460.30 146.00 466.00
C 167.70 487.53 184.83 493.96 217.00 497.00 Z"/>
</g>
<g fill="#000000" fill-opacity="0.02" stroke="None">
<path d="
M 366.00 463.00 
C 357.43 462.13 350.77 444.54 341.70 446.65 C 332.62 448.76 324.43 451.45 316.25 454.81 C 308.07 458.17 301.32 459.67 293.77 463.42 C 286.22 467.18 279.08 470.30 272.00 474.00
C 282.42 480.02 290.86 491.21 302.25 495.74 C 313.64 500.27 328.49 488.39 337.75 486.19 C 347.00 483.99 360.73 474.57 366.00 463.00 Z"/>
</g>
<g fill="#000000" fill-opacity="0.04" stroke="None">
<path d="
M 278.00 496.00 
C 264.80 489.55 254.03 481.65 242.00 475.00
C 236.12 482.16 236.70 489.37 232.00 497.00
C 247.18 496.34 263.57 498.33 278.00 496.00 Z"/>
</g>
</svg>