<svg xmlns="http://www.w3.org/2000/svg" xmlns:v="https://svgstorm.com"
viewBox = "0 0 512 512"
width="512"
height="512">
<g fill="None" fill-opacity="0.0" stroke="#000000" stroke-opacity="0.00" stroke-width="0.3"><path d="
M 0.00 289.00 
C 6.71 280.64 17.39 279.91 26.30 276.29 C 35.20 272.67 44.67 272.06 53.70 268.65 C 62.72 265.24 71.86 261.74 82.00 260.00
C 82.90 245.93 86.58 233.29 88.00 219.00
C 78.34 213.03 76.79 189.30 92.30 186.29 C 107.82 183.27 135.86 185.16 156.00 185.00 C 176.14 184.84 206.70 184.34 227.00 185.00 C 247.30 185.66 268.36 185.01 278.77 178.42 C 289.18 171.84 300.34 170.80 310.08 165.94 C 319.83 161.07 335.54 149.44 338.00 168.00
C 327.18 176.41 317.85 177.07 307.25 182.39 C 296.64 187.72 289.17 189.76 278.23 195.58 C 267.29 201.39 241.24 200.26 224.00 200.00
C 221.40 216.91 242.73 208.05 254.00 210.00 C 265.27 211.95 276.39 208.08 283.25 205.81 C 290.11 203.54 296.83 200.70 303.77 198.43 C 310.70 196.15 316.98 193.93 326.00 193.00
C 333.46 204.27 339.79 214.14 346.13 224.92 C 352.47 235.70 360.89 245.75 365.00 257.00
C 380.08 257.75 397.67 255.61 413.00 258.00
C 409.08 244.22 407.05 232.37 404.80 218.75 C 402.55 205.14 396.95 194.77 395.74 180.25 C 394.52 165.73 413.98 163.05 422.92 155.87 C 431.86 148.69 447.52 146.01 455.39 134.25 C 463.27 122.48 471.97 109.31 479.00 96.00
C 474.69 94.48 472.39 91.13 468.00 89.00
C 459.47 100.69 452.90 109.84 444.81 120.25 C 436.72 130.67 424.07 131.87 414.75 136.19 C 405.43 140.52 395.84 145.82 386.08 149.13 C 376.32 152.44 365.65 162.42 355.00 155.00
C 355.54 152.61 355.53 149.45 355.00 147.00
C 366.64 140.27 377.19 136.64 388.77 131.43 C 400.35 126.22 409.88 122.52 422.08 117.94 C 434.28 113.36 441.34 98.04 450.71 87.70 C 460.09 77.36 468.22 62.99 478.26 51.26 C 488.29 39.52 508.55 47.61 512.00 60.00
L 512.00 0.00
L 0.00 0.00
L 0.00 289.00
M 316.00 88.00 
C 338.70 83.37 359.47 107.30 352.65 129.70 C 345.83 152.09 316.25 159.15 299.25 140.75 C 282.24 122.36 292.96 92.70 316.00 88.00
M 110.00 114.00 
C 141.85 104.39 162.79 140.18 145.29 163.30 C 127.79 186.42 86.44 173.38 89.00 143.00
C 70.36 144.53 57.64 122.41 68.19 106.75 C 78.73 91.09 107.71 94.11 110.00 114.00 Z"/>
</g>
<g fill="None" fill-opacity="0.0" stroke="#000000" stroke-opacity="0.96" stroke-width="0.3"><path d="
M 0.00 289.00 
L 0.00 292.00
C 5.10 300.50 16.12 301.06 20.71 310.30 C 25.31 319.55 32.02 327.65 42.25 328.80 C 52.47 329.95 65.96 329.71 72.92 337.13 C 79.87 344.55 89.85 348.43 102.00 346.00
C 116.03 363.73 129.08 378.93 143.00 396.00
C 134.84 404.65 125.79 413.61 118.30 423.30 C 110.81 432.98 124.25 442.73 125.00 452.00
C 109.38 452.15 113.57 434.95 105.00 429.00
C 109.73 422.17 112.08 412.38 119.13 407.08 C 126.17 401.78 128.66 385.56 117.77 387.79 C 106.88 390.01 106.02 401.73 99.76 407.77 C 93.51 413.81 88.94 422.13 90.20 431.25 C 91.46 440.37 98.44 443.04 100.58 451.77 C 102.71 460.50 107.79 466.61 122.00 467.00 C 136.21 467.39 147.31 464.35 142.20 452.75 C 137.09 441.15 136.94 441.68 132.00 430.00
C 138.91 424.61 144.58 415.14 152.00 408.00
C 161.28 415.61 169.77 430.59 179.25 438.75 C 188.73 446.92 192.89 466.44 209.00 467.00 C 225.12 467.55 258.18 473.33 257.00 455.00
C 254.36 454.49 253.09 451.59 251.00 450.00
C 257.89 441.61 263.45 432.34 270.30 423.30 C 277.15 414.25 282.50 406.27 290.23 397.23 C 297.97 388.19 299.78 378.82 309.13 370.08 C 318.48 361.35 306.16 347.95 298.87 358.92 C 291.59 369.89 285.91 375.60 279.29 385.30 C 272.67 395.01 266.05 403.60 259.41 412.75 C 252.78 421.90 246.12 430.56 241.00 440.00
C 234.65 440.83 231.86 435.61 227.00 432.00
C 232.14 425.78 234.85 419.14 238.80 412.75 C 242.75 406.36 247.27 400.55 251.09 394.08 C 254.90 387.62 258.24 381.45 262.58 375.23 C 266.91 369.01 269.61 362.11 273.80 355.75 C 277.99 349.39 281.81 343.45 286.13 337.08 C 290.44 330.71 298.41 326.56 305.25 321.20 C 312.08 315.84 318.35 308.67 325.92 303.91 C 333.48 299.15 338.11 291.96 346.30 287.30 C 354.49 282.64 357.80 273.20 370.00 272.00 C 382.20 270.80 403.02 272.90 416.00 272.00
C 421.76 285.13 410.36 297.59 398.25 308.25 C 386.14 318.90 375.89 332.95 363.00 342.00
C 365.41 358.82 374.56 369.20 380.58 382.77 C 386.59 396.34 393.30 407.85 400.00 422.00
C 393.17 422.71 388.14 424.46 382.00 426.00
C 377.96 416.10 372.91 409.88 368.87 401.08 C 364.83 392.28 358.43 384.11 354.43 375.23 C 350.42 366.36 344.83 360.78 342.40 350.25 C 339.96 339.72 350.49 330.98 355.57 323.23 C 360.65 315.48 367.65 305.65 373.00 299.00
C 370.05 281.22 355.89 294.81 351.41 302.75 C 346.94 310.70 338.61 320.74 333.43 327.77 C 328.24 334.79 324.86 348.06 328.06 358.08 C 331.27 368.10 338.32 373.58 342.13 382.92 C 345.94 392.26 351.24 398.80 355.58 407.77 C 359.91 416.74 365.22 424.10 369.00 434.00
C 361.04 440.87 351.84 450.69 346.00 457.00
C 349.16 473.30 369.93 464.97 385.00 467.00 C 400.07 469.03 420.56 468.79 418.00 452.00 C 415.44 435.21 420.18 422.47 413.61 414.25 C 407.04 406.03 407.40 400.56 402.81 392.75 C 398.22 384.93 395.49 378.69 391.42 371.23 C 387.36 363.77 385.45 356.32 380.00 350.00
C 385.56 339.15 397.88 330.69 406.75 320.75 C 415.62 310.81 427.66 302.11 430.71 292.70 C 433.76 283.29 430.94 269.78 428.80 259.75 C 426.66 249.72 423.66 240.05 421.24 229.75 C 418.82 219.45 418.92 210.88 415.81 200.75 C 412.69 190.63 409.45 178.59 419.75 175.61 C 430.06 172.62 434.34 164.87 443.30 161.29 C 452.26 157.71 460.84 152.45 467.39 143.25 C 473.94 134.04 478.39 127.37 483.71 118.70 C 489.03 110.03 492.15 102.81 497.39 94.25 C 502.64 85.68 508.53 78.63 512.00 68.00
L 512.00 60.00
C 508.55 47.61 488.29 39.52 478.26 51.26 C 468.22 62.99 460.09 77.36 450.71 87.70 C 441.34 98.04 434.28 113.36 422.08 117.94 C 409.88 122.52 400.35 126.22 388.77 131.43 C 377.19 136.64 366.64 140.27 355.00 147.00
C 355.53 149.45 355.54 152.61 355.00 155.00
C 365.65 162.42 376.32 152.44 386.08 149.13 C 395.84 145.82 405.43 140.52 414.75 136.19 C 424.07 131.87 436.72 130.67 444.81 120.25 C 452.90 109.84 459.47 100.69 468.00 89.00
C 472.39 91.13 474.69 94.48 479.00 96.00
C 471.97 109.31 463.27 122.48 455.39 134.25 C 447.52 146.01 431.86 148.69 422.92 155.87 C 413.98 163.05 394.52 165.73 395.74 180.25 C 396.95 194.77 402.55 205.14 404.80 218.75 C 407.05 232.37 409.08 244.22 413.00 258.00
C 397.67 255.61 380.08 257.75 365.00 257.00
C 360.89 245.75 352.47 235.70 346.13 224.92 C 339.79 214.14 333.46 204.27 326.00 193.00
C 316.98 193.93 310.70 196.15 303.77 198.43 C 296.83 200.70 290.11 203.54 283.25 205.81 C 276.39 208.08 265.27 211.95 254.00 210.00 C 242.73 208.05 221.40 216.91 224.00 200.00
C 241.24 200.26 267.29 201.39 278.23 195.58 C 289.17 189.76 296.64 187.72 307.25 182.39 C 317.85 177.07 327.18 176.41 338.00 168.00
C 335.54 149.44 319.83 161.07 310.08 165.94 C 300.34 170.80 289.18 171.84 278.77 178.42 C 268.36 185.01 247.30 185.66 227.00 185.00 C 206.70 184.34 176.14 184.84 156.00 185.00 C 135.86 185.16 107.82 183.27 92.30 186.29 C 76.79 189.30 78.34 213.03 88.00 219.00
C 86.58 233.29 82.90 245.93 82.00 260.00
C 71.86 261.74 62.72 265.24 53.70 268.65 C 44.67 272.06 35.20 272.67 26.30 276.29 C 17.39 279.91 6.71 280.64 0.00 289.00
M 496.00 61.00 
C 498.51 71.09 489.42 75.01 487.00 84.00
C 484.09 81.78 481.86 79.85 478.00 78.00
C 482.88 71.68 486.64 60.37 496.00 61.00
M 210.00 200.00 
C 210.00 203.33 210.00 206.67 210.00 210.00
C 196.00 209.95 179.78 210.07 166.00 210.00 C 152.22 209.93 134.97 210.14 122.00 210.00 C 109.03 209.86 93.42 212.96 96.00 201.00
C 132.80 198.68 172.20 200.66 210.00 200.00
M 319.00 209.00 
C 329.28 228.03 342.31 244.46 352.00 264.00
C 330.93 279.45 312.59 297.23 292.10 312.10 C 271.61 326.96 262.05 346.33 250.25 365.25 C 238.46 384.18 229.23 401.17 217.00 421.00
C 197.05 395.19 179.25 368.97 159.00 343.00
C 167.17 338.83 173.62 330.04 183.70 330.35 C 193.78 330.67 206.75 328.76 211.77 321.77 C 216.79 314.78 228.62 305.94 223.81 297.75 C 219.00 289.55 207.31 291.60 201.25 286.61 C 195.18 281.61 185.70 280.96 179.25 276.61 C 172.79 272.25 159.79 269.44 161.00 283.00
C 176.16 293.63 191.02 295.83 206.00 306.00
C 199.76 320.40 179.05 311.44 168.75 318.19 C 158.44 324.94 148.28 337.22 133.75 328.24 C 119.22 319.26 105.83 334.69 92.26 331.40 C 78.69 328.11 74.69 313.04 57.92 315.93 C 41.15 318.83 33.04 303.17 26.00 292.00
C 37.06 289.40 41.96 288.15 51.25 284.81 C 60.55 281.47 67.61 280.39 76.75 276.41 C 85.89 272.43 97.77 273.35 112.00 273.00 C 126.23 272.65 140.60 277.19 145.58 264.23 C 150.56 251.27 159.99 238.52 164.00 225.00
C 183.31 225.26 209.50 224.62 229.00 225.00 C 248.50 225.38 271.59 226.13 285.25 220.24 C 298.90 214.36 305.96 215.81 319.00 209.00
M 149.00 224.00 
C 141.97 236.50 137.42 245.42 132.00 258.00
C 120.33 258.00 108.67 258.00 97.00 258.00
C 98.41 246.23 101.50 235.72 102.00 224.00
C 117.67 224.00 133.33 224.00 149.00 224.00
M 144.00 346.00 
C 156.81 364.13 168.52 382.82 182.19 400.25 C 195.87 417.68 207.90 439.91 227.00 450.00
C 216.02 457.50 205.38 449.18 200.74 441.25 C 196.09 433.32 188.68 428.98 183.30 421.70 C 177.92 414.41 173.27 408.46 167.81 401.75 C 162.35 395.03 156.38 388.49 151.24 381.75 C 146.11 375.02 139.06 368.98 134.10 361.90 C 129.14 354.83 122.77 348.70 117.00 341.00
C 128.23 340.12 133.46 347.12 144.00 346.00
M 404.00 436.00 
C 404.75 443.80 405.57 453.60 396.00 452.00 C 386.43 450.40 381.18 453.20 372.00 452.00
C 378.68 438.05 393.04 439.64 404.00 436.00 Z"/>
</g>
<g fill="None" fill-opacity="0.0" stroke="#000000" stroke-opacity="0.08" stroke-width="0.3"><path d="
M 496.00 61.00 
C 486.64 60.37 482.88 71.68 478.00 78.00
C 481.86 79.85 484.09 81.78 487.00 84.00
C 489.42 75.01 498.51 71.09 496.00 61.00 Z"/>
</g>
<g fill="None" fill-opacity="0.0" stroke="#000000" stroke-opacity="0.01" stroke-width="0.3"><path d="
M 0.00 292.00 
L 0.00 512.00
L 512.00 512.00
L 512.00 68.00
C 508.53 78.63 502.64 85.68 497.39 94.25 C 492.15 102.81 489.03 110.03 483.71 118.70 C 478.39 127.37 473.94 134.04 467.39 143.25 C 460.84 152.45 452.26 157.71 443.30 161.29 C 434.34 164.87 430.06 172.62 419.75 175.61 C 409.45 178.59 412.69 190.63 415.81 200.75 C 418.92 210.88 418.82 219.45 421.24 229.75 C 423.66 240.05 426.66 249.72 428.80 259.75 C 430.94 269.78 433.76 283.29 430.71 292.70 C 427.66 302.11 415.62 310.81 406.75 320.75 C 397.88 330.69 385.56 339.15 380.00 350.00
C 385.45 356.32 387.36 363.77 391.42 371.23 C 395.49 378.69 398.22 384.93 402.81 392.75 C 407.40 400.56 407.04 406.03 413.61 414.25 C 420.18 422.47 415.44 435.21 418.00 452.00 C 420.56 468.79 400.07 469.03 385.00 467.00 C 369.93 464.97 349.16 473.30 346.00 457.00
C 351.84 450.69 361.04 440.87 369.00 434.00
C 365.22 424.10 359.91 416.74 355.58 407.77 C 351.24 398.80 345.94 392.26 342.13 382.92 C 338.32 373.58 331.27 368.10 328.06 358.08 C 324.86 348.06 328.24 334.79 333.43 327.77 C 338.61 320.74 346.94 310.70 351.41 302.75 C 355.89 294.81 370.05 281.22 373.00 299.00
C 367.65 305.65 360.65 315.48 355.57 323.23 C 350.49 330.98 339.96 339.72 342.40 350.25 C 344.83 360.78 350.42 366.36 354.43 375.23 C 358.43 384.11 364.83 392.28 368.87 401.08 C 372.91 409.88 377.96 416.10 382.00 426.00
C 388.14 424.46 393.17 422.71 400.00 422.00
C 393.30 407.85 386.59 396.34 380.58 382.77 C 374.56 369.20 365.41 358.82 363.00 342.00
C 375.89 332.95 386.14 318.90 398.25 308.25 C 410.36 297.59 421.76 285.13 416.00 272.00
C 403.02 272.90 382.20 270.80 370.00 272.00 C 357.80 273.20 354.49 282.64 346.30 287.30 C 338.11 291.96 333.48 299.15 325.92 303.91 C 318.35 308.67 312.08 315.84 305.25 321.20 C 298.41 326.56 290.44 330.71 286.13 337.08 C 281.81 343.45 277.99 349.39 273.80 355.75 C 269.61 362.11 266.91 369.01 262.58 375.23 C 258.24 381.45 254.90 387.62 251.09 394.08 C 247.27 400.55 242.75 406.36 238.80 412.75 C 234.85 419.14 232.14 425.78 227.00 432.00
C 231.86 435.61 234.65 440.83 241.00 440.00
C 246.12 430.56 252.78 421.90 259.41 412.75 C 266.05 403.60 272.67 395.01 279.29 385.30 C 285.91 375.60 291.59 369.89 298.87 358.92 C 306.16 347.95 318.48 361.35 309.13 370.08 C 299.78 378.82 297.97 388.19 290.23 397.23 C 282.50 406.27 277.15 414.25 270.30 423.30 C 263.45 432.34 257.89 441.61 251.00 450.00
C 253.09 451.59 254.36 454.49 257.00 455.00
C 258.18 473.33 225.12 467.55 209.00 467.00 C 192.89 466.44 188.73 446.92 179.25 438.75 C 169.77 430.59 161.28 415.61 152.00 408.00
C 144.58 415.14 138.91 424.61 132.00 430.00
C 136.94 441.68 137.09 441.15 142.20 452.75 C 147.31 464.35 136.21 467.39 122.00 467.00 C 107.79 466.61 102.71 460.50 100.58 451.77 C 98.44 443.04 91.46 440.37 90.20 431.25 C 88.94 422.13 93.51 413.81 99.76 407.77 C 106.02 401.73 106.88 390.01 117.77 387.79 C 128.66 385.56 126.17 401.78 119.13 407.08 C 112.08 412.38 109.73 422.17 105.00 429.00
C 113.57 434.95 109.38 452.15 125.00 452.00
C 124.25 442.73 110.81 432.98 118.30 423.30 C 125.79 413.61 134.84 404.65 143.00 396.00
C 129.08 378.93 116.03 363.73 102.00 346.00
C 89.85 348.43 79.87 344.55 72.92 337.13 C 65.96 329.71 52.47 329.95 42.25 328.80 C 32.02 327.65 25.31 319.55 20.71 310.30 C 16.12 301.06 5.10 300.50 0.00 292.00 Z"/>
</g>
<g fill="None" fill-opacity="0.0" stroke="#000000" stroke-opacity="0.96" stroke-width="0.3"><path d="
M 316.00 88.00 
C 292.96 92.70 282.24 122.36 299.25 140.75 C 316.25 159.15 345.83 152.09 352.65 129.70 C 359.47 107.30 338.70 83.37 316.00 88.00
M 318.00 103.00 
C 337.94 100.26 347.35 126.68 327.25 135.39 C 307.14 144.11 295.34 106.11 318.00 103.00 Z"/>
</g>
<g fill="None" fill-opacity="0.0" stroke="#000000" stroke-opacity="0.97" stroke-width="0.3"><path d="
M 110.00 114.00 
C 107.71 94.11 78.73 91.09 68.19 106.75 C 57.64 122.41 70.36 144.53 89.00 143.00
C 86.44 173.38 127.79 186.42 145.29 163.30 C 162.79 140.18 141.85 104.39 110.00 114.00
M 92.00 111.00 
C 91.89 113.80 94.94 115.02 97.00 116.00
C 98.57 124.81 89.13 132.76 82.23 125.76 C 75.33 118.77 82.93 109.54 92.00 111.00
M 117.00 127.00 
C 137.60 124.52 145.53 155.02 124.25 160.59 C 102.96 166.16 95.82 129.55 117.00 127.00 Z"/>
</g>
<g fill="None" fill-opacity="0.0" stroke="#000000" stroke-opacity="0.03" stroke-width="0.3"><path d="
M 318.00 103.00 
C 295.34 106.11 307.14 144.11 327.25 135.39 C 347.35 126.68 337.94 100.26 318.00 103.00 Z"/>
</g>
<g fill="None" fill-opacity="0.0" stroke="#000000" stroke-opacity="0.06" stroke-width="0.3"><path d="
M 92.00 111.00 
C 82.93 109.54 75.33 118.77 82.23 125.76 C 89.13 132.76 98.57 124.81 97.00 116.00
C 94.94 115.02 91.89 113.80 92.00 111.00 Z"/>
</g>
<g fill="None" fill-opacity="0.0" stroke="#000000" stroke-opacity="0.03" stroke-width="0.3"><path d="
M 117.00 127.00 
C 95.82 129.55 102.96 166.16 124.25 160.59 C 145.53 155.02 137.60 124.52 117.00 127.00 Z"/>
</g>
<g fill="None" fill-opacity="0.0" stroke="#000000" stroke-opacity="0.09" stroke-width="0.3"><path d="
M 210.00 200.00 
C 172.20 200.66 132.80 198.68 96.00 201.00
C 93.42 212.96 109.03 209.86 122.00 210.00 C 134.97 210.14 152.22 209.93 166.00 210.00 C 179.78 210.07 196.00 209.95 210.00 210.00
C 210.00 206.67 210.00 203.33 210.00 200.00 Z"/>
</g>
<g fill="None" fill-opacity="0.0" stroke="#000000" stroke-opacity="0.01" stroke-width="0.3"><path d="
M 319.00 209.00 
C 305.96 215.81 298.90 214.36 285.25 220.24 C 271.59 226.13 248.50 225.38 229.00 225.00 C 209.50 224.62 183.31 225.26 164.00 225.00
C 159.99 238.52 150.56 251.27 145.58 264.23 C 140.60 277.19 126.23 272.65 112.00 273.00 C 97.77 273.35 85.89 272.43 76.75 276.41 C 67.61 280.39 60.55 281.47 51.25 284.81 C 41.96 288.15 37.06 289.40 26.00 292.00
C 33.04 303.17 41.15 318.83 57.92 315.93 C 74.69 313.04 78.69 328.11 92.26 331.40 C 105.83 334.69 119.22 319.26 133.75 328.24 C 148.28 337.22 158.44 324.94 168.75 318.19 C 179.05 311.44 199.76 320.40 206.00 306.00
C 191.02 295.83 176.16 293.63 161.00 283.00
C 159.79 269.44 172.79 272.25 179.25 276.61 C 185.70 280.96 195.18 281.61 201.25 286.61 C 207.31 291.60 219.00 289.55 223.81 297.75 C 228.62 305.94 216.79 314.78 211.77 321.77 C 206.75 328.76 193.78 330.67 183.70 330.35 C 173.62 330.04 167.17 338.83 159.00 343.00
C 179.25 368.97 197.05 395.19 217.00 421.00
C 229.23 401.17 238.46 384.18 250.25 365.25 C 262.05 346.33 271.61 326.96 292.10 312.10 C 312.59 297.23 330.93 279.45 352.00 264.00
C 342.31 244.46 329.28 228.03 319.00 209.00 Z"/>
</g>
<g fill="None" fill-opacity="0.0" stroke="#000000" stroke-opacity="0.03" stroke-width="0.3"><path d="
M 149.00 224.00 
C 133.33 224.00 117.67 224.00 102.00 224.00
C 101.50 235.72 98.41 246.23 97.00 258.00
C 108.67 258.00 120.33 258.00 132.00 258.00
C 137.42 245.42 141.97 236.50 149.00 224.00 Z"/>
</g>
<g fill="None" fill-opacity="0.0" stroke="#000000" stroke-opacity="0.05" stroke-width="0.3"><path d="
M 144.00 346.00 
C 133.46 347.12 128.23 340.12 117.00 341.00
C 122.77 348.70 129.14 354.83 134.10 361.90 C 139.06 368.98 146.11 375.02 151.24 381.75 C 156.38 388.49 162.35 395.03 167.81 401.75 C 173.27 408.46 177.92 414.41 183.30 421.70 C 188.68 428.98 196.09 433.32 200.74 441.25 C 205.38 449.18 216.02 457.50 227.00 450.00
C 207.90 439.91 195.87 417.68 182.19 400.25 C 168.52 382.82 156.81 364.13 144.00 346.00 Z"/>
</g>
<g fill="None" fill-opacity="0.0" stroke="#000000" stroke-opacity="0.15" stroke-width="0.3"><path d="
M 404.00 436.00 
C 393.04 439.64 378.68 438.05 372.00 452.00
C 381.18 453.20 386.43 450.40 396.00 452.00 C 405.57 453.60 404.75 443.80 404.00 436.00 Z"/>
</g>
<g fill="#000000" fill-opacity="0.00" stroke="None">
<path d="
M 0.00 289.00 
C 6.71 280.64 17.39 279.91 26.30 276.29 C 35.20 272.67 44.67 272.06 53.70 268.65 C 62.72 265.24 71.86 261.74 82.00 260.00
C 82.90 245.93 86.58 233.29 88.00 219.00
C 78.34 213.03 76.79 189.30 92.30 186.29 C 107.82 183.27 135.86 185.16 156.00 185.00 C 176.14 184.84 206.70 184.34 227.00 185.00 C 247.30 185.66 268.36 185.01 278.77 178.42 C 289.18 171.84 300.34 170.80 310.08 165.94 C 319.83 161.07 335.54 149.44 338.00 168.00
C 327.18 176.41 317.85 177.07 307.25 182.39 C 296.64 187.72 289.17 189.76 278.23 195.58 C 267.29 201.39 241.24 200.26 224.00 200.00
C 221.40 216.91 242.73 208.05 254.00 210.00 C 265.27 211.95 276.39 208.08 283.25 205.81 C 290.11 203.54 296.83 200.70 303.77 198.43 C 310.70 196.15 316.98 193.93 326.00 193.00
C 333.46 204.27 339.79 214.14 346.13 224.92 C 352.47 235.70 360.89 245.75 365.00 257.00
C 380.08 257.75 397.67 255.61 413.00 258.00
C 409.08 244.22 407.05 232.37 404.80 218.75 C 402.55 205.14 396.95 194.77 395.74 180.25 C 394.52 165.73 413.98 163.05 422.92 155.87 C 431.86 148.69 447.52 146.01 455.39 134.25 C 463.27 122.48 471.97 109.31 479.00 96.00
C 474.69 94.48 472.39 91.13 468.00 89.00
C 459.47 100.69 452.90 109.84 444.81 120.25 C 436.72 130.67 424.07 131.87 414.75 136.19 C 405.43 140.52 395.84 145.82 386.08 149.13 C 376.32 152.44 365.65 162.42 355.00 155.00
C 355.54 152.61 355.53 149.45 355.00 147.00
C 366.64 140.27 377.19 136.64 388.77 131.43 C 400.35 126.22 409.88 122.52 422.08 117.94 C 434.28 113.36 441.34 98.04 450.71 87.70 C 460.09 77.36 468.22 62.99 478.26 51.26 C 488.29 39.52 508.55 47.61 512.00 60.00
L 512.00 0.00
L 0.00 0.00
L 0.00 289.00
M 316.00 88.00 
C 338.70 83.37 359.47 107.30 352.65 129.70 C 345.83 152.09 316.25 159.15 299.25 140.75 C 282.24 122.36 292.96 92.70 316.00 88.00
M 110.00 114.00 
C 141.85 104.39 162.79 140.18 145.29 163.30 C 127.79 186.42 86.44 173.38 89.00 143.00
C 70.36 144.53 57.64 122.41 68.19 106.75 C 78.73 91.09 107.71 94.11 110.00 114.00 Z"/>
</g>
<g fill="#000000" fill-opacity="0.96" stroke="None">
<path d="
M 0.00 289.00 
L 0.00 292.00
C 5.10 300.50 16.12 301.06 20.71 310.30 C 25.31 319.55 32.02 327.65 42.25 328.80 C 52.47 329.95 65.96 329.71 72.92 337.13 C 79.87 344.55 89.85 348.43 102.00 346.00
C 116.03 363.73 129.08 378.93 143.00 396.00
C 134.84 404.65 125.79 413.61 118.30 423.30 C 110.81 432.98 124.25 442.73 125.00 452.00
C 109.38 452.15 113.57 434.95 105.00 429.00
C 109.73 422.17 112.08 412.38 119.13 407.08 C 126.17 401.78 128.66 385.56 117.77 387.79 C 106.88 390.01 106.02 401.73 99.76 407.77 C 93.51 413.81 88.94 422.13 90.20 431.25 C 91.46 440.37 98.44 443.04 100.58 451.77 C 102.71 460.50 107.79 466.61 122.00 467.00 C 136.21 467.39 147.31 464.35 142.20 452.75 C 137.09 441.15 136.94 441.68 132.00 430.00
C 138.91 424.61 144.58 415.14 152.00 408.00
C 161.28 415.61 169.77 430.59 179.25 438.75 C 188.73 446.92 192.89 466.44 209.00 467.00 C 225.12 467.55 258.18 473.33 257.00 455.00
C 254.36 454.49 253.09 451.59 251.00 450.00
C 257.89 441.61 263.45 432.34 270.30 423.30 C 277.15 414.25 282.50 406.27 290.23 397.23 C 297.97 388.19 299.78 378.82 309.13 370.08 C 318.48 361.35 306.16 347.95 298.87 358.92 C 291.59 369.89 285.91 375.60 279.29 385.30 C 272.67 395.01 266.05 403.60 259.41 412.75 C 252.78 421.90 246.12 430.56 241.00 440.00
C 234.65 440.83 231.86 435.61 227.00 432.00
C 232.14 425.78 234.85 419.14 238.80 412.75 C 242.75 406.36 247.27 400.55 251.09 394.08 C 254.90 387.62 258.24 381.45 262.58 375.23 C 266.91 369.01 269.61 362.11 273.80 355.75 C 277.99 349.39 281.81 343.45 286.13 337.08 C 290.44 330.71 298.41 326.56 305.25 321.20 C 312.08 315.84 318.35 308.67 325.92 303.91 C 333.48 299.15 338.11 291.96 346.30 287.30 C 354.49 282.64 357.80 273.20 370.00 272.00 C 382.20 270.80 403.02 272.90 416.00 272.00
C 421.76 285.13 410.36 297.59 398.25 308.25 C 386.14 318.90 375.89 332.95 363.00 342.00
C 365.41 358.82 374.56 369.20 380.58 382.77 C 386.59 396.34 393.30 407.85 400.00 422.00
C 393.17 422.71 388.14 424.46 382.00 426.00
C 377.96 416.10 372.91 409.88 368.87 401.08 C 364.83 392.28 358.43 384.11 354.43 375.23 C 350.42 366.36 344.83 360.78 342.40 350.25 C 339.96 339.72 350.49 330.98 355.57 323.23 C 360.65 315.48 367.65 305.65 373.00 299.00
C 370.05 281.22 355.89 294.81 351.41 302.75 C 346.94 310.70 338.61 320.74 333.43 327.77 C 328.24 334.79 324.86 348.06 328.06 358.08 C 331.27 368.10 338.32 373.58 342.13 382.92 C 345.94 392.26 351.24 398.80 355.58 407.77 C 359.91 416.74 365.22 424.10 369.00 434.00
C 361.04 440.87 351.84 450.69 346.00 457.00
C 349.16 473.30 369.93 464.97 385.00 467.00 C 400.07 469.03 420.56 468.79 418.00 452.00 C 415.44 435.21 420.18 422.47 413.61 414.25 C 407.04 406.03 407.40 400.56 402.81 392.75 C 398.22 384.93 395.49 378.69 391.42 371.23 C 387.36 363.77 385.45 356.32 380.00 350.00
C 385.56 339.15 397.88 330.69 406.75 320.75 C 415.62 310.81 427.66 302.11 430.71 292.70 C 433.76 283.29 430.94 269.78 428.80 259.75 C 426.66 249.72 423.66 240.05 421.24 229.75 C 418.82 219.45 418.92 210.88 415.81 200.75 C 412.69 190.63 409.45 178.59 419.75 175.61 C 430.06 172.62 434.34 164.87 443.30 161.29 C 452.26 157.71 460.84 152.45 467.39 143.25 C 473.94 134.04 478.39 127.37 483.71 118.70 C 489.03 110.03 492.15 102.81 497.39 94.25 C 502.64 85.68 508.53 78.63 512.00 68.00
L 512.00 60.00
C 508.55 47.61 488.29 39.52 478.26 51.26 C 468.22 62.99 460.09 77.36 450.71 87.70 C 441.34 98.04 434.28 113.36 422.08 117.94 C 409.88 122.52 400.35 126.22 388.77 131.43 C 377.19 136.64 366.64 140.27 355.00 147.00
C 355.53 149.45 355.54 152.61 355.00 155.00
C 365.65 162.42 376.32 152.44 386.08 149.13 C 395.84 145.82 405.43 140.52 414.75 136.19 C 424.07 131.87 436.72 130.67 444.81 120.25 C 452.90 109.84 459.47 100.69 468.00 89.00
C 472.39 91.13 474.69 94.48 479.00 96.00
C 471.97 109.31 463.27 122.48 455.39 134.25 C 447.52 146.01 431.86 148.69 422.92 155.87 C 413.98 163.05 394.52 165.73 395.74 180.25 C 396.95 194.77 402.55 205.14 404.80 218.75 C 407.05 232.37 409.08 244.22 413.00 258.00
C 397.67 255.61 380.08 257.75 365.00 257.00
C 360.89 245.75 352.47 235.70 346.13 224.92 C 339.79 214.14 333.46 204.27 326.00 193.00
C 316.98 193.93 310.70 196.15 303.77 198.43 C 296.83 200.70 290.11 203.54 283.25 205.81 C 276.39 208.08 265.27 211.95 254.00 210.00 C 242.73 208.05 221.40 216.91 224.00 200.00
C 241.24 200.26 267.29 201.39 278.23 195.58 C 289.17 189.76 296.64 187.72 307.25 182.39 C 317.85 177.07 327.18 176.41 338.00 168.00
C 335.54 149.44 319.83 161.07 310.08 165.94 C 300.34 170.80 289.18 171.84 278.77 178.42 C 268.36 185.01 247.30 185.66 227.00 185.00 C 206.70 184.34 176.14 184.84 156.00 185.00 C 135.86 185.16 107.82 183.27 92.30 186.29 C 76.79 189.30 78.34 213.03 88.00 219.00
C 86.58 233.29 82.90 245.93 82.00 260.00
C 71.86 261.74 62.72 265.24 53.70 268.65 C 44.67 272.06 35.20 272.67 26.30 276.29 C 17.39 279.91 6.71 280.64 0.00 289.00
M 496.00 61.00 
C 498.51 71.09 489.42 75.01 487.00 84.00
C 484.09 81.78 481.86 79.85 478.00 78.00
C 482.88 71.68 486.64 60.37 496.00 61.00
M 210.00 200.00 
C 210.00 203.33 210.00 206.67 210.00 210.00
C 196.00 209.95 179.78 210.07 166.00 210.00 C 152.22 209.93 134.97 210.14 122.00 210.00 C 109.03 209.86 93.42 212.96 96.00 201.00
C 132.80 198.68 172.20 200.66 210.00 200.00
M 319.00 209.00 
C 329.28 228.03 342.31 244.46 352.00 264.00
C 330.93 279.45 312.59 297.23 292.10 312.10 C 271.61 326.96 262.05 346.33 250.25 365.25 C 238.46 384.18 229.23 401.17 217.00 421.00
C 197.05 395.19 179.25 368.97 159.00 343.00
C 167.17 338.83 173.62 330.04 183.70 330.35 C 193.78 330.67 206.75 328.76 211.77 321.77 C 216.79 314.78 228.62 305.94 223.81 297.75 C 219.00 289.55 207.31 291.60 201.25 286.61 C 195.18 281.61 185.70 280.96 179.25 276.61 C 172.79 272.25 159.79 269.44 161.00 283.00
C 176.16 293.63 191.02 295.83 206.00 306.00
C 199.76 320.40 179.05 311.44 168.75 318.19 C 158.44 324.94 148.28 337.22 133.75 328.24 C 119.22 319.26 105.83 334.69 92.26 331.40 C 78.69 328.11 74.69 313.04 57.92 315.93 C 41.15 318.83 33.04 303.17 26.00 292.00
C 37.06 289.40 41.96 288.15 51.25 284.81 C 60.55 281.47 67.61 280.39 76.75 276.41 C 85.89 272.43 97.77 273.35 112.00 273.00 C 126.23 272.65 140.60 277.19 145.58 264.23 C 150.56 251.27 159.99 238.52 164.00 225.00
C 183.31 225.26 209.50 224.62 229.00 225.00 C 248.50 225.38 271.59 226.13 285.25 220.24 C 298.90 214.36 305.96 215.81 319.00 209.00
M 149.00 224.00 
C 141.97 236.50 137.42 245.42 132.00 258.00
C 120.33 258.00 108.67 258.00 97.00 258.00
C 98.41 246.23 101.50 235.72 102.00 224.00
C 117.67 224.00 133.33 224.00 149.00 224.00
M 144.00 346.00 
C 156.81 364.13 168.52 382.82 182.19 400.25 C 195.87 417.68 207.90 439.91 227.00 450.00
C 216.02 457.50 205.38 449.18 200.74 441.25 C 196.09 433.32 188.68 428.98 183.30 421.70 C 177.92 414.41 173.27 408.46 167.81 401.75 C 162.35 395.03 156.38 388.49 151.24 381.75 C 146.11 375.02 139.06 368.98 134.10 361.90 C 129.14 354.83 122.77 348.70 117.00 341.00
C 128.23 340.12 133.46 347.12 144.00 346.00
M 404.00 436.00 
C 404.75 443.80 405.57 453.60 396.00 452.00 C 386.43 450.40 381.18 453.20 372.00 452.00
C 378.68 438.05 393.04 439.64 404.00 436.00 Z"/>
</g>
<g fill="#000000" fill-opacity="0.08" stroke="None">
<path d="
M 496.00 61.00 
C 486.64 60.37 482.88 71.68 478.00 78.00
C 481.86 79.85 484.09 81.78 487.00 84.00
C 489.42 75.01 498.51 71.09 496.00 61.00 Z"/>
</g>
<g fill="#000000" fill-opacity="0.01" stroke="None">
<path d="
M 0.00 292.00 
L 0.00 512.00
L 512.00 512.00
L 512.00 68.00
C 508.53 78.63 502.64 85.68 497.39 94.25 C 492.15 102.81 489.03 110.03 483.71 118.70 C 478.39 127.37 473.94 134.04 467.39 143.25 C 460.84 152.45 452.26 157.71 443.30 161.29 C 434.34 164.87 430.06 172.62 419.75 175.61 C 409.45 178.59 412.69 190.63 415.81 200.75 C 418.92 210.88 418.82 219.45 421.24 229.75 C 423.66 240.05 426.66 249.72 428.80 259.75 C 430.94 269.78 433.76 283.29 430.71 292.70 C 427.66 302.11 415.62 310.81 406.75 320.75 C 397.88 330.69 385.56 339.15 380.00 350.00
C 385.45 356.32 387.36 363.77 391.42 371.23 C 395.49 378.69 398.22 384.93 402.81 392.75 C 407.40 400.56 407.04 406.03 413.61 414.25 C 420.18 422.47 415.44 435.21 418.00 452.00 C 420.56 468.79 400.07 469.03 385.00 467.00 C 369.93 464.97 349.16 473.30 346.00 457.00
C 351.84 450.69 361.04 440.87 369.00 434.00
C 365.22 424.10 359.91 416.74 355.58 407.77 C 351.24 398.80 345.94 392.26 342.13 382.92 C 338.32 373.58 331.27 368.10 328.06 358.08 C 324.86 348.06 328.24 334.79 333.43 327.77 C 338.61 320.74 346.94 310.70 351.41 302.75 C 355.89 294.81 370.05 281.22 373.00 299.00
C 367.65 305.65 360.65 315.48 355.57 323.23 C 350.49 330.98 339.96 339.72 342.40 350.25 C 344.83 360.78 350.42 366.36 354.43 375.23 C 358.43 384.11 364.83 392.28 368.87 401.08 C 372.91 409.88 377.96 416.10 382.00 426.00
C 388.14 424.46 393.17 422.71 400.00 422.00
C 393.30 407.85 386.59 396.34 380.58 382.77 C 374.56 369.20 365.41 358.82 363.00 342.00
C 375.89 332.95 386.14 318.90 398.25 308.25 C 410.36 297.59 421.76 285.13 416.00 272.00
C 403.02 272.90 382.20 270.80 370.00 272.00 C 357.80 273.20 354.49 282.64 346.30 287.30 C 338.11 291.96 333.48 299.15 325.92 303.91 C 318.35 308.67 312.08 315.84 305.25 321.20 C 298.41 326.56 290.44 330.71 286.13 337.08 C 281.81 343.45 277.99 349.39 273.80 355.75 C 269.61 362.11 266.91 369.01 262.58 375.23 C 258.24 381.45 254.90 387.62 251.09 394.08 C 247.27 400.55 242.75 406.36 238.80 412.75 C 234.85 419.14 232.14 425.78 227.00 432.00
C 231.86 435.61 234.65 440.83 241.00 440.00
C 246.12 430.56 252.78 421.90 259.41 412.75 C 266.05 403.60 272.67 395.01 279.29 385.30 C 285.91 375.60 291.59 369.89 298.87 358.92 C 306.16 347.95 318.48 361.35 309.13 370.08 C 299.78 378.82 297.97 388.19 290.23 397.23 C 282.50 406.27 277.15 414.25 270.30 423.30 C 263.45 432.34 257.89 441.61 251.00 450.00
C 253.09 451.59 254.36 454.49 257.00 455.00
C 258.18 473.33 225.12 467.55 209.00 467.00 C 192.89 466.44 188.73 446.92 179.25 438.75 C 169.77 430.59 161.28 415.61 152.00 408.00
C 144.58 415.14 138.91 424.61 132.00 430.00
C 136.94 441.68 137.09 441.15 142.20 452.75 C 147.31 464.35 136.21 467.39 122.00 467.00 C 107.79 466.61 102.71 460.50 100.58 451.77 C 98.44 443.04 91.46 440.37 90.20 431.25 C 88.94 422.13 93.51 413.81 99.76 407.77 C 106.02 401.73 106.88 390.01 117.77 387.79 C 128.66 385.56 126.17 401.78 119.13 407.08 C 112.08 412.38 109.73 422.17 105.00 429.00
C 113.57 434.95 109.38 452.15 125.00 452.00
C 124.25 442.73 110.81 432.98 118.30 423.30 C 125.79 413.61 134.84 404.65 143.00 396.00
C 129.08 378.93 116.03 363.73 102.00 346.00
C 89.85 348.43 79.87 344.55 72.92 337.13 C 65.96 329.71 52.47 329.95 42.25 328.80 C 32.02 327.65 25.31 319.55 20.71 310.30 C 16.12 301.06 5.10 300.50 0.00 292.00 Z"/>
</g>
<g fill="#000000" fill-opacity="0.96" stroke="None">
<path d="
M 316.00 88.00 
C 292.96 92.70 282.24 122.36 299.25 140.75 C 316.25 159.15 345.83 152.09 352.65 129.70 C 359.47 107.30 338.70 83.37 316.00 88.00
M 318.00 103.00 
C 337.94 100.26 347.35 126.68 327.25 135.39 C 307.14 144.11 295.34 106.11 318.00 103.00 Z"/>
</g>
<g fill="#000000" fill-opacity="0.97" stroke="None">
<path d="
M 110.00 114.00 
C 107.71 94.11 78.73 91.09 68.19 106.75 C 57.64 122.41 70.36 144.53 89.00 143.00
C 86.44 173.38 127.79 186.42 145.29 163.30 C 162.79 140.18 141.85 104.39 110.00 114.00
M 92.00 111.00 
C 91.89 113.80 94.94 115.02 97.00 116.00
C 98.57 124.81 89.13 132.76 82.23 125.76 C 75.33 118.77 82.93 109.54 92.00 111.00
M 117.00 127.00 
C 137.60 124.52 145.53 155.02 124.25 160.59 C 102.96 166.16 95.82 129.55 117.00 127.00 Z"/>
</g>
<g fill="#000000" fill-opacity="0.03" stroke="None">
<path d="
M 318.00 103.00 
C 295.34 106.11 307.14 144.11 327.25 135.39 C 347.35 126.68 337.94 100.26 318.00 103.00 Z"/>
</g>
<g fill="#000000" fill-opacity="0.06" stroke="None">
<path d="
M 92.00 111.00 
C 82.93 109.54 75.33 118.77 82.23 125.76 C 89.13 132.76 98.57 124.81 97.00 116.00
C 94.94 115.02 91.89 113.80 92.00 111.00 Z"/>
</g>
<g fill="#000000" fill-opacity="0.03" stroke="None">
<path d="
M 117.00 127.00 
C 95.82 129.55 102.96 166.16 124.25 160.59 C 145.53 155.02 137.60 124.52 117.00 127.00 Z"/>
</g>
<g fill="#000000" fill-opacity="0.09" stroke="None">
<path d="
M 210.00 200.00 
C 172.20 200.66 132.80 198.68 96.00 201.00
C 93.42 212.96 109.03 209.86 122.00 210.00 C 134.97 210.14 152.22 209.93 166.00 210.00 C 179.78 210.07 196.00 209.95 210.00 210.00
C 210.00 206.67 210.00 203.33 210.00 200.00 Z"/>
</g>
<g fill="#000000" fill-opacity="0.01" stroke="None">
<path d="
M 319.00 209.00 
C 305.96 215.81 298.90 214.36 285.25 220.24 C 271.59 226.13 248.50 225.38 229.00 225.00 C 209.50 224.62 183.31 225.26 164.00 225.00
C 159.99 238.52 150.56 251.27 145.58 264.23 C 140.60 277.19 126.23 272.65 112.00 273.00 C 97.77 273.35 85.89 272.43 76.75 276.41 C 67.61 280.39 60.55 281.47 51.25 284.81 C 41.96 288.15 37.06 289.40 26.00 292.00
C 33.04 303.17 41.15 318.83 57.92 315.93 C 74.69 313.04 78.69 328.11 92.26 331.40 C 105.83 334.69 119.22 319.26 133.75 328.24 C 148.28 337.22 158.44 324.94 168.75 318.19 C 179.05 311.44 199.76 320.40 206.00 306.00
C 191.02 295.83 176.16 293.63 161.00 283.00
C 159.79 269.44 172.79 272.25 179.25 276.61 C 185.70 280.96 195.18 281.61 201.25 286.61 C 207.31 291.60 219.00 289.55 223.81 297.75 C 228.62 305.94 216.79 314.78 211.77 321.77 C 206.75 328.76 193.78 330.67 183.70 330.35 C 173.62 330.04 167.17 338.83 159.00 343.00
C 179.25 368.97 197.05 395.19 217.00 421.00
C 229.23 401.17 238.46 384.18 250.25 365.25 C 262.05 346.33 271.61 326.96 292.10 312.10 C 312.59 297.23 330.93 279.45 352.00 264.00
C 342.31 244.46 329.28 228.03 319.00 209.00 Z"/>
</g>
<g fill="#000000" fill-opacity="0.03" stroke="None">
<path d="
M 149.00 224.00 
C 133.33 224.00 117.67 224.00 102.00 224.00
C 101.50 235.72 98.41 246.23 97.00 258.00
C 108.67 258.00 120.33 258.00 132.00 258.00
C 137.42 245.42 141.97 236.50 149.00 224.00 Z"/>
</g>
<g fill="#000000" fill-opacity="0.05" stroke="None">
<path d="
M 144.00 346.00 
C 133.46 347.12 128.23 340.12 117.00 341.00
C 122.77 348.70 129.14 354.83 134.10 361.90 C 139.06 368.98 146.11 375.02 151.24 381.75 C 156.38 388.49 162.35 395.03 167.81 401.75 C 173.27 408.46 177.92 414.41 183.30 421.70 C 188.68 428.98 196.09 433.32 200.74 441.25 C 205.38 449.18 216.02 457.50 227.00 450.00
C 207.90 439.91 195.87 417.68 182.19 400.25 C 168.52 382.82 156.81 364.13 144.00 346.00 Z"/>
</g>
<g fill="#000000" fill-opacity="0.15" stroke="None">
<path d="
M 404.00 436.00 
C 393.04 439.64 378.68 438.05 372.00 452.00
C 381.18 453.20 386.43 450.40 396.00 452.00 C 405.57 453.60 404.75 443.80 404.00 436.00 Z"/>
</g>
</svg>