<svg xmlns="http://www.w3.org/2000/svg" xmlns:v="https://svgstorm.com"
viewBox = "0 0 512 512"
width="512"
height="512">
<g fill="None" fill-opacity="0.0" stroke="#000000" stroke-opacity="0.00" stroke-width="0.3"><path d="
M 0.00 278.00 
C 5.70 263.78 20.24 267.13 36.00 267.00
C 35.30 249.60 55.01 244.85 72.75 249.59 C 90.50 254.32 86.33 276.84 86.00 296.00
C 94.33 296.00 102.67 296.00 111.00 296.00
C 107.41 288.88 103.53 282.65 99.74 276.25 C 95.94 269.85 92.72 264.44 89.81 257.75 C 86.91 251.06 83.50 244.55 80.74 237.25 C 77.97 229.94 76.43 222.44 74.80 214.75 C 73.17 207.07 71.07 200.37 70.22 190.78 C 69.37 181.18 70.99 166.14 72.92 157.92 C 74.85 149.69 74.82 142.34 78.39 135.25 C 81.96 128.16 84.19 122.51 88.32 115.32 C 92.45 108.13 97.67 102.50 105.25 95.25 C 112.83 88.00 119.52 80.11 126.30 76.30 C 133.09 72.49 140.48 68.60 147.30 65.29 C 154.13 61.97 163.32 61.31 171.25 59.20 C 179.18 57.09 193.10 56.83 202.22 57.22 C 211.35 57.61 217.52 58.83 226.25 61.20 C 234.97 63.56 241.55 66.09 248.25 69.19 C 254.96 72.29 262.27 77.94 268.70 82.30 C 275.14 86.66 284.72 97.86 289.00 104.00
C 298.00 96.16 308.98 84.65 318.25 78.81 C 327.53 72.98 335.13 67.75 345.75 64.61 C 356.38 61.47 365.45 57.78 377.75 57.40 C 390.05 57.01 405.39 57.60 416.75 60.39 C 428.12 63.18 437.70 67.68 446.25 72.75 C 454.81 77.81 465.28 83.42 475.00 93.00
C 474.15 112.99 457.24 98.20 449.25 91.74 C 441.26 85.27 431.58 80.86 421.90 77.09 C 412.22 73.33 399.58 72.92 386.00 72.00 C 372.42 71.09 361.71 76.11 350.90 78.91 C 340.09 81.70 334.40 86.85 324.10 93.10 C 313.79 99.34 305.68 114.33 294.23 118.58 C 282.78 122.82 272.74 104.02 263.10 96.90 C 253.46 89.78 245.86 84.28 236.23 80.42 C 226.60 76.57 217.58 73.49 205.25 72.40 C 192.92 71.30 175.93 72.26 165.77 75.21 C 155.60 78.16 145.83 82.52 137.25 87.39 C 128.67 92.26 116.45 103.19 108.87 112.92 C 101.29 122.65 96.99 129.59 92.87 139.92 C 88.75 150.25 86.47 160.97 85.22 174.22 C 83.96 187.48 87.75 202.24 89.71 212.30 C 91.68 222.36 95.58 233.16 99.71 242.30 C 103.85 251.45 107.09 259.65 112.71 268.30 C 118.34 276.96 123.27 286.48 129.00 296.00
C 152.54 295.95 177.15 296.07 200.00 296.00
C 204.29 300.79 204.52 305.91 200.00 311.00
C 162.83 310.97 123.86 311.02 86.00 311.00
C 86.00 321.67 86.00 332.33 86.00 343.00
C 142.00 343.00 198.00 343.00 254.00 343.00
C 254.00 332.33 254.00 321.67 254.00 311.00
C 244.76 311.19 234.53 310.73 226.00 311.00
C 221.55 306.01 221.64 300.87 226.00 296.00
C 234.47 296.48 244.76 295.66 254.00 296.00
C 254.01 277.11 249.52 253.53 267.08 249.94 C 284.64 246.35 306.08 248.14 304.00 267.00
C 324.84 266.07 341.60 265.57 342.00 288.00 C 342.39 310.43 341.04 340.29 342.00 363.00 C 342.96 385.71 325.84 391.11 304.00 387.00
C 307.00 405.30 282.97 408.79 266.25 404.41 C 249.54 400.02 251.98 375.27 254.00 357.00
C 230.67 357.00 207.33 357.00 184.00 357.00
C 194.56 367.99 206.82 379.77 217.90 389.10 C 228.98 398.43 239.91 407.26 251.25 415.19 C 262.59 423.13 271.31 432.63 283.30 439.70 C 295.28 446.78 307.75 431.20 317.77 424.43 C 327.78 417.65 339.49 408.18 350.75 399.74 C 362.01 391.29 372.84 379.03 384.92 368.92 C 397.00 358.81 409.33 346.40 419.70 334.70 C 430.06 323.00 442.77 308.45 450.10 298.10 C 457.43 287.74 464.20 276.91 470.13 267.08 C 476.06 257.25 480.46 246.81 485.26 235.25 C 490.07 223.69 492.21 212.85 494.40 199.25 C 496.58 185.64 496.31 168.68 493.07 154.92 C 489.82 141.15 483.37 133.61 481.00 120.00
C 498.36 110.65 501.55 132.78 506.71 146.30 C 511.86 159.82 511.22 184.04 509.81 199.25 C 508.39 214.46 503.12 229.37 497.87 242.92 C 492.62 256.47 486.95 268.03 478.87 280.92 C 470.79 293.81 462.44 307.34 451.09 321.10 C 439.75 334.86 425.50 350.50 411.25 365.25 C 397.00 379.99 381.53 392.84 368.75 403.19 C 355.97 413.55 340.93 427.78 328.30 435.30 C 315.66 442.82 303.03 461.03 285.75 456.80 C 268.48 452.58 260.01 439.52 245.75 430.81 C 231.49 422.10 219.38 408.41 205.30 397.70 C 191.21 387.00 177.54 372.50 163.00 357.00
C 137.92 358.66 111.05 358.67 86.00 357.00
C 85.58 374.81 91.31 399.15 73.92 404.92 C 56.52 410.69 35.46 404.26 36.00 387.00
C 21.16 389.49 4.78 389.09 0.00 376.00
L 0.00 512.00
L 512.00 512.00
L 512.00 0.00
L 0.00 0.00
L 0.00 278.00
M 268.00 183.00 
C 282.11 183.51 300.30 182.32 314.00 183.00 C 327.70 183.68 342.47 178.02 342.00 193.00
C 338.84 192.97 338.09 196.68 336.00 198.00
C 316.42 197.78 294.91 194.86 275.00 197.00 C 255.09 199.14 253.23 190.54 251.00 175.00
C 246.15 184.00 244.42 195.31 240.74 204.75 C 237.05 214.20 236.36 224.96 231.88 233.90 C 227.41 242.84 230.15 256.22 220.75 261.19 C 211.34 266.15 207.21 249.39 205.09 240.90 C 202.98 232.41 199.48 220.50 196.29 211.70 C 193.09 202.90 191.37 190.88 188.00 182.00
C 175.44 180.74 155.85 183.68 144.00 182.00 C 132.15 180.32 114.31 187.76 112.61 176.25 C 110.90 164.73 125.74 167.55 138.00 167.00 C 150.26 166.45 170.06 168.51 183.00 167.00 C 195.94 165.49 202.07 171.12 203.31 180.70 C 204.55 190.27 208.62 195.28 210.77 204.23 C 212.92 213.18 215.21 219.09 217.00 229.00
C 223.33 214.72 226.59 199.22 231.91 184.90 C 237.22 170.58 237.54 155.10 247.00 141.00
C 258.46 140.02 257.55 149.96 260.06 158.08 C 262.58 166.20 266.62 173.58 268.00 183.00 Z"/>
</g>
<g fill="None" fill-opacity="0.0" stroke="#000000" stroke-opacity="0.96" stroke-width="0.3"><path d="
M 0.00 278.00 
L 0.00 376.00
C 4.78 389.09 21.16 389.49 36.00 387.00
C 35.46 404.26 56.52 410.69 73.92 404.92 C 91.31 399.15 85.58 374.81 86.00 357.00
C 111.05 358.67 137.92 358.66 163.00 357.00
C 177.54 372.50 191.21 387.00 205.30 397.70 C 219.38 408.41 231.49 422.10 245.75 430.81 C 260.01 439.52 268.48 452.58 285.75 456.80 C 303.03 461.03 315.66 442.82 328.30 435.30 C 340.93 427.78 355.97 413.55 368.75 403.19 C 381.53 392.84 397.00 379.99 411.25 365.25 C 425.50 350.50 439.75 334.86 451.09 321.10 C 462.44 307.34 470.79 293.81 478.87 280.92 C 486.95 268.03 492.62 256.47 497.87 242.92 C 503.12 229.37 508.39 214.46 509.81 199.25 C 511.22 184.04 511.86 159.82 506.71 146.30 C 501.55 132.78 498.36 110.65 481.00 120.00
C 483.37 133.61 489.82 141.15 493.07 154.92 C 496.31 168.68 496.58 185.64 494.40 199.25 C 492.21 212.85 490.07 223.69 485.26 235.25 C 480.46 246.81 476.06 257.25 470.13 267.08 C 464.20 276.91 457.43 287.74 450.10 298.10 C 442.77 308.45 430.06 323.00 419.70 334.70 C 409.33 346.40 397.00 358.81 384.92 368.92 C 372.84 379.03 362.01 391.29 350.75 399.74 C 339.49 408.18 327.78 417.65 317.77 424.43 C 307.75 431.20 295.28 446.78 283.30 439.70 C 271.31 432.63 262.59 423.13 251.25 415.19 C 239.91 407.26 228.98 398.43 217.90 389.10 C 206.82 379.77 194.56 367.99 184.00 357.00
C 207.33 357.00 230.67 357.00 254.00 357.00
C 251.98 375.27 249.54 400.02 266.25 404.41 C 282.97 408.79 307.00 405.30 304.00 387.00
C 325.84 391.11 342.96 385.71 342.00 363.00 C 341.04 340.29 342.39 310.43 342.00 288.00 C 341.60 265.57 324.84 266.07 304.00 267.00
C 306.08 248.14 284.64 246.35 267.08 249.94 C 249.52 253.53 254.01 277.11 254.00 296.00
C 244.76 295.66 234.47 296.48 226.00 296.00
C 221.64 300.87 221.55 306.01 226.00 311.00
C 234.53 310.73 244.76 311.19 254.00 311.00
C 254.00 321.67 254.00 332.33 254.00 343.00
C 198.00 343.00 142.00 343.00 86.00 343.00
C 86.00 332.33 86.00 321.67 86.00 311.00
C 123.86 311.02 162.83 310.97 200.00 311.00
C 204.52 305.91 204.29 300.79 200.00 296.00
C 177.15 296.07 152.54 295.95 129.00 296.00
C 123.27 286.48 118.34 276.96 112.71 268.30 C 107.09 259.65 103.85 251.45 99.71 242.30 C 95.58 233.16 91.68 222.36 89.71 212.30 C 87.75 202.24 83.96 187.48 85.22 174.22 C 86.47 160.97 88.75 150.25 92.87 139.92 C 96.99 129.59 101.29 122.65 108.87 112.92 C 116.45 103.19 128.67 92.26 137.25 87.39 C 145.83 82.52 155.60 78.16 165.77 75.21 C 175.93 72.26 192.92 71.30 205.25 72.40 C 217.58 73.49 226.60 76.57 236.23 80.42 C 245.86 84.28 253.46 89.78 263.10 96.90 C 272.74 104.02 282.78 122.82 294.23 118.58 C 305.68 114.33 313.79 99.34 324.10 93.10 C 334.40 86.85 340.09 81.70 350.90 78.91 C 361.71 76.11 372.42 71.09 386.00 72.00 C 399.58 72.92 412.22 73.33 421.90 77.09 C 431.58 80.86 441.26 85.27 449.25 91.74 C 457.24 98.20 474.15 112.99 475.00 93.00
C 465.28 83.42 454.81 77.81 446.25 72.75 C 437.70 67.68 428.12 63.18 416.75 60.39 C 405.39 57.60 390.05 57.01 377.75 57.40 C 365.45 57.78 356.38 61.47 345.75 64.61 C 335.13 67.75 327.53 72.98 318.25 78.81 C 308.98 84.65 298.00 96.16 289.00 104.00
C 284.72 97.86 275.14 86.66 268.70 82.30 C 262.27 77.94 254.96 72.29 248.25 69.19 C 241.55 66.09 234.97 63.56 226.25 61.20 C 217.52 58.83 211.35 57.61 202.22 57.22 C 193.10 56.83 179.18 57.09 171.25 59.20 C 163.32 61.31 154.13 61.97 147.30 65.29 C 140.48 68.60 133.09 72.49 126.30 76.30 C 119.52 80.11 112.83 88.00 105.25 95.25 C 97.67 102.50 92.45 108.13 88.32 115.32 C 84.19 122.51 81.96 128.16 78.39 135.25 C 74.82 142.34 74.85 149.69 72.92 157.92 C 70.99 166.14 69.37 181.18 70.22 190.78 C 71.07 200.37 73.17 207.07 74.80 214.75 C 76.43 222.44 77.97 229.94 80.74 237.25 C 83.50 244.55 86.91 251.06 89.81 257.75 C 92.72 264.44 95.94 269.85 99.74 276.25 C 103.53 282.65 107.41 288.88 111.00 296.00
C 102.67 296.00 94.33 296.00 86.00 296.00
C 86.33 276.84 90.50 254.32 72.75 249.59 C 55.01 244.85 35.30 249.60 36.00 267.00
C 20.24 267.13 5.70 263.78 0.00 278.00
M 72.00 265.00 
C 70.33 305.74 70.33 348.28 72.00 389.00
C 66.40 392.12 55.62 392.14 50.00 389.00
C 51.72 377.90 51.13 364.39 51.00 353.00 C 50.87 341.61 53.16 328.99 47.00 321.00
C 41.90 321.24 38.74 321.63 35.00 325.00
C 36.24 331.41 36.52 339.60 36.00 347.00 C 35.48 354.41 38.02 365.98 34.00 371.00
C 30.22 375.04 19.82 372.83 14.00 372.00
C 14.01 342.98 14.01 311.00 14.00 282.00
C 20.60 281.42 27.83 283.21 34.00 281.00
C 36.90 286.57 32.66 296.12 39.00 301.00
C 56.26 303.70 50.86 277.71 50.00 265.00
C 55.60 261.88 66.38 261.86 72.00 265.00
M 290.00 264.00 
C 288.34 305.42 288.34 348.58 290.00 390.00
C 284.69 390.65 273.60 392.89 268.00 389.00
C 269.67 348.26 269.67 305.72 268.00 265.00
C 274.39 261.09 284.55 263.38 290.00 264.00
M 325.00 373.00 
C 319.21 371.36 311.77 371.37 306.00 373.00
C 301.35 360.29 305.45 346.74 304.00 333.00 C 302.55 319.26 306.10 304.98 304.00 291.00 C 301.90 277.02 328.12 276.10 327.00 290.00 C 325.88 303.90 327.95 318.20 327.00 332.00 C 326.05 345.80 329.28 360.19 325.00 373.00 Z"/>
</g>
<g fill="None" fill-opacity="0.0" stroke="#000000" stroke-opacity="0.97" stroke-width="0.3"><path d="
M 268.00 183.00 
C 266.62 173.58 262.58 166.20 260.06 158.08 C 257.55 149.96 258.46 140.02 247.00 141.00
C 237.54 155.10 237.22 170.58 231.91 184.90 C 226.59 199.22 223.33 214.72 217.00 229.00
C 215.21 219.09 212.92 213.18 210.77 204.23 C 208.62 195.28 204.55 190.27 203.31 180.70 C 202.07 171.12 195.94 165.49 183.00 167.00 C 170.06 168.51 150.26 166.45 138.00 167.00 C 125.74 167.55 110.90 164.73 112.61 176.25 C 114.31 187.76 132.15 180.32 144.00 182.00 C 155.85 183.68 175.44 180.74 188.00 182.00
C 191.37 190.88 193.09 202.90 196.29 211.70 C 199.48 220.50 202.98 232.41 205.09 240.90 C 207.21 249.39 211.34 266.15 220.75 261.19 C 230.15 256.22 227.41 242.84 231.88 233.90 C 236.36 224.96 237.05 214.20 240.74 204.75 C 244.42 195.31 246.15 184.00 251.00 175.00
C 253.23 190.54 255.09 199.14 275.00 197.00 C 294.91 194.86 316.42 197.78 336.00 198.00
C 338.09 196.68 338.84 192.97 342.00 193.00
C 342.47 178.02 327.70 183.68 314.00 183.00 C 300.30 182.32 282.11 183.51 268.00 183.00 Z"/>
</g>
<g fill="None" fill-opacity="0.0" stroke="#000000" stroke-opacity="0.02" stroke-width="0.3"><path d="
M 72.00 265.00 
C 66.38 261.86 55.60 261.88 50.00 265.00
C 50.86 277.71 56.26 303.70 39.00 301.00
C 32.66 296.12 36.90 286.57 34.00 281.00
C 27.83 283.21 20.60 281.42 14.00 282.00
C 14.01 311.00 14.01 342.98 14.00 372.00
C 19.82 372.83 30.22 375.04 34.00 371.00
C 38.02 365.98 35.48 354.41 36.00 347.00 C 36.52 339.60 36.24 331.41 35.00 325.00
C 38.74 321.63 41.90 321.24 47.00 321.00
C 53.16 328.99 50.87 341.61 51.00 353.00 C 51.13 364.39 51.72 377.90 50.00 389.00
C 55.62 392.14 66.40 392.12 72.00 389.00
C 70.33 348.28 70.33 305.74 72.00 265.00 Z"/>
</g>
<g fill="None" fill-opacity="0.0" stroke="#000000" stroke-opacity="0.01" stroke-width="0.3"><path d="
M 290.00 264.00 
C 284.55 263.38 274.39 261.09 268.00 265.00
C 269.67 305.72 269.67 348.26 268.00 389.00
C 273.60 392.89 284.69 390.65 290.00 390.00
C 288.34 348.58 288.34 305.42 290.00 264.00 Z"/>
</g>
<g fill="None" fill-opacity="0.0" stroke="#000000" stroke-opacity="0.08" stroke-width="0.3"><path d="
M 325.00 373.00 
C 329.28 360.19 326.05 345.80 327.00 332.00 C 327.95 318.20 325.88 303.90 327.00 290.00 C 328.12 276.10 301.90 277.02 304.00 291.00 C 306.10 304.98 302.55 319.26 304.00 333.00 C 305.45 346.74 301.35 360.29 306.00 373.00
C 311.77 371.37 319.21 371.36 325.00 373.00 Z"/>
</g>
<g fill="#000000" fill-opacity="0.00" stroke="None">
<path d="
M 0.00 278.00 
C 5.70 263.78 20.24 267.13 36.00 267.00
C 35.30 249.60 55.01 244.85 72.75 249.59 C 90.50 254.32 86.33 276.84 86.00 296.00
C 94.33 296.00 102.67 296.00 111.00 296.00
C 107.41 288.88 103.53 282.65 99.74 276.25 C 95.94 269.85 92.72 264.44 89.81 257.75 C 86.91 251.06 83.50 244.55 80.74 237.25 C 77.97 229.94 76.43 222.44 74.80 214.75 C 73.17 207.07 71.07 200.37 70.22 190.78 C 69.37 181.18 70.99 166.14 72.92 157.92 C 74.85 149.69 74.82 142.34 78.39 135.25 C 81.96 128.16 84.19 122.51 88.32 115.32 C 92.45 108.13 97.67 102.50 105.25 95.25 C 112.83 88.00 119.52 80.11 126.30 76.30 C 133.09 72.49 140.48 68.60 147.30 65.29 C 154.13 61.97 163.32 61.31 171.25 59.20 C 179.18 57.09 193.10 56.83 202.22 57.22 C 211.35 57.61 217.52 58.83 226.25 61.20 C 234.97 63.56 241.55 66.09 248.25 69.19 C 254.96 72.29 262.27 77.94 268.70 82.30 C 275.14 86.66 284.72 97.86 289.00 104.00
C 298.00 96.16 308.98 84.65 318.25 78.81 C 327.53 72.98 335.13 67.75 345.75 64.61 C 356.38 61.47 365.45 57.78 377.75 57.40 C 390.05 57.01 405.39 57.60 416.75 60.39 C 428.12 63.18 437.70 67.68 446.25 72.75 C 454.81 77.81 465.28 83.42 475.00 93.00
C 474.15 112.99 457.24 98.20 449.25 91.74 C 441.26 85.27 431.58 80.86 421.90 77.09 C 412.22 73.33 399.58 72.92 386.00 72.00 C 372.42 71.09 361.71 76.11 350.90 78.91 C 340.09 81.70 334.40 86.85 324.10 93.10 C 313.79 99.34 305.68 114.33 294.23 118.58 C 282.78 122.82 272.74 104.02 263.10 96.90 C 253.46 89.78 245.86 84.28 236.23 80.42 C 226.60 76.57 217.58 73.49 205.25 72.40 C 192.92 71.30 175.93 72.26 165.77 75.21 C 155.60 78.16 145.83 82.52 137.25 87.39 C 128.67 92.26 116.45 103.19 108.87 112.92 C 101.29 122.65 96.99 129.59 92.87 139.92 C 88.75 150.25 86.47 160.97 85.22 174.22 C 83.96 187.48 87.75 202.24 89.71 212.30 C 91.68 222.36 95.58 233.16 99.71 242.30 C 103.85 251.45 107.09 259.65 112.71 268.30 C 118.34 276.96 123.27 286.48 129.00 296.00
C 152.54 295.95 177.15 296.07 200.00 296.00
C 204.29 300.79 204.52 305.91 200.00 311.00
C 162.83 310.97 123.86 311.02 86.00 311.00
C 86.00 321.67 86.00 332.33 86.00 343.00
C 142.00 343.00 198.00 343.00 254.00 343.00
C 254.00 332.33 254.00 321.67 254.00 311.00
C 244.76 311.19 234.53 310.73 226.00 311.00
C 221.55 306.01 221.64 300.87 226.00 296.00
C 234.47 296.48 244.76 295.66 254.00 296.00
C 254.01 277.11 249.52 253.53 267.08 249.94 C 284.64 246.35 306.08 248.14 304.00 267.00
C 324.84 266.07 341.60 265.57 342.00 288.00 C 342.39 310.43 341.04 340.29 342.00 363.00 C 342.96 385.71 325.84 391.11 304.00 387.00
C 307.00 405.30 282.97 408.79 266.25 404.41 C 249.54 400.02 251.98 375.27 254.00 357.00
C 230.67 357.00 207.33 357.00 184.00 357.00
C 194.56 367.99 206.82 379.77 217.90 389.10 C 228.98 398.43 239.91 407.26 251.25 415.19 C 262.59 423.13 271.31 432.63 283.30 439.70 C 295.28 446.78 307.75 431.20 317.77 424.43 C 327.78 417.65 339.49 408.18 350.75 399.74 C 362.01 391.29 372.84 379.03 384.92 368.92 C 397.00 358.81 409.33 346.40 419.70 334.70 C 430.06 323.00 442.77 308.45 450.10 298.10 C 457.43 287.74 464.20 276.91 470.13 267.08 C 476.06 257.25 480.46 246.81 485.26 235.25 C 490.07 223.69 492.21 212.85 494.40 199.25 C 496.58 185.64 496.31 168.68 493.07 154.92 C 489.82 141.15 483.37 133.61 481.00 120.00
C 498.36 110.65 501.55 132.78 506.71 146.30 C 511.86 159.82 511.22 184.04 509.81 199.25 C 508.39 214.46 503.12 229.37 497.87 242.92 C 492.62 256.47 486.95 268.03 478.87 280.92 C 470.79 293.81 462.44 307.34 451.09 321.10 C 439.75 334.86 425.50 350.50 411.25 365.25 C 397.00 379.99 381.53 392.84 368.75 403.19 C 355.97 413.55 340.93 427.78 328.30 435.30 C 315.66 442.82 303.03 461.03 285.75 456.80 C 268.48 452.58 260.01 439.52 245.75 430.81 C 231.49 422.10 219.38 408.41 205.30 397.70 C 191.21 387.00 177.54 372.50 163.00 357.00
C 137.92 358.66 111.05 358.67 86.00 357.00
C 85.58 374.81 91.31 399.15 73.92 404.92 C 56.52 410.69 35.46 404.26 36.00 387.00
C 21.16 389.49 4.78 389.09 0.00 376.00
L 0.00 512.00
L 512.00 512.00
L 512.00 0.00
L 0.00 0.00
L 0.00 278.00
M 268.00 183.00 
C 282.11 183.51 300.30 182.32 314.00 183.00 C 327.70 183.68 342.47 178.02 342.00 193.00
C 338.84 192.97 338.09 196.68 336.00 198.00
C 316.42 197.78 294.91 194.86 275.00 197.00 C 255.09 199.14 253.23 190.54 251.00 175.00
C 246.15 184.00 244.42 195.31 240.74 204.75 C 237.05 214.20 236.36 224.96 231.88 233.90 C 227.41 242.84 230.15 256.22 220.75 261.19 C 211.34 266.15 207.21 249.39 205.09 240.90 C 202.98 232.41 199.48 220.50 196.29 211.70 C 193.09 202.90 191.37 190.88 188.00 182.00
C 175.44 180.74 155.85 183.68 144.00 182.00 C 132.15 180.32 114.31 187.76 112.61 176.25 C 110.90 164.73 125.74 167.55 138.00 167.00 C 150.26 166.45 170.06 168.51 183.00 167.00 C 195.94 165.49 202.07 171.12 203.31 180.70 C 204.55 190.27 208.62 195.28 210.77 204.23 C 212.92 213.18 215.21 219.09 217.00 229.00
C 223.33 214.72 226.59 199.22 231.91 184.90 C 237.22 170.58 237.54 155.10 247.00 141.00
C 258.46 140.02 257.55 149.96 260.06 158.08 C 262.58 166.20 266.62 173.58 268.00 183.00 Z"/>
</g>
<g fill="#000000" fill-opacity="0.96" stroke="None">
<path d="
M 0.00 278.00 
L 0.00 376.00
C 4.78 389.09 21.16 389.49 36.00 387.00
C 35.46 404.26 56.52 410.69 73.92 404.92 C 91.31 399.15 85.58 374.81 86.00 357.00
C 111.05 358.67 137.92 358.66 163.00 357.00
C 177.54 372.50 191.21 387.00 205.30 397.70 C 219.38 408.41 231.49 422.10 245.75 430.81 C 260.01 439.52 268.48 452.58 285.75 456.80 C 303.03 461.03 315.66 442.82 328.30 435.30 C 340.93 427.78 355.97 413.55 368.75 403.19 C 381.53 392.84 397.00 379.99 411.25 365.25 C 425.50 350.50 439.75 334.86 451.09 321.10 C 462.44 307.34 470.79 293.81 478.87 280.92 C 486.95 268.03 492.62 256.47 497.87 242.92 C 503.12 229.37 508.39 214.46 509.81 199.25 C 511.22 184.04 511.86 159.82 506.71 146.30 C 501.55 132.78 498.36 110.65 481.00 120.00
C 483.37 133.61 489.82 141.15 493.07 154.92 C 496.31 168.68 496.58 185.64 494.40 199.25 C 492.21 212.85 490.07 223.69 485.26 235.25 C 480.46 246.81 476.06 257.25 470.13 267.08 C 464.20 276.91 457.43 287.74 450.10 298.10 C 442.77 308.45 430.06 323.00 419.70 334.70 C 409.33 346.40 397.00 358.81 384.92 368.92 C 372.84 379.03 362.01 391.29 350.75 399.74 C 339.49 408.18 327.78 417.65 317.77 424.43 C 307.75 431.20 295.28 446.78 283.30 439.70 C 271.31 432.63 262.59 423.13 251.25 415.19 C 239.91 407.26 228.98 398.43 217.90 389.10 C 206.82 379.77 194.56 367.99 184.00 357.00
C 207.33 357.00 230.67 357.00 254.00 357.00
C 251.98 375.27 249.54 400.02 266.25 404.41 C 282.97 408.79 307.00 405.30 304.00 387.00
C 325.84 391.11 342.96 385.71 342.00 363.00 C 341.04 340.29 342.39 310.43 342.00 288.00 C 341.60 265.57 324.84 266.07 304.00 267.00
C 306.08 248.14 284.64 246.35 267.08 249.94 C 249.52 253.53 254.01 277.11 254.00 296.00
C 244.76 295.66 234.47 296.48 226.00 296.00
C 221.64 300.87 221.55 306.01 226.00 311.00
C 234.53 310.73 244.76 311.19 254.00 311.00
C 254.00 321.67 254.00 332.33 254.00 343.00
C 198.00 343.00 142.00 343.00 86.00 343.00
C 86.00 332.33 86.00 321.67 86.00 311.00
C 123.86 311.02 162.83 310.97 200.00 311.00
C 204.52 305.91 204.29 300.79 200.00 296.00
C 177.15 296.07 152.54 295.95 129.00 296.00
C 123.27 286.48 118.34 276.96 112.71 268.30 C 107.09 259.65 103.85 251.45 99.71 242.30 C 95.58 233.16 91.68 222.36 89.71 212.30 C 87.75 202.24 83.96 187.48 85.22 174.22 C 86.47 160.97 88.75 150.25 92.87 139.92 C 96.99 129.59 101.29 122.65 108.87 112.92 C 116.45 103.19 128.67 92.26 137.25 87.39 C 145.83 82.52 155.60 78.16 165.77 75.21 C 175.93 72.26 192.92 71.30 205.25 72.40 C 217.58 73.49 226.60 76.57 236.23 80.42 C 245.86 84.28 253.46 89.78 263.10 96.90 C 272.74 104.02 282.78 122.82 294.23 118.58 C 305.68 114.33 313.79 99.34 324.10 93.10 C 334.40 86.85 340.09 81.70 350.90 78.91 C 361.71 76.11 372.42 71.09 386.00 72.00 C 399.58 72.92 412.22 73.33 421.90 77.09 C 431.58 80.86 441.26 85.27 449.25 91.74 C 457.24 98.20 474.15 112.99 475.00 93.00
C 465.28 83.42 454.81 77.81 446.25 72.75 C 437.70 67.68 428.12 63.18 416.75 60.39 C 405.39 57.60 390.05 57.01 377.75 57.40 C 365.45 57.78 356.38 61.47 345.75 64.61 C 335.13 67.75 327.53 72.98 318.25 78.81 C 308.98 84.65 298.00 96.16 289.00 104.00
C 284.72 97.86 275.14 86.66 268.70 82.30 C 262.27 77.94 254.96 72.29 248.25 69.19 C 241.55 66.09 234.97 63.56 226.25 61.20 C 217.52 58.83 211.35 57.61 202.22 57.22 C 193.10 56.83 179.18 57.09 171.25 59.20 C 163.32 61.31 154.13 61.97 147.30 65.29 C 140.48 68.60 133.09 72.49 126.30 76.30 C 119.52 80.11 112.83 88.00 105.25 95.25 C 97.67 102.50 92.45 108.13 88.32 115.32 C 84.19 122.51 81.96 128.16 78.39 135.25 C 74.82 142.34 74.85 149.69 72.92 157.92 C 70.99 166.14 69.37 181.18 70.22 190.78 C 71.07 200.37 73.17 207.07 74.80 214.75 C 76.43 222.44 77.97 229.94 80.74 237.25 C 83.50 244.55 86.91 251.06 89.81 257.75 C 92.72 264.44 95.94 269.85 99.74 276.25 C 103.53 282.65 107.41 288.88 111.00 296.00
C 102.67 296.00 94.33 296.00 86.00 296.00
C 86.33 276.84 90.50 254.32 72.75 249.59 C 55.01 244.85 35.30 249.60 36.00 267.00
C 20.24 267.13 5.70 263.78 0.00 278.00
M 72.00 265.00 
C 70.33 305.74 70.33 348.28 72.00 389.00
C 66.40 392.12 55.62 392.14 50.00 389.00
C 51.72 377.90 51.13 364.39 51.00 353.00 C 50.87 341.61 53.16 328.99 47.00 321.00
C 41.90 321.24 38.74 321.63 35.00 325.00
C 36.24 331.41 36.52 339.60 36.00 347.00 C 35.48 354.41 38.02 365.98 34.00 371.00
C 30.22 375.04 19.82 372.83 14.00 372.00
C 14.01 342.98 14.01 311.00 14.00 282.00
C 20.60 281.42 27.83 283.21 34.00 281.00
C 36.90 286.57 32.66 296.12 39.00 301.00
C 56.26 303.70 50.86 277.71 50.00 265.00
C 55.60 261.88 66.38 261.86 72.00 265.00
M 290.00 264.00 
C 288.34 305.42 288.34 348.58 290.00 390.00
C 284.69 390.65 273.60 392.89 268.00 389.00
C 269.67 348.26 269.67 305.72 268.00 265.00
C 274.39 261.09 284.55 263.38 290.00 264.00
M 325.00 373.00 
C 319.21 371.36 311.77 371.37 306.00 373.00
C 301.35 360.29 305.45 346.74 304.00 333.00 C 302.55 319.26 306.10 304.98 304.00 291.00 C 301.90 277.02 328.12 276.10 327.00 290.00 C 325.88 303.90 327.95 318.20 327.00 332.00 C 326.05 345.80 329.28 360.19 325.00 373.00 Z"/>
</g>
<g fill="#000000" fill-opacity="0.97" stroke="None">
<path d="
M 268.00 183.00 
C 266.62 173.58 262.58 166.20 260.06 158.08 C 257.55 149.96 258.46 140.02 247.00 141.00
C 237.54 155.10 237.22 170.58 231.91 184.90 C 226.59 199.22 223.33 214.72 217.00 229.00
C 215.21 219.09 212.92 213.18 210.77 204.23 C 208.62 195.28 204.55 190.27 203.31 180.70 C 202.07 171.12 195.94 165.49 183.00 167.00 C 170.06 168.51 150.26 166.45 138.00 167.00 C 125.74 167.55 110.90 164.73 112.61 176.25 C 114.31 187.76 132.15 180.32 144.00 182.00 C 155.85 183.68 175.44 180.74 188.00 182.00
C 191.37 190.88 193.09 202.90 196.29 211.70 C 199.48 220.50 202.98 232.41 205.09 240.90 C 207.21 249.39 211.34 266.15 220.75 261.19 C 230.15 256.22 227.41 242.84 231.88 233.90 C 236.36 224.96 237.05 214.20 240.74 204.75 C 244.42 195.31 246.15 184.00 251.00 175.00
C 253.23 190.54 255.09 199.14 275.00 197.00 C 294.91 194.86 316.42 197.78 336.00 198.00
C 338.09 196.68 338.84 192.97 342.00 193.00
C 342.47 178.02 327.70 183.68 314.00 183.00 C 300.30 182.32 282.11 183.51 268.00 183.00 Z"/>
</g>
<g fill="#000000" fill-opacity="0.02" stroke="None">
<path d="
M 72.00 265.00 
C 66.38 261.86 55.60 261.88 50.00 265.00
C 50.86 277.71 56.26 303.70 39.00 301.00
C 32.66 296.12 36.90 286.57 34.00 281.00
C 27.83 283.21 20.60 281.42 14.00 282.00
C 14.01 311.00 14.01 342.98 14.00 372.00
C 19.82 372.83 30.22 375.04 34.00 371.00
C 38.02 365.98 35.48 354.41 36.00 347.00 C 36.52 339.60 36.24 331.41 35.00 325.00
C 38.74 321.63 41.90 321.24 47.00 321.00
C 53.16 328.99 50.87 341.61 51.00 353.00 C 51.13 364.39 51.72 377.90 50.00 389.00
C 55.62 392.14 66.40 392.12 72.00 389.00
C 70.33 348.28 70.33 305.74 72.00 265.00 Z"/>
</g>
<g fill="#000000" fill-opacity="0.01" stroke="None">
<path d="
M 290.00 264.00 
C 284.55 263.38 274.39 261.09 268.00 265.00
C 269.67 305.72 269.67 348.26 268.00 389.00
C 273.60 392.89 284.69 390.65 290.00 390.00
C 288.34 348.58 288.34 305.42 290.00 264.00 Z"/>
</g>
<g fill="#000000" fill-opacity="0.08" stroke="None">
<path d="
M 325.00 373.00 
C 329.28 360.19 326.05 345.80 327.00 332.00 C 327.95 318.20 325.88 303.90 327.00 290.00 C 328.12 276.10 301.90 277.02 304.00 291.00 C 306.10 304.98 302.55 319.26 304.00 333.00 C 305.45 346.74 301.35 360.29 306.00 373.00
C 311.77 371.37 319.21 371.36 325.00 373.00 Z"/>
</g>
</svg>