<svg xmlns="http://www.w3.org/2000/svg" xmlns:v="https://svgstorm.com"
viewBox = "0 0 512 512"
width="512"
height="512">
<g fill="None" fill-opacity="0.0" stroke="#000000" stroke-opacity="0.00" stroke-width="0.3"><path d="
M 0.00 22.00 
C 1.24 19.87 3.40 18.33 4.00 16.00
C 170.91 16.00 341.00 16.00 508.00 16.00
C 508.69 18.07 510.63 20.09 512.00 22.00
L 512.00 0.00
L 0.00 0.00
L 0.00 22.00 Z"/>
</g>
<g fill="None" fill-opacity="0.0" stroke="#000000" stroke-opacity="1.00" stroke-width="0.3"><path d="
M 0.00 22.00 
L 0.00 465.00
C 0.93 467.61 2.53 469.37 4.00 472.00
C 29.25 473.50 61.34 472.68 76.77 464.43 C 92.20 456.17 106.38 454.97 121.75 447.61 C 137.13 440.25 152.43 437.45 168.00 428.00
C 167.99 347.50 168.01 265.20 168.00 184.00
C 226.46 184.78 285.40 185.39 344.00 186.00
C 344.67 215.50 342.67 246.32 345.00 275.00
C 349.58 266.21 345.61 261.31 353.91 254.90 C 362.20 248.49 359.15 230.57 360.00 219.00 C 360.85 207.43 356.63 186.54 362.25 177.25 C 367.87 167.96 376.74 162.99 383.25 155.25 C 389.76 147.50 396.13 141.48 403.75 133.75 C 411.37 126.02 418.82 119.69 426.25 112.25 C 433.68 104.80 440.35 97.18 448.00 90.00
C 447.95 103.80 448.07 117.15 448.00 131.00 C 447.93 144.85 448.12 159.10 448.00 173.00 C 447.88 186.90 448.27 201.12 448.00 215.00 C 447.73 228.88 448.60 242.12 448.00 256.00 C 447.40 269.88 449.30 284.08 448.00 298.00 C 446.70 311.92 456.79 310.51 463.00 321.00
C 465.34 237.71 463.33 151.32 464.00 68.00
C 449.38 60.37 429.03 64.83 410.00 64.00 C 390.97 63.17 369.55 64.38 350.00 64.00 C 330.45 63.62 309.77 64.17 290.00 64.00 C 270.23 63.83 249.85 64.08 230.00 64.00 C 210.15 63.92 189.81 64.05 170.00 64.00 C 150.19 63.95 129.66 64.06 110.00 64.00 C 90.34 63.94 70.73 64.11 52.00 64.00
C 44.55 77.54 48.74 96.03 48.00 114.00 C 47.26 131.97 48.33 152.47 48.00 171.00 C 47.67 189.53 48.15 209.21 48.00 228.00 C 47.85 246.79 48.07 266.10 48.00 285.00 C 47.93 303.90 48.03 323.04 48.00 342.00 C 47.97 360.96 48.02 380.02 48.00 399.00 C 47.98 417.98 48.01 437.02 48.00 456.00
C 37.33 456.00 26.67 456.00 16.00 456.00
C 16.00 314.67 16.00 173.33 16.00 32.00
C 176.00 32.00 336.00 32.00 496.00 32.00
C 496.00 148.00 496.00 264.00 496.00 380.00
C 484.00 380.00 472.00 380.00 460.00 380.00
C 459.53 370.42 460.88 357.66 459.20 349.75 C 457.52 341.85 457.38 339.07 453.61 333.25 C 449.84 327.43 440.73 322.63 437.08 319.87 C 433.43 317.11 421.89 318.30 420.00 313.00
C 426.11 303.11 425.27 282.94 421.61 271.25 C 417.94 259.56 401.05 251.26 389.31 252.65 C 377.56 254.04 365.79 260.92 361.87 272.92 C 357.95 284.92 359.40 305.65 364.00 316.00
C 332.82 317.04 319.00 343.92 324.00 380.00
C 310.79 379.81 296.41 380.27 284.00 380.00
C 277.27 388.36 280.54 401.62 280.00 414.00 C 279.46 426.38 280.33 441.39 280.00 454.00 C 279.67 466.61 280.35 480.07 280.00 492.00
C 294.30 499.67 314.39 495.15 333.00 496.00 C 351.61 496.85 372.94 495.59 392.00 496.00 C 411.06 496.41 431.88 495.76 451.00 496.00 C 470.12 496.24 489.63 495.77 508.00 496.00
C 509.20 493.58 510.74 492.13 512.00 490.00
L 512.00 22.00
C 510.63 20.09 508.69 18.07 508.00 16.00
C 341.00 16.00 170.91 16.00 4.00 16.00
C 3.40 18.33 1.24 19.87 0.00 22.00
M 435.00 80.00 
C 425.19 89.05 417.65 98.47 408.25 108.25 C 398.85 118.03 389.74 125.64 380.30 135.30 C 370.87 144.97 363.18 152.77 352.75 162.75 C 342.32 172.74 322.80 170.91 307.00 170.00 C 291.20 169.09 271.88 170.59 255.93 169.07 C 239.97 167.55 220.17 169.77 204.98 168.98 C 189.79 168.18 168.83 172.50 157.75 163.25 C 146.68 154.00 140.30 145.00 130.25 135.75 C 120.20 126.50 112.37 117.56 102.75 108.25 C 93.14 98.94 83.98 89.67 75.00 80.00
C 195.00 80.00 315.00 80.00 435.00 80.00
M 152.00 419.00 
C 121.74 429.29 94.67 441.44 64.00 452.00
C 64.00 331.67 64.00 211.33 64.00 91.00
C 73.68 99.25 80.76 107.96 90.25 116.75 C 99.73 125.54 106.10 133.75 116.25 142.75 C 126.39 151.76 130.46 159.31 142.25 168.75 C 154.03 178.20 152.71 195.01 152.00 211.00 C 151.29 226.99 152.32 246.28 152.00 263.00 C 151.68 279.72 152.15 297.95 152.00 315.00 C 151.85 332.05 152.08 349.81 152.00 367.00 C 151.92 384.19 152.06 401.78 152.00 419.00
M 388.00 268.00 
C 407.41 264.39 407.69 283.25 408.00 300.00 C 408.31 316.75 387.24 319.69 379.41 310.25 C 371.58 300.80 373.13 270.77 388.00 268.00
M 400.00 331.00 
C 401.57 334.76 396.05 344.65 391.92 344.92 C 387.78 345.18 381.98 334.36 384.00 331.00
C 389.23 332.17 394.74 331.71 400.00 331.00
M 368.00 332.00 
C 364.51 344.30 374.60 350.20 381.75 358.25 C 388.91 366.30 395.93 364.95 403.25 357.25 C 410.57 349.55 419.25 343.78 416.00 332.00
C 442.36 329.53 447.17 354.68 444.00 380.00
C 409.33 380.00 374.67 380.00 340.00 380.00
C 336.99 354.97 341.51 329.71 368.00 332.00
M 496.00 396.00 
C 496.00 424.00 496.00 452.00 496.00 480.00
C 429.33 480.00 362.67 480.00 296.00 480.00
C 296.00 452.00 296.00 424.00 296.00 396.00
C 362.67 396.00 429.33 396.00 496.00 396.00 Z"/>
</g>
<g fill="None" fill-opacity="0.0" stroke="#000000" stroke-opacity="0.00" stroke-width="0.3"><path d="
M 0.00 465.00 
L 0.00 512.00
L 512.00 512.00
L 512.00 490.00
C 510.74 492.13 509.20 493.58 508.00 496.00
C 489.63 495.77 470.12 496.24 451.00 496.00 C 431.88 495.76 411.06 496.41 392.00 496.00 C 372.94 495.59 351.61 496.85 333.00 496.00 C 314.39 495.15 294.30 499.67 280.00 492.00
C 280.35 480.07 279.67 466.61 280.00 454.00 C 280.33 441.39 279.46 426.38 280.00 414.00 C 280.54 401.62 277.27 388.36 284.00 380.00
C 296.41 380.27 310.79 379.81 324.00 380.00
C 319.00 343.92 332.82 317.04 364.00 316.00
C 359.40 305.65 357.95 284.92 361.87 272.92 C 365.79 260.92 377.56 254.04 389.31 252.65 C 401.05 251.26 417.94 259.56 421.61 271.25 C 425.27 282.94 426.11 303.11 420.00 313.00
C 421.89 318.30 433.43 317.11 437.08 319.87 C 440.73 322.63 449.84 327.43 453.61 333.25 C 457.38 339.07 457.52 341.85 459.20 349.75 C 460.88 357.66 459.53 370.42 460.00 380.00
C 472.00 380.00 484.00 380.00 496.00 380.00
C 496.00 264.00 496.00 148.00 496.00 32.00
C 336.00 32.00 176.00 32.00 16.00 32.00
C 16.00 173.33 16.00 314.67 16.00 456.00
C 26.67 456.00 37.33 456.00 48.00 456.00
C 48.01 437.02 47.98 417.98 48.00 399.00 C 48.02 380.02 47.97 360.96 48.00 342.00 C 48.03 323.04 47.93 303.90 48.00 285.00 C 48.07 266.10 47.85 246.79 48.00 228.00 C 48.15 209.21 47.67 189.53 48.00 171.00 C 48.33 152.47 47.26 131.97 48.00 114.00 C 48.74 96.03 44.55 77.54 52.00 64.00
C 70.73 64.11 90.34 63.94 110.00 64.00 C 129.66 64.06 150.19 63.95 170.00 64.00 C 189.81 64.05 210.15 63.92 230.00 64.00 C 249.85 64.08 270.23 63.83 290.00 64.00 C 309.77 64.17 330.45 63.62 350.00 64.00 C 369.55 64.38 390.97 63.17 410.00 64.00 C 429.03 64.83 449.38 60.37 464.00 68.00
C 463.33 151.32 465.34 237.71 463.00 321.00
C 456.79 310.51 446.70 311.92 448.00 298.00 C 449.30 284.08 447.40 269.88 448.00 256.00 C 448.60 242.12 447.73 228.88 448.00 215.00 C 448.27 201.12 447.88 186.90 448.00 173.00 C 448.12 159.10 447.93 144.85 448.00 131.00 C 448.07 117.15 447.95 103.80 448.00 90.00
C 440.35 97.18 433.68 104.80 426.25 112.25 C 418.82 119.69 411.37 126.02 403.75 133.75 C 396.13 141.48 389.76 147.50 383.25 155.25 C 376.74 162.99 367.87 167.96 362.25 177.25 C 356.63 186.54 360.85 207.43 360.00 219.00 C 359.15 230.57 362.20 248.49 353.91 254.90 C 345.61 261.31 349.58 266.21 345.00 275.00
C 342.67 246.32 344.67 215.50 344.00 186.00
C 285.40 185.39 226.46 184.78 168.00 184.00
C 168.01 265.20 167.99 347.50 168.00 428.00
C 152.43 437.45 137.13 440.25 121.75 447.61 C 106.38 454.97 92.20 456.17 76.77 464.43 C 61.34 472.68 29.25 473.50 4.00 472.00
C 2.53 469.37 0.93 467.61 0.00 465.00 Z"/>
</g>
<g fill="None" fill-opacity="0.0" stroke="#000000" stroke-opacity="0.01" stroke-width="0.3"><path d="
M 435.00 80.00 
C 315.00 80.00 195.00 80.00 75.00 80.00
C 83.98 89.67 93.14 98.94 102.75 108.25 C 112.37 117.56 120.20 126.50 130.25 135.75 C 140.30 145.00 146.68 154.00 157.75 163.25 C 168.83 172.50 189.79 168.18 204.98 168.98 C 220.17 169.77 239.97 167.55 255.93 169.07 C 271.88 170.59 291.20 169.09 307.00 170.00 C 322.80 170.91 342.32 172.74 352.75 162.75 C 363.18 152.77 370.87 144.97 380.30 135.30 C 389.74 125.64 398.85 118.03 408.25 108.25 C 417.65 98.47 425.19 89.05 435.00 80.00 Z"/>
</g>
<g fill="None" fill-opacity="0.0" stroke="#000000" stroke-opacity="0.00" stroke-width="0.3"><path d="
M 152.00 419.00 
C 152.06 401.78 151.92 384.19 152.00 367.00 C 152.08 349.81 151.85 332.05 152.00 315.00 C 152.15 297.95 151.68 279.72 152.00 263.00 C 152.32 246.28 151.29 226.99 152.00 211.00 C 152.71 195.01 154.03 178.20 142.25 168.75 C 130.46 159.31 126.39 151.76 116.25 142.75 C 106.10 133.75 99.73 125.54 90.25 116.75 C 80.76 107.96 73.68 99.25 64.00 91.00
C 64.00 211.33 64.00 331.67 64.00 452.00
C 94.67 441.44 121.74 429.29 152.00 419.00 Z"/>
</g>
<g fill="None" fill-opacity="0.0" stroke="#000000" stroke-opacity="0.02" stroke-width="0.3"><path d="
M 388.00 268.00 
C 373.13 270.77 371.58 300.80 379.41 310.25 C 387.24 319.69 408.31 316.75 408.00 300.00 C 407.69 283.25 407.41 264.39 388.00 268.00 Z"/>
</g>
<g fill="None" fill-opacity="0.0" stroke="#000000" stroke-opacity="0.05" stroke-width="0.3"><path d="
M 400.00 331.00 
C 394.74 331.71 389.23 332.17 384.00 331.00
C 381.98 334.36 387.78 345.18 391.92 344.92 C 396.05 344.65 401.57 334.76 400.00 331.00 Z"/>
</g>
<g fill="None" fill-opacity="0.0" stroke="#000000" stroke-opacity="0.01" stroke-width="0.3"><path d="
M 368.00 332.00 
C 341.51 329.71 336.99 354.97 340.00 380.00
C 374.67 380.00 409.33 380.00 444.00 380.00
C 447.17 354.68 442.36 329.53 416.00 332.00
C 419.25 343.78 410.57 349.55 403.25 357.25 C 395.93 364.95 388.91 366.30 381.75 358.25 C 374.60 350.20 364.51 344.30 368.00 332.00 Z"/>
</g>
<g fill="None" fill-opacity="0.0" stroke="#000000" stroke-opacity="0.00" stroke-width="0.3"><path d="
M 496.00 396.00 
C 429.33 396.00 362.67 396.00 296.00 396.00
C 296.00 424.00 296.00 452.00 296.00 480.00
C 362.67 480.00 429.33 480.00 496.00 480.00
C 496.00 452.00 496.00 424.00 496.00 396.00 Z"/>
</g>
<g fill="#000000" fill-opacity="0.00" stroke="None">
<path d="
M 0.00 22.00 
C 1.24 19.87 3.40 18.33 4.00 16.00
C 170.91 16.00 341.00 16.00 508.00 16.00
C 508.69 18.07 510.63 20.09 512.00 22.00
L 512.00 0.00
L 0.00 0.00
L 0.00 22.00 Z"/>
</g>
<g fill="#000000" fill-opacity="1.00" stroke="None">
<path d="
M 0.00 22.00 
L 0.00 465.00
C 0.93 467.61 2.53 469.37 4.00 472.00
C 29.25 473.50 61.34 472.68 76.77 464.43 C 92.20 456.17 106.38 454.97 121.75 447.61 C 137.13 440.25 152.43 437.45 168.00 428.00
C 167.99 347.50 168.01 265.20 168.00 184.00
C 226.46 184.78 285.40 185.39 344.00 186.00
C 344.67 215.50 342.67 246.32 345.00 275.00
C 349.58 266.21 345.61 261.31 353.91 254.90 C 362.20 248.49 359.15 230.57 360.00 219.00 C 360.85 207.43 356.63 186.54 362.25 177.25 C 367.87 167.96 376.74 162.99 383.25 155.25 C 389.76 147.50 396.13 141.48 403.75 133.75 C 411.37 126.02 418.82 119.69 426.25 112.25 C 433.68 104.80 440.35 97.18 448.00 90.00
C 447.95 103.80 448.07 117.15 448.00 131.00 C 447.93 144.85 448.12 159.10 448.00 173.00 C 447.88 186.90 448.27 201.12 448.00 215.00 C 447.73 228.88 448.60 242.12 448.00 256.00 C 447.40 269.88 449.30 284.08 448.00 298.00 C 446.70 311.92 456.79 310.51 463.00 321.00
C 465.34 237.71 463.33 151.32 464.00 68.00
C 449.38 60.37 429.03 64.83 410.00 64.00 C 390.97 63.17 369.55 64.38 350.00 64.00 C 330.45 63.62 309.77 64.17 290.00 64.00 C 270.23 63.83 249.85 64.08 230.00 64.00 C 210.15 63.92 189.81 64.05 170.00 64.00 C 150.19 63.95 129.66 64.06 110.00 64.00 C 90.34 63.94 70.73 64.11 52.00 64.00
C 44.55 77.54 48.74 96.03 48.00 114.00 C 47.26 131.97 48.33 152.47 48.00 171.00 C 47.67 189.53 48.15 209.21 48.00 228.00 C 47.85 246.79 48.07 266.10 48.00 285.00 C 47.93 303.90 48.03 323.04 48.00 342.00 C 47.97 360.96 48.02 380.02 48.00 399.00 C 47.98 417.98 48.01 437.02 48.00 456.00
C 37.33 456.00 26.67 456.00 16.00 456.00
C 16.00 314.67 16.00 173.33 16.00 32.00
C 176.00 32.00 336.00 32.00 496.00 32.00
C 496.00 148.00 496.00 264.00 496.00 380.00
C 484.00 380.00 472.00 380.00 460.00 380.00
C 459.53 370.42 460.88 357.66 459.20 349.75 C 457.52 341.85 457.38 339.07 453.61 333.25 C 449.84 327.43 440.73 322.63 437.08 319.87 C 433.43 317.11 421.89 318.30 420.00 313.00
C 426.11 303.11 425.27 282.94 421.61 271.25 C 417.94 259.56 401.05 251.26 389.31 252.65 C 377.56 254.04 365.79 260.92 361.87 272.92 C 357.95 284.92 359.40 305.65 364.00 316.00
C 332.82 317.04 319.00 343.92 324.00 380.00
C 310.79 379.81 296.41 380.27 284.00 380.00
C 277.27 388.36 280.54 401.62 280.00 414.00 C 279.46 426.38 280.33 441.39 280.00 454.00 C 279.67 466.61 280.35 480.07 280.00 492.00
C 294.30 499.67 314.39 495.15 333.00 496.00 C 351.61 496.85 372.94 495.59 392.00 496.00 C 411.06 496.41 431.88 495.76 451.00 496.00 C 470.12 496.24 489.63 495.77 508.00 496.00
C 509.20 493.58 510.74 492.13 512.00 490.00
L 512.00 22.00
C 510.63 20.09 508.69 18.07 508.00 16.00
C 341.00 16.00 170.91 16.00 4.00 16.00
C 3.40 18.33 1.24 19.87 0.00 22.00
M 435.00 80.00 
C 425.19 89.05 417.65 98.47 408.25 108.25 C 398.85 118.03 389.74 125.64 380.30 135.30 C 370.87 144.97 363.18 152.77 352.75 162.75 C 342.32 172.74 322.80 170.91 307.00 170.00 C 291.20 169.09 271.88 170.59 255.93 169.07 C 239.97 167.55 220.17 169.77 204.98 168.98 C 189.79 168.18 168.83 172.50 157.75 163.25 C 146.68 154.00 140.30 145.00 130.25 135.75 C 120.20 126.50 112.37 117.56 102.75 108.25 C 93.14 98.94 83.98 89.67 75.00 80.00
C 195.00 80.00 315.00 80.00 435.00 80.00
M 152.00 419.00 
C 121.74 429.29 94.67 441.44 64.00 452.00
C 64.00 331.67 64.00 211.33 64.00 91.00
C 73.68 99.25 80.76 107.96 90.25 116.75 C 99.73 125.54 106.10 133.75 116.25 142.75 C 126.39 151.76 130.46 159.31 142.25 168.75 C 154.03 178.20 152.71 195.01 152.00 211.00 C 151.29 226.99 152.32 246.28 152.00 263.00 C 151.68 279.72 152.15 297.95 152.00 315.00 C 151.85 332.05 152.08 349.81 152.00 367.00 C 151.92 384.19 152.06 401.78 152.00 419.00
M 388.00 268.00 
C 407.41 264.39 407.69 283.25 408.00 300.00 C 408.31 316.75 387.24 319.69 379.41 310.25 C 371.58 300.80 373.13 270.77 388.00 268.00
M 400.00 331.00 
C 401.57 334.76 396.05 344.65 391.92 344.92 C 387.78 345.18 381.98 334.36 384.00 331.00
C 389.23 332.17 394.74 331.71 400.00 331.00
M 368.00 332.00 
C 364.51 344.30 374.60 350.20 381.75 358.25 C 388.91 366.30 395.93 364.95 403.25 357.25 C 410.57 349.55 419.25 343.78 416.00 332.00
C 442.36 329.53 447.17 354.68 444.00 380.00
C 409.33 380.00 374.67 380.00 340.00 380.00
C 336.99 354.97 341.51 329.71 368.00 332.00
M 496.00 396.00 
C 496.00 424.00 496.00 452.00 496.00 480.00
C 429.33 480.00 362.67 480.00 296.00 480.00
C 296.00 452.00 296.00 424.00 296.00 396.00
C 362.67 396.00 429.33 396.00 496.00 396.00 Z"/>
</g>
<g fill="#000000" fill-opacity="0.00" stroke="None">
<path d="
M 0.00 465.00 
L 0.00 512.00
L 512.00 512.00
L 512.00 490.00
C 510.74 492.13 509.20 493.58 508.00 496.00
C 489.63 495.77 470.12 496.24 451.00 496.00 C 431.88 495.76 411.06 496.41 392.00 496.00 C 372.94 495.59 351.61 496.85 333.00 496.00 C 314.39 495.15 294.30 499.67 280.00 492.00
C 280.35 480.07 279.67 466.61 280.00 454.00 C 280.33 441.39 279.46 426.38 280.00 414.00 C 280.54 401.62 277.27 388.36 284.00 380.00
C 296.41 380.27 310.79 379.81 324.00 380.00
C 319.00 343.92 332.82 317.04 364.00 316.00
C 359.40 305.65 357.95 284.92 361.87 272.92 C 365.79 260.92 377.56 254.04 389.31 252.65 C 401.05 251.26 417.94 259.56 421.61 271.25 C 425.27 282.94 426.11 303.11 420.00 313.00
C 421.89 318.30 433.43 317.11 437.08 319.87 C 440.73 322.63 449.84 327.43 453.61 333.25 C 457.38 339.07 457.52 341.85 459.20 349.75 C 460.88 357.66 459.53 370.42 460.00 380.00
C 472.00 380.00 484.00 380.00 496.00 380.00
C 496.00 264.00 496.00 148.00 496.00 32.00
C 336.00 32.00 176.00 32.00 16.00 32.00
C 16.00 173.33 16.00 314.67 16.00 456.00
C 26.67 456.00 37.33 456.00 48.00 456.00
C 48.01 437.02 47.98 417.98 48.00 399.00 C 48.02 380.02 47.97 360.96 48.00 342.00 C 48.03 323.04 47.93 303.90 48.00 285.00 C 48.07 266.10 47.85 246.79 48.00 228.00 C 48.15 209.21 47.67 189.53 48.00 171.00 C 48.33 152.47 47.26 131.97 48.00 114.00 C 48.74 96.03 44.55 77.54 52.00 64.00
C 70.73 64.11 90.34 63.94 110.00 64.00 C 129.66 64.06 150.19 63.95 170.00 64.00 C 189.81 64.05 210.15 63.92 230.00 64.00 C 249.85 64.08 270.23 63.83 290.00 64.00 C 309.77 64.17 330.45 63.62 350.00 64.00 C 369.55 64.38 390.97 63.17 410.00 64.00 C 429.03 64.83 449.38 60.37 464.00 68.00
C 463.33 151.32 465.34 237.71 463.00 321.00
C 456.79 310.51 446.70 311.92 448.00 298.00 C 449.30 284.08 447.40 269.88 448.00 256.00 C 448.60 242.12 447.73 228.88 448.00 215.00 C 448.27 201.12 447.88 186.90 448.00 173.00 C 448.12 159.10 447.93 144.85 448.00 131.00 C 448.07 117.15 447.95 103.80 448.00 90.00
C 440.35 97.18 433.68 104.80 426.25 112.25 C 418.82 119.69 411.37 126.02 403.75 133.75 C 396.13 141.48 389.76 147.50 383.25 155.25 C 376.74 162.99 367.87 167.96 362.25 177.25 C 356.63 186.54 360.85 207.43 360.00 219.00 C 359.15 230.57 362.20 248.49 353.91 254.90 C 345.61 261.31 349.58 266.21 345.00 275.00
C 342.67 246.32 344.67 215.50 344.00 186.00
C 285.40 185.39 226.46 184.78 168.00 184.00
C 168.01 265.20 167.99 347.50 168.00 428.00
C 152.43 437.45 137.13 440.25 121.75 447.61 C 106.38 454.97 92.20 456.17 76.77 464.43 C 61.34 472.68 29.25 473.50 4.00 472.00
C 2.53 469.37 0.93 467.61 0.00 465.00 Z"/>
</g>
<g fill="#000000" fill-opacity="0.01" stroke="None">
<path d="
M 435.00 80.00 
C 315.00 80.00 195.00 80.00 75.00 80.00
C 83.98 89.67 93.14 98.94 102.75 108.25 C 112.37 117.56 120.20 126.50 130.25 135.75 C 140.30 145.00 146.68 154.00 157.75 163.25 C 168.83 172.50 189.79 168.18 204.98 168.98 C 220.17 169.77 239.97 167.55 255.93 169.07 C 271.88 170.59 291.20 169.09 307.00 170.00 C 322.80 170.91 342.32 172.74 352.75 162.75 C 363.18 152.77 370.87 144.97 380.30 135.30 C 389.74 125.64 398.85 118.03 408.25 108.25 C 417.65 98.47 425.19 89.05 435.00 80.00 Z"/>
</g>
<g fill="#000000" fill-opacity="0.00" stroke="None">
<path d="
M 152.00 419.00 
C 152.06 401.78 151.92 384.19 152.00 367.00 C 152.08 349.81 151.85 332.05 152.00 315.00 C 152.15 297.95 151.68 279.72 152.00 263.00 C 152.32 246.28 151.29 226.99 152.00 211.00 C 152.71 195.01 154.03 178.20 142.25 168.75 C 130.46 159.31 126.39 151.76 116.25 142.75 C 106.10 133.75 99.73 125.54 90.25 116.75 C 80.76 107.96 73.68 99.25 64.00 91.00
C 64.00 211.33 64.00 331.67 64.00 452.00
C 94.67 441.44 121.74 429.29 152.00 419.00 Z"/>
</g>
<g fill="#000000" fill-opacity="0.02" stroke="None">
<path d="
M 388.00 268.00 
C 373.13 270.77 371.58 300.80 379.41 310.25 C 387.24 319.69 408.31 316.75 408.00 300.00 C 407.69 283.25 407.41 264.39 388.00 268.00 Z"/>
</g>
<g fill="#000000" fill-opacity="0.05" stroke="None">
<path d="
M 400.00 331.00 
C 394.74 331.71 389.23 332.17 384.00 331.00
C 381.98 334.36 387.78 345.18 391.92 344.92 C 396.05 344.65 401.57 334.76 400.00 331.00 Z"/>
</g>
<g fill="#000000" fill-opacity="0.01" stroke="None">
<path d="
M 368.00 332.00 
C 341.51 329.71 336.99 354.97 340.00 380.00
C 374.67 380.00 409.33 380.00 444.00 380.00
C 447.17 354.68 442.36 329.53 416.00 332.00
C 419.25 343.78 410.57 349.55 403.25 357.25 C 395.93 364.95 388.91 366.30 381.75 358.25 C 374.60 350.20 364.51 344.30 368.00 332.00 Z"/>
</g>
<g fill="#000000" fill-opacity="0.00" stroke="None">
<path d="
M 496.00 396.00 
C 429.33 396.00 362.67 396.00 296.00 396.00
C 296.00 424.00 296.00 452.00 296.00 480.00
C 362.67 480.00 429.33 480.00 496.00 480.00
C 496.00 452.00 496.00 424.00 496.00 396.00 Z"/>
</g>
</svg>