<svg xmlns="http://www.w3.org/2000/svg" xmlns:v="https://svgstorm.com"
viewBox = "0 0 512 512"
width="512"
height="512">
<g fill="None" fill-opacity="0.0" stroke="#000000" stroke-opacity="0.00" stroke-width="0.3"><path d="
M 0.00 26.00 
C 1.01 24.58 3.10 23.09 3.00 21.00
C 170.69 21.00 341.34 21.00 509.00 21.00
C 509.11 22.96 510.79 24.76 512.00 26.00
L 512.00 0.00
L 0.00 0.00
L 0.00 26.00 Z"/>
</g>
<g fill="None" fill-opacity="0.0" stroke="#000000" stroke-opacity="0.97" stroke-width="0.3"><path d="
M 0.00 26.00 
L 0.00 486.00
C 1.01 487.42 3.10 488.91 3.00 491.00
C 36.13 490.35 74.10 492.30 106.00 490.00
C 108.81 461.87 104.86 432.75 100.61 409.25 C 96.35 385.75 89.88 363.77 82.79 343.77 C 75.70 323.77 65.34 308.50 55.00 289.00
C 77.66 274.76 104.92 247.52 119.70 225.70 C 134.48 203.87 143.44 185.71 152.19 161.75 C 160.94 137.78 168.60 107.45 168.00 78.00
C 226.67 78.00 285.33 78.00 344.00 78.00
C 343.82 106.82 350.68 137.54 359.59 161.75 C 368.50 185.96 377.32 203.49 392.19 225.25 C 407.06 247.02 434.59 274.88 457.00 289.00
C 450.12 301.43 444.88 309.36 439.81 321.25 C 434.74 333.14 428.39 344.40 424.88 356.90 C 421.38 369.40 416.28 384.47 413.42 397.77 C 410.57 411.07 409.02 423.56 407.80 438.25 C 406.58 452.93 401.15 474.49 408.00 491.00
C 418.84 490.51 431.47 491.55 443.00 491.00 C 454.53 490.45 468.74 491.96 480.00 491.00 C 491.26 490.04 505.66 495.21 512.00 486.00
L 512.00 26.00
C 510.79 24.76 509.11 22.96 509.00 21.00
C 341.34 21.00 170.69 21.00 3.00 21.00
C 3.10 23.09 1.01 24.58 0.00 26.00
M 500.00 33.00 
C 500.00 44.00 500.00 55.00 500.00 66.00
C 337.12 65.09 174.88 65.09 12.00 66.00
C 12.00 55.00 12.00 44.00 12.00 33.00
C 174.66 33.00 337.34 33.00 500.00 33.00
M 79.00 78.00 
C 74.20 107.03 66.14 128.35 40.00 148.00
C 39.56 153.98 41.80 158.01 48.00 158.00
C 60.67 148.42 72.67 132.25 78.39 120.25 C 84.11 108.24 90.54 94.15 90.00 78.00
C 99.00 78.00 108.00 78.00 117.00 78.00
C 114.92 107.68 108.10 134.85 96.41 157.75 C 84.72 180.65 67.31 206.97 40.00 226.00
C 41.21 228.31 40.44 230.69 40.00 233.00
C 52.60 239.91 64.90 221.16 75.08 211.08 C 85.27 201.01 91.71 188.68 98.19 178.75 C 104.66 168.81 108.66 160.75 113.13 150.08 C 117.60 139.41 120.93 128.36 123.39 117.25 C 125.86 106.13 128.58 91.33 128.00 78.00
C 137.67 78.00 147.33 78.00 157.00 78.00
C 153.64 111.42 150.34 140.10 138.20 166.25 C 126.06 192.40 117.51 212.27 93.74 239.74 C 69.98 267.22 42.11 286.94 12.00 296.00
C 12.00 223.33 12.00 150.67 12.00 78.00
C 34.33 78.00 56.67 78.00 79.00 78.00
M 384.00 78.00 
C 383.63 100.17 388.40 118.15 394.76 137.25 C 401.12 156.34 407.45 170.17 418.13 185.92 C 428.81 201.66 446.81 224.24 465.00 236.00
C 468.78 237.63 468.78 232.84 472.00 233.00
C 471.37 230.84 471.40 228.23 472.00 226.00
C 445.07 206.55 427.42 180.94 415.81 157.75 C 404.20 134.55 396.97 108.53 395.00 78.00
C 404.00 78.00 413.00 78.00 422.00 78.00
C 422.14 93.86 427.63 109.05 433.58 120.77 C 439.52 132.49 451.68 148.25 464.00 158.00
C 470.04 158.02 472.50 154.06 472.00 148.00
C 446.06 128.24 437.80 107.29 433.00 78.00
C 455.33 78.00 477.67 78.00 500.00 78.00
C 500.00 150.67 500.00 223.33 500.00 296.00
C 470.01 287.74 442.43 266.55 419.43 240.23 C 396.42 213.91 386.13 193.59 374.36 167.30 C 362.59 141.00 357.92 111.88 355.00 78.00
C 364.67 78.00 374.33 78.00 384.00 78.00
M 96.00 479.00 
C 68.00 479.00 40.00 479.00 12.00 479.00
C 12.00 421.67 12.00 364.33 12.00 307.00
C 15.70 308.96 18.93 304.67 23.00 307.00
C 27.10 317.84 32.89 326.99 37.71 337.30 C 42.53 347.62 44.63 359.45 49.19 371.25 C 53.76 383.04 54.05 398.38 62.00 407.00
C 65.22 406.23 66.21 404.94 69.00 404.00
C 63.30 365.54 49.82 331.38 32.00 301.00
C 35.52 299.83 40.00 300.23 42.00 296.00
C 54.38 305.58 57.60 320.07 64.19 333.25 C 70.78 346.44 75.74 360.35 80.19 376.25 C 84.63 392.16 87.97 404.75 90.60 421.75 C 93.24 438.75 94.38 458.12 96.00 479.00
M 470.00 296.00 
C 472.18 299.01 475.34 299.96 480.00 301.00
C 462.47 330.75 448.64 365.65 443.00 404.00
C 445.57 404.86 446.83 406.29 450.00 407.00
C 458.05 397.72 458.51 383.61 462.64 371.30 C 466.77 358.98 470.24 347.42 475.13 337.08 C 480.02 326.75 484.05 317.08 490.00 306.00
C 493.61 305.97 496.57 308.67 500.00 307.00
C 500.00 364.33 500.00 421.67 500.00 479.00
C 472.00 479.00 444.00 479.00 416.00 479.00
C 417.46 462.46 418.27 444.62 420.59 431.25 C 422.91 417.88 422.98 406.49 426.20 394.75 C 429.42 383.02 433.39 369.34 437.58 358.23 C 441.76 347.12 445.18 335.42 450.39 325.25 C 455.61 315.07 460.53 303.61 470.00 296.00 Z"/>
</g>
<g fill="None" fill-opacity="0.0" stroke="#000000" stroke-opacity="0.01" stroke-width="0.3"><path d="
M 500.00 33.00 
C 337.34 33.00 174.66 33.00 12.00 33.00
C 12.00 44.00 12.00 55.00 12.00 66.00
C 174.88 65.09 337.12 65.09 500.00 66.00
C 500.00 55.00 500.00 44.00 500.00 33.00 Z"/>
</g>
<g fill="None" fill-opacity="0.0" stroke="#000000" stroke-opacity="0.01" stroke-width="0.3"><path d="
M 79.00 78.00 
C 56.67 78.00 34.33 78.00 12.00 78.00
C 12.00 150.67 12.00 223.33 12.00 296.00
C 42.11 286.94 69.98 267.22 93.74 239.74 C 117.51 212.27 126.06 192.40 138.20 166.25 C 150.34 140.10 153.64 111.42 157.00 78.00
C 147.33 78.00 137.67 78.00 128.00 78.00
C 128.58 91.33 125.86 106.13 123.39 117.25 C 120.93 128.36 117.60 139.41 113.13 150.08 C 108.66 160.75 104.66 168.81 98.19 178.75 C 91.71 188.68 85.27 201.01 75.08 211.08 C 64.90 221.16 52.60 239.91 40.00 233.00
C 40.44 230.69 41.21 228.31 40.00 226.00
C 67.31 206.97 84.72 180.65 96.41 157.75 C 108.10 134.85 114.92 107.68 117.00 78.00
C 108.00 78.00 99.00 78.00 90.00 78.00
C 90.54 94.15 84.11 108.24 78.39 120.25 C 72.67 132.25 60.67 148.42 48.00 158.00
C 41.80 158.01 39.56 153.98 40.00 148.00
C 66.14 128.35 74.20 107.03 79.00 78.00 Z"/>
</g>
<g fill="None" fill-opacity="0.0" stroke="#000000" stroke-opacity="0.00" stroke-width="0.3"><path d="
M 0.00 486.00 
L 0.00 512.00
L 512.00 512.00
L 512.00 486.00
C 505.66 495.21 491.26 490.04 480.00 491.00 C 468.74 491.96 454.53 490.45 443.00 491.00 C 431.47 491.55 418.84 490.51 408.00 491.00
C 401.15 474.49 406.58 452.93 407.80 438.25 C 409.02 423.56 410.57 411.07 413.42 397.77 C 416.28 384.47 421.38 369.40 424.88 356.90 C 428.39 344.40 434.74 333.14 439.81 321.25 C 444.88 309.36 450.12 301.43 457.00 289.00
C 434.59 274.88 407.06 247.02 392.19 225.25 C 377.32 203.49 368.50 185.96 359.59 161.75 C 350.68 137.54 343.82 106.82 344.00 78.00
C 285.33 78.00 226.67 78.00 168.00 78.00
C 168.60 107.45 160.94 137.78 152.19 161.75 C 143.44 185.71 134.48 203.87 119.70 225.70 C 104.92 247.52 77.66 274.76 55.00 289.00
C 65.34 308.50 75.70 323.77 82.79 343.77 C 89.88 363.77 96.35 385.75 100.61 409.25 C 104.86 432.75 108.81 461.87 106.00 490.00
C 74.10 492.30 36.13 490.35 3.00 491.00
C 3.10 488.91 1.01 487.42 0.00 486.00
M 287.00 178.00 
C 300.83 181.00 322.31 183.11 326.80 201.25 C 331.29 219.39 319.14 233.09 313.61 245.75 C 308.08 258.42 301.02 279.91 304.26 296.75 C 307.51 313.59 319.95 320.39 321.60 338.75 C 323.25 357.11 321.86 378.53 314.43 393.77 C 306.99 409.01 279.21 403.97 262.00 406.00
C 262.00 419.33 262.00 432.67 262.00 446.00
C 279.13 442.97 291.48 450.78 304.77 451.57 C 318.06 452.37 332.29 468.46 320.08 478.08 C 307.88 487.71 299.53 486.29 284.25 489.26 C 268.97 492.24 246.23 491.69 230.25 489.60 C 214.27 487.52 207.76 486.86 194.23 479.42 C 180.70 471.99 190.76 452.78 205.30 451.29 C 219.84 449.81 231.66 444.20 250.00 446.00
C 250.00 432.67 250.00 419.33 250.00 406.00
C 233.96 406.62 220.70 404.95 207.25 401.41 C 193.79 397.87 194.34 381.26 191.61 369.25 C 188.87 357.24 188.18 341.34 192.39 329.25 C 196.61 317.16 204.22 311.83 207.21 298.77 C 210.20 285.70 207.42 267.83 203.09 257.90 C 198.77 247.97 195.95 237.00 189.61 227.25 C 183.27 217.50 181.24 201.15 191.75 191.75 C 202.26 182.36 211.17 179.70 225.00 178.00
C 221.01 158.19 239.48 160.87 256.00 161.00 C 272.52 161.13 291.16 158.04 287.00 178.00 Z"/>
</g>
<g fill="None" fill-opacity="0.0" stroke="#000000" stroke-opacity="0.01" stroke-width="0.3"><path d="
M 384.00 78.00 
C 374.33 78.00 364.67 78.00 355.00 78.00
C 357.92 111.88 362.59 141.00 374.36 167.30 C 386.13 193.59 396.42 213.91 419.43 240.23 C 442.43 266.55 470.01 287.74 500.00 296.00
C 500.00 223.33 500.00 150.67 500.00 78.00
C 477.67 78.00 455.33 78.00 433.00 78.00
C 437.80 107.29 446.06 128.24 472.00 148.00
C 472.50 154.06 470.04 158.02 464.00 158.00
C 451.68 148.25 439.52 132.49 433.58 120.77 C 427.63 109.05 422.14 93.86 422.00 78.00
C 413.00 78.00 404.00 78.00 395.00 78.00
C 396.97 108.53 404.20 134.55 415.81 157.75 C 427.42 180.94 445.07 206.55 472.00 226.00
C 471.40 228.23 471.37 230.84 472.00 233.00
C 468.78 232.84 468.78 237.63 465.00 236.00
C 446.81 224.24 428.81 201.66 418.13 185.92 C 407.45 170.17 401.12 156.34 394.76 137.25 C 388.40 118.15 383.63 100.17 384.00 78.00 Z"/>
</g>
<g fill="None" fill-opacity="0.0" stroke="#000000" stroke-opacity="0.96" stroke-width="0.3"><path d="
M 287.00 178.00 
C 291.16 158.04 272.52 161.13 256.00 161.00 C 239.48 160.87 221.01 158.19 225.00 178.00
C 211.17 179.70 202.26 182.36 191.75 191.75 C 181.24 201.15 183.27 217.50 189.61 227.25 C 195.95 237.00 198.77 247.97 203.09 257.90 C 207.42 267.83 210.20 285.70 207.21 298.77 C 204.22 311.83 196.61 317.16 192.39 329.25 C 188.18 341.34 188.87 357.24 191.61 369.25 C 194.34 381.26 193.79 397.87 207.25 401.41 C 220.70 404.95 233.96 406.62 250.00 406.00
C 250.00 419.33 250.00 432.67 250.00 446.00
C 231.66 444.20 219.84 449.81 205.30 451.29 C 190.76 452.78 180.70 471.99 194.23 479.42 C 207.76 486.86 214.27 487.52 230.25 489.60 C 246.23 491.69 268.97 492.24 284.25 489.26 C 299.53 486.29 307.88 487.71 320.08 478.08 C 332.29 468.46 318.06 452.37 304.77 451.57 C 291.48 450.78 279.13 442.97 262.00 446.00
C 262.00 432.67 262.00 419.33 262.00 406.00
C 279.21 403.97 306.99 409.01 314.43 393.77 C 321.86 378.53 323.25 357.11 321.60 338.75 C 319.95 320.39 307.51 313.59 304.26 296.75 C 301.02 279.91 308.08 258.42 313.61 245.75 C 319.14 233.09 331.29 219.39 326.80 201.25 C 322.31 183.11 300.83 181.00 287.00 178.00
M 276.00 172.00 
C 284.44 205.21 227.67 205.38 236.00 172.00
C 249.33 172.00 262.67 172.00 276.00 172.00
M 227.00 191.00 
C 233.56 215.87 279.68 214.66 286.00 190.00
C 301.01 188.17 320.61 202.04 314.61 216.75 C 308.60 231.46 302.22 238.16 297.41 252.75 C 292.60 267.34 289.85 282.96 292.39 299.75 C 294.94 316.55 305.80 321.37 309.20 339.25 C 312.59 357.12 306.79 373.60 305.00 388.00
C 292.79 393.45 275.41 395.04 260.00 394.00 C 244.58 392.96 224.20 396.88 212.30 390.69 C 200.40 384.50 205.49 369.12 201.69 356.30 C 197.89 343.49 206.77 325.34 212.71 317.70 C 218.66 310.05 222.62 290.33 220.80 276.75 C 218.98 263.17 214.53 252.96 210.81 241.75 C 207.09 230.54 196.59 223.87 196.99 208.99 C 197.40 194.11 214.04 191.15 227.00 191.00
M 250.00 457.00 
C 249.97 463.55 249.17 469.71 253.00 474.00
C 254.94 473.26 256.98 473.32 259.00 474.00
C 262.81 469.86 262.04 463.44 262.00 457.00
C 281.93 458.72 297.86 459.98 313.00 467.00
C 298.74 477.77 278.81 478.40 257.00 479.00 C 235.18 479.59 215.60 476.24 199.00 469.00
C 211.64 458.27 230.01 459.64 250.00 457.00 Z"/>
</g>
<g fill="None" fill-opacity="0.0" stroke="#000000" stroke-opacity="0.05" stroke-width="0.3"><path d="
M 276.00 172.00 
C 262.67 172.00 249.33 172.00 236.00 172.00
C 227.67 205.38 284.44 205.21 276.00 172.00 Z"/>
</g>
<g fill="None" fill-opacity="0.0" stroke="#000000" stroke-opacity="0.02" stroke-width="0.3"><path d="
M 227.00 191.00 
C 214.04 191.15 197.40 194.11 196.99 208.99 C 196.59 223.87 207.09 230.54 210.81 241.75 C 214.53 252.96 218.98 263.17 220.80 276.75 C 222.62 290.33 218.66 310.05 212.71 317.70 C 206.77 325.34 197.89 343.49 201.69 356.30 C 205.49 369.12 200.40 384.50 212.30 390.69 C 224.20 396.88 244.58 392.96 260.00 394.00 C 275.41 395.04 292.79 393.45 305.00 388.00
C 306.79 373.60 312.59 357.12 309.20 339.25 C 305.80 321.37 294.94 316.55 292.39 299.75 C 289.85 282.96 292.60 267.34 297.41 252.75 C 302.22 238.16 308.60 231.46 314.61 216.75 C 320.61 202.04 301.01 188.17 286.00 190.00
C 279.68 214.66 233.56 215.87 227.00 191.00
M 223.00 347.00 
C 219.87 346.94 219.81 351.51 216.00 350.00
C 212.95 350.03 212.34 345.48 210.00 345.00
C 212.02 320.60 230.99 309.14 229.33 283.33 C 227.68 257.52 219.15 246.10 210.00 225.00
C 221.49 215.16 226.37 232.13 230.80 241.25 C 235.23 250.37 239.18 262.43 240.20 275.25 C 241.22 288.06 242.45 305.60 235.81 314.25 C 229.17 322.91 222.11 333.97 223.00 347.00 Z"/>
</g>
<g fill="None" fill-opacity="0.0" stroke="#000000" stroke-opacity="0.95" stroke-width="0.3"><path d="
M 223.00 347.00 
C 222.11 333.97 229.17 322.91 235.81 314.25 C 242.45 305.60 241.22 288.06 240.20 275.25 C 239.18 262.43 235.23 250.37 230.80 241.25 C 226.37 232.13 221.49 215.16 210.00 225.00
C 219.15 246.10 227.68 257.52 229.33 283.33 C 230.99 309.14 212.02 320.60 210.00 345.00
C 212.34 345.48 212.95 350.03 216.00 350.00
C 219.81 351.51 219.87 346.94 223.00 347.00 Z"/>
</g>
<g fill="None" fill-opacity="0.0" stroke="#000000" stroke-opacity="0.01" stroke-width="0.3"><path d="
M 96.00 479.00 
C 94.38 458.12 93.24 438.75 90.60 421.75 C 87.97 404.75 84.63 392.16 80.19 376.25 C 75.74 360.35 70.78 346.44 64.19 333.25 C 57.60 320.07 54.38 305.58 42.00 296.00
C 40.00 300.23 35.52 299.83 32.00 301.00
C 49.82 331.38 63.30 365.54 69.00 404.00
C 66.21 404.94 65.22 406.23 62.00 407.00
C 54.05 398.38 53.76 383.04 49.19 371.25 C 44.63 359.45 42.53 347.62 37.71 337.30 C 32.89 326.99 27.10 317.84 23.00 307.00
C 18.93 304.67 15.70 308.96 12.00 307.00
C 12.00 364.33 12.00 421.67 12.00 479.00
C 40.00 479.00 68.00 479.00 96.00 479.00 Z"/>
</g>
<g fill="None" fill-opacity="0.0" stroke="#000000" stroke-opacity="0.01" stroke-width="0.3"><path d="
M 470.00 296.00 
C 460.53 303.61 455.61 315.07 450.39 325.25 C 445.18 335.42 441.76 347.12 437.58 358.23 C 433.39 369.34 429.42 383.02 426.20 394.75 C 422.98 406.49 422.91 417.88 420.59 431.25 C 418.27 444.62 417.46 462.46 416.00 479.00
C 444.00 479.00 472.00 479.00 500.00 479.00
C 500.00 421.67 500.00 364.33 500.00 307.00
C 496.57 308.67 493.61 305.97 490.00 306.00
C 484.05 317.08 480.02 326.75 475.13 337.08 C 470.24 347.42 466.77 358.98 462.64 371.30 C 458.51 383.61 458.05 397.72 450.00 407.00
C 446.83 406.29 445.57 404.86 443.00 404.00
C 448.64 365.65 462.47 330.75 480.00 301.00
C 475.34 299.96 472.18 299.01 470.00 296.00 Z"/>
</g>
<g fill="None" fill-opacity="0.0" stroke="#000000" stroke-opacity="0.04" stroke-width="0.3"><path d="
M 250.00 457.00 
C 230.01 459.64 211.64 458.27 199.00 469.00
C 215.60 476.24 235.18 479.59 257.00 479.00 C 278.81 478.40 298.74 477.77 313.00 467.00
C 297.86 459.98 281.93 458.72 262.00 457.00
C 262.04 463.44 262.81 469.86 259.00 474.00
C 256.98 473.32 254.94 473.26 253.00 474.00
C 249.17 469.71 249.97 463.55 250.00 457.00 Z"/>
</g>
<g fill="#000000" fill-opacity="0.00" stroke="None">
<path d="
M 0.00 26.00 
C 1.01 24.58 3.10 23.09 3.00 21.00
C 170.69 21.00 341.34 21.00 509.00 21.00
C 509.11 22.96 510.79 24.76 512.00 26.00
L 512.00 0.00
L 0.00 0.00
L 0.00 26.00 Z"/>
</g>
<g fill="#000000" fill-opacity="0.97" stroke="None">
<path d="
M 0.00 26.00 
L 0.00 486.00
C 1.01 487.42 3.10 488.91 3.00 491.00
C 36.13 490.35 74.10 492.30 106.00 490.00
C 108.81 461.87 104.86 432.75 100.61 409.25 C 96.35 385.75 89.88 363.77 82.79 343.77 C 75.70 323.77 65.34 308.50 55.00 289.00
C 77.66 274.76 104.92 247.52 119.70 225.70 C 134.48 203.87 143.44 185.71 152.19 161.75 C 160.94 137.78 168.60 107.45 168.00 78.00
C 226.67 78.00 285.33 78.00 344.00 78.00
C 343.82 106.82 350.68 137.54 359.59 161.75 C 368.50 185.96 377.32 203.49 392.19 225.25 C 407.06 247.02 434.59 274.88 457.00 289.00
C 450.12 301.43 444.88 309.36 439.81 321.25 C 434.74 333.14 428.39 344.40 424.88 356.90 C 421.38 369.40 416.28 384.47 413.42 397.77 C 410.57 411.07 409.02 423.56 407.80 438.25 C 406.58 452.93 401.15 474.49 408.00 491.00
C 418.84 490.51 431.47 491.55 443.00 491.00 C 454.53 490.45 468.74 491.96 480.00 491.00 C 491.26 490.04 505.66 495.21 512.00 486.00
L 512.00 26.00
C 510.79 24.76 509.11 22.96 509.00 21.00
C 341.34 21.00 170.69 21.00 3.00 21.00
C 3.10 23.09 1.01 24.58 0.00 26.00
M 500.00 33.00 
C 500.00 44.00 500.00 55.00 500.00 66.00
C 337.12 65.09 174.88 65.09 12.00 66.00
C 12.00 55.00 12.00 44.00 12.00 33.00
C 174.66 33.00 337.34 33.00 500.00 33.00
M 79.00 78.00 
C 74.20 107.03 66.14 128.35 40.00 148.00
C 39.56 153.98 41.80 158.01 48.00 158.00
C 60.67 148.42 72.67 132.25 78.39 120.25 C 84.11 108.24 90.54 94.15 90.00 78.00
C 99.00 78.00 108.00 78.00 117.00 78.00
C 114.92 107.68 108.10 134.85 96.41 157.75 C 84.72 180.65 67.31 206.97 40.00 226.00
C 41.21 228.31 40.44 230.69 40.00 233.00
C 52.60 239.91 64.90 221.16 75.08 211.08 C 85.27 201.01 91.71 188.68 98.19 178.75 C 104.66 168.81 108.66 160.75 113.13 150.08 C 117.60 139.41 120.93 128.36 123.39 117.25 C 125.86 106.13 128.58 91.33 128.00 78.00
C 137.67 78.00 147.33 78.00 157.00 78.00
C 153.64 111.42 150.34 140.10 138.20 166.25 C 126.06 192.40 117.51 212.27 93.74 239.74 C 69.98 267.22 42.11 286.94 12.00 296.00
C 12.00 223.33 12.00 150.67 12.00 78.00
C 34.33 78.00 56.67 78.00 79.00 78.00
M 384.00 78.00 
C 383.63 100.17 388.40 118.15 394.76 137.25 C 401.12 156.34 407.45 170.17 418.13 185.92 C 428.81 201.66 446.81 224.24 465.00 236.00
C 468.78 237.63 468.78 232.84 472.00 233.00
C 471.37 230.84 471.40 228.23 472.00 226.00
C 445.07 206.55 427.42 180.94 415.81 157.75 C 404.20 134.55 396.97 108.53 395.00 78.00
C 404.00 78.00 413.00 78.00 422.00 78.00
C 422.14 93.86 427.63 109.05 433.58 120.77 C 439.52 132.49 451.68 148.25 464.00 158.00
C 470.04 158.02 472.50 154.06 472.00 148.00
C 446.06 128.24 437.80 107.29 433.00 78.00
C 455.33 78.00 477.67 78.00 500.00 78.00
C 500.00 150.67 500.00 223.33 500.00 296.00
C 470.01 287.74 442.43 266.55 419.43 240.23 C 396.42 213.91 386.13 193.59 374.36 167.30 C 362.59 141.00 357.92 111.88 355.00 78.00
C 364.67 78.00 374.33 78.00 384.00 78.00
M 96.00 479.00 
C 68.00 479.00 40.00 479.00 12.00 479.00
C 12.00 421.67 12.00 364.33 12.00 307.00
C 15.70 308.96 18.93 304.67 23.00 307.00
C 27.10 317.84 32.89 326.99 37.71 337.30 C 42.53 347.62 44.63 359.45 49.19 371.25 C 53.76 383.04 54.05 398.38 62.00 407.00
C 65.22 406.23 66.21 404.94 69.00 404.00
C 63.30 365.54 49.82 331.38 32.00 301.00
C 35.52 299.83 40.00 300.23 42.00 296.00
C 54.38 305.58 57.60 320.07 64.19 333.25 C 70.78 346.44 75.74 360.35 80.19 376.25 C 84.63 392.16 87.97 404.75 90.60 421.75 C 93.24 438.75 94.38 458.12 96.00 479.00
M 470.00 296.00 
C 472.18 299.01 475.34 299.96 480.00 301.00
C 462.47 330.75 448.64 365.65 443.00 404.00
C 445.57 404.86 446.83 406.29 450.00 407.00
C 458.05 397.72 458.51 383.61 462.64 371.30 C 466.77 358.98 470.24 347.42 475.13 337.08 C 480.02 326.75 484.05 317.08 490.00 306.00
C 493.61 305.97 496.57 308.67 500.00 307.00
C 500.00 364.33 500.00 421.67 500.00 479.00
C 472.00 479.00 444.00 479.00 416.00 479.00
C 417.46 462.46 418.27 444.62 420.59 431.25 C 422.91 417.88 422.98 406.49 426.20 394.75 C 429.42 383.02 433.39 369.34 437.58 358.23 C 441.76 347.12 445.18 335.42 450.39 325.25 C 455.61 315.07 460.53 303.61 470.00 296.00 Z"/>
</g>
<g fill="#000000" fill-opacity="0.01" stroke="None">
<path d="
M 500.00 33.00 
C 337.34 33.00 174.66 33.00 12.00 33.00
C 12.00 44.00 12.00 55.00 12.00 66.00
C 174.88 65.09 337.12 65.09 500.00 66.00
C 500.00 55.00 500.00 44.00 500.00 33.00 Z"/>
</g>
<g fill="#000000" fill-opacity="0.01" stroke="None">
<path d="
M 79.00 78.00 
C 56.67 78.00 34.33 78.00 12.00 78.00
C 12.00 150.67 12.00 223.33 12.00 296.00
C 42.11 286.94 69.98 267.22 93.74 239.74 C 117.51 212.27 126.06 192.40 138.20 166.25 C 150.34 140.10 153.64 111.42 157.00 78.00
C 147.33 78.00 137.67 78.00 128.00 78.00
C 128.58 91.33 125.86 106.13 123.39 117.25 C 120.93 128.36 117.60 139.41 113.13 150.08 C 108.66 160.75 104.66 168.81 98.19 178.75 C 91.71 188.68 85.27 201.01 75.08 211.08 C 64.90 221.16 52.60 239.91 40.00 233.00
C 40.44 230.69 41.21 228.31 40.00 226.00
C 67.31 206.97 84.72 180.65 96.41 157.75 C 108.10 134.85 114.92 107.68 117.00 78.00
C 108.00 78.00 99.00 78.00 90.00 78.00
C 90.54 94.15 84.11 108.24 78.39 120.25 C 72.67 132.25 60.67 148.42 48.00 158.00
C 41.80 158.01 39.56 153.98 40.00 148.00
C 66.14 128.35 74.20 107.03 79.00 78.00 Z"/>
</g>
<g fill="#000000" fill-opacity="0.00" stroke="None">
<path d="
M 0.00 486.00 
L 0.00 512.00
L 512.00 512.00
L 512.00 486.00
C 505.66 495.21 491.26 490.04 480.00 491.00 C 468.74 491.96 454.53 490.45 443.00 491.00 C 431.47 491.55 418.84 490.51 408.00 491.00
C 401.15 474.49 406.58 452.93 407.80 438.25 C 409.02 423.56 410.57 411.07 413.42 397.77 C 416.28 384.47 421.38 369.40 424.88 356.90 C 428.39 344.40 434.74 333.14 439.81 321.25 C 444.88 309.36 450.12 301.43 457.00 289.00
C 434.59 274.88 407.06 247.02 392.19 225.25 C 377.32 203.49 368.50 185.96 359.59 161.75 C 350.68 137.54 343.82 106.82 344.00 78.00
C 285.33 78.00 226.67 78.00 168.00 78.00
C 168.60 107.45 160.94 137.78 152.19 161.75 C 143.44 185.71 134.48 203.87 119.70 225.70 C 104.92 247.52 77.66 274.76 55.00 289.00
C 65.34 308.50 75.70 323.77 82.79 343.77 C 89.88 363.77 96.35 385.75 100.61 409.25 C 104.86 432.75 108.81 461.87 106.00 490.00
C 74.10 492.30 36.13 490.35 3.00 491.00
C 3.10 488.91 1.01 487.42 0.00 486.00
M 287.00 178.00 
C 300.83 181.00 322.31 183.11 326.80 201.25 C 331.29 219.39 319.14 233.09 313.61 245.75 C 308.08 258.42 301.02 279.91 304.26 296.75 C 307.51 313.59 319.95 320.39 321.60 338.75 C 323.25 357.11 321.86 378.53 314.43 393.77 C 306.99 409.01 279.21 403.97 262.00 406.00
C 262.00 419.33 262.00 432.67 262.00 446.00
C 279.13 442.97 291.48 450.78 304.77 451.57 C 318.06 452.37 332.29 468.46 320.08 478.08 C 307.88 487.71 299.53 486.29 284.25 489.26 C 268.97 492.24 246.23 491.69 230.25 489.60 C 214.27 487.52 207.76 486.86 194.23 479.42 C 180.70 471.99 190.76 452.78 205.30 451.29 C 219.84 449.81 231.66 444.20 250.00 446.00
C 250.00 432.67 250.00 419.33 250.00 406.00
C 233.96 406.62 220.70 404.95 207.25 401.41 C 193.79 397.87 194.34 381.26 191.61 369.25 C 188.87 357.24 188.18 341.34 192.39 329.25 C 196.61 317.16 204.22 311.83 207.21 298.77 C 210.20 285.70 207.42 267.83 203.09 257.90 C 198.77 247.97 195.95 237.00 189.61 227.25 C 183.27 217.50 181.24 201.15 191.75 191.75 C 202.26 182.36 211.17 179.70 225.00 178.00
C 221.01 158.19 239.48 160.87 256.00 161.00 C 272.52 161.13 291.16 158.04 287.00 178.00 Z"/>
</g>
<g fill="#000000" fill-opacity="0.01" stroke="None">
<path d="
M 384.00 78.00 
C 374.33 78.00 364.67 78.00 355.00 78.00
C 357.92 111.88 362.59 141.00 374.36 167.30 C 386.13 193.59 396.42 213.91 419.43 240.23 C 442.43 266.55 470.01 287.74 500.00 296.00
C 500.00 223.33 500.00 150.67 500.00 78.00
C 477.67 78.00 455.33 78.00 433.00 78.00
C 437.80 107.29 446.06 128.24 472.00 148.00
C 472.50 154.06 470.04 158.02 464.00 158.00
C 451.68 148.25 439.52 132.49 433.58 120.77 C 427.63 109.05 422.14 93.86 422.00 78.00
C 413.00 78.00 404.00 78.00 395.00 78.00
C 396.97 108.53 404.20 134.55 415.81 157.75 C 427.42 180.94 445.07 206.55 472.00 226.00
C 471.40 228.23 471.37 230.84 472.00 233.00
C 468.78 232.84 468.78 237.63 465.00 236.00
C 446.81 224.24 428.81 201.66 418.13 185.92 C 407.45 170.17 401.12 156.34 394.76 137.25 C 388.40 118.15 383.63 100.17 384.00 78.00 Z"/>
</g>
<g fill="#000000" fill-opacity="0.96" stroke="None">
<path d="
M 287.00 178.00 
C 291.16 158.04 272.52 161.13 256.00 161.00 C 239.48 160.87 221.01 158.19 225.00 178.00
C 211.17 179.70 202.26 182.36 191.75 191.75 C 181.24 201.15 183.27 217.50 189.61 227.25 C 195.95 237.00 198.77 247.97 203.09 257.90 C 207.42 267.83 210.20 285.70 207.21 298.77 C 204.22 311.83 196.61 317.16 192.39 329.25 C 188.18 341.34 188.87 357.24 191.61 369.25 C 194.34 381.26 193.79 397.87 207.25 401.41 C 220.70 404.95 233.96 406.62 250.00 406.00
C 250.00 419.33 250.00 432.67 250.00 446.00
C 231.66 444.20 219.84 449.81 205.30 451.29 C 190.76 452.78 180.70 471.99 194.23 479.42 C 207.76 486.86 214.27 487.52 230.25 489.60 C 246.23 491.69 268.97 492.24 284.25 489.26 C 299.53 486.29 307.88 487.71 320.08 478.08 C 332.29 468.46 318.06 452.37 304.77 451.57 C 291.48 450.78 279.13 442.97 262.00 446.00
C 262.00 432.67 262.00 419.33 262.00 406.00
C 279.21 403.97 306.99 409.01 314.43 393.77 C 321.86 378.53 323.25 357.11 321.60 338.75 C 319.95 320.39 307.51 313.59 304.26 296.75 C 301.02 279.91 308.08 258.42 313.61 245.75 C 319.14 233.09 331.29 219.39 326.80 201.25 C 322.31 183.11 300.83 181.00 287.00 178.00
M 276.00 172.00 
C 284.44 205.21 227.67 205.38 236.00 172.00
C 249.33 172.00 262.67 172.00 276.00 172.00
M 227.00 191.00 
C 233.56 215.87 279.68 214.66 286.00 190.00
C 301.01 188.17 320.61 202.04 314.61 216.75 C 308.60 231.46 302.22 238.16 297.41 252.75 C 292.60 267.34 289.85 282.96 292.39 299.75 C 294.94 316.55 305.80 321.37 309.20 339.25 C 312.59 357.12 306.79 373.60 305.00 388.00
C 292.79 393.45 275.41 395.04 260.00 394.00 C 244.58 392.96 224.20 396.88 212.30 390.69 C 200.40 384.50 205.49 369.12 201.69 356.30 C 197.89 343.49 206.77 325.34 212.71 317.70 C 218.66 310.05 222.62 290.33 220.80 276.75 C 218.98 263.17 214.53 252.96 210.81 241.75 C 207.09 230.54 196.59 223.87 196.99 208.99 C 197.40 194.11 214.04 191.15 227.00 191.00
M 250.00 457.00 
C 249.97 463.55 249.17 469.71 253.00 474.00
C 254.94 473.26 256.98 473.32 259.00 474.00
C 262.81 469.86 262.04 463.44 262.00 457.00
C 281.93 458.72 297.86 459.98 313.00 467.00
C 298.74 477.77 278.81 478.40 257.00 479.00 C 235.18 479.59 215.60 476.24 199.00 469.00
C 211.64 458.27 230.01 459.64 250.00 457.00 Z"/>
</g>
<g fill="#000000" fill-opacity="0.05" stroke="None">
<path d="
M 276.00 172.00 
C 262.67 172.00 249.33 172.00 236.00 172.00
C 227.67 205.38 284.44 205.21 276.00 172.00 Z"/>
</g>
<g fill="#000000" fill-opacity="0.02" stroke="None">
<path d="
M 227.00 191.00 
C 214.04 191.15 197.40 194.11 196.99 208.99 C 196.59 223.87 207.09 230.54 210.81 241.75 C 214.53 252.96 218.98 263.17 220.80 276.75 C 222.62 290.33 218.66 310.05 212.71 317.70 C 206.77 325.34 197.89 343.49 201.69 356.30 C 205.49 369.12 200.40 384.50 212.30 390.69 C 224.20 396.88 244.58 392.96 260.00 394.00 C 275.41 395.04 292.79 393.45 305.00 388.00
C 306.79 373.60 312.59 357.12 309.20 339.25 C 305.80 321.37 294.94 316.55 292.39 299.75 C 289.85 282.96 292.60 267.34 297.41 252.75 C 302.22 238.16 308.60 231.46 314.61 216.75 C 320.61 202.04 301.01 188.17 286.00 190.00
C 279.68 214.66 233.56 215.87 227.00 191.00
M 223.00 347.00 
C 219.87 346.94 219.81 351.51 216.00 350.00
C 212.95 350.03 212.34 345.48 210.00 345.00
C 212.02 320.60 230.99 309.14 229.33 283.33 C 227.68 257.52 219.15 246.10 210.00 225.00
C 221.49 215.16 226.37 232.13 230.80 241.25 C 235.23 250.37 239.18 262.43 240.20 275.25 C 241.22 288.06 242.45 305.60 235.81 314.25 C 229.17 322.91 222.11 333.97 223.00 347.00 Z"/>
</g>
<g fill="#000000" fill-opacity="0.95" stroke="None">
<path d="
M 223.00 347.00 
C 222.11 333.97 229.17 322.91 235.81 314.25 C 242.45 305.60 241.22 288.06 240.20 275.25 C 239.18 262.43 235.23 250.37 230.80 241.25 C 226.37 232.13 221.49 215.16 210.00 225.00
C 219.15 246.10 227.68 257.52 229.33 283.33 C 230.99 309.14 212.02 320.60 210.00 345.00
C 212.34 345.48 212.95 350.03 216.00 350.00
C 219.81 351.51 219.87 346.94 223.00 347.00 Z"/>
</g>
<g fill="#000000" fill-opacity="0.01" stroke="None">
<path d="
M 96.00 479.00 
C 94.38 458.12 93.24 438.75 90.60 421.75 C 87.97 404.75 84.63 392.16 80.19 376.25 C 75.74 360.35 70.78 346.44 64.19 333.25 C 57.60 320.07 54.38 305.58 42.00 296.00
C 40.00 300.23 35.52 299.83 32.00 301.00
C 49.82 331.38 63.30 365.54 69.00 404.00
C 66.21 404.94 65.22 406.23 62.00 407.00
C 54.05 398.38 53.76 383.04 49.19 371.25 C 44.63 359.45 42.53 347.62 37.71 337.30 C 32.89 326.99 27.10 317.84 23.00 307.00
C 18.93 304.67 15.70 308.96 12.00 307.00
C 12.00 364.33 12.00 421.67 12.00 479.00
C 40.00 479.00 68.00 479.00 96.00 479.00 Z"/>
</g>
<g fill="#000000" fill-opacity="0.01" stroke="None">
<path d="
M 470.00 296.00 
C 460.53 303.61 455.61 315.07 450.39 325.25 C 445.18 335.42 441.76 347.12 437.58 358.23 C 433.39 369.34 429.42 383.02 426.20 394.75 C 422.98 406.49 422.91 417.88 420.59 431.25 C 418.27 444.62 417.46 462.46 416.00 479.00
C 444.00 479.00 472.00 479.00 500.00 479.00
C 500.00 421.67 500.00 364.33 500.00 307.00
C 496.57 308.67 493.61 305.97 490.00 306.00
C 484.05 317.08 480.02 326.75 475.13 337.08 C 470.24 347.42 466.77 358.98 462.64 371.30 C 458.51 383.61 458.05 397.72 450.00 407.00
C 446.83 406.29 445.57 404.86 443.00 404.00
C 448.64 365.65 462.47 330.75 480.00 301.00
C 475.34 299.96 472.18 299.01 470.00 296.00 Z"/>
</g>
<g fill="#000000" fill-opacity="0.04" stroke="None">
<path d="
M 250.00 457.00 
C 230.01 459.64 211.64 458.27 199.00 469.00
C 215.60 476.24 235.18 479.59 257.00 479.00 C 278.81 478.40 298.74 477.77 313.00 467.00
C 297.86 459.98 281.93 458.72 262.00 457.00
C 262.04 463.44 262.81 469.86 259.00 474.00
C 256.98 473.32 254.94 473.26 253.00 474.00
C 249.17 469.71 249.97 463.55 250.00 457.00 Z"/>
</g>
</svg>