<svg xmlns="http://www.w3.org/2000/svg" xmlns:v="https://svgstorm.com"
viewBox = "0 0 512 512"
width="512"
height="512">
<g fill="None" fill-opacity="0.0" stroke="#000000" stroke-opacity="0.01" stroke-width="0.3"><path d="
M 0.00 512.00 
L 512.00 512.00
L 512.00 0.00
L 0.00 0.00
L 0.00 512.00
M 121.00 77.00 
C 115.99 77.36 114.15 75.54 110.00 73.00
C 111.59 66.36 113.86 58.03 116.39 53.25 C 118.93 48.46 121.27 34.32 130.07 37.93 C 138.88 41.54 131.39 52.91 129.43 57.77 C 127.46 62.62 125.00 71.29 121.00 77.00
M 427.00 137.00 
C 423.03 159.17 438.54 174.28 453.75 188.25 C 468.97 202.21 472.60 218.23 469.00 240.00
C 478.59 242.95 482.02 254.06 479.21 262.23 C 476.41 270.40 467.00 275.06 460.75 283.75 C 454.50 292.45 444.99 297.45 438.25 306.25 C 431.50 315.04 422.66 317.25 421.40 326.75 C 420.13 336.25 422.57 347.48 426.13 353.92 C 429.69 360.36 430.02 367.43 433.80 375.25 C 437.58 383.07 437.62 386.26 441.06 396.08 C 444.51 405.91 427.08 407.14 415.00 405.00
C 414.91 420.35 415.29 447.24 414.60 460.75 C 413.91 474.25 397.39 476.68 390.00 471.00
C 381.76 474.87 363.39 477.01 361.74 462.25 C 360.08 447.48 363.52 421.77 362.00 405.00
C 353.46 406.66 342.92 407.67 337.00 402.00
C 340.53 376.66 352.76 359.12 355.00 332.00
C 343.65 340.11 335.73 348.33 324.25 352.26 C 312.77 356.20 304.11 364.75 293.75 373.75 C 283.39 382.76 290.24 396.86 294.19 406.25 C 298.14 415.64 303.41 427.05 307.26 436.75 C 311.12 446.45 319.88 459.75 307.25 467.39 C 294.61 475.04 283.97 466.23 277.81 455.75 C 271.65 445.26 263.37 435.90 257.00 427.00
C 252.08 439.54 240.74 447.94 235.41 459.75 C 230.08 471.56 206.25 474.82 202.61 461.25 C 198.97 447.68 208.52 438.89 212.19 426.75 C 215.86 414.60 221.04 406.86 225.80 393.75 C 230.56 380.65 213.98 364.21 202.25 354.75 C 190.52 345.28 181.95 341.84 170.00 331.00
C 171.62 341.67 167.77 361.56 170.20 370.25 C 172.63 378.93 175.23 383.78 177.20 392.25 C 179.16 400.72 182.52 406.33 184.19 414.25 C 185.86 422.18 189.73 429.29 191.57 436.77 C 193.42 444.25 198.04 452.63 193.43 460.77 C 188.81 468.90 180.35 470.12 172.70 468.29 C 165.04 466.45 159.67 460.34 158.36 452.30 C 157.05 444.25 153.21 437.36 151.09 429.90 C 148.98 422.44 147.66 414.40 144.29 407.70 C 140.91 400.99 143.64 389.40 135.00 387.00
C 131.54 399.57 128.30 412.28 124.65 424.70 C 121.00 437.11 116.66 448.16 112.29 460.30 C 107.92 472.45 84.94 472.80 80.61 460.25 C 76.28 447.69 82.67 435.26 86.40 423.25 C 90.13 411.24 92.93 399.40 98.26 387.25 C 103.60 375.10 103.10 353.98 104.00 336.00 C 104.90 318.02 92.55 310.52 79.75 298.25 C 66.96 285.97 54.92 276.60 46.43 264.23 C 37.94 251.86 53.86 233.98 68.00 239.00
C 75.31 200.77 82.68 165.66 91.00 127.00
C 65.11 111.29 88.53 78.74 110.77 87.57 C 133.00 96.41 125.59 130.43 103.00 130.00
C 96.47 170.81 88.14 208.57 79.00 248.00
C 97.72 258.06 100.12 280.01 121.00 277.00 C 141.88 273.99 165.77 277.08 176.30 289.70 C 186.83 302.32 202.17 305.30 212.92 318.13 C 223.66 330.96 234.40 338.91 247.75 347.39 C 261.10 355.88 273.06 344.58 284.92 338.87 C 296.78 333.17 308.97 324.14 320.75 312.75 C 332.53 301.36 345.53 293.65 357.75 282.74 C 369.97 271.82 402.34 282.10 416.75 275.61 C 431.17 269.12 442.66 243.51 457.00 238.00
C 459.13 215.45 451.84 203.40 434.75 188.25 C 417.66 173.09 413.80 161.44 413.00 139.00
C 379.46 138.49 355.06 100.94 371.59 68.25 C 388.13 35.57 434.39 33.84 454.75 61.25 C 475.10 88.67 458.49 131.90 427.00 137.00
M 84.00 78.00 
C 78.50 74.88 80.15 69.04 76.81 64.75 C 73.46 60.46 75.94 50.34 83.25 53.76 C 90.55 57.17 99.02 76.42 84.00 78.00
M 212.00 69.00 
C 214.27 73.68 219.31 78.78 224.00 81.00
C 224.32 86.90 220.20 91.82 214.00 91.00
C 211.73 86.32 206.69 81.22 202.00 79.00
C 202.43 72.28 205.12 69.43 212.00 69.00
M 255.00 73.00 
C 256.78 82.65 239.17 95.63 234.43 87.23 C 229.69 78.84 249.29 63.47 255.00 73.00
M 32.00 86.00 
C 32.63 83.84 32.60 81.23 32.00 79.00
C 34.57 78.13 36.24 76.79 37.00 75.00
C 49.92 77.97 50.31 81.71 62.92 85.13 C 75.52 88.56 69.68 103.63 58.23 97.42 C 46.78 91.22 42.95 93.92 32.00 86.00
M 132.00 94.00 
C 131.84 85.15 152.91 74.78 156.39 84.75 C 159.88 94.73 137.40 103.72 132.00 94.00
M 318.00 93.00 
C 317.33 101.89 322.74 108.49 329.30 115.70 C 335.86 122.91 347.49 117.70 347.00 131.00
C 339.80 134.72 329.18 139.38 322.77 146.77 C 316.36 154.16 322.57 164.81 308.00 165.00
C 302.99 157.57 303.93 150.51 297.87 144.08 C 291.81 137.65 283.47 135.63 276.00 131.00
C 276.03 119.11 292.53 119.02 298.90 109.90 C 305.28 100.78 303.06 87.82 318.00 93.00
M 206.00 122.00 
C 196.47 116.55 211.93 96.39 220.25 101.19 C 228.58 105.99 215.69 124.00 206.00 122.00
M 255.00 112.00 
C 255.96 117.89 250.98 122.97 245.00 122.00
C 242.71 115.44 233.48 112.49 233.00 105.00
C 234.75 103.77 236.75 101.87 238.00 100.00
C 245.50 100.48 248.47 109.77 255.00 112.00
M 167.00 141.00 
C 157.43 140.39 151.80 131.70 144.08 131.87 C 136.36 132.04 128.32 119.70 137.30 116.29 C 146.29 112.87 151.58 123.63 159.75 123.39 C 167.93 123.15 178.46 135.22 167.00 141.00
M 72.00 121.00 
C 70.54 132.39 55.88 138.73 47.00 132.00
C 48.60 129.63 47.53 127.26 47.00 125.00
C 55.29 121.04 62.64 113.32 72.00 121.00
M 130.00 158.00 
C 128.78 159.49 125.63 160.37 126.00 163.00
C 123.84 162.37 121.23 162.40 119.00 163.00
C 114.87 155.31 111.93 151.06 111.00 142.00
C 122.68 131.85 128.20 149.12 130.00 158.00
M 256.00 181.00 
C 264.19 176.66 275.36 170.37 286.25 171.80 C 297.13 173.24 304.43 181.40 310.13 188.92 C 315.83 196.44 315.16 210.02 311.29 218.30 C 307.42 226.59 297.82 238.59 287.75 245.75 C 277.68 252.92 269.34 271.20 259.30 272.64 C 249.25 274.08 238.96 253.95 229.75 247.25 C 220.54 240.54 210.31 227.81 205.81 221.75 C 201.31 215.68 198.94 198.99 204.58 191.23 C 210.21 183.47 216.75 173.27 227.25 172.20 C 237.75 171.13 250.24 172.77 256.00 181.00
M 134.00 220.00 
C 154.77 216.23 169.11 241.03 160.87 257.92 C 152.63 274.81 128.35 277.94 116.43 262.23 C 104.51 246.52 115.05 223.44 134.00 220.00
M 384.00 220.00 
C 404.48 216.28 418.70 239.71 411.41 256.75 C 404.12 273.80 380.77 278.31 367.75 263.25 C 354.73 248.19 364.01 223.63 384.00 220.00
M 252.00 296.00 
C 269.79 292.37 286.70 311.47 280.94 328.08 C 275.17 344.70 253.98 348.52 241.23 336.77 C 228.48 325.02 234.27 299.62 252.00 296.00 Z"/>
</g>
<g fill="None" fill-opacity="0.0" stroke="#000000" stroke-opacity="0.94" stroke-width="0.3"><path d="
M 121.00 77.00 
C 125.00 71.29 127.46 62.62 129.43 57.77 C 131.39 52.91 138.88 41.54 130.07 37.93 C 121.27 34.32 118.93 48.46 116.39 53.25 C 113.86 58.03 111.59 66.36 110.00 73.00
C 114.15 75.54 115.99 77.36 121.00 77.00 Z"/>
</g>
<g fill="None" fill-opacity="0.0" stroke="#000000" stroke-opacity="0.96" stroke-width="0.3"><path d="
M 427.00 137.00 
C 458.49 131.90 475.10 88.67 454.75 61.25 C 434.39 33.84 388.13 35.57 371.59 68.25 C 355.06 100.94 379.46 138.49 413.00 139.00
C 413.80 161.44 417.66 173.09 434.75 188.25 C 451.84 203.40 459.13 215.45 457.00 238.00
C 442.66 243.51 431.17 269.12 416.75 275.61 C 402.34 282.10 369.97 271.82 357.75 282.74 C 345.53 293.65 332.53 301.36 320.75 312.75 C 308.97 324.14 296.78 333.17 284.92 338.87 C 273.06 344.58 261.10 355.88 247.75 347.39 C 234.40 338.91 223.66 330.96 212.92 318.13 C 202.17 305.30 186.83 302.32 176.30 289.70 C 165.77 277.08 141.88 273.99 121.00 277.00 C 100.12 280.01 97.72 258.06 79.00 248.00
C 88.14 208.57 96.47 170.81 103.00 130.00
C 125.59 130.43 133.00 96.41 110.77 87.57 C 88.53 78.74 65.11 111.29 91.00 127.00
C 82.68 165.66 75.31 200.77 68.00 239.00
C 53.86 233.98 37.94 251.86 46.43 264.23 C 54.92 276.60 66.96 285.97 79.75 298.25 C 92.55 310.52 104.90 318.02 104.00 336.00 C 103.10 353.98 103.60 375.10 98.26 387.25 C 92.93 399.40 90.13 411.24 86.40 423.25 C 82.67 435.26 76.28 447.69 80.61 460.25 C 84.94 472.80 107.92 472.45 112.29 460.30 C 116.66 448.16 121.00 437.11 124.65 424.70 C 128.30 412.28 131.54 399.57 135.00 387.00
C 143.64 389.40 140.91 400.99 144.29 407.70 C 147.66 414.40 148.98 422.44 151.09 429.90 C 153.21 437.36 157.05 444.25 158.36 452.30 C 159.67 460.34 165.04 466.45 172.70 468.29 C 180.35 470.12 188.81 468.90 193.43 460.77 C 198.04 452.63 193.42 444.25 191.57 436.77 C 189.73 429.29 185.86 422.18 184.19 414.25 C 182.52 406.33 179.16 400.72 177.20 392.25 C 175.23 383.78 172.63 378.93 170.20 370.25 C 167.77 361.56 171.62 341.67 170.00 331.00
C 181.95 341.84 190.52 345.28 202.25 354.75 C 213.98 364.21 230.56 380.65 225.80 393.75 C 221.04 406.86 215.86 414.60 212.19 426.75 C 208.52 438.89 198.97 447.68 202.61 461.25 C 206.25 474.82 230.08 471.56 235.41 459.75 C 240.74 447.94 252.08 439.54 257.00 427.00
C 263.37 435.90 271.65 445.26 277.81 455.75 C 283.97 466.23 294.61 475.04 307.25 467.39 C 319.88 459.75 311.12 446.45 307.26 436.75 C 303.41 427.05 298.14 415.64 294.19 406.25 C 290.24 396.86 283.39 382.76 293.75 373.75 C 304.11 364.75 312.77 356.20 324.25 352.26 C 335.73 348.33 343.65 340.11 355.00 332.00
C 352.76 359.12 340.53 376.66 337.00 402.00
C 342.92 407.67 353.46 406.66 362.00 405.00
C 363.52 421.77 360.08 447.48 361.74 462.25 C 363.39 477.01 381.76 474.87 390.00 471.00
C 397.39 476.68 413.91 474.25 414.60 460.75 C 415.29 447.24 414.91 420.35 415.00 405.00
C 427.08 407.14 444.51 405.91 441.06 396.08 C 437.62 386.26 437.58 383.07 433.80 375.25 C 430.02 367.43 429.69 360.36 426.13 353.92 C 422.57 347.48 420.13 336.25 421.40 326.75 C 422.66 317.25 431.50 315.04 438.25 306.25 C 444.99 297.45 454.50 292.45 460.75 283.75 C 467.00 275.06 476.41 270.40 479.21 262.23 C 482.02 254.06 478.59 242.95 469.00 240.00
C 472.60 218.23 468.97 202.21 453.75 188.25 C 438.54 174.28 423.03 159.17 427.00 137.00
M 409.00 55.00 
C 437.02 52.47 457.08 78.31 447.81 104.25 C 438.53 130.19 402.21 130.92 386.30 111.70 C 370.39 92.48 384.82 57.18 409.00 55.00
M 111.00 112.00 
C 101.69 124.85 85.40 108.21 98.00 99.00
C 107.35 98.21 111.80 102.89 111.00 112.00
M 66.00 252.00 
C 74.30 263.06 89.37 275.98 98.25 284.19 C 107.14 292.39 126.66 294.26 144.00 292.00 C 161.34 289.74 167.55 300.47 178.77 309.23 C 189.99 317.99 198.37 323.73 210.00 333.00
C 210.45 335.96 207.05 336.47 207.00 339.00
C 190.49 333.16 179.31 320.23 165.00 311.00
C 149.46 313.07 158.06 338.53 156.00 354.00 C 153.94 369.47 160.53 380.32 163.71 391.30 C 166.89 402.27 169.08 412.00 172.39 422.75 C 175.71 433.50 180.16 442.87 182.00 456.00
C 179.10 456.75 176.39 454.73 174.00 456.00
C 171.08 446.91 168.00 437.39 165.23 428.77 C 162.46 420.15 160.61 410.83 157.36 402.30 C 154.11 393.76 153.98 383.65 147.08 376.92 C 140.18 370.19 127.19 374.18 123.61 381.75 C 120.03 389.33 117.59 399.28 114.74 407.75 C 111.89 416.23 110.12 426.17 106.29 434.30 C 102.47 442.42 106.09 456.33 93.00 456.00
C 94.76 437.48 101.25 426.61 105.21 408.77 C 109.17 390.92 117.58 382.35 118.00 361.00 C 118.42 339.65 120.64 314.81 103.75 302.25 C 86.86 289.68 75.35 269.36 58.00 258.00
C 58.08 255.03 59.08 254.55 60.00 252.00
C 61.94 252.74 63.98 252.68 66.00 252.00
M 465.00 252.00 
C 465.86 254.34 466.94 255.02 467.00 258.00
C 450.68 268.97 438.41 288.58 422.75 300.75 C 407.09 312.92 403.77 333.85 409.80 350.25 C 415.83 366.65 419.52 375.59 426.00 392.00
C 401.67 392.00 377.33 392.00 353.00 392.00
C 355.52 382.85 358.73 375.70 360.21 366.77 C 361.69 357.84 368.55 352.22 368.59 342.25 C 368.63 332.27 371.86 309.82 360.00 311.00
C 353.29 316.39 346.04 322.67 338.90 326.91 C 331.76 331.15 325.92 341.65 317.00 337.00
C 317.88 335.28 317.75 333.80 317.00 332.00
C 329.64 320.11 345.91 313.60 356.92 299.92 C 367.93 286.24 402.38 295.09 418.08 289.94 C 433.79 284.78 444.31 265.13 459.00 252.00
C 460.94 252.74 462.98 252.68 465.00 252.00
M 308.00 346.00 
C 296.40 354.97 279.65 360.77 275.42 376.77 C 271.20 392.77 280.56 406.79 285.12 418.90 C 289.68 431.01 295.50 444.40 301.00 457.00
C 289.55 456.77 286.42 442.65 279.30 435.70 C 272.18 428.75 271.55 413.90 258.92 412.94 C 246.28 411.98 243.71 426.27 236.30 433.30 C 228.89 440.32 229.24 454.97 215.00 457.00
C 217.85 448.79 220.94 442.39 224.13 435.08 C 227.32 427.77 228.95 421.38 232.19 413.75 C 235.43 406.11 238.64 401.01 240.40 391.25 C 242.16 381.50 237.35 372.56 233.70 366.30 C 230.06 360.03 209.41 350.39 221.00 344.00
C 230.39 353.41 241.67 362.53 254.25 364.80 C 266.82 367.07 268.62 361.11 276.77 358.43 C 284.91 355.75 285.17 352.72 291.77 350.42 C 298.37 348.13 301.95 341.56 308.00 346.00
M 382.00 405.00 
C 380.75 423.50 384.56 443.43 380.00 461.00
C 370.10 459.46 374.79 446.20 374.00 437.00 C 373.21 427.80 374.59 414.57 374.00 405.00
C 376.67 405.00 379.33 405.00 382.00 405.00
M 402.00 405.00 
C 400.34 422.41 400.34 441.61 402.00 459.00
C 391.18 465.10 393.04 443.63 394.00 435.00 C 394.96 426.37 388.27 402.99 402.00 405.00 Z"/>
</g>
<g fill="None" fill-opacity="0.0" stroke="#000000" stroke-opacity="0.94" stroke-width="0.3"><path d="
M 84.00 78.00 
C 99.02 76.42 90.55 57.17 83.25 53.76 C 75.94 50.34 73.46 60.46 76.81 64.75 C 80.15 69.04 78.50 74.88 84.00 78.00 Z"/>
</g>
<g fill="None" fill-opacity="0.0" stroke="#000000" stroke-opacity="0.03" stroke-width="0.3"><path d="
M 409.00 55.00 
C 384.82 57.18 370.39 92.48 386.30 111.70 C 402.21 130.92 438.53 130.19 447.81 104.25 C 457.08 78.31 437.02 52.47 409.00 55.00
M 441.00 84.00 
C 450.31 102.55 424.62 127.60 408.00 115.00
C 406.64 104.02 415.88 106.55 423.25 102.81 C 430.63 99.08 428.10 86.55 434.00 83.00
C 436.22 83.93 438.87 85.11 441.00 84.00 Z"/>
</g>
<g fill="None" fill-opacity="0.0" stroke="#000000" stroke-opacity="0.96" stroke-width="0.3"><path d="
M 212.00 69.00 
C 205.12 69.43 202.43 72.28 202.00 79.00
C 206.69 81.22 211.73 86.32 214.00 91.00
C 220.20 91.82 224.32 86.90 224.00 81.00
C 219.31 78.78 214.27 73.68 212.00 69.00 Z"/>
</g>
<g fill="None" fill-opacity="0.0" stroke="#000000" stroke-opacity="0.95" stroke-width="0.3"><path d="
M 255.00 73.00 
C 249.29 63.47 229.69 78.84 234.43 87.23 C 239.17 95.63 256.78 82.65 255.00 73.00 Z"/>
</g>
<g fill="None" fill-opacity="0.0" stroke="#000000" stroke-opacity="0.95" stroke-width="0.3"><path d="
M 32.00 86.00 
C 42.95 93.92 46.78 91.22 58.23 97.42 C 69.68 103.63 75.52 88.56 62.92 85.13 C 50.31 81.71 49.92 77.97 37.00 75.00
C 36.24 76.79 34.57 78.13 32.00 79.00
C 32.60 81.23 32.63 83.84 32.00 86.00 Z"/>
</g>
<g fill="None" fill-opacity="0.0" stroke="#000000" stroke-opacity="0.93" stroke-width="0.3"><path d="
M 132.00 94.00 
C 137.40 103.72 159.88 94.73 156.39 84.75 C 152.91 74.78 131.84 85.15 132.00 94.00 Z"/>
</g>
<g fill="None" fill-opacity="0.0" stroke="#000000" stroke-opacity="0.95" stroke-width="0.3"><path d="
M 441.00 84.00 
C 438.87 85.11 436.22 83.93 434.00 83.00
C 428.10 86.55 430.63 99.08 423.25 102.81 C 415.88 106.55 406.64 104.02 408.00 115.00
C 424.62 127.60 450.31 102.55 441.00 84.00 Z"/>
</g>
<g fill="None" fill-opacity="0.0" stroke="#000000" stroke-opacity="0.96" stroke-width="0.3"><path d="
M 318.00 93.00 
C 303.06 87.82 305.28 100.78 298.90 109.90 C 292.53 119.02 276.03 119.11 276.00 131.00
C 283.47 135.63 291.81 137.65 297.87 144.08 C 303.93 150.51 302.99 157.57 308.00 165.00
C 322.57 164.81 316.36 154.16 322.77 146.77 C 329.18 139.38 339.80 134.72 347.00 131.00
C 347.49 117.70 335.86 122.91 329.30 115.70 C 322.74 108.49 317.33 101.89 318.00 93.00
M 323.00 129.00 
C 317.59 130.94 314.95 135.10 312.00 140.00
C 309.33 135.01 302.99 131.34 300.00 127.00
C 304.53 125.94 309.32 120.81 311.00 116.00
C 314.50 119.16 320.74 124.18 323.00 129.00 Z"/>
</g>
<g fill="None" fill-opacity="0.0" stroke="#000000" stroke-opacity="0.06" stroke-width="0.3"><path d="
M 111.00 112.00 
C 111.80 102.89 107.35 98.21 98.00 99.00
C 85.40 108.21 101.69 124.85 111.00 112.00 Z"/>
</g>
<g fill="None" fill-opacity="0.0" stroke="#000000" stroke-opacity="0.95" stroke-width="0.3"><path d="
M 206.00 122.00 
C 215.69 124.00 228.58 105.99 220.25 101.19 C 211.93 96.39 196.47 116.55 206.00 122.00 Z"/>
</g>
<g fill="None" fill-opacity="0.0" stroke="#000000" stroke-opacity="0.96" stroke-width="0.3"><path d="
M 255.00 112.00 
C 248.47 109.77 245.50 100.48 238.00 100.00
C 236.75 101.87 234.75 103.77 233.00 105.00
C 233.48 112.49 242.71 115.44 245.00 122.00
C 250.98 122.97 255.96 117.89 255.00 112.00 Z"/>
</g>
<g fill="None" fill-opacity="0.0" stroke="#000000" stroke-opacity="0.94" stroke-width="0.3"><path d="
M 167.00 141.00 
C 178.46 135.22 167.93 123.15 159.75 123.39 C 151.58 123.63 146.29 112.87 137.30 116.29 C 128.32 119.70 136.36 132.04 144.08 131.87 C 151.80 131.70 157.43 140.39 167.00 141.00 Z"/>
</g>
<g fill="None" fill-opacity="0.0" stroke="#000000" stroke-opacity="0.07" stroke-width="0.3"><path d="
M 323.00 129.00 
C 320.74 124.18 314.50 119.16 311.00 116.00
C 309.32 120.81 304.53 125.94 300.00 127.00
C 302.99 131.34 309.33 135.01 312.00 140.00
C 314.95 135.10 317.59 130.94 323.00 129.00 Z"/>
</g>
<g fill="None" fill-opacity="0.0" stroke="#000000" stroke-opacity="0.94" stroke-width="0.3"><path d="
M 72.00 121.00 
C 62.64 113.32 55.29 121.04 47.00 125.00
C 47.53 127.26 48.60 129.63 47.00 132.00
C 55.88 138.73 70.54 132.39 72.00 121.00 Z"/>
</g>
<g fill="None" fill-opacity="0.0" stroke="#000000" stroke-opacity="0.94" stroke-width="0.3"><path d="
M 130.00 158.00 
C 128.20 149.12 122.68 131.85 111.00 142.00
C 111.93 151.06 114.87 155.31 119.00 163.00
C 121.23 162.40 123.84 162.37 126.00 163.00
C 125.63 160.37 128.78 159.49 130.00 158.00 Z"/>
</g>
<g fill="None" fill-opacity="0.0" stroke="#000000" stroke-opacity="0.97" stroke-width="0.3"><path d="
M 256.00 181.00 
C 250.24 172.77 237.75 171.13 227.25 172.20 C 216.75 173.27 210.21 183.47 204.58 191.23 C 198.94 198.99 201.31 215.68 205.81 221.75 C 210.31 227.81 220.54 240.54 229.75 247.25 C 238.96 253.95 249.25 274.08 259.30 272.64 C 269.34 271.20 277.68 252.92 287.75 245.75 C 297.82 238.59 307.42 226.59 311.29 218.30 C 315.16 210.02 315.83 196.44 310.13 188.92 C 304.43 181.40 297.13 173.24 286.25 171.80 C 275.36 170.37 264.19 176.66 256.00 181.00
M 254.00 197.00 
C 266.53 196.05 275.68 179.74 289.30 187.71 C 302.92 195.68 304.78 209.97 294.25 221.25 C 283.72 232.52 269.29 245.24 259.00 257.00
C 246.15 248.48 237.45 234.81 225.25 224.75 C 213.05 214.69 211.46 201.65 221.25 191.25 C 231.03 180.84 246.55 186.40 254.00 197.00 Z"/>
</g>
<g fill="None" fill-opacity="0.0" stroke="#000000" stroke-opacity="0.02" stroke-width="0.3"><path d="
M 254.00 197.00 
C 246.55 186.40 231.03 180.84 221.25 191.25 C 211.46 201.65 213.05 214.69 225.25 224.75 C 237.45 234.81 246.15 248.48 259.00 257.00
C 269.29 245.24 283.72 232.52 294.25 221.25 C 304.78 209.97 302.92 195.68 289.30 187.71 C 275.68 179.74 266.53 196.05 254.00 197.00 Z"/>
</g>
<g fill="None" fill-opacity="0.0" stroke="#000000" stroke-opacity="0.95" stroke-width="0.3"><path d="
M 134.00 220.00 
C 115.05 223.44 104.51 246.52 116.43 262.23 C 128.35 277.94 152.63 274.81 160.87 257.92 C 169.11 241.03 154.77 216.23 134.00 220.00
M 134.00 234.00 
C 149.09 231.23 156.59 252.55 141.30 258.64 C 126.02 264.73 118.10 236.92 134.00 234.00 Z"/>
</g>
<g fill="None" fill-opacity="0.0" stroke="#000000" stroke-opacity="0.96" stroke-width="0.3"><path d="
M 384.00 220.00 
C 364.01 223.63 354.73 248.19 367.75 263.25 C 380.77 278.31 404.12 273.80 411.41 256.75 C 418.70 239.71 404.48 216.28 384.00 220.00
M 384.00 234.00 
C 399.24 231.20 406.35 253.19 390.77 258.21 C 375.19 263.24 368.78 236.80 384.00 234.00 Z"/>
</g>
<g fill="None" fill-opacity="0.0" stroke="#000000" stroke-opacity="0.04" stroke-width="0.3"><path d="
M 134.00 234.00 
C 118.10 236.92 126.02 264.73 141.30 258.64 C 156.59 252.55 149.09 231.23 134.00 234.00 Z"/>
</g>
<g fill="None" fill-opacity="0.0" stroke="#000000" stroke-opacity="0.04" stroke-width="0.3"><path d="
M 384.00 234.00 
C 368.78 236.80 375.19 263.24 390.77 258.21 C 406.35 253.19 399.24 231.20 384.00 234.00 Z"/>
</g>
<g fill="None" fill-opacity="0.0" stroke="#000000" stroke-opacity="0.03" stroke-width="0.3"><path d="
M 66.00 252.00 
C 63.98 252.68 61.94 252.74 60.00 252.00
C 59.08 254.55 58.08 255.03 58.00 258.00
C 75.35 269.36 86.86 289.68 103.75 302.25 C 120.64 314.81 118.42 339.65 118.00 361.00 C 117.58 382.35 109.17 390.92 105.21 408.77 C 101.25 426.61 94.76 437.48 93.00 456.00
C 106.09 456.33 102.47 442.42 106.29 434.30 C 110.12 426.17 111.89 416.23 114.74 407.75 C 117.59 399.28 120.03 389.33 123.61 381.75 C 127.19 374.18 140.18 370.19 147.08 376.92 C 153.98 383.65 154.11 393.76 157.36 402.30 C 160.61 410.83 162.46 420.15 165.23 428.77 C 168.00 437.39 171.08 446.91 174.00 456.00
C 176.39 454.73 179.10 456.75 182.00 456.00
C 180.16 442.87 175.71 433.50 172.39 422.75 C 169.08 412.00 166.89 402.27 163.71 391.30 C 160.53 380.32 153.94 369.47 156.00 354.00 C 158.06 338.53 149.46 313.07 165.00 311.00
C 179.31 320.23 190.49 333.16 207.00 339.00
C 207.05 336.47 210.45 335.96 210.00 333.00
C 198.37 323.73 189.99 317.99 178.77 309.23 C 167.55 300.47 161.34 289.74 144.00 292.00 C 126.66 294.26 107.14 292.39 98.25 284.19 C 89.37 275.98 74.30 263.06 66.00 252.00 Z"/>
</g>
<g fill="None" fill-opacity="0.0" stroke="#000000" stroke-opacity="0.02" stroke-width="0.3"><path d="
M 465.00 252.00 
C 462.98 252.68 460.94 252.74 459.00 252.00
C 444.31 265.13 433.79 284.78 418.08 289.94 C 402.38 295.09 367.93 286.24 356.92 299.92 C 345.91 313.60 329.64 320.11 317.00 332.00
C 317.75 333.80 317.88 335.28 317.00 337.00
C 325.92 341.65 331.76 331.15 338.90 326.91 C 346.04 322.67 353.29 316.39 360.00 311.00
C 371.86 309.82 368.63 332.27 368.59 342.25 C 368.55 352.22 361.69 357.84 360.21 366.77 C 358.73 375.70 355.52 382.85 353.00 392.00
C 377.33 392.00 401.67 392.00 426.00 392.00
C 419.52 375.59 415.83 366.65 409.80 350.25 C 403.77 333.85 407.09 312.92 422.75 300.75 C 438.41 288.58 450.68 268.97 467.00 258.00
C 466.94 255.02 465.86 254.34 465.00 252.00 Z"/>
</g>
<g fill="None" fill-opacity="0.0" stroke="#000000" stroke-opacity="0.96" stroke-width="0.3"><path d="
M 252.00 296.00 
C 234.27 299.62 228.48 325.02 241.23 336.77 C 253.98 348.52 275.17 344.70 280.94 328.08 C 286.70 311.47 269.79 292.37 252.00 296.00
M 256.00 309.00 
C 270.08 306.81 271.88 329.25 257.92 330.06 C 243.95 330.87 245.13 310.69 256.00 309.00 Z"/>
</g>
<g fill="None" fill-opacity="0.0" stroke="#000000" stroke-opacity="0.05" stroke-width="0.3"><path d="
M 256.00 309.00 
C 245.13 310.69 243.95 330.87 257.92 330.06 C 271.88 329.25 270.08 306.81 256.00 309.00 Z"/>
</g>
<g fill="None" fill-opacity="0.0" stroke="#000000" stroke-opacity="0.04" stroke-width="0.3"><path d="
M 308.00 346.00 
C 301.95 341.56 298.37 348.13 291.77 350.42 C 285.17 352.72 284.91 355.75 276.77 358.43 C 268.62 361.11 266.82 367.07 254.25 364.80 C 241.67 362.53 230.39 353.41 221.00 344.00
C 209.41 350.39 230.06 360.03 233.70 366.30 C 237.35 372.56 242.16 381.50 240.40 391.25 C 238.64 401.01 235.43 406.11 232.19 413.75 C 228.95 421.38 227.32 427.77 224.13 435.08 C 220.94 442.39 217.85 448.79 215.00 457.00
C 229.24 454.97 228.89 440.32 236.30 433.30 C 243.71 426.27 246.28 411.98 258.92 412.94 C 271.55 413.90 272.18 428.75 279.30 435.70 C 286.42 442.65 289.55 456.77 301.00 457.00
C 295.50 444.40 289.68 431.01 285.12 418.90 C 280.56 406.79 271.20 392.77 275.42 376.77 C 279.65 360.77 296.40 354.97 308.00 346.00 Z"/>
</g>
<g fill="None" fill-opacity="0.0" stroke="#000000" stroke-opacity="0.19" stroke-width="0.3"><path d="
M 382.00 405.00 
C 379.33 405.00 376.67 405.00 374.00 405.00
C 374.59 414.57 373.21 427.80 374.00 437.00 C 374.79 446.20 370.10 459.46 380.00 461.00
C 384.56 443.43 380.75 423.50 382.00 405.00 Z"/>
</g>
<g fill="None" fill-opacity="0.0" stroke="#000000" stroke-opacity="0.13" stroke-width="0.3"><path d="
M 402.00 405.00 
C 388.27 402.99 394.96 426.37 394.00 435.00 C 393.04 443.63 391.18 465.10 402.00 459.00
C 400.34 441.61 400.34 422.41 402.00 405.00 Z"/>
</g>
<g fill="#000000" fill-opacity="0.01" stroke="None">
<path d="
M 0.00 512.00 
L 512.00 512.00
L 512.00 0.00
L 0.00 0.00
L 0.00 512.00
M 121.00 77.00 
C 115.99 77.36 114.15 75.54 110.00 73.00
C 111.59 66.36 113.86 58.03 116.39 53.25 C 118.93 48.46 121.27 34.32 130.07 37.93 C 138.88 41.54 131.39 52.91 129.43 57.77 C 127.46 62.62 125.00 71.29 121.00 77.00
M 427.00 137.00 
C 423.03 159.17 438.54 174.28 453.75 188.25 C 468.97 202.21 472.60 218.23 469.00 240.00
C 478.59 242.95 482.02 254.06 479.21 262.23 C 476.41 270.40 467.00 275.06 460.75 283.75 C 454.50 292.45 444.99 297.45 438.25 306.25 C 431.50 315.04 422.66 317.25 421.40 326.75 C 420.13 336.25 422.57 347.48 426.13 353.92 C 429.69 360.36 430.02 367.43 433.80 375.25 C 437.58 383.07 437.62 386.26 441.06 396.08 C 444.51 405.91 427.08 407.14 415.00 405.00
C 414.91 420.35 415.29 447.24 414.60 460.75 C 413.91 474.25 397.39 476.68 390.00 471.00
C 381.76 474.87 363.39 477.01 361.74 462.25 C 360.08 447.48 363.52 421.77 362.00 405.00
C 353.46 406.66 342.92 407.67 337.00 402.00
C 340.53 376.66 352.76 359.12 355.00 332.00
C 343.65 340.11 335.73 348.33 324.25 352.26 C 312.77 356.20 304.11 364.75 293.75 373.75 C 283.39 382.76 290.24 396.86 294.19 406.25 C 298.14 415.64 303.41 427.05 307.26 436.75 C 311.12 446.45 319.88 459.75 307.25 467.39 C 294.61 475.04 283.97 466.23 277.81 455.75 C 271.65 445.26 263.37 435.90 257.00 427.00
C 252.08 439.54 240.74 447.94 235.41 459.75 C 230.08 471.56 206.25 474.82 202.61 461.25 C 198.97 447.68 208.52 438.89 212.19 426.75 C 215.86 414.60 221.04 406.86 225.80 393.75 C 230.56 380.65 213.98 364.21 202.25 354.75 C 190.52 345.28 181.95 341.84 170.00 331.00
C 171.62 341.67 167.77 361.56 170.20 370.25 C 172.63 378.93 175.23 383.78 177.20 392.25 C 179.16 400.72 182.52 406.33 184.19 414.25 C 185.86 422.18 189.73 429.29 191.57 436.77 C 193.42 444.25 198.04 452.63 193.43 460.77 C 188.81 468.90 180.35 470.12 172.70 468.29 C 165.04 466.45 159.67 460.34 158.36 452.30 C 157.05 444.25 153.21 437.36 151.09 429.90 C 148.98 422.44 147.66 414.40 144.29 407.70 C 140.91 400.99 143.64 389.40 135.00 387.00
C 131.54 399.57 128.30 412.28 124.65 424.70 C 121.00 437.11 116.66 448.16 112.29 460.30 C 107.92 472.45 84.94 472.80 80.61 460.25 C 76.28 447.69 82.67 435.26 86.40 423.25 C 90.13 411.24 92.93 399.40 98.26 387.25 C 103.60 375.10 103.10 353.98 104.00 336.00 C 104.90 318.02 92.55 310.52 79.75 298.25 C 66.96 285.97 54.92 276.60 46.43 264.23 C 37.94 251.86 53.86 233.98 68.00 239.00
C 75.31 200.77 82.68 165.66 91.00 127.00
C 65.11 111.29 88.53 78.74 110.77 87.57 C 133.00 96.41 125.59 130.43 103.00 130.00
C 96.47 170.81 88.14 208.57 79.00 248.00
C 97.72 258.06 100.12 280.01 121.00 277.00 C 141.88 273.99 165.77 277.08 176.30 289.70 C 186.83 302.32 202.17 305.30 212.92 318.13 C 223.66 330.96 234.40 338.91 247.75 347.39 C 261.10 355.88 273.06 344.58 284.92 338.87 C 296.78 333.17 308.97 324.14 320.75 312.75 C 332.53 301.36 345.53 293.65 357.75 282.74 C 369.97 271.82 402.34 282.10 416.75 275.61 C 431.17 269.12 442.66 243.51 457.00 238.00
C 459.13 215.45 451.84 203.40 434.75 188.25 C 417.66 173.09 413.80 161.44 413.00 139.00
C 379.46 138.49 355.06 100.94 371.59 68.25 C 388.13 35.57 434.39 33.84 454.75 61.25 C 475.10 88.67 458.49 131.90 427.00 137.00
M 84.00 78.00 
C 78.50 74.88 80.15 69.04 76.81 64.75 C 73.46 60.46 75.94 50.34 83.25 53.76 C 90.55 57.17 99.02 76.42 84.00 78.00
M 212.00 69.00 
C 214.27 73.68 219.31 78.78 224.00 81.00
C 224.32 86.90 220.20 91.82 214.00 91.00
C 211.73 86.32 206.69 81.22 202.00 79.00
C 202.43 72.28 205.12 69.43 212.00 69.00
M 255.00 73.00 
C 256.78 82.65 239.17 95.63 234.43 87.23 C 229.69 78.84 249.29 63.47 255.00 73.00
M 32.00 86.00 
C 32.63 83.84 32.60 81.23 32.00 79.00
C 34.57 78.13 36.24 76.79 37.00 75.00
C 49.92 77.97 50.31 81.71 62.92 85.13 C 75.52 88.56 69.68 103.63 58.23 97.42 C 46.78 91.22 42.95 93.92 32.00 86.00
M 132.00 94.00 
C 131.84 85.15 152.91 74.78 156.39 84.75 C 159.88 94.73 137.40 103.72 132.00 94.00
M 318.00 93.00 
C 317.33 101.89 322.74 108.49 329.30 115.70 C 335.86 122.91 347.49 117.70 347.00 131.00
C 339.80 134.72 329.18 139.38 322.77 146.77 C 316.36 154.16 322.57 164.81 308.00 165.00
C 302.99 157.57 303.93 150.51 297.87 144.08 C 291.81 137.65 283.47 135.63 276.00 131.00
C 276.03 119.11 292.53 119.02 298.90 109.90 C 305.28 100.78 303.06 87.82 318.00 93.00
M 206.00 122.00 
C 196.47 116.55 211.93 96.39 220.25 101.19 C 228.58 105.99 215.69 124.00 206.00 122.00
M 255.00 112.00 
C 255.96 117.89 250.98 122.97 245.00 122.00
C 242.71 115.44 233.48 112.49 233.00 105.00
C 234.75 103.77 236.75 101.87 238.00 100.00
C 245.50 100.48 248.47 109.77 255.00 112.00
M 167.00 141.00 
C 157.43 140.39 151.80 131.70 144.08 131.87 C 136.36 132.04 128.32 119.70 137.30 116.29 C 146.29 112.87 151.58 123.63 159.75 123.39 C 167.93 123.15 178.46 135.22 167.00 141.00
M 72.00 121.00 
C 70.54 132.39 55.88 138.73 47.00 132.00
C 48.60 129.63 47.53 127.26 47.00 125.00
C 55.29 121.04 62.64 113.32 72.00 121.00
M 130.00 158.00 
C 128.78 159.49 125.63 160.37 126.00 163.00
C 123.84 162.37 121.23 162.40 119.00 163.00
C 114.87 155.31 111.93 151.06 111.00 142.00
C 122.68 131.85 128.20 149.12 130.00 158.00
M 256.00 181.00 
C 264.19 176.66 275.36 170.37 286.25 171.80 C 297.13 173.24 304.43 181.40 310.13 188.92 C 315.83 196.44 315.16 210.02 311.29 218.30 C 307.42 226.59 297.82 238.59 287.75 245.75 C 277.68 252.92 269.34 271.20 259.30 272.64 C 249.25 274.08 238.96 253.95 229.75 247.25 C 220.54 240.54 210.31 227.81 205.81 221.75 C 201.31 215.68 198.94 198.99 204.58 191.23 C 210.21 183.47 216.75 173.27 227.25 172.20 C 237.75 171.13 250.24 172.77 256.00 181.00
M 134.00 220.00 
C 154.77 216.23 169.11 241.03 160.87 257.92 C 152.63 274.81 128.35 277.94 116.43 262.23 C 104.51 246.52 115.05 223.44 134.00 220.00
M 384.00 220.00 
C 404.48 216.28 418.70 239.71 411.41 256.75 C 404.12 273.80 380.77 278.31 367.75 263.25 C 354.73 248.19 364.01 223.63 384.00 220.00
M 252.00 296.00 
C 269.79 292.37 286.70 311.47 280.94 328.08 C 275.17 344.70 253.98 348.52 241.23 336.77 C 228.48 325.02 234.27 299.62 252.00 296.00 Z"/>
</g>
<g fill="#000000" fill-opacity="0.94" stroke="None">
<path d="
M 121.00 77.00 
C 125.00 71.29 127.46 62.62 129.43 57.77 C 131.39 52.91 138.88 41.54 130.07 37.93 C 121.27 34.32 118.93 48.46 116.39 53.25 C 113.86 58.03 111.59 66.36 110.00 73.00
C 114.15 75.54 115.99 77.36 121.00 77.00 Z"/>
</g>
<g fill="#000000" fill-opacity="0.96" stroke="None">
<path d="
M 427.00 137.00 
C 458.49 131.90 475.10 88.67 454.75 61.25 C 434.39 33.84 388.13 35.57 371.59 68.25 C 355.06 100.94 379.46 138.49 413.00 139.00
C 413.80 161.44 417.66 173.09 434.75 188.25 C 451.84 203.40 459.13 215.45 457.00 238.00
C 442.66 243.51 431.17 269.12 416.75 275.61 C 402.34 282.10 369.97 271.82 357.75 282.74 C 345.53 293.65 332.53 301.36 320.75 312.75 C 308.97 324.14 296.78 333.17 284.92 338.87 C 273.06 344.58 261.10 355.88 247.75 347.39 C 234.40 338.91 223.66 330.96 212.92 318.13 C 202.17 305.30 186.83 302.32 176.30 289.70 C 165.77 277.08 141.88 273.99 121.00 277.00 C 100.12 280.01 97.72 258.06 79.00 248.00
C 88.14 208.57 96.47 170.81 103.00 130.00
C 125.59 130.43 133.00 96.41 110.77 87.57 C 88.53 78.74 65.11 111.29 91.00 127.00
C 82.68 165.66 75.31 200.77 68.00 239.00
C 53.86 233.98 37.94 251.86 46.43 264.23 C 54.92 276.60 66.96 285.97 79.75 298.25 C 92.55 310.52 104.90 318.02 104.00 336.00 C 103.10 353.98 103.60 375.10 98.26 387.25 C 92.93 399.40 90.13 411.24 86.40 423.25 C 82.67 435.26 76.28 447.69 80.61 460.25 C 84.94 472.80 107.92 472.45 112.29 460.30 C 116.66 448.16 121.00 437.11 124.65 424.70 C 128.30 412.28 131.54 399.57 135.00 387.00
C 143.64 389.40 140.91 400.99 144.29 407.70 C 147.66 414.40 148.98 422.44 151.09 429.90 C 153.21 437.36 157.05 444.25 158.36 452.30 C 159.67 460.34 165.04 466.45 172.70 468.29 C 180.35 470.12 188.81 468.90 193.43 460.77 C 198.04 452.63 193.42 444.25 191.57 436.77 C 189.73 429.29 185.86 422.18 184.19 414.25 C 182.52 406.33 179.16 400.72 177.20 392.25 C 175.23 383.78 172.63 378.93 170.20 370.25 C 167.77 361.56 171.62 341.67 170.00 331.00
C 181.95 341.84 190.52 345.28 202.25 354.75 C 213.98 364.21 230.56 380.65 225.80 393.75 C 221.04 406.86 215.86 414.60 212.19 426.75 C 208.52 438.89 198.97 447.68 202.61 461.25 C 206.25 474.82 230.08 471.56 235.41 459.75 C 240.74 447.94 252.08 439.54 257.00 427.00
C 263.37 435.90 271.65 445.26 277.81 455.75 C 283.97 466.23 294.61 475.04 307.25 467.39 C 319.88 459.75 311.12 446.45 307.26 436.75 C 303.41 427.05 298.14 415.64 294.19 406.25 C 290.24 396.86 283.39 382.76 293.75 373.75 C 304.11 364.75 312.77 356.20 324.25 352.26 C 335.73 348.33 343.65 340.11 355.00 332.00
C 352.76 359.12 340.53 376.66 337.00 402.00
C 342.92 407.67 353.46 406.66 362.00 405.00
C 363.52 421.77 360.08 447.48 361.74 462.25 C 363.39 477.01 381.76 474.87 390.00 471.00
C 397.39 476.68 413.91 474.25 414.60 460.75 C 415.29 447.24 414.91 420.35 415.00 405.00
C 427.08 407.14 444.51 405.91 441.06 396.08 C 437.62 386.26 437.58 383.07 433.80 375.25 C 430.02 367.43 429.69 360.36 426.13 353.92 C 422.57 347.48 420.13 336.25 421.40 326.75 C 422.66 317.25 431.50 315.04 438.25 306.25 C 444.99 297.45 454.50 292.45 460.75 283.75 C 467.00 275.06 476.41 270.40 479.21 262.23 C 482.02 254.06 478.59 242.95 469.00 240.00
C 472.60 218.23 468.97 202.21 453.75 188.25 C 438.54 174.28 423.03 159.17 427.00 137.00
M 409.00 55.00 
C 437.02 52.47 457.08 78.31 447.81 104.25 C 438.53 130.19 402.21 130.92 386.30 111.70 C 370.39 92.48 384.82 57.18 409.00 55.00
M 111.00 112.00 
C 101.69 124.85 85.40 108.21 98.00 99.00
C 107.35 98.21 111.80 102.89 111.00 112.00
M 66.00 252.00 
C 74.30 263.06 89.37 275.98 98.25 284.19 C 107.14 292.39 126.66 294.26 144.00 292.00 C 161.34 289.74 167.55 300.47 178.77 309.23 C 189.99 317.99 198.37 323.73 210.00 333.00
C 210.45 335.96 207.05 336.47 207.00 339.00
C 190.49 333.16 179.31 320.23 165.00 311.00
C 149.46 313.07 158.06 338.53 156.00 354.00 C 153.94 369.47 160.53 380.32 163.71 391.30 C 166.89 402.27 169.08 412.00 172.39 422.75 C 175.71 433.50 180.16 442.87 182.00 456.00
C 179.10 456.75 176.39 454.73 174.00 456.00
C 171.08 446.91 168.00 437.39 165.23 428.77 C 162.46 420.15 160.61 410.83 157.36 402.30 C 154.11 393.76 153.98 383.65 147.08 376.92 C 140.18 370.19 127.19 374.18 123.61 381.75 C 120.03 389.33 117.59 399.28 114.74 407.75 C 111.89 416.23 110.12 426.17 106.29 434.30 C 102.47 442.42 106.09 456.33 93.00 456.00
C 94.76 437.48 101.25 426.61 105.21 408.77 C 109.17 390.92 117.58 382.35 118.00 361.00 C 118.42 339.65 120.64 314.81 103.75 302.25 C 86.86 289.68 75.35 269.36 58.00 258.00
C 58.08 255.03 59.08 254.55 60.00 252.00
C 61.94 252.74 63.98 252.68 66.00 252.00
M 465.00 252.00 
C 465.86 254.34 466.94 255.02 467.00 258.00
C 450.68 268.97 438.41 288.58 422.75 300.75 C 407.09 312.92 403.77 333.85 409.80 350.25 C 415.83 366.65 419.52 375.59 426.00 392.00
C 401.67 392.00 377.33 392.00 353.00 392.00
C 355.52 382.85 358.73 375.70 360.21 366.77 C 361.69 357.84 368.55 352.22 368.59 342.25 C 368.63 332.27 371.86 309.82 360.00 311.00
C 353.29 316.39 346.04 322.67 338.90 326.91 C 331.76 331.15 325.92 341.65 317.00 337.00
C 317.88 335.28 317.75 333.80 317.00 332.00
C 329.64 320.11 345.91 313.60 356.92 299.92 C 367.93 286.24 402.38 295.09 418.08 289.94 C 433.79 284.78 444.31 265.13 459.00 252.00
C 460.94 252.74 462.98 252.68 465.00 252.00
M 308.00 346.00 
C 296.40 354.97 279.65 360.77 275.42 376.77 C 271.20 392.77 280.56 406.79 285.12 418.90 C 289.68 431.01 295.50 444.40 301.00 457.00
C 289.55 456.77 286.42 442.65 279.30 435.70 C 272.18 428.75 271.55 413.90 258.92 412.94 C 246.28 411.98 243.71 426.27 236.30 433.30 C 228.89 440.32 229.24 454.97 215.00 457.00
C 217.85 448.79 220.94 442.39 224.13 435.08 C 227.32 427.77 228.95 421.38 232.19 413.75 C 235.43 406.11 238.64 401.01 240.40 391.25 C 242.16 381.50 237.35 372.56 233.70 366.30 C 230.06 360.03 209.41 350.39 221.00 344.00
C 230.39 353.41 241.67 362.53 254.25 364.80 C 266.82 367.07 268.62 361.11 276.77 358.43 C 284.91 355.75 285.17 352.72 291.77 350.42 C 298.37 348.13 301.95 341.56 308.00 346.00
M 382.00 405.00 
C 380.75 423.50 384.56 443.43 380.00 461.00
C 370.10 459.46 374.79 446.20 374.00 437.00 C 373.21 427.80 374.59 414.57 374.00 405.00
C 376.67 405.00 379.33 405.00 382.00 405.00
M 402.00 405.00 
C 400.34 422.41 400.34 441.61 402.00 459.00
C 391.18 465.10 393.04 443.63 394.00 435.00 C 394.96 426.37 388.27 402.99 402.00 405.00 Z"/>
</g>
<g fill="#000000" fill-opacity="0.94" stroke="None">
<path d="
M 84.00 78.00 
C 99.02 76.42 90.55 57.17 83.25 53.76 C 75.94 50.34 73.46 60.46 76.81 64.75 C 80.15 69.04 78.50 74.88 84.00 78.00 Z"/>
</g>
<g fill="#000000" fill-opacity="0.03" stroke="None">
<path d="
M 409.00 55.00 
C 384.82 57.18 370.39 92.48 386.30 111.70 C 402.21 130.92 438.53 130.19 447.81 104.25 C 457.08 78.31 437.02 52.47 409.00 55.00
M 441.00 84.00 
C 450.31 102.55 424.62 127.60 408.00 115.00
C 406.64 104.02 415.88 106.55 423.25 102.81 C 430.63 99.08 428.10 86.55 434.00 83.00
C 436.22 83.93 438.87 85.11 441.00 84.00 Z"/>
</g>
<g fill="#000000" fill-opacity="0.96" stroke="None">
<path d="
M 212.00 69.00 
C 205.12 69.43 202.43 72.28 202.00 79.00
C 206.69 81.22 211.73 86.32 214.00 91.00
C 220.20 91.82 224.32 86.90 224.00 81.00
C 219.31 78.78 214.27 73.68 212.00 69.00 Z"/>
</g>
<g fill="#000000" fill-opacity="0.95" stroke="None">
<path d="
M 255.00 73.00 
C 249.29 63.47 229.69 78.84 234.43 87.23 C 239.17 95.63 256.78 82.65 255.00 73.00 Z"/>
</g>
<g fill="#000000" fill-opacity="0.95" stroke="None">
<path d="
M 32.00 86.00 
C 42.95 93.92 46.78 91.22 58.23 97.42 C 69.68 103.63 75.52 88.56 62.92 85.13 C 50.31 81.71 49.92 77.97 37.00 75.00
C 36.24 76.79 34.57 78.13 32.00 79.00
C 32.60 81.23 32.63 83.84 32.00 86.00 Z"/>
</g>
<g fill="#000000" fill-opacity="0.93" stroke="None">
<path d="
M 132.00 94.00 
C 137.40 103.72 159.88 94.73 156.39 84.75 C 152.91 74.78 131.84 85.15 132.00 94.00 Z"/>
</g>
<g fill="#000000" fill-opacity="0.95" stroke="None">
<path d="
M 441.00 84.00 
C 438.87 85.11 436.22 83.93 434.00 83.00
C 428.10 86.55 430.63 99.08 423.25 102.81 C 415.88 106.55 406.64 104.02 408.00 115.00
C 424.62 127.60 450.31 102.55 441.00 84.00 Z"/>
</g>
<g fill="#000000" fill-opacity="0.96" stroke="None">
<path d="
M 318.00 93.00 
C 303.06 87.82 305.28 100.78 298.90 109.90 C 292.53 119.02 276.03 119.11 276.00 131.00
C 283.47 135.63 291.81 137.65 297.87 144.08 C 303.93 150.51 302.99 157.57 308.00 165.00
C 322.57 164.81 316.36 154.16 322.77 146.77 C 329.18 139.38 339.80 134.72 347.00 131.00
C 347.49 117.70 335.86 122.91 329.30 115.70 C 322.74 108.49 317.33 101.89 318.00 93.00
M 323.00 129.00 
C 317.59 130.94 314.95 135.10 312.00 140.00
C 309.33 135.01 302.99 131.34 300.00 127.00
C 304.53 125.94 309.32 120.81 311.00 116.00
C 314.50 119.16 320.74 124.18 323.00 129.00 Z"/>
</g>
<g fill="#000000" fill-opacity="0.06" stroke="None">
<path d="
M 111.00 112.00 
C 111.80 102.89 107.35 98.21 98.00 99.00
C 85.40 108.21 101.69 124.85 111.00 112.00 Z"/>
</g>
<g fill="#000000" fill-opacity="0.95" stroke="None">
<path d="
M 206.00 122.00 
C 215.69 124.00 228.58 105.99 220.25 101.19 C 211.93 96.39 196.47 116.55 206.00 122.00 Z"/>
</g>
<g fill="#000000" fill-opacity="0.96" stroke="None">
<path d="
M 255.00 112.00 
C 248.47 109.77 245.50 100.48 238.00 100.00
C 236.75 101.87 234.75 103.77 233.00 105.00
C 233.48 112.49 242.71 115.44 245.00 122.00
C 250.98 122.97 255.96 117.89 255.00 112.00 Z"/>
</g>
<g fill="#000000" fill-opacity="0.94" stroke="None">
<path d="
M 167.00 141.00 
C 178.46 135.22 167.93 123.15 159.75 123.39 C 151.58 123.63 146.29 112.87 137.30 116.29 C 128.32 119.70 136.36 132.04 144.08 131.87 C 151.80 131.70 157.43 140.39 167.00 141.00 Z"/>
</g>
<g fill="#000000" fill-opacity="0.07" stroke="None">
<path d="
M 323.00 129.00 
C 320.74 124.18 314.50 119.16 311.00 116.00
C 309.32 120.81 304.53 125.94 300.00 127.00
C 302.99 131.34 309.33 135.01 312.00 140.00
C 314.95 135.10 317.59 130.94 323.00 129.00 Z"/>
</g>
<g fill="#000000" fill-opacity="0.94" stroke="None">
<path d="
M 72.00 121.00 
C 62.64 113.32 55.29 121.04 47.00 125.00
C 47.53 127.26 48.60 129.63 47.00 132.00
C 55.88 138.73 70.54 132.39 72.00 121.00 Z"/>
</g>
<g fill="#000000" fill-opacity="0.94" stroke="None">
<path d="
M 130.00 158.00 
C 128.20 149.12 122.68 131.85 111.00 142.00
C 111.93 151.06 114.87 155.31 119.00 163.00
C 121.23 162.40 123.84 162.37 126.00 163.00
C 125.63 160.37 128.78 159.49 130.00 158.00 Z"/>
</g>
<g fill="#000000" fill-opacity="0.97" stroke="None">
<path d="
M 256.00 181.00 
C 250.24 172.77 237.75 171.13 227.25 172.20 C 216.75 173.27 210.21 183.47 204.58 191.23 C 198.94 198.99 201.31 215.68 205.81 221.75 C 210.31 227.81 220.54 240.54 229.75 247.25 C 238.96 253.95 249.25 274.08 259.30 272.64 C 269.34 271.20 277.68 252.92 287.75 245.75 C 297.82 238.59 307.42 226.59 311.29 218.30 C 315.16 210.02 315.83 196.44 310.13 188.92 C 304.43 181.40 297.13 173.24 286.25 171.80 C 275.36 170.37 264.19 176.66 256.00 181.00
M 254.00 197.00 
C 266.53 196.05 275.68 179.74 289.30 187.71 C 302.92 195.68 304.78 209.97 294.25 221.25 C 283.72 232.52 269.29 245.24 259.00 257.00
C 246.15 248.48 237.45 234.81 225.25 224.75 C 213.05 214.69 211.46 201.65 221.25 191.25 C 231.03 180.84 246.55 186.40 254.00 197.00 Z"/>
</g>
<g fill="#000000" fill-opacity="0.02" stroke="None">
<path d="
M 254.00 197.00 
C 246.55 186.40 231.03 180.84 221.25 191.25 C 211.46 201.65 213.05 214.69 225.25 224.75 C 237.45 234.81 246.15 248.48 259.00 257.00
C 269.29 245.24 283.72 232.52 294.25 221.25 C 304.78 209.97 302.92 195.68 289.30 187.71 C 275.68 179.74 266.53 196.05 254.00 197.00 Z"/>
</g>
<g fill="#000000" fill-opacity="0.95" stroke="None">
<path d="
M 134.00 220.00 
C 115.05 223.44 104.51 246.52 116.43 262.23 C 128.35 277.94 152.63 274.81 160.87 257.92 C 169.11 241.03 154.77 216.23 134.00 220.00
M 134.00 234.00 
C 149.09 231.23 156.59 252.55 141.30 258.64 C 126.02 264.73 118.10 236.92 134.00 234.00 Z"/>
</g>
<g fill="#000000" fill-opacity="0.96" stroke="None">
<path d="
M 384.00 220.00 
C 364.01 223.63 354.73 248.19 367.75 263.25 C 380.77 278.31 404.12 273.80 411.41 256.75 C 418.70 239.71 404.48 216.28 384.00 220.00
M 384.00 234.00 
C 399.24 231.20 406.35 253.19 390.77 258.21 C 375.19 263.24 368.78 236.80 384.00 234.00 Z"/>
</g>
<g fill="#000000" fill-opacity="0.04" stroke="None">
<path d="
M 134.00 234.00 
C 118.10 236.92 126.02 264.73 141.30 258.64 C 156.59 252.55 149.09 231.23 134.00 234.00 Z"/>
</g>
<g fill="#000000" fill-opacity="0.04" stroke="None">
<path d="
M 384.00 234.00 
C 368.78 236.80 375.19 263.24 390.77 258.21 C 406.35 253.19 399.24 231.20 384.00 234.00 Z"/>
</g>
<g fill="#000000" fill-opacity="0.03" stroke="None">
<path d="
M 66.00 252.00 
C 63.98 252.68 61.94 252.74 60.00 252.00
C 59.08 254.55 58.08 255.03 58.00 258.00
C 75.35 269.36 86.86 289.68 103.75 302.25 C 120.64 314.81 118.42 339.65 118.00 361.00 C 117.58 382.35 109.17 390.92 105.21 408.77 C 101.25 426.61 94.76 437.48 93.00 456.00
C 106.09 456.33 102.47 442.42 106.29 434.30 C 110.12 426.17 111.89 416.23 114.74 407.75 C 117.59 399.28 120.03 389.33 123.61 381.75 C 127.19 374.18 140.18 370.19 147.08 376.92 C 153.98 383.65 154.11 393.76 157.36 402.30 C 160.61 410.83 162.46 420.15 165.23 428.77 C 168.00 437.39 171.08 446.91 174.00 456.00
C 176.39 454.73 179.10 456.75 182.00 456.00
C 180.16 442.87 175.71 433.50 172.39 422.75 C 169.08 412.00 166.89 402.27 163.71 391.30 C 160.53 380.32 153.94 369.47 156.00 354.00 C 158.06 338.53 149.46 313.07 165.00 311.00
C 179.31 320.23 190.49 333.16 207.00 339.00
C 207.05 336.47 210.45 335.96 210.00 333.00
C 198.37 323.73 189.99 317.99 178.77 309.23 C 167.55 300.47 161.34 289.74 144.00 292.00 C 126.66 294.26 107.14 292.39 98.25 284.19 C 89.37 275.98 74.30 263.06 66.00 252.00 Z"/>
</g>
<g fill="#000000" fill-opacity="0.02" stroke="None">
<path d="
M 465.00 252.00 
C 462.98 252.68 460.94 252.74 459.00 252.00
C 444.31 265.13 433.79 284.78 418.08 289.94 C 402.38 295.09 367.93 286.24 356.92 299.92 C 345.91 313.60 329.64 320.11 317.00 332.00
C 317.75 333.80 317.88 335.28 317.00 337.00
C 325.92 341.65 331.76 331.15 338.90 326.91 C 346.04 322.67 353.29 316.39 360.00 311.00
C 371.86 309.82 368.63 332.27 368.59 342.25 C 368.55 352.22 361.69 357.84 360.21 366.77 C 358.73 375.70 355.52 382.85 353.00 392.00
C 377.33 392.00 401.67 392.00 426.00 392.00
C 419.52 375.59 415.83 366.65 409.80 350.25 C 403.77 333.85 407.09 312.92 422.75 300.75 C 438.41 288.58 450.68 268.97 467.00 258.00
C 466.94 255.02 465.86 254.34 465.00 252.00 Z"/>
</g>
<g fill="#000000" fill-opacity="0.96" stroke="None">
<path d="
M 252.00 296.00 
C 234.27 299.62 228.48 325.02 241.23 336.77 C 253.98 348.52 275.17 344.70 280.94 328.08 C 286.70 311.47 269.79 292.37 252.00 296.00
M 256.00 309.00 
C 270.08 306.81 271.88 329.25 257.92 330.06 C 243.95 330.87 245.13 310.69 256.00 309.00 Z"/>
</g>
<g fill="#000000" fill-opacity="0.05" stroke="None">
<path d="
M 256.00 309.00 
C 245.13 310.69 243.95 330.87 257.92 330.06 C 271.88 329.25 270.08 306.81 256.00 309.00 Z"/>
</g>
<g fill="#000000" fill-opacity="0.04" stroke="None">
<path d="
M 308.00 346.00 
C 301.95 341.56 298.37 348.13 291.77 350.42 C 285.17 352.72 284.91 355.75 276.77 358.43 C 268.62 361.11 266.82 367.07 254.25 364.80 C 241.67 362.53 230.39 353.41 221.00 344.00
C 209.41 350.39 230.06 360.03 233.70 366.30 C 237.35 372.56 242.16 381.50 240.40 391.25 C 238.64 401.01 235.43 406.11 232.19 413.75 C 228.95 421.38 227.32 427.77 224.13 435.08 C 220.94 442.39 217.85 448.79 215.00 457.00
C 229.24 454.97 228.89 440.32 236.30 433.30 C 243.71 426.27 246.28 411.98 258.92 412.94 C 271.55 413.90 272.18 428.75 279.30 435.70 C 286.42 442.65 289.55 456.77 301.00 457.00
C 295.50 444.40 289.68 431.01 285.12 418.90 C 280.56 406.79 271.20 392.77 275.42 376.77 C 279.65 360.77 296.40 354.97 308.00 346.00 Z"/>
</g>
<g fill="#000000" fill-opacity="0.19" stroke="None">
<path d="
M 382.00 405.00 
C 379.33 405.00 376.67 405.00 374.00 405.00
C 374.59 414.57 373.21 427.80 374.00 437.00 C 374.79 446.20 370.10 459.46 380.00 461.00
C 384.56 443.43 380.75 423.50 382.00 405.00 Z"/>
</g>
<g fill="#000000" fill-opacity="0.13" stroke="None">
<path d="
M 402.00 405.00 
C 388.27 402.99 394.96 426.37 394.00 435.00 C 393.04 443.63 391.18 465.10 402.00 459.00
C 400.34 441.61 400.34 422.41 402.00 405.00 Z"/>
</g>
</svg>