<svg xmlns="http://www.w3.org/2000/svg" xmlns:v="https://svgstorm.com"
viewBox = "0 0 512 512"
width="512"
height="512">
<g fill="None" fill-opacity="0.0" stroke="#000000" stroke-opacity="0.01" stroke-width="0.3"><path d="
M 0.00 512.00 
L 512.00 512.00
L 512.00 0.00
L 0.00 0.00
L 0.00 512.00
M 426.00 69.00 
C 437.56 67.21 448.39 71.82 456.75 74.26 C 465.11 76.70 475.67 85.94 479.19 94.25 C 482.71 102.57 488.74 114.55 484.80 127.25 C 480.86 139.95 482.35 144.25 473.87 153.92 C 465.39 163.59 466.54 184.56 467.00 202.00 C 467.46 219.44 466.92 241.87 467.00 260.00 C 467.08 278.13 467.24 299.99 467.00 318.00 C 466.76 336.01 467.69 360.08 467.00 377.00 C 466.31 393.92 471.56 410.27 460.25 418.25 C 448.94 426.23 431.74 419.21 414.00 421.00 C 396.26 422.79 374.62 420.08 356.00 421.00 C 337.38 421.92 315.88 420.31 297.00 421.00
C 294.39 429.82 291.45 436.49 289.00 446.00
C 299.87 446.06 319.35 445.62 327.75 446.60 C 336.15 447.59 340.94 454.09 346.39 460.75 C 351.85 467.42 352.41 475.96 351.22 487.22 C 350.03 498.48 335.00 493.34 322.00 494.00 C 309.00 494.66 291.95 493.67 278.00 494.00 C 264.05 494.33 247.26 493.76 233.00 494.00 C 218.74 494.24 203.20 493.70 189.00 494.00 C 174.80 494.30 160.10 493.00 147.00 495.00
C 139.42 479.86 142.64 464.51 153.25 454.25 C 163.85 443.98 186.90 443.03 206.00 446.00
C 202.68 436.63 200.23 429.40 198.00 421.00
C 174.91 421.48 149.90 420.36 127.00 421.00 C 104.10 421.64 77.10 419.78 55.00 421.00 C 32.90 422.22 26.48 415.27 27.00 393.00 C 27.52 370.73 26.85 343.84 27.00 321.00 C 27.15 298.16 27.13 272.74 27.00 250.00 C 26.87 227.26 27.47 199.94 27.00 178.00 C 26.53 156.06 29.85 146.40 52.00 147.00 C 74.15 147.60 100.97 146.69 124.00 147.00 C 147.03 147.31 172.73 146.76 196.00 147.00
C 187.91 131.00 184.29 107.15 195.39 91.25 C 206.50 75.34 227.56 67.43 248.00 69.00
C 248.62 60.36 235.74 60.26 231.25 53.75 C 226.76 47.24 223.30 39.35 227.13 32.08 C 230.96 24.81 233.00 20.05 242.25 18.20 C 251.50 16.35 266.10 18.59 278.00 18.00 C 289.90 17.41 305.47 18.10 318.00 18.00 C 330.53 17.90 346.50 17.71 359.00 18.00 C 371.50 18.29 387.24 17.10 399.00 18.00 C 410.76 18.90 424.67 15.58 433.25 18.20 C 441.82 20.81 444.46 25.57 447.19 33.25 C 449.92 40.94 447.20 46.81 443.29 53.30 C 439.37 59.79 424.75 60.39 426.00 69.00 Z"/>
</g>
<g fill="None" fill-opacity="0.0" stroke="#000000" stroke-opacity="0.97" stroke-width="0.3"><path d="
M 426.00 69.00 
C 424.75 60.39 439.37 59.79 443.29 53.30 C 447.20 46.81 449.92 40.94 447.19 33.25 C 444.46 25.57 441.82 20.81 433.25 18.20 C 424.67 15.58 410.76 18.90 399.00 18.00 C 387.24 17.10 371.50 18.29 359.00 18.00 C 346.50 17.71 330.53 17.90 318.00 18.00 C 305.47 18.10 289.90 17.41 278.00 18.00 C 266.10 18.59 251.50 16.35 242.25 18.20 C 233.00 20.05 230.96 24.81 227.13 32.08 C 223.30 39.35 226.76 47.24 231.25 53.75 C 235.74 60.26 248.62 60.36 248.00 69.00
C 227.56 67.43 206.50 75.34 195.39 91.25 C 184.29 107.15 187.91 131.00 196.00 147.00
C 172.73 146.76 147.03 147.31 124.00 147.00 C 100.97 146.69 74.15 147.60 52.00 147.00 C 29.85 146.40 26.53 156.06 27.00 178.00 C 27.47 199.94 26.87 227.26 27.00 250.00 C 27.13 272.74 27.15 298.16 27.00 321.00 C 26.85 343.84 27.52 370.73 27.00 393.00 C 26.48 415.27 32.90 422.22 55.00 421.00 C 77.10 419.78 104.10 421.64 127.00 421.00 C 149.90 420.36 174.91 421.48 198.00 421.00
C 200.23 429.40 202.68 436.63 206.00 446.00
C 186.90 443.03 163.85 443.98 153.25 454.25 C 142.64 464.51 139.42 479.86 147.00 495.00
C 160.10 493.00 174.80 494.30 189.00 494.00 C 203.20 493.70 218.74 494.24 233.00 494.00 C 247.26 493.76 264.05 494.33 278.00 494.00 C 291.95 493.67 309.00 494.66 322.00 494.00 C 335.00 493.34 350.03 498.48 351.22 487.22 C 352.41 475.96 351.85 467.42 346.39 460.75 C 340.94 454.09 336.15 447.59 327.75 446.60 C 319.35 445.62 299.87 446.06 289.00 446.00
C 291.45 436.49 294.39 429.82 297.00 421.00
C 315.88 420.31 337.38 421.92 356.00 421.00 C 374.62 420.08 396.26 422.79 414.00 421.00 C 431.74 419.21 448.94 426.23 460.25 418.25 C 471.56 410.27 466.31 393.92 467.00 377.00 C 467.69 360.08 466.76 336.01 467.00 318.00 C 467.24 299.99 467.08 278.13 467.00 260.00 C 466.92 241.87 467.46 219.44 467.00 202.00 C 466.54 184.56 465.39 163.59 473.87 153.92 C 482.35 144.25 480.86 139.95 484.80 127.25 C 488.74 114.55 482.71 102.57 479.19 94.25 C 475.67 85.94 465.11 76.70 456.75 74.26 C 448.39 71.82 437.56 67.21 426.00 69.00
M 429.00 32.00 
C 440.74 47.41 421.82 49.20 405.00 48.00 C 388.18 46.80 365.57 48.84 348.00 48.00 C 330.43 47.16 309.49 49.03 292.00 48.00 C 274.51 46.97 254.24 51.64 241.00 44.00
C 239.70 26.79 257.31 32.53 273.00 32.00 C 288.69 31.47 309.46 32.26 326.00 32.00 C 342.54 31.74 361.21 32.17 378.00 32.00 C 394.79 31.83 412.87 32.19 429.00 32.00
M 411.00 62.00 
C 408.24 82.93 411.16 118.31 410.20 137.25 C 409.24 156.19 403.97 160.95 394.90 174.90 C 385.83 188.86 371.01 196.04 358.92 200.92 C 346.83 205.79 325.16 203.82 313.75 199.24 C 302.34 194.66 288.28 189.63 278.43 175.23 C 268.58 160.83 265.97 157.26 263.60 138.25 C 261.24 119.24 264.13 83.76 263.00 62.00
C 312.33 62.00 361.67 62.00 411.00 62.00
M 248.00 83.00 
C 248.00 88.33 248.00 93.67 248.00 99.00
C 234.02 94.08 217.58 105.89 219.01 119.01 C 220.44 132.13 227.29 142.92 238.25 152.75 C 249.20 162.59 258.90 164.00 262.00 179.00
C 246.72 176.31 233.78 166.23 219.75 153.25 C 205.73 140.26 199.80 121.12 206.71 103.70 C 213.63 86.27 230.20 85.67 248.00 83.00
M 411.00 180.00 
C 415.46 164.25 423.32 163.15 435.25 153.20 C 447.18 143.25 452.92 132.35 454.07 118.92 C 455.21 105.48 441.47 94.42 426.00 99.00
C 426.00 93.67 426.00 88.33 426.00 83.00
C 441.13 83.06 451.40 87.41 461.75 96.25 C 472.10 105.09 471.75 121.63 467.81 133.25 C 463.87 144.88 453.70 156.19 442.70 164.70 C 431.71 173.21 424.12 174.15 411.00 180.00
M 248.00 113.00 
C 249.09 122.62 247.73 131.40 249.00 141.00
C 239.32 133.73 235.63 127.08 234.00 116.00
C 237.98 112.77 242.29 113.28 248.00 113.00
M 440.00 116.00 
C 439.25 126.49 433.55 131.96 426.00 141.00
C 425.11 132.60 425.41 122.33 426.00 113.00
C 432.38 112.53 436.00 113.53 440.00 116.00
M 284.00 200.00 
C 291.89 208.89 303.06 212.27 315.00 216.00
C 311.89 244.26 308.65 268.76 300.00 295.00
C 290.43 294.53 279.59 296.05 271.00 294.00
C 264.01 301.38 267.24 316.31 267.00 328.00 C 266.76 339.69 282.18 335.65 294.00 336.00 C 305.82 336.35 324.52 336.06 337.00 336.00 C 349.48 335.94 368.10 336.50 380.00 336.00 C 391.90 335.50 406.40 339.50 407.91 328.90 C 409.42 318.30 410.24 300.16 402.00 294.00
C 393.16 296.28 383.25 294.37 374.00 295.00
C 365.67 271.20 361.75 244.53 359.00 215.00
C 376.97 211.51 387.17 201.37 406.08 197.94 C 425.00 194.50 436.67 184.58 453.00 175.00
C 453.00 241.00 453.00 307.00 453.00 373.00
C 316.26 371.33 177.72 371.33 41.00 373.00
C 41.06 357.99 40.92 343.01 41.00 328.00 C 41.08 312.99 40.86 296.91 41.00 282.00 C 41.14 267.09 40.69 251.63 41.00 237.00 C 41.31 222.37 40.33 205.02 41.00 191.00 C 41.67 176.98 36.07 161.21 51.00 162.00 C 65.94 162.79 82.03 162.08 97.00 162.00 C 111.97 161.92 127.14 163.06 142.00 162.00 C 156.86 160.94 173.45 164.65 188.00 162.00 C 202.55 159.35 211.65 167.28 218.77 174.23 C 225.88 181.18 232.03 182.17 239.89 187.11 C 247.76 192.05 252.74 192.17 260.30 195.71 C 267.86 199.25 275.73 198.83 284.00 200.00
M 345.00 218.00 
C 345.66 245.28 351.00 270.31 358.00 295.00
C 344.00 295.00 330.00 295.00 316.00 295.00
C 323.11 270.11 328.25 245.38 329.00 218.00
C 333.81 219.63 340.21 219.61 345.00 218.00
M 392.00 309.00 
C 392.00 313.00 392.00 317.00 392.00 321.00
C 355.00 321.00 318.00 321.00 281.00 321.00
C 281.00 317.00 281.00 313.00 281.00 309.00
C 318.00 309.00 355.00 309.00 392.00 309.00
M 453.00 388.00 
C 452.70 394.77 454.50 402.24 450.00 407.00
C 437.53 405.00 425.00 406.24 412.00 406.00 C 399.00 405.76 385.10 406.11 372.00 406.00 C 358.90 405.89 346.17 406.04 333.00 406.00 C 319.83 405.96 306.23 406.01 293.00 406.00 C 279.77 405.99 266.22 405.98 253.00 406.00 C 239.78 406.02 227.23 405.94 214.00 406.00 C 200.77 406.06 187.29 405.86 174.00 406.00 C 160.71 406.14 147.31 405.69 134.00 406.00 C 120.69 406.31 108.44 405.29 95.00 406.00 C 81.56 406.71 68.73 404.46 55.00 406.00 C 41.27 407.54 41.07 402.45 41.02 388.98
C 178.33 388.00 315.67 388.00 453.00 388.00
M 281.00 421.00 
C 278.66 430.70 274.60 437.53 274.00 446.00
C 256.33 446.00 238.67 446.00 221.00 446.00
C 219.97 437.34 215.26 430.79 214.00 421.00
C 236.33 421.00 258.67 421.00 281.00 421.00
M 337.00 480.00 
C 277.92 478.33 217.05 478.33 158.00 480.00
C 158.42 455.59 183.12 460.75 206.00 461.00 C 228.88 461.25 262.95 460.45 286.00 461.00 C 309.05 461.55 336.01 454.05 337.00 480.00 Z"/>
</g>
<g fill="None" fill-opacity="0.0" stroke="#000000" stroke-opacity="0.07" stroke-width="0.3"><path d="
M 429.00 32.00 
C 412.87 32.19 394.79 31.83 378.00 32.00 C 361.21 32.17 342.54 31.74 326.00 32.00 C 309.46 32.26 288.69 31.47 273.00 32.00 C 257.31 32.53 239.70 26.79 241.00 44.00
C 254.24 51.64 274.51 46.97 292.00 48.00 C 309.49 49.03 330.43 47.16 348.00 48.00 C 365.57 48.84 388.18 46.80 405.00 48.00 C 421.82 49.20 440.74 47.41 429.00 32.00 Z"/>
</g>
<g fill="None" fill-opacity="0.0" stroke="#000000" stroke-opacity="0.02" stroke-width="0.3"><path d="
M 411.00 62.00 
C 361.67 62.00 312.33 62.00 263.00 62.00
C 264.13 83.76 261.24 119.24 263.60 138.25 C 265.97 157.26 268.58 160.83 278.43 175.23 C 288.28 189.63 302.34 194.66 313.75 199.24 C 325.16 203.82 346.83 205.79 358.92 200.92 C 371.01 196.04 385.83 188.86 394.90 174.90 C 403.97 160.95 409.24 156.19 410.20 137.25 C 411.16 118.31 408.24 82.93 411.00 62.00
M 358.00 101.00 
C 369.02 102.18 380.34 102.30 390.00 110.00
C 389.41 122.01 379.42 129.99 371.00 138.00
C 370.31 146.91 381.21 166.79 370.23 172.57 C 359.25 178.35 348.20 163.48 338.30 163.36 C 328.39 163.24 318.08 174.96 306.75 173.20 C 295.42 171.44 300.15 152.88 301.20 142.75 C 302.25 132.63 280.52 120.52 284.40 110.25 C 288.27 99.98 307.68 104.07 316.00 101.00
C 320.79 95.33 326.57 73.99 338.23 74.79 C 349.89 75.58 350.41 94.84 358.00 101.00 Z"/>
</g>
<g fill="None" fill-opacity="0.0" stroke="#000000" stroke-opacity="0.96" stroke-width="0.3"><path d="
M 358.00 101.00 
C 350.41 94.84 349.89 75.58 338.23 74.79 C 326.57 73.99 320.79 95.33 316.00 101.00
C 307.68 104.07 288.27 99.98 284.40 110.25 C 280.52 120.52 302.25 132.63 301.20 142.75 C 300.15 152.88 295.42 171.44 306.75 173.20 C 318.08 174.96 328.39 163.24 338.30 163.36 C 348.20 163.48 359.25 178.35 370.23 172.57 C 381.21 166.79 370.31 146.91 371.00 138.00
C 379.42 129.99 389.41 122.01 390.00 110.00
C 380.34 102.30 369.02 102.18 358.00 101.00
M 338.00 96.00 
C 341.75 101.01 343.36 108.89 348.92 113.08 C 354.48 117.28 362.65 115.38 369.00 117.00
C 366.39 123.78 359.45 127.59 357.61 133.75 C 355.76 139.92 357.26 147.57 359.00 155.00
C 345.41 147.05 328.59 147.00 315.00 155.00
C 316.81 148.18 317.82 140.42 316.24 133.75 C 314.67 127.09 307.75 123.95 305.00 117.00
C 312.65 115.58 319.00 116.66 324.90 112.88 C 330.80 109.11 331.38 99.31 338.00 96.00 Z"/>
</g>
<g fill="None" fill-opacity="0.0" stroke="#000000" stroke-opacity="0.04" stroke-width="0.3"><path d="
M 248.00 83.00 
C 230.20 85.67 213.63 86.27 206.71 103.70 C 199.80 121.12 205.73 140.26 219.75 153.25 C 233.78 166.23 246.72 176.31 262.00 179.00
C 258.90 164.00 249.20 162.59 238.25 152.75 C 227.29 142.92 220.44 132.13 219.01 119.01 C 217.58 105.89 234.02 94.08 248.00 99.00
C 248.00 93.67 248.00 88.33 248.00 83.00 Z"/>
</g>
<g fill="None" fill-opacity="0.0" stroke="#000000" stroke-opacity="0.04" stroke-width="0.3"><path d="
M 411.00 180.00 
C 424.12 174.15 431.71 173.21 442.70 164.70 C 453.70 156.19 463.87 144.88 467.81 133.25 C 471.75 121.63 472.10 105.09 461.75 96.25 C 451.40 87.41 441.13 83.06 426.00 83.00
C 426.00 88.33 426.00 93.67 426.00 99.00
C 441.47 94.42 455.21 105.48 454.07 118.92 C 452.92 132.35 447.18 143.25 435.25 153.20 C 423.32 163.15 415.46 164.25 411.00 180.00 Z"/>
</g>
<g fill="None" fill-opacity="0.0" stroke="#000000" stroke-opacity="0.03" stroke-width="0.3"><path d="
M 338.00 96.00 
C 331.38 99.31 330.80 109.11 324.90 112.88 C 319.00 116.66 312.65 115.58 305.00 117.00
C 307.75 123.95 314.67 127.09 316.24 133.75 C 317.82 140.42 316.81 148.18 315.00 155.00
C 328.59 147.00 345.41 147.05 359.00 155.00
C 357.26 147.57 355.76 139.92 357.61 133.75 C 359.45 127.59 366.39 123.78 369.00 117.00
C 362.65 115.38 354.48 117.28 348.92 113.08 C 343.36 108.89 341.75 101.01 338.00 96.00 Z"/>
</g>
<g fill="None" fill-opacity="0.0" stroke="#000000" stroke-opacity="0.08" stroke-width="0.3"><path d="
M 248.00 113.00 
C 242.29 113.28 237.98 112.77 234.00 116.00
C 235.63 127.08 239.32 133.73 249.00 141.00
C 247.73 131.40 249.09 122.62 248.00 113.00 Z"/>
</g>
<g fill="None" fill-opacity="0.0" stroke="#000000" stroke-opacity="0.07" stroke-width="0.3"><path d="
M 440.00 116.00 
C 436.00 113.53 432.38 112.53 426.00 113.00
C 425.41 122.33 425.11 132.60 426.00 141.00
C 433.55 131.96 439.25 126.49 440.00 116.00 Z"/>
</g>
<g fill="None" fill-opacity="0.0" stroke="#000000" stroke-opacity="0.01" stroke-width="0.3"><path d="
M 284.00 200.00 
C 275.73 198.83 267.86 199.25 260.30 195.71 C 252.74 192.17 247.76 192.05 239.89 187.11 C 232.03 182.17 225.88 181.18 218.77 174.23 C 211.65 167.28 202.55 159.35 188.00 162.00 C 173.45 164.65 156.86 160.94 142.00 162.00 C 127.14 163.06 111.97 161.92 97.00 162.00 C 82.03 162.08 65.94 162.79 51.00 162.00 C 36.07 161.21 41.67 176.98 41.00 191.00 C 40.33 205.02 41.31 222.37 41.00 237.00 C 40.69 251.63 41.14 267.09 41.00 282.00 C 40.86 296.91 41.08 312.99 41.00 328.00 C 40.92 343.01 41.06 357.99 41.00 373.00
C 177.72 371.33 316.26 371.33 453.00 373.00
C 453.00 307.00 453.00 241.00 453.00 175.00
C 436.67 184.58 425.00 194.50 406.08 197.94 C 387.17 201.37 376.97 211.51 359.00 215.00
C 361.75 244.53 365.67 271.20 374.00 295.00
C 383.25 294.37 393.16 296.28 402.00 294.00
C 410.24 300.16 409.42 318.30 407.91 328.90 C 406.40 339.50 391.90 335.50 380.00 336.00 C 368.10 336.50 349.48 335.94 337.00 336.00 C 324.52 336.06 305.82 336.35 294.00 336.00 C 282.18 335.65 266.76 339.69 267.00 328.00 C 267.24 316.31 264.01 301.38 271.00 294.00
C 279.59 296.05 290.43 294.53 300.00 295.00
C 308.65 268.76 311.89 244.26 315.00 216.00
C 303.06 212.27 291.89 208.89 284.00 200.00
M 123.00 228.00 
C 132.37 237.51 121.47 244.82 113.70 250.71 C 105.93 256.61 97.59 264.51 90.00 271.00
C 102.93 281.16 113.50 292.22 127.00 302.00
C 126.73 322.73 108.35 309.00 99.90 299.10 C 91.45 289.19 74.74 283.19 70.00 269.00
C 77.70 261.46 86.88 253.24 95.75 246.74 C 104.63 240.24 111.08 227.76 123.00 228.00
M 211.00 228.00 
C 224.67 241.79 240.30 253.89 256.00 267.00
C 255.44 281.09 237.69 288.47 229.08 297.13 C 220.47 305.79 204.14 323.66 199.00 304.00
C 210.20 292.50 225.90 282.04 237.00 270.00
C 223.73 261.00 210.65 248.42 199.00 238.00
C 198.99 233.23 202.05 232.57 204.00 228.00
C 206.29 228.93 208.42 228.40 211.00 228.00
M 150.00 231.00 
C 157.91 244.35 165.35 254.99 172.24 267.77 C 179.12 280.55 186.90 290.73 191.00 306.00
C 187.93 306.83 186.03 309.34 185.00 311.00
C 173.69 307.52 170.78 295.77 165.42 287.23 C 160.07 278.69 155.09 269.66 150.81 260.75 C 146.53 251.84 132.58 241.92 143.00 231.00
C 145.16 231.63 147.77 231.60 150.00 231.00 Z"/>
</g>
<g fill="None" fill-opacity="0.0" stroke="#000000" stroke-opacity="0.03" stroke-width="0.3"><path d="
M 345.00 218.00 
C 340.21 219.61 333.81 219.63 329.00 218.00
C 328.25 245.38 323.11 270.11 316.00 295.00
C 330.00 295.00 344.00 295.00 358.00 295.00
C 351.00 270.31 345.66 245.28 345.00 218.00 Z"/>
</g>
<g fill="None" fill-opacity="0.0" stroke="#000000" stroke-opacity="0.96" stroke-width="0.3"><path d="
M 123.00 228.00 
C 111.08 227.76 104.63 240.24 95.75 246.74 C 86.88 253.24 77.70 261.46 70.00 269.00
C 74.74 283.19 91.45 289.19 99.90 299.10 C 108.35 309.00 126.73 322.73 127.00 302.00
C 113.50 292.22 102.93 281.16 90.00 271.00
C 97.59 264.51 105.93 256.61 113.70 250.71 C 121.47 244.82 132.37 237.51 123.00 228.00 Z"/>
</g>
<g fill="None" fill-opacity="0.0" stroke="#000000" stroke-opacity="0.96" stroke-width="0.3"><path d="
M 211.00 228.00 
C 208.42 228.40 206.29 228.93 204.00 228.00
C 202.05 232.57 198.99 233.23 199.00 238.00
C 210.65 248.42 223.73 261.00 237.00 270.00
C 225.90 282.04 210.20 292.50 199.00 304.00
C 204.14 323.66 220.47 305.79 229.08 297.13 C 237.69 288.47 255.44 281.09 256.00 267.00
C 240.30 253.89 224.67 241.79 211.00 228.00 Z"/>
</g>
<g fill="None" fill-opacity="0.0" stroke="#000000" stroke-opacity="0.96" stroke-width="0.3"><path d="
M 150.00 231.00 
C 147.77 231.60 145.16 231.63 143.00 231.00
C 132.58 241.92 146.53 251.84 150.81 260.75 C 155.09 269.66 160.07 278.69 165.42 287.23 C 170.78 295.77 173.69 307.52 185.00 311.00
C 186.03 309.34 187.93 306.83 191.00 306.00
C 186.90 290.73 179.12 280.55 172.24 267.77 C 165.35 254.99 157.91 244.35 150.00 231.00 Z"/>
</g>
<g fill="None" fill-opacity="0.0" stroke="#000000" stroke-opacity="0.05" stroke-width="0.3"><path d="
M 392.00 309.00 
C 355.00 309.00 318.00 309.00 281.00 309.00
C 281.00 313.00 281.00 317.00 281.00 321.00
C 318.00 321.00 355.00 321.00 392.00 321.00
C 392.00 317.00 392.00 313.00 392.00 309.00 Z"/>
</g>
<g fill="None" fill-opacity="0.0" stroke="#000000" stroke-opacity="0.00" stroke-width="0.3"><path d="
M 453.00 388.00 
C 315.67 388.00 178.33 388.00 41.00 388.00
C 41.07 402.45 41.27 407.54 55.00 406.00 C 68.73 404.46 81.56 406.71 95.00 406.00 C 108.44 405.29 120.69 406.31 134.00 406.00 C 147.31 405.69 160.71 406.14 174.00 406.00 C 187.29 405.86 200.77 406.06 214.00 406.00 C 227.23 405.94 239.78 406.02 253.00 406.00 C 266.22 405.98 279.77 405.99 293.00 406.00 C 306.23 406.01 319.83 405.96 333.00 406.00 C 346.17 406.04 358.90 405.89 372.00 406.00 C 385.10 406.11 399.00 405.76 412.00 406.00 C 425.00 406.24 437.53 405.00 450.00 407.00
C 454.50 402.24 452.70 394.77 453.00 388.00 Z"/>
</g>
<g fill="None" fill-opacity="0.0" stroke="#000000" stroke-opacity="0.06" stroke-width="0.3"><path d="
M 281.00 421.00 
C 258.67 421.00 236.33 421.00 214.00 421.00
C 215.26 430.79 219.97 437.34 221.00 446.00
C 238.67 446.00 256.33 446.00 274.00 446.00
C 274.60 437.53 278.66 430.70 281.00 421.00 Z"/>
</g>
<g fill="None" fill-opacity="0.0" stroke="#000000" stroke-opacity="0.00" stroke-width="0.3"><path d="
M 337.00 480.00 
C 336.01 454.05 309.05 461.55 286.00 461.00 C 262.95 460.45 228.88 461.25 206.00 461.00 C 183.12 460.75 158.42 455.59 158.00 480.00
C 217.05 478.33 277.92 478.33 337.00 480.00 Z"/>
</g>
<g fill="#000000" fill-opacity="0.01" stroke="None">
<path d="
M 0.00 512.00 
L 512.00 512.00
L 512.00 0.00
L 0.00 0.00
L 0.00 512.00
M 426.00 69.00 
C 437.56 67.21 448.39 71.82 456.75 74.26 C 465.11 76.70 475.67 85.94 479.19 94.25 C 482.71 102.57 488.74 114.55 484.80 127.25 C 480.86 139.95 482.35 144.25 473.87 153.92 C 465.39 163.59 466.54 184.56 467.00 202.00 C 467.46 219.44 466.92 241.87 467.00 260.00 C 467.08 278.13 467.24 299.99 467.00 318.00 C 466.76 336.01 467.69 360.08 467.00 377.00 C 466.31 393.92 471.56 410.27 460.25 418.25 C 448.94 426.23 431.74 419.21 414.00 421.00 C 396.26 422.79 374.62 420.08 356.00 421.00 C 337.38 421.92 315.88 420.31 297.00 421.00
C 294.39 429.82 291.45 436.49 289.00 446.00
C 299.87 446.06 319.35 445.62 327.75 446.60 C 336.15 447.59 340.94 454.09 346.39 460.75 C 351.85 467.42 352.41 475.96 351.22 487.22 C 350.03 498.48 335.00 493.34 322.00 494.00 C 309.00 494.66 291.95 493.67 278.00 494.00 C 264.05 494.33 247.26 493.76 233.00 494.00 C 218.74 494.24 203.20 493.70 189.00 494.00 C 174.80 494.30 160.10 493.00 147.00 495.00
C 139.42 479.86 142.64 464.51 153.25 454.25 C 163.85 443.98 186.90 443.03 206.00 446.00
C 202.68 436.63 200.23 429.40 198.00 421.00
C 174.91 421.48 149.90 420.36 127.00 421.00 C 104.10 421.64 77.10 419.78 55.00 421.00 C 32.90 422.22 26.48 415.27 27.00 393.00 C 27.52 370.73 26.85 343.84 27.00 321.00 C 27.15 298.16 27.13 272.74 27.00 250.00 C 26.87 227.26 27.47 199.94 27.00 178.00 C 26.53 156.06 29.85 146.40 52.00 147.00 C 74.15 147.60 100.97 146.69 124.00 147.00 C 147.03 147.31 172.73 146.76 196.00 147.00
C 187.91 131.00 184.29 107.15 195.39 91.25 C 206.50 75.34 227.56 67.43 248.00 69.00
C 248.62 60.36 235.74 60.26 231.25 53.75 C 226.76 47.24 223.30 39.35 227.13 32.08 C 230.96 24.81 233.00 20.05 242.25 18.20 C 251.50 16.35 266.10 18.59 278.00 18.00 C 289.90 17.41 305.47 18.10 318.00 18.00 C 330.53 17.90 346.50 17.71 359.00 18.00 C 371.50 18.29 387.24 17.10 399.00 18.00 C 410.76 18.90 424.67 15.58 433.25 18.20 C 441.82 20.81 444.46 25.57 447.19 33.25 C 449.92 40.94 447.20 46.81 443.29 53.30 C 439.37 59.79 424.75 60.39 426.00 69.00 Z"/>
</g>
<g fill="#000000" fill-opacity="0.97" stroke="None">
<path d="
M 426.00 69.00 
C 424.75 60.39 439.37 59.79 443.29 53.30 C 447.20 46.81 449.92 40.94 447.19 33.25 C 444.46 25.57 441.82 20.81 433.25 18.20 C 424.67 15.58 410.76 18.90 399.00 18.00 C 387.24 17.10 371.50 18.29 359.00 18.00 C 346.50 17.71 330.53 17.90 318.00 18.00 C 305.47 18.10 289.90 17.41 278.00 18.00 C 266.10 18.59 251.50 16.35 242.25 18.20 C 233.00 20.05 230.96 24.81 227.13 32.08 C 223.30 39.35 226.76 47.24 231.25 53.75 C 235.74 60.26 248.62 60.36 248.00 69.00
C 227.56 67.43 206.50 75.34 195.39 91.25 C 184.29 107.15 187.91 131.00 196.00 147.00
C 172.73 146.76 147.03 147.31 124.00 147.00 C 100.97 146.69 74.15 147.60 52.00 147.00 C 29.85 146.40 26.53 156.06 27.00 178.00 C 27.47 199.94 26.87 227.26 27.00 250.00 C 27.13 272.74 27.15 298.16 27.00 321.00 C 26.85 343.84 27.52 370.73 27.00 393.00 C 26.48 415.27 32.90 422.22 55.00 421.00 C 77.10 419.78 104.10 421.64 127.00 421.00 C 149.90 420.36 174.91 421.48 198.00 421.00
C 200.23 429.40 202.68 436.63 206.00 446.00
C 186.90 443.03 163.85 443.98 153.25 454.25 C 142.64 464.51 139.42 479.86 147.00 495.00
C 160.10 493.00 174.80 494.30 189.00 494.00 C 203.20 493.70 218.74 494.24 233.00 494.00 C 247.26 493.76 264.05 494.33 278.00 494.00 C 291.95 493.67 309.00 494.66 322.00 494.00 C 335.00 493.34 350.03 498.48 351.22 487.22 C 352.41 475.96 351.85 467.42 346.39 460.75 C 340.94 454.09 336.15 447.59 327.75 446.60 C 319.35 445.62 299.87 446.06 289.00 446.00
C 291.45 436.49 294.39 429.82 297.00 421.00
C 315.88 420.31 337.38 421.92 356.00 421.00 C 374.62 420.08 396.26 422.79 414.00 421.00 C 431.74 419.21 448.94 426.23 460.25 418.25 C 471.56 410.27 466.31 393.92 467.00 377.00 C 467.69 360.08 466.76 336.01 467.00 318.00 C 467.24 299.99 467.08 278.13 467.00 260.00 C 466.92 241.87 467.46 219.44 467.00 202.00 C 466.54 184.56 465.39 163.59 473.87 153.92 C 482.35 144.25 480.86 139.95 484.80 127.25 C 488.74 114.55 482.71 102.57 479.19 94.25 C 475.67 85.94 465.11 76.70 456.75 74.26 C 448.39 71.82 437.56 67.21 426.00 69.00
M 429.00 32.00 
C 440.74 47.41 421.82 49.20 405.00 48.00 C 388.18 46.80 365.57 48.84 348.00 48.00 C 330.43 47.16 309.49 49.03 292.00 48.00 C 274.51 46.97 254.24 51.64 241.00 44.00
C 239.70 26.79 257.31 32.53 273.00 32.00 C 288.69 31.47 309.46 32.26 326.00 32.00 C 342.54 31.74 361.21 32.17 378.00 32.00 C 394.79 31.83 412.87 32.19 429.00 32.00
M 411.00 62.00 
C 408.24 82.93 411.16 118.31 410.20 137.25 C 409.24 156.19 403.97 160.95 394.90 174.90 C 385.83 188.86 371.01 196.04 358.92 200.92 C 346.83 205.79 325.16 203.82 313.75 199.24 C 302.34 194.66 288.28 189.63 278.43 175.23 C 268.58 160.83 265.97 157.26 263.60 138.25 C 261.24 119.24 264.13 83.76 263.00 62.00
C 312.33 62.00 361.67 62.00 411.00 62.00
M 248.00 83.00 
C 248.00 88.33 248.00 93.67 248.00 99.00
C 234.02 94.08 217.58 105.89 219.01 119.01 C 220.44 132.13 227.29 142.92 238.25 152.75 C 249.20 162.59 258.90 164.00 262.00 179.00
C 246.72 176.31 233.78 166.23 219.75 153.25 C 205.73 140.26 199.80 121.12 206.71 103.70 C 213.63 86.27 230.20 85.67 248.00 83.00
M 411.00 180.00 
C 415.46 164.25 423.32 163.15 435.25 153.20 C 447.18 143.25 452.92 132.35 454.07 118.92 C 455.21 105.48 441.47 94.42 426.00 99.00
C 426.00 93.67 426.00 88.33 426.00 83.00
C 441.13 83.06 451.40 87.41 461.75 96.25 C 472.10 105.09 471.75 121.63 467.81 133.25 C 463.87 144.88 453.70 156.19 442.70 164.70 C 431.71 173.21 424.12 174.15 411.00 180.00
M 248.00 113.00 
C 249.09 122.62 247.73 131.40 249.00 141.00
C 239.32 133.73 235.63 127.08 234.00 116.00
C 237.98 112.77 242.29 113.28 248.00 113.00
M 440.00 116.00 
C 439.25 126.49 433.55 131.96 426.00 141.00
C 425.11 132.60 425.41 122.33 426.00 113.00
C 432.38 112.53 436.00 113.53 440.00 116.00
M 284.00 200.00 
C 291.89 208.89 303.06 212.27 315.00 216.00
C 311.89 244.26 308.65 268.76 300.00 295.00
C 290.43 294.53 279.59 296.05 271.00 294.00
C 264.01 301.38 267.24 316.31 267.00 328.00 C 266.76 339.69 282.18 335.65 294.00 336.00 C 305.82 336.35 324.52 336.06 337.00 336.00 C 349.48 335.94 368.10 336.50 380.00 336.00 C 391.90 335.50 406.40 339.50 407.91 328.90 C 409.42 318.30 410.24 300.16 402.00 294.00
C 393.16 296.28 383.25 294.37 374.00 295.00
C 365.67 271.20 361.75 244.53 359.00 215.00
C 376.97 211.51 387.17 201.37 406.08 197.94 C 425.00 194.50 436.67 184.58 453.00 175.00
C 453.00 241.00 453.00 307.00 453.00 373.00
C 316.26 371.33 177.72 371.33 41.00 373.00
C 41.06 357.99 40.92 343.01 41.00 328.00 C 41.08 312.99 40.86 296.91 41.00 282.00 C 41.14 267.09 40.69 251.63 41.00 237.00 C 41.31 222.37 40.33 205.02 41.00 191.00 C 41.67 176.98 36.07 161.21 51.00 162.00 C 65.94 162.79 82.03 162.08 97.00 162.00 C 111.97 161.92 127.14 163.06 142.00 162.00 C 156.86 160.94 173.45 164.65 188.00 162.00 C 202.55 159.35 211.65 167.28 218.77 174.23 C 225.88 181.18 232.03 182.17 239.89 187.11 C 247.76 192.05 252.74 192.17 260.30 195.71 C 267.86 199.25 275.73 198.83 284.00 200.00
M 345.00 218.00 
C 345.66 245.28 351.00 270.31 358.00 295.00
C 344.00 295.00 330.00 295.00 316.00 295.00
C 323.11 270.11 328.25 245.38 329.00 218.00
C 333.81 219.63 340.21 219.61 345.00 218.00
M 392.00 309.00 
C 392.00 313.00 392.00 317.00 392.00 321.00
C 355.00 321.00 318.00 321.00 281.00 321.00
C 281.00 317.00 281.00 313.00 281.00 309.00
C 318.00 309.00 355.00 309.00 392.00 309.00
M 453.00 388.00 
C 452.70 394.77 454.50 402.24 450.00 407.00
C 437.53 405.00 425.00 406.24 412.00 406.00 C 399.00 405.76 385.10 406.11 372.00 406.00 C 358.90 405.89 346.17 406.04 333.00 406.00 C 319.83 405.96 306.23 406.01 293.00 406.00 C 279.77 405.99 266.22 405.98 253.00 406.00 C 239.78 406.02 227.23 405.94 214.00 406.00 C 200.77 406.06 187.29 405.86 174.00 406.00 C 160.71 406.14 147.31 405.69 134.00 406.00 C 120.69 406.31 108.44 405.29 95.00 406.00 C 81.56 406.71 68.73 404.46 55.00 406.00 C 41.27 407.54 41.07 402.45 41.02 388.98
C 178.33 388.00 315.67 388.00 453.00 388.00
M 281.00 421.00 
C 278.66 430.70 274.60 437.53 274.00 446.00
C 256.33 446.00 238.67 446.00 221.00 446.00
C 219.97 437.34 215.26 430.79 214.00 421.00
C 236.33 421.00 258.67 421.00 281.00 421.00
M 337.00 480.00 
C 277.92 478.33 217.05 478.33 158.00 480.00
C 158.42 455.59 183.12 460.75 206.00 461.00 C 228.88 461.25 262.95 460.45 286.00 461.00 C 309.05 461.55 336.01 454.05 337.00 480.00 Z"/>
</g>
<g fill="#000000" fill-opacity="0.07" stroke="None">
<path d="
M 429.00 32.00 
C 412.87 32.19 394.79 31.83 378.00 32.00 C 361.21 32.17 342.54 31.74 326.00 32.00 C 309.46 32.26 288.69 31.47 273.00 32.00 C 257.31 32.53 239.70 26.79 241.00 44.00
C 254.24 51.64 274.51 46.97 292.00 48.00 C 309.49 49.03 330.43 47.16 348.00 48.00 C 365.57 48.84 388.18 46.80 405.00 48.00 C 421.82 49.20 440.74 47.41 429.00 32.00 Z"/>
</g>
<g fill="#000000" fill-opacity="0.02" stroke="None">
<path d="
M 411.00 62.00 
C 361.67 62.00 312.33 62.00 263.00 62.00
C 264.13 83.76 261.24 119.24 263.60 138.25 C 265.97 157.26 268.58 160.83 278.43 175.23 C 288.28 189.63 302.34 194.66 313.75 199.24 C 325.16 203.82 346.83 205.79 358.92 200.92 C 371.01 196.04 385.83 188.86 394.90 174.90 C 403.97 160.95 409.24 156.19 410.20 137.25 C 411.16 118.31 408.24 82.93 411.00 62.00
M 358.00 101.00 
C 369.02 102.18 380.34 102.30 390.00 110.00
C 389.41 122.01 379.42 129.99 371.00 138.00
C 370.31 146.91 381.21 166.79 370.23 172.57 C 359.25 178.35 348.20 163.48 338.30 163.36 C 328.39 163.24 318.08 174.96 306.75 173.20 C 295.42 171.44 300.15 152.88 301.20 142.75 C 302.25 132.63 280.52 120.52 284.40 110.25 C 288.27 99.98 307.68 104.07 316.00 101.00
C 320.79 95.33 326.57 73.99 338.23 74.79 C 349.89 75.58 350.41 94.84 358.00 101.00 Z"/>
</g>
<g fill="#000000" fill-opacity="0.96" stroke="None">
<path d="
M 358.00 101.00 
C 350.41 94.84 349.89 75.58 338.23 74.79 C 326.57 73.99 320.79 95.33 316.00 101.00
C 307.68 104.07 288.27 99.98 284.40 110.25 C 280.52 120.52 302.25 132.63 301.20 142.75 C 300.15 152.88 295.42 171.44 306.75 173.20 C 318.08 174.96 328.39 163.24 338.30 163.36 C 348.20 163.48 359.25 178.35 370.23 172.57 C 381.21 166.79 370.31 146.91 371.00 138.00
C 379.42 129.99 389.41 122.01 390.00 110.00
C 380.34 102.30 369.02 102.18 358.00 101.00
M 338.00 96.00 
C 341.75 101.01 343.36 108.89 348.92 113.08 C 354.48 117.28 362.65 115.38 369.00 117.00
C 366.39 123.78 359.45 127.59 357.61 133.75 C 355.76 139.92 357.26 147.57 359.00 155.00
C 345.41 147.05 328.59 147.00 315.00 155.00
C 316.81 148.18 317.82 140.42 316.24 133.75 C 314.67 127.09 307.75 123.95 305.00 117.00
C 312.65 115.58 319.00 116.66 324.90 112.88 C 330.80 109.11 331.38 99.31 338.00 96.00 Z"/>
</g>
<g fill="#000000" fill-opacity="0.04" stroke="None">
<path d="
M 248.00 83.00 
C 230.20 85.67 213.63 86.27 206.71 103.70 C 199.80 121.12 205.73 140.26 219.75 153.25 C 233.78 166.23 246.72 176.31 262.00 179.00
C 258.90 164.00 249.20 162.59 238.25 152.75 C 227.29 142.92 220.44 132.13 219.01 119.01 C 217.58 105.89 234.02 94.08 248.00 99.00
C 248.00 93.67 248.00 88.33 248.00 83.00 Z"/>
</g>
<g fill="#000000" fill-opacity="0.04" stroke="None">
<path d="
M 411.00 180.00 
C 424.12 174.15 431.71 173.21 442.70 164.70 C 453.70 156.19 463.87 144.88 467.81 133.25 C 471.75 121.63 472.10 105.09 461.75 96.25 C 451.40 87.41 441.13 83.06 426.00 83.00
C 426.00 88.33 426.00 93.67 426.00 99.00
C 441.47 94.42 455.21 105.48 454.07 118.92 C 452.92 132.35 447.18 143.25 435.25 153.20 C 423.32 163.15 415.46 164.25 411.00 180.00 Z"/>
</g>
<g fill="#000000" fill-opacity="0.03" stroke="None">
<path d="
M 338.00 96.00 
C 331.38 99.31 330.80 109.11 324.90 112.88 C 319.00 116.66 312.65 115.58 305.00 117.00
C 307.75 123.95 314.67 127.09 316.24 133.75 C 317.82 140.42 316.81 148.18 315.00 155.00
C 328.59 147.00 345.41 147.05 359.00 155.00
C 357.26 147.57 355.76 139.92 357.61 133.75 C 359.45 127.59 366.39 123.78 369.00 117.00
C 362.65 115.38 354.48 117.28 348.92 113.08 C 343.36 108.89 341.75 101.01 338.00 96.00 Z"/>
</g>
<g fill="#000000" fill-opacity="0.08" stroke="None">
<path d="
M 248.00 113.00 
C 242.29 113.28 237.98 112.77 234.00 116.00
C 235.63 127.08 239.32 133.73 249.00 141.00
C 247.73 131.40 249.09 122.62 248.00 113.00 Z"/>
</g>
<g fill="#000000" fill-opacity="0.07" stroke="None">
<path d="
M 440.00 116.00 
C 436.00 113.53 432.38 112.53 426.00 113.00
C 425.41 122.33 425.11 132.60 426.00 141.00
C 433.55 131.96 439.25 126.49 440.00 116.00 Z"/>
</g>
<g fill="#000000" fill-opacity="0.01" stroke="None">
<path d="
M 284.00 200.00 
C 275.73 198.83 267.86 199.25 260.30 195.71 C 252.74 192.17 247.76 192.05 239.89 187.11 C 232.03 182.17 225.88 181.18 218.77 174.23 C 211.65 167.28 202.55 159.35 188.00 162.00 C 173.45 164.65 156.86 160.94 142.00 162.00 C 127.14 163.06 111.97 161.92 97.00 162.00 C 82.03 162.08 65.94 162.79 51.00 162.00 C 36.07 161.21 41.67 176.98 41.00 191.00 C 40.33 205.02 41.31 222.37 41.00 237.00 C 40.69 251.63 41.14 267.09 41.00 282.00 C 40.86 296.91 41.08 312.99 41.00 328.00 C 40.92 343.01 41.06 357.99 41.00 373.00
C 177.72 371.33 316.26 371.33 453.00 373.00
C 453.00 307.00 453.00 241.00 453.00 175.00
C 436.67 184.58 425.00 194.50 406.08 197.94 C 387.17 201.37 376.97 211.51 359.00 215.00
C 361.75 244.53 365.67 271.20 374.00 295.00
C 383.25 294.37 393.16 296.28 402.00 294.00
C 410.24 300.16 409.42 318.30 407.91 328.90 C 406.40 339.50 391.90 335.50 380.00 336.00 C 368.10 336.50 349.48 335.94 337.00 336.00 C 324.52 336.06 305.82 336.35 294.00 336.00 C 282.18 335.65 266.76 339.69 267.00 328.00 C 267.24 316.31 264.01 301.38 271.00 294.00
C 279.59 296.05 290.43 294.53 300.00 295.00
C 308.65 268.76 311.89 244.26 315.00 216.00
C 303.06 212.27 291.89 208.89 284.00 200.00
M 123.00 228.00 
C 132.37 237.51 121.47 244.82 113.70 250.71 C 105.93 256.61 97.59 264.51 90.00 271.00
C 102.93 281.16 113.50 292.22 127.00 302.00
C 126.73 322.73 108.35 309.00 99.90 299.10 C 91.45 289.19 74.74 283.19 70.00 269.00
C 77.70 261.46 86.88 253.24 95.75 246.74 C 104.63 240.24 111.08 227.76 123.00 228.00
M 211.00 228.00 
C 224.67 241.79 240.30 253.89 256.00 267.00
C 255.44 281.09 237.69 288.47 229.08 297.13 C 220.47 305.79 204.14 323.66 199.00 304.00
C 210.20 292.50 225.90 282.04 237.00 270.00
C 223.73 261.00 210.65 248.42 199.00 238.00
C 198.99 233.23 202.05 232.57 204.00 228.00
C 206.29 228.93 208.42 228.40 211.00 228.00
M 150.00 231.00 
C 157.91 244.35 165.35 254.99 172.24 267.77 C 179.12 280.55 186.90 290.73 191.00 306.00
C 187.93 306.83 186.03 309.34 185.00 311.00
C 173.69 307.52 170.78 295.77 165.42 287.23 C 160.07 278.69 155.09 269.66 150.81 260.75 C 146.53 251.84 132.58 241.92 143.00 231.00
C 145.16 231.63 147.77 231.60 150.00 231.00 Z"/>
</g>
<g fill="#000000" fill-opacity="0.03" stroke="None">
<path d="
M 345.00 218.00 
C 340.21 219.61 333.81 219.63 329.00 218.00
C 328.25 245.38 323.11 270.11 316.00 295.00
C 330.00 295.00 344.00 295.00 358.00 295.00
C 351.00 270.31 345.66 245.28 345.00 218.00 Z"/>
</g>
<g fill="#000000" fill-opacity="0.96" stroke="None">
<path d="
M 123.00 228.00 
C 111.08 227.76 104.63 240.24 95.75 246.74 C 86.88 253.24 77.70 261.46 70.00 269.00
C 74.74 283.19 91.45 289.19 99.90 299.10 C 108.35 309.00 126.73 322.73 127.00 302.00
C 113.50 292.22 102.93 281.16 90.00 271.00
C 97.59 264.51 105.93 256.61 113.70 250.71 C 121.47 244.82 132.37 237.51 123.00 228.00 Z"/>
</g>
<g fill="#000000" fill-opacity="0.96" stroke="None">
<path d="
M 211.00 228.00 
C 208.42 228.40 206.29 228.93 204.00 228.00
C 202.05 232.57 198.99 233.23 199.00 238.00
C 210.65 248.42 223.73 261.00 237.00 270.00
C 225.90 282.04 210.20 292.50 199.00 304.00
C 204.14 323.66 220.47 305.79 229.08 297.13 C 237.69 288.47 255.44 281.09 256.00 267.00
C 240.30 253.89 224.67 241.79 211.00 228.00 Z"/>
</g>
<g fill="#000000" fill-opacity="0.96" stroke="None">
<path d="
M 150.00 231.00 
C 147.77 231.60 145.16 231.63 143.00 231.00
C 132.58 241.92 146.53 251.84 150.81 260.75 C 155.09 269.66 160.07 278.69 165.42 287.23 C 170.78 295.77 173.69 307.52 185.00 311.00
C 186.03 309.34 187.93 306.83 191.00 306.00
C 186.90 290.73 179.12 280.55 172.24 267.77 C 165.35 254.99 157.91 244.35 150.00 231.00 Z"/>
</g>
<g fill="#000000" fill-opacity="0.05" stroke="None">
<path d="
M 392.00 309.00 
C 355.00 309.00 318.00 309.00 281.00 309.00
C 281.00 313.00 281.00 317.00 281.00 321.00
C 318.00 321.00 355.00 321.00 392.00 321.00
C 392.00 317.00 392.00 313.00 392.00 309.00 Z"/>
</g>
<g fill="#000000" fill-opacity="0.00" stroke="None">
<path d="
M 453.00 388.00 
C 315.67 388.00 178.33 388.00 41.00 388.00
C 41.07 402.45 41.27 407.54 55.00 406.00 C 68.73 404.46 81.56 406.71 95.00 406.00 C 108.44 405.29 120.69 406.31 134.00 406.00 C 147.31 405.69 160.71 406.14 174.00 406.00 C 187.29 405.86 200.77 406.06 214.00 406.00 C 227.23 405.94 239.78 406.02 253.00 406.00 C 266.22 405.98 279.77 405.99 293.00 406.00 C 306.23 406.01 319.83 405.96 333.00 406.00 C 346.17 406.04 358.90 405.89 372.00 406.00 C 385.10 406.11 399.00 405.76 412.00 406.00 C 425.00 406.24 437.53 405.00 450.00 407.00
C 454.50 402.24 452.70 394.77 453.00 388.00 Z"/>
</g>
<g fill="#000000" fill-opacity="0.06" stroke="None">
<path d="
M 281.00 421.00 
C 258.67 421.00 236.33 421.00 214.00 421.00
C 215.26 430.79 219.97 437.34 221.00 446.00
C 238.67 446.00 256.33 446.00 274.00 446.00
C 274.60 437.53 278.66 430.70 281.00 421.00 Z"/>
</g>
<g fill="#000000" fill-opacity="0.00" stroke="None">
<path d="
M 337.00 480.00 
C 336.01 454.05 309.05 461.55 286.00 461.00 C 262.95 460.45 228.88 461.25 206.00 461.00 C 183.12 460.75 158.42 455.59 158.00 480.00
C 217.05 478.33 277.92 478.33 337.00 480.00 Z"/>
</g>
</svg>