<svg xmlns="http://www.w3.org/2000/svg" xmlns:v="https://svgstorm.com"
viewBox = "0 0 512 512"
width="512"
height="512">
<g fill="None" fill-opacity="0.0" stroke="#000000" stroke-opacity="0.01" stroke-width="0.3"><path d="
M 0.00 223.00 
C 1.10 213.48 8.47 202.99 16.70 196.70 C 24.93 190.41 30.95 185.72 38.77 182.42 C 46.59 179.13 55.27 174.72 63.25 172.24 C 71.22 169.77 83.45 166.29 91.75 164.41 C 100.05 162.53 112.14 156.81 116.35 166.70 C 120.56 176.58 103.01 177.56 95.75 179.19 C 88.50 180.83 76.76 184.59 69.08 187.13 C 61.40 189.67 51.43 193.08 44.08 197.13 C 36.73 201.18 27.63 205.51 20.25 213.25 C 12.86 220.98 14.40 230.78 21.10 238.90 C 27.80 247.02 37.14 251.66 44.25 255.19 C 51.37 258.72 60.57 262.77 68.25 265.19 C 75.93 267.61 87.88 271.43 96.75 273.39 C 105.62 275.35 114.07 277.08 123.70 278.35 C 133.32 279.62 139.21 281.90 149.75 282.60 C 160.29 283.31 168.61 285.15 179.75 285.60 C 190.90 286.06 205.87 287.19 219.07 286.93 C 232.27 286.66 251.77 286.88 263.08 286.07 C 274.38 285.26 283.47 284.99 293.75 283.61 C 304.03 282.22 313.08 282.02 322.25 280.20 C 331.42 278.38 340.02 277.68 348.75 275.60 C 357.48 273.53 367.61 270.96 376.70 268.65 C 385.79 266.34 393.65 261.96 402.25 258.24 C 410.85 254.52 415.80 253.20 424.25 246.81 C 432.70 240.43 440.00 230.94 436.29 221.70 C 432.57 212.45 422.08 204.40 414.75 200.81 C 407.41 197.22 400.06 191.96 391.75 189.24 C 383.44 186.52 373.78 184.59 365.00 180.00
C 366.20 177.99 364.83 175.17 364.00 173.00
C 375.50 162.57 388.06 173.00 401.77 177.58 C 415.48 182.15 430.30 191.02 441.10 200.90 C 451.90 210.78 455.75 225.49 449.29 239.30 C 442.83 253.11 428.59 263.00 417.23 268.58 C 405.87 274.15 393.52 278.22 380.25 282.40 C 366.99 286.58 354.10 289.64 339.77 292.21 C 325.44 294.78 313.34 296.73 298.25 298.40 C 283.16 300.06 270.29 300.67 252.77 301.21 C 235.25 301.75 203.97 303.15 187.77 301.79 C 171.57 300.43 159.50 298.77 144.75 297.20 C 130.00 295.63 117.19 293.22 103.25 290.61 C 89.31 287.99 75.84 283.47 62.90 279.09 C 49.96 274.72 39.44 270.98 28.08 263.87 C 16.72 256.76 2.17 245.25 0.00 230.00
L 0.00 512.00
L 204.00 512.00
C 193.82 508.90 184.20 510.68 174.25 508.60 C 164.30 506.53 155.69 506.23 145.75 503.80 C 135.82 501.38 128.39 498.50 119.25 495.61 C 110.10 492.72 107.10 488.90 96.75 481.25 C 86.40 473.59 86.88 461.99 87.00 448.00 C 87.12 434.01 86.38 416.08 102.00 428.00
C 98.72 442.33 99.48 466.46 110.25 473.19 C 121.03 479.92 126.31 481.72 137.75 485.39 C 149.20 489.06 157.75 490.05 169.75 492.39 C 181.75 494.74 190.02 494.07 203.22 495.22 C 216.42 496.37 240.44 496.86 253.69 495.35 C 266.95 493.85 274.22 494.23 286.25 491.24 C 298.27 488.26 307.11 489.98 317.77 484.42 C 328.43 478.87 335.74 482.11 345.70 471.70 C 355.67 461.30 351.65 436.60 352.00 419.00 C 352.35 401.40 352.01 375.67 352.00 357.00 C 351.99 338.33 352.82 315.43 351.00 298.00
C 352.22 296.22 354.83 295.46 355.00 293.00
C 371.67 292.29 365.43 310.85 366.00 327.00 C 366.57 343.15 365.89 365.07 366.00 382.00 C 366.11 398.93 366.26 421.35 366.00 438.00 C 365.74 454.65 368.83 468.03 361.03 478.03 C 353.23 488.04 345.18 488.91 337.25 493.39 C 329.32 497.87 319.55 499.98 309.75 502.20 C 299.95 504.42 290.25 507.19 280.25 508.59 C 270.24 509.99 259.36 509.20 249.00 512.00
L 512.00 512.00
L 512.00 0.00
L 0.00 0.00
L 0.00 223.00
M 56.00 37.00 
C 53.61 36.16 51.47 36.20 49.00 37.00
C 41.84 29.95 40.22 1.50 52.25 1.24 C 64.28 0.98 63.67 29.82 56.00 37.00
M 297.00 1.00 
C 311.42 3.13 305.85 26.21 312.12 34.90 C 318.38 43.59 328.93 57.05 343.25 54.80 C 357.56 52.55 369.86 73.22 357.23 82.57 C 344.61 91.92 332.34 83.99 321.25 94.39 C 310.16 104.79 309.06 116.40 305.88 130.90 C 302.71 145.40 278.56 143.30 277.61 128.25 C 276.66 113.19 271.58 103.26 260.25 93.61 C 248.91 83.95 234.37 91.62 223.90 79.10 C 213.43 66.58 233.21 53.58 245.25 54.20 C 257.28 54.81 270.10 42.29 273.91 31.90 C 277.72 21.51 274.06 -2.39 297.00 1.00
M 491.00 23.00 
C 496.33 35.83 507.25 38.16 510.19 51.25 C 513.14 64.34 494.52 70.84 487.23 77.24 C 479.94 83.63 467.67 89.11 459.25 95.39 C 450.83 101.67 441.28 109.40 432.08 115.13 C 422.88 120.86 413.89 128.34 404.75 134.75 C 395.60 141.16 385.75 146.83 376.75 153.19 C 367.75 159.56 358.66 167.34 349.70 172.71 C 340.74 178.08 330.95 186.84 322.23 192.24 C 313.51 197.63 302.47 206.12 294.25 211.59 C 286.02 217.06 274.51 229.36 265.90 221.10 C 257.29 212.84 255.47 200.86 247.00 194.00
C 252.88 180.25 268.97 174.48 279.77 165.43 C 290.57 156.38 303.44 150.74 314.75 141.74 C 326.06 132.73 337.50 126.22 349.25 117.81 C 361.01 109.41 372.13 101.36 383.92 92.91 C 395.71 84.47 407.02 77.60 418.75 69.61 C 430.49 61.61 441.37 51.96 453.75 44.75 C 466.13 37.54 475.12 25.05 491.00 23.00
M 144.00 37.00 
C 160.47 32.25 166.41 51.88 167.59 65.75 C 168.77 79.63 179.47 92.27 192.25 98.19 C 205.04 104.11 223.43 99.76 230.19 114.25 C 236.95 128.75 219.32 140.69 204.75 139.80 C 190.19 138.91 177.62 152.70 170.42 164.77 C 163.23 176.84 171.40 197.21 154.70 203.71 C 137.99 210.21 129.10 188.89 129.80 175.75 C 130.50 162.62 115.47 150.52 104.25 143.61 C 93.02 136.70 71.75 142.98 65.42 127.23 C 59.10 111.48 78.60 101.39 92.75 101.74 C 106.90 102.09 121.34 87.71 126.58 76.23 C 131.82 64.75 127.48 41.77 144.00 37.00
M 39.00 38.00 
C 48.08 46.65 41.20 53.41 31.00 54.00 C 20.79 54.59 5.49 53.89 9.76 42.75 C 14.02 31.62 29.30 44.03 39.00 38.00
M 61.00 44.00 
C 62.45 43.07 65.33 41.02 66.00 38.00
C 74.75 42.45 87.09 34.68 93.92 40.13 C 100.75 45.58 92.42 56.21 82.00 54.00 C 71.58 51.79 62.36 56.81 61.00 44.00
M 50.00 55.00 
C 63.27 52.53 67.06 84.42 54.75 89.19 C 42.43 93.96 38.45 57.15 50.00 55.00
M 461.00 111.00 
C 468.64 111.59 467.78 122.86 468.00 131.00 C 468.22 139.14 467.38 147.21 458.78 146.22 C 450.18 145.23 453.84 137.01 453.00 129.00 C 452.16 120.99 452.11 110.31 461.00 111.00
M 421.00 148.00 
C 427.76 149.51 438.42 149.75 446.00 148.00
C 447.64 149.36 448.62 151.32 451.00 152.00
C 452.15 163.47 444.92 163.11 434.00 163.00 C 423.08 162.89 414.73 164.22 416.00 152.00
C 418.40 151.90 419.13 149.15 421.00 148.00
M 504.00 152.00 
C 503.27 154.54 503.55 157.21 504.00 160.00
C 496.69 164.31 469.09 167.74 469.07 155.92 C 469.04 144.10 496.65 145.89 504.00 152.00
M 275.00 163.00 
C 262.45 169.64 243.03 165.96 228.00 165.00 C 212.97 164.04 190.31 173.71 186.00 157.00
C 192.09 147.03 205.71 151.71 217.02 150.98 C 228.33 150.25 244.06 150.86 255.01 151.99 C 265.96 153.13 276.80 149.34 275.00 163.00
M 456.00 165.00 
C 469.92 160.59 475.31 194.15 463.08 199.13 C 450.85 204.11 447.11 172.68 456.00 165.00
M 110.00 213.00 
C 113.10 217.42 115.35 220.57 112.00 226.00
C 179.48 240.42 273.92 240.27 341.00 226.00
C 338.60 223.23 340.20 220.42 339.00 217.00
C 355.72 202.08 366.24 234.18 351.23 238.58 C 336.22 242.97 325.83 244.14 310.25 246.40 C 294.67 248.66 281.10 250.09 263.30 251.31 C 245.51 252.53 214.19 252.53 195.93 251.93 C 177.66 251.32 162.93 248.37 146.92 247.07 C 130.90 245.76 121.81 242.05 105.92 240.07 C 90.03 238.08 90.15 210.67 110.00 213.00
M 98.00 293.00 
C 98.10 295.39 100.85 296.13 102.00 298.00
C 98.41 316.74 103.36 345.69 101.00 365.00 C 98.64 384.31 109.62 412.19 91.00 414.00
C 83.38 403.90 87.67 386.77 87.00 372.00 C 86.33 357.23 87.09 336.48 87.00 322.00 C 86.91 307.52 82.62 291.79 98.00 293.00 Z"/>
</g>
<g fill="None" fill-opacity="0.0" stroke="#000000" stroke-opacity="0.91" stroke-width="0.3"><path d="
M 56.00 37.00 
C 63.67 29.82 64.28 0.98 52.25 1.24 C 40.22 1.50 41.84 29.95 49.00 37.00
C 51.47 36.20 53.61 36.16 56.00 37.00 Z"/>
</g>
<g fill="None" fill-opacity="0.0" stroke="#000000" stroke-opacity="0.96" stroke-width="0.3"><path d="
M 297.00 1.00 
C 274.06 -2.39 277.72 21.51 273.91 31.90 C 270.10 42.29 257.28 54.81 245.25 54.20 C 233.21 53.58 213.43 66.58 223.90 79.10 C 234.37 91.62 248.91 83.95 260.25 93.61 C 271.58 103.26 276.66 113.19 277.61 128.25 C 278.56 143.30 302.71 145.40 305.88 130.90 C 309.06 116.40 310.16 104.79 321.25 94.39 C 332.34 83.99 344.61 91.92 357.23 82.57 C 369.86 73.22 357.56 52.55 343.25 54.80 C 328.93 57.05 318.38 43.59 312.12 34.90 C 305.85 26.21 311.42 3.13 297.00 1.00
M 341.00 69.00 
C 335.71 74.84 325.75 74.84 319.70 78.71 C 313.65 82.58 302.55 90.10 299.41 97.75 C 296.28 105.41 293.51 113.37 293.00 124.00
C 287.68 110.29 288.52 97.39 277.75 87.25 C 266.98 77.11 254.89 73.58 239.00 71.00
C 266.60 69.65 291.01 48.71 291.00 20.00
C 295.71 26.94 295.23 36.55 299.13 42.92 C 303.03 49.29 310.02 59.12 317.30 62.71 C 324.59 66.30 332.11 69.40 341.00 69.00 Z"/>
</g>
<g fill="None" fill-opacity="0.0" stroke="#000000" stroke-opacity="0.04" stroke-width="0.3"><path d="
M 341.00 69.00 
C 332.11 69.40 324.59 66.30 317.30 62.71 C 310.02 59.12 303.03 49.29 299.13 42.92 C 295.23 36.55 295.71 26.94 291.00 20.00
C 291.01 48.71 266.60 69.65 239.00 71.00
C 254.89 73.58 266.98 77.11 277.75 87.25 C 288.52 97.39 287.68 110.29 293.00 124.00
C 293.51 113.37 296.28 105.41 299.41 97.75 C 302.55 90.10 313.65 82.58 319.70 78.71 C 325.75 74.84 335.71 74.84 341.00 69.00 Z"/>
</g>
<g fill="None" fill-opacity="0.0" stroke="#000000" stroke-opacity="0.96" stroke-width="0.3"><path d="
M 491.00 23.00 
C 475.12 25.05 466.13 37.54 453.75 44.75 C 441.37 51.96 430.49 61.61 418.75 69.61 C 407.02 77.60 395.71 84.47 383.92 92.91 C 372.13 101.36 361.01 109.41 349.25 117.81 C 337.50 126.22 326.06 132.73 314.75 141.74 C 303.44 150.74 290.57 156.38 279.77 165.43 C 268.97 174.48 252.88 180.25 247.00 194.00
C 255.47 200.86 257.29 212.84 265.90 221.10 C 274.51 229.36 286.02 217.06 294.25 211.59 C 302.47 206.12 313.51 197.63 322.23 192.24 C 330.95 186.84 340.74 178.08 349.70 172.71 C 358.66 167.34 367.75 159.56 376.75 153.19 C 385.75 146.83 395.60 141.16 404.75 134.75 C 413.89 128.34 422.88 120.86 432.08 115.13 C 441.28 109.40 450.83 101.67 459.25 95.39 C 467.67 89.11 479.94 83.63 487.23 77.24 C 494.52 70.84 513.14 64.34 510.19 51.25 C 507.25 38.16 496.33 35.83 491.00 23.00
M 486.00 41.00 
C 487.33 46.32 491.72 48.65 494.00 54.00
C 469.58 71.25 445.27 86.44 421.25 103.39 C 397.22 120.35 373.40 137.87 349.25 154.59 C 325.09 171.30 299.98 187.76 277.00 206.00
C 271.19 203.92 268.76 198.14 266.00 193.00
C 340.51 143.54 411.74 91.23 486.00 41.00 Z"/>
</g>
<g fill="None" fill-opacity="0.0" stroke="#000000" stroke-opacity="0.96" stroke-width="0.3"><path d="
M 144.00 37.00 
C 127.48 41.77 131.82 64.75 126.58 76.23 C 121.34 87.71 106.90 102.09 92.75 101.74 C 78.60 101.39 59.10 111.48 65.42 127.23 C 71.75 142.98 93.02 136.70 104.25 143.61 C 115.47 150.52 130.50 162.62 129.80 175.75 C 129.10 188.89 137.99 210.21 154.70 203.71 C 171.40 197.21 163.23 176.84 170.42 164.77 C 177.62 152.70 190.19 138.91 204.75 139.80 C 219.32 140.69 236.95 128.75 230.19 114.25 C 223.43 99.76 205.04 104.11 192.25 98.19 C 179.47 92.27 168.77 79.63 167.59 65.75 C 166.41 51.88 160.47 32.25 144.00 37.00
M 149.00 52.00 
C 151.02 64.98 154.13 76.16 158.71 86.30 C 163.30 96.44 174.50 107.14 184.25 111.19 C 194.01 115.24 207.69 117.43 217.00 122.00
C 196.94 124.54 183.03 127.85 168.25 142.25 C 153.47 156.65 153.78 171.53 148.00 190.00
C 143.80 171.38 141.78 154.57 127.25 140.75 C 112.73 126.92 96.98 125.40 79.00 121.00
C 90.07 117.35 102.07 115.85 112.75 111.41 C 123.44 106.97 133.22 95.82 138.19 85.75 C 143.16 75.67 144.31 62.89 149.00 52.00 Z"/>
</g>
<g fill="None" fill-opacity="0.0" stroke="#000000" stroke-opacity="0.95" stroke-width="0.3"><path d="
M 39.00 38.00 
C 29.30 44.03 14.02 31.62 9.76 42.75 C 5.49 53.89 20.79 54.59 31.00 54.00 C 41.20 53.41 48.08 46.65 39.00 38.00 Z"/>
</g>
<g fill="None" fill-opacity="0.0" stroke="#000000" stroke-opacity="0.95" stroke-width="0.3"><path d="
M 61.00 44.00 
C 62.36 56.81 71.58 51.79 82.00 54.00 C 92.42 56.21 100.75 45.58 93.92 40.13 C 87.09 34.68 74.75 42.45 66.00 38.00
C 65.33 41.02 62.45 43.07 61.00 44.00 Z"/>
</g>
<g fill="None" fill-opacity="0.0" stroke="#000000" stroke-opacity="0.04" stroke-width="0.3"><path d="
M 486.00 41.00 
C 411.74 91.23 340.51 143.54 266.00 193.00
C 268.76 198.14 271.19 203.92 277.00 206.00
C 299.98 187.76 325.09 171.30 349.25 154.59 C 373.40 137.87 397.22 120.35 421.25 103.39 C 445.27 86.44 469.58 71.25 494.00 54.00
C 491.72 48.65 487.33 46.32 486.00 41.00 Z"/>
</g>
<g fill="None" fill-opacity="0.0" stroke="#000000" stroke-opacity="0.03" stroke-width="0.3"><path d="
M 149.00 52.00 
C 144.31 62.89 143.16 75.67 138.19 85.75 C 133.22 95.82 123.44 106.97 112.75 111.41 C 102.07 115.85 90.07 117.35 79.00 121.00
C 96.98 125.40 112.73 126.92 127.25 140.75 C 141.78 154.57 143.80 171.38 148.00 190.00
C 153.78 171.53 153.47 156.65 168.25 142.25 C 183.03 127.85 196.94 124.54 217.00 122.00
C 207.69 117.43 194.01 115.24 184.25 111.19 C 174.50 107.14 163.30 96.44 158.71 86.30 C 154.13 76.16 151.02 64.98 149.00 52.00 Z"/>
</g>
<g fill="None" fill-opacity="0.0" stroke="#000000" stroke-opacity="0.90" stroke-width="0.3"><path d="
M 50.00 55.00 
C 38.45 57.15 42.43 93.96 54.75 89.19 C 67.06 84.42 63.27 52.53 50.00 55.00 Z"/>
</g>
<g fill="None" fill-opacity="0.0" stroke="#000000" stroke-opacity="0.95" stroke-width="0.3"><path d="
M 461.00 111.00 
C 452.11 110.31 452.16 120.99 453.00 129.00 C 453.84 137.01 450.18 145.23 458.78 146.22 C 467.38 147.21 468.22 139.14 468.00 131.00 C 467.78 122.86 468.64 111.59 461.00 111.00 Z"/>
</g>
<g fill="None" fill-opacity="0.0" stroke="#000000" stroke-opacity="0.97" stroke-width="0.3"><path d="
M 421.00 148.00 
C 419.13 149.15 418.40 151.90 416.00 152.00
C 414.73 164.22 423.08 162.89 434.00 163.00 C 444.92 163.11 452.15 163.47 451.00 152.00
C 448.62 151.32 447.64 149.36 446.00 148.00
C 438.42 149.75 427.76 149.51 421.00 148.00 Z"/>
</g>
<g fill="None" fill-opacity="0.0" stroke="#000000" stroke-opacity="0.96" stroke-width="0.3"><path d="
M 504.00 152.00 
C 496.65 145.89 469.04 144.10 469.07 155.92 C 469.09 167.74 496.69 164.31 504.00 160.00
C 503.55 157.21 503.27 154.54 504.00 152.00 Z"/>
</g>
<g fill="None" fill-opacity="0.0" stroke="#000000" stroke-opacity="0.97" stroke-width="0.3"><path d="
M 275.00 163.00 
C 276.80 149.34 265.96 153.13 255.01 151.99 C 244.06 150.86 228.33 150.25 217.02 150.98 C 205.71 151.71 192.09 147.03 186.00 157.00
C 190.31 173.71 212.97 164.04 228.00 165.00 C 243.03 165.96 262.45 169.64 275.00 163.00 Z"/>
</g>
<g fill="None" fill-opacity="0.0" stroke="#000000" stroke-opacity="0.96" stroke-width="0.3"><path d="
M 0.00 223.00 
L 0.00 230.00
C 2.17 245.25 16.72 256.76 28.08 263.87 C 39.44 270.98 49.96 274.72 62.90 279.09 C 75.84 283.47 89.31 287.99 103.25 290.61 C 117.19 293.22 130.00 295.63 144.75 297.20 C 159.50 298.77 171.57 300.43 187.77 301.79 C 203.97 303.15 235.25 301.75 252.77 301.21 C 270.29 300.67 283.16 300.06 298.25 298.40 C 313.34 296.73 325.44 294.78 339.77 292.21 C 354.10 289.64 366.99 286.58 380.25 282.40 C 393.52 278.22 405.87 274.15 417.23 268.58 C 428.59 263.00 442.83 253.11 449.29 239.30 C 455.75 225.49 451.90 210.78 441.10 200.90 C 430.30 191.02 415.48 182.15 401.77 177.58 C 388.06 173.00 375.50 162.57 364.00 173.00
C 364.83 175.17 366.20 177.99 365.00 180.00
C 373.78 184.59 383.44 186.52 391.75 189.24 C 400.06 191.96 407.41 197.22 414.75 200.81 C 422.08 204.40 432.57 212.45 436.29 221.70 C 440.00 230.94 432.70 240.43 424.25 246.81 C 415.80 253.20 410.85 254.52 402.25 258.24 C 393.65 261.96 385.79 266.34 376.70 268.65 C 367.61 270.96 357.48 273.53 348.75 275.60 C 340.02 277.68 331.42 278.38 322.25 280.20 C 313.08 282.02 304.03 282.22 293.75 283.61 C 283.47 284.99 274.38 285.26 263.08 286.07 C 251.77 286.88 232.27 286.66 219.07 286.93 C 205.87 287.19 190.90 286.06 179.75 285.60 C 168.61 285.15 160.29 283.31 149.75 282.60 C 139.21 281.90 133.32 279.62 123.70 278.35 C 114.07 277.08 105.62 275.35 96.75 273.39 C 87.88 271.43 75.93 267.61 68.25 265.19 C 60.57 262.77 51.37 258.72 44.25 255.19 C 37.14 251.66 27.80 247.02 21.10 238.90 C 14.40 230.78 12.86 220.98 20.25 213.25 C 27.63 205.51 36.73 201.18 44.08 197.13 C 51.43 193.08 61.40 189.67 69.08 187.13 C 76.76 184.59 88.50 180.83 95.75 179.19 C 103.01 177.56 120.56 176.58 116.35 166.70 C 112.14 156.81 100.05 162.53 91.75 164.41 C 83.45 166.29 71.22 169.77 63.25 172.24 C 55.27 174.72 46.59 179.13 38.77 182.42 C 30.95 185.72 24.93 190.41 16.70 196.70 C 8.47 202.99 1.10 213.48 0.00 223.00 Z"/>
</g>
<g fill="None" fill-opacity="0.0" stroke="#000000" stroke-opacity="0.94" stroke-width="0.3"><path d="
M 456.00 165.00 
C 447.11 172.68 450.85 204.11 463.08 199.13 C 475.31 194.15 469.92 160.59 456.00 165.00 Z"/>
</g>
<g fill="None" fill-opacity="0.0" stroke="#000000" stroke-opacity="0.97" stroke-width="0.3"><path d="
M 110.00 213.00 
C 90.15 210.67 90.03 238.08 105.92 240.07 C 121.81 242.05 130.90 245.76 146.92 247.07 C 162.93 248.37 177.66 251.32 195.93 251.93 C 214.19 252.53 245.51 252.53 263.30 251.31 C 281.10 250.09 294.67 248.66 310.25 246.40 C 325.83 244.14 336.22 242.97 351.23 238.58 C 366.24 234.18 355.72 202.08 339.00 217.00
C 340.20 220.42 338.60 223.23 341.00 226.00
C 273.92 240.27 179.48 240.42 112.00 226.00
C 115.35 220.57 113.10 217.42 110.00 213.00 Z"/>
</g>
<g fill="None" fill-opacity="0.0" stroke="#000000" stroke-opacity="0.99" stroke-width="0.3"><path d="
M 98.00 293.00 
C 82.62 291.79 86.91 307.52 87.00 322.00 C 87.09 336.48 86.33 357.23 87.00 372.00 C 87.67 386.77 83.38 403.90 91.00 414.00
C 109.62 412.19 98.64 384.31 101.00 365.00 C 103.36 345.69 98.41 316.74 102.00 298.00
C 100.85 296.13 98.10 295.39 98.00 293.00 Z"/>
</g>
<g fill="None" fill-opacity="0.0" stroke="#000000" stroke-opacity="0.98" stroke-width="0.3"><path d="
M 204.00 512.00 
L 220.00 512.00
C 223.27 510.41 229.80 510.29 233.00 512.00
L 249.00 512.00
C 259.36 509.20 270.24 509.99 280.25 508.59 C 290.25 507.19 299.95 504.42 309.75 502.20 C 319.55 499.98 329.32 497.87 337.25 493.39 C 345.18 488.91 353.23 488.04 361.03 478.03 C 368.83 468.03 365.74 454.65 366.00 438.00 C 366.26 421.35 366.11 398.93 366.00 382.00 C 365.89 365.07 366.57 343.15 366.00 327.00 C 365.43 310.85 371.67 292.29 355.00 293.00
C 354.83 295.46 352.22 296.22 351.00 298.00
C 352.82 315.43 351.99 338.33 352.00 357.00 C 352.01 375.67 352.35 401.40 352.00 419.00 C 351.65 436.60 355.67 461.30 345.70 471.70 C 335.74 482.11 328.43 478.87 317.77 484.42 C 307.11 489.98 298.27 488.26 286.25 491.24 C 274.22 494.23 266.95 493.85 253.69 495.35 C 240.44 496.86 216.42 496.37 203.22 495.22 C 190.02 494.07 181.75 494.74 169.75 492.39 C 157.75 490.05 149.20 489.06 137.75 485.39 C 126.31 481.72 121.03 479.92 110.25 473.19 C 99.48 466.46 98.72 442.33 102.00 428.00
C 86.38 416.08 87.12 434.01 87.00 448.00 C 86.88 461.99 86.40 473.59 96.75 481.25 C 107.10 488.90 110.10 492.72 119.25 495.61 C 128.39 498.50 135.82 501.38 145.75 503.80 C 155.69 506.23 164.30 506.53 174.25 508.60 C 184.20 510.68 193.82 508.90 204.00 512.00 Z"/>
</g>
<g fill="None" fill-opacity="0.0" stroke="#000000" stroke-opacity="0.68" stroke-width="0.3"><path d="
M 220.00 512.00 
L 233.00 512.00
C 229.80 510.29 223.27 510.41 220.00 512.00 Z"/>
</g>
<g fill="#000000" fill-opacity="0.01" stroke="None">
<path d="
M 0.00 223.00 
C 1.10 213.48 8.47 202.99 16.70 196.70 C 24.93 190.41 30.95 185.72 38.77 182.42 C 46.59 179.13 55.27 174.72 63.25 172.24 C 71.22 169.77 83.45 166.29 91.75 164.41 C 100.05 162.53 112.14 156.81 116.35 166.70 C 120.56 176.58 103.01 177.56 95.75 179.19 C 88.50 180.83 76.76 184.59 69.08 187.13 C 61.40 189.67 51.43 193.08 44.08 197.13 C 36.73 201.18 27.63 205.51 20.25 213.25 C 12.86 220.98 14.40 230.78 21.10 238.90 C 27.80 247.02 37.14 251.66 44.25 255.19 C 51.37 258.72 60.57 262.77 68.25 265.19 C 75.93 267.61 87.88 271.43 96.75 273.39 C 105.62 275.35 114.07 277.08 123.70 278.35 C 133.32 279.62 139.21 281.90 149.75 282.60 C 160.29 283.31 168.61 285.15 179.75 285.60 C 190.90 286.06 205.87 287.19 219.07 286.93 C 232.27 286.66 251.77 286.88 263.08 286.07 C 274.38 285.26 283.47 284.99 293.75 283.61 C 304.03 282.22 313.08 282.02 322.25 280.20 C 331.42 278.38 340.02 277.68 348.75 275.60 C 357.48 273.53 367.61 270.96 376.70 268.65 C 385.79 266.34 393.65 261.96 402.25 258.24 C 410.85 254.52 415.80 253.20 424.25 246.81 C 432.70 240.43 440.00 230.94 436.29 221.70 C 432.57 212.45 422.08 204.40 414.75 200.81 C 407.41 197.22 400.06 191.96 391.75 189.24 C 383.44 186.52 373.78 184.59 365.00 180.00
C 366.20 177.99 364.83 175.17 364.00 173.00
C 375.50 162.57 388.06 173.00 401.77 177.58 C 415.48 182.15 430.30 191.02 441.10 200.90 C 451.90 210.78 455.75 225.49 449.29 239.30 C 442.83 253.11 428.59 263.00 417.23 268.58 C 405.87 274.15 393.52 278.22 380.25 282.40 C 366.99 286.58 354.10 289.64 339.77 292.21 C 325.44 294.78 313.34 296.73 298.25 298.40 C 283.16 300.06 270.29 300.67 252.77 301.21 C 235.25 301.75 203.97 303.15 187.77 301.79 C 171.57 300.43 159.50 298.77 144.75 297.20 C 130.00 295.63 117.19 293.22 103.25 290.61 C 89.31 287.99 75.84 283.47 62.90 279.09 C 49.96 274.72 39.44 270.98 28.08 263.87 C 16.72 256.76 2.17 245.25 0.00 230.00
L 0.00 512.00
L 204.00 512.00
C 193.82 508.90 184.20 510.68 174.25 508.60 C 164.30 506.53 155.69 506.23 145.75 503.80 C 135.82 501.38 128.39 498.50 119.25 495.61 C 110.10 492.72 107.10 488.90 96.75 481.25 C 86.40 473.59 86.88 461.99 87.00 448.00 C 87.12 434.01 86.38 416.08 102.00 428.00
C 98.72 442.33 99.48 466.46 110.25 473.19 C 121.03 479.92 126.31 481.72 137.75 485.39 C 149.20 489.06 157.75 490.05 169.75 492.39 C 181.75 494.74 190.02 494.07 203.22 495.22 C 216.42 496.37 240.44 496.86 253.69 495.35 C 266.95 493.85 274.22 494.23 286.25 491.24 C 298.27 488.26 307.11 489.98 317.77 484.42 C 328.43 478.87 335.74 482.11 345.70 471.70 C 355.67 461.30 351.65 436.60 352.00 419.00 C 352.35 401.40 352.01 375.67 352.00 357.00 C 351.99 338.33 352.82 315.43 351.00 298.00
C 352.22 296.22 354.83 295.46 355.00 293.00
C 371.67 292.29 365.43 310.85 366.00 327.00 C 366.57 343.15 365.89 365.07 366.00 382.00 C 366.11 398.93 366.26 421.35 366.00 438.00 C 365.74 454.65 368.83 468.03 361.03 478.03 C 353.23 488.04 345.18 488.91 337.25 493.39 C 329.32 497.87 319.55 499.98 309.75 502.20 C 299.95 504.42 290.25 507.19 280.25 508.59 C 270.24 509.99 259.36 509.20 249.00 512.00
L 512.00 512.00
L 512.00 0.00
L 0.00 0.00
L 0.00 223.00
M 56.00 37.00 
C 53.61 36.16 51.47 36.20 49.00 37.00
C 41.84 29.95 40.22 1.50 52.25 1.24 C 64.28 0.98 63.67 29.82 56.00 37.00
M 297.00 1.00 
C 311.42 3.13 305.85 26.21 312.12 34.90 C 318.38 43.59 328.93 57.05 343.25 54.80 C 357.56 52.55 369.86 73.22 357.23 82.57 C 344.61 91.92 332.34 83.99 321.25 94.39 C 310.16 104.79 309.06 116.40 305.88 130.90 C 302.71 145.40 278.56 143.30 277.61 128.25 C 276.66 113.19 271.58 103.26 260.25 93.61 C 248.91 83.95 234.37 91.62 223.90 79.10 C 213.43 66.58 233.21 53.58 245.25 54.20 C 257.28 54.81 270.10 42.29 273.91 31.90 C 277.72 21.51 274.06 -2.39 297.00 1.00
M 491.00 23.00 
C 496.33 35.83 507.25 38.16 510.19 51.25 C 513.14 64.34 494.52 70.84 487.23 77.24 C 479.94 83.63 467.67 89.11 459.25 95.39 C 450.83 101.67 441.28 109.40 432.08 115.13 C 422.88 120.86 413.89 128.34 404.75 134.75 C 395.60 141.16 385.75 146.83 376.75 153.19 C 367.75 159.56 358.66 167.34 349.70 172.71 C 340.74 178.08 330.95 186.84 322.23 192.24 C 313.51 197.63 302.47 206.12 294.25 211.59 C 286.02 217.06 274.51 229.36 265.90 221.10 C 257.29 212.84 255.47 200.86 247.00 194.00
C 252.88 180.25 268.97 174.48 279.77 165.43 C 290.57 156.38 303.44 150.74 314.75 141.74 C 326.06 132.73 337.50 126.22 349.25 117.81 C 361.01 109.41 372.13 101.36 383.92 92.91 C 395.71 84.47 407.02 77.60 418.75 69.61 C 430.49 61.61 441.37 51.96 453.75 44.75 C 466.13 37.54 475.12 25.05 491.00 23.00
M 144.00 37.00 
C 160.47 32.25 166.41 51.88 167.59 65.75 C 168.77 79.63 179.47 92.27 192.25 98.19 C 205.04 104.11 223.43 99.76 230.19 114.25 C 236.95 128.75 219.32 140.69 204.75 139.80 C 190.19 138.91 177.62 152.70 170.42 164.77 C 163.23 176.84 171.40 197.21 154.70 203.71 C 137.99 210.21 129.10 188.89 129.80 175.75 C 130.50 162.62 115.47 150.52 104.25 143.61 C 93.02 136.70 71.75 142.98 65.42 127.23 C 59.10 111.48 78.60 101.39 92.75 101.74 C 106.90 102.09 121.34 87.71 126.58 76.23 C 131.82 64.75 127.48 41.77 144.00 37.00
M 39.00 38.00 
C 48.08 46.65 41.20 53.41 31.00 54.00 C 20.79 54.59 5.49 53.89 9.76 42.75 C 14.02 31.62 29.30 44.03 39.00 38.00
M 61.00 44.00 
C 62.45 43.07 65.33 41.02 66.00 38.00
C 74.75 42.45 87.09 34.68 93.92 40.13 C 100.75 45.58 92.42 56.21 82.00 54.00 C 71.58 51.79 62.36 56.81 61.00 44.00
M 50.00 55.00 
C 63.27 52.53 67.06 84.42 54.75 89.19 C 42.43 93.96 38.45 57.15 50.00 55.00
M 461.00 111.00 
C 468.64 111.59 467.78 122.86 468.00 131.00 C 468.22 139.14 467.38 147.21 458.78 146.22 C 450.18 145.23 453.84 137.01 453.00 129.00 C 452.16 120.99 452.11 110.31 461.00 111.00
M 421.00 148.00 
C 427.76 149.51 438.42 149.75 446.00 148.00
C 447.64 149.36 448.62 151.32 451.00 152.00
C 452.15 163.47 444.92 163.11 434.00 163.00 C 423.08 162.89 414.73 164.22 416.00 152.00
C 418.40 151.90 419.13 149.15 421.00 148.00
M 504.00 152.00 
C 503.27 154.54 503.55 157.21 504.00 160.00
C 496.69 164.31 469.09 167.74 469.07 155.92 C 469.04 144.10 496.65 145.89 504.00 152.00
M 275.00 163.00 
C 262.45 169.64 243.03 165.96 228.00 165.00 C 212.97 164.04 190.31 173.71 186.00 157.00
C 192.09 147.03 205.71 151.71 217.02 150.98 C 228.33 150.25 244.06 150.86 255.01 151.99 C 265.96 153.13 276.80 149.34 275.00 163.00
M 456.00 165.00 
C 469.92 160.59 475.31 194.15 463.08 199.13 C 450.85 204.11 447.11 172.68 456.00 165.00
M 110.00 213.00 
C 113.10 217.42 115.35 220.57 112.00 226.00
C 179.48 240.42 273.92 240.27 341.00 226.00
C 338.60 223.23 340.20 220.42 339.00 217.00
C 355.72 202.08 366.24 234.18 351.23 238.58 C 336.22 242.97 325.83 244.14 310.25 246.40 C 294.67 248.66 281.10 250.09 263.30 251.31 C 245.51 252.53 214.19 252.53 195.93 251.93 C 177.66 251.32 162.93 248.37 146.92 247.07 C 130.90 245.76 121.81 242.05 105.92 240.07 C 90.03 238.08 90.15 210.67 110.00 213.00
M 98.00 293.00 
C 98.10 295.39 100.85 296.13 102.00 298.00
C 98.41 316.74 103.36 345.69 101.00 365.00 C 98.64 384.31 109.62 412.19 91.00 414.00
C 83.38 403.90 87.67 386.77 87.00 372.00 C 86.33 357.23 87.09 336.48 87.00 322.00 C 86.91 307.52 82.62 291.79 98.00 293.00 Z"/>
</g>
<g fill="#000000" fill-opacity="0.91" stroke="None">
<path d="
M 56.00 37.00 
C 63.67 29.82 64.28 0.98 52.25 1.24 C 40.22 1.50 41.84 29.95 49.00 37.00
C 51.47 36.20 53.61 36.16 56.00 37.00 Z"/>
</g>
<g fill="#000000" fill-opacity="0.96" stroke="None">
<path d="
M 297.00 1.00 
C 274.06 -2.39 277.72 21.51 273.91 31.90 C 270.10 42.29 257.28 54.81 245.25 54.20 C 233.21 53.58 213.43 66.58 223.90 79.10 C 234.37 91.62 248.91 83.95 260.25 93.61 C 271.58 103.26 276.66 113.19 277.61 128.25 C 278.56 143.30 302.71 145.40 305.88 130.90 C 309.06 116.40 310.16 104.79 321.25 94.39 C 332.34 83.99 344.61 91.92 357.23 82.57 C 369.86 73.22 357.56 52.55 343.25 54.80 C 328.93 57.05 318.38 43.59 312.12 34.90 C 305.85 26.21 311.42 3.13 297.00 1.00
M 341.00 69.00 
C 335.71 74.84 325.75 74.84 319.70 78.71 C 313.65 82.58 302.55 90.10 299.41 97.75 C 296.28 105.41 293.51 113.37 293.00 124.00
C 287.68 110.29 288.52 97.39 277.75 87.25 C 266.98 77.11 254.89 73.58 239.00 71.00
C 266.60 69.65 291.01 48.71 291.00 20.00
C 295.71 26.94 295.23 36.55 299.13 42.92 C 303.03 49.29 310.02 59.12 317.30 62.71 C 324.59 66.30 332.11 69.40 341.00 69.00 Z"/>
</g>
<g fill="#000000" fill-opacity="0.04" stroke="None">
<path d="
M 341.00 69.00 
C 332.11 69.40 324.59 66.30 317.30 62.71 C 310.02 59.12 303.03 49.29 299.13 42.92 C 295.23 36.55 295.71 26.94 291.00 20.00
C 291.01 48.71 266.60 69.65 239.00 71.00
C 254.89 73.58 266.98 77.11 277.75 87.25 C 288.52 97.39 287.68 110.29 293.00 124.00
C 293.51 113.37 296.28 105.41 299.41 97.75 C 302.55 90.10 313.65 82.58 319.70 78.71 C 325.75 74.84 335.71 74.84 341.00 69.00 Z"/>
</g>
<g fill="#000000" fill-opacity="0.96" stroke="None">
<path d="
M 491.00 23.00 
C 475.12 25.05 466.13 37.54 453.75 44.75 C 441.37 51.96 430.49 61.61 418.75 69.61 C 407.02 77.60 395.71 84.47 383.92 92.91 C 372.13 101.36 361.01 109.41 349.25 117.81 C 337.50 126.22 326.06 132.73 314.75 141.74 C 303.44 150.74 290.57 156.38 279.77 165.43 C 268.97 174.48 252.88 180.25 247.00 194.00
C 255.47 200.86 257.29 212.84 265.90 221.10 C 274.51 229.36 286.02 217.06 294.25 211.59 C 302.47 206.12 313.51 197.63 322.23 192.24 C 330.95 186.84 340.74 178.08 349.70 172.71 C 358.66 167.34 367.75 159.56 376.75 153.19 C 385.75 146.83 395.60 141.16 404.75 134.75 C 413.89 128.34 422.88 120.86 432.08 115.13 C 441.28 109.40 450.83 101.67 459.25 95.39 C 467.67 89.11 479.94 83.63 487.23 77.24 C 494.52 70.84 513.14 64.34 510.19 51.25 C 507.25 38.16 496.33 35.83 491.00 23.00
M 486.00 41.00 
C 487.33 46.32 491.72 48.65 494.00 54.00
C 469.58 71.25 445.27 86.44 421.25 103.39 C 397.22 120.35 373.40 137.87 349.25 154.59 C 325.09 171.30 299.98 187.76 277.00 206.00
C 271.19 203.92 268.76 198.14 266.00 193.00
C 340.51 143.54 411.74 91.23 486.00 41.00 Z"/>
</g>
<g fill="#000000" fill-opacity="0.96" stroke="None">
<path d="
M 144.00 37.00 
C 127.48 41.77 131.82 64.75 126.58 76.23 C 121.34 87.71 106.90 102.09 92.75 101.74 C 78.60 101.39 59.10 111.48 65.42 127.23 C 71.75 142.98 93.02 136.70 104.25 143.61 C 115.47 150.52 130.50 162.62 129.80 175.75 C 129.10 188.89 137.99 210.21 154.70 203.71 C 171.40 197.21 163.23 176.84 170.42 164.77 C 177.62 152.70 190.19 138.91 204.75 139.80 C 219.32 140.69 236.95 128.75 230.19 114.25 C 223.43 99.76 205.04 104.11 192.25 98.19 C 179.47 92.27 168.77 79.63 167.59 65.75 C 166.41 51.88 160.47 32.25 144.00 37.00
M 149.00 52.00 
C 151.02 64.98 154.13 76.16 158.71 86.30 C 163.30 96.44 174.50 107.14 184.25 111.19 C 194.01 115.24 207.69 117.43 217.00 122.00
C 196.94 124.54 183.03 127.85 168.25 142.25 C 153.47 156.65 153.78 171.53 148.00 190.00
C 143.80 171.38 141.78 154.57 127.25 140.75 C 112.73 126.92 96.98 125.40 79.00 121.00
C 90.07 117.35 102.07 115.85 112.75 111.41 C 123.44 106.97 133.22 95.82 138.19 85.75 C 143.16 75.67 144.31 62.89 149.00 52.00 Z"/>
</g>
<g fill="#000000" fill-opacity="0.95" stroke="None">
<path d="
M 39.00 38.00 
C 29.30 44.03 14.02 31.62 9.76 42.75 C 5.49 53.89 20.79 54.59 31.00 54.00 C 41.20 53.41 48.08 46.65 39.00 38.00 Z"/>
</g>
<g fill="#000000" fill-opacity="0.95" stroke="None">
<path d="
M 61.00 44.00 
C 62.36 56.81 71.58 51.79 82.00 54.00 C 92.42 56.21 100.75 45.58 93.92 40.13 C 87.09 34.68 74.75 42.45 66.00 38.00
C 65.33 41.02 62.45 43.07 61.00 44.00 Z"/>
</g>
<g fill="#000000" fill-opacity="0.04" stroke="None">
<path d="
M 486.00 41.00 
C 411.74 91.23 340.51 143.54 266.00 193.00
C 268.76 198.14 271.19 203.92 277.00 206.00
C 299.98 187.76 325.09 171.30 349.25 154.59 C 373.40 137.87 397.22 120.35 421.25 103.39 C 445.27 86.44 469.58 71.25 494.00 54.00
C 491.72 48.65 487.33 46.32 486.00 41.00 Z"/>
</g>
<g fill="#000000" fill-opacity="0.03" stroke="None">
<path d="
M 149.00 52.00 
C 144.31 62.89 143.16 75.67 138.19 85.75 C 133.22 95.82 123.44 106.97 112.75 111.41 C 102.07 115.85 90.07 117.35 79.00 121.00
C 96.98 125.40 112.73 126.92 127.25 140.75 C 141.78 154.57 143.80 171.38 148.00 190.00
C 153.78 171.53 153.47 156.65 168.25 142.25 C 183.03 127.85 196.94 124.54 217.00 122.00
C 207.69 117.43 194.01 115.24 184.25 111.19 C 174.50 107.14 163.30 96.44 158.71 86.30 C 154.13 76.16 151.02 64.98 149.00 52.00 Z"/>
</g>
<g fill="#000000" fill-opacity="0.90" stroke="None">
<path d="
M 50.00 55.00 
C 38.45 57.15 42.43 93.96 54.75 89.19 C 67.06 84.42 63.27 52.53 50.00 55.00 Z"/>
</g>
<g fill="#000000" fill-opacity="0.95" stroke="None">
<path d="
M 461.00 111.00 
C 452.11 110.31 452.16 120.99 453.00 129.00 C 453.84 137.01 450.18 145.23 458.78 146.22 C 467.38 147.21 468.22 139.14 468.00 131.00 C 467.78 122.86 468.64 111.59 461.00 111.00 Z"/>
</g>
<g fill="#000000" fill-opacity="0.97" stroke="None">
<path d="
M 421.00 148.00 
C 419.13 149.15 418.40 151.90 416.00 152.00
C 414.73 164.22 423.08 162.89 434.00 163.00 C 444.92 163.11 452.15 163.47 451.00 152.00
C 448.62 151.32 447.64 149.36 446.00 148.00
C 438.42 149.75 427.76 149.51 421.00 148.00 Z"/>
</g>
<g fill="#000000" fill-opacity="0.96" stroke="None">
<path d="
M 504.00 152.00 
C 496.65 145.89 469.04 144.10 469.07 155.92 C 469.09 167.74 496.69 164.31 504.00 160.00
C 503.55 157.21 503.27 154.54 504.00 152.00 Z"/>
</g>
<g fill="#000000" fill-opacity="0.97" stroke="None">
<path d="
M 275.00 163.00 
C 276.80 149.34 265.96 153.13 255.01 151.99 C 244.06 150.86 228.33 150.25 217.02 150.98 C 205.71 151.71 192.09 147.03 186.00 157.00
C 190.31 173.71 212.97 164.04 228.00 165.00 C 243.03 165.96 262.45 169.64 275.00 163.00 Z"/>
</g>
<g fill="#000000" fill-opacity="0.96" stroke="None">
<path d="
M 0.00 223.00 
L 0.00 230.00
C 2.17 245.25 16.72 256.76 28.08 263.87 C 39.44 270.98 49.96 274.72 62.90 279.09 C 75.84 283.47 89.31 287.99 103.25 290.61 C 117.19 293.22 130.00 295.63 144.75 297.20 C 159.50 298.77 171.57 300.43 187.77 301.79 C 203.97 303.15 235.25 301.75 252.77 301.21 C 270.29 300.67 283.16 300.06 298.25 298.40 C 313.34 296.73 325.44 294.78 339.77 292.21 C 354.10 289.64 366.99 286.58 380.25 282.40 C 393.52 278.22 405.87 274.15 417.23 268.58 C 428.59 263.00 442.83 253.11 449.29 239.30 C 455.75 225.49 451.90 210.78 441.10 200.90 C 430.30 191.02 415.48 182.15 401.77 177.58 C 388.06 173.00 375.50 162.57 364.00 173.00
C 364.83 175.17 366.20 177.99 365.00 180.00
C 373.78 184.59 383.44 186.52 391.75 189.24 C 400.06 191.96 407.41 197.22 414.75 200.81 C 422.08 204.40 432.57 212.45 436.29 221.70 C 440.00 230.94 432.70 240.43 424.25 246.81 C 415.80 253.20 410.85 254.52 402.25 258.24 C 393.65 261.96 385.79 266.34 376.70 268.65 C 367.61 270.96 357.48 273.53 348.75 275.60 C 340.02 277.68 331.42 278.38 322.25 280.20 C 313.08 282.02 304.03 282.22 293.75 283.61 C 283.47 284.99 274.38 285.26 263.08 286.07 C 251.77 286.88 232.27 286.66 219.07 286.93 C 205.87 287.19 190.90 286.06 179.75 285.60 C 168.61 285.15 160.29 283.31 149.75 282.60 C 139.21 281.90 133.32 279.62 123.70 278.35 C 114.07 277.08 105.62 275.35 96.75 273.39 C 87.88 271.43 75.93 267.61 68.25 265.19 C 60.57 262.77 51.37 258.72 44.25 255.19 C 37.14 251.66 27.80 247.02 21.10 238.90 C 14.40 230.78 12.86 220.98 20.25 213.25 C 27.63 205.51 36.73 201.18 44.08 197.13 C 51.43 193.08 61.40 189.67 69.08 187.13 C 76.76 184.59 88.50 180.83 95.75 179.19 C 103.01 177.56 120.56 176.58 116.35 166.70 C 112.14 156.81 100.05 162.53 91.75 164.41 C 83.45 166.29 71.22 169.77 63.25 172.24 C 55.27 174.72 46.59 179.13 38.77 182.42 C 30.95 185.72 24.93 190.41 16.70 196.70 C 8.47 202.99 1.10 213.48 0.00 223.00 Z"/>
</g>
<g fill="#000000" fill-opacity="0.94" stroke="None">
<path d="
M 456.00 165.00 
C 447.11 172.68 450.85 204.11 463.08 199.13 C 475.31 194.15 469.92 160.59 456.00 165.00 Z"/>
</g>
<g fill="#000000" fill-opacity="0.97" stroke="None">
<path d="
M 110.00 213.00 
C 90.15 210.67 90.03 238.08 105.92 240.07 C 121.81 242.05 130.90 245.76 146.92 247.07 C 162.93 248.37 177.66 251.32 195.93 251.93 C 214.19 252.53 245.51 252.53 263.30 251.31 C 281.10 250.09 294.67 248.66 310.25 246.40 C 325.83 244.14 336.22 242.97 351.23 238.58 C 366.24 234.18 355.72 202.08 339.00 217.00
C 340.20 220.42 338.60 223.23 341.00 226.00
C 273.92 240.27 179.48 240.42 112.00 226.00
C 115.35 220.57 113.10 217.42 110.00 213.00 Z"/>
</g>
<g fill="#000000" fill-opacity="0.99" stroke="None">
<path d="
M 98.00 293.00 
C 82.62 291.79 86.91 307.52 87.00 322.00 C 87.09 336.48 86.33 357.23 87.00 372.00 C 87.67 386.77 83.38 403.90 91.00 414.00
C 109.62 412.19 98.64 384.31 101.00 365.00 C 103.36 345.69 98.41 316.74 102.00 298.00
C 100.85 296.13 98.10 295.39 98.00 293.00 Z"/>
</g>
<g fill="#000000" fill-opacity="0.98" stroke="None">
<path d="
M 204.00 512.00 
L 220.00 512.00
C 223.27 510.41 229.80 510.29 233.00 512.00
L 249.00 512.00
C 259.36 509.20 270.24 509.99 280.25 508.59 C 290.25 507.19 299.95 504.42 309.75 502.20 C 319.55 499.98 329.32 497.87 337.25 493.39 C 345.18 488.91 353.23 488.04 361.03 478.03 C 368.83 468.03 365.74 454.65 366.00 438.00 C 366.26 421.35 366.11 398.93 366.00 382.00 C 365.89 365.07 366.57 343.15 366.00 327.00 C 365.43 310.85 371.67 292.29 355.00 293.00
C 354.83 295.46 352.22 296.22 351.00 298.00
C 352.82 315.43 351.99 338.33 352.00 357.00 C 352.01 375.67 352.35 401.40 352.00 419.00 C 351.65 436.60 355.67 461.30 345.70 471.70 C 335.74 482.11 328.43 478.87 317.77 484.42 C 307.11 489.98 298.27 488.26 286.25 491.24 C 274.22 494.23 266.95 493.85 253.69 495.35 C 240.44 496.86 216.42 496.37 203.22 495.22 C 190.02 494.07 181.75 494.74 169.75 492.39 C 157.75 490.05 149.20 489.06 137.75 485.39 C 126.31 481.72 121.03 479.92 110.25 473.19 C 99.48 466.46 98.72 442.33 102.00 428.00
C 86.38 416.08 87.12 434.01 87.00 448.00 C 86.88 461.99 86.40 473.59 96.75 481.25 C 107.10 488.90 110.10 492.72 119.25 495.61 C 128.39 498.50 135.82 501.38 145.75 503.80 C 155.69 506.23 164.30 506.53 174.25 508.60 C 184.20 510.68 193.82 508.90 204.00 512.00 Z"/>
</g>
<g fill="#000000" fill-opacity="0.68" stroke="None">
<path d="
M 220.00 512.00 
L 233.00 512.00
C 229.80 510.29 223.27 510.41 220.00 512.00 Z"/>
</g>
</svg>