<svg xmlns="http://www.w3.org/2000/svg" xmlns:v="https://svgstorm.com"
viewBox = "0 0 512 512"
width="512"
height="512">
<g fill="None" fill-opacity="0.0" stroke="#000000" stroke-opacity="0.01" stroke-width="0.3"><path d="
M 0.00 328.00 
C 2.92 309.97 21.45 311.59 35.25 309.80 C 49.05 308.01 61.53 304.10 76.00 304.00
C 73.74 278.43 71.79 249.49 75.26 226.25 C 78.73 203.00 82.44 186.98 91.00 168.00
C 95.54 167.14 100.13 164.80 104.25 162.81 C 108.38 160.82 113.12 157.80 116.92 155.87 C 120.72 153.94 132.22 151.55 133.00 146.00
C 114.77 151.36 97.06 154.22 78.00 158.00
C 75.14 168.19 71.40 179.96 66.81 189.25 C 62.22 198.55 61.13 215.51 45.75 218.80 C 30.38 222.09 25.66 202.63 31.13 193.08 C 36.60 183.53 38.44 170.44 43.91 161.90 C 49.37 153.36 48.48 136.95 59.30 130.30 C 70.13 123.66 80.97 126.99 92.25 122.24 C 103.52 117.49 114.33 120.84 125.75 115.74
C 116.15 113.60 106.85 114.56 97.00 115.00
C 103.93 101.52 119.51 101.84 131.75 105.39 C 143.99 108.95 155.67 108.37 167.08 112.06 C 178.50 115.75 185.45 131.19 181.20 143.25 C 176.95 155.30 179.29 167.82 184.00 180.00
C 197.57 174.95 209.75 169.44 224.00 164.00
C 219.71 173.20 216.63 180.67 213.61 189.75 C 210.58 198.84 206.25 208.02 196.70 209.71 C 187.14 211.41 179.35 219.81 167.00 215.00
C 165.78 224.28 165.01 231.51 162.61 240.75 C 160.21 249.99 162.26 257.87 166.12 265.90 C 169.97 273.93 172.59 283.60 162.75 287.19 C 152.91 290.79 149.49 299.94 139.00 306.00
C 133.85 287.71 126.04 270.27 122.00 252.00
C 117.57 249.83 115.11 250.40 111.00 249.00
C 112.46 263.68 111.75 282.67 113.35 296.70 C 114.95 310.72 117.40 332.65 103.70 337.71 C 89.99 342.78 80.98 339.51 67.92 342.93 C 54.85 346.36 45.41 344.49 32.75 347.80 C 20.10 351.11 3.59 349.89 0.00 334.00
L 0.00 512.00
L 512.00 512.00
L 512.00 186.00
C 506.65 200.18 501.60 209.80 494.29 222.30 C 486.98 234.80 478.83 247.47 466.23 261.23 C 453.63 274.99 440.24 284.76 428.08 292.13 C 415.93 299.50 404.93 303.41 390.75 307.20 C 376.57 310.99 356.32 315.35 337.92 312.93 C 319.52 310.51 307.27 309.00 288.31 307.69 C 269.34 306.39 250.36 310.00 234.30 312.64 C 218.24 315.29 206.62 322.48 194.25 327.39 C 181.88 332.31 170.68 356.44 154.75 353.20 C 138.83 349.96 139.00 328.58 152.75 317.75 C 166.51 306.92 176.46 297.21 189.25 292.81 C 202.05 288.41 213.48 280.77 228.75 278.74 C 244.02 276.71 259.67 273.45 278.22 273.22 C 296.77 273.00 315.30 276.62 332.03 277.98 C 348.76 279.33 368.97 279.90 382.75 275.60 C 396.53 271.31 409.81 265.10 421.77 255.43 C 433.73 245.75 451.62 229.09 458.26 216.25 C 464.91 203.40 474.33 195.73 477.58 181.23 C 480.82 166.73 503.48 156.97 512.00 178.00
L 512.00 0.00
L 0.00 0.00
L 0.00 328.00
M 156.00 26.00 
C 180.75 23.45 201.00 54.93 188.81 77.25 C 176.62 99.58 140.74 104.05 127.81 79.75 C 114.89 55.45 128.54 28.83 156.00 26.00
M 342.00 52.00 
C 362.46 47.83 383.35 63.50 386.39 82.75 C 389.44 102.01 377.67 123.12 356.75 125.80 C 335.83 128.48 318.51 118.91 313.09 98.90 C 307.68 78.89 324.13 55.64 342.00 52.00
M 379.00 216.00 
C 390.88 211.67 403.84 203.75 415.30 200.29 C 426.76 196.84 440.99 185.32 452.19 198.25 C 463.40 211.18 449.40 226.26 436.75 228.19 C 424.09 230.12 412.59 241.06 400.23 243.58 C 387.87 246.09 377.05 258.18 360.00 253.00
C 362.16 256.23 357.85 258.70 360.00 262.00
C 324.98 263.29 297.54 253.35 260.00 258.00
C 266.03 239.66 273.36 222.23 279.00 203.00
C 294.76 196.76 309.77 189.31 325.00 180.00
C 303.84 184.48 285.71 187.57 265.00 193.00
C 263.76 206.21 252.22 220.45 250.43 231.77 C 248.63 243.09 235.29 266.56 218.78 254.22 C 202.26 241.89 218.21 227.62 221.26 214.25 C 224.31 200.87 233.27 188.96 236.64 175.30 C 240.01 161.64 258.39 158.75 271.75 156.40 C 285.12 154.04 300.80 151.43 313.00 146.00
C 303.33 146.18 295.16 144.55 286.00 146.00
C 293.16 130.11 310.77 133.65 323.75 136.59 C 336.73 139.53 349.29 139.66 361.77 144.58 C 374.25 149.49 379.68 164.36 374.88 177.90 C 370.09 191.44 374.16 204.46 379.00 216.00
M 303.00 325.00 
C 303.00 342.82 309.89 379.81 291.08 384.13 C 272.28 388.45 256.75 390.06 238.75 391.20 C 220.75 392.33 200.33 405.64 186.41 389.25 C 172.49 372.86 192.56 352.99 210.75 354.61 C 228.94 356.22 244.90 346.40 263.00 348.00
C 262.25 340.08 262.50 333.11 261.00 325.00
C 275.39 324.43 289.40 325.72 303.00 325.00
M 367.00 329.00 
C 370.00 342.33 377.82 358.28 378.31 374.70 C 378.80 391.12 383.64 406.12 383.93 423.08 C 384.23 440.04 392.43 454.40 387.81 472.25 C 383.19 490.11 351.63 487.90 349.60 470.25 C 347.57 452.61 344.35 439.38 342.69 422.30 C 341.03 405.23 339.23 390.91 337.07 373.92 C 334.91 356.92 328.24 345.46 323.00 328.00
C 336.12 329.68 352.31 332.42 367.00 329.00
M 167.00 367.00 
C 160.96 388.28 175.16 408.19 194.00 412.00
C 195.46 425.78 181.41 435.63 168.77 431.23 C 156.13 426.83 155.50 414.46 154.20 402.75 C 152.90 391.05 151.73 379.99 150.00 368.00
C 156.46 370.36 161.14 368.97 167.00 367.00 Z"/>
</g>
<g fill="None" fill-opacity="0.0" stroke="#000000" stroke-opacity="0.98" stroke-width="0.3"><path d="
M 156.00 26.00 
C 128.54 28.83 114.89 55.45 127.81 79.75 C 140.74 104.05 176.62 99.58 188.81 77.25 C 201.00 54.93 180.75 23.45 156.00 26.00 Z"/>
</g>
<g fill="None" fill-opacity="0.0" stroke="#000000" stroke-opacity="0.98" stroke-width="0.3"><path d="
M 342.00 52.00 
C 324.13 55.64 307.68 78.89 313.09 98.90 C 318.51 118.91 335.83 128.48 356.75 125.80 C 377.67 123.12 389.44 102.01 386.39 82.75 C 383.35 63.50 362.46 47.83 342.00 52.00 Z"/>
</g>
<g fill="None" fill-opacity="0.0" stroke="#000000" stroke-opacity="0.99" stroke-width="0.3"><path d="
M 0.00 328.00 
L 0.00 334.00
C 3.59 349.89 20.10 351.11 32.75 347.80 C 45.41 344.49 54.85 346.36 67.92 342.93 C 80.98 339.51 89.99 342.78 103.70 337.71 C 117.40 332.65 114.95 310.72 113.35 296.70 C 111.75 282.67 112.46 263.68 111.00 249.00
C 115.11 250.40 117.57 249.83 122.00 252.00
C 126.04 270.27 133.85 287.71 139.00 306.00
C 149.49 299.94 152.91 290.79 162.75 287.19 C 172.59 283.60 169.97 273.93 166.12 265.90 C 162.26 257.87 160.21 249.99 162.61 240.75 C 165.01 231.51 165.78 224.28 167.00 215.00
C 179.35 219.81 187.14 211.41 196.70 209.71 C 206.25 208.02 210.58 198.84 213.61 189.75 C 216.63 180.67 219.71 173.20 224.00 164.00
C 209.75 169.44 197.57 174.95 184.00 180.00
C 179.29 167.82 176.95 155.30 181.20 143.25 C 185.45 131.19 178.50 115.75 167.08 112.06 C 155.67 108.37 143.99 108.95 131.75 105.39 C 119.51 101.84 103.93 101.52 97.00 115.00
C 106.85 114.56 116.15 113.60 126.00 115.00
C 114.33 120.84 103.52 117.49 92.25 122.24 C 80.97 126.99 70.13 123.66 59.30 130.30 C 48.48 136.95 49.37 153.36 43.91 161.90 C 38.44 170.44 36.60 183.53 31.13 193.08 C 25.66 202.63 30.38 222.09 45.75 218.80 C 61.13 215.51 62.22 198.55 66.81 189.25 C 71.40 179.96 75.14 168.19 78.00 158.00
C 97.06 154.22 114.77 151.36 133.00 146.00
C 132.22 151.55 120.72 153.94 116.92 155.87 C 113.12 157.80 108.38 160.82 104.25 162.81 C 100.13 164.80 95.54 167.14 91.00 168.00
C 82.44 186.98 78.73 203.00 75.26 226.25 C 71.79 249.49 73.74 278.43 76.00 304.00
C 61.53 304.10 49.05 308.01 35.25 309.80 C 21.45 311.59 2.92 309.97 0.00 328.00 Z"/>
</g>
<g fill="None" fill-opacity="0.0" stroke="#000000" stroke-opacity="0.98" stroke-width="0.3"><path d="
M 379.00 216.00 
C 374.16 204.46 370.09 191.44 374.88 177.90 C 379.68 164.36 374.25 149.49 361.77 144.58 C 349.29 139.66 336.73 139.53 323.75 136.59 C 310.77 133.65 293.16 130.11 286.00 146.00
C 295.16 144.55 303.33 146.18 313.00 146.00
C 300.80 151.43 285.12 154.04 271.75 156.40 C 258.39 158.75 240.01 161.64 236.64 175.30 C 233.27 188.96 224.31 200.87 221.26 214.25 C 218.21 227.62 202.26 241.89 218.78 254.22 C 235.29 266.56 248.63 243.09 250.43 231.77 C 252.22 220.45 263.76 206.21 265.00 193.00
C 285.71 187.57 303.84 184.48 325.00 180.00
C 309.77 189.31 294.76 196.76 279.00 203.00
C 273.36 222.23 266.03 239.66 260.00 258.00
C 297.54 253.35 324.98 263.29 360.00 262.00
C 357.85 258.70 362.16 256.23 360.00 253.00
C 377.05 258.18 387.87 246.09 400.23 243.58 C 412.59 241.06 424.09 230.12 436.75 228.19 C 449.40 226.26 463.40 211.18 452.19 198.25 C 440.99 185.32 426.76 196.84 415.30 200.29 C 403.84 203.75 390.88 211.67 379.00 216.00 Z"/>
</g>
<g fill="None" fill-opacity="0.0" stroke="#000000" stroke-opacity="0.98" stroke-width="0.3"><path d="
M 512.00 186.00 
L 512.00 178.00
C 503.48 156.97 480.82 166.73 477.58 181.23 C 474.33 195.73 464.91 203.40 458.26 216.25 C 451.62 229.09 433.73 245.75 421.77 255.43 C 409.81 265.10 396.53 271.31 382.75 275.60 C 368.97 279.90 348.76 279.33 332.03 277.98 C 315.30 276.62 296.77 273.00 278.22 273.22 C 259.67 273.45 244.02 276.71 228.75 278.74 C 213.48 280.77 202.05 288.41 189.25 292.81 C 176.46 297.21 166.51 306.92 152.75 317.75 C 139.00 328.58 138.83 349.96 154.75 353.20 C 170.68 356.44 181.88 332.31 194.25 327.39 C 206.62 322.48 218.24 315.29 234.30 312.64 C 250.36 310.00 269.34 306.39 288.31 307.69 C 307.27 309.00 319.52 310.51 337.92 312.93 C 356.32 315.35 376.57 310.99 390.75 307.20 C 404.93 303.41 415.93 299.50 428.08 292.13 C 440.24 284.76 453.63 274.99 466.23 261.23 C 478.83 247.47 486.98 234.80 494.29 222.30 C 501.60 209.80 506.65 200.18 512.00 186.00 Z"/>
</g>
<g fill="None" fill-opacity="0.0" stroke="#000000" stroke-opacity="0.98" stroke-width="0.3"><path d="
M 303.00 325.00 
C 289.40 325.72 275.39 324.43 261.00 325.00
C 262.50 333.11 262.25 340.08 263.00 348.00
C 244.90 346.40 228.94 356.22 210.75 354.61 C 192.56 352.99 172.49 372.86 186.41 389.25 C 200.33 405.64 220.75 392.33 238.75 391.20 C 256.75 390.06 272.28 388.45 291.08 384.13 C 309.89 379.81 303.00 342.82 303.00 325.00 Z"/>
</g>
<g fill="None" fill-opacity="0.0" stroke="#000000" stroke-opacity="0.98" stroke-width="0.3"><path d="
M 367.00 329.00 
C 352.31 332.42 336.12 329.68 323.00 328.00
C 328.24 345.46 334.91 356.92 337.07 373.92 C 339.23 390.91 341.03 405.23 342.69 422.30 C 344.35 439.38 347.57 452.61 349.60 470.25 C 351.63 487.90 383.19 490.11 387.81 472.25 C 392.43 454.40 384.23 440.04 383.93 423.08 C 383.64 406.12 378.80 391.12 378.31 374.70 C 377.82 358.28 370.00 342.33 367.00 329.00 Z"/>
</g>
<g fill="None" fill-opacity="0.0" stroke="#000000" stroke-opacity="0.96" stroke-width="0.3"><path d="
M 167.00 367.00 
C 161.14 368.97 156.46 370.36 150.00 368.00
C 151.73 379.99 152.90 391.05 154.20 402.75 C 155.50 414.46 156.13 426.83 168.77 431.23 C 181.41 435.63 195.46 425.78 194.00 412.00
C 175.16 408.19 160.96 388.28 167.00 367.00 Z"/>
</g>
<g fill="#000000" fill-opacity="0.01" stroke="None">
<path d="
M 0.00 328.00 
C 2.92 309.97 21.45 311.59 35.25 309.80 C 49.05 308.01 61.53 304.10 76.00 304.00
C 73.74 278.43 71.79 249.49 75.26 226.25 C 78.73 203.00 82.44 186.98 91.00 168.00
C 95.54 167.14 100.13 164.80 104.25 162.81 C 108.38 160.82 113.12 157.80 116.92 155.87 C 120.72 153.94 132.22 151.55 133.00 146.00
C 114.77 151.36 97.06 154.22 78.00 158.00
C 75.14 168.19 71.40 179.96 66.81 189.25 C 62.22 198.55 61.13 215.51 45.75 218.80 C 30.38 222.09 25.66 202.63 31.13 193.08 C 36.60 183.53 38.44 170.44 43.91 161.90 C 49.37 153.36 48.48 136.95 59.30 130.30 C 70.13 123.66 80.97 126.99 92.25 122.24 C 103.52 117.49 114.33 120.84 125.75 115.74
C 116.15 113.60 106.85 114.56 97.00 115.00
C 103.93 101.52 119.51 101.84 131.75 105.39 C 143.99 108.95 155.67 108.37 167.08 112.06 C 178.50 115.75 185.45 131.19 181.20 143.25 C 176.95 155.30 179.29 167.82 184.00 180.00
C 197.57 174.95 209.75 169.44 224.00 164.00
C 219.71 173.20 216.63 180.67 213.61 189.75 C 210.58 198.84 206.25 208.02 196.70 209.71 C 187.14 211.41 179.35 219.81 167.00 215.00
C 165.78 224.28 165.01 231.51 162.61 240.75 C 160.21 249.99 162.26 257.87 166.12 265.90 C 169.97 273.93 172.59 283.60 162.75 287.19 C 152.91 290.79 149.49 299.94 139.00 306.00
C 133.85 287.71 126.04 270.27 122.00 252.00
C 117.57 249.83 115.11 250.40 111.00 249.00
C 112.46 263.68 111.75 282.67 113.35 296.70 C 114.95 310.72 117.40 332.65 103.70 337.71 C 89.99 342.78 80.98 339.51 67.92 342.93 C 54.85 346.36 45.41 344.49 32.75 347.80 C 20.10 351.11 3.59 349.89 0.00 334.00
L 0.00 512.00
L 512.00 512.00
L 512.00 186.00
C 506.65 200.18 501.60 209.80 494.29 222.30 C 486.98 234.80 478.83 247.47 466.23 261.23 C 453.63 274.99 440.24 284.76 428.08 292.13 C 415.93 299.50 404.93 303.41 390.75 307.20 C 376.57 310.99 356.32 315.35 337.92 312.93 C 319.52 310.51 307.27 309.00 288.31 307.69 C 269.34 306.39 250.36 310.00 234.30 312.64 C 218.24 315.29 206.62 322.48 194.25 327.39 C 181.88 332.31 170.68 356.44 154.75 353.20 C 138.83 349.96 139.00 328.58 152.75 317.75 C 166.51 306.92 176.46 297.21 189.25 292.81 C 202.05 288.41 213.48 280.77 228.75 278.74 C 244.02 276.71 259.67 273.45 278.22 273.22 C 296.77 273.00 315.30 276.62 332.03 277.98 C 348.76 279.33 368.97 279.90 382.75 275.60 C 396.53 271.31 409.81 265.10 421.77 255.43 C 433.73 245.75 451.62 229.09 458.26 216.25 C 464.91 203.40 474.33 195.73 477.58 181.23 C 480.82 166.73 503.48 156.97 512.00 178.00
L 512.00 0.00
L 0.00 0.00
L 0.00 328.00
M 156.00 26.00 
C 180.75 23.45 201.00 54.93 188.81 77.25 C 176.62 99.58 140.74 104.05 127.81 79.75 C 114.89 55.45 128.54 28.83 156.00 26.00
M 342.00 52.00 
C 362.46 47.83 383.35 63.50 386.39 82.75 C 389.44 102.01 377.67 123.12 356.75 125.80 C 335.83 128.48 318.51 118.91 313.09 98.90 C 307.68 78.89 324.13 55.64 342.00 52.00
M 379.00 216.00 
C 390.88 211.67 403.84 203.75 415.30 200.29 C 426.76 196.84 440.99 185.32 452.19 198.25 C 463.40 211.18 449.40 226.26 436.75 228.19 C 424.09 230.12 412.59 241.06 400.23 243.58 C 387.87 246.09 377.05 258.18 360.00 253.00
C 362.16 256.23 357.85 258.70 360.00 262.00
C 324.98 263.29 297.54 253.35 260.00 258.00
C 266.03 239.66 273.36 222.23 279.00 203.00
C 294.76 196.76 309.77 189.31 325.00 180.00
C 303.84 184.48 285.71 187.57 265.00 193.00
C 263.76 206.21 252.22 220.45 250.43 231.77 C 248.63 243.09 235.29 266.56 218.78 254.22 C 202.26 241.89 218.21 227.62 221.26 214.25 C 224.31 200.87 233.27 188.96 236.64 175.30 C 240.01 161.64 258.39 158.75 271.75 156.40 C 285.12 154.04 300.80 151.43 313.00 146.00
C 303.33 146.18 295.16 144.55 286.00 146.00
C 293.16 130.11 310.77 133.65 323.75 136.59 C 336.73 139.53 349.29 139.66 361.77 144.58 C 374.25 149.49 379.68 164.36 374.88 177.90 C 370.09 191.44 374.16 204.46 379.00 216.00
M 303.00 325.00 
C 303.00 342.82 309.89 379.81 291.08 384.13 C 272.28 388.45 256.75 390.06 238.75 391.20 C 220.75 392.33 200.33 405.64 186.41 389.25 C 172.49 372.86 192.56 352.99 210.75 354.61 C 228.94 356.22 244.90 346.40 263.00 348.00
C 262.25 340.08 262.50 333.11 261.00 325.00
C 275.39 324.43 289.40 325.72 303.00 325.00
M 367.00 329.00 
C 370.00 342.33 377.82 358.28 378.31 374.70 C 378.80 391.12 383.64 406.12 383.93 423.08 C 384.23 440.04 392.43 454.40 387.81 472.25 C 383.19 490.11 351.63 487.90 349.60 470.25 C 347.57 452.61 344.35 439.38 342.69 422.30 C 341.03 405.23 339.23 390.91 337.07 373.92 C 334.91 356.92 328.24 345.46 323.00 328.00
C 336.12 329.68 352.31 332.42 367.00 329.00
M 167.00 367.00 
C 160.96 388.28 175.16 408.19 194.00 412.00
C 195.46 425.78 181.41 435.63 168.77 431.23 C 156.13 426.83 155.50 414.46 154.20 402.75 C 152.90 391.05 151.73 379.99 150.00 368.00
C 156.46 370.36 161.14 368.97 167.00 367.00 Z"/>
</g>
<g fill="#000000" fill-opacity="0.98" stroke="None">
<path d="
M 156.00 26.00 
C 128.54 28.83 114.89 55.45 127.81 79.75 C 140.74 104.05 176.62 99.58 188.81 77.25 C 201.00 54.93 180.75 23.45 156.00 26.00 Z"/>
</g>
<g fill="#000000" fill-opacity="0.98" stroke="None">
<path d="
M 342.00 52.00 
C 324.13 55.64 307.68 78.89 313.09 98.90 C 318.51 118.91 335.83 128.48 356.75 125.80 C 377.67 123.12 389.44 102.01 386.39 82.75 C 383.35 63.50 362.46 47.83 342.00 52.00 Z"/>
</g>
<g fill="#000000" fill-opacity="0.99" stroke="None">
<path d="
M 0.00 328.00 
L 0.00 334.00
C 3.59 349.89 20.10 351.11 32.75 347.80 C 45.41 344.49 54.85 346.36 67.92 342.93 C 80.98 339.51 89.99 342.78 103.70 337.71 C 117.40 332.65 114.95 310.72 113.35 296.70 C 111.75 282.67 112.46 263.68 111.00 249.00
C 115.11 250.40 117.57 249.83 122.00 252.00
C 126.04 270.27 133.85 287.71 139.00 306.00
C 149.49 299.94 152.91 290.79 162.75 287.19 C 172.59 283.60 169.97 273.93 166.12 265.90 C 162.26 257.87 160.21 249.99 162.61 240.75 C 165.01 231.51 165.78 224.28 167.00 215.00
C 179.35 219.81 187.14 211.41 196.70 209.71 C 206.25 208.02 210.58 198.84 213.61 189.75 C 216.63 180.67 219.71 173.20 224.00 164.00
C 209.75 169.44 197.57 174.95 184.00 180.00
C 179.29 167.82 176.95 155.30 181.20 143.25 C 185.45 131.19 178.50 115.75 167.08 112.06 C 155.67 108.37 143.99 108.95 131.75 105.39 C 119.51 101.84 103.93 101.52 97.00 115.00
C 106.85 114.56 116.15 113.60 126.00 115.00
C 114.33 120.84 103.52 117.49 92.25 122.24 C 80.97 126.99 70.13 123.66 59.30 130.30 C 48.48 136.95 49.37 153.36 43.91 161.90 C 38.44 170.44 36.60 183.53 31.13 193.08 C 25.66 202.63 30.38 222.09 45.75 218.80 C 61.13 215.51 62.22 198.55 66.81 189.25 C 71.40 179.96 75.14 168.19 78.00 158.00
C 97.06 154.22 114.77 151.36 133.00 146.00
C 132.22 151.55 120.72 153.94 116.92 155.87 C 113.12 157.80 108.38 160.82 104.25 162.81 C 100.13 164.80 95.54 167.14 91.00 168.00
C 82.44 186.98 78.73 203.00 75.26 226.25 C 71.79 249.49 73.74 278.43 76.00 304.00
C 61.53 304.10 49.05 308.01 35.25 309.80 C 21.45 311.59 2.92 309.97 0.00 328.00 Z"/>
</g>
<g fill="#000000" fill-opacity="0.98" stroke="None">
<path d="
M 379.00 216.00 
C 374.16 204.46 370.09 191.44 374.88 177.90 C 379.68 164.36 374.25 149.49 361.77 144.58 C 349.29 139.66 336.73 139.53 323.75 136.59 C 310.77 133.65 293.16 130.11 286.00 146.00
C 295.16 144.55 303.33 146.18 313.00 146.00
C 300.80 151.43 285.12 154.04 271.75 156.40 C 258.39 158.75 240.01 161.64 236.64 175.30 C 233.27 188.96 224.31 200.87 221.26 214.25 C 218.21 227.62 202.26 241.89 218.78 254.22 C 235.29 266.56 248.63 243.09 250.43 231.77 C 252.22 220.45 263.76 206.21 265.00 193.00
C 285.71 187.57 303.84 184.48 325.00 180.00
C 309.77 189.31 294.76 196.76 279.00 203.00
C 273.36 222.23 266.03 239.66 260.00 258.00
C 297.54 253.35 324.98 263.29 360.00 262.00
C 357.85 258.70 362.16 256.23 360.00 253.00
C 377.05 258.18 387.87 246.09 400.23 243.58 C 412.59 241.06 424.09 230.12 436.75 228.19 C 449.40 226.26 463.40 211.18 452.19 198.25 C 440.99 185.32 426.76 196.84 415.30 200.29 C 403.84 203.75 390.88 211.67 379.00 216.00 Z"/>
</g>
<g fill="#000000" fill-opacity="0.98" stroke="None">
<path d="
M 512.00 186.00 
L 512.00 178.00
C 503.48 156.97 480.82 166.73 477.58 181.23 C 474.33 195.73 464.91 203.40 458.26 216.25 C 451.62 229.09 433.73 245.75 421.77 255.43 C 409.81 265.10 396.53 271.31 382.75 275.60 C 368.97 279.90 348.76 279.33 332.03 277.98 C 315.30 276.62 296.77 273.00 278.22 273.22 C 259.67 273.45 244.02 276.71 228.75 278.74 C 213.48 280.77 202.05 288.41 189.25 292.81 C 176.46 297.21 166.51 306.92 152.75 317.75 C 139.00 328.58 138.83 349.96 154.75 353.20 C 170.68 356.44 181.88 332.31 194.25 327.39 C 206.62 322.48 218.24 315.29 234.30 312.64 C 250.36 310.00 269.34 306.39 288.31 307.69 C 307.27 309.00 319.52 310.51 337.92 312.93 C 356.32 315.35 376.57 310.99 390.75 307.20 C 404.93 303.41 415.93 299.50 428.08 292.13 C 440.24 284.76 453.63 274.99 466.23 261.23 C 478.83 247.47 486.98 234.80 494.29 222.30 C 501.60 209.80 506.65 200.18 512.00 186.00 Z"/>
</g>
<g fill="#000000" fill-opacity="0.98" stroke="None">
<path d="
M 303.00 325.00 
C 289.40 325.72 275.39 324.43 261.00 325.00
C 262.50 333.11 262.25 340.08 263.00 348.00
C 244.90 346.40 228.94 356.22 210.75 354.61 C 192.56 352.99 172.49 372.86 186.41 389.25 C 200.33 405.64 220.75 392.33 238.75 391.20 C 256.75 390.06 272.28 388.45 291.08 384.13 C 309.89 379.81 303.00 342.82 303.00 325.00 Z"/>
</g>
<g fill="#000000" fill-opacity="0.98" stroke="None">
<path d="
M 367.00 329.00 
C 352.31 332.42 336.12 329.68 323.00 328.00
C 328.24 345.46 334.91 356.92 337.07 373.92 C 339.23 390.91 341.03 405.23 342.69 422.30 C 344.35 439.38 347.57 452.61 349.60 470.25 C 351.63 487.90 383.19 490.11 387.81 472.25 C 392.43 454.40 384.23 440.04 383.93 423.08 C 383.64 406.12 378.80 391.12 378.31 374.70 C 377.82 358.28 370.00 342.33 367.00 329.00 Z"/>
</g>
<g fill="#000000" fill-opacity="0.96" stroke="None">
<path d="
M 167.00 367.00 
C 161.14 368.97 156.46 370.36 150.00 368.00
C 151.73 379.99 152.90 391.05 154.20 402.75 C 155.50 414.46 156.13 426.83 168.77 431.23 C 181.41 435.63 195.46 425.78 194.00 412.00
C 175.16 408.19 160.96 388.28 167.00 367.00 Z"/>
</g>
</svg>