<svg xmlns="http://www.w3.org/2000/svg" xmlns:v="https://svgstorm.com"
viewBox = "0 0 512 512"
width="512"
height="512">
<g fill="None" fill-opacity="0.0" stroke="#000000" stroke-opacity="0.01" stroke-width="0.3"><path d="
M 0.00 512.00 
L 23.00 512.00
C 6.93 504.09 16.41 484.29 14.00 463.00 C 11.59 441.71 17.11 414.32 14.00 392.00 C 10.89 369.68 26.48 368.45 48.00 371.00
C 36.12 362.14 39.75 340.86 39.00 325.00 C 38.25 309.14 36.07 299.00 35.40 285.25 C 34.72 271.49 33.31 259.61 32.66 246.32 C 32.02 233.03 28.48 217.25 31.21 203.77 C 33.94 190.29 36.41 181.24 43.70 171.70 C 50.98 162.16 47.31 145.71 60.00 140.00
C 53.47 134.06 55.24 124.49 52.60 115.25 C 49.96 106.01 47.05 96.57 48.26 85.26 C 49.46 73.95 51.31 70.12 59.25 61.25 C 67.19 52.38 73.07 54.73 82.25 51.20 C 91.43 47.67 96.34 39.44 105.25 38.81 C 114.16 38.17 125.67 34.56 133.75 39.39 C 141.83 44.23 149.49 51.80 149.93 62.08 C 150.38 72.37 144.92 82.96 136.00 87.00
C 136.59 101.93 137.09 123.87 132.29 133.30 C 127.50 142.73 120.05 153.49 108.00 156.00
C 118.14 157.39 121.22 165.54 121.80 174.25 C 122.38 182.96 127.54 188.26 128.60 197.75 C 129.66 207.24 131.77 211.77 132.39 222.75 C 133.02 233.73 132.33 250.59 131.00 261.00
C 143.92 260.35 157.53 262.31 170.00 260.00
C 168.27 248.85 171.10 237.45 171.31 226.31 C 171.51 215.16 172.57 203.78 172.79 192.77 C 173.00 181.76 175.34 172.23 184.77 167.43 C 194.20 162.63 203.70 164.45 213.23 160.21 C 222.76 155.98 233.91 156.65 234.00 143.00
C 222.31 137.26 213.41 125.50 213.00 113.00
C 203.17 111.68 197.02 108.11 193.24 97.75 C 189.46 87.39 201.39 79.83 200.00 68.00 C 198.61 56.17 200.93 47.93 205.57 39.23 C 210.21 30.53 217.22 26.56 224.25 21.81 C 231.29 17.06 244.55 17.38 256.00 17.00 C 267.45 16.62 271.25 25.78 281.75 24.41 C 292.25 23.04 301.99 27.92 307.57 34.77 C 313.15 41.62 315.58 53.40 314.00 66.00 C 312.42 78.60 318.58 86.95 317.93 97.08 C 317.29 107.22 306.15 112.11 298.00 113.00
C 297.78 121.07 293.87 126.42 290.70 131.70 C 287.53 136.98 272.51 144.71 280.08 151.92 C 287.66 159.12 296.81 158.58 304.25 161.20 C 311.68 163.81 319.45 164.64 326.25 167.76 C 333.05 170.87 337.47 175.33 338.39 182.75 C 339.31 190.17 339.24 200.24 339.80 208.25 C 340.37 216.25 341.10 225.99 341.21 234.23 C 341.33 242.47 343.81 251.65 342.00 260.00
C 354.50 262.31 368.08 260.35 381.00 261.00
C 379.22 243.10 379.03 222.78 381.20 206.75 C 383.37 190.73 392.15 180.86 390.00 164.00
C 395.73 160.83 397.30 157.14 404.00 157.00
C 376.81 145.97 371.32 118.73 376.00 86.00
C 356.62 78.52 359.11 48.33 376.25 40.81 C 393.40 33.29 416.59 36.11 428.00 51.00
C 440.21 49.27 453.82 58.88 459.13 67.92 C 464.44 76.96 465.47 93.67 462.65 105.70 C 459.83 117.72 458.29 130.48 452.00 140.00
C 462.89 146.56 462.76 161.55 469.75 171.25 C 476.74 180.95 476.68 189.21 480.20 202.25 C 483.72 215.29 480.26 232.36 479.35 245.70 C 478.45 259.03 478.08 270.82 476.98 285.03 C 475.88 299.23 473.88 310.48 474.00 327.00 C 474.12 343.52 474.63 361.92 463.00 371.00
C 473.28 372.54 497.38 365.62 498.76 380.25 C 500.14 394.88 496.84 413.25 498.00 429.00 C 499.16 444.75 497.38 464.56 498.00 480.00 C 498.62 495.44 500.62 506.61 490.00 512.00
L 512.00 512.00
L 512.00 0.00
L 339.00 0.00
C 341.25 8.10 348.24 16.27 357.00 17.00
C 349.29 21.05 341.06 29.30 337.00 37.00
C 336.83 27.63 328.23 21.35 320.00 19.00
C 325.73 14.78 337.07 9.97 337.00 0.00
L 0.00 0.00
L 0.00 512.00
M 416.00 14.00 
C 421.36 16.09 418.47 27.04 411.78 24.22 C 405.08 21.39 408.28 10.99 416.00 14.00
M 41.00 32.00 
C 52.27 28.44 52.28 46.56 41.00 43.00
C 44.14 53.95 26.62 54.10 30.00 43.00
C 19.40 46.87 19.39 28.14 30.00 32.00
C 26.11 20.55 44.50 20.70 41.00 32.00
M 344.00 125.00 
C 354.95 121.86 355.10 139.38 344.00 136.00
C 347.57 147.05 329.45 147.07 333.00 136.00
C 321.16 140.35 321.56 121.10 333.00 125.00
C 329.84 114.73 347.13 114.68 344.00 125.00 Z"/>
</g>
<g fill="None" fill-opacity="0.0" stroke="#FFFFFF" stroke-opacity="0.85" stroke-width="0.3"><path d="
M 339.00 0.00 
L 337.00 0.00
C 337.07 9.97 325.73 14.78 320.00 19.00
C 328.23 21.35 336.83 27.63 337.00 37.00
C 341.06 29.30 349.29 21.05 357.00 17.00
C 348.24 16.27 341.25 8.10 339.00 0.00 Z"/>
</g>
<g fill="None" fill-opacity="0.0" stroke="#FFFFFF" stroke-opacity="0.79" stroke-width="0.3"><path d="
M 416.00 14.00 
C 408.28 10.99 405.08 21.39 411.78 24.22 C 418.47 27.04 421.36 16.09 416.00 14.00 Z"/>
</g>
<g fill="None" fill-opacity="0.0" stroke="#000000" stroke-opacity="0.99" stroke-width="0.3"><path d="
M 23.00 512.00 
L 138.00 512.00
C 157.91 505.15 148.60 478.19 150.00 456.00 C 151.40 433.81 149.78 403.45 149.00 381.00
C 160.90 388.29 155.74 412.29 156.00 429.00 C 156.26 445.71 157.43 467.39 155.80 481.25 C 154.17 495.10 153.26 506.09 167.00 512.00
L 344.00 512.00
C 345.19 510.84 347.42 509.84 349.00 511.00
C 359.72 501.03 357.56 491.91 356.80 478.75 C 356.04 465.60 356.07 443.69 357.00 428.00 C 357.93 412.31 351.62 387.73 363.00 381.00
C 362.02 403.13 360.88 432.03 362.00 454.00 C 363.12 475.97 355.74 500.86 371.00 512.00
L 490.00 512.00
C 500.62 506.61 498.62 495.44 498.00 480.00 C 497.38 464.56 499.16 444.75 498.00 429.00 C 496.84 413.25 500.14 394.88 498.76 380.25 C 497.38 365.62 473.28 372.54 463.00 371.00
C 474.63 361.92 474.12 343.52 474.00 327.00 C 473.88 310.48 475.88 299.23 476.98 285.03 C 478.08 270.82 478.45 259.03 479.35 245.70 C 480.26 232.36 483.72 215.29 480.20 202.25 C 476.68 189.21 476.74 180.95 469.75 171.25 C 462.76 161.55 462.89 146.56 452.00 140.00
C 458.29 130.48 459.83 117.72 462.65 105.70 C 465.47 93.67 464.44 76.96 459.13 67.92 C 453.82 58.88 440.21 49.27 428.00 51.00
C 416.59 36.11 393.40 33.29 376.25 40.81 C 359.11 48.33 356.62 78.52 376.00 86.00
C 371.32 118.73 376.81 145.97 404.00 157.00
C 397.30 157.14 395.73 160.83 390.00 164.00
C 392.15 180.86 383.37 190.73 381.20 206.75 C 379.03 222.78 379.22 243.10 381.00 261.00
C 368.08 260.35 354.50 262.31 342.00 260.00
C 343.81 251.65 341.33 242.47 341.21 234.23 C 341.10 225.99 340.37 216.25 339.80 208.25 C 339.24 200.24 339.31 190.17 338.39 182.75 C 337.47 175.33 333.05 170.87 326.25 167.76 C 319.45 164.64 311.68 163.81 304.25 161.20 C 296.81 158.58 287.66 159.12 280.08 151.92 C 272.51 144.71 287.53 136.98 290.70 131.70 C 293.87 126.42 297.78 121.07 298.00 113.00
C 306.15 112.11 317.29 107.22 317.93 97.08 C 318.58 86.95 312.42 78.60 314.00 66.00 C 315.58 53.40 313.15 41.62 307.57 34.77 C 301.99 27.92 292.25 23.04 281.75 24.41 C 271.25 25.78 267.45 16.62 256.00 17.00 C 244.55 17.38 231.29 17.06 224.25 21.81 C 217.22 26.56 210.21 30.53 205.57 39.23 C 200.93 47.93 198.61 56.17 200.00 68.00 C 201.39 79.83 189.46 87.39 193.24 97.75 C 197.02 108.11 203.17 111.68 213.00 113.00
C 213.41 125.50 222.31 137.26 234.00 143.00
C 233.91 156.65 222.76 155.98 213.23 160.21 C 203.70 164.45 194.20 162.63 184.77 167.43 C 175.34 172.23 173.00 181.76 172.79 192.77 C 172.57 203.78 171.51 215.16 171.31 226.31 C 171.10 237.45 168.27 248.85 170.00 260.00
C 157.53 262.31 143.92 260.35 131.00 261.00
C 132.33 250.59 133.02 233.73 132.39 222.75 C 131.77 211.77 129.66 207.24 128.60 197.75 C 127.54 188.26 122.38 182.96 121.80 174.25 C 121.22 165.54 118.14 157.39 108.00 156.00
C 120.05 153.49 127.50 142.73 132.29 133.30 C 137.09 123.87 136.59 101.93 136.00 87.00
C 144.92 82.96 150.38 72.37 149.93 62.08 C 149.49 51.80 141.83 44.23 133.75 39.39 C 125.67 34.56 114.16 38.17 105.25 38.81 C 96.34 39.44 91.43 47.67 82.25 51.20 C 73.07 54.73 67.19 52.38 59.25 61.25 C 51.31 70.12 49.46 73.95 48.26 85.26 C 47.05 96.57 49.96 106.01 52.60 115.25 C 55.24 124.49 53.47 134.06 60.00 140.00
C 47.31 145.71 50.98 162.16 43.70 171.70 C 36.41 181.24 33.94 190.29 31.21 203.77 C 28.48 217.25 32.02 233.03 32.66 246.32 C 33.31 259.61 34.72 271.49 35.40 285.25 C 36.07 299.00 38.25 309.14 39.00 325.00 C 39.75 340.86 36.12 362.14 48.00 371.00
C 26.48 368.45 10.89 369.68 14.00 392.00 C 17.11 414.32 11.59 441.71 14.00 463.00 C 16.41 484.29 6.93 504.09 23.00 512.00
M 303.00 71.00 
C 299.01 66.25 293.88 61.93 286.00 62.00 C 278.12 62.07 273.82 57.62 267.30 53.70 C 260.78 49.77 256.11 56.83 250.77 60.77 C 245.43 64.71 238.25 68.29 230.99 67.99 C 223.73 67.70 214.96 65.73 209.00 71.00
C 208.79 60.82 209.67 48.94 215.92 40.92 C 222.17 32.90 230.13 28.07 240.01 27.01 C 249.88 25.95 263.39 25.84 269.75 34.25 C 276.11 42.65 289.06 29.15 297.23 38.77 C 305.40 48.39 302.58 58.96 303.00 71.00
M 61.00 111.00 
C 59.90 102.81 57.63 93.64 58.33 85.33 C 59.03 77.02 61.85 71.21 68.23 66.23 C 74.61 61.25 83.76 63.36 89.75 58.75 C 95.74 54.14 100.70 49.62 108.22 48.22 C 115.74 46.82 125.47 46.35 132.08 50.92 C 138.68 55.49 140.17 64.07 137.22 71.22 C 134.27 78.37 125.96 80.52 119.33 82.33 C 112.70 84.13 100.47 82.34 95.30 87.30 C 90.13 92.26 78.32 88.61 77.70 98.70 C 77.07 108.78 73.21 114.13 61.00 111.00
M 450.00 111.00 
C 435.14 116.67 436.75 103.82 432.74 96.26 C 428.74 88.70 418.83 89.19 411.92 85.08 C 405.02 80.97 392.59 83.81 384.93 80.07 C 377.27 76.34 370.71 69.19 373.00 60.00 C 375.29 50.81 384.75 46.71 393.00 47.00 C 401.25 47.30 411.17 48.10 417.25 54.75 C 423.32 61.41 432.10 60.74 440.07 63.93 C 448.05 67.12 451.83 74.86 453.00 83.00 C 454.17 91.14 453.16 102.94 450.00 111.00
M 289.00 73.00 
C 291.11 99.27 291.70 136.54 258.00 139.00 C 224.30 141.45 217.45 105.12 222.00 78.00
C 237.17 79.19 253.32 76.28 263.00 64.00
C 270.68 69.39 279.42 72.91 289.00 73.00
M 211.00 82.00 
C 211.00 89.00 211.00 96.00 211.00 103.00
C 200.81 100.40 199.92 83.54 211.00 82.00
M 299.00 103.00 
C 299.00 96.00 299.00 89.00 299.00 82.00
C 311.17 82.13 310.33 101.83 299.00 103.00
M 127.00 92.00 
C 129.09 111.95 127.19 137.39 107.30 146.30 C 87.42 155.22 66.81 141.79 63.00 122.00
C 67.19 121.25 77.87 123.69 80.69 119.69 C 83.52 115.70 91.04 114.48 88.66 108.32 C 86.28 102.17 89.85 100.26 96.00 101.00 C 102.15 101.74 102.21 91.78 109.00 94.00 C 115.80 96.22 120.54 91.13 127.00 92.00
M 449.00 122.00 
C 445.11 141.36 425.66 154.92 405.32 146.68 C 384.99 138.44 383.64 111.82 386.00 92.00
C 392.59 90.55 395.91 96.76 403.00 94.00 C 410.09 91.24 409.80 101.57 416.08 100.92 C 422.35 100.28 425.32 101.77 423.08 108.08 C 420.83 114.38 428.52 115.73 431.25 119.75 C 433.97 123.77 444.92 121.15 449.00 122.00
M 269.00 148.00 
C 267.66 155.86 265.44 168.44 256.00 169.00 C 246.56 169.56 243.90 155.95 243.00 148.00
C 251.70 150.06 260.15 149.39 269.00 148.00
M 112.00 168.00 
C 107.97 172.05 103.72 182.19 96.98 179.02 C 90.24 175.86 84.58 173.10 77.92 170.08 C 71.27 167.05 64.55 164.38 58.00 161.00
C 59.32 157.30 61.25 153.89 62.00 150.00
C 79.08 154.44 95.03 162.89 112.00 168.00
M 450.00 150.00 
C 451.16 153.28 451.48 157.53 454.00 160.00
C 448.60 164.81 442.38 166.38 435.77 169.77 C 429.16 173.16 422.58 175.01 415.77 178.77 C 408.96 182.53 404.11 172.34 400.00 168.00
C 416.91 162.97 432.91 154.64 450.00 150.00
M 236.00 162.00 
C 240.95 168.91 239.87 176.52 232.00 181.00
C 230.76 175.75 228.08 170.99 226.00 166.00
C 229.63 165.57 232.35 162.42 236.00 162.00
M 286.00 166.00 
C 283.91 171.00 281.25 175.72 280.00 181.00
C 272.66 176.62 270.00 168.62 276.00 162.00
C 279.63 162.43 282.35 165.58 286.00 166.00
M 333.00 260.00 
C 325.57 260.00 318.09 259.65 311.00 261.00
C 309.36 253.19 313.18 244.74 311.00 237.00 C 308.82 229.26 315.63 220.15 309.74 213.26 C 303.85 206.37 299.08 218.02 301.00 225.00 C 302.92 231.98 300.38 241.69 301.00 249.00 C 301.62 256.31 301.97 265.78 299.23 272.23 C 296.48 278.68 296.20 285.87 300.00 292.00
C 270.67 292.00 241.33 292.00 212.00 292.00
C 215.27 286.10 216.06 279.22 213.07 272.93 C 210.09 266.63 210.44 257.23 211.00 250.00 C 211.56 242.77 209.54 231.75 211.00 225.00 C 212.46 218.25 208.87 206.83 202.75 212.75 C 196.64 218.68 202.85 228.49 201.00 236.00 C 199.15 243.51 202.39 253.28 201.00 261.00
C 193.94 259.64 186.40 260.01 179.00 260.00
C 179.09 250.80 179.90 239.50 180.78 230.78 C 181.66 222.06 180.91 208.78 182.00 201.00 C 183.09 193.22 180.77 178.73 189.25 176.25 C 197.72 173.76 205.83 170.49 214.07 170.07 C 222.32 169.65 219.54 183.98 225.31 189.69 C 231.07 195.41 240.35 189.18 243.75 182.75 C 247.15 176.32 263.44 175.94 267.75 182.25 C 272.06 188.56 279.15 195.38 285.90 189.90 C 292.65 184.42 288.81 170.81 297.03 170.03 C 305.25 169.25 312.91 174.23 321.68 176.32 C 330.45 178.41 329.12 192.24 329.78 200.22 C 330.44 208.20 330.26 221.09 331.00 230.00 C 331.74 238.91 332.49 250.74 333.00 260.00
M 114.00 183.00 
C 120.03 202.44 124.35 224.38 121.00 245.00
C 112.68 225.35 106.34 215.74 96.23 195.77 C 86.12 175.80 50.76 192.53 58.33 212.67 C 65.90 232.81 75.23 243.92 82.92 262.08 C 90.62 280.23 99.30 296.57 119.00 301.00
C 119.00 307.00 119.00 313.00 119.00 319.00
C 95.33 319.00 71.67 319.00 48.00 319.00
C 49.48 270.27 24.95 214.15 55.00 171.00
C 73.93 175.95 96.89 201.13 114.00 183.00
M 457.00 171.00 
C 486.08 214.64 462.61 269.95 464.00 319.00
C 440.33 319.00 416.67 319.00 393.00 319.00
C 393.00 313.00 393.00 307.00 393.00 301.00
C 412.82 296.88 420.30 280.19 428.77 262.77 C 437.24 245.35 444.54 232.46 453.31 213.31 C 462.07 194.15 427.29 175.11 416.25 194.25 C 405.20 213.39 400.83 225.34 391.00 244.00
C 385.82 223.92 392.52 201.48 398.00 182.00
C 414.38 202.22 438.02 175.18 457.00 171.00
M 170.00 270.00 
C 170.00 277.67 170.00 285.33 170.00 293.00
C 157.84 292.70 140.65 293.39 129.00 293.00 C 117.35 292.61 108.19 286.51 102.70 277.30 C 97.21 268.10 93.52 258.69 88.23 249.77 C 82.93 240.85 80.57 230.55 74.69 222.31 C 68.82 214.06 64.51 198.88 77.67 196.67 C 90.84 194.46 90.62 210.66 96.92 218.08 C 103.22 225.50 104.43 237.72 110.77 245.23 C 117.11 252.74 115.90 268.82 128.00 270.00 C 140.11 271.17 157.42 269.12 170.00 270.00
M 342.00 293.00 
C 342.00 285.33 342.00 277.67 342.00 270.00
C 354.80 269.77 370.49 270.31 383.00 270.00 C 395.51 269.69 394.55 253.48 400.92 245.92 C 407.30 238.37 409.59 225.94 415.31 218.31 C 421.02 210.67 421.16 194.99 434.01 196.01 C 446.85 197.02 444.42 214.26 438.08 222.08 C 431.73 229.89 428.93 240.82 423.70 249.69 C 418.46 258.57 415.44 267.60 409.75 276.75 C 404.05 285.90 396.00 292.63 383.93 292.93 C 371.85 293.22 354.55 292.86 342.00 293.00
M 180.00 292.00 
C 180.00 285.00 180.00 278.00 180.00 271.00
C 189.38 271.44 203.48 267.71 204.00 281.00 C 204.51 294.29 189.64 292.39 180.00 292.00
M 332.00 271.00 
C 332.00 278.00 332.00 285.00 332.00 292.00
C 322.77 291.70 308.33 295.11 308.00 282.00 C 307.68 268.89 322.34 270.59 332.00 271.00
M 150.00 302.00 
C 144.89 312.32 148.70 319.58 157.00 327.00
C 146.15 323.73 137.94 322.24 128.00 320.00
C 126.86 313.71 129.48 307.28 129.00 302.00
C 136.00 302.00 143.00 302.00 150.00 302.00
M 384.00 303.00 
C 382.88 308.14 384.69 314.20 384.00 320.00
C 374.09 322.05 367.08 323.90 357.00 326.00
C 364.60 319.27 367.98 311.82 363.00 302.00
C 369.93 302.59 377.50 300.77 384.00 303.00
M 351.00 303.00 
C 358.93 306.22 354.16 320.40 344.99 318.99 C 335.82 317.59 324.72 319.65 315.00 319.00 C 305.28 318.35 293.94 319.36 284.00 319.00 C 274.06 318.64 264.01 319.30 254.00 319.00 C 243.99 318.70 232.97 319.44 223.00 319.00 C 213.03 318.56 202.77 319.90 193.00 319.00 C 183.23 318.10 172.03 321.34 162.98 318.02 C 153.92 314.71 158.43 301.18 168.00 303.00 C 177.57 304.82 188.11 302.15 198.00 303.00 C 207.89 303.85 219.00 302.49 229.00 303.00 C 239.00 303.51 249.01 302.50 259.00 303.00 C 268.99 303.50 280.13 302.20 290.00 303.00 C 299.87 303.80 310.48 301.31 320.00 303.00 C 329.52 304.69 342.22 299.43 351.00 303.00
M 200.00 455.00 
C 188.67 455.00 177.33 455.00 166.00 455.00
C 167.07 434.02 164.58 416.31 166.00 395.00 C 167.42 373.69 150.56 367.13 131.00 369.00 C 111.44 370.87 89.97 368.09 70.00 369.00 C 50.03 369.91 46.43 344.39 49.00 329.00
C 70.36 330.69 97.19 326.74 118.00 329.00 C 138.81 331.26 155.16 335.65 174.68 341.32 C 194.19 346.99 200.99 365.03 200.00 385.00 C 199.01 404.97 200.74 434.19 200.00 455.00
M 192.00 329.00 
C 192.00 332.00 192.00 335.00 192.00 338.00
C 184.88 335.03 180.98 331.43 172.00 330.00
C 177.75 327.72 185.49 329.63 192.00 329.00
M 238.00 329.00 
C 241.06 339.38 231.02 336.97 224.00 337.00 C 216.98 337.03 209.10 336.98 202.00 337.00
C 198.94 326.62 208.98 329.03 216.00 329.00 C 223.02 328.97 230.90 329.02 238.00 329.00
M 265.00 329.00 
C 265.00 371.00 265.00 413.00 265.00 455.00
C 259.33 455.00 253.67 455.00 248.00 455.00
C 248.00 413.00 248.00 371.00 248.00 329.00
C 253.67 329.00 259.33 329.00 265.00 329.00
M 311.00 329.00 
C 314.06 339.38 304.02 336.97 297.00 337.00 C 289.98 337.03 282.10 336.98 275.00 337.00
C 271.94 326.62 281.98 329.03 289.00 329.00 C 296.02 328.97 303.90 329.02 311.00 329.00
M 341.00 329.00 
C 332.79 332.24 327.70 333.26 321.00 338.00
C 321.00 335.00 321.00 332.00 321.00 329.00
C 327.67 329.00 334.33 329.00 341.00 329.00
M 463.00 330.00 
C 465.01 344.38 462.16 369.68 442.93 369.93 C 423.69 370.17 401.00 371.23 382.00 370.00 C 363.00 368.77 344.71 372.10 346.00 394.00 C 347.29 415.90 345.03 433.49 346.00 455.00
C 334.33 455.00 322.67 455.00 311.00 455.00
C 315.83 419.87 295.44 359.10 336.08 342.08 C 376.71 325.05 418.77 331.57 463.00 330.00
M 238.00 347.00 
C 238.00 383.00 238.00 419.00 238.00 455.00
C 229.00 455.00 220.00 455.00 211.00 455.00
C 207.52 419.19 219.38 378.74 202.00 347.00
C 214.00 347.00 226.00 347.00 238.00 347.00
M 310.00 347.00 
C 292.59 378.69 304.50 419.22 301.00 455.00
C 292.33 455.00 283.67 455.00 275.00 455.00
C 275.00 419.00 275.00 383.00 275.00 347.00
C 286.67 347.00 298.33 347.00 310.00 347.00
M 138.00 380.00 
C 143.64 382.91 138.88 396.84 140.00 403.00 C 141.12 409.16 139.72 420.89 140.00 428.00 C 140.28 435.11 140.38 445.75 140.00 453.00 C 139.62 460.25 141.29 471.34 140.00 478.00 C 138.71 484.66 143.90 497.13 138.25 501.25 C 132.59 505.37 121.41 500.62 114.00 502.00 C 106.59 503.38 96.01 501.20 88.00 502.00 C 79.99 502.80 71.34 501.27 63.00 502.00 C 54.66 502.73 46.67 500.87 38.00 502.00 C 29.33 503.13 21.52 501.83 23.00 492.00 C 24.48 482.17 22.46 476.14 23.00 467.00 C 23.54 457.86 23.03 450.98 23.00 442.00 C 22.97 433.02 23.57 425.14 23.00 416.00 C 22.43 406.86 24.57 400.76 23.00 391.00 C 21.43 381.24 27.98 378.60 37.00 380.00 C 46.02 381.40 53.47 379.10 62.00 380.00 C 70.53 380.90 78.82 379.01 87.00 380.00 C 95.18 380.99 104.28 378.25 112.00 380.00 C 119.72 381.75 131.19 376.48 138.00 380.00
M 487.00 380.00 
C 492.64 382.91 487.88 396.84 489.00 403.00 C 490.12 409.16 488.72 420.89 489.00 428.00 C 489.28 435.11 489.38 445.75 489.00 453.00 C 488.62 460.25 490.29 471.34 489.00 478.00 C 487.71 484.66 492.90 497.13 487.25 501.25 C 481.59 505.36 470.41 500.62 463.00 502.00 C 455.59 503.38 445.01 501.20 437.00 502.00 C 428.99 502.80 420.34 501.27 412.00 502.00 C 403.66 502.73 395.67 500.87 387.00 502.00 C 378.33 503.13 370.52 501.83 372.00 492.00 C 373.48 482.17 371.46 476.14 372.00 467.00 C 372.54 457.86 372.03 450.98 372.00 442.00 C 371.97 433.02 372.57 425.14 372.00 416.00 C 371.43 406.86 373.57 400.76 372.00 391.00 C 370.43 381.24 376.98 378.60 386.00 380.00 C 395.02 381.41 402.47 379.10 411.00 380.00 C 419.53 380.90 427.82 379.01 436.00 380.00 C 444.18 380.99 453.28 378.25 461.00 380.00 C 468.72 381.75 480.19 376.48 487.00 380.00
M 188.00 466.00 
C 180.75 468.69 173.58 469.61 166.00 467.00
C 170.27 463.13 182.13 464.91 188.00 466.00
M 219.00 465.00 
C 218.60 467.30 218.54 470.37 217.00 472.00
C 213.53 469.46 210.91 468.12 206.00 466.00
C 209.42 463.79 214.82 465.58 219.00 465.00
M 306.00 466.00 
C 301.01 467.59 299.55 470.09 295.00 471.00
C 294.41 468.71 294.59 467.38 294.00 465.00
C 297.83 465.63 302.99 463.72 306.00 466.00
M 346.00 466.00 
C 339.54 470.53 330.95 468.82 324.00 466.00
C 330.26 464.36 339.81 464.31 346.00 466.00
M 285.00 477.00 
C 270.49 475.24 256.93 486.26 261.00 502.00
C 257.67 502.00 254.33 502.00 251.00 502.00
C 252.29 492.81 250.44 489.67 245.75 482.25 C 241.07 474.83 230.94 483.88 228.03 474.97 C 225.12 466.05 237.48 464.92 245.00 466.00 C 252.52 467.08 262.09 465.90 270.00 466.00 C 277.91 466.10 288.75 464.83 285.00 477.00
M 240.00 502.00 
C 228.47 501.79 217.59 502.28 206.00 502.00 C 194.41 501.72 183.82 502.53 172.00 502.00 C 160.18 501.47 165.16 484.58 166.00 477.00
C 175.54 482.49 185.35 477.76 194.68 474.68 C 204.00 471.59 210.38 481.18 219.23 484.77 C 228.08 488.37 245.67 486.14 240.00 502.00
M 346.00 477.00 
C 348.46 485.77 349.01 503.13 337.00 502.00 C 324.99 500.86 311.55 503.38 301.00 502.00 C 290.45 500.62 272.11 507.15 271.00 496.00 C 269.90 484.84 287.60 488.28 294.25 483.25 C 300.89 478.22 310.10 472.05 318.22 474.78 C 326.35 477.51 337.42 482.13 346.00 477.00 Z"/>
</g>
<g fill="None" fill-opacity="0.0" stroke="#FFFFFF" stroke-opacity="0.88" stroke-width="0.3"><path d="
M 41.00 32.00 
C 44.50 20.70 26.11 20.55 30.00 32.00
C 19.39 28.14 19.40 46.87 30.00 43.00
C 26.62 54.10 44.14 53.95 41.00 43.00
C 52.28 46.56 52.27 28.44 41.00 32.00 Z"/>
</g>
<g fill="None" fill-opacity="0.0" stroke="#FFFFFF" stroke-opacity="1.00" stroke-width="0.3"><path d="
M 303.00 71.00 
C 302.58 58.96 305.40 48.39 297.23 38.77 C 289.06 29.15 276.11 42.65 269.75 34.25 C 263.39 25.84 249.88 25.95 240.01 27.01 C 230.13 28.07 222.17 32.90 215.92 40.92 C 209.67 48.94 208.79 60.82 209.00 71.00
C 214.96 65.73 223.73 67.70 230.99 67.99 C 238.25 68.29 245.43 64.71 250.77 60.77 C 256.11 56.83 260.78 49.77 267.30 53.70 C 273.82 57.62 278.12 62.07 286.00 62.00 C 293.88 61.93 299.01 66.25 303.00 71.00 Z"/>
</g>
<g fill="None" fill-opacity="0.0" stroke="#FFFFFF" stroke-opacity="1.00" stroke-width="0.3"><path d="
M 61.00 111.00 
C 73.21 114.13 77.07 108.78 77.70 98.70 C 78.32 88.61 90.13 92.26 95.30 87.30 C 100.47 82.34 112.70 84.13 119.33 82.33 C 125.96 80.52 134.27 78.37 137.22 71.22 C 140.17 64.07 138.68 55.49 132.08 50.92 C 125.47 46.35 115.74 46.82 108.22 48.22 C 100.70 49.62 95.74 54.14 89.75 58.75 C 83.76 63.36 74.61 61.25 68.23 66.23 C 61.85 71.21 59.03 77.02 58.33 85.33 C 57.63 93.64 59.90 102.81 61.00 111.00 Z"/>
</g>
<g fill="None" fill-opacity="0.0" stroke="#FFFFFF" stroke-opacity="1.00" stroke-width="0.3"><path d="
M 450.00 111.00 
C 453.16 102.94 454.17 91.14 453.00 83.00 C 451.83 74.86 448.05 67.12 440.07 63.93 C 432.10 60.74 423.32 61.41 417.25 54.75 C 411.17 48.10 401.25 47.30 393.00 47.00 C 384.75 46.71 375.29 50.81 373.00 60.00 C 370.71 69.19 377.27 76.34 384.93 80.07 C 392.59 83.81 405.02 80.97 411.92 85.08 C 418.83 89.19 428.74 88.70 432.74 96.26 C 436.75 103.82 435.14 116.67 450.00 111.00 Z"/>
</g>
<g fill="None" fill-opacity="0.0" stroke="#FFFFFF" stroke-opacity="1.00" stroke-width="0.3"><path d="
M 289.00 73.00 
C 279.42 72.91 270.68 69.39 263.00 64.00
C 253.32 76.28 237.17 79.19 222.00 78.00
C 217.45 105.12 224.30 141.45 258.00 139.00 C 291.70 136.54 291.11 99.27 289.00 73.00 Z"/>
</g>
<g fill="None" fill-opacity="0.0" stroke="#FFFFFF" stroke-opacity="1.00" stroke-width="0.3"><path d="
M 211.00 82.00 
C 199.92 83.54 200.81 100.40 211.00 103.00
C 211.00 96.00 211.00 89.00 211.00 82.00 Z"/>
</g>
<g fill="None" fill-opacity="0.0" stroke="#FFFFFF" stroke-opacity="1.00" stroke-width="0.3"><path d="
M 299.00 103.00 
C 310.33 101.83 311.17 82.13 299.00 82.00
C 299.00 89.00 299.00 96.00 299.00 103.00 Z"/>
</g>
<g fill="None" fill-opacity="0.0" stroke="#FFFFFF" stroke-opacity="1.00" stroke-width="0.3"><path d="
M 127.00 92.00 
C 120.54 91.13 115.80 96.22 109.00 94.00 C 102.21 91.78 102.15 101.74 96.00 101.00 C 89.85 100.26 86.28 102.17 88.66 108.32 C 91.04 114.48 83.52 115.70 80.69 119.69 C 77.87 123.69 67.19 121.25 63.00 122.00
C 66.81 141.79 87.42 155.22 107.30 146.30 C 127.19 137.39 129.09 111.95 127.00 92.00 Z"/>
</g>
<g fill="None" fill-opacity="0.0" stroke="#FFFFFF" stroke-opacity="1.00" stroke-width="0.3"><path d="
M 449.00 122.00 
C 444.92 121.15 433.97 123.77 431.25 119.75 C 428.52 115.73 420.83 114.38 423.08 108.08 C 425.32 101.77 422.35 100.28 416.08 100.92 C 409.80 101.57 410.09 91.24 403.00 94.00 C 395.91 96.76 392.59 90.55 386.00 92.00
C 383.64 111.82 384.99 138.44 405.32 146.68 C 425.66 154.92 445.11 141.36 449.00 122.00 Z"/>
</g>
<g fill="None" fill-opacity="0.0" stroke="#FFFFFF" stroke-opacity="0.88" stroke-width="0.3"><path d="
M 344.00 125.00 
C 347.13 114.68 329.84 114.73 333.00 125.00
C 321.56 121.10 321.16 140.35 333.00 136.00
C 329.45 147.07 347.57 147.05 344.00 136.00
C 355.10 139.38 354.95 121.86 344.00 125.00 Z"/>
</g>
<g fill="None" fill-opacity="0.0" stroke="#FFFFFF" stroke-opacity="1.00" stroke-width="0.3"><path d="
M 269.00 148.00 
C 260.15 149.39 251.70 150.06 243.00 148.00
C 243.90 155.95 246.56 169.56 256.00 169.00 C 265.44 168.44 267.66 155.86 269.00 148.00 Z"/>
</g>
<g fill="None" fill-opacity="0.0" stroke="#FFFFFF" stroke-opacity="1.00" stroke-width="0.3"><path d="
M 112.00 168.00 
C 95.03 162.89 79.08 154.44 62.00 150.00
C 61.25 153.89 59.32 157.30 58.00 161.00
C 64.55 164.38 71.27 167.05 77.92 170.08 C 84.58 173.10 90.24 175.86 96.98 179.02 C 103.72 182.19 107.97 172.05 112.00 168.00 Z"/>
</g>
<g fill="None" fill-opacity="0.0" stroke="#FFFFFF" stroke-opacity="1.00" stroke-width="0.3"><path d="
M 450.00 150.00 
C 432.91 154.64 416.91 162.97 400.00 168.00
C 404.11 172.34 408.96 182.53 415.77 178.77 C 422.58 175.01 429.16 173.16 435.77 169.77 C 442.38 166.38 448.60 164.81 454.00 160.00
C 451.48 157.53 451.16 153.28 450.00 150.00 Z"/>
</g>
<g fill="None" fill-opacity="0.0" stroke="#FFFFFF" stroke-opacity="1.00" stroke-width="0.3"><path d="
M 236.00 162.00 
C 232.35 162.42 229.63 165.57 226.00 166.00
C 228.08 170.99 230.76 175.75 232.00 181.00
C 239.87 176.52 240.95 168.91 236.00 162.00 Z"/>
</g>
<g fill="None" fill-opacity="0.0" stroke="#FFFFFF" stroke-opacity="1.00" stroke-width="0.3"><path d="
M 286.00 166.00 
C 282.35 165.58 279.63 162.43 276.00 162.00
C 270.00 168.62 272.66 176.62 280.00 181.00
C 281.25 175.72 283.91 171.00 286.00 166.00 Z"/>
</g>
<g fill="None" fill-opacity="0.0" stroke="#FFFFFF" stroke-opacity="1.00" stroke-width="0.3"><path d="
M 333.00 260.00 
C 332.49 250.74 331.74 238.91 331.00 230.00 C 330.26 221.09 330.44 208.20 329.78 200.22 C 329.12 192.24 330.45 178.41 321.68 176.32 C 312.91 174.23 305.25 169.25 297.03 170.03 C 288.81 170.81 292.65 184.42 285.90 189.90 C 279.15 195.38 272.06 188.56 267.75 182.25 C 263.44 175.94 247.15 176.32 243.75 182.75 C 240.35 189.18 231.07 195.41 225.31 189.69 C 219.54 183.98 222.32 169.65 214.07 170.07 C 205.83 170.49 197.72 173.76 189.25 176.25 C 180.77 178.73 183.09 193.22 182.00 201.00 C 180.91 208.78 181.66 222.06 180.78 230.78 C 179.90 239.50 179.09 250.80 179.00 260.00
C 186.40 260.01 193.94 259.64 201.00 261.00
C 202.39 253.28 199.15 243.51 201.00 236.00 C 202.85 228.49 196.64 218.68 202.75 212.75 C 208.87 206.83 212.46 218.25 211.00 225.00 C 209.54 231.75 211.56 242.77 211.00 250.00 C 210.44 257.23 210.09 266.63 213.07 272.93 C 216.06 279.22 215.27 286.10 212.00 292.00
C 241.33 292.00 270.67 292.00 300.00 292.00
C 296.20 285.87 296.48 278.68 299.23 272.23 C 301.97 265.78 301.62 256.31 301.00 249.00 C 300.38 241.69 302.92 231.98 301.00 225.00 C 299.08 218.02 303.85 206.37 309.74 213.26 C 315.63 220.15 308.82 229.26 311.00 237.00 C 313.18 244.74 309.36 253.19 311.00 261.00
C 318.09 259.65 325.57 260.00 333.00 260.00
M 259.00 192.00 
C 264.08 194.48 259.24 204.55 253.78 201.22 C 248.31 197.89 252.66 188.91 259.00 192.00
M 259.00 212.00 
C 263.95 214.42 259.57 224.16 253.92 221.06 C 248.27 217.96 252.37 208.76 259.00 212.00
M 291.00 221.00 
C 295.51 223.33 292.31 231.75 286.97 230.97 C 281.64 230.20 275.22 232.21 269.93 230.07 C 264.63 227.93 267.39 219.12 273.00 221.00 C 278.61 222.89 285.92 218.37 291.00 221.00
M 258.00 231.00 
C 263.56 232.63 260.35 242.88 254.33 240.67 C 248.31 238.45 251.92 229.21 258.00 231.00
M 259.00 251.00 
C 264.17 253.46 259.29 263.19 253.78 260.22 C 248.26 257.24 252.78 248.04 259.00 251.00
M 259.00 271.00 
C 264.08 273.48 259.24 283.55 253.78 280.22 C 248.31 276.89 252.66 267.91 259.00 271.00 Z"/>
</g>
<g fill="None" fill-opacity="0.0" stroke="#FFFFFF" stroke-opacity="1.00" stroke-width="0.3"><path d="
M 114.00 183.00 
C 96.89 201.13 73.93 175.95 55.00 171.00
C 24.95 214.15 49.48 270.27 48.00 319.00
C 71.67 319.00 95.33 319.00 119.00 319.00
C 119.00 313.00 119.00 307.00 119.00 301.00
C 99.30 296.57 90.62 280.23 82.92 262.08 C 75.23 243.92 65.90 232.81 58.33 212.67 C 50.76 192.53 86.12 175.80 96.23 195.77 C 106.34 215.74 112.68 225.35 121.00 245.00
C 124.35 224.38 120.03 202.44 114.00 183.00 Z"/>
</g>
<g fill="None" fill-opacity="0.0" stroke="#FFFFFF" stroke-opacity="1.00" stroke-width="0.3"><path d="
M 457.00 171.00 
C 438.02 175.18 414.38 202.22 398.00 182.00
C 392.52 201.48 385.82 223.92 391.00 244.00
C 400.83 225.34 405.20 213.39 416.25 194.25 C 427.29 175.11 462.07 194.15 453.31 213.31 C 444.54 232.46 437.24 245.35 428.77 262.77 C 420.30 280.19 412.82 296.88 393.00 301.00
C 393.00 307.00 393.00 313.00 393.00 319.00
C 416.67 319.00 440.33 319.00 464.00 319.00
C 462.61 269.95 486.08 214.64 457.00 171.00 Z"/>
</g>
<g fill="None" fill-opacity="0.0" stroke="#000000" stroke-opacity="1.00" stroke-width="0.3"><path d="
M 259.00 192.00 
C 252.66 188.91 248.31 197.89 253.78 201.22 C 259.24 204.55 264.08 194.48 259.00 192.00 Z"/>
</g>
<g fill="None" fill-opacity="0.0" stroke="#FFFFFF" stroke-opacity="1.00" stroke-width="0.3"><path d="
M 170.00 270.00 
C 157.42 269.12 140.11 271.17 128.00 270.00 C 115.90 268.82 117.11 252.74 110.77 245.23 C 104.43 237.72 103.22 225.50 96.92 218.08 C 90.62 210.66 90.84 194.46 77.67 196.67 C 64.51 198.88 68.82 214.06 74.69 222.31 C 80.57 230.55 82.93 240.85 88.23 249.77 C 93.52 258.69 97.21 268.10 102.70 277.30 C 108.19 286.51 117.35 292.61 129.00 293.00 C 140.65 293.39 157.84 292.70 170.00 293.00
C 170.00 285.33 170.00 277.67 170.00 270.00 Z"/>
</g>
<g fill="None" fill-opacity="0.0" stroke="#FFFFFF" stroke-opacity="1.00" stroke-width="0.3"><path d="
M 342.00 293.00 
C 354.55 292.86 371.85 293.22 383.93 292.93 C 396.00 292.63 404.05 285.90 409.75 276.75 C 415.44 267.60 418.46 258.57 423.70 249.69 C 428.93 240.82 431.73 229.89 438.08 222.08 C 444.42 214.26 446.85 197.02 434.01 196.01 C 421.16 194.99 421.02 210.67 415.31 218.31 C 409.59 225.94 407.30 238.37 400.92 245.92 C 394.55 253.48 395.51 269.69 383.00 270.00 C 370.49 270.31 354.80 269.77 342.00 270.00
C 342.00 277.67 342.00 285.33 342.00 293.00 Z"/>
</g>
<g fill="None" fill-opacity="0.0" stroke="#000000" stroke-opacity="1.00" stroke-width="0.3"><path d="
M 259.00 212.00 
C 252.37 208.76 248.27 217.96 253.92 221.06 C 259.57 224.16 263.95 214.42 259.00 212.00 Z"/>
</g>
<g fill="None" fill-opacity="0.0" stroke="#000000" stroke-opacity="1.00" stroke-width="0.3"><path d="
M 291.00 221.00 
C 285.92 218.37 278.61 222.89 273.00 221.00 C 267.39 219.12 264.63 227.93 269.93 230.07 C 275.22 232.21 281.64 230.20 286.97 230.97 C 292.31 231.75 295.51 223.33 291.00 221.00 Z"/>
</g>
<g fill="None" fill-opacity="0.0" stroke="#000000" stroke-opacity="1.00" stroke-width="0.3"><path d="
M 258.00 231.00 
C 251.92 229.21 248.31 238.45 254.33 240.67 C 260.35 242.88 263.56 232.63 258.00 231.00 Z"/>
</g>
<g fill="None" fill-opacity="0.0" stroke="#000000" stroke-opacity="1.00" stroke-width="0.3"><path d="
M 259.00 251.00 
C 252.78 248.04 248.26 257.24 253.78 260.22 C 259.29 263.19 264.17 253.46 259.00 251.00 Z"/>
</g>
<g fill="None" fill-opacity="0.0" stroke="#FFFFFF" stroke-opacity="1.00" stroke-width="0.3"><path d="
M 180.00 292.00 
C 189.64 292.39 204.51 294.29 204.00 281.00 C 203.48 267.71 189.38 271.44 180.00 271.00
C 180.00 278.00 180.00 285.00 180.00 292.00 Z"/>
</g>
<g fill="None" fill-opacity="0.0" stroke="#000000" stroke-opacity="1.00" stroke-width="0.3"><path d="
M 259.00 271.00 
C 252.66 267.91 248.31 276.89 253.78 280.22 C 259.24 283.55 264.08 273.48 259.00 271.00 Z"/>
</g>
<g fill="None" fill-opacity="0.0" stroke="#FFFFFF" stroke-opacity="1.00" stroke-width="0.3"><path d="
M 332.00 271.00 
C 322.34 270.59 307.68 268.89 308.00 282.00 C 308.33 295.11 322.77 291.70 332.00 292.00
C 332.00 285.00 332.00 278.00 332.00 271.00 Z"/>
</g>
<g fill="None" fill-opacity="0.0" stroke="#000000" stroke-opacity="0.09" stroke-width="0.3"><path d="
M 150.00 302.00 
C 143.00 302.00 136.00 302.00 129.00 302.00
C 129.48 307.28 126.86 313.71 128.00 320.00
C 137.94 322.24 146.15 323.73 157.00 327.00
C 148.70 319.58 144.89 312.32 150.00 302.00 Z"/>
</g>
<g fill="None" fill-opacity="0.0" stroke="#000000" stroke-opacity="0.08" stroke-width="0.3"><path d="
M 384.00 303.00 
C 377.50 300.77 369.93 302.59 363.00 302.00
C 367.98 311.82 364.60 319.27 357.00 326.00
C 367.08 323.90 374.09 322.05 384.00 320.00
C 384.69 314.20 382.88 308.14 384.00 303.00 Z"/>
</g>
<g fill="None" fill-opacity="0.0" stroke="#FFFFFF" stroke-opacity="1.00" stroke-width="0.3"><path d="
M 351.00 303.00 
C 342.22 299.43 329.52 304.69 320.00 303.00 C 310.48 301.31 299.87 303.80 290.00 303.00 C 280.13 302.20 268.99 303.50 259.00 303.00 C 249.01 302.50 239.00 303.51 229.00 303.00 C 219.00 302.49 207.89 303.85 198.00 303.00 C 188.11 302.15 177.57 304.82 168.00 303.00 C 158.43 301.18 153.92 314.71 162.98 318.02 C 172.03 321.34 183.23 318.10 193.00 319.00 C 202.77 319.90 213.03 318.56 223.00 319.00 C 232.97 319.44 243.99 318.70 254.00 319.00 C 264.01 319.30 274.06 318.64 284.00 319.00 C 293.94 319.36 305.28 318.35 315.00 319.00 C 324.72 319.65 335.82 317.59 344.99 318.99 C 354.16 320.40 358.93 306.22 351.00 303.00 Z"/>
</g>
<g fill="None" fill-opacity="0.0" stroke="#FFFFFF" stroke-opacity="1.00" stroke-width="0.3"><path d="
M 200.00 455.00 
C 200.74 434.19 199.01 404.97 200.00 385.00 C 200.99 365.03 194.19 346.99 174.68 341.32 C 155.16 335.65 138.81 331.26 118.00 329.00 C 97.19 326.74 70.36 330.69 49.00 329.00
C 46.43 344.39 50.03 369.91 70.00 369.00 C 89.97 368.09 111.44 370.87 131.00 369.00 C 150.56 367.13 167.42 373.69 166.00 395.00 C 164.58 416.31 167.07 434.02 166.00 455.00
C 177.33 455.00 188.67 455.00 200.00 455.00 Z"/>
</g>
<g fill="None" fill-opacity="0.0" stroke="#000000" stroke-opacity="0.11" stroke-width="0.3"><path d="
M 192.00 329.00 
C 185.49 329.63 177.75 327.72 172.00 330.00
C 180.98 331.43 184.88 335.03 192.00 338.00
C 192.00 335.00 192.00 332.00 192.00 329.00 Z"/>
</g>
<g fill="None" fill-opacity="0.0" stroke="#FFFFFF" stroke-opacity="1.00" stroke-width="0.3"><path d="
M 238.00 329.00 
C 230.90 329.02 223.02 328.97 216.00 329.00 C 208.98 329.03 198.94 326.62 202.00 337.00
C 209.10 336.98 216.98 337.03 224.00 337.00 C 231.02 336.97 241.06 339.38 238.00 329.00 Z"/>
</g>
<g fill="None" fill-opacity="0.0" stroke="#FFFFFF" stroke-opacity="1.00" stroke-width="0.3"><path d="
M 265.00 329.00 
C 259.33 329.00 253.67 329.00 248.00 329.00
C 248.00 371.00 248.00 413.00 248.00 455.00
C 253.67 455.00 259.33 455.00 265.00 455.00
C 265.00 413.00 265.00 371.00 265.00 329.00 Z"/>
</g>
<g fill="None" fill-opacity="0.0" stroke="#FFFFFF" stroke-opacity="1.00" stroke-width="0.3"><path d="
M 311.00 329.00 
C 303.90 329.02 296.02 328.97 289.00 329.00 C 281.98 329.03 271.94 326.62 275.00 337.00
C 282.10 336.98 289.98 337.03 297.00 337.00 C 304.02 336.97 314.06 339.38 311.00 329.00 Z"/>
</g>
<g fill="None" fill-opacity="0.0" stroke="#000000" stroke-opacity="0.11" stroke-width="0.3"><path d="
M 341.00 329.00 
C 334.33 329.00 327.67 329.00 321.00 329.00
C 321.00 332.00 321.00 335.00 321.00 338.00
C 327.70 333.26 332.79 332.24 341.00 329.00 Z"/>
</g>
<g fill="None" fill-opacity="0.0" stroke="#FFFFFF" stroke-opacity="1.00" stroke-width="0.3"><path d="
M 463.00 330.00 
C 418.77 331.57 376.71 325.05 336.08 342.08 C 295.44 359.10 315.83 419.87 311.00 455.00
C 322.67 455.00 334.33 455.00 346.00 455.00
C 345.03 433.49 347.29 415.90 346.00 394.00 C 344.71 372.10 363.00 368.77 382.00 370.00 C 401.00 371.23 423.69 370.17 442.93 369.93 C 462.16 369.68 465.01 344.38 463.00 330.00 Z"/>
</g>
<g fill="None" fill-opacity="0.0" stroke="#FFFFFF" stroke-opacity="1.00" stroke-width="0.3"><path d="
M 238.00 347.00 
C 226.00 347.00 214.00 347.00 202.00 347.00
C 219.38 378.74 207.52 419.19 211.00 455.00
C 220.00 455.00 229.00 455.00 238.00 455.00
C 238.00 419.00 238.00 383.00 238.00 347.00 Z"/>
</g>
<g fill="None" fill-opacity="0.0" stroke="#FFFFFF" stroke-opacity="1.00" stroke-width="0.3"><path d="
M 310.00 347.00 
C 298.33 347.00 286.67 347.00 275.00 347.00
C 275.00 383.00 275.00 419.00 275.00 455.00
C 283.67 455.00 292.33 455.00 301.00 455.00
C 304.50 419.22 292.59 378.69 310.00 347.00 Z"/>
</g>
<g fill="None" fill-opacity="0.0" stroke="#FFFFFF" stroke-opacity="1.00" stroke-width="0.3"><path d="
M 138.00 380.00 
C 131.19 376.48 119.72 381.75 112.00 380.00 C 104.28 378.25 95.18 380.99 87.00 380.00 C 78.82 379.01 70.53 380.90 62.00 380.00 C 53.47 379.10 46.02 381.40 37.00 380.00 C 27.98 378.60 21.43 381.24 23.00 391.00 C 24.57 400.76 22.43 406.86 23.00 416.00 C 23.57 425.14 22.97 433.02 23.00 442.00 C 23.03 450.98 23.54 457.86 23.00 467.00 C 22.46 476.14 24.48 482.17 23.00 492.00 C 21.52 501.83 29.33 503.13 38.00 502.00 C 46.67 500.87 54.66 502.73 63.00 502.00 C 71.34 501.27 79.99 502.80 88.00 502.00 C 96.01 501.20 106.59 503.38 114.00 502.00 C 121.41 500.62 132.59 505.37 138.25 501.25 C 143.90 497.13 138.71 484.66 140.00 478.00 C 141.29 471.34 139.62 460.25 140.00 453.00 C 140.38 445.75 140.28 435.11 140.00 428.00 C 139.72 420.89 141.12 409.16 140.00 403.00 C 138.88 396.84 143.64 382.91 138.00 380.00 Z"/>
</g>
<g fill="None" fill-opacity="0.0" stroke="#FFFFFF" stroke-opacity="1.00" stroke-width="0.3"><path d="
M 487.00 380.00 
C 480.19 376.48 468.72 381.75 461.00 380.00 C 453.28 378.25 444.18 380.99 436.00 380.00 C 427.82 379.01 419.53 380.90 411.00 380.00 C 402.47 379.10 395.02 381.41 386.00 380.00 C 376.98 378.60 370.43 381.24 372.00 391.00 C 373.57 400.76 371.43 406.86 372.00 416.00 C 372.57 425.14 371.97 433.02 372.00 442.00 C 372.03 450.98 372.54 457.86 372.00 467.00 C 371.46 476.14 373.48 482.17 372.00 492.00 C 370.52 501.83 378.33 503.13 387.00 502.00 C 395.67 500.87 403.66 502.73 412.00 502.00 C 420.34 501.27 428.99 502.80 437.00 502.00 C 445.01 501.20 455.59 503.38 463.00 502.00 C 470.41 500.62 481.59 505.36 487.25 501.25 C 492.90 497.13 487.71 484.66 489.00 478.00 C 490.29 471.34 488.62 460.25 489.00 453.00 C 489.38 445.75 489.28 435.11 489.00 428.00 C 488.72 420.89 490.12 409.16 489.00 403.00 C 487.88 396.84 492.64 382.91 487.00 380.00 Z"/>
</g>
<g fill="None" fill-opacity="0.0" stroke="#000000" stroke-opacity="0.09" stroke-width="0.3"><path d="
M 138.00 512.00 
L 167.00 512.00
C 153.26 506.09 154.17 495.10 155.80 481.25 C 157.43 467.39 156.26 445.71 156.00 429.00 C 155.74 412.29 160.90 388.29 149.00 381.00
C 149.78 403.45 151.40 433.81 150.00 456.00 C 148.60 478.19 157.91 505.15 138.00 512.00 Z"/>
</g>
<g fill="None" fill-opacity="0.0" stroke="#000000" stroke-opacity="0.04" stroke-width="0.3"><path d="
M 344.00 512.00 
L 371.00 512.00
C 355.74 500.86 363.12 475.97 362.00 454.00 C 360.88 432.03 362.02 403.13 363.00 381.00
C 351.62 387.73 357.93 412.31 357.00 428.00 C 356.07 443.69 356.04 465.60 356.80 478.75 C 357.56 491.91 359.72 501.03 349.00 511.00
C 347.42 509.84 345.19 510.84 344.00 512.00 Z"/>
</g>
<g fill="None" fill-opacity="0.0" stroke="#FFFFFF" stroke-opacity="1.00" stroke-width="0.3"><path d="
M 188.00 466.00 
C 182.13 464.91 170.27 463.13 166.00 467.00
C 173.58 469.61 180.75 468.69 188.00 466.00 Z"/>
</g>
<g fill="None" fill-opacity="0.0" stroke="#000000" stroke-opacity="0.19" stroke-width="0.3"><path d="
M 219.00 465.00 
C 214.82 465.58 209.42 463.79 206.00 466.00
C 210.91 468.12 213.53 469.46 217.00 472.00
C 218.54 470.37 218.60 467.30 219.00 465.00 Z"/>
</g>
<g fill="None" fill-opacity="0.0" stroke="#000000" stroke-opacity="0.18" stroke-width="0.3"><path d="
M 306.00 466.00 
C 302.99 463.72 297.83 465.63 294.00 465.00
C 294.59 467.38 294.41 468.71 295.00 471.00
C 299.55 470.09 301.01 467.59 306.00 466.00 Z"/>
</g>
<g fill="None" fill-opacity="0.0" stroke="#FFFFFF" stroke-opacity="1.00" stroke-width="0.3"><path d="
M 346.00 466.00 
C 339.81 464.31 330.26 464.36 324.00 466.00
C 330.95 468.82 339.54 470.53 346.00 466.00 Z"/>
</g>
<g fill="None" fill-opacity="0.0" stroke="#FFFFFF" stroke-opacity="1.00" stroke-width="0.3"><path d="
M 285.00 477.00 
C 288.75 464.83 277.91 466.10 270.00 466.00 C 262.09 465.90 252.52 467.08 245.00 466.00 C 237.48 464.92 225.12 466.05 228.03 474.97 C 230.94 483.88 241.07 474.83 245.75 482.25 C 250.44 489.67 252.29 492.81 251.00 502.00
C 254.33 502.00 257.67 502.00 261.00 502.00
C 256.93 486.26 270.49 475.24 285.00 477.00 Z"/>
</g>
<g fill="None" fill-opacity="0.0" stroke="#FFFFFF" stroke-opacity="1.00" stroke-width="0.3"><path d="
M 240.00 502.00 
C 245.67 486.14 228.08 488.37 219.23 484.77 C 210.38 481.18 204.00 471.59 194.68 474.68 C 185.35 477.76 175.54 482.49 166.00 477.00
C 165.16 484.58 160.18 501.47 172.00 502.00 C 183.82 502.53 194.41 501.72 206.00 502.00 C 217.59 502.28 228.47 501.79 240.00 502.00 Z"/>
</g>
<g fill="None" fill-opacity="0.0" stroke="#FFFFFF" stroke-opacity="1.00" stroke-width="0.3"><path d="
M 346.00 477.00 
C 337.42 482.13 326.35 477.51 318.22 474.78 C 310.10 472.05 300.89 478.22 294.25 483.25 C 287.60 488.28 269.90 484.84 271.00 496.00 C 272.11 507.15 290.45 500.62 301.00 502.00 C 311.55 503.38 324.99 500.86 337.00 502.00 C 349.01 503.13 348.46 485.77 346.00 477.00 Z"/>
</g>
<g fill="#000000" fill-opacity="0.01" stroke="None">
<path d="
M 0.00 512.00 
L 23.00 512.00
C 6.93 504.09 16.41 484.29 14.00 463.00 C 11.59 441.71 17.11 414.32 14.00 392.00 C 10.89 369.68 26.48 368.45 48.00 371.00
C 36.12 362.14 39.75 340.86 39.00 325.00 C 38.25 309.14 36.07 299.00 35.40 285.25 C 34.72 271.49 33.31 259.61 32.66 246.32 C 32.02 233.03 28.48 217.25 31.21 203.77 C 33.94 190.29 36.41 181.24 43.70 171.70 C 50.98 162.16 47.31 145.71 60.00 140.00
C 53.47 134.06 55.24 124.49 52.60 115.25 C 49.96 106.01 47.05 96.57 48.26 85.26 C 49.46 73.95 51.31 70.12 59.25 61.25 C 67.19 52.38 73.07 54.73 82.25 51.20 C 91.43 47.67 96.34 39.44 105.25 38.81 C 114.16 38.17 125.67 34.56 133.75 39.39 C 141.83 44.23 149.49 51.80 149.93 62.08 C 150.38 72.37 144.92 82.96 136.00 87.00
C 136.59 101.93 137.09 123.87 132.29 133.30 C 127.50 142.73 120.05 153.49 108.00 156.00
C 118.14 157.39 121.22 165.54 121.80 174.25 C 122.38 182.96 127.54 188.26 128.60 197.75 C 129.66 207.24 131.77 211.77 132.39 222.75 C 133.02 233.73 132.33 250.59 131.00 261.00
C 143.92 260.35 157.53 262.31 170.00 260.00
C 168.27 248.85 171.10 237.45 171.31 226.31 C 171.51 215.16 172.57 203.78 172.79 192.77 C 173.00 181.76 175.34 172.23 184.77 167.43 C 194.20 162.63 203.70 164.45 213.23 160.21 C 222.76 155.98 233.91 156.65 234.00 143.00
C 222.31 137.26 213.41 125.50 213.00 113.00
C 203.17 111.68 197.02 108.11 193.24 97.75 C 189.46 87.39 201.39 79.83 200.00 68.00 C 198.61 56.17 200.93 47.93 205.57 39.23 C 210.21 30.53 217.22 26.56 224.25 21.81 C 231.29 17.06 244.55 17.38 256.00 17.00 C 267.45 16.62 271.25 25.78 281.75 24.41 C 292.25 23.04 301.99 27.92 307.57 34.77 C 313.15 41.62 315.58 53.40 314.00 66.00 C 312.42 78.60 318.58 86.95 317.93 97.08 C 317.29 107.22 306.15 112.11 298.00 113.00
C 297.78 121.07 293.87 126.42 290.70 131.70 C 287.53 136.98 272.51 144.71 280.08 151.92 C 287.66 159.12 296.81 158.58 304.25 161.20 C 311.68 163.81 319.45 164.64 326.25 167.76 C 333.05 170.87 337.47 175.33 338.39 182.75 C 339.31 190.17 339.24 200.24 339.80 208.25 C 340.37 216.25 341.10 225.99 341.21 234.23 C 341.33 242.47 343.81 251.65 342.00 260.00
C 354.50 262.31 368.08 260.35 381.00 261.00
C 379.22 243.10 379.03 222.78 381.20 206.75 C 383.37 190.73 392.15 180.86 390.00 164.00
C 395.73 160.83 397.30 157.14 404.00 157.00
C 376.81 145.97 371.32 118.73 376.00 86.00
C 356.62 78.52 359.11 48.33 376.25 40.81 C 393.40 33.29 416.59 36.11 428.00 51.00
C 440.21 49.27 453.82 58.88 459.13 67.92 C 464.44 76.96 465.47 93.67 462.65 105.70 C 459.83 117.72 458.29 130.48 452.00 140.00
C 462.89 146.56 462.76 161.55 469.75 171.25 C 476.74 180.95 476.68 189.21 480.20 202.25 C 483.72 215.29 480.26 232.36 479.35 245.70 C 478.45 259.03 478.08 270.82 476.98 285.03 C 475.88 299.23 473.88 310.48 474.00 327.00 C 474.12 343.52 474.63 361.92 463.00 371.00
C 473.28 372.54 497.38 365.62 498.76 380.25 C 500.14 394.88 496.84 413.25 498.00 429.00 C 499.16 444.75 497.38 464.56 498.00 480.00 C 498.62 495.44 500.62 506.61 490.00 512.00
L 512.00 512.00
L 512.00 0.00
L 339.00 0.00
C 341.25 8.10 348.24 16.27 357.00 17.00
C 349.29 21.05 341.06 29.30 337.00 37.00
C 336.83 27.63 328.23 21.35 320.00 19.00
C 325.73 14.78 337.07 9.97 337.00 0.00
L 0.00 0.00
L 0.00 512.00
M 416.00 14.00 
C 421.36 16.09 418.47 27.04 411.78 24.22 C 405.08 21.39 408.28 10.99 416.00 14.00
M 41.00 32.00 
C 52.27 28.44 52.28 46.56 41.00 43.00
C 44.14 53.95 26.62 54.10 30.00 43.00
C 19.40 46.87 19.39 28.14 30.00 32.00
C 26.11 20.55 44.50 20.70 41.00 32.00
M 344.00 125.00 
C 354.95 121.86 355.10 139.38 344.00 136.00
C 347.57 147.05 329.45 147.07 333.00 136.00
C 321.16 140.35 321.56 121.10 333.00 125.00
C 329.84 114.73 347.13 114.68 344.00 125.00 Z"/>
</g>
<g fill="#FFFFFF" fill-opacity="0.85" stroke="None">
<path d="
M 339.00 0.00 
L 337.00 0.00
C 337.07 9.97 325.73 14.78 320.00 19.00
C 328.23 21.35 336.83 27.63 337.00 37.00
C 341.06 29.30 349.29 21.05 357.00 17.00
C 348.24 16.27 341.25 8.10 339.00 0.00 Z"/>
</g>
<g fill="#FFFFFF" fill-opacity="0.79" stroke="None">
<path d="
M 416.00 14.00 
C 408.28 10.99 405.08 21.39 411.78 24.22 C 418.47 27.04 421.36 16.09 416.00 14.00 Z"/>
</g>
<g fill="#000000" fill-opacity="0.99" stroke="None">
<path d="
M 23.00 512.00 
L 138.00 512.00
C 157.91 505.15 148.60 478.19 150.00 456.00 C 151.40 433.81 149.78 403.45 149.00 381.00
C 160.90 388.29 155.74 412.29 156.00 429.00 C 156.26 445.71 157.43 467.39 155.80 481.25 C 154.17 495.10 153.26 506.09 167.00 512.00
L 344.00 512.00
C 345.19 510.84 347.42 509.84 349.00 511.00
C 359.72 501.03 357.56 491.91 356.80 478.75 C 356.04 465.60 356.07 443.69 357.00 428.00 C 357.93 412.31 351.62 387.73 363.00 381.00
C 362.02 403.13 360.88 432.03 362.00 454.00 C 363.12 475.97 355.74 500.86 371.00 512.00
L 490.00 512.00
C 500.62 506.61 498.62 495.44 498.00 480.00 C 497.38 464.56 499.16 444.75 498.00 429.00 C 496.84 413.25 500.14 394.88 498.76 380.25 C 497.38 365.62 473.28 372.54 463.00 371.00
C 474.63 361.92 474.12 343.52 474.00 327.00 C 473.88 310.48 475.88 299.23 476.98 285.03 C 478.08 270.82 478.45 259.03 479.35 245.70 C 480.26 232.36 483.72 215.29 480.20 202.25 C 476.68 189.21 476.74 180.95 469.75 171.25 C 462.76 161.55 462.89 146.56 452.00 140.00
C 458.29 130.48 459.83 117.72 462.65 105.70 C 465.47 93.67 464.44 76.96 459.13 67.92 C 453.82 58.88 440.21 49.27 428.00 51.00
C 416.59 36.11 393.40 33.29 376.25 40.81 C 359.11 48.33 356.62 78.52 376.00 86.00
C 371.32 118.73 376.81 145.97 404.00 157.00
C 397.30 157.14 395.73 160.83 390.00 164.00
C 392.15 180.86 383.37 190.73 381.20 206.75 C 379.03 222.78 379.22 243.10 381.00 261.00
C 368.08 260.35 354.50 262.31 342.00 260.00
C 343.81 251.65 341.33 242.47 341.21 234.23 C 341.10 225.99 340.37 216.25 339.80 208.25 C 339.24 200.24 339.31 190.17 338.39 182.75 C 337.47 175.33 333.05 170.87 326.25 167.76 C 319.45 164.64 311.68 163.81 304.25 161.20 C 296.81 158.58 287.66 159.12 280.08 151.92 C 272.51 144.71 287.53 136.98 290.70 131.70 C 293.87 126.42 297.78 121.07 298.00 113.00
C 306.15 112.11 317.29 107.22 317.93 97.08 C 318.58 86.95 312.42 78.60 314.00 66.00 C 315.58 53.40 313.15 41.62 307.57 34.77 C 301.99 27.92 292.25 23.04 281.75 24.41 C 271.25 25.78 267.45 16.62 256.00 17.00 C 244.55 17.38 231.29 17.06 224.25 21.81 C 217.22 26.56 210.21 30.53 205.57 39.23 C 200.93 47.93 198.61 56.17 200.00 68.00 C 201.39 79.83 189.46 87.39 193.24 97.75 C 197.02 108.11 203.17 111.68 213.00 113.00
C 213.41 125.50 222.31 137.26 234.00 143.00
C 233.91 156.65 222.76 155.98 213.23 160.21 C 203.70 164.45 194.20 162.63 184.77 167.43 C 175.34 172.23 173.00 181.76 172.79 192.77 C 172.57 203.78 171.51 215.16 171.31 226.31 C 171.10 237.45 168.27 248.85 170.00 260.00
C 157.53 262.31 143.92 260.35 131.00 261.00
C 132.33 250.59 133.02 233.73 132.39 222.75 C 131.77 211.77 129.66 207.24 128.60 197.75 C 127.54 188.26 122.38 182.96 121.80 174.25 C 121.22 165.54 118.14 157.39 108.00 156.00
C 120.05 153.49 127.50 142.73 132.29 133.30 C 137.09 123.87 136.59 101.93 136.00 87.00
C 144.92 82.96 150.38 72.37 149.93 62.08 C 149.49 51.80 141.83 44.23 133.75 39.39 C 125.67 34.56 114.16 38.17 105.25 38.81 C 96.34 39.44 91.43 47.67 82.25 51.20 C 73.07 54.73 67.19 52.38 59.25 61.25 C 51.31 70.12 49.46 73.95 48.26 85.26 C 47.05 96.57 49.96 106.01 52.60 115.25 C 55.24 124.49 53.47 134.06 60.00 140.00
C 47.31 145.71 50.98 162.16 43.70 171.70 C 36.41 181.24 33.94 190.29 31.21 203.77 C 28.48 217.25 32.02 233.03 32.66 246.32 C 33.31 259.61 34.72 271.49 35.40 285.25 C 36.07 299.00 38.25 309.14 39.00 325.00 C 39.75 340.86 36.12 362.14 48.00 371.00
C 26.48 368.45 10.89 369.68 14.00 392.00 C 17.11 414.32 11.59 441.71 14.00 463.00 C 16.41 484.29 6.93 504.09 23.00 512.00
M 303.00 71.00 
C 299.01 66.25 293.88 61.93 286.00 62.00 C 278.12 62.07 273.82 57.62 267.30 53.70 C 260.78 49.77 256.11 56.83 250.77 60.77 C 245.43 64.71 238.25 68.29 230.99 67.99 C 223.73 67.70 214.96 65.73 209.00 71.00
C 208.79 60.82 209.67 48.94 215.92 40.92 C 222.17 32.90 230.13 28.07 240.01 27.01 C 249.88 25.95 263.39 25.84 269.75 34.25 C 276.11 42.65 289.06 29.15 297.23 38.77 C 305.40 48.39 302.58 58.96 303.00 71.00
M 61.00 111.00 
C 59.90 102.81 57.63 93.64 58.33 85.33 C 59.03 77.02 61.85 71.21 68.23 66.23 C 74.61 61.25 83.76 63.36 89.75 58.75 C 95.74 54.14 100.70 49.62 108.22 48.22 C 115.74 46.82 125.47 46.35 132.08 50.92 C 138.68 55.49 140.17 64.07 137.22 71.22 C 134.27 78.37 125.96 80.52 119.33 82.33 C 112.70 84.13 100.47 82.34 95.30 87.30 C 90.13 92.26 78.32 88.61 77.70 98.70 C 77.07 108.78 73.21 114.13 61.00 111.00
M 450.00 111.00 
C 435.14 116.67 436.75 103.82 432.74 96.26 C 428.74 88.70 418.83 89.19 411.92 85.08 C 405.02 80.97 392.59 83.81 384.93 80.07 C 377.27 76.34 370.71 69.19 373.00 60.00 C 375.29 50.81 384.75 46.71 393.00 47.00 C 401.25 47.30 411.17 48.10 417.25 54.75 C 423.32 61.41 432.10 60.74 440.07 63.93 C 448.05 67.12 451.83 74.86 453.00 83.00 C 454.17 91.14 453.16 102.94 450.00 111.00
M 289.00 73.00 
C 291.11 99.27 291.70 136.54 258.00 139.00 C 224.30 141.45 217.45 105.12 222.00 78.00
C 237.17 79.19 253.32 76.28 263.00 64.00
C 270.68 69.39 279.42 72.91 289.00 73.00
M 211.00 82.00 
C 211.00 89.00 211.00 96.00 211.00 103.00
C 200.81 100.40 199.92 83.54 211.00 82.00
M 299.00 103.00 
C 299.00 96.00 299.00 89.00 299.00 82.00
C 311.17 82.13 310.33 101.83 299.00 103.00
M 127.00 92.00 
C 129.09 111.95 127.19 137.39 107.30 146.30 C 87.42 155.22 66.81 141.79 63.00 122.00
C 67.19 121.25 77.87 123.69 80.69 119.69 C 83.52 115.70 91.04 114.48 88.66 108.32 C 86.28 102.17 89.85 100.26 96.00 101.00 C 102.15 101.74 102.21 91.78 109.00 94.00 C 115.80 96.22 120.54 91.13 127.00 92.00
M 449.00 122.00 
C 445.11 141.36 425.66 154.92 405.32 146.68 C 384.99 138.44 383.64 111.82 386.00 92.00
C 392.59 90.55 395.91 96.76 403.00 94.00 C 410.09 91.24 409.80 101.57 416.08 100.92 C 422.35 100.28 425.32 101.77 423.08 108.08 C 420.83 114.38 428.52 115.73 431.25 119.75 C 433.97 123.77 444.92 121.15 449.00 122.00
M 269.00 148.00 
C 267.66 155.86 265.44 168.44 256.00 169.00 C 246.56 169.56 243.90 155.95 243.00 148.00
C 251.70 150.06 260.15 149.39 269.00 148.00
M 112.00 168.00 
C 107.97 172.05 103.72 182.19 96.98 179.02 C 90.24 175.86 84.58 173.10 77.92 170.08 C 71.27 167.05 64.55 164.38 58.00 161.00
C 59.32 157.30 61.25 153.89 62.00 150.00
C 79.08 154.44 95.03 162.89 112.00 168.00
M 450.00 150.00 
C 451.16 153.28 451.48 157.53 454.00 160.00
C 448.60 164.81 442.38 166.38 435.77 169.77 C 429.16 173.16 422.58 175.01 415.77 178.77 C 408.96 182.53 404.11 172.34 400.00 168.00
C 416.91 162.97 432.91 154.64 450.00 150.00
M 236.00 162.00 
C 240.95 168.91 239.87 176.52 232.00 181.00
C 230.76 175.75 228.08 170.99 226.00 166.00
C 229.63 165.57 232.35 162.42 236.00 162.00
M 286.00 166.00 
C 283.91 171.00 281.25 175.72 280.00 181.00
C 272.66 176.62 270.00 168.62 276.00 162.00
C 279.63 162.43 282.35 165.58 286.00 166.00
M 333.00 260.00 
C 325.57 260.00 318.09 259.65 311.00 261.00
C 309.36 253.19 313.18 244.74 311.00 237.00 C 308.82 229.26 315.63 220.15 309.74 213.26 C 303.85 206.37 299.08 218.02 301.00 225.00 C 302.92 231.98 300.38 241.69 301.00 249.00 C 301.62 256.31 301.97 265.78 299.23 272.23 C 296.48 278.68 296.20 285.87 300.00 292.00
C 270.67 292.00 241.33 292.00 212.00 292.00
C 215.27 286.10 216.06 279.22 213.07 272.93 C 210.09 266.63 210.44 257.23 211.00 250.00 C 211.56 242.77 209.54 231.75 211.00 225.00 C 212.46 218.25 208.87 206.83 202.75 212.75 C 196.64 218.68 202.85 228.49 201.00 236.00 C 199.15 243.51 202.39 253.28 201.00 261.00
C 193.94 259.64 186.40 260.01 179.00 260.00
C 179.09 250.80 179.90 239.50 180.78 230.78 C 181.66 222.06 180.91 208.78 182.00 201.00 C 183.09 193.22 180.77 178.73 189.25 176.25 C 197.72 173.76 205.83 170.49 214.07 170.07 C 222.32 169.65 219.54 183.98 225.31 189.69 C 231.07 195.41 240.35 189.18 243.75 182.75 C 247.15 176.32 263.44 175.94 267.75 182.25 C 272.06 188.56 279.15 195.38 285.90 189.90 C 292.65 184.42 288.81 170.81 297.03 170.03 C 305.25 169.25 312.91 174.23 321.68 176.32 C 330.45 178.41 329.12 192.24 329.78 200.22 C 330.44 208.20 330.26 221.09 331.00 230.00 C 331.74 238.91 332.49 250.74 333.00 260.00
M 114.00 183.00 
C 120.03 202.44 124.35 224.38 121.00 245.00
C 112.68 225.35 106.34 215.74 96.23 195.77 C 86.12 175.80 50.76 192.53 58.33 212.67 C 65.90 232.81 75.23 243.92 82.92 262.08 C 90.62 280.23 99.30 296.57 119.00 301.00
C 119.00 307.00 119.00 313.00 119.00 319.00
C 95.33 319.00 71.67 319.00 48.00 319.00
C 49.48 270.27 24.95 214.15 55.00 171.00
C 73.93 175.95 96.89 201.13 114.00 183.00
M 457.00 171.00 
C 486.08 214.64 462.61 269.95 464.00 319.00
C 440.33 319.00 416.67 319.00 393.00 319.00
C 393.00 313.00 393.00 307.00 393.00 301.00
C 412.82 296.88 420.30 280.19 428.77 262.77 C 437.24 245.35 444.54 232.46 453.31 213.31 C 462.07 194.15 427.29 175.11 416.25 194.25 C 405.20 213.39 400.83 225.34 391.00 244.00
C 385.82 223.92 392.52 201.48 398.00 182.00
C 414.38 202.22 438.02 175.18 457.00 171.00
M 170.00 270.00 
C 170.00 277.67 170.00 285.33 170.00 293.00
C 157.84 292.70 140.65 293.39 129.00 293.00 C 117.35 292.61 108.19 286.51 102.70 277.30 C 97.21 268.10 93.52 258.69 88.23 249.77 C 82.93 240.85 80.57 230.55 74.69 222.31 C 68.82 214.06 64.51 198.88 77.67 196.67 C 90.84 194.46 90.62 210.66 96.92 218.08 C 103.22 225.50 104.43 237.72 110.77 245.23 C 117.11 252.74 115.90 268.82 128.00 270.00 C 140.11 271.17 157.42 269.12 170.00 270.00
M 342.00 293.00 
C 342.00 285.33 342.00 277.67 342.00 270.00
C 354.80 269.77 370.49 270.31 383.00 270.00 C 395.51 269.69 394.55 253.48 400.92 245.92 C 407.30 238.37 409.59 225.94 415.31 218.31 C 421.02 210.67 421.16 194.99 434.01 196.01 C 446.85 197.02 444.42 214.26 438.08 222.08 C 431.73 229.89 428.93 240.82 423.70 249.69 C 418.46 258.57 415.44 267.60 409.75 276.75 C 404.05 285.90 396.00 292.63 383.93 292.93 C 371.85 293.22 354.55 292.86 342.00 293.00
M 180.00 292.00 
C 180.00 285.00 180.00 278.00 180.00 271.00
C 189.38 271.44 203.48 267.71 204.00 281.00 C 204.51 294.29 189.64 292.39 180.00 292.00
M 332.00 271.00 
C 332.00 278.00 332.00 285.00 332.00 292.00
C 322.77 291.70 308.33 295.11 308.00 282.00 C 307.68 268.89 322.34 270.59 332.00 271.00
M 150.00 302.00 
C 144.89 312.32 148.70 319.58 157.00 327.00
C 146.15 323.73 137.94 322.24 128.00 320.00
C 126.86 313.71 129.48 307.28 129.00 302.00
C 136.00 302.00 143.00 302.00 150.00 302.00
M 384.00 303.00 
C 382.88 308.14 384.69 314.20 384.00 320.00
C 374.09 322.05 367.08 323.90 357.00 326.00
C 364.60 319.27 367.98 311.82 363.00 302.00
C 369.93 302.59 377.50 300.77 384.00 303.00
M 351.00 303.00 
C 358.93 306.22 354.16 320.40 344.99 318.99 C 335.82 317.59 324.72 319.65 315.00 319.00 C 305.28 318.35 293.94 319.36 284.00 319.00 C 274.06 318.64 264.01 319.30 254.00 319.00 C 243.99 318.70 232.97 319.44 223.00 319.00 C 213.03 318.56 202.77 319.90 193.00 319.00 C 183.23 318.10 172.03 321.34 162.98 318.02 C 153.92 314.71 158.43 301.18 168.00 303.00 C 177.57 304.82 188.11 302.15 198.00 303.00 C 207.89 303.85 219.00 302.49 229.00 303.00 C 239.00 303.51 249.01 302.50 259.00 303.00 C 268.99 303.50 280.13 302.20 290.00 303.00 C 299.87 303.80 310.48 301.31 320.00 303.00 C 329.52 304.69 342.22 299.43 351.00 303.00
M 200.00 455.00 
C 188.67 455.00 177.33 455.00 166.00 455.00
C 167.07 434.02 164.58 416.31 166.00 395.00 C 167.42 373.69 150.56 367.13 131.00 369.00 C 111.44 370.87 89.97 368.09 70.00 369.00 C 50.03 369.91 46.43 344.39 49.00 329.00
C 70.36 330.69 97.19 326.74 118.00 329.00 C 138.81 331.26 155.16 335.65 174.68 341.32 C 194.19 346.99 200.99 365.03 200.00 385.00 C 199.01 404.97 200.74 434.19 200.00 455.00
M 192.00 329.00 
C 192.00 332.00 192.00 335.00 192.00 338.00
C 184.88 335.03 180.98 331.43 172.00 330.00
C 177.75 327.72 185.49 329.63 192.00 329.00
M 238.00 329.00 
C 241.06 339.38 231.02 336.97 224.00 337.00 C 216.98 337.03 209.10 336.98 202.00 337.00
C 198.94 326.62 208.98 329.03 216.00 329.00 C 223.02 328.97 230.90 329.02 238.00 329.00
M 265.00 329.00 
C 265.00 371.00 265.00 413.00 265.00 455.00
C 259.33 455.00 253.67 455.00 248.00 455.00
C 248.00 413.00 248.00 371.00 248.00 329.00
C 253.67 329.00 259.33 329.00 265.00 329.00
M 311.00 329.00 
C 314.06 339.38 304.02 336.97 297.00 337.00 C 289.98 337.03 282.10 336.98 275.00 337.00
C 271.94 326.62 281.98 329.03 289.00 329.00 C 296.02 328.97 303.90 329.02 311.00 329.00
M 341.00 329.00 
C 332.79 332.24 327.70 333.26 321.00 338.00
C 321.00 335.00 321.00 332.00 321.00 329.00
C 327.67 329.00 334.33 329.00 341.00 329.00
M 463.00 330.00 
C 465.01 344.38 462.16 369.68 442.93 369.93 C 423.69 370.17 401.00 371.23 382.00 370.00 C 363.00 368.77 344.71 372.10 346.00 394.00 C 347.29 415.90 345.03 433.49 346.00 455.00
C 334.33 455.00 322.67 455.00 311.00 455.00
C 315.83 419.87 295.44 359.10 336.08 342.08 C 376.71 325.05 418.77 331.57 463.00 330.00
M 238.00 347.00 
C 238.00 383.00 238.00 419.00 238.00 455.00
C 229.00 455.00 220.00 455.00 211.00 455.00
C 207.52 419.19 219.38 378.74 202.00 347.00
C 214.00 347.00 226.00 347.00 238.00 347.00
M 310.00 347.00 
C 292.59 378.69 304.50 419.22 301.00 455.00
C 292.33 455.00 283.67 455.00 275.00 455.00
C 275.00 419.00 275.00 383.00 275.00 347.00
C 286.67 347.00 298.33 347.00 310.00 347.00
M 138.00 380.00 
C 143.64 382.91 138.88 396.84 140.00 403.00 C 141.12 409.16 139.72 420.89 140.00 428.00 C 140.28 435.11 140.38 445.75 140.00 453.00 C 139.62 460.25 141.29 471.34 140.00 478.00 C 138.71 484.66 143.90 497.13 138.25 501.25 C 132.59 505.37 121.41 500.62 114.00 502.00 C 106.59 503.38 96.01 501.20 88.00 502.00 C 79.99 502.80 71.34 501.27 63.00 502.00 C 54.66 502.73 46.67 500.87 38.00 502.00 C 29.33 503.13 21.52 501.83 23.00 492.00 C 24.48 482.17 22.46 476.14 23.00 467.00 C 23.54 457.86 23.03 450.98 23.00 442.00 C 22.97 433.02 23.57 425.14 23.00 416.00 C 22.43 406.86 24.57 400.76 23.00 391.00 C 21.43 381.24 27.98 378.60 37.00 380.00 C 46.02 381.40 53.47 379.10 62.00 380.00 C 70.53 380.90 78.82 379.01 87.00 380.00 C 95.18 380.99 104.28 378.25 112.00 380.00 C 119.72 381.75 131.19 376.48 138.00 380.00
M 487.00 380.00 
C 492.64 382.91 487.88 396.84 489.00 403.00 C 490.12 409.16 488.72 420.89 489.00 428.00 C 489.28 435.11 489.38 445.75 489.00 453.00 C 488.62 460.25 490.29 471.34 489.00 478.00 C 487.71 484.66 492.90 497.13 487.25 501.25 C 481.59 505.36 470.41 500.62 463.00 502.00 C 455.59 503.38 445.01 501.20 437.00 502.00 C 428.99 502.80 420.34 501.27 412.00 502.00 C 403.66 502.73 395.67 500.87 387.00 502.00 C 378.33 503.13 370.52 501.83 372.00 492.00 C 373.48 482.17 371.46 476.14 372.00 467.00 C 372.54 457.86 372.03 450.98 372.00 442.00 C 371.97 433.02 372.57 425.14 372.00 416.00 C 371.43 406.86 373.57 400.76 372.00 391.00 C 370.43 381.24 376.98 378.60 386.00 380.00 C 395.02 381.41 402.47 379.10 411.00 380.00 C 419.53 380.90 427.82 379.01 436.00 380.00 C 444.18 380.99 453.28 378.25 461.00 380.00 C 468.72 381.75 480.19 376.48 487.00 380.00
M 188.00 466.00 
C 180.75 468.69 173.58 469.61 166.00 467.00
C 170.27 463.13 182.13 464.91 188.00 466.00
M 219.00 465.00 
C 218.60 467.30 218.54 470.37 217.00 472.00
C 213.53 469.46 210.91 468.12 206.00 466.00
C 209.42 463.79 214.82 465.58 219.00 465.00
M 306.00 466.00 
C 301.01 467.59 299.55 470.09 295.00 471.00
C 294.41 468.71 294.59 467.38 294.00 465.00
C 297.83 465.63 302.99 463.72 306.00 466.00
M 346.00 466.00 
C 339.54 470.53 330.95 468.82 324.00 466.00
C 330.26 464.36 339.81 464.31 346.00 466.00
M 285.00 477.00 
C 270.49 475.24 256.93 486.26 261.00 502.00
C 257.67 502.00 254.33 502.00 251.00 502.00
C 252.29 492.81 250.44 489.67 245.75 482.25 C 241.07 474.83 230.94 483.88 228.03 474.97 C 225.12 466.05 237.48 464.92 245.00 466.00 C 252.52 467.08 262.09 465.90 270.00 466.00 C 277.91 466.10 288.75 464.83 285.00 477.00
M 240.00 502.00 
C 228.47 501.79 217.59 502.28 206.00 502.00 C 194.41 501.72 183.82 502.53 172.00 502.00 C 160.18 501.47 165.16 484.58 166.00 477.00
C 175.54 482.49 185.35 477.76 194.68 474.68 C 204.00 471.59 210.38 481.18 219.23 484.77 C 228.08 488.37 245.67 486.14 240.00 502.00
M 346.00 477.00 
C 348.46 485.77 349.01 503.13 337.00 502.00 C 324.99 500.86 311.55 503.38 301.00 502.00 C 290.45 500.62 272.11 507.15 271.00 496.00 C 269.90 484.84 287.60 488.28 294.25 483.25 C 300.89 478.22 310.10 472.05 318.22 474.78 C 326.35 477.51 337.42 482.13 346.00 477.00 Z"/>
</g>
<g fill="#FFFFFF" fill-opacity="0.88" stroke="None">
<path d="
M 41.00 32.00 
C 44.50 20.70 26.11 20.55 30.00 32.00
C 19.39 28.14 19.40 46.87 30.00 43.00
C 26.62 54.10 44.14 53.95 41.00 43.00
C 52.28 46.56 52.27 28.44 41.00 32.00 Z"/>
</g>
<g fill="#FFFFFF" fill-opacity="1.00" stroke="None">
<path d="
M 303.00 71.00 
C 302.58 58.96 305.40 48.39 297.23 38.77 C 289.06 29.15 276.11 42.65 269.75 34.25 C 263.39 25.84 249.88 25.95 240.01 27.01 C 230.13 28.07 222.17 32.90 215.92 40.92 C 209.67 48.94 208.79 60.82 209.00 71.00
C 214.96 65.73 223.73 67.70 230.99 67.99 C 238.25 68.29 245.43 64.71 250.77 60.77 C 256.11 56.83 260.78 49.77 267.30 53.70 C 273.82 57.62 278.12 62.07 286.00 62.00 C 293.88 61.93 299.01 66.25 303.00 71.00 Z"/>
</g>
<g fill="#FFFFFF" fill-opacity="1.00" stroke="None">
<path d="
M 61.00 111.00 
C 73.21 114.13 77.07 108.78 77.70 98.70 C 78.32 88.61 90.13 92.26 95.30 87.30 C 100.47 82.34 112.70 84.13 119.33 82.33 C 125.96 80.52 134.27 78.37 137.22 71.22 C 140.17 64.07 138.68 55.49 132.08 50.92 C 125.47 46.35 115.74 46.82 108.22 48.22 C 100.70 49.62 95.74 54.14 89.75 58.75 C 83.76 63.36 74.61 61.25 68.23 66.23 C 61.85 71.21 59.03 77.02 58.33 85.33 C 57.63 93.64 59.90 102.81 61.00 111.00 Z"/>
</g>
<g fill="#FFFFFF" fill-opacity="1.00" stroke="None">
<path d="
M 450.00 111.00 
C 453.16 102.94 454.17 91.14 453.00 83.00 C 451.83 74.86 448.05 67.12 440.07 63.93 C 432.10 60.74 423.32 61.41 417.25 54.75 C 411.17 48.10 401.25 47.30 393.00 47.00 C 384.75 46.71 375.29 50.81 373.00 60.00 C 370.71 69.19 377.27 76.34 384.93 80.07 C 392.59 83.81 405.02 80.97 411.92 85.08 C 418.83 89.19 428.74 88.70 432.74 96.26 C 436.75 103.82 435.14 116.67 450.00 111.00 Z"/>
</g>
<g fill="#FFFFFF" fill-opacity="1.00" stroke="None">
<path d="
M 289.00 73.00 
C 279.42 72.91 270.68 69.39 263.00 64.00
C 253.32 76.28 237.17 79.19 222.00 78.00
C 217.45 105.12 224.30 141.45 258.00 139.00 C 291.70 136.54 291.11 99.27 289.00 73.00 Z"/>
</g>
<g fill="#FFFFFF" fill-opacity="1.00" stroke="None">
<path d="
M 211.00 82.00 
C 199.92 83.54 200.81 100.40 211.00 103.00
C 211.00 96.00 211.00 89.00 211.00 82.00 Z"/>
</g>
<g fill="#FFFFFF" fill-opacity="1.00" stroke="None">
<path d="
M 299.00 103.00 
C 310.33 101.83 311.17 82.13 299.00 82.00
C 299.00 89.00 299.00 96.00 299.00 103.00 Z"/>
</g>
<g fill="#FFFFFF" fill-opacity="1.00" stroke="None">
<path d="
M 127.00 92.00 
C 120.54 91.13 115.80 96.22 109.00 94.00 C 102.21 91.78 102.15 101.74 96.00 101.00 C 89.85 100.26 86.28 102.17 88.66 108.32 C 91.04 114.48 83.52 115.70 80.69 119.69 C 77.87 123.69 67.19 121.25 63.00 122.00
C 66.81 141.79 87.42 155.22 107.30 146.30 C 127.19 137.39 129.09 111.95 127.00 92.00 Z"/>
</g>
<g fill="#FFFFFF" fill-opacity="1.00" stroke="None">
<path d="
M 449.00 122.00 
C 444.92 121.15 433.97 123.77 431.25 119.75 C 428.52 115.73 420.83 114.38 423.08 108.08 C 425.32 101.77 422.35 100.28 416.08 100.92 C 409.80 101.57 410.09 91.24 403.00 94.00 C 395.91 96.76 392.59 90.55 386.00 92.00
C 383.64 111.82 384.99 138.44 405.32 146.68 C 425.66 154.92 445.11 141.36 449.00 122.00 Z"/>
</g>
<g fill="#FFFFFF" fill-opacity="0.88" stroke="None">
<path d="
M 344.00 125.00 
C 347.13 114.68 329.84 114.73 333.00 125.00
C 321.56 121.10 321.16 140.35 333.00 136.00
C 329.45 147.07 347.57 147.05 344.00 136.00
C 355.10 139.38 354.95 121.86 344.00 125.00 Z"/>
</g>
<g fill="#FFFFFF" fill-opacity="1.00" stroke="None">
<path d="
M 269.00 148.00 
C 260.15 149.39 251.70 150.06 243.00 148.00
C 243.90 155.95 246.56 169.56 256.00 169.00 C 265.44 168.44 267.66 155.86 269.00 148.00 Z"/>
</g>
<g fill="#FFFFFF" fill-opacity="1.00" stroke="None">
<path d="
M 112.00 168.00 
C 95.03 162.89 79.08 154.44 62.00 150.00
C 61.25 153.89 59.32 157.30 58.00 161.00
C 64.55 164.38 71.27 167.05 77.92 170.08 C 84.58 173.10 90.24 175.86 96.98 179.02 C 103.72 182.19 107.97 172.05 112.00 168.00 Z"/>
</g>
<g fill="#FFFFFF" fill-opacity="1.00" stroke="None">
<path d="
M 450.00 150.00 
C 432.91 154.64 416.91 162.97 400.00 168.00
C 404.11 172.34 408.96 182.53 415.77 178.77 C 422.58 175.01 429.16 173.16 435.77 169.77 C 442.38 166.38 448.60 164.81 454.00 160.00
C 451.48 157.53 451.16 153.28 450.00 150.00 Z"/>
</g>
<g fill="#FFFFFF" fill-opacity="1.00" stroke="None">
<path d="
M 236.00 162.00 
C 232.35 162.42 229.63 165.57 226.00 166.00
C 228.08 170.99 230.76 175.75 232.00 181.00
C 239.87 176.52 240.95 168.91 236.00 162.00 Z"/>
</g>
<g fill="#FFFFFF" fill-opacity="1.00" stroke="None">
<path d="
M 286.00 166.00 
C 282.35 165.58 279.63 162.43 276.00 162.00
C 270.00 168.62 272.66 176.62 280.00 181.00
C 281.25 175.72 283.91 171.00 286.00 166.00 Z"/>
</g>
<g fill="#FFFFFF" fill-opacity="1.00" stroke="None">
<path d="
M 333.00 260.00 
C 332.49 250.74 331.74 238.91 331.00 230.00 C 330.26 221.09 330.44 208.20 329.78 200.22 C 329.12 192.24 330.45 178.41 321.68 176.32 C 312.91 174.23 305.25 169.25 297.03 170.03 C 288.81 170.81 292.65 184.42 285.90 189.90 C 279.15 195.38 272.06 188.56 267.75 182.25 C 263.44 175.94 247.15 176.32 243.75 182.75 C 240.35 189.18 231.07 195.41 225.31 189.69 C 219.54 183.98 222.32 169.65 214.07 170.07 C 205.83 170.49 197.72 173.76 189.25 176.25 C 180.77 178.73 183.09 193.22 182.00 201.00 C 180.91 208.78 181.66 222.06 180.78 230.78 C 179.90 239.50 179.09 250.80 179.00 260.00
C 186.40 260.01 193.94 259.64 201.00 261.00
C 202.39 253.28 199.15 243.51 201.00 236.00 C 202.85 228.49 196.64 218.68 202.75 212.75 C 208.87 206.83 212.46 218.25 211.00 225.00 C 209.54 231.75 211.56 242.77 211.00 250.00 C 210.44 257.23 210.09 266.63 213.07 272.93 C 216.06 279.22 215.27 286.10 212.00 292.00
C 241.33 292.00 270.67 292.00 300.00 292.00
C 296.20 285.87 296.48 278.68 299.23 272.23 C 301.97 265.78 301.62 256.31 301.00 249.00 C 300.38 241.69 302.92 231.98 301.00 225.00 C 299.08 218.02 303.85 206.37 309.74 213.26 C 315.63 220.15 308.82 229.26 311.00 237.00 C 313.18 244.74 309.36 253.19 311.00 261.00
C 318.09 259.65 325.57 260.00 333.00 260.00
M 259.00 192.00 
C 264.08 194.48 259.24 204.55 253.78 201.22 C 248.31 197.89 252.66 188.91 259.00 192.00
M 259.00 212.00 
C 263.95 214.42 259.57 224.16 253.92 221.06 C 248.27 217.96 252.37 208.76 259.00 212.00
M 291.00 221.00 
C 295.51 223.33 292.31 231.75 286.97 230.97 C 281.64 230.20 275.22 232.21 269.93 230.07 C 264.63 227.93 267.39 219.12 273.00 221.00 C 278.61 222.89 285.92 218.37 291.00 221.00
M 258.00 231.00 
C 263.56 232.63 260.35 242.88 254.33 240.67 C 248.31 238.45 251.92 229.21 258.00 231.00
M 259.00 251.00 
C 264.17 253.46 259.29 263.19 253.78 260.22 C 248.26 257.24 252.78 248.04 259.00 251.00
M 259.00 271.00 
C 264.08 273.48 259.24 283.55 253.78 280.22 C 248.31 276.89 252.66 267.91 259.00 271.00 Z"/>
</g>
<g fill="#FFFFFF" fill-opacity="1.00" stroke="None">
<path d="
M 114.00 183.00 
C 96.89 201.13 73.93 175.95 55.00 171.00
C 24.95 214.15 49.48 270.27 48.00 319.00
C 71.67 319.00 95.33 319.00 119.00 319.00
C 119.00 313.00 119.00 307.00 119.00 301.00
C 99.30 296.57 90.62 280.23 82.92 262.08 C 75.23 243.92 65.90 232.81 58.33 212.67 C 50.76 192.53 86.12 175.80 96.23 195.77 C 106.34 215.74 112.68 225.35 121.00 245.00
C 124.35 224.38 120.03 202.44 114.00 183.00 Z"/>
</g>
<g fill="#FFFFFF" fill-opacity="1.00" stroke="None">
<path d="
M 457.00 171.00 
C 438.02 175.18 414.38 202.22 398.00 182.00
C 392.52 201.48 385.82 223.92 391.00 244.00
C 400.83 225.34 405.20 213.39 416.25 194.25 C 427.29 175.11 462.07 194.15 453.31 213.31 C 444.54 232.46 437.24 245.35 428.77 262.77 C 420.30 280.19 412.82 296.88 393.00 301.00
C 393.00 307.00 393.00 313.00 393.00 319.00
C 416.67 319.00 440.33 319.00 464.00 319.00
C 462.61 269.95 486.08 214.64 457.00 171.00 Z"/>
</g>
<g fill="#000000" fill-opacity="1.00" stroke="None">
<path d="
M 259.00 192.00 
C 252.66 188.91 248.31 197.89 253.78 201.22 C 259.24 204.55 264.08 194.48 259.00 192.00 Z"/>
</g>
<g fill="#FFFFFF" fill-opacity="1.00" stroke="None">
<path d="
M 170.00 270.00 
C 157.42 269.12 140.11 271.17 128.00 270.00 C 115.90 268.82 117.11 252.74 110.77 245.23 C 104.43 237.72 103.22 225.50 96.92 218.08 C 90.62 210.66 90.84 194.46 77.67 196.67 C 64.51 198.88 68.82 214.06 74.69 222.31 C 80.57 230.55 82.93 240.85 88.23 249.77 C 93.52 258.69 97.21 268.10 102.70 277.30 C 108.19 286.51 117.35 292.61 129.00 293.00 C 140.65 293.39 157.84 292.70 170.00 293.00
C 170.00 285.33 170.00 277.67 170.00 270.00 Z"/>
</g>
<g fill="#FFFFFF" fill-opacity="1.00" stroke="None">
<path d="
M 342.00 293.00 
C 354.55 292.86 371.85 293.22 383.93 292.93 C 396.00 292.63 404.05 285.90 409.75 276.75 C 415.44 267.60 418.46 258.57 423.70 249.69 C 428.93 240.82 431.73 229.89 438.08 222.08 C 444.42 214.26 446.85 197.02 434.01 196.01 C 421.16 194.99 421.02 210.67 415.31 218.31 C 409.59 225.94 407.30 238.37 400.92 245.92 C 394.55 253.48 395.51 269.69 383.00 270.00 C 370.49 270.31 354.80 269.77 342.00 270.00
C 342.00 277.67 342.00 285.33 342.00 293.00 Z"/>
</g>
<g fill="#000000" fill-opacity="1.00" stroke="None">
<path d="
M 259.00 212.00 
C 252.37 208.76 248.27 217.96 253.92 221.06 C 259.57 224.16 263.95 214.42 259.00 212.00 Z"/>
</g>
<g fill="#000000" fill-opacity="1.00" stroke="None">
<path d="
M 291.00 221.00 
C 285.92 218.37 278.61 222.89 273.00 221.00 C 267.39 219.12 264.63 227.93 269.93 230.07 C 275.22 232.21 281.64 230.20 286.97 230.97 C 292.31 231.75 295.51 223.33 291.00 221.00 Z"/>
</g>
<g fill="#000000" fill-opacity="1.00" stroke="None">
<path d="
M 258.00 231.00 
C 251.92 229.21 248.31 238.45 254.33 240.67 C 260.35 242.88 263.56 232.63 258.00 231.00 Z"/>
</g>
<g fill="#000000" fill-opacity="1.00" stroke="None">
<path d="
M 259.00 251.00 
C 252.78 248.04 248.26 257.24 253.78 260.22 C 259.29 263.19 264.17 253.46 259.00 251.00 Z"/>
</g>
<g fill="#FFFFFF" fill-opacity="1.00" stroke="None">
<path d="
M 180.00 292.00 
C 189.64 292.39 204.51 294.29 204.00 281.00 C 203.48 267.71 189.38 271.44 180.00 271.00
C 180.00 278.00 180.00 285.00 180.00 292.00 Z"/>
</g>
<g fill="#000000" fill-opacity="1.00" stroke="None">
<path d="
M 259.00 271.00 
C 252.66 267.91 248.31 276.89 253.78 280.22 C 259.24 283.55 264.08 273.48 259.00 271.00 Z"/>
</g>
<g fill="#FFFFFF" fill-opacity="1.00" stroke="None">
<path d="
M 332.00 271.00 
C 322.34 270.59 307.68 268.89 308.00 282.00 C 308.33 295.11 322.77 291.70 332.00 292.00
C 332.00 285.00 332.00 278.00 332.00 271.00 Z"/>
</g>
<g fill="#000000" fill-opacity="0.09" stroke="None">
<path d="
M 150.00 302.00 
C 143.00 302.00 136.00 302.00 129.00 302.00
C 129.48 307.28 126.86 313.71 128.00 320.00
C 137.94 322.24 146.15 323.73 157.00 327.00
C 148.70 319.58 144.89 312.32 150.00 302.00 Z"/>
</g>
<g fill="#000000" fill-opacity="0.08" stroke="None">
<path d="
M 384.00 303.00 
C 377.50 300.77 369.93 302.59 363.00 302.00
C 367.98 311.82 364.60 319.27 357.00 326.00
C 367.08 323.90 374.09 322.05 384.00 320.00
C 384.69 314.20 382.88 308.14 384.00 303.00 Z"/>
</g>
<g fill="#FFFFFF" fill-opacity="1.00" stroke="None">
<path d="
M 351.00 303.00 
C 342.22 299.43 329.52 304.69 320.00 303.00 C 310.48 301.31 299.87 303.80 290.00 303.00 C 280.13 302.20 268.99 303.50 259.00 303.00 C 249.01 302.50 239.00 303.51 229.00 303.00 C 219.00 302.49 207.89 303.85 198.00 303.00 C 188.11 302.15 177.57 304.82 168.00 303.00 C 158.43 301.18 153.92 314.71 162.98 318.02 C 172.03 321.34 183.23 318.10 193.00 319.00 C 202.77 319.90 213.03 318.56 223.00 319.00 C 232.97 319.44 243.99 318.70 254.00 319.00 C 264.01 319.30 274.06 318.64 284.00 319.00 C 293.94 319.36 305.28 318.35 315.00 319.00 C 324.72 319.65 335.82 317.59 344.99 318.99 C 354.16 320.40 358.93 306.22 351.00 303.00 Z"/>
</g>
<g fill="#FFFFFF" fill-opacity="1.00" stroke="None">
<path d="
M 200.00 455.00 
C 200.74 434.19 199.01 404.97 200.00 385.00 C 200.99 365.03 194.19 346.99 174.68 341.32 C 155.16 335.65 138.81 331.26 118.00 329.00 C 97.19 326.74 70.36 330.69 49.00 329.00
C 46.43 344.39 50.03 369.91 70.00 369.00 C 89.97 368.09 111.44 370.87 131.00 369.00 C 150.56 367.13 167.42 373.69 166.00 395.00 C 164.58 416.31 167.07 434.02 166.00 455.00
C 177.33 455.00 188.67 455.00 200.00 455.00 Z"/>
</g>
<g fill="#000000" fill-opacity="0.11" stroke="None">
<path d="
M 192.00 329.00 
C 185.49 329.63 177.75 327.72 172.00 330.00
C 180.98 331.43 184.88 335.03 192.00 338.00
C 192.00 335.00 192.00 332.00 192.00 329.00 Z"/>
</g>
<g fill="#FFFFFF" fill-opacity="1.00" stroke="None">
<path d="
M 238.00 329.00 
C 230.90 329.02 223.02 328.97 216.00 329.00 C 208.98 329.03 198.94 326.62 202.00 337.00
C 209.10 336.98 216.98 337.03 224.00 337.00 C 231.02 336.97 241.06 339.38 238.00 329.00 Z"/>
</g>
<g fill="#FFFFFF" fill-opacity="1.00" stroke="None">
<path d="
M 265.00 329.00 
C 259.33 329.00 253.67 329.00 248.00 329.00
C 248.00 371.00 248.00 413.00 248.00 455.00
C 253.67 455.00 259.33 455.00 265.00 455.00
C 265.00 413.00 265.00 371.00 265.00 329.00 Z"/>
</g>
<g fill="#FFFFFF" fill-opacity="1.00" stroke="None">
<path d="
M 311.00 329.00 
C 303.90 329.02 296.02 328.97 289.00 329.00 C 281.98 329.03 271.94 326.62 275.00 337.00
C 282.10 336.98 289.98 337.03 297.00 337.00 C 304.02 336.97 314.06 339.38 311.00 329.00 Z"/>
</g>
<g fill="#000000" fill-opacity="0.11" stroke="None">
<path d="
M 341.00 329.00 
C 334.33 329.00 327.67 329.00 321.00 329.00
C 321.00 332.00 321.00 335.00 321.00 338.00
C 327.70 333.26 332.79 332.24 341.00 329.00 Z"/>
</g>
<g fill="#FFFFFF" fill-opacity="1.00" stroke="None">
<path d="
M 463.00 330.00 
C 418.77 331.57 376.71 325.05 336.08 342.08 C 295.44 359.10 315.83 419.87 311.00 455.00
C 322.67 455.00 334.33 455.00 346.00 455.00
C 345.03 433.49 347.29 415.90 346.00 394.00 C 344.71 372.10 363.00 368.77 382.00 370.00 C 401.00 371.23 423.69 370.17 442.93 369.93 C 462.16 369.68 465.01 344.38 463.00 330.00 Z"/>
</g>
<g fill="#FFFFFF" fill-opacity="1.00" stroke="None">
<path d="
M 238.00 347.00 
C 226.00 347.00 214.00 347.00 202.00 347.00
C 219.38 378.74 207.52 419.19 211.00 455.00
C 220.00 455.00 229.00 455.00 238.00 455.00
C 238.00 419.00 238.00 383.00 238.00 347.00 Z"/>
</g>
<g fill="#FFFFFF" fill-opacity="1.00" stroke="None">
<path d="
M 310.00 347.00 
C 298.33 347.00 286.67 347.00 275.00 347.00
C 275.00 383.00 275.00 419.00 275.00 455.00
C 283.67 455.00 292.33 455.00 301.00 455.00
C 304.50 419.22 292.59 378.69 310.00 347.00 Z"/>
</g>
<g fill="#FFFFFF" fill-opacity="1.00" stroke="None">
<path d="
M 138.00 380.00 
C 131.19 376.48 119.72 381.75 112.00 380.00 C 104.28 378.25 95.18 380.99 87.00 380.00 C 78.82 379.01 70.53 380.90 62.00 380.00 C 53.47 379.10 46.02 381.40 37.00 380.00 C 27.98 378.60 21.43 381.24 23.00 391.00 C 24.57 400.76 22.43 406.86 23.00 416.00 C 23.57 425.14 22.97 433.02 23.00 442.00 C 23.03 450.98 23.54 457.86 23.00 467.00 C 22.46 476.14 24.48 482.17 23.00 492.00 C 21.52 501.83 29.33 503.13 38.00 502.00 C 46.67 500.87 54.66 502.73 63.00 502.00 C 71.34 501.27 79.99 502.80 88.00 502.00 C 96.01 501.20 106.59 503.38 114.00 502.00 C 121.41 500.62 132.59 505.37 138.25 501.25 C 143.90 497.13 138.71 484.66 140.00 478.00 C 141.29 471.34 139.62 460.25 140.00 453.00 C 140.38 445.75 140.28 435.11 140.00 428.00 C 139.72 420.89 141.12 409.16 140.00 403.00 C 138.88 396.84 143.64 382.91 138.00 380.00 Z"/>
</g>
<g fill="#FFFFFF" fill-opacity="1.00" stroke="None">
<path d="
M 487.00 380.00 
C 480.19 376.48 468.72 381.75 461.00 380.00 C 453.28 378.25 444.18 380.99 436.00 380.00 C 427.82 379.01 419.53 380.90 411.00 380.00 C 402.47 379.10 395.02 381.41 386.00 380.00 C 376.98 378.60 370.43 381.24 372.00 391.00 C 373.57 400.76 371.43 406.86 372.00 416.00 C 372.57 425.14 371.97 433.02 372.00 442.00 C 372.03 450.98 372.54 457.86 372.00 467.00 C 371.46 476.14 373.48 482.17 372.00 492.00 C 370.52 501.83 378.33 503.13 387.00 502.00 C 395.67 500.87 403.66 502.73 412.00 502.00 C 420.34 501.27 428.99 502.80 437.00 502.00 C 445.01 501.20 455.59 503.38 463.00 502.00 C 470.41 500.62 481.59 505.36 487.25 501.25 C 492.90 497.13 487.71 484.66 489.00 478.00 C 490.29 471.34 488.62 460.25 489.00 453.00 C 489.38 445.75 489.28 435.11 489.00 428.00 C 488.72 420.89 490.12 409.16 489.00 403.00 C 487.88 396.84 492.64 382.91 487.00 380.00 Z"/>
</g>
<g fill="#000000" fill-opacity="0.09" stroke="None">
<path d="
M 138.00 512.00 
L 167.00 512.00
C 153.26 506.09 154.17 495.10 155.80 481.25 C 157.43 467.39 156.26 445.71 156.00 429.00 C 155.74 412.29 160.90 388.29 149.00 381.00
C 149.78 403.45 151.40 433.81 150.00 456.00 C 148.60 478.19 157.91 505.15 138.00 512.00 Z"/>
</g>
<g fill="#000000" fill-opacity="0.04" stroke="None">
<path d="
M 344.00 512.00 
L 371.00 512.00
C 355.74 500.86 363.12 475.97 362.00 454.00 C 360.88 432.03 362.02 403.13 363.00 381.00
C 351.62 387.73 357.93 412.31 357.00 428.00 C 356.07 443.69 356.04 465.60 356.80 478.75 C 357.56 491.91 359.72 501.03 349.00 511.00
C 347.42 509.84 345.19 510.84 344.00 512.00 Z"/>
</g>
<g fill="#FFFFFF" fill-opacity="1.00" stroke="None">
<path d="
M 188.00 466.00 
C 182.13 464.91 170.27 463.13 166.00 467.00
C 173.58 469.61 180.75 468.69 188.00 466.00 Z"/>
</g>
<g fill="#000000" fill-opacity="0.19" stroke="None">
<path d="
M 219.00 465.00 
C 214.82 465.58 209.42 463.79 206.00 466.00
C 210.91 468.12 213.53 469.46 217.00 472.00
C 218.54 470.37 218.60 467.30 219.00 465.00 Z"/>
</g>
<g fill="#000000" fill-opacity="0.18" stroke="None">
<path d="
M 306.00 466.00 
C 302.99 463.72 297.83 465.63 294.00 465.00
C 294.59 467.38 294.41 468.71 295.00 471.00
C 299.55 470.09 301.01 467.59 306.00 466.00 Z"/>
</g>
<g fill="#FFFFFF" fill-opacity="1.00" stroke="None">
<path d="
M 346.00 466.00 
C 339.81 464.31 330.26 464.36 324.00 466.00
C 330.95 468.82 339.54 470.53 346.00 466.00 Z"/>
</g>
<g fill="#FFFFFF" fill-opacity="1.00" stroke="None">
<path d="
M 285.00 477.00 
C 288.75 464.83 277.91 466.10 270.00 466.00 C 262.09 465.90 252.52 467.08 245.00 466.00 C 237.48 464.92 225.12 466.05 228.03 474.97 C 230.94 483.88 241.07 474.83 245.75 482.25 C 250.44 489.67 252.29 492.81 251.00 502.00
C 254.33 502.00 257.67 502.00 261.00 502.00
C 256.93 486.26 270.49 475.24 285.00 477.00 Z"/>
</g>
<g fill="#FFFFFF" fill-opacity="1.00" stroke="None">
<path d="
M 240.00 502.00 
C 245.67 486.14 228.08 488.37 219.23 484.77 C 210.38 481.18 204.00 471.59 194.68 474.68 C 185.35 477.76 175.54 482.49 166.00 477.00
C 165.16 484.58 160.18 501.47 172.00 502.00 C 183.82 502.53 194.41 501.72 206.00 502.00 C 217.59 502.28 228.47 501.79 240.00 502.00 Z"/>
</g>
<g fill="#FFFFFF" fill-opacity="1.00" stroke="None">
<path d="
M 346.00 477.00 
C 337.42 482.13 326.35 477.51 318.22 474.78 C 310.10 472.05 300.89 478.22 294.25 483.25 C 287.60 488.28 269.90 484.84 271.00 496.00 C 272.11 507.15 290.45 500.62 301.00 502.00 C 311.55 503.38 324.99 500.86 337.00 502.00 C 349.01 503.13 348.46 485.77 346.00 477.00 Z"/>
</g>
</svg>