<svg xmlns="http://www.w3.org/2000/svg" xmlns:v="https://svgstorm.com"
viewBox = "0 0 512 512"
width="512"
height="512">
<g fill="None" fill-opacity="0.0" stroke="#000000" stroke-opacity="0.00" stroke-width="0.3"><path d="
M 0.00 265.00 
C 6.71 213.25 79.04 196.39 120.00 222.00
C 120.48 195.67 119.37 166.00 120.00 140.00 C 120.63 114.00 118.79 82.77 120.00 58.00 C 121.21 33.23 112.44 7.23 133.00 0.00
L 0.00 0.00
L 0.00 265.00 Z"/>
</g>
<g fill="None" fill-opacity="0.0" stroke="#000000" stroke-opacity="0.99" stroke-width="0.3"><path d="
M 0.00 265.00 
L 0.00 277.00
C 1.80 293.52 16.40 310.19 31.25 318.19 C 46.11 326.19 63.23 332.65 84.25 329.20 C 105.26 325.74 115.14 324.88 131.30 309.30 C 147.45 293.72 151.25 281.22 150.00 252.00 C 148.75 222.78 150.65 184.99 150.00 154.00 C 149.35 123.01 150.48 86.49 150.00 55.00
C 160.98 66.27 172.04 80.68 180.24 92.77 C 188.43 104.86 194.76 117.39 200.58 128.77 C 206.39 140.15 212.50 160.18 208.81 174.25 C 205.12 188.33 197.54 201.14 184.77 213.77 C 172.00 226.40 188.59 247.63 202.77 237.42 C 216.95 227.22 225.12 210.35 231.58 199.23 C 238.03 188.11 241.79 168.20 239.20 152.75 C 236.61 137.30 231.75 123.54 225.81 111.75 C 219.87 99.95 212.33 86.75 204.20 74.75 C 196.07 62.75 184.33 47.84 174.10 35.90 C 163.87 23.96 153.32 7.92 137.00 0.00
L 133.00 0.00
C 112.44 7.23 121.21 33.23 120.00 58.00 C 118.79 82.77 120.63 114.00 120.00 140.00 C 119.37 166.00 120.48 195.67 120.00 222.00
C 79.04 196.39 6.71 213.25 0.00 265.00
M 65.00 240.00 
C 84.18 236.83 110.58 243.67 118.19 262.25 C 125.79 280.84 102.19 299.40 83.25 299.40 C 64.32 299.40 38.76 297.96 31.10 277.90 C 23.44 257.84 48.54 242.72 65.00 240.00 Z"/>
</g>
<g fill="None" fill-opacity="0.0" stroke="#000000" stroke-opacity="0.00" stroke-width="0.3"><path d="
M 0.00 277.00 
L 0.00 512.00
L 216.00 512.00
C 195.74 509.13 175.06 499.30 162.29 482.70 C 149.51 466.10 148.55 444.70 159.09 427.08 C 169.62 409.47 188.21 396.82 208.25 393.24 C 228.29 389.67 257.71 393.68 272.00 404.00
C 270.52 372.64 273.97 339.15 272.00 308.00 C 270.03 276.85 275.78 242.37 272.00 212.00 C 268.22 181.63 287.59 182.12 302.70 174.65 C 317.81 167.18 330.26 163.22 344.70 156.65 C 359.14 150.08 372.64 144.70 386.70 138.65 C 400.76 132.59 414.84 126.19 428.70 120.65 C 442.56 115.11 456.68 107.65 470.70 102.65 C 484.72 97.64 501.75 82.67 512.00 103.00
L 512.00 0.00
L 137.00 0.00
C 153.32 7.92 163.87 23.96 174.10 35.90 C 184.33 47.84 196.07 62.75 204.20 74.75 C 212.33 86.75 219.87 99.95 225.81 111.75 C 231.75 123.54 236.61 137.30 239.20 152.75 C 241.79 168.20 238.03 188.11 231.58 199.23 C 225.12 210.35 216.95 227.22 202.77 237.42 C 188.59 247.63 172.00 226.40 184.77 213.77 C 197.54 201.14 205.12 188.33 208.81 174.25 C 212.50 160.18 206.39 140.15 200.58 128.77 C 194.76 117.39 188.43 104.86 180.24 92.77 C 172.04 80.68 160.98 66.27 150.00 55.00
C 150.48 86.49 149.35 123.01 150.00 154.00 C 150.65 184.99 148.75 222.78 150.00 252.00 C 151.25 281.22 147.45 293.72 131.30 309.30 C 115.14 324.88 105.26 325.74 84.25 329.20 C 63.23 332.65 46.11 326.19 31.25 318.19 C 16.40 310.19 1.80 293.52 0.00 277.00 Z"/>
</g>
<g fill="None" fill-opacity="0.0" stroke="#000000" stroke-opacity="0.99" stroke-width="0.3"><path d="
M 216.00 512.00 
L 238.00 512.00
C 260.99 506.88 279.34 501.14 293.39 479.25 C 307.45 457.35 300.97 421.83 302.00 386.00 C 303.03 350.17 301.23 302.87 302.00 266.00
C 362.43 242.41 421.50 214.81 482.00 190.00
C 482.00 231.33 482.00 272.67 482.00 314.00
C 464.96 300.78 430.58 300.02 408.90 306.91 C 387.22 313.79 368.01 328.78 362.74 352.75 C 357.46 376.72 375.32 401.64 394.77 412.24 C 414.22 422.83 443.10 424.22 465.25 417.81 C 487.40 411.40 507.93 392.32 512.00 368.00
L 512.00 103.00
C 501.75 82.67 484.72 97.64 470.70 102.65 C 456.68 107.65 442.56 115.11 428.70 120.65 C 414.84 126.19 400.76 132.59 386.70 138.65 C 372.64 144.70 359.14 150.08 344.70 156.65 C 330.26 163.22 317.81 167.18 302.70 174.65 C 287.59 182.12 268.22 181.63 272.00 212.00 C 275.78 242.37 270.03 276.85 272.00 308.00 C 273.97 339.15 270.52 372.64 272.00 404.00
C 257.71 393.68 228.29 389.67 208.25 393.24 C 188.21 396.82 169.62 409.47 159.09 427.08 C 148.55 444.70 149.51 466.10 162.29 482.70 C 175.06 499.30 195.74 509.13 216.00 512.00
M 482.00 130.00 
C 482.00 139.33 482.00 148.67 482.00 158.00
C 421.99 181.50 361.99 209.57 302.00 234.00
C 302.00 224.67 302.00 215.33 302.00 206.00
C 362.43 182.41 421.50 154.81 482.00 130.00
M 427.00 332.00 
C 446.18 328.83 472.58 335.67 480.19 354.25 C 487.79 372.84 464.19 391.40 445.25 391.40 C 426.31 391.40 400.76 389.96 393.10 369.90 C 385.44 349.84 410.54 334.72 427.00 332.00
M 217.00 422.00 
C 236.18 418.83 262.58 425.67 270.19 444.25 C 277.79 462.84 254.19 481.40 235.25 481.40 C 216.32 481.40 190.76 479.96 183.10 459.90 C 175.44 439.84 200.54 424.72 217.00 422.00 Z"/>
</g>
<g fill="None" fill-opacity="0.0" stroke="#000000" stroke-opacity="0.03" stroke-width="0.3"><path d="
M 482.00 130.00 
C 421.50 154.81 362.43 182.41 302.00 206.00
C 302.00 215.33 302.00 224.67 302.00 234.00
C 361.99 209.57 421.99 181.50 482.00 158.00
C 482.00 148.67 482.00 139.33 482.00 130.00 Z"/>
</g>
<g fill="None" fill-opacity="0.0" stroke="#000000" stroke-opacity="0.00" stroke-width="0.3"><path d="
M 238.00 512.00 
L 512.00 512.00
L 512.00 368.00
C 507.93 392.32 487.40 411.40 465.25 417.81 C 443.10 424.22 414.22 422.83 394.77 412.24 C 375.32 401.64 357.46 376.72 362.74 352.75 C 368.01 328.78 387.22 313.79 408.90 306.91 C 430.58 300.02 464.96 300.78 482.00 314.00
C 482.00 272.67 482.00 231.33 482.00 190.00
C 421.50 214.81 362.43 242.41 302.00 266.00
C 301.23 302.87 303.03 350.17 302.00 386.00 C 300.97 421.83 307.45 457.35 293.39 479.25 C 279.34 501.14 260.99 506.88 238.00 512.00 Z"/>
</g>
<g fill="None" fill-opacity="0.0" stroke="#000000" stroke-opacity="0.02" stroke-width="0.3"><path d="
M 65.00 240.00 
C 48.54 242.72 23.44 257.84 31.10 277.90 C 38.76 297.96 64.32 299.40 83.25 299.40 C 102.19 299.40 125.79 280.84 118.19 262.25 C 110.58 243.67 84.18 236.83 65.00 240.00 Z"/>
</g>
<g fill="None" fill-opacity="0.0" stroke="#000000" stroke-opacity="0.02" stroke-width="0.3"><path d="
M 427.00 332.00 
C 410.54 334.72 385.44 349.84 393.10 369.90 C 400.76 389.96 426.31 391.40 445.25 391.40 C 464.19 391.40 487.79 372.84 480.19 354.25 C 472.58 335.67 446.18 328.83 427.00 332.00 Z"/>
</g>
<g fill="None" fill-opacity="0.0" stroke="#000000" stroke-opacity="0.02" stroke-width="0.3"><path d="
M 217.00 422.00 
C 200.54 424.72 175.44 439.84 183.10 459.90 C 190.76 479.96 216.32 481.40 235.25 481.40 C 254.19 481.40 277.79 462.84 270.19 444.25 C 262.58 425.67 236.18 418.83 217.00 422.00 Z"/>
</g>
<g fill="#000000" fill-opacity="0.00" stroke="None">
<path d="
M 0.00 265.00 
C 6.71 213.25 79.04 196.39 120.00 222.00
C 120.48 195.67 119.37 166.00 120.00 140.00 C 120.63 114.00 118.79 82.77 120.00 58.00 C 121.21 33.23 112.44 7.23 133.00 0.00
L 0.00 0.00
L 0.00 265.00 Z"/>
</g>
<g fill="#000000" fill-opacity="0.99" stroke="None">
<path d="
M 0.00 265.00 
L 0.00 277.00
C 1.80 293.52 16.40 310.19 31.25 318.19 C 46.11 326.19 63.23 332.65 84.25 329.20 C 105.26 325.74 115.14 324.88 131.30 309.30 C 147.45 293.72 151.25 281.22 150.00 252.00 C 148.75 222.78 150.65 184.99 150.00 154.00 C 149.35 123.01 150.48 86.49 150.00 55.00
C 160.98 66.27 172.04 80.68 180.24 92.77 C 188.43 104.86 194.76 117.39 200.58 128.77 C 206.39 140.15 212.50 160.18 208.81 174.25 C 205.12 188.33 197.54 201.14 184.77 213.77 C 172.00 226.40 188.59 247.63 202.77 237.42 C 216.95 227.22 225.12 210.35 231.58 199.23 C 238.03 188.11 241.79 168.20 239.20 152.75 C 236.61 137.30 231.75 123.54 225.81 111.75 C 219.87 99.95 212.33 86.75 204.20 74.75 C 196.07 62.75 184.33 47.84 174.10 35.90 C 163.87 23.96 153.32 7.92 137.00 0.00
L 133.00 0.00
C 112.44 7.23 121.21 33.23 120.00 58.00 C 118.79 82.77 120.63 114.00 120.00 140.00 C 119.37 166.00 120.48 195.67 120.00 222.00
C 79.04 196.39 6.71 213.25 0.00 265.00
M 65.00 240.00 
C 84.18 236.83 110.58 243.67 118.19 262.25 C 125.79 280.84 102.19 299.40 83.25 299.40 C 64.32 299.40 38.76 297.96 31.10 277.90 C 23.44 257.84 48.54 242.72 65.00 240.00 Z"/>
</g>
<g fill="#000000" fill-opacity="0.00" stroke="None">
<path d="
M 0.00 277.00 
L 0.00 512.00
L 216.00 512.00
C 195.74 509.13 175.06 499.30 162.29 482.70 C 149.51 466.10 148.55 444.70 159.09 427.08 C 169.62 409.47 188.21 396.82 208.25 393.24 C 228.29 389.67 257.71 393.68 272.00 404.00
C 270.52 372.64 273.97 339.15 272.00 308.00 C 270.03 276.85 275.78 242.37 272.00 212.00 C 268.22 181.63 287.59 182.12 302.70 174.65 C 317.81 167.18 330.26 163.22 344.70 156.65 C 359.14 150.08 372.64 144.70 386.70 138.65 C 400.76 132.59 414.84 126.19 428.70 120.65 C 442.56 115.11 456.68 107.65 470.70 102.65 C 484.72 97.64 501.75 82.67 512.00 103.00
L 512.00 0.00
L 137.00 0.00
C 153.32 7.92 163.87 23.96 174.10 35.90 C 184.33 47.84 196.07 62.75 204.20 74.75 C 212.33 86.75 219.87 99.95 225.81 111.75 C 231.75 123.54 236.61 137.30 239.20 152.75 C 241.79 168.20 238.03 188.11 231.58 199.23 C 225.12 210.35 216.95 227.22 202.77 237.42 C 188.59 247.63 172.00 226.40 184.77 213.77 C 197.54 201.14 205.12 188.33 208.81 174.25 C 212.50 160.18 206.39 140.15 200.58 128.77 C 194.76 117.39 188.43 104.86 180.24 92.77 C 172.04 80.68 160.98 66.27 150.00 55.00
C 150.48 86.49 149.35 123.01 150.00 154.00 C 150.65 184.99 148.75 222.78 150.00 252.00 C 151.25 281.22 147.45 293.72 131.30 309.30 C 115.14 324.88 105.26 325.74 84.25 329.20 C 63.23 332.65 46.11 326.19 31.25 318.19 C 16.40 310.19 1.80 293.52 0.00 277.00 Z"/>
</g>
<g fill="#000000" fill-opacity="0.99" stroke="None">
<path d="
M 216.00 512.00 
L 238.00 512.00
C 260.99 506.88 279.34 501.14 293.39 479.25 C 307.45 457.35 300.97 421.83 302.00 386.00 C 303.03 350.17 301.23 302.87 302.00 266.00
C 362.43 242.41 421.50 214.81 482.00 190.00
C 482.00 231.33 482.00 272.67 482.00 314.00
C 464.96 300.78 430.58 300.02 408.90 306.91 C 387.22 313.79 368.01 328.78 362.74 352.75 C 357.46 376.72 375.32 401.64 394.77 412.24 C 414.22 422.83 443.10 424.22 465.25 417.81 C 487.40 411.40 507.93 392.32 512.00 368.00
L 512.00 103.00
C 501.75 82.67 484.72 97.64 470.70 102.65 C 456.68 107.65 442.56 115.11 428.70 120.65 C 414.84 126.19 400.76 132.59 386.70 138.65 C 372.64 144.70 359.14 150.08 344.70 156.65 C 330.26 163.22 317.81 167.18 302.70 174.65 C 287.59 182.12 268.22 181.63 272.00 212.00 C 275.78 242.37 270.03 276.85 272.00 308.00 C 273.97 339.15 270.52 372.64 272.00 404.00
C 257.71 393.68 228.29 389.67 208.25 393.24 C 188.21 396.82 169.62 409.47 159.09 427.08 C 148.55 444.70 149.51 466.10 162.29 482.70 C 175.06 499.30 195.74 509.13 216.00 512.00
M 482.00 130.00 
C 482.00 139.33 482.00 148.67 482.00 158.00
C 421.99 181.50 361.99 209.57 302.00 234.00
C 302.00 224.67 302.00 215.33 302.00 206.00
C 362.43 182.41 421.50 154.81 482.00 130.00
M 427.00 332.00 
C 446.18 328.83 472.58 335.67 480.19 354.25 C 487.79 372.84 464.19 391.40 445.25 391.40 C 426.31 391.40 400.76 389.96 393.10 369.90 C 385.44 349.84 410.54 334.72 427.00 332.00
M 217.00 422.00 
C 236.18 418.83 262.58 425.67 270.19 444.25 C 277.79 462.84 254.19 481.40 235.25 481.40 C 216.32 481.40 190.76 479.96 183.10 459.90 C 175.44 439.84 200.54 424.72 217.00 422.00 Z"/>
</g>
<g fill="#000000" fill-opacity="0.03" stroke="None">
<path d="
M 482.00 130.00 
C 421.50 154.81 362.43 182.41 302.00 206.00
C 302.00 215.33 302.00 224.67 302.00 234.00
C 361.99 209.57 421.99 181.50 482.00 158.00
C 482.00 148.67 482.00 139.33 482.00 130.00 Z"/>
</g>
<g fill="#000000" fill-opacity="0.00" stroke="None">
<path d="
M 238.00 512.00 
L 512.00 512.00
L 512.00 368.00
C 507.93 392.32 487.40 411.40 465.25 417.81 C 443.10 424.22 414.22 422.83 394.77 412.24 C 375.32 401.64 357.46 376.72 362.74 352.75 C 368.01 328.78 387.22 313.79 408.90 306.91 C 430.58 300.02 464.96 300.78 482.00 314.00
C 482.00 272.67 482.00 231.33 482.00 190.00
C 421.50 214.81 362.43 242.41 302.00 266.00
C 301.23 302.87 303.03 350.17 302.00 386.00 C 300.97 421.83 307.45 457.35 293.39 479.25 C 279.34 501.14 260.99 506.88 238.00 512.00 Z"/>
</g>
<g fill="#000000" fill-opacity="0.02" stroke="None">
<path d="
M 65.00 240.00 
C 48.54 242.72 23.44 257.84 31.10 277.90 C 38.76 297.96 64.32 299.40 83.25 299.40 C 102.19 299.40 125.79 280.84 118.19 262.25 C 110.58 243.67 84.18 236.83 65.00 240.00 Z"/>
</g>
<g fill="#000000" fill-opacity="0.02" stroke="None">
<path d="
M 427.00 332.00 
C 410.54 334.72 385.44 349.84 393.10 369.90 C 400.76 389.96 426.31 391.40 445.25 391.40 C 464.19 391.40 487.79 372.84 480.19 354.25 C 472.58 335.67 446.18 328.83 427.00 332.00 Z"/>
</g>
<g fill="#000000" fill-opacity="0.02" stroke="None">
<path d="
M 217.00 422.00 
C 200.54 424.72 175.44 439.84 183.10 459.90 C 190.76 479.96 216.32 481.40 235.25 481.40 C 254.19 481.40 277.79 462.84 270.19 444.25 C 262.58 425.67 236.18 418.83 217.00 422.00 Z"/>
</g>
</svg>