<svg xmlns="http://www.w3.org/2000/svg" xmlns:v="https://svgstorm.com"
viewBox = "0 0 512 512"
width="512"
height="512">
<g fill="None" fill-opacity="0.0" stroke="#000000" stroke-opacity="0.00" stroke-width="0.3"><path d="
M 0.00 512.00 
L 138.00 512.00
C 122.87 505.75 108.04 484.82 91.75 470.25 C 75.46 455.67 59.84 436.17 43.25 421.75 C 26.65 407.33 16.50 390.41 30.13 375.08 C 43.76 359.75 63.49 340.70 78.25 326.25 C 93.01 311.80 112.22 320.10 126.00 337.00
C 139.40 322.92 147.07 304.58 158.80 289.75 C 170.53 274.92 168.45 241.55 167.00 216.00 C 165.55 190.45 168.06 163.58 174.21 145.77 C 180.37 127.95 186.38 111.65 192.71 94.70 C 199.05 77.74 203.63 61.48 210.59 45.25 C 217.55 29.02 220.64 9.55 241.00 0.00
L 0.00 0.00
L 0.00 512.00 Z"/>
</g>
<g fill="None" fill-opacity="0.0" stroke="#000000" stroke-opacity="0.97" stroke-width="0.3"><path d="
M 138.00 512.00 
L 151.00 512.00
C 167.44 504.76 183.42 481.21 201.75 465.75 C 220.09 450.29 222.30 428.71 203.00 413.00
C 214.71 407.01 228.65 391.01 236.11 380.11 C 243.56 369.20 250.17 359.91 254.00 347.00
C 260.72 348.35 261.71 358.93 265.58 363.77 C 269.45 368.61 272.03 374.47 276.13 379.92 C 280.23 385.37 285.17 391.71 290.75 397.25 C 296.32 402.80 302.20 411.32 309.00 413.00
C 290.12 428.80 291.56 450.14 310.25 465.75 C 328.94 481.36 344.32 505.33 362.00 512.00
L 375.00 512.00
C 391.53 500.58 415.67 478.84 433.25 458.25 C 450.83 437.65 479.55 420.87 487.13 399.08 C 494.72 377.30 462.75 358.84 445.75 338.25 C 428.75 317.66 403.16 310.22 386.00 337.00
C 374.01 322.33 364.49 305.98 353.43 291.23 C 342.37 276.48 342.01 244.10 344.00 218.00 C 345.99 191.90 344.45 165.01 337.09 146.90 C 329.74 128.79 327.51 112.02 319.87 95.08 C 312.23 78.14 308.95 60.89 301.81 44.75 C 294.66 28.61 290.53 6.95 270.00 1.00
C 260.95 0.81 254.68 6.92 249.00 0.00
L 241.00 0.00
C 220.64 9.55 217.55 29.02 210.59 45.25 C 203.63 61.48 199.05 77.74 192.71 94.70 C 186.38 111.65 180.37 127.95 174.21 145.77 C 168.06 163.58 165.55 190.45 167.00 216.00 C 168.45 241.55 170.53 274.92 158.80 289.75 C 147.07 304.58 139.40 322.92 126.00 337.00
C 112.22 320.10 93.01 311.80 78.25 326.25 C 63.49 340.70 43.76 359.75 30.13 375.08 C 16.50 390.41 26.65 407.33 43.25 421.75 C 59.84 436.17 75.46 455.67 91.75 470.25 C 108.04 484.82 122.87 505.75 138.00 512.00
M 237.00 123.00 
C 225.10 123.33 220.67 125.27 213.81 133.25 C 206.96 141.24 206.42 149.86 207.00 164.00 C 207.58 178.14 206.24 197.54 207.00 212.00 C 207.76 226.46 204.23 243.57 210.00 255.00
C 212.54 254.27 215.21 254.55 218.00 255.00
C 223.73 242.67 220.41 221.07 221.00 206.00 C 221.59 190.93 220.81 165.56 221.00 152.00 C 221.19 138.44 230.87 134.02 240.75 138.39 C 250.63 142.77 247.90 160.13 248.00 175.00 C 248.10 189.87 248.02 213.17 248.00 229.00 C 247.98 244.83 248.15 267.67 248.00 283.00 C 247.85 298.33 249.07 319.28 246.41 330.75 C 243.75 342.22 240.68 346.17 235.87 354.92 C 231.06 363.67 225.49 371.37 218.81 380.25 C 212.13 389.13 200.00 396.57 194.00 405.00
C 174.23 385.40 152.74 365.90 135.00 345.00
C 150.74 327.50 164.06 310.76 174.13 292.08 C 184.20 273.40 183.65 236.61 181.93 205.93 C 180.21 175.24 185.44 151.63 193.80 130.75 C 202.16 109.88 206.49 91.89 215.13 72.08 C 223.77 52.27 225.93 33.53 242.00 14.00
C 256.14 20.29 247.65 42.28 246.80 53.25 C 245.95 64.22 242.25 76.46 241.60 87.75 C 240.96 99.04 236.22 111.12 237.00 123.00
M 270.00 14.00 
C 285.50 33.61 288.74 51.83 297.12 71.90 C 305.49 91.97 310.07 110.09 318.76 131.25 C 327.45 152.41 331.22 175.78 330.33 206.67 C 329.45 237.56 327.81 273.15 338.13 291.92 C 348.45 310.68 362.37 327.70 377.00 347.00
C 357.33 365.84 337.79 385.38 319.00 405.00
C 311.11 398.41 301.16 388.04 294.20 379.75 C 287.25 371.47 281.76 365.27 277.61 356.25 C 273.45 347.22 267.79 344.07 265.29 332.70 C 262.79 321.32 264.31 300.27 264.00 285.00 C 263.69 269.73 264.10 246.86 264.00 231.00 C 263.90 215.14 263.96 192.01 264.00 177.00 C 264.04 161.99 261.36 143.52 270.92 138.87 C 280.48 134.22 290.33 137.45 290.93 151.08 C 291.54 164.72 290.22 189.77 291.00 205.00 C 291.78 220.23 288.12 242.45 294.00 255.00
C 298.33 254.66 301.46 254.90 305.00 252.00
C 306.13 225.49 303.47 188.31 305.00 162.00 C 306.53 135.69 297.03 124.53 275.00 123.00
C 276.01 111.30 270.93 98.98 270.20 87.75 C 269.47 76.52 266.38 64.21 265.40 53.25 C 264.41 42.28 255.87 20.05 270.00 14.00
M 263.00 128.00 
C 258.89 129.12 258.63 134.20 255.00 135.00
C 254.79 132.23 252.56 128.44 249.00 128.00
C 253.01 113.43 252.37 100.01 256.00 85.00
C 259.59 99.86 259.07 113.38 263.00 128.00
M 93.00 333.00 
C 103.53 329.15 113.92 345.02 122.75 353.25 C 131.59 361.48 143.07 373.34 151.75 382.25 C 160.44 391.16 172.87 402.16 180.75 411.25 C 188.63 420.33 205.79 430.45 202.35 441.70 C 198.92 452.94 184.76 462.38 175.75 471.75 C 166.74 481.12 157.34 493.34 147.25 497.39 C 137.15 501.44 127.07 486.27 118.25 477.75 C 109.43 469.24 98.07 457.70 89.25 448.75 C 80.42 439.81 68.52 428.65 60.25 419.75 C 51.98 410.86 35.31 399.63 38.20 389.75 C 41.09 379.88 54.10 369.37 63.25 361.25 C 72.40 353.12 82.12 336.97 93.00 333.00
M 411.00 333.00 
C 421.03 329.34 434.48 346.87 442.75 356.25 C 451.02 365.62 468.03 376.98 473.71 387.30 C 479.39 397.62 461.60 409.09 452.75 418.75 C 443.90 428.41 430.41 440.33 420.75 450.75 C 411.10 461.18 398.53 471.72 388.75 482.75 C 378.97 493.78 368.79 503.89 357.77 493.23 C 346.75 482.57 337.00 471.19 325.75 461.25 C 314.50 451.31 302.39 438.52 314.75 427.75 C 327.12 416.98 334.47 406.38 346.25 396.25 C 358.03 386.11 366.41 373.13 378.25 364.25 C 390.09 355.36 397.85 337.80 411.00 333.00 Z"/>
</g>
<g fill="None" fill-opacity="0.0" stroke="#000000" stroke-opacity="0.18" stroke-width="0.3"><path d="
M 270.00 1.00 
C 269.86 0.96 270.00 0.00 270.00 0.00
L 249.00 0.00
C 254.68 6.92 260.95 0.81 270.00 1.00 Z"/>
</g>
<g fill="None" fill-opacity="0.0" stroke="#000000" stroke-opacity="0.00" stroke-width="0.3"><path d="
M 270.00 1.00 
C 290.53 6.95 294.66 28.61 301.81 44.75 C 308.95 60.89 312.23 78.14 319.87 95.08 C 327.51 112.02 329.74 128.79 337.09 146.90 C 344.45 165.01 345.99 191.90 344.00 218.00 C 342.01 244.10 342.37 276.48 353.43 291.23 C 364.49 305.98 374.01 322.33 386.00 337.00
C 403.16 310.22 428.75 317.66 445.75 338.25 C 462.75 358.84 494.72 377.30 487.13 399.08 C 479.55 420.87 450.83 437.65 433.25 458.25 C 415.67 478.84 391.53 500.58 375.00 512.00
L 512.00 512.00
L 512.00 0.00
L 270.00 0.00
C 270.00 0.00 269.86 0.96 270.00 1.00 Z"/>
</g>
<g fill="None" fill-opacity="0.0" stroke="#000000" stroke-opacity="0.01" stroke-width="0.3"><path d="
M 237.00 123.00 
C 236.22 111.12 240.96 99.04 241.60 87.75 C 242.25 76.46 245.95 64.22 246.80 53.25 C 247.65 42.28 256.14 20.29 242.00 14.00
C 225.93 33.53 223.77 52.27 215.13 72.08 C 206.49 91.89 202.16 109.88 193.80 130.75 C 185.44 151.63 180.21 175.24 181.93 205.93 C 183.65 236.61 184.20 273.40 174.13 292.08 C 164.06 310.76 150.74 327.50 135.00 345.00
C 152.74 365.90 174.23 385.40 194.00 405.00
C 200.00 396.57 212.13 389.13 218.81 380.25 C 225.49 371.37 231.06 363.67 235.87 354.92 C 240.68 346.17 243.75 342.22 246.41 330.75 C 249.07 319.28 247.85 298.33 248.00 283.00 C 248.15 267.67 247.98 244.83 248.00 229.00 C 248.02 213.17 248.10 189.87 248.00 175.00 C 247.90 160.13 250.63 142.77 240.75 138.39 C 230.87 134.02 221.19 138.44 221.00 152.00 C 220.81 165.56 221.59 190.93 221.00 206.00 C 220.41 221.07 223.73 242.67 218.00 255.00
C 215.21 254.55 212.54 254.27 210.00 255.00
C 204.23 243.57 207.76 226.46 207.00 212.00 C 206.24 197.54 207.58 178.14 207.00 164.00 C 206.42 149.86 206.96 141.24 213.81 133.25 C 220.67 125.27 225.10 123.33 237.00 123.00 Z"/>
</g>
<g fill="None" fill-opacity="0.0" stroke="#000000" stroke-opacity="0.01" stroke-width="0.3"><path d="
M 270.00 14.00 
C 255.87 20.05 264.41 42.28 265.40 53.25 C 266.38 64.21 269.47 76.52 270.20 87.75 C 270.93 98.98 276.01 111.30 275.00 123.00
C 297.03 124.53 306.53 135.69 305.00 162.00 C 303.47 188.31 306.13 225.49 305.00 252.00
C 301.46 254.90 298.33 254.66 294.00 255.00
C 288.12 242.45 291.78 220.23 291.00 205.00 C 290.22 189.77 291.54 164.72 290.93 151.08 C 290.33 137.45 280.48 134.22 270.92 138.87 C 261.36 143.52 264.04 161.99 264.00 177.00 C 263.96 192.01 263.90 215.14 264.00 231.00 C 264.10 246.86 263.69 269.73 264.00 285.00 C 264.31 300.27 262.79 321.32 265.29 332.70 C 267.79 344.07 273.45 347.22 277.61 356.25 C 281.76 365.27 287.25 371.47 294.20 379.75 C 301.16 388.04 311.11 398.41 319.00 405.00
C 337.79 385.38 357.33 365.84 377.00 347.00
C 362.37 327.70 348.45 310.68 338.13 291.92 C 327.81 273.15 329.45 237.56 330.33 206.67 C 331.22 175.78 327.45 152.41 318.76 131.25 C 310.07 110.09 305.49 91.97 297.12 71.90 C 288.74 51.83 285.50 33.61 270.00 14.00 Z"/>
</g>
<g fill="None" fill-opacity="0.0" stroke="#000000" stroke-opacity="0.08" stroke-width="0.3"><path d="
M 263.00 128.00 
C 259.07 113.38 259.59 99.86 256.00 85.00
C 252.37 100.01 253.01 113.43 249.00 128.00
C 252.56 128.44 254.79 132.23 255.00 135.00
C 258.63 134.20 258.89 129.12 263.00 128.00 Z"/>
</g>
<g fill="None" fill-opacity="0.0" stroke="#000000" stroke-opacity="0.01" stroke-width="0.3"><path d="
M 93.00 333.00 
C 82.12 336.97 72.40 353.12 63.25 361.25 C 54.10 369.37 41.09 379.88 38.20 389.75 C 35.31 399.63 51.98 410.86 60.25 419.75 C 68.52 428.65 80.42 439.81 89.25 448.75 C 98.07 457.70 109.43 469.24 118.25 477.75 C 127.07 486.27 137.15 501.44 147.25 497.39 C 157.34 493.34 166.74 481.12 175.75 471.75 C 184.76 462.38 198.92 452.94 202.35 441.70 C 205.79 430.45 188.63 420.33 180.75 411.25 C 172.87 402.16 160.44 391.16 151.75 382.25 C 143.07 373.34 131.59 361.48 122.75 353.25 C 113.92 345.02 103.53 329.15 93.00 333.00 Z"/>
</g>
<g fill="None" fill-opacity="0.0" stroke="#000000" stroke-opacity="0.01" stroke-width="0.3"><path d="
M 411.00 333.00 
C 397.85 337.80 390.09 355.36 378.25 364.25 C 366.41 373.13 358.03 386.11 346.25 396.25 C 334.47 406.38 327.12 416.98 314.75 427.75 C 302.39 438.52 314.50 451.31 325.75 461.25 C 337.00 471.19 346.75 482.57 357.77 493.23 C 368.79 503.89 378.97 493.78 388.75 482.75 C 398.53 471.72 411.10 461.18 420.75 450.75 C 430.41 440.33 443.90 428.41 452.75 418.75 C 461.60 409.09 479.39 397.62 473.71 387.30 C 468.03 376.98 451.02 365.62 442.75 356.25 C 434.48 346.87 421.03 329.34 411.00 333.00 Z"/>
</g>
<g fill="None" fill-opacity="0.0" stroke="#000000" stroke-opacity="0.00" stroke-width="0.3"><path d="
M 151.00 512.00 
L 362.00 512.00
C 344.32 505.33 328.94 481.36 310.25 465.75 C 291.56 450.14 290.12 428.80 309.00 413.00
C 302.20 411.32 296.32 402.80 290.75 397.25 C 285.17 391.71 280.23 385.37 276.13 379.92 C 272.03 374.47 269.45 368.61 265.58 363.77 C 261.71 358.93 260.72 348.35 254.00 347.00
C 250.17 359.91 243.56 369.20 236.11 380.11 C 228.65 391.01 214.71 407.01 203.00 413.00
C 222.30 428.71 220.09 450.29 201.75 465.75 C 183.42 481.21 167.44 504.76 151.00 512.00 Z"/>
</g>
<g fill="#000000" fill-opacity="0.00" stroke="None">
<path d="
M 0.00 512.00 
L 138.00 512.00
C 122.87 505.75 108.04 484.82 91.75 470.25 C 75.46 455.67 59.84 436.17 43.25 421.75 C 26.65 407.33 16.50 390.41 30.13 375.08 C 43.76 359.75 63.49 340.70 78.25 326.25 C 93.01 311.80 112.22 320.10 126.00 337.00
C 139.40 322.92 147.07 304.58 158.80 289.75 C 170.53 274.92 168.45 241.55 167.00 216.00 C 165.55 190.45 168.06 163.58 174.21 145.77 C 180.37 127.95 186.38 111.65 192.71 94.70 C 199.05 77.74 203.63 61.48 210.59 45.25 C 217.55 29.02 220.64 9.55 241.00 0.00
L 0.00 0.00
L 0.00 512.00 Z"/>
</g>
<g fill="#000000" fill-opacity="0.97" stroke="None">
<path d="
M 138.00 512.00 
L 151.00 512.00
C 167.44 504.76 183.42 481.21 201.75 465.75 C 220.09 450.29 222.30 428.71 203.00 413.00
C 214.71 407.01 228.65 391.01 236.11 380.11 C 243.56 369.20 250.17 359.91 254.00 347.00
C 260.72 348.35 261.71 358.93 265.58 363.77 C 269.45 368.61 272.03 374.47 276.13 379.92 C 280.23 385.37 285.17 391.71 290.75 397.25 C 296.32 402.80 302.20 411.32 309.00 413.00
C 290.12 428.80 291.56 450.14 310.25 465.75 C 328.94 481.36 344.32 505.33 362.00 512.00
L 375.00 512.00
C 391.53 500.58 415.67 478.84 433.25 458.25 C 450.83 437.65 479.55 420.87 487.13 399.08 C 494.72 377.30 462.75 358.84 445.75 338.25 C 428.75 317.66 403.16 310.22 386.00 337.00
C 374.01 322.33 364.49 305.98 353.43 291.23 C 342.37 276.48 342.01 244.10 344.00 218.00 C 345.99 191.90 344.45 165.01 337.09 146.90 C 329.74 128.79 327.51 112.02 319.87 95.08 C 312.23 78.14 308.95 60.89 301.81 44.75 C 294.66 28.61 290.53 6.95 270.00 1.00
C 260.95 0.81 254.68 6.92 249.00 0.00
L 241.00 0.00
C 220.64 9.55 217.55 29.02 210.59 45.25 C 203.63 61.48 199.05 77.74 192.71 94.70 C 186.38 111.65 180.37 127.95 174.21 145.77 C 168.06 163.58 165.55 190.45 167.00 216.00 C 168.45 241.55 170.53 274.92 158.80 289.75 C 147.07 304.58 139.40 322.92 126.00 337.00
C 112.22 320.10 93.01 311.80 78.25 326.25 C 63.49 340.70 43.76 359.75 30.13 375.08 C 16.50 390.41 26.65 407.33 43.25 421.75 C 59.84 436.17 75.46 455.67 91.75 470.25 C 108.04 484.82 122.87 505.75 138.00 512.00
M 237.00 123.00 
C 225.10 123.33 220.67 125.27 213.81 133.25 C 206.96 141.24 206.42 149.86 207.00 164.00 C 207.58 178.14 206.24 197.54 207.00 212.00 C 207.76 226.46 204.23 243.57 210.00 255.00
C 212.54 254.27 215.21 254.55 218.00 255.00
C 223.73 242.67 220.41 221.07 221.00 206.00 C 221.59 190.93 220.81 165.56 221.00 152.00 C 221.19 138.44 230.87 134.02 240.75 138.39 C 250.63 142.77 247.90 160.13 248.00 175.00 C 248.10 189.87 248.02 213.17 248.00 229.00 C 247.98 244.83 248.15 267.67 248.00 283.00 C 247.85 298.33 249.07 319.28 246.41 330.75 C 243.75 342.22 240.68 346.17 235.87 354.92 C 231.06 363.67 225.49 371.37 218.81 380.25 C 212.13 389.13 200.00 396.57 194.00 405.00
C 174.23 385.40 152.74 365.90 135.00 345.00
C 150.74 327.50 164.06 310.76 174.13 292.08 C 184.20 273.40 183.65 236.61 181.93 205.93 C 180.21 175.24 185.44 151.63 193.80 130.75 C 202.16 109.88 206.49 91.89 215.13 72.08 C 223.77 52.27 225.93 33.53 242.00 14.00
C 256.14 20.29 247.65 42.28 246.80 53.25 C 245.95 64.22 242.25 76.46 241.60 87.75 C 240.96 99.04 236.22 111.12 237.00 123.00
M 270.00 14.00 
C 285.50 33.61 288.74 51.83 297.12 71.90 C 305.49 91.97 310.07 110.09 318.76 131.25 C 327.45 152.41 331.22 175.78 330.33 206.67 C 329.45 237.56 327.81 273.15 338.13 291.92 C 348.45 310.68 362.37 327.70 377.00 347.00
C 357.33 365.84 337.79 385.38 319.00 405.00
C 311.11 398.41 301.16 388.04 294.20 379.75 C 287.25 371.47 281.76 365.27 277.61 356.25 C 273.45 347.22 267.79 344.07 265.29 332.70 C 262.79 321.32 264.31 300.27 264.00 285.00 C 263.69 269.73 264.10 246.86 264.00 231.00 C 263.90 215.14 263.96 192.01 264.00 177.00 C 264.04 161.99 261.36 143.52 270.92 138.87 C 280.48 134.22 290.33 137.45 290.93 151.08 C 291.54 164.72 290.22 189.77 291.00 205.00 C 291.78 220.23 288.12 242.45 294.00 255.00
C 298.33 254.66 301.46 254.90 305.00 252.00
C 306.13 225.49 303.47 188.31 305.00 162.00 C 306.53 135.69 297.03 124.53 275.00 123.00
C 276.01 111.30 270.93 98.98 270.20 87.75 C 269.47 76.52 266.38 64.21 265.40 53.25 C 264.41 42.28 255.87 20.05 270.00 14.00
M 263.00 128.00 
C 258.89 129.12 258.63 134.20 255.00 135.00
C 254.79 132.23 252.56 128.44 249.00 128.00
C 253.01 113.43 252.37 100.01 256.00 85.00
C 259.59 99.86 259.07 113.38 263.00 128.00
M 93.00 333.00 
C 103.53 329.15 113.92 345.02 122.75 353.25 C 131.59 361.48 143.07 373.34 151.75 382.25 C 160.44 391.16 172.87 402.16 180.75 411.25 C 188.63 420.33 205.79 430.45 202.35 441.70 C 198.92 452.94 184.76 462.38 175.75 471.75 C 166.74 481.12 157.34 493.34 147.25 497.39 C 137.15 501.44 127.07 486.27 118.25 477.75 C 109.43 469.24 98.07 457.70 89.25 448.75 C 80.42 439.81 68.52 428.65 60.25 419.75 C 51.98 410.86 35.31 399.63 38.20 389.75 C 41.09 379.88 54.10 369.37 63.25 361.25 C 72.40 353.12 82.12 336.97 93.00 333.00
M 411.00 333.00 
C 421.03 329.34 434.48 346.87 442.75 356.25 C 451.02 365.62 468.03 376.98 473.71 387.30 C 479.39 397.62 461.60 409.09 452.75 418.75 C 443.90 428.41 430.41 440.33 420.75 450.75 C 411.10 461.18 398.53 471.72 388.75 482.75 C 378.97 493.78 368.79 503.89 357.77 493.23 C 346.75 482.57 337.00 471.19 325.75 461.25 C 314.50 451.31 302.39 438.52 314.75 427.75 C 327.12 416.98 334.47 406.38 346.25 396.25 C 358.03 386.11 366.41 373.13 378.25 364.25 C 390.09 355.36 397.85 337.80 411.00 333.00 Z"/>
</g>
<g fill="#000000" fill-opacity="0.18" stroke="None">
<path d="
M 270.00 1.00 
C 269.86 0.96 270.00 0.00 270.00 0.00
L 249.00 0.00
C 254.68 6.92 260.95 0.81 270.00 1.00 Z"/>
</g>
<g fill="#000000" fill-opacity="0.00" stroke="None">
<path d="
M 270.00 1.00 
C 290.53 6.95 294.66 28.61 301.81 44.75 C 308.95 60.89 312.23 78.14 319.87 95.08 C 327.51 112.02 329.74 128.79 337.09 146.90 C 344.45 165.01 345.99 191.90 344.00 218.00 C 342.01 244.10 342.37 276.48 353.43 291.23 C 364.49 305.98 374.01 322.33 386.00 337.00
C 403.16 310.22 428.75 317.66 445.75 338.25 C 462.75 358.84 494.72 377.30 487.13 399.08 C 479.55 420.87 450.83 437.65 433.25 458.25 C 415.67 478.84 391.53 500.58 375.00 512.00
L 512.00 512.00
L 512.00 0.00
L 270.00 0.00
C 270.00 0.00 269.86 0.96 270.00 1.00 Z"/>
</g>
<g fill="#000000" fill-opacity="0.01" stroke="None">
<path d="
M 237.00 123.00 
C 236.22 111.12 240.96 99.04 241.60 87.75 C 242.25 76.46 245.95 64.22 246.80 53.25 C 247.65 42.28 256.14 20.29 242.00 14.00
C 225.93 33.53 223.77 52.27 215.13 72.08 C 206.49 91.89 202.16 109.88 193.80 130.75 C 185.44 151.63 180.21 175.24 181.93 205.93 C 183.65 236.61 184.20 273.40 174.13 292.08 C 164.06 310.76 150.74 327.50 135.00 345.00
C 152.74 365.90 174.23 385.40 194.00 405.00
C 200.00 396.57 212.13 389.13 218.81 380.25 C 225.49 371.37 231.06 363.67 235.87 354.92 C 240.68 346.17 243.75 342.22 246.41 330.75 C 249.07 319.28 247.85 298.33 248.00 283.00 C 248.15 267.67 247.98 244.83 248.00 229.00 C 248.02 213.17 248.10 189.87 248.00 175.00 C 247.90 160.13 250.63 142.77 240.75 138.39 C 230.87 134.02 221.19 138.44 221.00 152.00 C 220.81 165.56 221.59 190.93 221.00 206.00 C 220.41 221.07 223.73 242.67 218.00 255.00
C 215.21 254.55 212.54 254.27 210.00 255.00
C 204.23 243.57 207.76 226.46 207.00 212.00 C 206.24 197.54 207.58 178.14 207.00 164.00 C 206.42 149.86 206.96 141.24 213.81 133.25 C 220.67 125.27 225.10 123.33 237.00 123.00 Z"/>
</g>
<g fill="#000000" fill-opacity="0.01" stroke="None">
<path d="
M 270.00 14.00 
C 255.87 20.05 264.41 42.28 265.40 53.25 C 266.38 64.21 269.47 76.52 270.20 87.75 C 270.93 98.98 276.01 111.30 275.00 123.00
C 297.03 124.53 306.53 135.69 305.00 162.00 C 303.47 188.31 306.13 225.49 305.00 252.00
C 301.46 254.90 298.33 254.66 294.00 255.00
C 288.12 242.45 291.78 220.23 291.00 205.00 C 290.22 189.77 291.54 164.72 290.93 151.08 C 290.33 137.45 280.48 134.22 270.92 138.87 C 261.36 143.52 264.04 161.99 264.00 177.00 C 263.96 192.01 263.90 215.14 264.00 231.00 C 264.10 246.86 263.69 269.73 264.00 285.00 C 264.31 300.27 262.79 321.32 265.29 332.70 C 267.79 344.07 273.45 347.22 277.61 356.25 C 281.76 365.27 287.25 371.47 294.20 379.75 C 301.16 388.04 311.11 398.41 319.00 405.00
C 337.79 385.38 357.33 365.84 377.00 347.00
C 362.37 327.70 348.45 310.68 338.13 291.92 C 327.81 273.15 329.45 237.56 330.33 206.67 C 331.22 175.78 327.45 152.41 318.76 131.25 C 310.07 110.09 305.49 91.97 297.12 71.90 C 288.74 51.83 285.50 33.61 270.00 14.00 Z"/>
</g>
<g fill="#000000" fill-opacity="0.08" stroke="None">
<path d="
M 263.00 128.00 
C 259.07 113.38 259.59 99.86 256.00 85.00
C 252.37 100.01 253.01 113.43 249.00 128.00
C 252.56 128.44 254.79 132.23 255.00 135.00
C 258.63 134.20 258.89 129.12 263.00 128.00 Z"/>
</g>
<g fill="#000000" fill-opacity="0.01" stroke="None">
<path d="
M 93.00 333.00 
C 82.12 336.97 72.40 353.12 63.25 361.25 C 54.10 369.37 41.09 379.88 38.20 389.75 C 35.31 399.63 51.98 410.86 60.25 419.75 C 68.52 428.65 80.42 439.81 89.25 448.75 C 98.07 457.70 109.43 469.24 118.25 477.75 C 127.07 486.27 137.15 501.44 147.25 497.39 C 157.34 493.34 166.74 481.12 175.75 471.75 C 184.76 462.38 198.92 452.94 202.35 441.70 C 205.79 430.45 188.63 420.33 180.75 411.25 C 172.87 402.16 160.44 391.16 151.75 382.25 C 143.07 373.34 131.59 361.48 122.75 353.25 C 113.92 345.02 103.53 329.15 93.00 333.00 Z"/>
</g>
<g fill="#000000" fill-opacity="0.01" stroke="None">
<path d="
M 411.00 333.00 
C 397.85 337.80 390.09 355.36 378.25 364.25 C 366.41 373.13 358.03 386.11 346.25 396.25 C 334.47 406.38 327.12 416.98 314.75 427.75 C 302.39 438.52 314.50 451.31 325.75 461.25 C 337.00 471.19 346.75 482.57 357.77 493.23 C 368.79 503.89 378.97 493.78 388.75 482.75 C 398.53 471.72 411.10 461.18 420.75 450.75 C 430.41 440.33 443.90 428.41 452.75 418.75 C 461.60 409.09 479.39 397.62 473.71 387.30 C 468.03 376.98 451.02 365.62 442.75 356.25 C 434.48 346.87 421.03 329.34 411.00 333.00 Z"/>
</g>
<g fill="#000000" fill-opacity="0.00" stroke="None">
<path d="
M 151.00 512.00 
L 362.00 512.00
C 344.32 505.33 328.94 481.36 310.25 465.75 C 291.56 450.14 290.12 428.80 309.00 413.00
C 302.20 411.32 296.32 402.80 290.75 397.25 C 285.17 391.71 280.23 385.37 276.13 379.92 C 272.03 374.47 269.45 368.61 265.58 363.77 C 261.71 358.93 260.72 348.35 254.00 347.00
C 250.17 359.91 243.56 369.20 236.11 380.11 C 228.65 391.01 214.71 407.01 203.00 413.00
C 222.30 428.71 220.09 450.29 201.75 465.75 C 183.42 481.21 167.44 504.76 151.00 512.00 Z"/>
</g>
</svg>