<svg xmlns="http://www.w3.org/2000/svg" xmlns:v="https://svgstorm.com"
viewBox = "0 0 512 512"
width="512"
height="512">
<g fill="None" fill-opacity="0.0" stroke="#000000" stroke-opacity="0.01" stroke-width="0.3"><path d="
M 0.00 285.00 
C 2.23 256.60 9.90 239.77 28.25 221.25 C 46.59 202.73 63.07 196.41 87.00 193.00
C 55.20 188.42 28.70 158.19 30.93 124.92 C 33.15 91.66 55.24 64.32 90.08 62.07 C 124.92 59.81 155.09 84.46 159.40 116.75 C 163.70 149.04 143.42 186.63 109.00 191.00
C 109.42 191.14 110.66 192.90 111.00 193.00
C 141.23 191.98 160.96 208.69 181.75 217.39 C 202.55 226.09 221.97 239.37 243.00 249.00
C 246.32 237.67 253.57 230.20 257.71 219.70 C 261.86 209.20 267.64 201.78 271.19 190.75 C 274.74 179.71 293.29 169.96 300.39 183.75 C 307.50 197.54 295.47 206.29 292.61 216.75 C 289.75 227.22 279.84 234.72 277.29 245.30 C 274.73 255.88 263.94 263.14 264.40 275.74 C 264.87 288.34 264.89 303.04 255.61 311.75 C 246.33 320.47 232.12 326.01 218.30 323.69 C 204.49 321.37 198.58 315.38 187.70 310.29 C 176.82 305.20 169.16 301.92 158.00 296.00
C 158.17 319.89 157.77 345.26 158.00 369.00 C 158.23 392.74 157.56 418.81 158.00 442.00 C 158.44 465.19 161.49 479.77 138.00 479.00 C 114.51 478.23 88.55 478.14 65.00 479.00 C 41.45 479.86 30.31 479.17 33.00 454.00 C 35.69 428.83 30.98 405.96 33.00 381.00
C 16.33 376.39 3.61 360.79 0.00 343.00
L 0.00 512.00
L 512.00 512.00
L 512.00 263.00
C 505.45 280.37 498.40 297.37 477.25 301.26 C 456.10 305.16 414.96 301.94 389.00 303.00
C 394.45 314.33 396.61 325.32 401.19 336.25 C 405.77 347.19 409.25 358.29 413.19 369.25 C 417.14 380.21 422.01 390.72 425.06 402.08 C 428.12 413.44 435.80 422.96 437.39 434.75 C 438.99 446.55 452.12 455.30 446.81 470.25 C 441.51 485.21 419.66 479.63 417.42 467.23 C 415.19 454.83 408.87 445.76 405.41 434.25 C 401.95 422.73 397.46 412.63 393.36 401.30 C 389.26 389.96 385.92 379.83 381.81 368.75 C 377.70 357.66 373.26 346.80 369.81 335.75 C 366.35 324.70 359.95 314.39 358.00 303.00
C 354.00 303.00 350.00 303.00 346.00 303.00
C 342.25 316.16 337.35 330.25 332.65 343.70 C 327.95 357.14 321.45 370.17 317.94 384.08 C 314.43 398.00 305.14 409.89 302.24 424.25 C 299.34 438.61 289.72 449.93 287.88 464.90 C 286.05 479.87 259.46 485.68 257.36 468.30 C 255.27 450.91 267.47 439.59 270.59 425.25 C 273.71 410.91 280.73 398.97 285.13 385.08 C 289.53 371.20 294.94 358.13 299.40 344.25 C 303.86 330.38 310.47 317.97 315.00 303.00
C 307.67 303.00 300.33 303.00 293.00 303.00
C 296.72 292.22 293.99 277.42 301.92 264.92 C 309.86 252.43 315.33 236.86 322.31 224.31 C 329.28 211.75 333.98 201.34 332.67 188.33 C 331.36 175.32 329.48 169.00 320.08 159.92 C 310.69 150.84 304.88 148.03 291.92 147.07 C 278.96 146.11 269.78 148.60 260.75 156.75 C 251.71 164.90 244.93 174.95 241.87 182.92 C 238.81 190.89 233.03 199.09 230.00 208.00
C 216.22 202.59 205.92 195.48 192.00 190.00
C 191.80 170.04 192.26 143.28 192.00 124.00 C 191.74 104.72 191.54 81.15 194.64 67.30 C 197.74 53.45 204.09 47.81 215.75 39.61 C 227.41 31.40 235.95 32.04 256.00 32.00 C 276.05 31.96 302.22 32.06 323.00 32.00 C 343.78 31.94 368.41 32.12 389.00 32.00 C 409.59 31.88 435.53 32.25 455.00 32.00 C 474.47 31.75 479.75 33.22 491.77 41.24 C 503.79 49.25 508.27 58.77 512.00 72.00
L 512.00 0.00
L 0.00 0.00
L 0.00 285.00 Z"/>
</g>
<g fill="None" fill-opacity="0.0" stroke="#000000" stroke-opacity="0.99" stroke-width="0.3"><path d="
M 512.00 263.00 
L 512.00 72.00
C 508.27 58.77 503.79 49.25 491.77 41.24 C 479.75 33.22 474.47 31.75 455.00 32.00 C 435.53 32.25 409.59 31.88 389.00 32.00 C 368.41 32.12 343.78 31.94 323.00 32.00 C 302.22 32.06 276.05 31.96 256.00 32.00 C 235.95 32.04 227.41 31.40 215.75 39.61 C 204.09 47.81 197.74 53.45 194.64 67.30 C 191.54 81.15 191.74 104.72 192.00 124.00 C 192.26 143.28 191.80 170.04 192.00 190.00
C 205.92 195.48 216.22 202.59 230.00 208.00
C 233.03 199.09 238.81 190.89 241.87 182.92 C 244.93 174.95 251.71 164.90 260.75 156.75 C 269.78 148.60 278.96 146.11 291.92 147.07 C 304.88 148.03 310.69 150.84 320.08 159.92 C 329.48 169.00 331.36 175.32 332.67 188.33 C 333.98 201.34 329.28 211.75 322.31 224.31 C 315.33 236.86 309.86 252.43 301.92 264.92 C 293.99 277.42 296.72 292.22 293.00 303.00
C 300.33 303.00 307.67 303.00 315.00 303.00
C 310.47 317.97 303.86 330.38 299.40 344.25 C 294.94 358.13 289.53 371.20 285.13 385.08 C 280.73 398.97 273.71 410.91 270.59 425.25 C 267.47 439.59 255.27 450.91 257.36 468.30 C 259.46 485.68 286.05 479.87 287.88 464.90 C 289.72 449.93 299.34 438.61 302.24 424.25 C 305.14 409.89 314.43 398.00 317.94 384.08 C 321.45 370.17 327.95 357.14 332.65 343.70 C 337.35 330.25 342.25 316.16 346.00 303.00
C 350.00 303.00 354.00 303.00 358.00 303.00
C 359.95 314.39 366.35 324.70 369.81 335.75 C 373.26 346.80 377.70 357.66 381.81 368.75 C 385.92 379.83 389.26 389.96 393.36 401.30 C 397.46 412.63 401.95 422.73 405.41 434.25 C 408.87 445.76 415.19 454.83 417.42 467.23 C 419.66 479.63 441.51 485.21 446.81 470.25 C 452.12 455.30 438.99 446.55 437.39 434.75 C 435.80 422.96 428.12 413.44 425.06 402.08 C 422.01 390.72 417.14 380.21 413.19 369.25 C 409.25 358.29 405.77 347.19 401.19 336.25 C 396.61 325.32 394.45 314.33 389.00 303.00
C 414.96 301.94 456.10 305.16 477.25 301.26 C 498.40 297.37 505.45 280.37 512.00 263.00
M 269.00 96.00 
C 284.24 94.40 303.24 98.50 320.00 97.00 C 336.76 95.50 357.42 98.00 374.00 97.00 C 390.58 96.00 413.61 98.17 429.00 97.00 C 444.39 95.83 449.43 103.10 446.24 116.25 C 443.06 129.39 426.53 126.08 411.00 126.00 C 395.47 125.92 373.27 126.08 357.00 126.00 C 340.73 125.92 317.73 126.13 302.00 126.00 C 286.27 125.87 267.98 128.98 259.90 120.10 C 251.83 111.22 259.75 96.97 269.00 96.00
M 363.00 152.00 
C 379.31 150.04 404.76 155.82 422.00 153.00 C 439.24 150.18 450.33 157.68 446.87 171.92 C 443.41 186.15 422.14 182.58 406.00 182.00 C 389.86 181.42 365.81 185.53 355.70 178.30 C 345.59 171.07 351.58 153.37 363.00 152.00
M 365.00 208.00 
C 381.38 207.45 407.62 211.17 424.00 209.00 C 440.38 206.83 451.37 214.85 446.81 229.25 C 442.25 243.65 417.52 238.54 402.00 239.00 C 386.48 239.46 363.64 241.49 354.75 233.25 C 345.86 225.00 351.85 208.44 365.00 208.00 Z"/>
</g>
<g fill="None" fill-opacity="0.0" stroke="#000000" stroke-opacity="1.00" stroke-width="0.3"><path d="
M 0.00 285.00 
L 0.00 343.00
C 3.61 360.79 16.33 376.39 33.00 381.00
C 30.98 405.96 35.69 428.83 33.00 454.00 C 30.31 479.17 41.45 479.86 65.00 479.00 C 88.55 478.14 114.51 478.23 138.00 479.00 C 161.49 479.77 158.44 465.19 158.00 442.00 C 157.56 418.81 158.23 392.74 158.00 369.00 C 157.77 345.26 158.17 319.89 158.00 296.00
C 169.16 301.92 176.82 305.20 187.70 310.29 C 198.58 315.38 204.49 321.37 218.30 323.69 C 232.12 326.01 246.33 320.47 255.61 311.75 C 264.89 303.04 264.87 288.34 264.40 275.74 C 263.94 263.14 274.73 255.88 277.29 245.30 C 279.84 234.72 289.75 227.22 292.61 216.75 C 295.47 206.29 307.50 197.54 300.39 183.75 C 293.29 169.96 274.74 179.71 271.19 190.75 C 267.64 201.78 261.86 209.20 257.71 219.70 C 253.57 230.20 246.32 237.67 243.00 249.00
C 221.97 239.37 202.55 226.09 181.75 217.39 C 160.96 208.69 141.23 191.98 111.00 193.00
C 108.34 193.09 105.66 192.93 103.00 193.00
C 104.44 190.24 106.95 192.72 109.00 191.00
C 143.42 186.63 163.70 149.04 159.40 116.75 C 155.09 84.46 124.92 59.81 90.08 62.07 C 55.24 64.32 33.15 91.66 30.93 124.92 C 28.70 158.19 55.20 188.42 87.00 193.00
C 63.07 196.41 46.59 202.73 28.25 221.25 C 9.90 239.77 2.23 256.60 0.00 285.00 Z"/>
</g>
<g fill="None" fill-opacity="0.0" stroke="#000000" stroke-opacity="0.00" stroke-width="0.3"><path d="
M 269.00 96.00 
C 259.75 96.97 251.83 111.22 259.90 120.10 C 267.98 128.98 286.27 125.87 302.00 126.00 C 317.73 126.13 340.73 125.92 357.00 126.00 C 373.27 126.08 395.47 125.92 411.00 126.00 C 426.53 126.08 443.06 129.39 446.24 116.25 C 449.43 103.10 444.39 95.83 429.00 97.00 C 413.61 98.17 390.58 96.00 374.00 97.00 C 357.42 98.00 336.76 95.50 320.00 97.00 C 303.24 98.50 284.24 94.40 269.00 96.00 Z"/>
</g>
<g fill="None" fill-opacity="0.0" stroke="#000000" stroke-opacity="0.01" stroke-width="0.3"><path d="
M 363.00 152.00 
C 351.58 153.37 345.59 171.07 355.70 178.30 C 365.81 185.53 389.86 181.42 406.00 182.00 C 422.14 182.58 443.41 186.15 446.87 171.92 C 450.33 157.68 439.24 150.18 422.00 153.00 C 404.76 155.82 379.31 150.04 363.00 152.00 Z"/>
</g>
<g fill="None" fill-opacity="0.0" stroke="#000000" stroke-opacity="0.38" stroke-width="0.3"><path d="
M 111.00 193.00 
C 110.66 192.90 109.42 191.14 109.00 191.00
C 106.95 192.72 104.44 190.24 103.00 193.00
C 105.66 192.93 108.34 193.09 111.00 193.00 Z"/>
</g>
<g fill="None" fill-opacity="0.0" stroke="#000000" stroke-opacity="0.02" stroke-width="0.3"><path d="
M 365.00 208.00 
C 351.85 208.44 345.86 225.00 354.75 233.25 C 363.64 241.49 386.48 239.46 402.00 239.00 C 417.52 238.54 442.25 243.65 446.81 229.25 C 451.37 214.85 440.38 206.83 424.00 209.00 C 407.62 211.17 381.38 207.45 365.00 208.00 Z"/>
</g>
<g fill="#000000" fill-opacity="0.01" stroke="None">
<path d="
M 0.00 285.00 
C 2.23 256.60 9.90 239.77 28.25 221.25 C 46.59 202.73 63.07 196.41 87.00 193.00
C 55.20 188.42 28.70 158.19 30.93 124.92 C 33.15 91.66 55.24 64.32 90.08 62.07 C 124.92 59.81 155.09 84.46 159.40 116.75 C 163.70 149.04 143.42 186.63 109.00 191.00
C 109.42 191.14 110.66 192.90 111.00 193.00
C 141.23 191.98 160.96 208.69 181.75 217.39 C 202.55 226.09 221.97 239.37 243.00 249.00
C 246.32 237.67 253.57 230.20 257.71 219.70 C 261.86 209.20 267.64 201.78 271.19 190.75 C 274.74 179.71 293.29 169.96 300.39 183.75 C 307.50 197.54 295.47 206.29 292.61 216.75 C 289.75 227.22 279.84 234.72 277.29 245.30 C 274.73 255.88 263.94 263.14 264.40 275.74 C 264.87 288.34 264.89 303.04 255.61 311.75 C 246.33 320.47 232.12 326.01 218.30 323.69 C 204.49 321.37 198.58 315.38 187.70 310.29 C 176.82 305.20 169.16 301.92 158.00 296.00
C 158.17 319.89 157.77 345.26 158.00 369.00 C 158.23 392.74 157.56 418.81 158.00 442.00 C 158.44 465.19 161.49 479.77 138.00 479.00 C 114.51 478.23 88.55 478.14 65.00 479.00 C 41.45 479.86 30.31 479.17 33.00 454.00 C 35.69 428.83 30.98 405.96 33.00 381.00
C 16.33 376.39 3.61 360.79 0.00 343.00
L 0.00 512.00
L 512.00 512.00
L 512.00 263.00
C 505.45 280.37 498.40 297.37 477.25 301.26 C 456.10 305.16 414.96 301.94 389.00 303.00
C 394.45 314.33 396.61 325.32 401.19 336.25 C 405.77 347.19 409.25 358.29 413.19 369.25 C 417.14 380.21 422.01 390.72 425.06 402.08 C 428.12 413.44 435.80 422.96 437.39 434.75 C 438.99 446.55 452.12 455.30 446.81 470.25 C 441.51 485.21 419.66 479.63 417.42 467.23 C 415.19 454.83 408.87 445.76 405.41 434.25 C 401.95 422.73 397.46 412.63 393.36 401.30 C 389.26 389.96 385.92 379.83 381.81 368.75 C 377.70 357.66 373.26 346.80 369.81 335.75 C 366.35 324.70 359.95 314.39 358.00 303.00
C 354.00 303.00 350.00 303.00 346.00 303.00
C 342.25 316.16 337.35 330.25 332.65 343.70 C 327.95 357.14 321.45 370.17 317.94 384.08 C 314.43 398.00 305.14 409.89 302.24 424.25 C 299.34 438.61 289.72 449.93 287.88 464.90 C 286.05 479.87 259.46 485.68 257.36 468.30 C 255.27 450.91 267.47 439.59 270.59 425.25 C 273.71 410.91 280.73 398.97 285.13 385.08 C 289.53 371.20 294.94 358.13 299.40 344.25 C 303.86 330.38 310.47 317.97 315.00 303.00
C 307.67 303.00 300.33 303.00 293.00 303.00
C 296.72 292.22 293.99 277.42 301.92 264.92 C 309.86 252.43 315.33 236.86 322.31 224.31 C 329.28 211.75 333.98 201.34 332.67 188.33 C 331.36 175.32 329.48 169.00 320.08 159.92 C 310.69 150.84 304.88 148.03 291.92 147.07 C 278.96 146.11 269.78 148.60 260.75 156.75 C 251.71 164.90 244.93 174.95 241.87 182.92 C 238.81 190.89 233.03 199.09 230.00 208.00
C 216.22 202.59 205.92 195.48 192.00 190.00
C 191.80 170.04 192.26 143.28 192.00 124.00 C 191.74 104.72 191.54 81.15 194.64 67.30 C 197.74 53.45 204.09 47.81 215.75 39.61 C 227.41 31.40 235.95 32.04 256.00 32.00 C 276.05 31.96 302.22 32.06 323.00 32.00 C 343.78 31.94 368.41 32.12 389.00 32.00 C 409.59 31.88 435.53 32.25 455.00 32.00 C 474.47 31.75 479.75 33.22 491.77 41.24 C 503.79 49.25 508.27 58.77 512.00 72.00
L 512.00 0.00
L 0.00 0.00
L 0.00 285.00 Z"/>
</g>
<g fill="#000000" fill-opacity="0.99" stroke="None">
<path d="
M 512.00 263.00 
L 512.00 72.00
C 508.27 58.77 503.79 49.25 491.77 41.24 C 479.75 33.22 474.47 31.75 455.00 32.00 C 435.53 32.25 409.59 31.88 389.00 32.00 C 368.41 32.12 343.78 31.94 323.00 32.00 C 302.22 32.06 276.05 31.96 256.00 32.00 C 235.95 32.04 227.41 31.40 215.75 39.61 C 204.09 47.81 197.74 53.45 194.64 67.30 C 191.54 81.15 191.74 104.72 192.00 124.00 C 192.26 143.28 191.80 170.04 192.00 190.00
C 205.92 195.48 216.22 202.59 230.00 208.00
C 233.03 199.09 238.81 190.89 241.87 182.92 C 244.93 174.95 251.71 164.90 260.75 156.75 C 269.78 148.60 278.96 146.11 291.92 147.07 C 304.88 148.03 310.69 150.84 320.08 159.92 C 329.48 169.00 331.36 175.32 332.67 188.33 C 333.98 201.34 329.28 211.75 322.31 224.31 C 315.33 236.86 309.86 252.43 301.92 264.92 C 293.99 277.42 296.72 292.22 293.00 303.00
C 300.33 303.00 307.67 303.00 315.00 303.00
C 310.47 317.97 303.86 330.38 299.40 344.25 C 294.94 358.13 289.53 371.20 285.13 385.08 C 280.73 398.97 273.71 410.91 270.59 425.25 C 267.47 439.59 255.27 450.91 257.36 468.30 C 259.46 485.68 286.05 479.87 287.88 464.90 C 289.72 449.93 299.34 438.61 302.24 424.25 C 305.14 409.89 314.43 398.00 317.94 384.08 C 321.45 370.17 327.95 357.14 332.65 343.70 C 337.35 330.25 342.25 316.16 346.00 303.00
C 350.00 303.00 354.00 303.00 358.00 303.00
C 359.95 314.39 366.35 324.70 369.81 335.75 C 373.26 346.80 377.70 357.66 381.81 368.75 C 385.92 379.83 389.26 389.96 393.36 401.30 C 397.46 412.63 401.95 422.73 405.41 434.25 C 408.87 445.76 415.19 454.83 417.42 467.23 C 419.66 479.63 441.51 485.21 446.81 470.25 C 452.12 455.30 438.99 446.55 437.39 434.75 C 435.80 422.96 428.12 413.44 425.06 402.08 C 422.01 390.72 417.14 380.21 413.19 369.25 C 409.25 358.29 405.77 347.19 401.19 336.25 C 396.61 325.32 394.45 314.33 389.00 303.00
C 414.96 301.94 456.10 305.16 477.25 301.26 C 498.40 297.37 505.45 280.37 512.00 263.00
M 269.00 96.00 
C 284.24 94.40 303.24 98.50 320.00 97.00 C 336.76 95.50 357.42 98.00 374.00 97.00 C 390.58 96.00 413.61 98.17 429.00 97.00 C 444.39 95.83 449.43 103.10 446.24 116.25 C 443.06 129.39 426.53 126.08 411.00 126.00 C 395.47 125.92 373.27 126.08 357.00 126.00 C 340.73 125.92 317.73 126.13 302.00 126.00 C 286.27 125.87 267.98 128.98 259.90 120.10 C 251.83 111.22 259.75 96.97 269.00 96.00
M 363.00 152.00 
C 379.31 150.04 404.76 155.82 422.00 153.00 C 439.24 150.18 450.33 157.68 446.87 171.92 C 443.41 186.15 422.14 182.58 406.00 182.00 C 389.86 181.42 365.81 185.53 355.70 178.30 C 345.59 171.07 351.58 153.37 363.00 152.00
M 365.00 208.00 
C 381.38 207.45 407.62 211.17 424.00 209.00 C 440.38 206.83 451.37 214.85 446.81 229.25 C 442.25 243.65 417.52 238.54 402.00 239.00 C 386.48 239.46 363.64 241.49 354.75 233.25 C 345.86 225.00 351.85 208.44 365.00 208.00 Z"/>
</g>
<g fill="#000000" fill-opacity="1.00" stroke="None">
<path d="
M 0.00 285.00 
L 0.00 343.00
C 3.61 360.79 16.33 376.39 33.00 381.00
C 30.98 405.96 35.69 428.83 33.00 454.00 C 30.31 479.17 41.45 479.86 65.00 479.00 C 88.55 478.14 114.51 478.23 138.00 479.00 C 161.49 479.77 158.44 465.19 158.00 442.00 C 157.56 418.81 158.23 392.74 158.00 369.00 C 157.77 345.26 158.17 319.89 158.00 296.00
C 169.16 301.92 176.82 305.20 187.70 310.29 C 198.58 315.38 204.49 321.37 218.30 323.69 C 232.12 326.01 246.33 320.47 255.61 311.75 C 264.89 303.04 264.87 288.34 264.40 275.74 C 263.94 263.14 274.73 255.88 277.29 245.30 C 279.84 234.72 289.75 227.22 292.61 216.75 C 295.47 206.29 307.50 197.54 300.39 183.75 C 293.29 169.96 274.74 179.71 271.19 190.75 C 267.64 201.78 261.86 209.20 257.71 219.70 C 253.57 230.20 246.32 237.67 243.00 249.00
C 221.97 239.37 202.55 226.09 181.75 217.39 C 160.96 208.69 141.23 191.98 111.00 193.00
C 108.34 193.09 105.66 192.93 103.00 193.00
C 104.44 190.24 106.95 192.72 109.00 191.00
C 143.42 186.63 163.70 149.04 159.40 116.75 C 155.09 84.46 124.92 59.81 90.08 62.07 C 55.24 64.32 33.15 91.66 30.93 124.92 C 28.70 158.19 55.20 188.42 87.00 193.00
C 63.07 196.41 46.59 202.73 28.25 221.25 C 9.90 239.77 2.23 256.60 0.00 285.00 Z"/>
</g>
<g fill="#000000" fill-opacity="0.00" stroke="None">
<path d="
M 269.00 96.00 
C 259.75 96.97 251.83 111.22 259.90 120.10 C 267.98 128.98 286.27 125.87 302.00 126.00 C 317.73 126.13 340.73 125.92 357.00 126.00 C 373.27 126.08 395.47 125.92 411.00 126.00 C 426.53 126.08 443.06 129.39 446.24 116.25 C 449.43 103.10 444.39 95.83 429.00 97.00 C 413.61 98.17 390.58 96.00 374.00 97.00 C 357.42 98.00 336.76 95.50 320.00 97.00 C 303.24 98.50 284.24 94.40 269.00 96.00 Z"/>
</g>
<g fill="#000000" fill-opacity="0.01" stroke="None">
<path d="
M 363.00 152.00 
C 351.58 153.37 345.59 171.07 355.70 178.30 C 365.81 185.53 389.86 181.42 406.00 182.00 C 422.14 182.58 443.41 186.15 446.87 171.92 C 450.33 157.68 439.24 150.18 422.00 153.00 C 404.76 155.82 379.31 150.04 363.00 152.00 Z"/>
</g>
<g fill="#000000" fill-opacity="0.38" stroke="None">
<path d="
M 111.00 193.00 
C 110.66 192.90 109.42 191.14 109.00 191.00
C 106.95 192.72 104.44 190.24 103.00 193.00
C 105.66 192.93 108.34 193.09 111.00 193.00 Z"/>
</g>
<g fill="#000000" fill-opacity="0.02" stroke="None">
<path d="
M 365.00 208.00 
C 351.85 208.44 345.86 225.00 354.75 233.25 C 363.64 241.49 386.48 239.46 402.00 239.00 C 417.52 238.54 442.25 243.65 446.81 229.25 C 451.37 214.85 440.38 206.83 424.00 209.00 C 407.62 211.17 381.38 207.45 365.00 208.00 Z"/>
</g>
</svg>