<svg xmlns="http://www.w3.org/2000/svg" xmlns:v="https://svgstorm.com"
viewBox = "0 0 512 512"
width="512"
height="512">
<g fill="None" fill-opacity="0.0" stroke="#000000" stroke-opacity="0.20" stroke-width="0.3"><path d="
M 0.00 8.00 
C 1.70 3.98 3.98 1.78 8.00 0.00
L 0.00 0.00
L 0.00 8.00 Z"/>
</g>
<g fill="None" fill-opacity="0.0" stroke="#000000" stroke-opacity="1.00" stroke-width="0.3"><path d="
M 0.00 8.00 
L 0.00 139.00
C 2.94 159.94 17.12 179.68 37.00 188.00
C 36.79 218.01 37.28 249.10 37.00 279.00 C 36.72 308.90 37.54 341.59 37.00 371.00 C 36.46 400.41 38.16 433.85 37.00 462.00 C 35.84 490.15 38.60 503.38 61.00 512.00
L 71.00 512.00
C 82.55 507.39 92.52 505.02 95.21 490.77 C 97.91 476.52 96.94 453.44 97.00 435.00 C 97.06 416.56 96.97 392.57 97.00 373.00 C 97.03 353.43 96.99 332.11 97.00 312.00 C 97.01 291.89 96.99 270.38 97.00 250.00 C 97.01 229.62 97.00 208.45 97.00 188.00
C 107.88 184.30 119.31 173.96 125.19 162.75 C 131.06 151.54 135.28 142.83 134.00 124.00 C 132.72 105.17 135.80 74.25 134.00 55.00 C 132.20 35.75 141.39 7.52 125.00 0.00
L 122.00 0.00
C 107.65 8.98 115.52 32.44 114.00 52.00 C 112.48 71.56 115.14 97.83 114.00 118.00
C 108.00 118.00 102.00 118.00 96.00 118.00
C 95.13 97.91 97.17 72.56 96.00 53.00 C 94.83 33.44 100.85 11.14 90.00 0.00
L 84.00 0.00
C 69.65 8.98 77.52 32.44 76.00 52.00 C 74.48 71.56 77.14 97.83 76.00 118.00
C 70.00 118.00 64.00 118.00 58.00 118.00
C 56.70 97.86 59.74 71.52 58.00 52.00 C 56.26 32.48 65.16 7.55 49.00 0.00
L 46.00 0.00
C 31.65 8.98 39.52 32.44 38.00 52.00 C 36.48 71.56 39.14 97.83 38.00 118.00
C 32.00 118.00 26.00 118.00 20.00 118.00
C 18.70 97.86 21.74 71.52 20.00 52.00 C 18.26 32.48 27.16 7.55 11.00 0.00
L 8.00 0.00
C 3.98 1.78 1.70 3.98 0.00 8.00
M 114.00 138.00 
C 111.50 149.26 105.89 159.18 95.90 165.91 C 85.91 172.63 75.87 170.19 77.00 189.00 C 78.13 207.81 76.48 228.94 77.00 248.00 C 77.52 267.06 76.76 286.97 77.00 306.00 C 77.24 325.03 76.87 346.31 77.00 365.00 C 77.13 383.69 76.89 405.24 77.00 423.00 C 77.11 440.76 76.84 465.20 77.00 481.00 C 77.16 496.80 56.11 495.99 57.01 479.99 C 57.90 463.99 56.56 439.91 57.00 422.00 C 57.44 404.09 56.71 381.69 57.00 363.00 C 57.29 344.31 56.68 323.94 57.00 305.00 C 57.32 286.06 56.43 265.94 57.00 247.00 C 57.57 228.06 55.83 206.57 57.00 188.00 C 58.17 169.43 46.58 172.55 36.70 164.30 C 26.81 156.05 22.56 149.47 20.00 138.00
C 51.33 138.00 82.67 138.00 114.00 138.00 Z"/>
</g>
<g fill="None" fill-opacity="0.0" stroke="#000000" stroke-opacity="0.00" stroke-width="0.3"><path d="
M 46.00 0.00 
L 11.00 0.00
C 27.16 7.55 18.26 32.48 20.00 52.00 C 21.74 71.52 18.70 97.86 20.00 118.00
C 26.00 118.00 32.00 118.00 38.00 118.00
C 39.14 97.83 36.48 71.56 38.00 52.00 C 39.52 32.44 31.65 8.98 46.00 0.00 Z"/>
</g>
<g fill="None" fill-opacity="0.0" stroke="#000000" stroke-opacity="0.00" stroke-width="0.3"><path d="
M 84.00 0.00 
L 49.00 0.00
C 65.16 7.55 56.26 32.48 58.00 52.00 C 59.74 71.52 56.70 97.86 58.00 118.00
C 64.00 118.00 70.00 118.00 76.00 118.00
C 77.14 97.83 74.48 71.56 76.00 52.00 C 77.52 32.44 69.65 8.98 84.00 0.00 Z"/>
</g>
<g fill="None" fill-opacity="0.0" stroke="#000000" stroke-opacity="0.00" stroke-width="0.3"><path d="
M 122.00 0.00 
L 90.00 0.00
C 100.85 11.14 94.83 33.44 96.00 53.00 C 97.17 72.56 95.13 97.91 96.00 118.00
C 102.00 118.00 108.00 118.00 114.00 118.00
C 115.14 97.83 112.48 71.56 114.00 52.00 C 115.52 32.44 107.65 8.98 122.00 0.00 Z"/>
</g>
<g fill="None" fill-opacity="0.0" stroke="#000000" stroke-opacity="0.01" stroke-width="0.3"><path d="
M 71.00 512.00 
L 475.00 512.00
C 465.96 505.60 453.92 503.35 452.74 489.25 C 451.55 475.15 451.85 451.40 452.00 434.00 C 452.15 416.60 451.46 391.89 452.00 374.00 C 452.54 356.11 454.81 336.37 441.25 324.75 C 427.68 313.14 427.10 309.47 421.42 298.23 C 415.75 286.99 418.53 269.50 418.00 253.00 C 417.47 236.50 418.00 209.77 418.00 193.00 C 418.00 176.23 417.45 150.67 418.20 136.75 C 418.95 122.83 420.65 116.61 423.21 104.77 C 425.78 92.93 430.20 85.20 433.80 75.75 C 437.40 66.30 442.48 58.95 447.80 49.75 C 453.11 40.55 462.43 32.47 472.25 22.25 C 482.06 12.02 489.50 5.74 500.00 0.00
L 125.00 0.00
C 141.39 7.52 132.20 35.75 134.00 55.00 C 135.80 74.25 132.72 105.17 134.00 124.00 C 135.28 142.83 131.06 151.54 125.19 162.75 C 119.31 173.96 107.88 184.30 97.00 188.00
C 97.00 208.45 97.01 229.62 97.00 250.00 C 96.99 270.38 97.01 291.89 97.00 312.00 C 96.99 332.11 97.03 353.43 97.00 373.00 C 96.97 392.57 97.06 416.56 97.00 435.00 C 96.94 453.44 97.91 476.52 95.21 490.77 C 92.52 505.02 82.55 507.39 71.00 512.00
M 164.00 90.00 
C 173.55 82.72 179.27 80.97 188.90 76.88 C 198.53 72.80 205.71 72.23 215.75 69.60 C 225.79 66.98 234.97 65.98 247.08 65.93 C 259.18 65.88 276.89 65.54 287.25 67.80 C 297.60 70.06 305.89 71.18 315.75 74.59 C 325.60 78.01 332.69 81.02 340.92 85.13 C 349.15 89.24 355.04 93.10 364.25 98.19 C 373.46 103.28 378.71 112.79 390.25 119.75 C 401.79 126.71 396.16 145.29 385.26 141.60 C 374.36 137.91 367.75 124.29 358.75 119.81 C 349.75 115.33 342.67 107.06 334.23 103.42 C 325.79 99.79 317.42 96.36 308.25 93.60 C 299.08 90.84 288.94 87.67 278.75 86.80 C 268.57 85.93 250.71 84.30 240.25 85.60 C 229.79 86.91 220.28 87.86 210.25 91.26 C 200.21 94.67 192.30 95.63 183.75 100.80 C 175.21 105.97 161.67 105.54 164.00 90.00
M 241.00 114.00 
C 269.36 110.45 299.70 119.58 318.70 128.31 C 337.70 137.03 361.50 157.30 374.59 177.75 C 387.67 198.21 393.52 214.22 397.19 241.25 C 400.87 268.28 393.05 297.04 384.87 314.92 C 376.69 332.79 357.31 360.05 335.70 373.71 C 314.09 387.38 300.11 392.90 272.25 397.26 C 244.39 401.63 215.30 392.49 196.70 384.29 C 178.09 376.08 153.16 358.19 139.81 336.75 C 126.47 315.30 118.78 300.50 115.20 272.75 C 111.62 245.00 118.78 215.80 127.13 197.08 C 135.48 178.37 155.62 151.88 176.75 138.74 C 197.89 125.59 213.36 117.45 241.00 114.00
M 148.00 412.00 
C 147.07 393.16 164.25 399.01 172.77 405.58 C 181.29 412.14 193.83 414.93 203.70 418.35 C 213.57 421.77 225.32 425.71 237.75 426.59 C 250.18 427.47 269.98 427.42 281.75 425.60 C 293.52 423.78 307.52 419.89 316.90 415.88 C 326.28 411.88 337.65 408.16 346.25 401.81 C 354.85 395.46 368.48 388.16 376.75 377.75 C 385.02 367.34 400.20 349.85 407.13 363.92 C 414.06 377.98 391.21 388.97 383.10 399.10 C 374.98 409.23 362.74 414.03 353.70 420.71 C 344.65 427.39 332.97 430.41 323.08 435.13 C 313.20 439.85 301.62 440.84 290.75 443.80 C 279.89 446.76 257.60 446.97 243.98 446.02 C 230.35 445.08 220.89 445.08 208.75 441.80 C 196.61 438.52 186.80 434.08 176.70 429.29 C 166.59 424.49 158.03 422.35 148.00 412.00
M 125.00 374.00 
C 137.50 371.38 143.57 388.47 131.75 393.19 C 119.92 397.91 111.84 376.76 125.00 374.00 Z"/>
</g>
<g fill="None" fill-opacity="0.0" stroke="#000000" stroke-opacity="0.99" stroke-width="0.3"><path d="
M 475.00 512.00 
L 485.00 512.00
C 498.96 510.31 510.31 499.02 512.00 485.00
L 512.00 8.00
C 510.27 3.65 507.64 1.41 503.00 0.00
L 500.00 0.00
C 489.50 5.74 482.06 12.02 472.25 22.25 C 462.43 32.47 453.11 40.55 447.80 49.75 C 442.48 58.95 437.40 66.30 433.80 75.75 C 430.20 85.20 425.78 92.93 423.21 104.77 C 420.65 116.61 418.95 122.83 418.20 136.75 C 417.45 150.67 418.00 176.23 418.00 193.00 C 418.00 209.77 417.47 236.50 418.00 253.00 C 418.53 269.50 415.75 286.99 421.42 298.23 C 427.10 309.47 427.68 313.14 441.25 324.75 C 454.81 336.37 452.54 356.11 452.00 374.00 C 451.46 391.89 452.15 416.60 452.00 434.00 C 451.85 451.40 451.55 475.15 452.74 489.25 C 453.92 503.35 465.96 505.60 475.00 512.00
M 491.00 30.00 
C 493.02 47.97 491.74 67.21 492.00 86.00 C 492.26 104.79 491.89 124.12 492.00 143.00 C 492.11 161.88 491.97 181.11 492.00 200.00 C 492.03 218.89 492.03 238.18 492.00 257.00 C 491.97 275.82 492.10 295.38 492.00 314.00 C 491.90 332.62 492.25 352.82 492.00 371.00 C 491.75 389.18 492.56 410.81 492.00 428.00 C 491.44 445.19 493.52 469.04 491.40 483.74 C 489.28 498.44 470.09 493.41 472.00 478.00 C 473.92 462.59 471.21 437.84 472.00 421.00 C 472.79 404.16 471.81 380.84 472.00 364.00 C 472.19 347.16 474.99 330.06 465.75 319.25 C 456.52 308.44 444.65 302.41 440.24 291.75 C 435.83 281.09 438.54 261.14 438.00 245.00 C 437.46 228.86 438.07 204.08 438.00 188.00 C 437.93 171.92 437.66 149.49 438.20 136.75 C 438.73 124.01 441.29 118.64 443.19 108.75 C 445.09 98.85 449.69 90.45 453.13 82.08 C 456.57 73.71 461.41 66.43 467.32 57.32 C 473.23 48.21 482.94 40.81 491.00 30.00 Z"/>
</g>
<g fill="None" fill-opacity="0.0" stroke="#000000" stroke-opacity="0.22" stroke-width="0.3"><path d="
M 512.00 8.00 
L 512.00 0.00
L 503.00 0.00
C 507.64 1.41 510.27 3.65 512.00 8.00 Z"/>
</g>
<g fill="None" fill-opacity="0.0" stroke="#000000" stroke-opacity="0.00" stroke-width="0.3"><path d="
M 491.00 30.00 
C 482.94 40.81 473.23 48.21 467.32 57.32 C 461.41 66.43 456.57 73.71 453.13 82.08 C 449.69 90.45 445.09 98.85 443.19 108.75 C 441.29 118.64 438.73 124.01 438.20 136.75 C 437.66 149.49 437.93 171.92 438.00 188.00 C 438.07 204.08 437.46 228.86 438.00 245.00 C 438.54 261.14 435.83 281.09 440.24 291.75 C 444.65 302.41 456.52 308.44 465.75 319.25 C 474.99 330.06 472.19 347.16 472.00 364.00 C 471.81 380.84 472.79 404.16 472.00 421.00 C 471.21 437.84 473.92 462.59 472.00 478.00 C 470.09 493.41 489.28 498.44 491.40 483.74 C 493.52 469.04 491.44 445.19 492.00 428.00 C 492.56 410.81 491.75 389.18 492.00 371.00 C 492.25 352.82 491.90 332.62 492.00 314.00 C 492.10 295.38 491.97 275.82 492.00 257.00 C 492.03 238.18 492.03 218.89 492.00 200.00 C 491.97 181.11 492.11 161.88 492.00 143.00 C 491.89 124.12 492.26 104.79 492.00 86.00 C 491.74 67.21 493.02 47.97 491.00 30.00 Z"/>
</g>
<g fill="None" fill-opacity="0.0" stroke="#000000" stroke-opacity="0.97" stroke-width="0.3"><path d="
M 164.00 90.00 
C 161.67 105.54 175.21 105.97 183.75 100.80 C 192.30 95.63 200.21 94.67 210.25 91.26 C 220.28 87.86 229.79 86.91 240.25 85.60 C 250.71 84.30 268.57 85.93 278.75 86.80 C 288.94 87.67 299.08 90.84 308.25 93.60 C 317.42 96.36 325.79 99.79 334.23 103.42 C 342.67 107.06 349.75 115.33 358.75 119.81 C 367.75 124.29 374.36 137.91 385.26 141.60 C 396.16 145.29 401.79 126.71 390.25 119.75 C 378.71 112.79 373.46 103.28 364.25 98.19 C 355.04 93.10 349.15 89.24 340.92 85.13 C 332.69 81.02 325.60 78.01 315.75 74.59 C 305.89 71.18 297.60 70.06 287.25 67.80 C 276.89 65.54 259.18 65.88 247.08 65.93 C 234.97 65.98 225.79 66.98 215.75 69.60 C 205.71 72.23 198.53 72.80 188.90 76.88 C 179.27 80.97 173.55 82.72 164.00 90.00 Z"/>
</g>
<g fill="None" fill-opacity="0.0" stroke="#000000" stroke-opacity="0.97" stroke-width="0.3"><path d="
M 241.00 114.00 
C 213.36 117.45 197.89 125.59 176.75 138.74 C 155.62 151.88 135.48 178.37 127.13 197.08 C 118.78 215.80 111.62 245.00 115.20 272.75 C 118.78 300.50 126.47 315.30 139.81 336.75 C 153.16 358.19 178.09 376.08 196.70 384.29 C 215.30 392.49 244.39 401.63 272.25 397.26 C 300.11 392.90 314.09 387.38 335.70 373.71 C 357.31 360.05 376.69 332.79 384.87 314.92 C 393.05 297.04 400.87 268.28 397.19 241.25 C 393.52 214.22 387.67 198.21 374.59 177.75 C 361.50 157.30 337.70 137.03 318.70 128.31 C 299.70 119.58 269.36 110.45 241.00 114.00
M 242.00 134.00 
C 265.74 131.86 291.17 138.44 307.75 145.59 C 324.34 152.74 344.83 169.91 356.39 187.75 C 367.96 205.59 374.18 218.20 377.59 241.75 C 381.01 265.29 373.48 291.08 366.41 307.75 C 359.34 324.43 342.07 344.55 324.25 356.39 C 306.42 368.24 293.61 374.29 269.92 377.92 C 246.23 381.55 220.76 372.99 204.25 366.41 C 187.73 359.83 167.37 341.89 155.61 324.25 C 143.84 306.60 137.96 293.85 134.41 270.25 C 130.86 246.64 138.90 220.35 145.59 204.25 C 152.28 188.15 170.33 166.48 187.75 155.61 C 205.17 144.73 219.36 136.04 242.00 134.00 Z"/>
</g>
<g fill="None" fill-opacity="0.0" stroke="#000000" stroke-opacity="0.01" stroke-width="0.3"><path d="
M 242.00 134.00 
C 219.36 136.04 205.17 144.73 187.75 155.61 C 170.33 166.48 152.28 188.15 145.59 204.25 C 138.90 220.35 130.86 246.64 134.41 270.25 C 137.96 293.85 143.84 306.60 155.61 324.25 C 167.37 341.89 187.73 359.83 204.25 366.41 C 220.76 372.99 246.23 381.55 269.92 377.92 C 293.61 374.29 306.42 368.24 324.25 356.39 C 342.07 344.55 359.34 324.43 366.41 307.75 C 373.48 291.08 381.01 265.29 377.59 241.75 C 374.18 218.20 367.96 205.59 356.39 187.75 C 344.83 169.91 324.34 152.74 307.75 145.59 C 291.17 138.44 265.74 131.86 242.00 134.00
M 251.00 184.00 
C 244.17 177.34 244.23 170.99 251.00 164.00
C 258.31 163.90 265.99 165.87 265.98 174.03 C 265.97 182.18 258.58 184.39 251.00 184.00
M 234.00 185.00 
C 223.55 191.98 214.52 196.56 204.75 205.75 C 194.98 214.95 191.47 224.51 187.61 234.75 C 183.74 244.99 187.15 267.03 172.97 265.98 C 158.79 264.92 164.59 243.47 166.40 233.25 C 168.20 223.03 175.76 211.73 181.70 202.70 C 187.64 193.67 201.01 181.99 209.30 176.29 C 217.60 170.59 235.56 166.65 234.00 185.00 Z"/>
</g>
<g fill="None" fill-opacity="0.0" stroke="#000000" stroke-opacity="0.00" stroke-width="0.3"><path d="
M 114.00 138.00 
C 82.67 138.00 51.33 138.00 20.00 138.00
C 22.56 149.47 26.81 156.05 36.70 164.30 C 46.58 172.55 58.17 169.43 57.00 188.00 C 55.83 206.57 57.57 228.06 57.00 247.00 C 56.43 265.94 57.32 286.06 57.00 305.00 C 56.68 323.94 57.29 344.31 57.00 363.00 C 56.71 381.69 57.44 404.09 57.00 422.00 C 56.56 439.91 57.90 463.99 57.01 479.99 C 56.11 495.99 77.16 496.80 77.00 481.00 C 76.84 465.20 77.11 440.76 77.00 423.00 C 76.89 405.24 77.13 383.69 77.00 365.00 C 76.87 346.31 77.24 325.03 77.00 306.00 C 76.76 286.97 77.52 267.06 77.00 248.00 C 76.48 228.94 78.13 207.81 77.00 189.00 C 75.87 170.19 85.91 172.63 95.90 165.91 C 105.89 159.18 111.50 149.26 114.00 138.00 Z"/>
</g>
<g fill="None" fill-opacity="0.0" stroke="#000000" stroke-opacity="0.00" stroke-width="0.3"><path d="
M 0.00 512.00 
L 61.00 512.00
C 38.60 503.38 35.84 490.15 37.00 462.00 C 38.16 433.85 36.46 400.41 37.00 371.00 C 37.54 341.59 36.72 308.90 37.00 279.00 C 37.28 249.10 36.79 218.01 37.00 188.00
C 17.12 179.68 2.94 159.94 0.00 139.00
L 0.00 512.00 Z"/>
</g>
<g fill="None" fill-opacity="0.0" stroke="#000000" stroke-opacity="0.96" stroke-width="0.3"><path d="
M 251.00 184.00 
C 258.58 184.39 265.97 182.18 265.98 174.03 C 265.99 165.87 258.31 163.90 251.00 164.00
C 244.23 170.99 244.17 177.34 251.00 184.00 Z"/>
</g>
<g fill="None" fill-opacity="0.0" stroke="#000000" stroke-opacity="0.97" stroke-width="0.3"><path d="
M 234.00 185.00 
C 235.56 166.65 217.60 170.59 209.30 176.29 C 201.01 181.99 187.64 193.67 181.70 202.70 C 175.76 211.73 168.20 223.03 166.40 233.25 C 164.59 243.47 158.79 264.92 172.97 265.98 C 187.15 267.03 183.74 244.99 187.61 234.75 C 191.47 224.51 194.98 214.95 204.75 205.75 C 214.52 196.56 223.55 191.98 234.00 185.00 Z"/>
</g>
<g fill="None" fill-opacity="0.0" stroke="#000000" stroke-opacity="0.97" stroke-width="0.3"><path d="
M 148.00 412.00 
C 158.03 422.35 166.59 424.49 176.70 429.29 C 186.80 434.08 196.61 438.52 208.75 441.80 C 220.89 445.08 230.35 445.08 243.98 446.02 C 257.60 446.97 279.89 446.76 290.75 443.80 C 301.62 440.84 313.20 439.85 323.08 435.13 C 332.97 430.41 344.65 427.39 353.70 420.71 C 362.74 414.03 374.98 409.23 383.10 399.10 C 391.21 388.97 414.06 377.98 407.13 363.92 C 400.20 349.85 385.02 367.34 376.75 377.75 C 368.48 388.16 354.85 395.46 346.25 401.81 C 337.65 408.16 326.28 411.88 316.90 415.88 C 307.52 419.89 293.52 423.78 281.75 425.60 C 269.98 427.42 250.18 427.47 237.75 426.59 C 225.32 425.71 213.57 421.77 203.70 418.35 C 193.83 414.93 181.29 412.14 172.77 405.58 C 164.25 399.01 147.07 393.16 148.00 412.00 Z"/>
</g>
<g fill="None" fill-opacity="0.0" stroke="#000000" stroke-opacity="0.95" stroke-width="0.3"><path d="
M 125.00 374.00 
C 111.84 376.76 119.92 397.91 131.75 393.19 C 143.57 388.47 137.50 371.38 125.00 374.00 Z"/>
</g>
<g fill="None" fill-opacity="0.0" stroke="#000000" stroke-opacity="0.07" stroke-width="0.3"><path d="
M 485.00 512.00 
L 512.00 512.00
L 512.00 485.00
C 510.31 499.02 498.96 510.31 485.00 512.00 Z"/>
</g>
<g fill="#000000" fill-opacity="0.20" stroke="None">
<path d="
M 0.00 8.00 
C 1.70 3.98 3.98 1.78 8.00 0.00
L 0.00 0.00
L 0.00 8.00 Z"/>
</g>
<g fill="#000000" fill-opacity="1.00" stroke="None">
<path d="
M 0.00 8.00 
L 0.00 139.00
C 2.94 159.94 17.12 179.68 37.00 188.00
C 36.79 218.01 37.28 249.10 37.00 279.00 C 36.72 308.90 37.54 341.59 37.00 371.00 C 36.46 400.41 38.16 433.85 37.00 462.00 C 35.84 490.15 38.60 503.38 61.00 512.00
L 71.00 512.00
C 82.55 507.39 92.52 505.02 95.21 490.77 C 97.91 476.52 96.94 453.44 97.00 435.00 C 97.06 416.56 96.97 392.57 97.00 373.00 C 97.03 353.43 96.99 332.11 97.00 312.00 C 97.01 291.89 96.99 270.38 97.00 250.00 C 97.01 229.62 97.00 208.45 97.00 188.00
C 107.88 184.30 119.31 173.96 125.19 162.75 C 131.06 151.54 135.28 142.83 134.00 124.00 C 132.72 105.17 135.80 74.25 134.00 55.00 C 132.20 35.75 141.39 7.52 125.00 0.00
L 122.00 0.00
C 107.65 8.98 115.52 32.44 114.00 52.00 C 112.48 71.56 115.14 97.83 114.00 118.00
C 108.00 118.00 102.00 118.00 96.00 118.00
C 95.13 97.91 97.17 72.56 96.00 53.00 C 94.83 33.44 100.85 11.14 90.00 0.00
L 84.00 0.00
C 69.65 8.98 77.52 32.44 76.00 52.00 C 74.48 71.56 77.14 97.83 76.00 118.00
C 70.00 118.00 64.00 118.00 58.00 118.00
C 56.70 97.86 59.74 71.52 58.00 52.00 C 56.26 32.48 65.16 7.55 49.00 0.00
L 46.00 0.00
C 31.65 8.98 39.52 32.44 38.00 52.00 C 36.48 71.56 39.14 97.83 38.00 118.00
C 32.00 118.00 26.00 118.00 20.00 118.00
C 18.70 97.86 21.74 71.52 20.00 52.00 C 18.26 32.48 27.16 7.55 11.00 0.00
L 8.00 0.00
C 3.98 1.78 1.70 3.98 0.00 8.00
M 114.00 138.00 
C 111.50 149.26 105.89 159.18 95.90 165.91 C 85.91 172.63 75.87 170.19 77.00 189.00 C 78.13 207.81 76.48 228.94 77.00 248.00 C 77.52 267.06 76.76 286.97 77.00 306.00 C 77.24 325.03 76.87 346.31 77.00 365.00 C 77.13 383.69 76.89 405.24 77.00 423.00 C 77.11 440.76 76.84 465.20 77.00 481.00 C 77.16 496.80 56.11 495.99 57.01 479.99 C 57.90 463.99 56.56 439.91 57.00 422.00 C 57.44 404.09 56.71 381.69 57.00 363.00 C 57.29 344.31 56.68 323.94 57.00 305.00 C 57.32 286.06 56.43 265.94 57.00 247.00 C 57.57 228.06 55.83 206.57 57.00 188.00 C 58.17 169.43 46.58 172.55 36.70 164.30 C 26.81 156.05 22.56 149.47 20.00 138.00
C 51.33 138.00 82.67 138.00 114.00 138.00 Z"/>
</g>
<g fill="#000000" fill-opacity="0.00" stroke="None">
<path d="
M 46.00 0.00 
L 11.00 0.00
C 27.16 7.55 18.26 32.48 20.00 52.00 C 21.74 71.52 18.70 97.86 20.00 118.00
C 26.00 118.00 32.00 118.00 38.00 118.00
C 39.14 97.83 36.48 71.56 38.00 52.00 C 39.52 32.44 31.65 8.98 46.00 0.00 Z"/>
</g>
<g fill="#000000" fill-opacity="0.00" stroke="None">
<path d="
M 84.00 0.00 
L 49.00 0.00
C 65.16 7.55 56.26 32.48 58.00 52.00 C 59.74 71.52 56.70 97.86 58.00 118.00
C 64.00 118.00 70.00 118.00 76.00 118.00
C 77.14 97.83 74.48 71.56 76.00 52.00 C 77.52 32.44 69.65 8.98 84.00 0.00 Z"/>
</g>
<g fill="#000000" fill-opacity="0.00" stroke="None">
<path d="
M 122.00 0.00 
L 90.00 0.00
C 100.85 11.14 94.83 33.44 96.00 53.00 C 97.17 72.56 95.13 97.91 96.00 118.00
C 102.00 118.00 108.00 118.00 114.00 118.00
C 115.14 97.83 112.48 71.56 114.00 52.00 C 115.52 32.44 107.65 8.98 122.00 0.00 Z"/>
</g>
<g fill="#000000" fill-opacity="0.01" stroke="None">
<path d="
M 71.00 512.00 
L 475.00 512.00
C 465.96 505.60 453.92 503.35 452.74 489.25 C 451.55 475.15 451.85 451.40 452.00 434.00 C 452.15 416.60 451.46 391.89 452.00 374.00 C 452.54 356.11 454.81 336.37 441.25 324.75 C 427.68 313.14 427.10 309.47 421.42 298.23 C 415.75 286.99 418.53 269.50 418.00 253.00 C 417.47 236.50 418.00 209.77 418.00 193.00 C 418.00 176.23 417.45 150.67 418.20 136.75 C 418.95 122.83 420.65 116.61 423.21 104.77 C 425.78 92.93 430.20 85.20 433.80 75.75 C 437.40 66.30 442.48 58.95 447.80 49.75 C 453.11 40.55 462.43 32.47 472.25 22.25 C 482.06 12.02 489.50 5.74 500.00 0.00
L 125.00 0.00
C 141.39 7.52 132.20 35.75 134.00 55.00 C 135.80 74.25 132.72 105.17 134.00 124.00 C 135.28 142.83 131.06 151.54 125.19 162.75 C 119.31 173.96 107.88 184.30 97.00 188.00
C 97.00 208.45 97.01 229.62 97.00 250.00 C 96.99 270.38 97.01 291.89 97.00 312.00 C 96.99 332.11 97.03 353.43 97.00 373.00 C 96.97 392.57 97.06 416.56 97.00 435.00 C 96.94 453.44 97.91 476.52 95.21 490.77 C 92.52 505.02 82.55 507.39 71.00 512.00
M 164.00 90.00 
C 173.55 82.72 179.27 80.97 188.90 76.88 C 198.53 72.80 205.71 72.23 215.75 69.60 C 225.79 66.98 234.97 65.98 247.08 65.93 C 259.18 65.88 276.89 65.54 287.25 67.80 C 297.60 70.06 305.89 71.18 315.75 74.59 C 325.60 78.01 332.69 81.02 340.92 85.13 C 349.15 89.24 355.04 93.10 364.25 98.19 C 373.46 103.28 378.71 112.79 390.25 119.75 C 401.79 126.71 396.16 145.29 385.26 141.60 C 374.36 137.91 367.75 124.29 358.75 119.81 C 349.75 115.33 342.67 107.06 334.23 103.42 C 325.79 99.79 317.42 96.36 308.25 93.60 C 299.08 90.84 288.94 87.67 278.75 86.80 C 268.57 85.93 250.71 84.30 240.25 85.60 C 229.79 86.91 220.28 87.86 210.25 91.26 C 200.21 94.67 192.30 95.63 183.75 100.80 C 175.21 105.97 161.67 105.54 164.00 90.00
M 241.00 114.00 
C 269.36 110.45 299.70 119.58 318.70 128.31 C 337.70 137.03 361.50 157.30 374.59 177.75 C 387.67 198.21 393.52 214.22 397.19 241.25 C 400.87 268.28 393.05 297.04 384.87 314.92 C 376.69 332.79 357.31 360.05 335.70 373.71 C 314.09 387.38 300.11 392.90 272.25 397.26 C 244.39 401.63 215.30 392.49 196.70 384.29 C 178.09 376.08 153.16 358.19 139.81 336.75 C 126.47 315.30 118.78 300.50 115.20 272.75 C 111.62 245.00 118.78 215.80 127.13 197.08 C 135.48 178.37 155.62 151.88 176.75 138.74 C 197.89 125.59 213.36 117.45 241.00 114.00
M 148.00 412.00 
C 147.07 393.16 164.25 399.01 172.77 405.58 C 181.29 412.14 193.83 414.93 203.70 418.35 C 213.57 421.77 225.32 425.71 237.75 426.59 C 250.18 427.47 269.98 427.42 281.75 425.60 C 293.52 423.78 307.52 419.89 316.90 415.88 C 326.28 411.88 337.65 408.16 346.25 401.81 C 354.85 395.46 368.48 388.16 376.75 377.75 C 385.02 367.34 400.20 349.85 407.13 363.92 C 414.06 377.98 391.21 388.97 383.10 399.10 C 374.98 409.23 362.74 414.03 353.70 420.71 C 344.65 427.39 332.97 430.41 323.08 435.13 C 313.20 439.85 301.62 440.84 290.75 443.80 C 279.89 446.76 257.60 446.97 243.98 446.02 C 230.35 445.08 220.89 445.08 208.75 441.80 C 196.61 438.52 186.80 434.08 176.70 429.29 C 166.59 424.49 158.03 422.35 148.00 412.00
M 125.00 374.00 
C 137.50 371.38 143.57 388.47 131.75 393.19 C 119.92 397.91 111.84 376.76 125.00 374.00 Z"/>
</g>
<g fill="#000000" fill-opacity="0.99" stroke="None">
<path d="
M 475.00 512.00 
L 485.00 512.00
C 498.96 510.31 510.31 499.02 512.00 485.00
L 512.00 8.00
C 510.27 3.65 507.64 1.41 503.00 0.00
L 500.00 0.00
C 489.50 5.74 482.06 12.02 472.25 22.25 C 462.43 32.47 453.11 40.55 447.80 49.75 C 442.48 58.95 437.40 66.30 433.80 75.75 C 430.20 85.20 425.78 92.93 423.21 104.77 C 420.65 116.61 418.95 122.83 418.20 136.75 C 417.45 150.67 418.00 176.23 418.00 193.00 C 418.00 209.77 417.47 236.50 418.00 253.00 C 418.53 269.50 415.75 286.99 421.42 298.23 C 427.10 309.47 427.68 313.14 441.25 324.75 C 454.81 336.37 452.54 356.11 452.00 374.00 C 451.46 391.89 452.15 416.60 452.00 434.00 C 451.85 451.40 451.55 475.15 452.74 489.25 C 453.92 503.35 465.96 505.60 475.00 512.00
M 491.00 30.00 
C 493.02 47.97 491.74 67.21 492.00 86.00 C 492.26 104.79 491.89 124.12 492.00 143.00 C 492.11 161.88 491.97 181.11 492.00 200.00 C 492.03 218.89 492.03 238.18 492.00 257.00 C 491.97 275.82 492.10 295.38 492.00 314.00 C 491.90 332.62 492.25 352.82 492.00 371.00 C 491.75 389.18 492.56 410.81 492.00 428.00 C 491.44 445.19 493.52 469.04 491.40 483.74 C 489.28 498.44 470.09 493.41 472.00 478.00 C 473.92 462.59 471.21 437.84 472.00 421.00 C 472.79 404.16 471.81 380.84 472.00 364.00 C 472.19 347.16 474.99 330.06 465.75 319.25 C 456.52 308.44 444.65 302.41 440.24 291.75 C 435.83 281.09 438.54 261.14 438.00 245.00 C 437.46 228.86 438.07 204.08 438.00 188.00 C 437.93 171.92 437.66 149.49 438.20 136.75 C 438.73 124.01 441.29 118.64 443.19 108.75 C 445.09 98.85 449.69 90.45 453.13 82.08 C 456.57 73.71 461.41 66.43 467.32 57.32 C 473.23 48.21 482.94 40.81 491.00 30.00 Z"/>
</g>
<g fill="#000000" fill-opacity="0.22" stroke="None">
<path d="
M 512.00 8.00 
L 512.00 0.00
L 503.00 0.00
C 507.64 1.41 510.27 3.65 512.00 8.00 Z"/>
</g>
<g fill="#000000" fill-opacity="0.00" stroke="None">
<path d="
M 491.00 30.00 
C 482.94 40.81 473.23 48.21 467.32 57.32 C 461.41 66.43 456.57 73.71 453.13 82.08 C 449.69 90.45 445.09 98.85 443.19 108.75 C 441.29 118.64 438.73 124.01 438.20 136.75 C 437.66 149.49 437.93 171.92 438.00 188.00 C 438.07 204.08 437.46 228.86 438.00 245.00 C 438.54 261.14 435.83 281.09 440.24 291.75 C 444.65 302.41 456.52 308.44 465.75 319.25 C 474.99 330.06 472.19 347.16 472.00 364.00 C 471.81 380.84 472.79 404.16 472.00 421.00 C 471.21 437.84 473.92 462.59 472.00 478.00 C 470.09 493.41 489.28 498.44 491.40 483.74 C 493.52 469.04 491.44 445.19 492.00 428.00 C 492.56 410.81 491.75 389.18 492.00 371.00 C 492.25 352.82 491.90 332.62 492.00 314.00 C 492.10 295.38 491.97 275.82 492.00 257.00 C 492.03 238.18 492.03 218.89 492.00 200.00 C 491.97 181.11 492.11 161.88 492.00 143.00 C 491.89 124.12 492.26 104.79 492.00 86.00 C 491.74 67.21 493.02 47.97 491.00 30.00 Z"/>
</g>
<g fill="#000000" fill-opacity="0.97" stroke="None">
<path d="
M 164.00 90.00 
C 161.67 105.54 175.21 105.97 183.75 100.80 C 192.30 95.63 200.21 94.67 210.25 91.26 C 220.28 87.86 229.79 86.91 240.25 85.60 C 250.71 84.30 268.57 85.93 278.75 86.80 C 288.94 87.67 299.08 90.84 308.25 93.60 C 317.42 96.36 325.79 99.79 334.23 103.42 C 342.67 107.06 349.75 115.33 358.75 119.81 C 367.75 124.29 374.36 137.91 385.26 141.60 C 396.16 145.29 401.79 126.71 390.25 119.75 C 378.71 112.79 373.46 103.28 364.25 98.19 C 355.04 93.10 349.15 89.24 340.92 85.13 C 332.69 81.02 325.60 78.01 315.75 74.59 C 305.89 71.18 297.60 70.06 287.25 67.80 C 276.89 65.54 259.18 65.88 247.08 65.93 C 234.97 65.98 225.79 66.98 215.75 69.60 C 205.71 72.23 198.53 72.80 188.90 76.88 C 179.27 80.97 173.55 82.72 164.00 90.00 Z"/>
</g>
<g fill="#000000" fill-opacity="0.97" stroke="None">
<path d="
M 241.00 114.00 
C 213.36 117.45 197.89 125.59 176.75 138.74 C 155.62 151.88 135.48 178.37 127.13 197.08 C 118.78 215.80 111.62 245.00 115.20 272.75 C 118.78 300.50 126.47 315.30 139.81 336.75 C 153.16 358.19 178.09 376.08 196.70 384.29 C 215.30 392.49 244.39 401.63 272.25 397.26 C 300.11 392.90 314.09 387.38 335.70 373.71 C 357.31 360.05 376.69 332.79 384.87 314.92 C 393.05 297.04 400.87 268.28 397.19 241.25 C 393.52 214.22 387.67 198.21 374.59 177.75 C 361.50 157.30 337.70 137.03 318.70 128.31 C 299.70 119.58 269.36 110.45 241.00 114.00
M 242.00 134.00 
C 265.74 131.86 291.17 138.44 307.75 145.59 C 324.34 152.74 344.83 169.91 356.39 187.75 C 367.96 205.59 374.18 218.20 377.59 241.75 C 381.01 265.29 373.48 291.08 366.41 307.75 C 359.34 324.43 342.07 344.55 324.25 356.39 C 306.42 368.24 293.61 374.29 269.92 377.92 C 246.23 381.55 220.76 372.99 204.25 366.41 C 187.73 359.83 167.37 341.89 155.61 324.25 C 143.84 306.60 137.96 293.85 134.41 270.25 C 130.86 246.64 138.90 220.35 145.59 204.25 C 152.28 188.15 170.33 166.48 187.75 155.61 C 205.17 144.73 219.36 136.04 242.00 134.00 Z"/>
</g>
<g fill="#000000" fill-opacity="0.01" stroke="None">
<path d="
M 242.00 134.00 
C 219.36 136.04 205.17 144.73 187.75 155.61 C 170.33 166.48 152.28 188.15 145.59 204.25 C 138.90 220.35 130.86 246.64 134.41 270.25 C 137.96 293.85 143.84 306.60 155.61 324.25 C 167.37 341.89 187.73 359.83 204.25 366.41 C 220.76 372.99 246.23 381.55 269.92 377.92 C 293.61 374.29 306.42 368.24 324.25 356.39 C 342.07 344.55 359.34 324.43 366.41 307.75 C 373.48 291.08 381.01 265.29 377.59 241.75 C 374.18 218.20 367.96 205.59 356.39 187.75 C 344.83 169.91 324.34 152.74 307.75 145.59 C 291.17 138.44 265.74 131.86 242.00 134.00
M 251.00 184.00 
C 244.17 177.34 244.23 170.99 251.00 164.00
C 258.31 163.90 265.99 165.87 265.98 174.03 C 265.97 182.18 258.58 184.39 251.00 184.00
M 234.00 185.00 
C 223.55 191.98 214.52 196.56 204.75 205.75 C 194.98 214.95 191.47 224.51 187.61 234.75 C 183.74 244.99 187.15 267.03 172.97 265.98 C 158.79 264.92 164.59 243.47 166.40 233.25 C 168.20 223.03 175.76 211.73 181.70 202.70 C 187.64 193.67 201.01 181.99 209.30 176.29 C 217.60 170.59 235.56 166.65 234.00 185.00 Z"/>
</g>
<g fill="#000000" fill-opacity="0.00" stroke="None">
<path d="
M 114.00 138.00 
C 82.67 138.00 51.33 138.00 20.00 138.00
C 22.56 149.47 26.81 156.05 36.70 164.30 C 46.58 172.55 58.17 169.43 57.00 188.00 C 55.83 206.57 57.57 228.06 57.00 247.00 C 56.43 265.94 57.32 286.06 57.00 305.00 C 56.68 323.94 57.29 344.31 57.00 363.00 C 56.71 381.69 57.44 404.09 57.00 422.00 C 56.56 439.91 57.90 463.99 57.01 479.99 C 56.11 495.99 77.16 496.80 77.00 481.00 C 76.84 465.20 77.11 440.76 77.00 423.00 C 76.89 405.24 77.13 383.69 77.00 365.00 C 76.87 346.31 77.24 325.03 77.00 306.00 C 76.76 286.97 77.52 267.06 77.00 248.00 C 76.48 228.94 78.13 207.81 77.00 189.00 C 75.87 170.19 85.91 172.63 95.90 165.91 C 105.89 159.18 111.50 149.26 114.00 138.00 Z"/>
</g>
<g fill="#000000" fill-opacity="0.00" stroke="None">
<path d="
M 0.00 512.00 
L 61.00 512.00
C 38.60 503.38 35.84 490.15 37.00 462.00 C 38.16 433.85 36.46 400.41 37.00 371.00 C 37.54 341.59 36.72 308.90 37.00 279.00 C 37.28 249.10 36.79 218.01 37.00 188.00
C 17.12 179.68 2.94 159.94 0.00 139.00
L 0.00 512.00 Z"/>
</g>
<g fill="#000000" fill-opacity="0.96" stroke="None">
<path d="
M 251.00 184.00 
C 258.58 184.39 265.97 182.18 265.98 174.03 C 265.99 165.87 258.31 163.90 251.00 164.00
C 244.23 170.99 244.17 177.34 251.00 184.00 Z"/>
</g>
<g fill="#000000" fill-opacity="0.97" stroke="None">
<path d="
M 234.00 185.00 
C 235.56 166.65 217.60 170.59 209.30 176.29 C 201.01 181.99 187.64 193.67 181.70 202.70 C 175.76 211.73 168.20 223.03 166.40 233.25 C 164.59 243.47 158.79 264.92 172.97 265.98 C 187.15 267.03 183.74 244.99 187.61 234.75 C 191.47 224.51 194.98 214.95 204.75 205.75 C 214.52 196.56 223.55 191.98 234.00 185.00 Z"/>
</g>
<g fill="#000000" fill-opacity="0.97" stroke="None">
<path d="
M 148.00 412.00 
C 158.03 422.35 166.59 424.49 176.70 429.29 C 186.80 434.08 196.61 438.52 208.75 441.80 C 220.89 445.08 230.35 445.08 243.98 446.02 C 257.60 446.97 279.89 446.76 290.75 443.80 C 301.62 440.84 313.20 439.85 323.08 435.13 C 332.97 430.41 344.65 427.39 353.70 420.71 C 362.74 414.03 374.98 409.23 383.10 399.10 C 391.21 388.97 414.06 377.98 407.13 363.92 C 400.20 349.85 385.02 367.34 376.75 377.75 C 368.48 388.16 354.85 395.46 346.25 401.81 C 337.65 408.16 326.28 411.88 316.90 415.88 C 307.52 419.89 293.52 423.78 281.75 425.60 C 269.98 427.42 250.18 427.47 237.75 426.59 C 225.32 425.71 213.57 421.77 203.70 418.35 C 193.83 414.93 181.29 412.14 172.77 405.58 C 164.25 399.01 147.07 393.16 148.00 412.00 Z"/>
</g>
<g fill="#000000" fill-opacity="0.95" stroke="None">
<path d="
M 125.00 374.00 
C 111.84 376.76 119.92 397.91 131.75 393.19 C 143.57 388.47 137.50 371.38 125.00 374.00 Z"/>
</g>
<g fill="#000000" fill-opacity="0.07" stroke="None">
<path d="
M 485.00 512.00 
L 512.00 512.00
L 512.00 485.00
C 510.31 499.02 498.96 510.31 485.00 512.00 Z"/>
</g>
</svg>