<svg xmlns="http://www.w3.org/2000/svg" xmlns:v="https://svgstorm.com"
viewBox = "0 0 512 512"
width="512"
height="512">
<g fill="None" fill-opacity="0.0" stroke="#000000" stroke-opacity="0.00" stroke-width="0.3"><path d="
M 0.00 512.00 
L 512.00 512.00
L 512.00 0.00
L 0.00 0.00
L 0.00 512.00
M 234.00 177.00 
C 243.26 186.52 252.34 197.38 263.00 205.00
C 266.52 199.45 273.66 196.01 276.00 190.00
C 278.29 190.93 280.42 190.40 283.00 190.00
C 283.14 192.33 285.61 194.94 288.00 195.00
C 299.80 182.63 311.33 170.70 323.75 158.75 C 336.17 146.80 346.83 134.56 359.75 122.75 C 372.67 110.94 381.61 99.88 384.26 87.25 C 386.92 74.61 401.42 71.40 410.75 65.61 C 420.09 59.82 431.44 50.45 444.00 49.00
C 449.21 55.08 456.93 62.82 463.00 68.00
C 461.31 79.46 456.15 85.96 450.61 95.75 C 445.06 105.54 441.15 110.34 435.42 120.77 C 429.70 131.20 416.58 126.66 407.70 134.71 C 398.81 142.77 387.31 155.58 377.75 164.75 C 368.19 173.92 357.04 185.56 347.25 195.25 C 337.46 204.94 326.33 215.84 317.00 226.00
C 322.26 228.37 321.23 231.33 322.00 236.00
C 315.98 238.35 312.50 245.54 307.00 249.00
C 327.74 272.06 351.41 295.46 373.75 317.25 C 396.10 339.04 418.73 363.88 441.25 384.75 C 463.77 405.63 478.04 427.34 462.87 449.92 C 447.71 472.50 418.54 475.81 398.75 455.25 C 378.96 434.69 352.28 409.29 331.25 387.75 C 310.22 366.22 284.83 342.13 264.00 320.00
C 257.50 329.77 249.88 340.62 236.75 352.75 C 223.62 364.88 212.42 377.50 199.75 389.75 C 187.08 402.01 174.64 414.98 162.25 427.25 C 149.85 439.51 138.37 452.89 127.25 458.39 C 116.13 463.90 99.21 463.95 89.70 457.29 C 80.18 450.62 61.35 433.56 54.30 423.70 C 47.25 413.83 48.39 396.52 53.13 385.08 C 57.86 373.64 72.43 362.85 84.25 350.25 C 96.07 337.64 109.68 325.55 121.75 312.75 C 133.82 299.96 146.65 289.00 158.75 275.75 C 170.85 262.51 182.11 254.56 192.00 248.00
C 186.52 243.98 182.44 237.97 177.00 234.00
C 156.30 246.53 123.22 241.26 102.25 232.74 C 81.28 224.22 59.41 201.30 51.61 181.25 C 43.81 161.19 37.89 126.11 51.00 106.00
C 53.68 107.33 56.11 106.21 59.00 106.00
C 67.64 119.83 84.33 128.28 93.00 142.00
C 107.10 139.34 121.44 135.91 135.00 135.00
C 137.23 120.60 140.04 108.85 143.00 94.00
C 134.82 88.74 128.01 80.24 120.75 73.25 C 113.50 66.26 105.03 59.92 106.00 51.00
C 126.28 37.91 161.09 43.82 181.30 51.71 C 201.50 59.59 223.96 81.10 232.39 101.75 C 240.83 122.41 246.95 156.39 234.00 177.00 Z"/>
</g>
<g fill="None" fill-opacity="0.0" stroke="#000000" stroke-opacity="0.96" stroke-width="0.3"><path d="
M 234.00 177.00 
C 246.95 156.39 240.83 122.41 232.39 101.75 C 223.96 81.10 201.50 59.59 181.30 51.71 C 161.09 43.82 126.28 37.91 106.00 51.00
C 105.03 59.92 113.50 66.26 120.75 73.25 C 128.01 80.24 134.82 88.74 143.00 94.00
C 140.04 108.85 137.23 120.60 135.00 135.00
C 121.44 135.91 107.10 139.34 93.00 142.00
C 84.33 128.28 67.64 119.83 59.00 106.00
C 56.11 106.21 53.68 107.33 51.00 106.00
C 37.89 126.11 43.81 161.19 51.61 181.25 C 59.41 201.30 81.28 224.22 102.25 232.74 C 123.22 241.26 156.30 246.53 177.00 234.00
C 182.44 237.97 186.52 243.98 192.00 248.00
C 182.11 254.56 170.85 262.51 158.75 275.75 C 146.65 289.00 133.82 299.96 121.75 312.75 C 109.68 325.55 96.07 337.64 84.25 350.25 C 72.43 362.85 57.86 373.64 53.13 385.08 C 48.39 396.52 47.25 413.83 54.30 423.70 C 61.35 433.56 80.18 450.62 89.70 457.29 C 99.21 463.95 116.13 463.90 127.25 458.39 C 138.37 452.89 149.85 439.51 162.25 427.25 C 174.64 414.98 187.08 402.01 199.75 389.75 C 212.42 377.50 223.62 364.88 236.75 352.75 C 249.88 340.62 257.50 329.77 264.00 320.00
C 284.83 342.13 310.22 366.22 331.25 387.75 C 352.28 409.29 378.96 434.69 398.75 455.25 C 418.54 475.81 447.71 472.50 462.87 449.92 C 478.04 427.34 463.77 405.63 441.25 384.75 C 418.73 363.88 396.10 339.04 373.75 317.25 C 351.41 295.46 327.74 272.06 307.00 249.00
C 312.50 245.54 315.98 238.35 322.00 236.00
C 321.23 231.33 322.26 228.37 317.00 226.00
C 326.33 215.84 337.46 204.94 347.25 195.25 C 357.04 185.56 368.19 173.92 377.75 164.75 C 387.31 155.58 398.81 142.77 407.70 134.71 C 416.58 126.66 429.70 131.20 435.42 120.77 C 441.15 110.34 445.06 105.54 450.61 95.75 C 456.15 85.96 461.31 79.46 463.00 68.00
C 456.93 62.82 449.21 55.08 444.00 49.00
C 431.44 50.45 420.09 59.82 410.75 65.61 C 401.42 71.40 386.92 74.61 384.26 87.25 C 381.61 99.88 372.67 110.94 359.75 122.75 C 346.83 134.56 336.17 146.80 323.75 158.75 C 311.33 170.70 299.80 182.63 288.00 195.00
C 285.61 194.94 283.14 192.33 283.00 190.00
C 280.42 190.40 278.29 190.93 276.00 190.00
C 273.66 196.01 266.52 199.45 263.00 205.00
C 252.34 197.38 243.26 186.52 234.00 177.00
M 219.00 184.00 
C 226.35 188.89 234.15 196.66 239.00 204.00
C 231.07 202.55 226.89 205.89 222.00 212.00
C 216.79 200.92 202.71 199.63 202.98 210.03 C 203.25 220.42 220.79 224.44 220.00 235.00
C 213.57 235.33 208.22 245.43 201.75 238.25 C 195.28 231.07 188.60 226.85 184.00 219.00
C 168.70 222.67 154.36 228.64 135.30 226.69 C 116.25 224.74 107.68 220.99 94.08 211.91 C 80.48 202.84 68.14 187.26 63.09 174.90 C 58.05 162.54 56.04 143.29 58.00 126.00
C 66.87 132.01 78.62 148.72 86.75 154.25 C 94.89 159.77 108.26 152.94 116.75 151.41 C 125.24 149.88 142.01 151.10 146.70 144.70 C 151.40 138.30 150.77 124.83 152.60 116.25 C 154.44 107.66 161.05 95.40 154.76 87.23 C 148.48 79.06 132.55 66.91 126.00 58.00
C 143.64 55.49 161.89 58.51 174.25 63.19 C 186.62 67.87 202.24 80.04 211.39 93.75 C 220.55 107.47 224.58 115.38 226.35 134.70 C 228.12 154.01 223.36 168.29 219.00 184.00
M 440.00 65.00 
C 441.89 67.62 444.35 70.24 447.00 72.00
C 439.66 84.92 434.98 95.66 427.61 107.75 C 420.24 119.85 402.69 116.35 390.75 131.75 C 378.81 147.16 362.04 158.55 349.25 173.25 C 336.46 187.95 320.49 200.17 308.00 215.00
C 303.37 213.91 301.13 208.18 297.00 206.00
C 309.73 191.74 323.01 176.88 337.75 163.75 C 352.50 150.63 363.33 134.48 379.25 122.25 C 395.17 110.02 391.64 93.48 403.30 85.29 C 414.97 77.10 427.64 72.43 440.00 65.00
M 280.00 207.00 
C 287.84 215.66 296.38 224.22 305.00 232.00
C 303.60 236.98 297.49 239.53 295.00 244.00
C 284.94 237.71 277.53 226.41 268.00 219.00
C 270.27 214.32 275.31 209.22 280.00 207.00
M 242.00 217.00 
C 257.86 235.36 276.67 254.17 295.00 270.00
C 295.97 276.54 291.89 280.90 286.00 281.00
C 270.13 264.30 247.65 241.82 231.00 226.00
C 231.60 221.94 232.68 220.48 235.00 217.00
C 237.16 217.63 239.77 217.60 242.00 217.00
M 231.00 245.00 
C 242.50 257.33 254.71 269.55 267.00 281.00
C 261.31 294.22 254.27 305.60 247.81 318.25 C 241.35 330.91 224.11 345.17 210.25 359.25 C 196.39 373.33 181.21 389.02 166.75 402.75 C 152.29 416.49 138.14 433.64 124.08 445.13 C 110.02 456.62 94.58 444.13 81.25 430.75 C 67.92 417.38 55.51 401.72 67.71 387.70 C 79.91 373.67 95.62 359.06 109.75 344.75 C 123.88 330.44 139.11 315.37 153.25 301.25 C 167.39 287.13 181.75 270.59 194.25 264.81 C 206.76 259.03 217.32 249.52 231.00 245.00
M 270.00 306.00 
C 272.68 300.90 275.27 298.17 277.00 292.00
C 289.32 294.27 298.89 309.67 309.75 319.25 C 320.62 328.83 330.88 341.57 341.75 351.25 C 352.62 360.92 362.74 374.14 373.75 383.25 C 384.77 392.36 394.65 413.36 407.00 403.00
C 405.48 391.26 391.82 383.38 383.25 373.75 C 374.68 364.12 364.16 355.21 355.25 345.75 C 346.34 336.30 336.78 327.66 327.75 318.25 C 318.72 308.83 308.54 299.75 300.00 290.00
C 306.44 285.85 309.21 280.90 308.00 273.00
C 328.70 290.20 347.43 311.93 367.25 330.75 C 387.07 349.58 406.44 371.26 426.25 389.75 C 446.06 408.24 466.79 428.09 446.25 447.25 C 425.71 466.41 405.79 443.46 387.25 423.75 C 368.70 404.04 347.75 384.95 328.75 365.25 C 309.75 345.54 288.60 326.05 270.00 306.00 Z"/>
</g>
<g fill="None" fill-opacity="0.0" stroke="#000000" stroke-opacity="0.01" stroke-width="0.3"><path d="
M 219.00 184.00 
C 223.36 168.29 228.12 154.01 226.35 134.70 C 224.58 115.38 220.55 107.47 211.39 93.75 C 202.24 80.04 186.62 67.87 174.25 63.19 C 161.89 58.51 143.64 55.49 126.00 58.00
C 132.55 66.91 148.48 79.06 154.76 87.23 C 161.05 95.40 154.44 107.66 152.60 116.25 C 150.77 124.83 151.40 138.30 146.70 144.70 C 142.01 151.10 125.24 149.88 116.75 151.41 C 108.26 152.94 94.89 159.77 86.75 154.25 C 78.62 148.72 66.87 132.01 58.00 126.00
C 56.04 143.29 58.05 162.54 63.09 174.90 C 68.14 187.26 80.48 202.84 94.08 211.91 C 107.68 220.99 116.25 224.74 135.30 226.69 C 154.36 228.64 168.70 222.67 184.00 219.00
C 188.60 226.85 195.28 231.07 201.75 238.25 C 208.22 245.43 213.57 235.33 220.00 235.00
C 220.79 224.44 203.25 220.42 202.98 210.03 C 202.71 199.63 216.79 200.92 222.00 212.00
C 226.89 205.89 231.07 202.55 239.00 204.00
C 234.15 196.66 226.35 188.89 219.00 184.00 Z"/>
</g>
<g fill="None" fill-opacity="0.0" stroke="#000000" stroke-opacity="0.05" stroke-width="0.3"><path d="
M 440.00 65.00 
C 427.64 72.43 414.97 77.10 403.30 85.29 C 391.64 93.48 395.17 110.02 379.25 122.25 C 363.33 134.48 352.50 150.63 337.75 163.75 C 323.01 176.88 309.73 191.74 297.00 206.00
C 301.13 208.18 303.37 213.91 308.00 215.00
C 320.49 200.17 336.46 187.95 349.25 173.25 C 362.04 158.55 378.81 147.16 390.75 131.75 C 402.69 116.35 420.24 119.85 427.61 107.75 C 434.98 95.66 439.66 84.92 447.00 72.00
C 444.35 70.24 441.89 67.62 440.00 65.00 Z"/>
</g>
<g fill="None" fill-opacity="0.0" stroke="#000000" stroke-opacity="0.07" stroke-width="0.3"><path d="
M 280.00 207.00 
C 275.31 209.22 270.27 214.32 268.00 219.00
C 277.53 226.41 284.94 237.71 295.00 244.00
C 297.49 239.53 303.60 236.98 305.00 232.00
C 296.38 224.22 287.84 215.66 280.00 207.00 Z"/>
</g>
<g fill="None" fill-opacity="0.0" stroke="#000000" stroke-opacity="0.01" stroke-width="0.3"><path d="
M 242.00 217.00 
C 239.77 217.60 237.16 217.63 235.00 217.00
C 232.68 220.48 231.60 221.94 231.00 226.00
C 247.65 241.82 270.13 264.30 286.00 281.00
C 291.89 280.90 295.97 276.54 295.00 270.00
C 276.67 254.17 257.86 235.36 242.00 217.00 Z"/>
</g>
<g fill="None" fill-opacity="0.0" stroke="#000000" stroke-opacity="0.02" stroke-width="0.3"><path d="
M 231.00 245.00 
C 217.32 249.52 206.76 259.03 194.25 264.81 C 181.75 270.59 167.39 287.13 153.25 301.25 C 139.11 315.37 123.88 330.44 109.75 344.75 C 95.62 359.06 79.91 373.67 67.71 387.70 C 55.51 401.72 67.92 417.38 81.25 430.75 C 94.58 444.13 110.02 456.62 124.08 445.13 C 138.14 433.64 152.29 416.49 166.75 402.75 C 181.21 389.02 196.39 373.33 210.25 359.25 C 224.11 345.17 241.35 330.91 247.81 318.25 C 254.27 305.60 261.31 294.22 267.00 281.00
C 254.71 269.55 242.50 257.33 231.00 245.00
M 180.00 304.00 
C 180.70 305.94 183.85 307.75 186.00 310.00
C 182.75 320.11 168.96 329.68 159.75 339.75 C 150.55 349.83 138.70 360.26 129.25 370.25 C 119.80 380.24 107.54 391.18 100.00 400.00
C 95.66 399.64 95.00 397.87 91.00 396.00
C 91.45 393.48 91.88 391.40 91.00 389.00
C 101.94 381.36 111.21 369.53 121.25 360.25 C 131.29 350.96 140.76 339.86 150.75 330.75 C 160.74 321.64 170.23 308.56 180.00 304.00
M 203.00 326.00 
C 203.83 329.07 206.34 330.97 208.00 332.00
C 204.40 343.00 190.84 353.56 180.75 363.75 C 170.66 373.95 159.25 385.97 148.75 395.75 C 138.25 405.54 128.63 420.95 116.00 421.00
C 115.13 418.43 113.79 416.76 112.00 416.00
C 116.02 405.48 129.89 394.93 139.75 384.75 C 149.61 374.57 160.91 363.01 171.25 353.25 C 181.58 343.49 191.76 328.89 203.00 326.00 Z"/>
</g>
<g fill="None" fill-opacity="0.0" stroke="#000000" stroke-opacity="0.04" stroke-width="0.3"><path d="
M 270.00 306.00 
C 288.60 326.05 309.75 345.54 328.75 365.25 C 347.75 384.95 368.70 404.04 387.25 423.75 C 405.79 443.46 425.71 466.41 446.25 447.25 C 466.79 428.09 446.06 408.24 426.25 389.75 C 406.44 371.26 387.07 349.58 367.25 330.75 C 347.43 311.93 328.70 290.20 308.00 273.00
C 309.21 280.90 306.44 285.85 300.00 290.00
C 308.54 299.75 318.72 308.83 327.75 318.25 C 336.78 327.66 346.34 336.30 355.25 345.75 C 364.16 355.21 374.68 364.12 383.25 373.75 C 391.82 383.38 405.48 391.26 407.00 403.00
C 394.65 413.36 384.77 392.36 373.75 383.25 C 362.74 374.14 352.62 360.92 341.75 351.25 C 330.88 341.57 320.62 328.83 309.75 319.25 C 298.89 309.67 289.32 294.27 277.00 292.00
C 275.27 298.17 272.68 300.90 270.00 306.00 Z"/>
</g>
<g fill="None" fill-opacity="0.0" stroke="#000000" stroke-opacity="0.99" stroke-width="0.3"><path d="
M 180.00 304.00 
C 170.23 308.56 160.74 321.64 150.75 330.75 C 140.76 339.86 131.29 350.96 121.25 360.25 C 111.21 369.53 101.94 381.36 91.00 389.00
C 91.88 391.40 91.45 393.48 91.00 396.00
C 95.00 397.87 95.66 399.64 100.00 400.00
C 107.54 391.18 119.80 380.24 129.25 370.25 C 138.70 360.26 150.55 349.83 159.75 339.75 C 168.96 329.68 182.75 320.11 186.00 310.00
C 183.85 307.75 180.70 305.94 180.00 304.00 Z"/>
</g>
<g fill="None" fill-opacity="0.0" stroke="#000000" stroke-opacity="0.95" stroke-width="0.3"><path d="
M 203.00 326.00 
C 191.76 328.89 181.58 343.49 171.25 353.25 C 160.91 363.01 149.61 374.57 139.75 384.75 C 129.89 394.93 116.02 405.48 112.00 416.00
C 113.79 416.76 115.13 418.43 116.00 421.00
C 128.63 420.95 138.25 405.54 148.75 395.75 C 159.25 385.97 170.66 373.95 180.75 363.75 C 190.84 353.56 204.40 343.00 208.00 332.00
C 206.34 330.97 203.83 329.07 203.00 326.00 Z"/>
</g>
<g fill="#000000" fill-opacity="0.00" stroke="None">
<path d="
M 0.00 512.00 
L 512.00 512.00
L 512.00 0.00
L 0.00 0.00
L 0.00 512.00
M 234.00 177.00 
C 243.26 186.52 252.34 197.38 263.00 205.00
C 266.52 199.45 273.66 196.01 276.00 190.00
C 278.29 190.93 280.42 190.40 283.00 190.00
C 283.14 192.33 285.61 194.94 288.00 195.00
C 299.80 182.63 311.33 170.70 323.75 158.75 C 336.17 146.80 346.83 134.56 359.75 122.75 C 372.67 110.94 381.61 99.88 384.26 87.25 C 386.92 74.61 401.42 71.40 410.75 65.61 C 420.09 59.82 431.44 50.45 444.00 49.00
C 449.21 55.08 456.93 62.82 463.00 68.00
C 461.31 79.46 456.15 85.96 450.61 95.75 C 445.06 105.54 441.15 110.34 435.42 120.77 C 429.70 131.20 416.58 126.66 407.70 134.71 C 398.81 142.77 387.31 155.58 377.75 164.75 C 368.19 173.92 357.04 185.56 347.25 195.25 C 337.46 204.94 326.33 215.84 317.00 226.00
C 322.26 228.37 321.23 231.33 322.00 236.00
C 315.98 238.35 312.50 245.54 307.00 249.00
C 327.74 272.06 351.41 295.46 373.75 317.25 C 396.10 339.04 418.73 363.88 441.25 384.75 C 463.77 405.63 478.04 427.34 462.87 449.92 C 447.71 472.50 418.54 475.81 398.75 455.25 C 378.96 434.69 352.28 409.29 331.25 387.75 C 310.22 366.22 284.83 342.13 264.00 320.00
C 257.50 329.77 249.88 340.62 236.75 352.75 C 223.62 364.88 212.42 377.50 199.75 389.75 C 187.08 402.01 174.64 414.98 162.25 427.25 C 149.85 439.51 138.37 452.89 127.25 458.39 C 116.13 463.90 99.21 463.95 89.70 457.29 C 80.18 450.62 61.35 433.56 54.30 423.70 C 47.25 413.83 48.39 396.52 53.13 385.08 C 57.86 373.64 72.43 362.85 84.25 350.25 C 96.07 337.64 109.68 325.55 121.75 312.75 C 133.82 299.96 146.65 289.00 158.75 275.75 C 170.85 262.51 182.11 254.56 192.00 248.00
C 186.52 243.98 182.44 237.97 177.00 234.00
C 156.30 246.53 123.22 241.26 102.25 232.74 C 81.28 224.22 59.41 201.30 51.61 181.25 C 43.81 161.19 37.89 126.11 51.00 106.00
C 53.68 107.33 56.11 106.21 59.00 106.00
C 67.64 119.83 84.33 128.28 93.00 142.00
C 107.10 139.34 121.44 135.91 135.00 135.00
C 137.23 120.60 140.04 108.85 143.00 94.00
C 134.82 88.74 128.01 80.24 120.75 73.25 C 113.50 66.26 105.03 59.92 106.00 51.00
C 126.28 37.91 161.09 43.82 181.30 51.71 C 201.50 59.59 223.96 81.10 232.39 101.75 C 240.83 122.41 246.95 156.39 234.00 177.00 Z"/>
</g>
<g fill="#000000" fill-opacity="0.96" stroke="None">
<path d="
M 234.00 177.00 
C 246.95 156.39 240.83 122.41 232.39 101.75 C 223.96 81.10 201.50 59.59 181.30 51.71 C 161.09 43.82 126.28 37.91 106.00 51.00
C 105.03 59.92 113.50 66.26 120.75 73.25 C 128.01 80.24 134.82 88.74 143.00 94.00
C 140.04 108.85 137.23 120.60 135.00 135.00
C 121.44 135.91 107.10 139.34 93.00 142.00
C 84.33 128.28 67.64 119.83 59.00 106.00
C 56.11 106.21 53.68 107.33 51.00 106.00
C 37.89 126.11 43.81 161.19 51.61 181.25 C 59.41 201.30 81.28 224.22 102.25 232.74 C 123.22 241.26 156.30 246.53 177.00 234.00
C 182.44 237.97 186.52 243.98 192.00 248.00
C 182.11 254.56 170.85 262.51 158.75 275.75 C 146.65 289.00 133.82 299.96 121.75 312.75 C 109.68 325.55 96.07 337.64 84.25 350.25 C 72.43 362.85 57.86 373.64 53.13 385.08 C 48.39 396.52 47.25 413.83 54.30 423.70 C 61.35 433.56 80.18 450.62 89.70 457.29 C 99.21 463.95 116.13 463.90 127.25 458.39 C 138.37 452.89 149.85 439.51 162.25 427.25 C 174.64 414.98 187.08 402.01 199.75 389.75 C 212.42 377.50 223.62 364.88 236.75 352.75 C 249.88 340.62 257.50 329.77 264.00 320.00
C 284.83 342.13 310.22 366.22 331.25 387.75 C 352.28 409.29 378.96 434.69 398.75 455.25 C 418.54 475.81 447.71 472.50 462.87 449.92 C 478.04 427.34 463.77 405.63 441.25 384.75 C 418.73 363.88 396.10 339.04 373.75 317.25 C 351.41 295.46 327.74 272.06 307.00 249.00
C 312.50 245.54 315.98 238.35 322.00 236.00
C 321.23 231.33 322.26 228.37 317.00 226.00
C 326.33 215.84 337.46 204.94 347.25 195.25 C 357.04 185.56 368.19 173.92 377.75 164.75 C 387.31 155.58 398.81 142.77 407.70 134.71 C 416.58 126.66 429.70 131.20 435.42 120.77 C 441.15 110.34 445.06 105.54 450.61 95.75 C 456.15 85.96 461.31 79.46 463.00 68.00
C 456.93 62.82 449.21 55.08 444.00 49.00
C 431.44 50.45 420.09 59.82 410.75 65.61 C 401.42 71.40 386.92 74.61 384.26 87.25 C 381.61 99.88 372.67 110.94 359.75 122.75 C 346.83 134.56 336.17 146.80 323.75 158.75 C 311.33 170.70 299.80 182.63 288.00 195.00
C 285.61 194.94 283.14 192.33 283.00 190.00
C 280.42 190.40 278.29 190.93 276.00 190.00
C 273.66 196.01 266.52 199.45 263.00 205.00
C 252.34 197.38 243.26 186.52 234.00 177.00
M 219.00 184.00 
C 226.35 188.89 234.15 196.66 239.00 204.00
C 231.07 202.55 226.89 205.89 222.00 212.00
C 216.79 200.92 202.71 199.63 202.98 210.03 C 203.25 220.42 220.79 224.44 220.00 235.00
C 213.57 235.33 208.22 245.43 201.75 238.25 C 195.28 231.07 188.60 226.85 184.00 219.00
C 168.70 222.67 154.36 228.64 135.30 226.69 C 116.25 224.74 107.68 220.99 94.08 211.91 C 80.48 202.84 68.14 187.26 63.09 174.90 C 58.05 162.54 56.04 143.29 58.00 126.00
C 66.87 132.01 78.62 148.72 86.75 154.25 C 94.89 159.77 108.26 152.94 116.75 151.41 C 125.24 149.88 142.01 151.10 146.70 144.70 C 151.40 138.30 150.77 124.83 152.60 116.25 C 154.44 107.66 161.05 95.40 154.76 87.23 C 148.48 79.06 132.55 66.91 126.00 58.00
C 143.64 55.49 161.89 58.51 174.25 63.19 C 186.62 67.87 202.24 80.04 211.39 93.75 C 220.55 107.47 224.58 115.38 226.35 134.70 C 228.12 154.01 223.36 168.29 219.00 184.00
M 440.00 65.00 
C 441.89 67.62 444.35 70.24 447.00 72.00
C 439.66 84.92 434.98 95.66 427.61 107.75 C 420.24 119.85 402.69 116.35 390.75 131.75 C 378.81 147.16 362.04 158.55 349.25 173.25 C 336.46 187.95 320.49 200.17 308.00 215.00
C 303.37 213.91 301.13 208.18 297.00 206.00
C 309.73 191.74 323.01 176.88 337.75 163.75 C 352.50 150.63 363.33 134.48 379.25 122.25 C 395.17 110.02 391.64 93.48 403.30 85.29 C 414.97 77.10 427.64 72.43 440.00 65.00
M 280.00 207.00 
C 287.84 215.66 296.38 224.22 305.00 232.00
C 303.60 236.98 297.49 239.53 295.00 244.00
C 284.94 237.71 277.53 226.41 268.00 219.00
C 270.27 214.32 275.31 209.22 280.00 207.00
M 242.00 217.00 
C 257.86 235.36 276.67 254.17 295.00 270.00
C 295.97 276.54 291.89 280.90 286.00 281.00
C 270.13 264.30 247.65 241.82 231.00 226.00
C 231.60 221.94 232.68 220.48 235.00 217.00
C 237.16 217.63 239.77 217.60 242.00 217.00
M 231.00 245.00 
C 242.50 257.33 254.71 269.55 267.00 281.00
C 261.31 294.22 254.27 305.60 247.81 318.25 C 241.35 330.91 224.11 345.17 210.25 359.25 C 196.39 373.33 181.21 389.02 166.75 402.75 C 152.29 416.49 138.14 433.64 124.08 445.13 C 110.02 456.62 94.58 444.13 81.25 430.75 C 67.92 417.38 55.51 401.72 67.71 387.70 C 79.91 373.67 95.62 359.06 109.75 344.75 C 123.88 330.44 139.11 315.37 153.25 301.25 C 167.39 287.13 181.75 270.59 194.25 264.81 C 206.76 259.03 217.32 249.52 231.00 245.00
M 270.00 306.00 
C 272.68 300.90 275.27 298.17 277.00 292.00
C 289.32 294.27 298.89 309.67 309.75 319.25 C 320.62 328.83 330.88 341.57 341.75 351.25 C 352.62 360.92 362.74 374.14 373.75 383.25 C 384.77 392.36 394.65 413.36 407.00 403.00
C 405.48 391.26 391.82 383.38 383.25 373.75 C 374.68 364.12 364.16 355.21 355.25 345.75 C 346.34 336.30 336.78 327.66 327.75 318.25 C 318.72 308.83 308.54 299.75 300.00 290.00
C 306.44 285.85 309.21 280.90 308.00 273.00
C 328.70 290.20 347.43 311.93 367.25 330.75 C 387.07 349.58 406.44 371.26 426.25 389.75 C 446.06 408.24 466.79 428.09 446.25 447.25 C 425.71 466.41 405.79 443.46 387.25 423.75 C 368.70 404.04 347.75 384.95 328.75 365.25 C 309.75 345.54 288.60 326.05 270.00 306.00 Z"/>
</g>
<g fill="#000000" fill-opacity="0.01" stroke="None">
<path d="
M 219.00 184.00 
C 223.36 168.29 228.12 154.01 226.35 134.70 C 224.58 115.38 220.55 107.47 211.39 93.75 C 202.24 80.04 186.62 67.87 174.25 63.19 C 161.89 58.51 143.64 55.49 126.00 58.00
C 132.55 66.91 148.48 79.06 154.76 87.23 C 161.05 95.40 154.44 107.66 152.60 116.25 C 150.77 124.83 151.40 138.30 146.70 144.70 C 142.01 151.10 125.24 149.88 116.75 151.41 C 108.26 152.94 94.89 159.77 86.75 154.25 C 78.62 148.72 66.87 132.01 58.00 126.00
C 56.04 143.29 58.05 162.54 63.09 174.90 C 68.14 187.26 80.48 202.84 94.08 211.91 C 107.68 220.99 116.25 224.74 135.30 226.69 C 154.36 228.64 168.70 222.67 184.00 219.00
C 188.60 226.85 195.28 231.07 201.75 238.25 C 208.22 245.43 213.57 235.33 220.00 235.00
C 220.79 224.44 203.25 220.42 202.98 210.03 C 202.71 199.63 216.79 200.92 222.00 212.00
C 226.89 205.89 231.07 202.55 239.00 204.00
C 234.15 196.66 226.35 188.89 219.00 184.00 Z"/>
</g>
<g fill="#000000" fill-opacity="0.05" stroke="None">
<path d="
M 440.00 65.00 
C 427.64 72.43 414.97 77.10 403.30 85.29 C 391.64 93.48 395.17 110.02 379.25 122.25 C 363.33 134.48 352.50 150.63 337.75 163.75 C 323.01 176.88 309.73 191.74 297.00 206.00
C 301.13 208.18 303.37 213.91 308.00 215.00
C 320.49 200.17 336.46 187.95 349.25 173.25 C 362.04 158.55 378.81 147.16 390.75 131.75 C 402.69 116.35 420.24 119.85 427.61 107.75 C 434.98 95.66 439.66 84.92 447.00 72.00
C 444.35 70.24 441.89 67.62 440.00 65.00 Z"/>
</g>
<g fill="#000000" fill-opacity="0.07" stroke="None">
<path d="
M 280.00 207.00 
C 275.31 209.22 270.27 214.32 268.00 219.00
C 277.53 226.41 284.94 237.71 295.00 244.00
C 297.49 239.53 303.60 236.98 305.00 232.00
C 296.38 224.22 287.84 215.66 280.00 207.00 Z"/>
</g>
<g fill="#000000" fill-opacity="0.01" stroke="None">
<path d="
M 242.00 217.00 
C 239.77 217.60 237.16 217.63 235.00 217.00
C 232.68 220.48 231.60 221.94 231.00 226.00
C 247.65 241.82 270.13 264.30 286.00 281.00
C 291.89 280.90 295.97 276.54 295.00 270.00
C 276.67 254.17 257.86 235.36 242.00 217.00 Z"/>
</g>
<g fill="#000000" fill-opacity="0.02" stroke="None">
<path d="
M 231.00 245.00 
C 217.32 249.52 206.76 259.03 194.25 264.81 C 181.75 270.59 167.39 287.13 153.25 301.25 C 139.11 315.37 123.88 330.44 109.75 344.75 C 95.62 359.06 79.91 373.67 67.71 387.70 C 55.51 401.72 67.92 417.38 81.25 430.75 C 94.58 444.13 110.02 456.62 124.08 445.13 C 138.14 433.64 152.29 416.49 166.75 402.75 C 181.21 389.02 196.39 373.33 210.25 359.25 C 224.11 345.17 241.35 330.91 247.81 318.25 C 254.27 305.60 261.31 294.22 267.00 281.00
C 254.71 269.55 242.50 257.33 231.00 245.00
M 180.00 304.00 
C 180.70 305.94 183.85 307.75 186.00 310.00
C 182.75 320.11 168.96 329.68 159.75 339.75 C 150.55 349.83 138.70 360.26 129.25 370.25 C 119.80 380.24 107.54 391.18 100.00 400.00
C 95.66 399.64 95.00 397.87 91.00 396.00
C 91.45 393.48 91.88 391.40 91.00 389.00
C 101.94 381.36 111.21 369.53 121.25 360.25 C 131.29 350.96 140.76 339.86 150.75 330.75 C 160.74 321.64 170.23 308.56 180.00 304.00
M 203.00 326.00 
C 203.83 329.07 206.34 330.97 208.00 332.00
C 204.40 343.00 190.84 353.56 180.75 363.75 C 170.66 373.95 159.25 385.97 148.75 395.75 C 138.25 405.54 128.63 420.95 116.00 421.00
C 115.13 418.43 113.79 416.76 112.00 416.00
C 116.02 405.48 129.89 394.93 139.75 384.75 C 149.61 374.57 160.91 363.01 171.25 353.25 C 181.58 343.49 191.76 328.89 203.00 326.00 Z"/>
</g>
<g fill="#000000" fill-opacity="0.04" stroke="None">
<path d="
M 270.00 306.00 
C 288.60 326.05 309.75 345.54 328.75 365.25 C 347.75 384.95 368.70 404.04 387.25 423.75 C 405.79 443.46 425.71 466.41 446.25 447.25 C 466.79 428.09 446.06 408.24 426.25 389.75 C 406.44 371.26 387.07 349.58 367.25 330.75 C 347.43 311.93 328.70 290.20 308.00 273.00
C 309.21 280.90 306.44 285.85 300.00 290.00
C 308.54 299.75 318.72 308.83 327.75 318.25 C 336.78 327.66 346.34 336.30 355.25 345.75 C 364.16 355.21 374.68 364.12 383.25 373.75 C 391.82 383.38 405.48 391.26 407.00 403.00
C 394.65 413.36 384.77 392.36 373.75 383.25 C 362.74 374.14 352.62 360.92 341.75 351.25 C 330.88 341.57 320.62 328.83 309.75 319.25 C 298.89 309.67 289.32 294.27 277.00 292.00
C 275.27 298.17 272.68 300.90 270.00 306.00 Z"/>
</g>
<g fill="#000000" fill-opacity="0.99" stroke="None">
<path d="
M 180.00 304.00 
C 170.23 308.56 160.74 321.64 150.75 330.75 C 140.76 339.86 131.29 350.96 121.25 360.25 C 111.21 369.53 101.94 381.36 91.00 389.00
C 91.88 391.40 91.45 393.48 91.00 396.00
C 95.00 397.87 95.66 399.64 100.00 400.00
C 107.54 391.18 119.80 380.24 129.25 370.25 C 138.70 360.26 150.55 349.83 159.75 339.75 C 168.96 329.68 182.75 320.11 186.00 310.00
C 183.85 307.75 180.70 305.94 180.00 304.00 Z"/>
</g>
<g fill="#000000" fill-opacity="0.95" stroke="None">
<path d="
M 203.00 326.00 
C 191.76 328.89 181.58 343.49 171.25 353.25 C 160.91 363.01 149.61 374.57 139.75 384.75 C 129.89 394.93 116.02 405.48 112.00 416.00
C 113.79 416.76 115.13 418.43 116.00 421.00
C 128.63 420.95 138.25 405.54 148.75 395.75 C 159.25 385.97 170.66 373.95 180.75 363.75 C 190.84 353.56 204.40 343.00 208.00 332.00
C 206.34 330.97 203.83 329.07 203.00 326.00 Z"/>
</g>
</svg>