<svg xmlns="http://www.w3.org/2000/svg" xmlns:v="https://svgstorm.com"
viewBox = "0 0 512 512"
width="512"
height="512">
<g fill="None" fill-opacity="0.0" stroke="#000000" stroke-opacity="0.01" stroke-width="0.3"><path d="
M 0.00 512.00 
L 512.00 512.00
L 512.00 0.00
L 0.00 0.00
L 0.00 512.00
M 138.00 24.00 
C 151.37 23.05 161.68 25.06 175.68 25.34 C 189.68 25.62 205.63 27.05 221.01 26.99 C 236.39 26.93 257.82 25.01 273.00 26.00 C 288.18 26.99 305.60 25.28 319.02 25.02 C 332.45 24.76 345.38 22.82 357.70 22.65 C 370.01 22.47 381.57 19.93 392.23 19.23 C 402.89 18.53 410.92 17.60 420.75 16.74 C 430.58 15.87 441.25 13.42 450.25 13.20 C 459.25 12.98 473.71 4.85 474.06 20.08 C 474.41 35.31 473.88 58.17 474.00 75.00 C 474.12 91.83 474.11 113.73 474.00 131.00 C 473.89 148.27 474.42 169.10 474.00 186.00 C 473.58 202.90 475.00 225.44 474.00 241.00 C 473.00 256.56 477.86 278.80 470.75 285.19 C 463.64 291.59 452.64 284.02 443.25 284.40 C 433.86 284.77 422.68 281.39 413.00 280.00
C 426.21 292.47 424.94 314.54 415.00 326.00
C 424.15 331.28 427.02 331.65 437.25 329.20 C 447.47 326.75 456.56 330.39 463.75 333.39 C 470.95 336.39 477.54 347.04 480.39 352.75 C 483.25 358.46 486.33 369.44 483.81 378.25 C 481.29 387.06 477.85 392.74 471.00 401.00
C 480.45 400.56 495.71 411.18 500.75 420.25 C 505.78 429.33 510.72 444.37 508.00 460.00 C 505.28 475.63 517.73 508.77 498.92 510.93 C 480.11 513.10 454.42 510.02 434.00 511.00 C 413.58 511.98 390.20 510.46 369.00 511.00 C 347.80 511.54 324.54 510.52 303.00 511.00 C 281.46 511.48 259.69 510.26 238.00 511.00 C 216.31 511.74 194.86 509.52 173.00 511.00 C 151.14 512.48 161.94 483.62 160.00 466.00 C 158.06 448.38 158.88 432.22 166.70 421.70 C 174.52 411.17 183.29 400.68 196.00 401.00
C 189.27 393.11 185.85 388.19 183.41 379.25 C 180.96 370.32 182.88 360.53 185.39 353.25 C 187.90 345.97 196.34 338.17 202.75 334.74 C 209.17 331.30 218.81 326.62 228.75 329.40 C 238.69 332.17 240.60 329.60 250.00 326.00
C 233.18 309.52 244.30 276.70 266.00 272.00
C 233.82 269.96 200.08 272.84 171.00 274.00
C 173.41 287.95 158.45 300.95 142.00 296.00
C 142.00 315.67 142.00 335.33 142.00 355.00
C 160.34 354.59 165.80 380.00 158.00 394.00
C 127.24 394.72 94.00 392.63 63.00 395.00
C 60.84 393.84 60.22 389.81 57.00 390.00
C 55.00 374.01 58.22 355.99 76.00 355.00
C 76.00 335.33 76.00 315.67 76.00 296.00
C 63.20 297.43 51.55 294.83 49.00 284.00
C 39.30 285.89 36.13 284.68 26.25 286.40 C 16.37 288.11 12.59 278.31 14.00 265.00 C 15.41 251.69 13.32 235.84 14.00 222.00 C 14.68 208.16 13.59 193.05 14.00 179.00 C 14.41 164.95 13.59 150.06 14.00 136.00 C 14.41 121.94 12.87 107.58 15.00 94.00
C -1.50 86.14 4.60 58.94 4.00 39.00 C 3.40 19.06 3.62 1.67 24.08 1.07 C 44.53 0.47 78.73 2.05 100.00 1.00 C 121.27 -0.05 138.65 2.02 138.00 24.00 Z"/>
</g>
<g fill="None" fill-opacity="0.0" stroke="#000000" stroke-opacity="0.99" stroke-width="0.3"><path d="
M 138.00 24.00 
C 138.65 2.02 121.27 -0.05 100.00 1.00 C 78.73 2.05 44.53 0.47 24.08 1.07 C 3.62 1.67 3.40 19.06 4.00 39.00 C 4.60 58.94 -1.50 86.14 15.00 94.00
C 12.87 107.58 14.41 121.94 14.00 136.00 C 13.59 150.06 14.41 164.95 14.00 179.00 C 13.59 193.05 14.68 208.16 14.00 222.00 C 13.32 235.84 15.41 251.69 14.00 265.00 C 12.59 278.31 16.37 288.11 26.25 286.40 C 36.13 284.68 39.30 285.89 49.00 284.00
C 51.55 294.83 63.20 297.43 76.00 296.00
C 76.00 315.67 76.00 335.33 76.00 355.00
C 58.22 355.99 55.00 374.01 57.00 390.00
C 60.22 389.81 60.84 393.84 63.00 395.00
C 94.00 392.63 127.24 394.72 158.00 394.00
C 165.80 380.00 160.34 354.59 142.00 355.00
C 142.00 335.33 142.00 315.67 142.00 296.00
C 158.45 300.95 173.41 287.95 171.00 274.00
C 200.08 272.84 233.82 269.96 266.00 272.00
C 244.30 276.70 233.18 309.52 250.00 326.00
C 240.60 329.60 238.69 332.17 228.75 329.40 C 218.81 326.62 209.17 331.30 202.75 334.74 C 196.34 338.17 187.90 345.97 185.39 353.25 C 182.88 360.53 180.96 370.32 183.41 379.25 C 185.85 388.19 189.27 393.11 196.00 401.00
C 183.29 400.68 174.52 411.17 166.70 421.70 C 158.88 432.22 158.06 448.38 160.00 466.00 C 161.94 483.62 151.14 512.48 173.00 511.00 C 194.86 509.52 216.31 511.74 238.00 511.00 C 259.69 510.26 281.46 511.48 303.00 511.00 C 324.54 510.52 347.80 511.54 369.00 511.00 C 390.20 510.46 413.58 511.98 434.00 511.00 C 454.42 510.02 480.11 513.10 498.92 510.93 C 517.73 508.77 505.28 475.63 508.00 460.00 C 510.72 444.37 505.78 429.33 500.75 420.25 C 495.71 411.18 480.45 400.56 471.00 401.00
C 477.85 392.74 481.29 387.06 483.81 378.25 C 486.33 369.44 483.25 358.46 480.39 352.75 C 477.54 347.04 470.95 336.39 463.75 333.39 C 456.56 330.39 447.47 326.75 437.25 329.20 C 427.02 331.65 424.15 331.28 415.00 326.00
C 424.94 314.54 426.21 292.47 413.00 280.00
C 422.68 281.39 433.86 284.77 443.25 284.40 C 452.64 284.02 463.64 291.59 470.75 285.19 C 477.86 278.80 473.00 256.56 474.00 241.00 C 475.00 225.44 473.58 202.90 474.00 186.00 C 474.42 169.10 473.89 148.27 474.00 131.00 C 474.11 113.73 474.12 91.83 474.00 75.00 C 473.88 58.17 474.41 35.31 474.06 20.08 C 473.71 4.85 459.25 12.98 450.25 13.20 C 441.25 13.42 430.58 15.87 420.75 16.74 C 410.92 17.60 402.89 18.53 392.23 19.23 C 381.57 19.93 370.01 22.47 357.70 22.65 C 345.38 22.82 332.45 24.76 319.02 25.02 C 305.60 25.28 288.18 26.99 273.00 26.00 C 257.82 25.01 236.39 26.93 221.01 26.99 C 205.63 27.05 189.68 25.62 175.68 25.34 C 161.68 25.06 151.37 23.05 138.00 24.00
M 44.00 28.00 
C 57.41 27.23 78.37 31.98 92.00 29.00 C 105.63 26.02 111.88 41.75 98.75 44.80 C 85.62 47.84 63.75 41.57 50.00 45.00 C 36.25 48.43 31.56 28.72 44.00 28.00
M 459.00 28.00 
C 459.00 108.67 459.00 189.33 459.00 270.00
C 374.69 259.68 277.04 251.38 175.00 258.00
C 174.99 250.48 179.63 244.60 178.22 236.78 C 176.81 228.96 167.43 224.26 158.00 226.00
C 159.62 209.00 147.24 192.99 133.00 190.00
C 150.34 170.32 138.26 135.94 109.92 135.07 C 81.59 134.20 66.43 169.83 85.00 190.00
C 70.75 193.27 58.41 208.99 60.00 226.00
C 47.09 222.60 37.72 233.34 40.19 243.25 C 42.67 253.16 43.20 258.64 45.00 269.00
C 39.63 268.13 35.54 269.94 30.00 270.00
C 30.00 212.33 30.00 154.67 30.00 97.00
C 43.00 97.00 56.00 97.00 69.00 97.00
C 70.64 106.91 78.34 109.91 81.13 119.92 C 83.92 129.93 97.79 129.18 100.58 119.23 C 103.36 109.28 110.48 106.69 112.00 97.00
C 123.71 97.94 134.49 94.05 136.40 83.25 C 138.31 72.46 136.24 52.52 137.00 39.00
C 166.24 42.54 194.78 40.91 226.00 42.00 C 257.22 43.09 298.01 42.37 324.69 40.65 C 351.38 38.93 372.85 38.10 395.75 35.60 C 418.66 33.11 436.52 31.99 459.00 28.00
M 106.00 66.00 
C 97.39 75.75 76.62 68.63 64.00 71.00 C 51.38 73.37 32.47 70.24 37.58 59.23 C 42.68 48.22 63.84 55.56 76.00 54.00 C 88.16 52.44 108.65 50.95 106.00 66.00
M 142.00 226.00 
C 120.00 226.00 98.00 226.00 76.00 226.00
C 74.82 206.52 90.25 202.87 109.00 203.00 C 127.75 203.13 143.43 206.46 142.00 226.00
M 373.00 278.00 
C 357.20 285.63 352.89 312.37 367.00 324.00
C 363.48 328.94 356.99 327.66 354.00 334.00
C 343.14 328.19 322.58 326.62 313.00 335.00
C 307.90 330.32 304.15 327.31 298.00 326.00
C 302.53 318.63 304.91 315.63 305.60 307.25 C 306.30 298.86 304.43 293.05 300.91 287.08 C 297.40 281.11 288.77 276.12 286.00 272.00
C 301.36 273.25 317.54 272.97 332.22 274.22 C 346.90 275.47 359.55 274.71 373.00 278.00
M 127.00 355.00 
C 115.00 355.00 103.00 355.00 91.00 355.00
C 91.48 346.65 90.36 336.13 91.00 328.00 C 91.64 319.87 89.78 308.34 91.00 301.00 C 92.22 293.66 86.70 278.29 95.01 277.01 C 103.32 275.72 113.27 276.90 122.00 277.00 C 130.73 277.10 126.24 292.51 127.00 300.00 C 127.76 307.49 126.62 318.65 127.00 327.00 C 127.38 335.35 126.71 346.40 127.00 355.00
M 301.00 345.00 
C 289.70 358.49 290.73 382.44 301.00 395.00
C 285.67 395.00 270.33 395.00 255.00 395.00
C 260.01 388.96 260.75 383.78 262.40 377.25 C 264.04 370.71 262.88 362.37 261.09 356.90 C 259.31 351.43 255.56 347.07 254.00 340.00
C 268.73 341.67 290.87 335.58 301.00 345.00
M 414.00 342.00 
C 400.68 354.98 399.69 380.71 412.00 395.00
C 396.33 395.00 380.67 395.00 365.00 395.00
C 370.60 387.44 374.84 379.50 375.00 368.00 C 375.16 356.50 366.60 352.02 367.00 342.00
C 378.64 337.82 401.91 337.19 414.00 342.00
M 286.00 410.00 
C 282.68 413.61 280.95 416.01 278.00 419.00
C 277.85 415.79 271.48 414.34 271.00 410.00
C 276.00 410.00 281.00 410.00 286.00 410.00
M 396.00 410.00 
C 394.78 413.98 390.38 416.84 388.00 419.00
C 386.64 415.94 383.04 413.25 381.00 410.00
C 386.00 410.00 391.00 410.00 396.00 410.00
M 270.00 495.00 
C 256.49 497.08 263.16 478.55 262.00 469.00 C 260.84 459.45 262.76 446.10 262.00 437.00
C 252.00 430.43 231.70 432.63 218.00 433.00 C 204.30 433.37 183.15 427.26 184.00 444.00 C 184.86 460.74 183.36 478.20 184.00 495.00
C 181.00 495.00 178.00 495.00 175.00 495.00
C 177.49 473.90 170.34 446.96 178.39 431.25 C 186.44 415.53 201.59 414.81 221.00 415.00 C 240.41 415.19 258.29 413.80 266.71 430.30 C 275.13 446.81 267.19 473.75 270.00 495.00
M 381.00 495.00 
C 378.00 495.00 375.00 495.00 372.00 495.00
C 372.60 479.50 371.19 456.78 372.00 442.00 C 372.81 427.22 347.52 432.60 335.00 433.00 C 322.48 433.40 295.61 426.38 294.98 441.03 C 294.35 455.67 295.50 479.52 295.00 495.00
C 291.67 495.00 288.33 495.00 285.00 495.00
C 285.73 473.07 282.17 447.93 289.71 431.70 C 297.25 415.46 312.76 414.84 333.00 415.00 C 353.24 415.16 369.60 414.90 377.19 431.25 C 384.79 447.60 379.35 472.88 381.00 495.00
M 492.00 495.00 
C 489.00 495.00 486.00 495.00 483.00 495.00
C 483.05 475.80 482.93 455.48 483.00 437.00
C 473.00 430.43 452.70 432.63 439.00 433.00 C 425.30 433.37 404.15 427.26 405.00 444.00 C 405.86 460.74 404.36 478.20 405.00 495.00
C 392.18 496.25 397.23 479.67 397.00 469.00 C 396.77 458.33 395.60 447.74 397.64 437.30 C 399.68 426.86 412.75 415.37 423.25 415.20 C 433.75 415.03 444.75 414.73 455.00 415.00 C 465.25 415.27 471.23 415.34 476.77 419.58 C 482.31 423.81 487.50 428.56 489.59 434.75 C 491.68 440.94 492.31 449.80 492.00 460.00 C 491.69 470.20 492.23 484.43 492.00 495.00 Z"/>
</g>
<g fill="None" fill-opacity="0.0" stroke="#000000" stroke-opacity="0.03" stroke-width="0.3"><path d="
M 44.00 28.00 
C 31.56 28.72 36.25 48.43 50.00 45.00 C 63.75 41.57 85.62 47.84 98.75 44.80 C 111.88 41.75 105.63 26.02 92.00 29.00 C 78.37 31.98 57.41 27.23 44.00 28.00 Z"/>
</g>
<g fill="None" fill-opacity="0.0" stroke="#000000" stroke-opacity="0.02" stroke-width="0.3"><path d="
M 459.00 28.00 
C 436.52 31.99 418.66 33.11 395.75 35.60 C 372.85 38.10 351.38 38.93 324.69 40.65 C 298.01 42.37 257.22 43.09 226.00 42.00 C 194.78 40.91 166.24 42.54 137.00 39.00
C 136.24 52.52 138.31 72.46 136.40 83.25 C 134.49 94.05 123.71 97.94 112.00 97.00
C 110.48 106.69 103.36 109.28 100.58 119.23 C 97.79 129.18 83.92 129.93 81.13 119.92 C 78.34 109.91 70.64 106.91 69.00 97.00
C 56.00 97.00 43.00 97.00 30.00 97.00
C 30.00 154.67 30.00 212.33 30.00 270.00
C 35.54 269.94 39.63 268.13 45.00 269.00
C 43.20 258.64 42.67 253.16 40.19 243.25 C 37.72 233.34 47.09 222.60 60.00 226.00
C 58.41 208.99 70.75 193.27 85.00 190.00
C 66.43 169.83 81.59 134.20 109.92 135.07 C 138.26 135.94 150.34 170.32 133.00 190.00
C 147.24 192.99 159.62 209.00 158.00 226.00
C 167.43 224.26 176.81 228.96 178.22 236.78 C 179.63 244.60 174.99 250.48 175.00 258.00
C 277.04 251.38 374.69 259.68 459.00 270.00
C 459.00 189.33 459.00 108.67 459.00 28.00
M 285.00 82.00 
C 270.40 82.21 248.85 79.78 234.75 81.20 C 220.66 82.61 214.28 86.75 204.25 91.39 C 194.22 96.04 186.06 111.93 174.00 101.00
C 175.16 87.80 189.11 82.21 198.77 76.42 C 208.43 70.64 216.88 67.87 230.75 65.61 C 244.63 63.34 268.35 65.88 283.00 66.00
C 281.13 61.18 285.43 59.03 287.00 55.00
C 295.13 54.57 303.61 63.29 310.08 70.92 C 316.55 78.55 301.89 87.34 296.08 94.08 C 290.27 100.82 277.29 90.24 285.00 82.00
M 359.00 114.00 
C 355.86 98.69 378.07 99.68 391.00 102.00 C 403.93 104.32 427.87 94.94 434.19 106.25 C 440.50 117.57 419.37 120.70 406.00 118.00 C 392.63 115.30 369.59 122.87 359.00 114.00
M 232.00 108.00 
C 240.30 107.06 250.58 109.52 258.30 109.71 C 266.03 109.91 263.93 121.04 264.00 129.00 C 264.07 136.96 263.52 150.96 264.00 159.00 C 264.48 167.04 264.40 174.79 255.92 174.06 C 247.43 173.34 235.67 175.48 229.30 173.36 C 222.92 171.24 224.13 160.98 224.00 153.00 C 223.87 145.02 224.10 130.74 224.00 123.00 C 223.90 115.26 226.13 108.67 232.00 108.00
M 285.00 108.00 
C 293.28 107.06 303.60 109.53 311.30 109.71 C 319.00 109.90 316.98 121.07 317.00 129.00 C 317.02 136.93 316.63 151.03 317.00 159.00 C 317.37 166.97 317.61 174.93 308.92 174.06 C 300.22 173.20 289.18 175.83 282.30 173.36 C 275.41 170.89 278.51 159.83 278.00 152.00 C 277.49 144.17 278.59 129.41 278.00 122.00 C 277.41 114.59 278.70 108.72 285.00 108.00
M 207.00 127.00 
C 215.71 135.73 208.12 146.24 211.00 160.00 C 213.88 173.76 204.06 174.62 192.00 174.00 C 179.94 173.38 170.41 175.73 171.00 162.00 C 171.59 148.27 168.06 136.02 176.00 127.00
C 185.16 128.56 197.26 128.67 207.00 127.00
M 432.00 135.00 
C 436.45 140.02 437.73 151.40 426.97 150.98 C 416.21 150.55 400.06 151.49 389.00 151.00 C 377.94 150.51 365.87 153.33 359.00 147.00
C 357.46 131.70 369.37 135.02 384.00 135.00 C 398.63 134.98 417.77 135.06 432.00 135.00
M 393.00 173.00 
C 426.69 168.66 447.27 203.04 435.29 230.30 C 423.32 257.56 384.78 261.51 366.61 237.25 C 348.44 212.98 363.07 176.86 393.00 173.00
M 324.00 205.00 
C 312.99 212.55 294.10 208.59 278.00 209.00 C 261.90 209.41 238.83 209.45 223.00 209.00 C 207.17 208.55 187.38 214.75 186.00 199.00
C 196.94 188.39 216.84 193.64 233.00 193.00 C 249.16 192.36 272.13 192.76 288.00 193.00 C 303.87 193.24 324.75 187.57 324.00 205.00
M 324.00 229.00 
C 324.76 245.15 309.74 239.44 294.00 240.00 C 278.26 240.56 257.30 239.53 241.00 240.00 C 224.70 240.47 206.34 238.85 191.00 241.00
C 190.84 238.36 187.98 236.38 186.00 235.00
C 187.38 219.66 206.28 225.37 222.00 225.00 C 237.72 224.63 259.90 224.59 276.00 225.00 C 292.10 225.41 311.94 221.74 324.00 229.00 Z"/>
</g>
<g fill="None" fill-opacity="0.0" stroke="#000000" stroke-opacity="0.06" stroke-width="0.3"><path d="
M 106.00 66.00 
C 108.65 50.95 88.16 52.44 76.00 54.00 C 63.84 55.56 42.68 48.22 37.58 59.23 C 32.47 70.24 51.38 73.37 64.00 71.00 C 76.62 68.63 97.39 75.75 106.00 66.00 Z"/>
</g>
<g fill="None" fill-opacity="0.0" stroke="#000000" stroke-opacity="0.97" stroke-width="0.3"><path d="
M 285.00 82.00 
C 277.29 90.24 290.27 100.82 296.08 94.08 C 301.89 87.34 316.55 78.55 310.08 70.92 C 303.61 63.29 295.13 54.57 287.00 55.00
C 285.43 59.03 281.13 61.18 283.00 66.00
C 268.35 65.88 244.63 63.34 230.75 65.61 C 216.88 67.87 208.43 70.64 198.77 76.42 C 189.11 82.21 175.16 87.80 174.00 101.00
C 186.06 111.93 194.22 96.04 204.25 91.39 C 214.28 86.75 220.66 82.61 234.75 81.20 C 248.85 79.78 270.40 82.21 285.00 82.00 Z"/>
</g>
<g fill="None" fill-opacity="0.0" stroke="#000000" stroke-opacity="0.98" stroke-width="0.3"><path d="
M 359.00 114.00 
C 369.59 122.87 392.63 115.30 406.00 118.00 C 419.37 120.70 440.50 117.57 434.19 106.25 C 427.87 94.94 403.93 104.32 391.00 102.00 C 378.07 99.68 355.86 98.69 359.00 114.00 Z"/>
</g>
<g fill="None" fill-opacity="0.0" stroke="#000000" stroke-opacity="0.98" stroke-width="0.3"><path d="
M 232.00 108.00 
C 226.13 108.67 223.90 115.26 224.00 123.00 C 224.10 130.74 223.87 145.02 224.00 153.00 C 224.13 160.98 222.92 171.24 229.30 173.36 C 235.67 175.48 247.43 173.34 255.92 174.06 C 264.40 174.79 264.48 167.04 264.00 159.00 C 263.52 150.96 264.07 136.96 264.00 129.00 C 263.93 121.04 266.03 109.91 258.30 109.71 C 250.58 109.52 240.30 107.06 232.00 108.00 Z"/>
</g>
<g fill="None" fill-opacity="0.0" stroke="#000000" stroke-opacity="0.99" stroke-width="0.3"><path d="
M 285.00 108.00 
C 278.70 108.72 277.41 114.59 278.00 122.00 C 278.59 129.41 277.49 144.17 278.00 152.00 C 278.51 159.83 275.41 170.89 282.30 173.36 C 289.18 175.83 300.22 173.20 308.92 174.06 C 317.61 174.93 317.37 166.97 317.00 159.00 C 316.63 151.03 317.02 136.93 317.00 129.00 C 316.98 121.07 319.00 109.90 311.30 109.71 C 303.60 109.53 293.28 107.06 285.00 108.00 Z"/>
</g>
<g fill="None" fill-opacity="0.0" stroke="#000000" stroke-opacity="0.98" stroke-width="0.3"><path d="
M 207.00 127.00 
C 197.26 128.67 185.16 128.56 176.00 127.00
C 168.06 136.02 171.59 148.27 171.00 162.00 C 170.41 175.73 179.94 173.38 192.00 174.00 C 204.06 174.62 213.88 173.76 211.00 160.00 C 208.12 146.24 215.71 135.73 207.00 127.00 Z"/>
</g>
<g fill="None" fill-opacity="0.0" stroke="#000000" stroke-opacity="0.97" stroke-width="0.3"><path d="
M 432.00 135.00 
C 417.77 135.06 398.63 134.98 384.00 135.00 C 369.37 135.02 357.46 131.70 359.00 147.00
C 365.87 153.33 377.94 150.51 389.00 151.00 C 400.06 151.49 416.21 150.55 426.97 150.98 C 437.73 151.40 436.45 140.02 432.00 135.00 Z"/>
</g>
<g fill="None" fill-opacity="0.0" stroke="#000000" stroke-opacity="0.97" stroke-width="0.3"><path d="
M 393.00 173.00 
C 363.07 176.86 348.44 212.98 366.61 237.25 C 384.78 261.51 423.32 257.56 435.29 230.30 C 447.27 203.04 426.69 168.66 393.00 173.00
M 391.00 190.00 
C 390.85 200.89 391.20 212.82 391.00 223.00
C 401.38 232.49 411.40 221.36 423.00 221.00
C 416.04 237.58 395.97 244.37 382.75 231.25 C 369.52 218.14 373.35 196.56 391.00 190.00 Z"/>
</g>
<g fill="None" fill-opacity="0.0" stroke="#000000" stroke-opacity="0.05" stroke-width="0.3"><path d="
M 391.00 190.00 
C 373.35 196.56 369.52 218.14 382.75 231.25 C 395.97 244.37 416.04 237.58 423.00 221.00
C 411.40 221.36 401.38 232.49 391.00 223.00
C 391.20 212.82 390.85 200.89 391.00 190.00 Z"/>
</g>
<g fill="None" fill-opacity="0.0" stroke="#000000" stroke-opacity="0.98" stroke-width="0.3"><path d="
M 324.00 205.00 
C 324.75 187.57 303.87 193.24 288.00 193.00 C 272.13 192.76 249.16 192.36 233.00 193.00 C 216.84 193.64 196.94 188.39 186.00 199.00
C 187.38 214.75 207.17 208.55 223.00 209.00 C 238.83 209.45 261.90 209.41 278.00 209.00 C 294.10 208.59 312.99 212.55 324.00 205.00 Z"/>
</g>
<g fill="None" fill-opacity="0.0" stroke="#000000" stroke-opacity="0.02" stroke-width="0.3"><path d="
M 142.00 226.00 
C 143.43 206.46 127.75 203.13 109.00 203.00 C 90.25 202.87 74.82 206.52 76.00 226.00
C 98.00 226.00 120.00 226.00 142.00 226.00 Z"/>
</g>
<g fill="None" fill-opacity="0.0" stroke="#000000" stroke-opacity="1.00" stroke-width="0.3"><path d="
M 324.00 229.00 
C 311.94 221.74 292.10 225.41 276.00 225.00 C 259.90 224.59 237.72 224.63 222.00 225.00 C 206.28 225.37 187.38 219.66 186.00 235.00
C 187.98 236.38 190.84 238.36 191.00 241.00
C 206.34 238.85 224.70 240.47 241.00 240.00 C 257.30 239.53 278.26 240.56 294.00 240.00 C 309.74 239.44 324.76 245.15 324.00 229.00 Z"/>
</g>
<g fill="None" fill-opacity="0.0" stroke="#000000" stroke-opacity="0.02" stroke-width="0.3"><path d="
M 373.00 278.00 
C 359.55 274.71 346.90 275.47 332.22 274.22 C 317.54 272.97 301.36 273.25 286.00 272.00
C 288.77 276.12 297.40 281.11 300.91 287.08 C 304.43 293.05 306.30 298.86 305.60 307.25 C 304.91 315.63 302.53 318.63 298.00 326.00
C 304.15 327.31 307.90 330.32 313.00 335.00
C 322.58 326.62 343.14 328.19 354.00 334.00
C 356.99 327.66 363.48 328.94 367.00 324.00
C 352.89 312.37 357.20 285.63 373.00 278.00 Z"/>
</g>
<g fill="None" fill-opacity="0.0" stroke="#000000" stroke-opacity="0.06" stroke-width="0.3"><path d="
M 127.00 355.00 
C 126.71 346.40 127.38 335.35 127.00 327.00 C 126.62 318.65 127.76 307.49 127.00 300.00 C 126.24 292.51 130.73 277.10 122.00 277.00 C 113.27 276.90 103.32 275.72 95.01 277.01 C 86.70 278.29 92.22 293.66 91.00 301.00 C 89.78 308.34 91.64 319.87 91.00 328.00 C 90.36 336.13 91.48 346.65 91.00 355.00
C 103.00 355.00 115.00 355.00 127.00 355.00 Z"/>
</g>
<g fill="None" fill-opacity="0.0" stroke="#000000" stroke-opacity="0.03" stroke-width="0.3"><path d="
M 301.00 345.00 
C 290.87 335.58 268.73 341.67 254.00 340.00
C 255.56 347.07 259.31 351.43 261.09 356.90 C 262.88 362.37 264.04 370.71 262.40 377.25 C 260.75 383.78 260.01 388.96 255.00 395.00
C 270.33 395.00 285.67 395.00 301.00 395.00
C 290.73 382.44 289.70 358.49 301.00 345.00 Z"/>
</g>
<g fill="None" fill-opacity="0.0" stroke="#000000" stroke-opacity="0.04" stroke-width="0.3"><path d="
M 414.00 342.00 
C 401.91 337.19 378.64 337.82 367.00 342.00
C 366.60 352.02 375.16 356.50 375.00 368.00 C 374.84 379.50 370.60 387.44 365.00 395.00
C 380.67 395.00 396.33 395.00 412.00 395.00
C 399.69 380.71 400.68 354.98 414.00 342.00 Z"/>
</g>
<g fill="None" fill-opacity="0.0" stroke="#000000" stroke-opacity="0.24" stroke-width="0.3"><path d="
M 286.00 410.00 
C 281.00 410.00 276.00 410.00 271.00 410.00
C 271.48 414.34 277.85 415.79 278.00 419.00
C 280.95 416.01 282.68 413.61 286.00 410.00 Z"/>
</g>
<g fill="None" fill-opacity="0.0" stroke="#000000" stroke-opacity="0.24" stroke-width="0.3"><path d="
M 396.00 410.00 
C 391.00 410.00 386.00 410.00 381.00 410.00
C 383.04 413.25 386.64 415.94 388.00 419.00
C 390.38 416.84 394.78 413.98 396.00 410.00 Z"/>
</g>
<g fill="None" fill-opacity="0.0" stroke="#000000" stroke-opacity="0.03" stroke-width="0.3"><path d="
M 270.00 495.00 
C 267.19 473.75 275.13 446.81 266.71 430.30 C 258.29 413.80 240.41 415.19 221.00 415.00 C 201.59 414.81 186.44 415.53 178.39 431.25 C 170.34 446.96 177.49 473.90 175.00 495.00
C 178.00 495.00 181.00 495.00 184.00 495.00
C 183.36 478.20 184.86 460.74 184.00 444.00 C 183.15 427.26 204.30 433.37 218.00 433.00 C 231.70 432.63 252.00 430.43 262.00 437.00
C 262.76 446.10 260.84 459.45 262.00 469.00 C 263.16 478.55 256.49 497.08 270.00 495.00 Z"/>
</g>
<g fill="None" fill-opacity="0.0" stroke="#000000" stroke-opacity="0.06" stroke-width="0.3"><path d="
M 381.00 495.00 
C 379.35 472.88 384.79 447.60 377.19 431.25 C 369.60 414.90 353.24 415.16 333.00 415.00 C 312.76 414.84 297.25 415.46 289.71 431.70 C 282.17 447.93 285.73 473.07 285.00 495.00
C 288.33 495.00 291.67 495.00 295.00 495.00
C 295.50 479.52 294.35 455.67 294.98 441.03 C 295.61 426.38 322.48 433.40 335.00 433.00 C 347.52 432.60 372.81 427.22 372.00 442.00 C 371.19 456.78 372.60 479.50 372.00 495.00
C 375.00 495.00 378.00 495.00 381.00 495.00 Z"/>
</g>
<g fill="None" fill-opacity="0.0" stroke="#000000" stroke-opacity="0.03" stroke-width="0.3"><path d="
M 492.00 495.00 
C 492.23 484.43 491.69 470.20 492.00 460.00 C 492.31 449.80 491.68 440.94 489.59 434.75 C 487.50 428.56 482.31 423.81 476.77 419.58 C 471.23 415.34 465.25 415.27 455.00 415.00 C 444.75 414.73 433.75 415.03 423.25 415.20 C 412.75 415.37 399.68 426.86 397.64 437.30 C 395.60 447.74 396.77 458.33 397.00 469.00 C 397.23 479.67 392.18 496.25 405.00 495.00
C 404.36 478.20 405.86 460.74 405.00 444.00 C 404.15 427.26 425.30 433.37 439.00 433.00 C 452.70 432.63 473.00 430.43 483.00 437.00
C 482.93 455.48 483.05 475.80 483.00 495.00
C 486.00 495.00 489.00 495.00 492.00 495.00 Z"/>
</g>
<g fill="#000000" fill-opacity="0.01" stroke="None">
<path d="
M 0.00 512.00 
L 512.00 512.00
L 512.00 0.00
L 0.00 0.00
L 0.00 512.00
M 138.00 24.00 
C 151.37 23.05 161.68 25.06 175.68 25.34 C 189.68 25.62 205.63 27.05 221.01 26.99 C 236.39 26.93 257.82 25.01 273.00 26.00 C 288.18 26.99 305.60 25.28 319.02 25.02 C 332.45 24.76 345.38 22.82 357.70 22.65 C 370.01 22.47 381.57 19.93 392.23 19.23 C 402.89 18.53 410.92 17.60 420.75 16.74 C 430.58 15.87 441.25 13.42 450.25 13.20 C 459.25 12.98 473.71 4.85 474.06 20.08 C 474.41 35.31 473.88 58.17 474.00 75.00 C 474.12 91.83 474.11 113.73 474.00 131.00 C 473.89 148.27 474.42 169.10 474.00 186.00 C 473.58 202.90 475.00 225.44 474.00 241.00 C 473.00 256.56 477.86 278.80 470.75 285.19 C 463.64 291.59 452.64 284.02 443.25 284.40 C 433.86 284.77 422.68 281.39 413.00 280.00
C 426.21 292.47 424.94 314.54 415.00 326.00
C 424.15 331.28 427.02 331.65 437.25 329.20 C 447.47 326.75 456.56 330.39 463.75 333.39 C 470.95 336.39 477.54 347.04 480.39 352.75 C 483.25 358.46 486.33 369.44 483.81 378.25 C 481.29 387.06 477.85 392.74 471.00 401.00
C 480.45 400.56 495.71 411.18 500.75 420.25 C 505.78 429.33 510.72 444.37 508.00 460.00 C 505.28 475.63 517.73 508.77 498.92 510.93 C 480.11 513.10 454.42 510.02 434.00 511.00 C 413.58 511.98 390.20 510.46 369.00 511.00 C 347.80 511.54 324.54 510.52 303.00 511.00 C 281.46 511.48 259.69 510.26 238.00 511.00 C 216.31 511.74 194.86 509.52 173.00 511.00 C 151.14 512.48 161.94 483.62 160.00 466.00 C 158.06 448.38 158.88 432.22 166.70 421.70 C 174.52 411.17 183.29 400.68 196.00 401.00
C 189.27 393.11 185.85 388.19 183.41 379.25 C 180.96 370.32 182.88 360.53 185.39 353.25 C 187.90 345.97 196.34 338.17 202.75 334.74 C 209.17 331.30 218.81 326.62 228.75 329.40 C 238.69 332.17 240.60 329.60 250.00 326.00
C 233.18 309.52 244.30 276.70 266.00 272.00
C 233.82 269.96 200.08 272.84 171.00 274.00
C 173.41 287.95 158.45 300.95 142.00 296.00
C 142.00 315.67 142.00 335.33 142.00 355.00
C 160.34 354.59 165.80 380.00 158.00 394.00
C 127.24 394.72 94.00 392.63 63.00 395.00
C 60.84 393.84 60.22 389.81 57.00 390.00
C 55.00 374.01 58.22 355.99 76.00 355.00
C 76.00 335.33 76.00 315.67 76.00 296.00
C 63.20 297.43 51.55 294.83 49.00 284.00
C 39.30 285.89 36.13 284.68 26.25 286.40 C 16.37 288.11 12.59 278.31 14.00 265.00 C 15.41 251.69 13.32 235.84 14.00 222.00 C 14.68 208.16 13.59 193.05 14.00 179.00 C 14.41 164.95 13.59 150.06 14.00 136.00 C 14.41 121.94 12.87 107.58 15.00 94.00
C -1.50 86.14 4.60 58.94 4.00 39.00 C 3.40 19.06 3.62 1.67 24.08 1.07 C 44.53 0.47 78.73 2.05 100.00 1.00 C 121.27 -0.05 138.65 2.02 138.00 24.00 Z"/>
</g>
<g fill="#000000" fill-opacity="0.99" stroke="None">
<path d="
M 138.00 24.00 
C 138.65 2.02 121.27 -0.05 100.00 1.00 C 78.73 2.05 44.53 0.47 24.08 1.07 C 3.62 1.67 3.40 19.06 4.00 39.00 C 4.60 58.94 -1.50 86.14 15.00 94.00
C 12.87 107.58 14.41 121.94 14.00 136.00 C 13.59 150.06 14.41 164.95 14.00 179.00 C 13.59 193.05 14.68 208.16 14.00 222.00 C 13.32 235.84 15.41 251.69 14.00 265.00 C 12.59 278.31 16.37 288.11 26.25 286.40 C 36.13 284.68 39.30 285.89 49.00 284.00
C 51.55 294.83 63.20 297.43 76.00 296.00
C 76.00 315.67 76.00 335.33 76.00 355.00
C 58.22 355.99 55.00 374.01 57.00 390.00
C 60.22 389.81 60.84 393.84 63.00 395.00
C 94.00 392.63 127.24 394.72 158.00 394.00
C 165.80 380.00 160.34 354.59 142.00 355.00
C 142.00 335.33 142.00 315.67 142.00 296.00
C 158.45 300.95 173.41 287.95 171.00 274.00
C 200.08 272.84 233.82 269.96 266.00 272.00
C 244.30 276.70 233.18 309.52 250.00 326.00
C 240.60 329.60 238.69 332.17 228.75 329.40 C 218.81 326.62 209.17 331.30 202.75 334.74 C 196.34 338.17 187.90 345.97 185.39 353.25 C 182.88 360.53 180.96 370.32 183.41 379.25 C 185.85 388.19 189.27 393.11 196.00 401.00
C 183.29 400.68 174.52 411.17 166.70 421.70 C 158.88 432.22 158.06 448.38 160.00 466.00 C 161.94 483.62 151.14 512.48 173.00 511.00 C 194.86 509.52 216.31 511.74 238.00 511.00 C 259.69 510.26 281.46 511.48 303.00 511.00 C 324.54 510.52 347.80 511.54 369.00 511.00 C 390.20 510.46 413.58 511.98 434.00 511.00 C 454.42 510.02 480.11 513.10 498.92 510.93 C 517.73 508.77 505.28 475.63 508.00 460.00 C 510.72 444.37 505.78 429.33 500.75 420.25 C 495.71 411.18 480.45 400.56 471.00 401.00
C 477.85 392.74 481.29 387.06 483.81 378.25 C 486.33 369.44 483.25 358.46 480.39 352.75 C 477.54 347.04 470.95 336.39 463.75 333.39 C 456.56 330.39 447.47 326.75 437.25 329.20 C 427.02 331.65 424.15 331.28 415.00 326.00
C 424.94 314.54 426.21 292.47 413.00 280.00
C 422.68 281.39 433.86 284.77 443.25 284.40 C 452.64 284.02 463.64 291.59 470.75 285.19 C 477.86 278.80 473.00 256.56 474.00 241.00 C 475.00 225.44 473.58 202.90 474.00 186.00 C 474.42 169.10 473.89 148.27 474.00 131.00 C 474.11 113.73 474.12 91.83 474.00 75.00 C 473.88 58.17 474.41 35.31 474.06 20.08 C 473.71 4.85 459.25 12.98 450.25 13.20 C 441.25 13.42 430.58 15.87 420.75 16.74 C 410.92 17.60 402.89 18.53 392.23 19.23 C 381.57 19.93 370.01 22.47 357.70 22.65 C 345.38 22.82 332.45 24.76 319.02 25.02 C 305.60 25.28 288.18 26.99 273.00 26.00 C 257.82 25.01 236.39 26.93 221.01 26.99 C 205.63 27.05 189.68 25.62 175.68 25.34 C 161.68 25.06 151.37 23.05 138.00 24.00
M 44.00 28.00 
C 57.41 27.23 78.37 31.98 92.00 29.00 C 105.63 26.02 111.88 41.75 98.75 44.80 C 85.62 47.84 63.75 41.57 50.00 45.00 C 36.25 48.43 31.56 28.72 44.00 28.00
M 459.00 28.00 
C 459.00 108.67 459.00 189.33 459.00 270.00
C 374.69 259.68 277.04 251.38 175.00 258.00
C 174.99 250.48 179.63 244.60 178.22 236.78 C 176.81 228.96 167.43 224.26 158.00 226.00
C 159.62 209.00 147.24 192.99 133.00 190.00
C 150.34 170.32 138.26 135.94 109.92 135.07 C 81.59 134.20 66.43 169.83 85.00 190.00
C 70.75 193.27 58.41 208.99 60.00 226.00
C 47.09 222.60 37.72 233.34 40.19 243.25 C 42.67 253.16 43.20 258.64 45.00 269.00
C 39.63 268.13 35.54 269.94 30.00 270.00
C 30.00 212.33 30.00 154.67 30.00 97.00
C 43.00 97.00 56.00 97.00 69.00 97.00
C 70.64 106.91 78.34 109.91 81.13 119.92 C 83.92 129.93 97.79 129.18 100.58 119.23 C 103.36 109.28 110.48 106.69 112.00 97.00
C 123.71 97.94 134.49 94.05 136.40 83.25 C 138.31 72.46 136.24 52.52 137.00 39.00
C 166.24 42.54 194.78 40.91 226.00 42.00 C 257.22 43.09 298.01 42.37 324.69 40.65 C 351.38 38.93 372.85 38.10 395.75 35.60 C 418.66 33.11 436.52 31.99 459.00 28.00
M 106.00 66.00 
C 97.39 75.75 76.62 68.63 64.00 71.00 C 51.38 73.37 32.47 70.24 37.58 59.23 C 42.68 48.22 63.84 55.56 76.00 54.00 C 88.16 52.44 108.65 50.95 106.00 66.00
M 142.00 226.00 
C 120.00 226.00 98.00 226.00 76.00 226.00
C 74.82 206.52 90.25 202.87 109.00 203.00 C 127.75 203.13 143.43 206.46 142.00 226.00
M 373.00 278.00 
C 357.20 285.63 352.89 312.37 367.00 324.00
C 363.48 328.94 356.99 327.66 354.00 334.00
C 343.14 328.19 322.58 326.62 313.00 335.00
C 307.90 330.32 304.15 327.31 298.00 326.00
C 302.53 318.63 304.91 315.63 305.60 307.25 C 306.30 298.86 304.43 293.05 300.91 287.08 C 297.40 281.11 288.77 276.12 286.00 272.00
C 301.36 273.25 317.54 272.97 332.22 274.22 C 346.90 275.47 359.55 274.71 373.00 278.00
M 127.00 355.00 
C 115.00 355.00 103.00 355.00 91.00 355.00
C 91.48 346.65 90.36 336.13 91.00 328.00 C 91.64 319.87 89.78 308.34 91.00 301.00 C 92.22 293.66 86.70 278.29 95.01 277.01 C 103.32 275.72 113.27 276.90 122.00 277.00 C 130.73 277.10 126.24 292.51 127.00 300.00 C 127.76 307.49 126.62 318.65 127.00 327.00 C 127.38 335.35 126.71 346.40 127.00 355.00
M 301.00 345.00 
C 289.70 358.49 290.73 382.44 301.00 395.00
C 285.67 395.00 270.33 395.00 255.00 395.00
C 260.01 388.96 260.75 383.78 262.40 377.25 C 264.04 370.71 262.88 362.37 261.09 356.90 C 259.31 351.43 255.56 347.07 254.00 340.00
C 268.73 341.67 290.87 335.58 301.00 345.00
M 414.00 342.00 
C 400.68 354.98 399.69 380.71 412.00 395.00
C 396.33 395.00 380.67 395.00 365.00 395.00
C 370.60 387.44 374.84 379.50 375.00 368.00 C 375.16 356.50 366.60 352.02 367.00 342.00
C 378.64 337.82 401.91 337.19 414.00 342.00
M 286.00 410.00 
C 282.68 413.61 280.95 416.01 278.00 419.00
C 277.85 415.79 271.48 414.34 271.00 410.00
C 276.00 410.00 281.00 410.00 286.00 410.00
M 396.00 410.00 
C 394.78 413.98 390.38 416.84 388.00 419.00
C 386.64 415.94 383.04 413.25 381.00 410.00
C 386.00 410.00 391.00 410.00 396.00 410.00
M 270.00 495.00 
C 256.49 497.08 263.16 478.55 262.00 469.00 C 260.84 459.45 262.76 446.10 262.00 437.00
C 252.00 430.43 231.70 432.63 218.00 433.00 C 204.30 433.37 183.15 427.26 184.00 444.00 C 184.86 460.74 183.36 478.20 184.00 495.00
C 181.00 495.00 178.00 495.00 175.00 495.00
C 177.49 473.90 170.34 446.96 178.39 431.25 C 186.44 415.53 201.59 414.81 221.00 415.00 C 240.41 415.19 258.29 413.80 266.71 430.30 C 275.13 446.81 267.19 473.75 270.00 495.00
M 381.00 495.00 
C 378.00 495.00 375.00 495.00 372.00 495.00
C 372.60 479.50 371.19 456.78 372.00 442.00 C 372.81 427.22 347.52 432.60 335.00 433.00 C 322.48 433.40 295.61 426.38 294.98 441.03 C 294.35 455.67 295.50 479.52 295.00 495.00
C 291.67 495.00 288.33 495.00 285.00 495.00
C 285.73 473.07 282.17 447.93 289.71 431.70 C 297.25 415.46 312.76 414.84 333.00 415.00 C 353.24 415.16 369.60 414.90 377.19 431.25 C 384.79 447.60 379.35 472.88 381.00 495.00
M 492.00 495.00 
C 489.00 495.00 486.00 495.00 483.00 495.00
C 483.05 475.80 482.93 455.48 483.00 437.00
C 473.00 430.43 452.70 432.63 439.00 433.00 C 425.30 433.37 404.15 427.26 405.00 444.00 C 405.86 460.74 404.36 478.20 405.00 495.00
C 392.18 496.25 397.23 479.67 397.00 469.00 C 396.77 458.33 395.60 447.74 397.64 437.30 C 399.68 426.86 412.75 415.37 423.25 415.20 C 433.75 415.03 444.75 414.73 455.00 415.00 C 465.25 415.27 471.23 415.34 476.77 419.58 C 482.31 423.81 487.50 428.56 489.59 434.75 C 491.68 440.94 492.31 449.80 492.00 460.00 C 491.69 470.20 492.23 484.43 492.00 495.00 Z"/>
</g>
<g fill="#000000" fill-opacity="0.03" stroke="None">
<path d="
M 44.00 28.00 
C 31.56 28.72 36.25 48.43 50.00 45.00 C 63.75 41.57 85.62 47.84 98.75 44.80 C 111.88 41.75 105.63 26.02 92.00 29.00 C 78.37 31.98 57.41 27.23 44.00 28.00 Z"/>
</g>
<g fill="#000000" fill-opacity="0.02" stroke="None">
<path d="
M 459.00 28.00 
C 436.52 31.99 418.66 33.11 395.75 35.60 C 372.85 38.10 351.38 38.93 324.69 40.65 C 298.01 42.37 257.22 43.09 226.00 42.00 C 194.78 40.91 166.24 42.54 137.00 39.00
C 136.24 52.52 138.31 72.46 136.40 83.25 C 134.49 94.05 123.71 97.94 112.00 97.00
C 110.48 106.69 103.36 109.28 100.58 119.23 C 97.79 129.18 83.92 129.93 81.13 119.92 C 78.34 109.91 70.64 106.91 69.00 97.00
C 56.00 97.00 43.00 97.00 30.00 97.00
C 30.00 154.67 30.00 212.33 30.00 270.00
C 35.54 269.94 39.63 268.13 45.00 269.00
C 43.20 258.64 42.67 253.16 40.19 243.25 C 37.72 233.34 47.09 222.60 60.00 226.00
C 58.41 208.99 70.75 193.27 85.00 190.00
C 66.43 169.83 81.59 134.20 109.92 135.07 C 138.26 135.94 150.34 170.32 133.00 190.00
C 147.24 192.99 159.62 209.00 158.00 226.00
C 167.43 224.26 176.81 228.96 178.22 236.78 C 179.63 244.60 174.99 250.48 175.00 258.00
C 277.04 251.38 374.69 259.68 459.00 270.00
C 459.00 189.33 459.00 108.67 459.00 28.00
M 285.00 82.00 
C 270.40 82.21 248.85 79.78 234.75 81.20 C 220.66 82.61 214.28 86.75 204.25 91.39 C 194.22 96.04 186.06 111.93 174.00 101.00
C 175.16 87.80 189.11 82.21 198.77 76.42 C 208.43 70.64 216.88 67.87 230.75 65.61 C 244.63 63.34 268.35 65.88 283.00 66.00
C 281.13 61.18 285.43 59.03 287.00 55.00
C 295.13 54.57 303.61 63.29 310.08 70.92 C 316.55 78.55 301.89 87.34 296.08 94.08 C 290.27 100.82 277.29 90.24 285.00 82.00
M 359.00 114.00 
C 355.86 98.69 378.07 99.68 391.00 102.00 C 403.93 104.32 427.87 94.94 434.19 106.25 C 440.50 117.57 419.37 120.70 406.00 118.00 C 392.63 115.30 369.59 122.87 359.00 114.00
M 232.00 108.00 
C 240.30 107.06 250.58 109.52 258.30 109.71 C 266.03 109.91 263.93 121.04 264.00 129.00 C 264.07 136.96 263.52 150.96 264.00 159.00 C 264.48 167.04 264.40 174.79 255.92 174.06 C 247.43 173.34 235.67 175.48 229.30 173.36 C 222.92 171.24 224.13 160.98 224.00 153.00 C 223.87 145.02 224.10 130.74 224.00 123.00 C 223.90 115.26 226.13 108.67 232.00 108.00
M 285.00 108.00 
C 293.28 107.06 303.60 109.53 311.30 109.71 C 319.00 109.90 316.98 121.07 317.00 129.00 C 317.02 136.93 316.63 151.03 317.00 159.00 C 317.37 166.97 317.61 174.93 308.92 174.06 C 300.22 173.20 289.18 175.83 282.30 173.36 C 275.41 170.89 278.51 159.83 278.00 152.00 C 277.49 144.17 278.59 129.41 278.00 122.00 C 277.41 114.59 278.70 108.72 285.00 108.00
M 207.00 127.00 
C 215.71 135.73 208.12 146.24 211.00 160.00 C 213.88 173.76 204.06 174.62 192.00 174.00 C 179.94 173.38 170.41 175.73 171.00 162.00 C 171.59 148.27 168.06 136.02 176.00 127.00
C 185.16 128.56 197.26 128.67 207.00 127.00
M 432.00 135.00 
C 436.45 140.02 437.73 151.40 426.97 150.98 C 416.21 150.55 400.06 151.49 389.00 151.00 C 377.94 150.51 365.87 153.33 359.00 147.00
C 357.46 131.70 369.37 135.02 384.00 135.00 C 398.63 134.98 417.77 135.06 432.00 135.00
M 393.00 173.00 
C 426.69 168.66 447.27 203.04 435.29 230.30 C 423.32 257.56 384.78 261.51 366.61 237.25 C 348.44 212.98 363.07 176.86 393.00 173.00
M 324.00 205.00 
C 312.99 212.55 294.10 208.59 278.00 209.00 C 261.90 209.41 238.83 209.45 223.00 209.00 C 207.17 208.55 187.38 214.75 186.00 199.00
C 196.94 188.39 216.84 193.64 233.00 193.00 C 249.16 192.36 272.13 192.76 288.00 193.00 C 303.87 193.24 324.75 187.57 324.00 205.00
M 324.00 229.00 
C 324.76 245.15 309.74 239.44 294.00 240.00 C 278.26 240.56 257.30 239.53 241.00 240.00 C 224.70 240.47 206.34 238.85 191.00 241.00
C 190.84 238.36 187.98 236.38 186.00 235.00
C 187.38 219.66 206.28 225.37 222.00 225.00 C 237.72 224.63 259.90 224.59 276.00 225.00 C 292.10 225.41 311.94 221.74 324.00 229.00 Z"/>
</g>
<g fill="#000000" fill-opacity="0.06" stroke="None">
<path d="
M 106.00 66.00 
C 108.65 50.95 88.16 52.44 76.00 54.00 C 63.84 55.56 42.68 48.22 37.58 59.23 C 32.47 70.24 51.38 73.37 64.00 71.00 C 76.62 68.63 97.39 75.75 106.00 66.00 Z"/>
</g>
<g fill="#000000" fill-opacity="0.97" stroke="None">
<path d="
M 285.00 82.00 
C 277.29 90.24 290.27 100.82 296.08 94.08 C 301.89 87.34 316.55 78.55 310.08 70.92 C 303.61 63.29 295.13 54.57 287.00 55.00
C 285.43 59.03 281.13 61.18 283.00 66.00
C 268.35 65.88 244.63 63.34 230.75 65.61 C 216.88 67.87 208.43 70.64 198.77 76.42 C 189.11 82.21 175.16 87.80 174.00 101.00
C 186.06 111.93 194.22 96.04 204.25 91.39 C 214.28 86.75 220.66 82.61 234.75 81.20 C 248.85 79.78 270.40 82.21 285.00 82.00 Z"/>
</g>
<g fill="#000000" fill-opacity="0.98" stroke="None">
<path d="
M 359.00 114.00 
C 369.59 122.87 392.63 115.30 406.00 118.00 C 419.37 120.70 440.50 117.57 434.19 106.25 C 427.87 94.94 403.93 104.32 391.00 102.00 C 378.07 99.68 355.86 98.69 359.00 114.00 Z"/>
</g>
<g fill="#000000" fill-opacity="0.98" stroke="None">
<path d="
M 232.00 108.00 
C 226.13 108.67 223.90 115.26 224.00 123.00 C 224.10 130.74 223.87 145.02 224.00 153.00 C 224.13 160.98 222.92 171.24 229.30 173.36 C 235.67 175.48 247.43 173.34 255.92 174.06 C 264.40 174.79 264.48 167.04 264.00 159.00 C 263.52 150.96 264.07 136.96 264.00 129.00 C 263.93 121.04 266.03 109.91 258.30 109.71 C 250.58 109.52 240.30 107.06 232.00 108.00 Z"/>
</g>
<g fill="#000000" fill-opacity="0.99" stroke="None">
<path d="
M 285.00 108.00 
C 278.70 108.72 277.41 114.59 278.00 122.00 C 278.59 129.41 277.49 144.17 278.00 152.00 C 278.51 159.83 275.41 170.89 282.30 173.36 C 289.18 175.83 300.22 173.20 308.92 174.06 C 317.61 174.93 317.37 166.97 317.00 159.00 C 316.63 151.03 317.02 136.93 317.00 129.00 C 316.98 121.07 319.00 109.90 311.30 109.71 C 303.60 109.53 293.28 107.06 285.00 108.00 Z"/>
</g>
<g fill="#000000" fill-opacity="0.98" stroke="None">
<path d="
M 207.00 127.00 
C 197.26 128.67 185.16 128.56 176.00 127.00
C 168.06 136.02 171.59 148.27 171.00 162.00 C 170.41 175.73 179.94 173.38 192.00 174.00 C 204.06 174.62 213.88 173.76 211.00 160.00 C 208.12 146.24 215.71 135.73 207.00 127.00 Z"/>
</g>
<g fill="#000000" fill-opacity="0.97" stroke="None">
<path d="
M 432.00 135.00 
C 417.77 135.06 398.63 134.98 384.00 135.00 C 369.37 135.02 357.46 131.70 359.00 147.00
C 365.87 153.33 377.94 150.51 389.00 151.00 C 400.06 151.49 416.21 150.55 426.97 150.98 C 437.73 151.40 436.45 140.02 432.00 135.00 Z"/>
</g>
<g fill="#000000" fill-opacity="0.97" stroke="None">
<path d="
M 393.00 173.00 
C 363.07 176.86 348.44 212.98 366.61 237.25 C 384.78 261.51 423.32 257.56 435.29 230.30 C 447.27 203.04 426.69 168.66 393.00 173.00
M 391.00 190.00 
C 390.85 200.89 391.20 212.82 391.00 223.00
C 401.38 232.49 411.40 221.36 423.00 221.00
C 416.04 237.58 395.97 244.37 382.75 231.25 C 369.52 218.14 373.35 196.56 391.00 190.00 Z"/>
</g>
<g fill="#000000" fill-opacity="0.05" stroke="None">
<path d="
M 391.00 190.00 
C 373.35 196.56 369.52 218.14 382.75 231.25 C 395.97 244.37 416.04 237.58 423.00 221.00
C 411.40 221.36 401.38 232.49 391.00 223.00
C 391.20 212.82 390.85 200.89 391.00 190.00 Z"/>
</g>
<g fill="#000000" fill-opacity="0.98" stroke="None">
<path d="
M 324.00 205.00 
C 324.75 187.57 303.87 193.24 288.00 193.00 C 272.13 192.76 249.16 192.36 233.00 193.00 C 216.84 193.64 196.94 188.39 186.00 199.00
C 187.38 214.75 207.17 208.55 223.00 209.00 C 238.83 209.45 261.90 209.41 278.00 209.00 C 294.10 208.59 312.99 212.55 324.00 205.00 Z"/>
</g>
<g fill="#000000" fill-opacity="0.02" stroke="None">
<path d="
M 142.00 226.00 
C 143.43 206.46 127.75 203.13 109.00 203.00 C 90.25 202.87 74.82 206.52 76.00 226.00
C 98.00 226.00 120.00 226.00 142.00 226.00 Z"/>
</g>
<g fill="#000000" fill-opacity="1.00" stroke="None">
<path d="
M 324.00 229.00 
C 311.94 221.74 292.10 225.41 276.00 225.00 C 259.90 224.59 237.72 224.63 222.00 225.00 C 206.28 225.37 187.38 219.66 186.00 235.00
C 187.98 236.38 190.84 238.36 191.00 241.00
C 206.34 238.85 224.70 240.47 241.00 240.00 C 257.30 239.53 278.26 240.56 294.00 240.00 C 309.74 239.44 324.76 245.15 324.00 229.00 Z"/>
</g>
<g fill="#000000" fill-opacity="0.02" stroke="None">
<path d="
M 373.00 278.00 
C 359.55 274.71 346.90 275.47 332.22 274.22 C 317.54 272.97 301.36 273.25 286.00 272.00
C 288.77 276.12 297.40 281.11 300.91 287.08 C 304.43 293.05 306.30 298.86 305.60 307.25 C 304.91 315.63 302.53 318.63 298.00 326.00
C 304.15 327.31 307.90 330.32 313.00 335.00
C 322.58 326.62 343.14 328.19 354.00 334.00
C 356.99 327.66 363.48 328.94 367.00 324.00
C 352.89 312.37 357.20 285.63 373.00 278.00 Z"/>
</g>
<g fill="#000000" fill-opacity="0.06" stroke="None">
<path d="
M 127.00 355.00 
C 126.71 346.40 127.38 335.35 127.00 327.00 C 126.62 318.65 127.76 307.49 127.00 300.00 C 126.24 292.51 130.73 277.10 122.00 277.00 C 113.27 276.90 103.32 275.72 95.01 277.01 C 86.70 278.29 92.22 293.66 91.00 301.00 C 89.78 308.34 91.64 319.87 91.00 328.00 C 90.36 336.13 91.48 346.65 91.00 355.00
C 103.00 355.00 115.00 355.00 127.00 355.00 Z"/>
</g>
<g fill="#000000" fill-opacity="0.03" stroke="None">
<path d="
M 301.00 345.00 
C 290.87 335.58 268.73 341.67 254.00 340.00
C 255.56 347.07 259.31 351.43 261.09 356.90 C 262.88 362.37 264.04 370.71 262.40 377.25 C 260.75 383.78 260.01 388.96 255.00 395.00
C 270.33 395.00 285.67 395.00 301.00 395.00
C 290.73 382.44 289.70 358.49 301.00 345.00 Z"/>
</g>
<g fill="#000000" fill-opacity="0.04" stroke="None">
<path d="
M 414.00 342.00 
C 401.91 337.19 378.64 337.82 367.00 342.00
C 366.60 352.02 375.16 356.50 375.00 368.00 C 374.84 379.50 370.60 387.44 365.00 395.00
C 380.67 395.00 396.33 395.00 412.00 395.00
C 399.69 380.71 400.68 354.98 414.00 342.00 Z"/>
</g>
<g fill="#000000" fill-opacity="0.24" stroke="None">
<path d="
M 286.00 410.00 
C 281.00 410.00 276.00 410.00 271.00 410.00
C 271.48 414.34 277.85 415.79 278.00 419.00
C 280.95 416.01 282.68 413.61 286.00 410.00 Z"/>
</g>
<g fill="#000000" fill-opacity="0.24" stroke="None">
<path d="
M 396.00 410.00 
C 391.00 410.00 386.00 410.00 381.00 410.00
C 383.04 413.25 386.64 415.94 388.00 419.00
C 390.38 416.84 394.78 413.98 396.00 410.00 Z"/>
</g>
<g fill="#000000" fill-opacity="0.03" stroke="None">
<path d="
M 270.00 495.00 
C 267.19 473.75 275.13 446.81 266.71 430.30 C 258.29 413.80 240.41 415.19 221.00 415.00 C 201.59 414.81 186.44 415.53 178.39 431.25 C 170.34 446.96 177.49 473.90 175.00 495.00
C 178.00 495.00 181.00 495.00 184.00 495.00
C 183.36 478.20 184.86 460.74 184.00 444.00 C 183.15 427.26 204.30 433.37 218.00 433.00 C 231.70 432.63 252.00 430.43 262.00 437.00
C 262.76 446.10 260.84 459.45 262.00 469.00 C 263.16 478.55 256.49 497.08 270.00 495.00 Z"/>
</g>
<g fill="#000000" fill-opacity="0.06" stroke="None">
<path d="
M 381.00 495.00 
C 379.35 472.88 384.79 447.60 377.19 431.25 C 369.60 414.90 353.24 415.16 333.00 415.00 C 312.76 414.84 297.25 415.46 289.71 431.70 C 282.17 447.93 285.73 473.07 285.00 495.00
C 288.33 495.00 291.67 495.00 295.00 495.00
C 295.50 479.52 294.35 455.67 294.98 441.03 C 295.61 426.38 322.48 433.40 335.00 433.00 C 347.52 432.60 372.81 427.22 372.00 442.00 C 371.19 456.78 372.60 479.50 372.00 495.00
C 375.00 495.00 378.00 495.00 381.00 495.00 Z"/>
</g>
<g fill="#000000" fill-opacity="0.03" stroke="None">
<path d="
M 492.00 495.00 
C 492.23 484.43 491.69 470.20 492.00 460.00 C 492.31 449.80 491.68 440.94 489.59 434.75 C 487.50 428.56 482.31 423.81 476.77 419.58 C 471.23 415.34 465.25 415.27 455.00 415.00 C 444.75 414.73 433.75 415.03 423.25 415.20 C 412.75 415.37 399.68 426.86 397.64 437.30 C 395.60 447.74 396.77 458.33 397.00 469.00 C 397.23 479.67 392.18 496.25 405.00 495.00
C 404.36 478.20 405.86 460.74 405.00 444.00 C 404.15 427.26 425.30 433.37 439.00 433.00 C 452.70 432.63 473.00 430.43 483.00 437.00
C 482.93 455.48 483.05 475.80 483.00 495.00
C 486.00 495.00 489.00 495.00 492.00 495.00 Z"/>
</g>
</svg>