<svg xmlns="http://www.w3.org/2000/svg" xmlns:v="https://svgstorm.com"
viewBox = "0 0 512 512"
width="512"
height="512">
<g fill="None" fill-opacity="0.0" stroke="#000000" stroke-opacity="0.00" stroke-width="0.3"><path d="
M 0.00 512.00 
L 50.00 512.00
C 47.87 510.76 46.33 508.60 44.00 508.00
C 44.00 458.33 44.01 405.55 44.00 356.00
C 56.55 348.65 74.08 352.71 91.00 352.00 C 107.92 351.29 127.59 352.33 145.00 352.00 C 162.41 351.67 180.36 352.15 198.00 352.00 C 215.64 351.85 234.27 352.07 252.00 352.00 C 269.73 351.93 287.26 352.04 305.00 352.00 C 322.74 351.96 341.31 352.03 359.00 352.00 C 376.69 351.97 394.46 352.05 412.00 352.00 C 429.54 351.95 447.23 352.09 464.00 352.00
C 471.55 364.77 467.18 382.93 468.00 400.00 C 468.82 417.07 467.54 437.56 468.00 455.00 C 468.46 472.44 467.60 491.22 468.00 508.00
C 466.20 508.31 464.23 510.00 464.00 512.00
L 512.00 512.00
L 512.00 0.00
L 448.00 0.00
C 465.24 4.62 470.03 17.59 468.00 38.00 C 465.97 58.41 472.30 85.83 463.76 100.77 C 455.23 115.71 434.13 112.29 414.00 112.00 C 393.87 111.71 365.57 110.08 354.08 119.13 C 342.59 128.18 334.58 132.09 320.00 136.00
C 312.04 122.78 317.28 99.10 316.00 82.00 C 314.72 64.90 316.89 38.37 316.78 22.78 C 316.67 7.19 325.27 4.50 338.00 0.00
L 0.00 0.00
L 0.00 512.00
M 364.00 288.00 
C 358.67 288.00 353.33 288.00 348.00 288.00
C 352.42 265.26 345.62 250.84 330.25 239.61 C 314.88 228.38 308.43 215.65 294.00 206.00
C 286.95 210.94 280.65 215.93 273.00 218.00
C 274.15 226.36 274.86 232.46 277.39 240.75 C 279.93 249.05 279.48 256.42 282.40 265.75 C 285.32 275.08 277.07 282.51 270.00 288.00
C 260.67 288.00 251.33 288.00 242.00 288.00
C 234.83 283.08 226.70 274.49 229.76 265.75 C 232.81 257.01 231.60 250.31 234.19 241.75 C 236.79 233.20 237.99 226.62 239.00 218.00
C 232.35 217.25 226.10 209.57 219.32 207.68 C 212.54 205.79 206.74 217.70 200.75 221.75 C 194.76 225.80 187.65 233.53 182.25 238.59 C 176.85 243.64 168.50 249.40 165.42 255.77 C 162.35 262.14 164.93 278.46 164.00 288.00
C 158.67 288.00 153.33 288.00 148.00 288.00
C 147.40 271.45 147.07 256.03 153.71 245.70 C 160.34 235.38 170.92 227.96 179.92 218.92 C 188.92 209.88 201.53 202.02 208.19 191.75 C 214.85 181.49 212.18 159.98 212.21 144.77 C 212.25 129.56 211.71 110.70 216.71 101.70 C 221.71 92.69 229.22 82.93 238.77 79.42 C 248.32 75.92 264.34 75.01 273.75 79.39 C 283.17 83.78 291.09 92.47 296.13 101.92 C 301.16 111.37 298.96 130.26 299.22 145.22 C 299.49 160.18 297.57 182.71 304.75 192.25 C 311.93 201.79 323.16 210.66 332.25 219.75 C 341.34 228.84 353.21 235.84 359.13 245.92 C 365.05 255.99 364.14 271.45 364.00 288.00
M 162.00 148.00 
C 180.53 144.60 195.68 160.75 190.88 178.90 C 186.08 197.05 162.99 200.29 150.75 188.25 C 138.52 176.21 144.55 151.21 162.00 148.00
M 338.00 148.00 
C 356.53 144.60 371.68 160.75 366.88 178.90 C 362.08 197.05 338.99 200.29 326.75 188.25 C 314.52 176.21 320.55 151.21 338.00 148.00
M 137.00 196.00 
C 140.49 200.13 143.71 205.52 149.00 206.00
C 140.77 214.50 135.31 218.43 126.75 225.19 C 118.19 231.96 119.93 243.22 120.00 257.00 C 120.07 270.78 119.95 289.75 120.00 304.00
C 210.67 304.00 301.33 304.00 392.00 304.00
C 390.87 284.91 393.60 254.10 391.80 236.75 C 390.01 219.41 373.22 221.23 364.00 208.00
C 367.57 204.81 371.80 198.45 377.00 196.00
C 384.31 206.69 398.67 212.53 404.32 224.68 C 409.97 236.83 407.69 253.95 408.00 273.00 C 408.31 292.05 407.77 316.47 408.00 336.00
C 402.67 336.00 397.33 336.00 392.00 336.00
C 392.00 330.67 392.00 325.33 392.00 320.00
C 301.33 320.00 210.67 320.00 120.00 320.00
C 120.00 325.33 120.00 330.67 120.00 336.00
C 114.67 336.00 109.33 336.00 104.00 336.00
C 104.45 316.48 103.40 292.03 104.00 273.00 C 104.60 253.97 101.45 235.91 107.91 223.90 C 114.36 211.89 127.61 205.49 137.00 196.00
M 200.00 260.00 
C 206.70 266.12 203.11 278.35 204.00 288.00
C 198.67 288.00 193.33 288.00 188.00 288.00
C 188.81 278.17 185.50 266.29 192.00 260.00
C 194.68 261.33 197.11 260.21 200.00 260.00
M 320.00 260.00 
C 326.70 266.12 323.11 278.35 324.00 288.00
C 318.67 288.00 313.33 288.00 308.00 288.00
C 308.81 278.17 305.50 266.29 312.00 260.00
C 314.68 261.33 317.11 260.21 320.00 260.00 Z"/>
</g>
<g fill="None" fill-opacity="0.0" stroke="#000000" stroke-opacity="1.00" stroke-width="0.3"><path d="
M 448.00 0.00 
L 338.00 0.00
C 325.27 4.50 316.67 7.19 316.78 22.78 C 316.89 38.37 314.72 64.90 316.00 82.00 C 317.28 99.10 312.04 122.78 320.00 136.00
C 334.58 132.09 342.59 128.18 354.08 119.13 C 365.57 110.08 393.87 111.71 414.00 112.00 C 434.13 112.29 455.23 115.71 463.76 100.77 C 472.30 85.83 465.97 58.41 468.00 38.00 C 470.03 17.59 465.24 4.62 448.00 0.00 Z"/>
</g>
<g fill="None" fill-opacity="0.0" stroke="#000000" stroke-opacity="0.99" stroke-width="0.3"><path d="
M 364.00 288.00 
C 364.14 271.45 365.05 255.99 359.13 245.92 C 353.21 235.84 341.34 228.84 332.25 219.75 C 323.16 210.66 311.93 201.79 304.75 192.25 C 297.57 182.71 299.49 160.18 299.22 145.22 C 298.96 130.26 301.16 111.37 296.13 101.92 C 291.09 92.47 283.17 83.78 273.75 79.39 C 264.34 75.01 248.32 75.92 238.77 79.42 C 229.22 82.93 221.71 92.69 216.71 101.70 C 211.71 110.70 212.25 129.56 212.21 144.77 C 212.18 159.98 214.85 181.49 208.19 191.75 C 201.53 202.02 188.92 209.88 179.92 218.92 C 170.92 227.96 160.34 235.38 153.71 245.70 C 147.07 256.03 147.40 271.45 148.00 288.00
C 153.33 288.00 158.67 288.00 164.00 288.00
C 164.93 278.46 162.35 262.14 165.42 255.77 C 168.50 249.40 176.85 243.64 182.25 238.59 C 187.65 233.53 194.76 225.80 200.75 221.75 C 206.74 217.70 212.54 205.79 219.32 207.68 C 226.10 209.57 232.35 217.25 239.00 218.00
C 237.99 226.62 236.79 233.20 234.19 241.75 C 231.60 250.31 232.81 257.01 229.76 265.75 C 226.70 274.49 234.83 283.08 242.00 288.00
C 251.33 288.00 260.67 288.00 270.00 288.00
C 277.07 282.51 285.32 275.08 282.40 265.75 C 279.48 256.42 279.93 249.05 277.39 240.75 C 274.86 232.46 274.15 226.36 273.00 218.00
C 280.65 215.93 286.95 210.94 294.00 206.00
C 308.43 215.65 314.88 228.38 330.25 239.61 C 345.62 250.84 352.42 265.26 348.00 288.00
C 353.33 288.00 358.67 288.00 364.00 288.00
M 283.00 180.00 
C 284.04 181.60 288.43 193.11 282.75 194.19 C 277.08 195.28 275.63 202.81 268.70 203.70 C 261.78 204.60 262.61 212.74 254.70 209.29 C 246.80 205.84 236.99 199.25 229.70 194.29 C 222.40 189.32 229.50 186.95 228.00 179.00
C 237.43 183.78 243.21 187.50 255.22 187.78 C 267.23 188.07 274.12 183.77 283.00 180.00 Z"/>
</g>
<g fill="None" fill-opacity="0.0" stroke="#000000" stroke-opacity="0.98" stroke-width="0.3"><path d="
M 162.00 148.00 
C 144.55 151.21 138.52 176.21 150.75 188.25 C 162.99 200.29 186.08 197.05 190.88 178.90 C 195.68 160.75 180.53 144.60 162.00 148.00 Z"/>
</g>
<g fill="None" fill-opacity="0.0" stroke="#000000" stroke-opacity="0.98" stroke-width="0.3"><path d="
M 338.00 148.00 
C 320.55 151.21 314.52 176.21 326.75 188.25 C 338.99 200.29 362.08 197.05 366.88 178.90 C 371.68 160.75 356.53 144.60 338.00 148.00 Z"/>
</g>
<g fill="None" fill-opacity="0.0" stroke="#000000" stroke-opacity="0.05" stroke-width="0.3"><path d="
M 283.00 180.00 
C 274.12 183.77 267.23 188.07 255.22 187.78 C 243.21 187.50 237.43 183.78 228.00 179.00
C 229.50 186.95 222.40 189.32 229.70 194.29 C 236.99 199.25 246.80 205.84 254.70 209.29 C 262.61 212.74 261.78 204.60 268.70 203.70 C 275.63 202.81 277.08 195.28 282.75 194.19 C 288.43 193.11 284.04 181.60 283.00 180.00 Z"/>
</g>
<g fill="None" fill-opacity="0.0" stroke="#000000" stroke-opacity="0.99" stroke-width="0.3"><path d="
M 137.00 196.00 
C 127.61 205.49 114.36 211.89 107.91 223.90 C 101.45 235.91 104.60 253.97 104.00 273.00 C 103.40 292.03 104.45 316.48 104.00 336.00
C 109.33 336.00 114.67 336.00 120.00 336.00
C 120.00 330.67 120.00 325.33 120.00 320.00
C 210.67 320.00 301.33 320.00 392.00 320.00
C 392.00 325.33 392.00 330.67 392.00 336.00
C 397.33 336.00 402.67 336.00 408.00 336.00
C 407.77 316.47 408.31 292.05 408.00 273.00 C 407.69 253.95 409.97 236.83 404.32 224.68 C 398.67 212.53 384.31 206.69 377.00 196.00
C 371.80 198.45 367.57 204.81 364.00 208.00
C 373.22 221.23 390.01 219.41 391.80 236.75 C 393.60 254.10 390.87 284.91 392.00 304.00
C 301.33 304.00 210.67 304.00 120.00 304.00
C 119.95 289.75 120.07 270.78 120.00 257.00 C 119.93 243.22 118.19 231.96 126.75 225.19 C 135.31 218.43 140.77 214.50 149.00 206.00
C 143.71 205.52 140.49 200.13 137.00 196.00 Z"/>
</g>
<g fill="None" fill-opacity="0.0" stroke="#000000" stroke-opacity="0.99" stroke-width="0.3"><path d="
M 200.00 260.00 
C 197.11 260.21 194.68 261.33 192.00 260.00
C 185.50 266.29 188.81 278.17 188.00 288.00
C 193.33 288.00 198.67 288.00 204.00 288.00
C 203.11 278.35 206.70 266.12 200.00 260.00 Z"/>
</g>
<g fill="None" fill-opacity="0.0" stroke="#000000" stroke-opacity="0.99" stroke-width="0.3"><path d="
M 320.00 260.00 
C 317.11 260.21 314.68 261.33 312.00 260.00
C 305.50 266.29 308.81 278.17 308.00 288.00
C 313.33 288.00 318.67 288.00 324.00 288.00
C 323.11 278.35 326.70 266.12 320.00 260.00 Z"/>
</g>
<g fill="None" fill-opacity="0.0" stroke="#000000" stroke-opacity="1.00" stroke-width="0.3"><path d="
M 50.00 512.00 
L 56.00 512.00
C 56.31 510.19 58.00 508.23 60.00 508.00
C 59.41 501.97 60.40 494.67 60.00 488.00
C 190.67 488.00 321.33 488.00 452.00 488.00
C 451.61 494.72 452.59 501.89 452.00 508.00
C 454.07 508.69 456.09 510.63 458.00 512.00
L 464.00 512.00
C 464.23 510.00 466.20 508.31 468.00 508.00
C 467.60 491.22 468.46 472.44 468.00 455.00 C 467.54 437.56 468.82 417.07 468.00 400.00 C 467.18 382.93 471.55 364.77 464.00 352.00
C 447.23 352.09 429.54 351.95 412.00 352.00 C 394.46 352.05 376.69 351.97 359.00 352.00 C 341.31 352.03 322.74 351.96 305.00 352.00 C 287.26 352.04 269.73 351.93 252.00 352.00 C 234.27 352.07 215.64 351.85 198.00 352.00 C 180.36 352.15 162.41 351.67 145.00 352.00 C 127.59 352.33 107.92 351.29 91.00 352.00 C 74.08 352.71 56.55 348.65 44.00 356.00
C 44.01 405.55 44.00 458.33 44.00 508.00
C 46.33 508.60 47.87 510.76 50.00 512.00
M 452.00 368.00 
C 452.00 376.00 452.00 384.00 452.00 392.00
C 321.33 392.00 190.67 392.00 60.00 392.00
C 60.00 384.00 60.00 376.00 60.00 368.00
C 190.67 368.00 321.33 368.00 452.00 368.00 Z"/>
</g>
<g fill="None" fill-opacity="0.0" stroke="#000000" stroke-opacity="0.00" stroke-width="0.3"><path d="
M 452.00 368.00 
C 321.33 368.00 190.67 368.00 60.00 368.00
C 60.00 376.00 60.00 384.00 60.00 392.00
C 190.67 392.00 321.33 392.00 452.00 392.00
C 452.00 384.00 452.00 376.00 452.00 368.00 Z"/>
</g>
<g fill="None" fill-opacity="0.0" stroke="#000000" stroke-opacity="0.00" stroke-width="0.3"><path d="
M 56.00 512.00 
L 458.00 512.00
C 456.09 510.63 454.07 508.69 452.00 508.00
C 452.59 501.89 451.61 494.72 452.00 488.00
C 321.33 488.00 190.67 488.00 60.00 488.00
C 60.40 494.67 59.41 501.97 60.00 508.00
C 58.00 508.23 56.31 510.19 56.00 512.00 Z"/>
</g>
<g fill="#000000" fill-opacity="0.00" stroke="None">
<path d="
M 0.00 512.00 
L 50.00 512.00
C 47.87 510.76 46.33 508.60 44.00 508.00
C 44.00 458.33 44.01 405.55 44.00 356.00
C 56.55 348.65 74.08 352.71 91.00 352.00 C 107.92 351.29 127.59 352.33 145.00 352.00 C 162.41 351.67 180.36 352.15 198.00 352.00 C 215.64 351.85 234.27 352.07 252.00 352.00 C 269.73 351.93 287.26 352.04 305.00 352.00 C 322.74 351.96 341.31 352.03 359.00 352.00 C 376.69 351.97 394.46 352.05 412.00 352.00 C 429.54 351.95 447.23 352.09 464.00 352.00
C 471.55 364.77 467.18 382.93 468.00 400.00 C 468.82 417.07 467.54 437.56 468.00 455.00 C 468.46 472.44 467.60 491.22 468.00 508.00
C 466.20 508.31 464.23 510.00 464.00 512.00
L 512.00 512.00
L 512.00 0.00
L 448.00 0.00
C 465.24 4.62 470.03 17.59 468.00 38.00 C 465.97 58.41 472.30 85.83 463.76 100.77 C 455.23 115.71 434.13 112.29 414.00 112.00 C 393.87 111.71 365.57 110.08 354.08 119.13 C 342.59 128.18 334.58 132.09 320.00 136.00
C 312.04 122.78 317.28 99.10 316.00 82.00 C 314.72 64.90 316.89 38.37 316.78 22.78 C 316.67 7.19 325.27 4.50 338.00 0.00
L 0.00 0.00
L 0.00 512.00
M 364.00 288.00 
C 358.67 288.00 353.33 288.00 348.00 288.00
C 352.42 265.26 345.62 250.84 330.25 239.61 C 314.88 228.38 308.43 215.65 294.00 206.00
C 286.95 210.94 280.65 215.93 273.00 218.00
C 274.15 226.36 274.86 232.46 277.39 240.75 C 279.93 249.05 279.48 256.42 282.40 265.75 C 285.32 275.08 277.07 282.51 270.00 288.00
C 260.67 288.00 251.33 288.00 242.00 288.00
C 234.83 283.08 226.70 274.49 229.76 265.75 C 232.81 257.01 231.60 250.31 234.19 241.75 C 236.79 233.20 237.99 226.62 239.00 218.00
C 232.35 217.25 226.10 209.57 219.32 207.68 C 212.54 205.79 206.74 217.70 200.75 221.75 C 194.76 225.80 187.65 233.53 182.25 238.59 C 176.85 243.64 168.50 249.40 165.42 255.77 C 162.35 262.14 164.93 278.46 164.00 288.00
C 158.67 288.00 153.33 288.00 148.00 288.00
C 147.40 271.45 147.07 256.03 153.71 245.70 C 160.34 235.38 170.92 227.96 179.92 218.92 C 188.92 209.88 201.53 202.02 208.19 191.75 C 214.85 181.49 212.18 159.98 212.21 144.77 C 212.25 129.56 211.71 110.70 216.71 101.70 C 221.71 92.69 229.22 82.93 238.77 79.42 C 248.32 75.92 264.34 75.01 273.75 79.39 C 283.17 83.78 291.09 92.47 296.13 101.92 C 301.16 111.37 298.96 130.26 299.22 145.22 C 299.49 160.18 297.57 182.71 304.75 192.25 C 311.93 201.79 323.16 210.66 332.25 219.75 C 341.34 228.84 353.21 235.84 359.13 245.92 C 365.05 255.99 364.14 271.45 364.00 288.00
M 162.00 148.00 
C 180.53 144.60 195.68 160.75 190.88 178.90 C 186.08 197.05 162.99 200.29 150.75 188.25 C 138.52 176.21 144.55 151.21 162.00 148.00
M 338.00 148.00 
C 356.53 144.60 371.68 160.75 366.88 178.90 C 362.08 197.05 338.99 200.29 326.75 188.25 C 314.52 176.21 320.55 151.21 338.00 148.00
M 137.00 196.00 
C 140.49 200.13 143.71 205.52 149.00 206.00
C 140.77 214.50 135.31 218.43 126.75 225.19 C 118.19 231.96 119.93 243.22 120.00 257.00 C 120.07 270.78 119.95 289.75 120.00 304.00
C 210.67 304.00 301.33 304.00 392.00 304.00
C 390.87 284.91 393.60 254.10 391.80 236.75 C 390.01 219.41 373.22 221.23 364.00 208.00
C 367.57 204.81 371.80 198.45 377.00 196.00
C 384.31 206.69 398.67 212.53 404.32 224.68 C 409.97 236.83 407.69 253.95 408.00 273.00 C 408.31 292.05 407.77 316.47 408.00 336.00
C 402.67 336.00 397.33 336.00 392.00 336.00
C 392.00 330.67 392.00 325.33 392.00 320.00
C 301.33 320.00 210.67 320.00 120.00 320.00
C 120.00 325.33 120.00 330.67 120.00 336.00
C 114.67 336.00 109.33 336.00 104.00 336.00
C 104.45 316.48 103.40 292.03 104.00 273.00 C 104.60 253.97 101.45 235.91 107.91 223.90 C 114.36 211.89 127.61 205.49 137.00 196.00
M 200.00 260.00 
C 206.70 266.12 203.11 278.35 204.00 288.00
C 198.67 288.00 193.33 288.00 188.00 288.00
C 188.81 278.17 185.50 266.29 192.00 260.00
C 194.68 261.33 197.11 260.21 200.00 260.00
M 320.00 260.00 
C 326.70 266.12 323.11 278.35 324.00 288.00
C 318.67 288.00 313.33 288.00 308.00 288.00
C 308.81 278.17 305.50 266.29 312.00 260.00
C 314.68 261.33 317.11 260.21 320.00 260.00 Z"/>
</g>
<g fill="#000000" fill-opacity="1.00" stroke="None">
<path d="
M 448.00 0.00 
L 338.00 0.00
C 325.27 4.50 316.67 7.19 316.78 22.78 C 316.89 38.37 314.72 64.90 316.00 82.00 C 317.28 99.10 312.04 122.78 320.00 136.00
C 334.58 132.09 342.59 128.18 354.08 119.13 C 365.57 110.08 393.87 111.71 414.00 112.00 C 434.13 112.29 455.23 115.71 463.76 100.77 C 472.30 85.83 465.97 58.41 468.00 38.00 C 470.03 17.59 465.24 4.62 448.00 0.00 Z"/>
</g>
<g fill="#000000" fill-opacity="0.99" stroke="None">
<path d="
M 364.00 288.00 
C 364.14 271.45 365.05 255.99 359.13 245.92 C 353.21 235.84 341.34 228.84 332.25 219.75 C 323.16 210.66 311.93 201.79 304.75 192.25 C 297.57 182.71 299.49 160.18 299.22 145.22 C 298.96 130.26 301.16 111.37 296.13 101.92 C 291.09 92.47 283.17 83.78 273.75 79.39 C 264.34 75.01 248.32 75.92 238.77 79.42 C 229.22 82.93 221.71 92.69 216.71 101.70 C 211.71 110.70 212.25 129.56 212.21 144.77 C 212.18 159.98 214.85 181.49 208.19 191.75 C 201.53 202.02 188.92 209.88 179.92 218.92 C 170.92 227.96 160.34 235.38 153.71 245.70 C 147.07 256.03 147.40 271.45 148.00 288.00
C 153.33 288.00 158.67 288.00 164.00 288.00
C 164.93 278.46 162.35 262.14 165.42 255.77 C 168.50 249.40 176.85 243.64 182.25 238.59 C 187.65 233.53 194.76 225.80 200.75 221.75 C 206.74 217.70 212.54 205.79 219.32 207.68 C 226.10 209.57 232.35 217.25 239.00 218.00
C 237.99 226.62 236.79 233.20 234.19 241.75 C 231.60 250.31 232.81 257.01 229.76 265.75 C 226.70 274.49 234.83 283.08 242.00 288.00
C 251.33 288.00 260.67 288.00 270.00 288.00
C 277.07 282.51 285.32 275.08 282.40 265.75 C 279.48 256.42 279.93 249.05 277.39 240.75 C 274.86 232.46 274.15 226.36 273.00 218.00
C 280.65 215.93 286.95 210.94 294.00 206.00
C 308.43 215.65 314.88 228.38 330.25 239.61 C 345.62 250.84 352.42 265.26 348.00 288.00
C 353.33 288.00 358.67 288.00 364.00 288.00
M 283.00 180.00 
C 284.04 181.60 288.43 193.11 282.75 194.19 C 277.08 195.28 275.63 202.81 268.70 203.70 C 261.78 204.60 262.61 212.74 254.70 209.29 C 246.80 205.84 236.99 199.25 229.70 194.29 C 222.40 189.32 229.50 186.95 228.00 179.00
C 237.43 183.78 243.21 187.50 255.22 187.78 C 267.23 188.07 274.12 183.77 283.00 180.00 Z"/>
</g>
<g fill="#000000" fill-opacity="0.98" stroke="None">
<path d="
M 162.00 148.00 
C 144.55 151.21 138.52 176.21 150.75 188.25 C 162.99 200.29 186.08 197.05 190.88 178.90 C 195.68 160.75 180.53 144.60 162.00 148.00 Z"/>
</g>
<g fill="#000000" fill-opacity="0.98" stroke="None">
<path d="
M 338.00 148.00 
C 320.55 151.21 314.52 176.21 326.75 188.25 C 338.99 200.29 362.08 197.05 366.88 178.90 C 371.68 160.75 356.53 144.60 338.00 148.00 Z"/>
</g>
<g fill="#000000" fill-opacity="0.05" stroke="None">
<path d="
M 283.00 180.00 
C 274.12 183.77 267.23 188.07 255.22 187.78 C 243.21 187.50 237.43 183.78 228.00 179.00
C 229.50 186.95 222.40 189.32 229.70 194.29 C 236.99 199.25 246.80 205.84 254.70 209.29 C 262.61 212.74 261.78 204.60 268.70 203.70 C 275.63 202.81 277.08 195.28 282.75 194.19 C 288.43 193.11 284.04 181.60 283.00 180.00 Z"/>
</g>
<g fill="#000000" fill-opacity="0.99" stroke="None">
<path d="
M 137.00 196.00 
C 127.61 205.49 114.36 211.89 107.91 223.90 C 101.45 235.91 104.60 253.97 104.00 273.00 C 103.40 292.03 104.45 316.48 104.00 336.00
C 109.33 336.00 114.67 336.00 120.00 336.00
C 120.00 330.67 120.00 325.33 120.00 320.00
C 210.67 320.00 301.33 320.00 392.00 320.00
C 392.00 325.33 392.00 330.67 392.00 336.00
C 397.33 336.00 402.67 336.00 408.00 336.00
C 407.77 316.47 408.31 292.05 408.00 273.00 C 407.69 253.95 409.97 236.83 404.32 224.68 C 398.67 212.53 384.31 206.69 377.00 196.00
C 371.80 198.45 367.57 204.81 364.00 208.00
C 373.22 221.23 390.01 219.41 391.80 236.75 C 393.60 254.10 390.87 284.91 392.00 304.00
C 301.33 304.00 210.67 304.00 120.00 304.00
C 119.95 289.75 120.07 270.78 120.00 257.00 C 119.93 243.22 118.19 231.96 126.75 225.19 C 135.31 218.43 140.77 214.50 149.00 206.00
C 143.71 205.52 140.49 200.13 137.00 196.00 Z"/>
</g>
<g fill="#000000" fill-opacity="0.99" stroke="None">
<path d="
M 200.00 260.00 
C 197.11 260.21 194.68 261.33 192.00 260.00
C 185.50 266.29 188.81 278.17 188.00 288.00
C 193.33 288.00 198.67 288.00 204.00 288.00
C 203.11 278.35 206.70 266.12 200.00 260.00 Z"/>
</g>
<g fill="#000000" fill-opacity="0.99" stroke="None">
<path d="
M 320.00 260.00 
C 317.11 260.21 314.68 261.33 312.00 260.00
C 305.50 266.29 308.81 278.17 308.00 288.00
C 313.33 288.00 318.67 288.00 324.00 288.00
C 323.11 278.35 326.70 266.12 320.00 260.00 Z"/>
</g>
<g fill="#000000" fill-opacity="1.00" stroke="None">
<path d="
M 50.00 512.00 
L 56.00 512.00
C 56.31 510.19 58.00 508.23 60.00 508.00
C 59.41 501.97 60.40 494.67 60.00 488.00
C 190.67 488.00 321.33 488.00 452.00 488.00
C 451.61 494.72 452.59 501.89 452.00 508.00
C 454.07 508.69 456.09 510.63 458.00 512.00
L 464.00 512.00
C 464.23 510.00 466.20 508.31 468.00 508.00
C 467.60 491.22 468.46 472.44 468.00 455.00 C 467.54 437.56 468.82 417.07 468.00 400.00 C 467.18 382.93 471.55 364.77 464.00 352.00
C 447.23 352.09 429.54 351.95 412.00 352.00 C 394.46 352.05 376.69 351.97 359.00 352.00 C 341.31 352.03 322.74 351.96 305.00 352.00 C 287.26 352.04 269.73 351.93 252.00 352.00 C 234.27 352.07 215.64 351.85 198.00 352.00 C 180.36 352.15 162.41 351.67 145.00 352.00 C 127.59 352.33 107.92 351.29 91.00 352.00 C 74.08 352.71 56.55 348.65 44.00 356.00
C 44.01 405.55 44.00 458.33 44.00 508.00
C 46.33 508.60 47.87 510.76 50.00 512.00
M 452.00 368.00 
C 452.00 376.00 452.00 384.00 452.00 392.00
C 321.33 392.00 190.67 392.00 60.00 392.00
C 60.00 384.00 60.00 376.00 60.00 368.00
C 190.67 368.00 321.33 368.00 452.00 368.00 Z"/>
</g>
<g fill="#000000" fill-opacity="0.00" stroke="None">
<path d="
M 452.00 368.00 
C 321.33 368.00 190.67 368.00 60.00 368.00
C 60.00 376.00 60.00 384.00 60.00 392.00
C 190.67 392.00 321.33 392.00 452.00 392.00
C 452.00 384.00 452.00 376.00 452.00 368.00 Z"/>
</g>
<g fill="#000000" fill-opacity="0.00" stroke="None">
<path d="
M 56.00 512.00 
L 458.00 512.00
C 456.09 510.63 454.07 508.69 452.00 508.00
C 452.59 501.89 451.61 494.72 452.00 488.00
C 321.33 488.00 190.67 488.00 60.00 488.00
C 60.40 494.67 59.41 501.97 60.00 508.00
C 58.00 508.23 56.31 510.19 56.00 512.00 Z"/>
</g>
</svg>