<svg xmlns="http://www.w3.org/2000/svg" xmlns:v="https://svgstorm.com"
viewBox = "0 0 512 512"
width="512"
height="512">
<g fill="None" fill-opacity="0.0" stroke="#000000" stroke-opacity="0.02" stroke-width="0.3"><path d="
M 0.00 43.00 
C 5.48 20.34 26.12 27.54 51.00 27.00 C 75.88 26.46 106.02 27.21 132.00 27.00 C 157.98 26.79 186.61 27.03 213.00 27.00 C 239.39 26.97 267.60 26.86 294.00 27.00 C 320.40 27.14 348.99 26.60 375.00 27.00 C 401.01 27.40 431.04 26.08 456.00 27.00 C 480.96 27.92 504.57 19.68 512.00 41.00
L 512.00 0.00
L 0.00 0.00
L 0.00 43.00 Z"/>
</g>
<g fill="None" fill-opacity="0.0" stroke="#000000" stroke-opacity="1.00" stroke-width="0.3"><path d="
M 0.00 43.00 
L 0.00 99.00
C 3.21 119.46 21.81 137.08 44.22 136.22 C 66.64 135.35 83.42 117.79 85.00 97.00
C 88.58 118.89 105.47 136.18 127.23 136.77 C 149.00 137.36 167.48 119.66 170.00 99.00
C 175.37 117.89 189.14 136.39 212.23 136.77 C 235.32 137.15 255.67 117.79 256.00 94.00
C 256.34 117.74 276.72 136.90 299.68 136.66 C 322.64 136.42 339.31 117.30 341.00 97.00
C 344.43 120.14 362.73 136.57 385.23 136.21 C 407.73 135.85 423.45 118.29 427.00 97.00
C 429.26 118.57 443.71 133.22 465.75 135.40 C 487.79 137.57 508.38 121.68 512.00 100.00
L 512.00 41.00
C 504.57 19.68 480.96 27.92 456.00 27.00 C 431.04 26.08 401.01 27.40 375.00 27.00 C 348.99 26.60 320.40 27.14 294.00 27.00 C 267.60 26.86 239.39 26.97 213.00 27.00 C 186.61 27.03 157.98 26.79 132.00 27.00 C 106.02 27.21 75.88 26.46 51.00 27.00 C 26.12 27.54 5.48 20.34 0.00 43.00 Z"/>
</g>
<g fill="None" fill-opacity="0.0" stroke="#000000" stroke-opacity="0.00" stroke-width="0.3"><path d="
M 0.00 99.00 
L 0.00 135.00
C 21.60 159.23 64.07 158.70 85.00 136.00
C 93.85 142.07 98.52 146.96 108.00 149.00
C 104.46 169.54 97.36 184.76 90.00 201.00
C 60.50 203.33 29.92 201.34 0.00 202.00
L 0.00 231.00
C 30.67 231.00 61.33 231.00 92.00 231.00
C 95.53 241.71 102.09 249.71 105.71 260.30 C 109.33 270.89 113.65 283.87 116.60 294.75 C 119.55 305.64 121.79 313.96 124.71 326.30 C 127.62 338.63 127.17 349.11 129.20 362.25 C 131.22 375.39 131.97 385.38 133.00 401.00 C 134.03 416.62 133.56 442.18 132.35 457.70 C 131.14 473.22 129.00 486.78 109.00 486.00 C 89.00 485.22 59.11 486.30 39.00 486.00 C 18.89 485.70 4.07 488.31 1.00 470.00
C 0.98 469.90 0.00 470.00 0.00 470.00
L 0.00 512.00
L 512.00 512.00
L 512.00 473.00
C 505.89 486.81 495.43 484.99 478.00 485.00 C 460.57 485.01 435.06 484.14 418.00 485.00 C 400.94 485.86 385.84 486.55 381.79 472.77 C 377.73 458.99 379.74 445.24 378.99 429.99 C 378.25 414.74 379.52 397.72 380.39 385.25 C 381.27 372.77 381.44 365.14 383.20 353.75 C 384.96 342.36 386.30 333.53 388.20 322.75 C 390.10 311.97 394.56 300.73 396.80 289.75 C 399.04 278.78 404.49 269.98 407.71 260.70 C 410.94 251.41 414.83 243.46 420.00 231.00
C 450.67 231.00 481.33 231.00 512.00 231.00
L 512.00 201.00
C 482.14 200.98 451.14 201.03 422.00 201.00
C 415.15 185.36 407.84 169.54 404.00 149.00
C 412.61 146.55 418.54 143.48 426.00 136.00
C 441.86 146.48 448.52 152.80 467.08 153.07 C 485.63 153.34 499.89 148.10 512.00 135.00
L 512.00 100.00
C 508.38 121.68 487.79 137.57 465.75 135.40 C 443.71 133.22 429.26 118.57 427.00 97.00
C 423.45 118.29 407.73 135.85 385.23 136.21 C 362.73 136.57 344.43 120.14 341.00 97.00
C 339.31 117.30 322.64 136.42 299.68 136.66 C 276.72 136.90 256.34 117.74 256.00 94.00
C 255.67 117.79 235.32 137.15 212.23 136.77 C 189.14 136.39 175.37 117.89 170.00 99.00
C 167.48 119.66 149.00 137.36 127.23 136.77 C 105.47 136.18 88.58 118.89 85.00 97.00
C 83.42 117.79 66.64 135.35 44.22 136.22 C 21.81 137.08 3.21 119.46 0.00 99.00 Z"/>
</g>
<g fill="None" fill-opacity="0.0" stroke="#000000" stroke-opacity="0.99" stroke-width="0.3"><path d="
M 0.00 136.00 
C 1.66 156.60 1.67 180.47 0.00 201.00
L 0.00 202.00
C 29.92 201.34 60.50 203.33 90.00 201.00
C 97.36 184.76 104.46 169.54 108.00 149.00
C 98.52 146.96 93.85 142.07 85.00 136.00
C 64.07 158.70 21.60 159.23 0.00 135.00
L 0.00 136.00 Z"/>
</g>
<g fill="None" fill-opacity="0.0" stroke="#000000" stroke-opacity="0.99" stroke-width="0.3"><path d="
M 512.00 201.00 
L 512.00 135.00
C 499.89 148.10 485.63 153.34 467.08 153.07 C 448.52 152.80 441.86 146.48 426.00 136.00
C 418.54 143.48 412.61 146.55 404.00 149.00
C 407.84 169.54 415.15 185.36 422.00 201.00
C 451.14 201.03 482.14 200.98 512.00 201.00 Z"/>
</g>
<g fill="None" fill-opacity="0.0" stroke="#000000" stroke-opacity="0.88" stroke-width="0.3"><path d="
M 0.00 201.00 
C 1.67 180.47 1.66 156.60 0.00 136.00
L 0.00 201.00 Z"/>
</g>
<g fill="None" fill-opacity="0.0" stroke="#000000" stroke-opacity="0.99" stroke-width="0.3"><path d="
M 0.00 232.00 
C 4.72 310.31 -2.85 390.97 1.00 470.00
C 4.07 488.31 18.89 485.70 39.00 486.00 C 59.11 486.30 89.00 485.22 109.00 486.00 C 129.00 486.78 131.14 473.22 132.35 457.70 C 133.56 442.18 134.03 416.62 133.00 401.00 C 131.97 385.38 131.22 375.39 129.20 362.25 C 127.17 349.11 127.62 338.63 124.71 326.30 C 121.79 313.96 119.55 305.64 116.60 294.75 C 113.65 283.87 109.33 270.89 105.71 260.30 C 102.09 249.71 95.53 241.71 92.00 231.00
C 61.33 231.00 30.67 231.00 0.00 231.00
L 0.00 232.00 Z"/>
</g>
<g fill="None" fill-opacity="0.0" stroke="#000000" stroke-opacity="1.00" stroke-width="0.3"><path d="
M 512.00 473.00 
L 512.00 231.00
C 481.33 231.00 450.67 231.00 420.00 231.00
C 414.83 243.46 410.94 251.41 407.71 260.70 C 404.49 269.98 399.04 278.78 396.80 289.75 C 394.56 300.73 390.10 311.97 388.20 322.75 C 386.30 333.53 384.96 342.36 383.20 353.75 C 381.44 365.14 381.27 372.77 380.39 385.25 C 379.52 397.72 378.25 414.74 378.99 429.99 C 379.74 445.24 377.73 458.99 381.79 472.77 C 385.84 486.55 400.94 485.86 418.00 485.00 C 435.06 484.14 460.57 485.01 478.00 485.00 C 495.43 484.99 505.89 486.81 512.00 473.00 Z"/>
</g>
<g fill="None" fill-opacity="0.0" stroke="#000000" stroke-opacity="0.88" stroke-width="0.3"><path d="
M 0.00 470.00 
C 0.00 470.00 0.98 469.90 1.00 470.00
C -2.85 390.97 4.72 310.31 0.00 232.00
L 0.00 470.00 Z"/>
</g>
<g fill="#000000" fill-opacity="0.02" stroke="None">
<path d="
M 0.00 43.00 
C 5.48 20.34 26.12 27.54 51.00 27.00 C 75.88 26.46 106.02 27.21 132.00 27.00 C 157.98 26.79 186.61 27.03 213.00 27.00 C 239.39 26.97 267.60 26.86 294.00 27.00 C 320.40 27.14 348.99 26.60 375.00 27.00 C 401.01 27.40 431.04 26.08 456.00 27.00 C 480.96 27.92 504.57 19.68 512.00 41.00
L 512.00 0.00
L 0.00 0.00
L 0.00 43.00 Z"/>
</g>
<g fill="#000000" fill-opacity="1.00" stroke="None">
<path d="
M 0.00 43.00 
L 0.00 99.00
C 3.21 119.46 21.81 137.08 44.22 136.22 C 66.64 135.35 83.42 117.79 85.00 97.00
C 88.58 118.89 105.47 136.18 127.23 136.77 C 149.00 137.36 167.48 119.66 170.00 99.00
C 175.37 117.89 189.14 136.39 212.23 136.77 C 235.32 137.15 255.67 117.79 256.00 94.00
C 256.34 117.74 276.72 136.90 299.68 136.66 C 322.64 136.42 339.31 117.30 341.00 97.00
C 344.43 120.14 362.73 136.57 385.23 136.21 C 407.73 135.85 423.45 118.29 427.00 97.00
C 429.26 118.57 443.71 133.22 465.75 135.40 C 487.79 137.57 508.38 121.68 512.00 100.00
L 512.00 41.00
C 504.57 19.68 480.96 27.92 456.00 27.00 C 431.04 26.08 401.01 27.40 375.00 27.00 C 348.99 26.60 320.40 27.14 294.00 27.00 C 267.60 26.86 239.39 26.97 213.00 27.00 C 186.61 27.03 157.98 26.79 132.00 27.00 C 106.02 27.21 75.88 26.46 51.00 27.00 C 26.12 27.54 5.48 20.34 0.00 43.00 Z"/>
</g>
<g fill="#000000" fill-opacity="0.00" stroke="None">
<path d="
M 0.00 99.00 
L 0.00 135.00
C 21.60 159.23 64.07 158.70 85.00 136.00
C 93.85 142.07 98.52 146.96 108.00 149.00
C 104.46 169.54 97.36 184.76 90.00 201.00
C 60.50 203.33 29.92 201.34 0.00 202.00
L 0.00 231.00
C 30.67 231.00 61.33 231.00 92.00 231.00
C 95.53 241.71 102.09 249.71 105.71 260.30 C 109.33 270.89 113.65 283.87 116.60 294.75 C 119.55 305.64 121.79 313.96 124.71 326.30 C 127.62 338.63 127.17 349.11 129.20 362.25 C 131.22 375.39 131.97 385.38 133.00 401.00 C 134.03 416.62 133.56 442.18 132.35 457.70 C 131.14 473.22 129.00 486.78 109.00 486.00 C 89.00 485.22 59.11 486.30 39.00 486.00 C 18.89 485.70 4.07 488.31 1.00 470.00
C 0.98 469.90 0.00 470.00 0.00 470.00
L 0.00 512.00
L 512.00 512.00
L 512.00 473.00
C 505.89 486.81 495.43 484.99 478.00 485.00 C 460.57 485.01 435.06 484.14 418.00 485.00 C 400.94 485.86 385.84 486.55 381.79 472.77 C 377.73 458.99 379.74 445.24 378.99 429.99 C 378.25 414.74 379.52 397.72 380.39 385.25 C 381.27 372.77 381.44 365.14 383.20 353.75 C 384.96 342.36 386.30 333.53 388.20 322.75 C 390.10 311.97 394.56 300.73 396.80 289.75 C 399.04 278.78 404.49 269.98 407.71 260.70 C 410.94 251.41 414.83 243.46 420.00 231.00
C 450.67 231.00 481.33 231.00 512.00 231.00
L 512.00 201.00
C 482.14 200.98 451.14 201.03 422.00 201.00
C 415.15 185.36 407.84 169.54 404.00 149.00
C 412.61 146.55 418.54 143.48 426.00 136.00
C 441.86 146.48 448.52 152.80 467.08 153.07 C 485.63 153.34 499.89 148.10 512.00 135.00
L 512.00 100.00
C 508.38 121.68 487.79 137.57 465.75 135.40 C 443.71 133.22 429.26 118.57 427.00 97.00
C 423.45 118.29 407.73 135.85 385.23 136.21 C 362.73 136.57 344.43 120.14 341.00 97.00
C 339.31 117.30 322.64 136.42 299.68 136.66 C 276.72 136.90 256.34 117.74 256.00 94.00
C 255.67 117.79 235.32 137.15 212.23 136.77 C 189.14 136.39 175.37 117.89 170.00 99.00
C 167.48 119.66 149.00 137.36 127.23 136.77 C 105.47 136.18 88.58 118.89 85.00 97.00
C 83.42 117.79 66.64 135.35 44.22 136.22 C 21.81 137.08 3.21 119.46 0.00 99.00 Z"/>
</g>
<g fill="#000000" fill-opacity="0.99" stroke="None">
<path d="
M 0.00 136.00 
C 1.66 156.60 1.67 180.47 0.00 201.00
L 0.00 202.00
C 29.92 201.34 60.50 203.33 90.00 201.00
C 97.36 184.76 104.46 169.54 108.00 149.00
C 98.52 146.96 93.85 142.07 85.00 136.00
C 64.07 158.70 21.60 159.23 0.00 135.00
L 0.00 136.00 Z"/>
</g>
<g fill="#000000" fill-opacity="0.99" stroke="None">
<path d="
M 512.00 201.00 
L 512.00 135.00
C 499.89 148.10 485.63 153.34 467.08 153.07 C 448.52 152.80 441.86 146.48 426.00 136.00
C 418.54 143.48 412.61 146.55 404.00 149.00
C 407.84 169.54 415.15 185.36 422.00 201.00
C 451.14 201.03 482.14 200.98 512.00 201.00 Z"/>
</g>
<g fill="#000000" fill-opacity="0.88" stroke="None">
<path d="
M 0.00 201.00 
C 1.67 180.47 1.66 156.60 0.00 136.00
L 0.00 201.00 Z"/>
</g>
<g fill="#000000" fill-opacity="0.99" stroke="None">
<path d="
M 0.00 232.00 
C 4.72 310.31 -2.85 390.97 1.00 470.00
C 4.07 488.31 18.89 485.70 39.00 486.00 C 59.11 486.30 89.00 485.22 109.00 486.00 C 129.00 486.78 131.14 473.22 132.35 457.70 C 133.56 442.18 134.03 416.62 133.00 401.00 C 131.97 385.38 131.22 375.39 129.20 362.25 C 127.17 349.11 127.62 338.63 124.71 326.30 C 121.79 313.96 119.55 305.64 116.60 294.75 C 113.65 283.87 109.33 270.89 105.71 260.30 C 102.09 249.71 95.53 241.71 92.00 231.00
C 61.33 231.00 30.67 231.00 0.00 231.00
L 0.00 232.00 Z"/>
</g>
<g fill="#000000" fill-opacity="1.00" stroke="None">
<path d="
M 512.00 473.00 
L 512.00 231.00
C 481.33 231.00 450.67 231.00 420.00 231.00
C 414.83 243.46 410.94 251.41 407.71 260.70 C 404.49 269.98 399.04 278.78 396.80 289.75 C 394.56 300.73 390.10 311.97 388.20 322.75 C 386.30 333.53 384.96 342.36 383.20 353.75 C 381.44 365.14 381.27 372.77 380.39 385.25 C 379.52 397.72 378.25 414.74 378.99 429.99 C 379.74 445.24 377.73 458.99 381.79 472.77 C 385.84 486.55 400.94 485.86 418.00 485.00 C 435.06 484.14 460.57 485.01 478.00 485.00 C 495.43 484.99 505.89 486.81 512.00 473.00 Z"/>
</g>
<g fill="#000000" fill-opacity="0.88" stroke="None">
<path d="
M 0.00 470.00 
C 0.00 470.00 0.98 469.90 1.00 470.00
C -2.85 390.97 4.72 310.31 0.00 232.00
L 0.00 470.00 Z"/>
</g>
</svg>