<svg xmlns="http://www.w3.org/2000/svg" xmlns:v="https://svgstorm.com"
viewBox = "0 0 512 512"
width="512"
height="512">
<g fill="None" fill-opacity="0.0" stroke="#000000" stroke-opacity="0.01" stroke-width="0.3"><path d="
M 0.00 78.00 
C 1.24 75.87 3.40 74.33 4.00 72.00
C 20.40 72.17 38.81 71.88 56.00 72.00
C 56.00 77.33 56.00 82.67 56.00 88.00
C 46.33 88.00 36.67 88.00 27.00 88.00
C 43.67 106.17 62.38 122.88 79.00 141.00
C 92.02 130.47 105.50 117.00 116.00 104.00
C 118.68 105.33 121.11 104.21 124.00 104.00
C 142.25 123.11 162.48 143.30 182.00 162.00
C 178.48 166.32 174.30 170.56 170.00 174.00
C 155.74 155.92 136.39 140.55 121.00 123.00
C 107.93 133.54 94.68 146.88 84.00 160.00
C 81.28 159.53 78.62 159.29 76.00 160.00
C 57.73 138.60 36.09 118.90 16.00 99.00
C 16.00 108.67 16.00 118.33 16.00 128.00
C 10.67 128.00 5.33 128.00 0.00 128.00
L 0.00 144.00
C 5.33 144.00 10.67 144.00 16.00 144.00
C 16.00 149.33 16.00 154.67 16.00 160.00
C 10.67 160.00 5.33 160.00 0.00 160.00
L 0.00 176.00
C 5.33 176.00 10.67 176.00 16.00 176.00
C 16.00 229.33 16.00 282.67 16.00 336.00
C 21.33 336.00 26.67 336.00 32.00 336.00
C 31.97 300.16 32.04 263.02 32.00 228.00
C 42.44 219.89 62.36 225.88 76.00 224.00
C 83.81 238.18 78.95 258.56 80.00 277.00 C 81.05 295.44 79.21 317.25 80.00 336.00
C 85.33 336.00 90.67 336.00 96.00 336.00
C 95.98 284.16 96.02 231.02 96.00 180.00
C 106.44 171.89 126.36 177.88 140.00 176.00
C 147.58 189.11 143.17 207.58 144.00 225.00 C 144.83 242.42 143.57 262.03 144.00 280.00 C 144.43 297.97 143.68 317.86 144.00 336.00
C 162.67 336.00 181.33 336.00 200.00 336.00
C 200.00 341.33 200.00 346.67 200.00 352.00
C 134.81 352.01 68.47 351.99 4.00 352.00
C 2.34 349.50 1.17 347.52 0.00 345.00
L 0.00 512.00
L 134.00 512.00
C 131.87 510.76 130.34 508.60 128.00 508.00
C 128.47 493.63 128.99 476.35 129.93 463.92 C 130.88 451.49 133.13 440.92 134.39 429.25 C 135.65 417.57 139.43 407.73 140.80 396.75 C 142.17 385.77 145.77 375.69 158.75 374.61 C 171.73 373.52 179.23 369.59 191.25 368.20 C 203.27 366.81 212.08 362.55 224.00 362.00
C 225.55 351.48 224.07 343.50 217.75 339.81 C 211.43 336.13 206.79 328.43 202.91 324.08 C 199.04 319.73 198.36 315.84 196.60 310.25 C 194.84 304.67 191.52 301.87 192.40 294.25 C 193.27 286.63 183.67 288.10 179.25 284.74 C 174.82 281.37 169.87 276.26 168.29 270.70 C 166.70 265.13 169.19 250.49 168.00 244.00
C 171.19 242.59 172.16 240.01 176.00 240.00
C 175.18 208.96 179.36 189.40 196.10 171.10 C 212.83 152.79 232.77 143.45 258.00 144.00 C 283.23 144.55 299.99 153.94 317.23 171.77 C 334.48 189.59 335.29 209.63 336.00 240.00
C 339.63 239.57 340.77 242.76 344.00 244.00
C 343.27 251.11 344.69 263.79 343.93 270.08 C 343.18 276.38 337.22 279.37 333.25 283.39 C 329.28 287.42 320.09 286.11 319.35 292.69 C 318.62 299.28 319.23 304.60 316.65 309.70 C 314.07 314.79 313.36 318.71 309.81 323.25 C 306.25 327.78 300.99 336.51 294.75 339.75 C 288.52 342.99 285.92 351.30 288.00 362.00
C 300.21 363.20 310.05 366.28 322.00 368.00
C 319.16 338.52 320.91 316.55 339.11 295.11 C 357.30 273.67 373.70 260.92 400.25 257.80 C 426.79 254.68 454.68 259.27 473.75 275.59 C 492.83 291.91 508.87 314.09 512.00 339.00
L 512.00 0.00
L 399.00 0.00
C 432.19 5.04 458.69 27.44 463.19 62.25 C 467.70 97.06 445.94 129.83 416.00 141.00
C 416.43 150.47 415.54 162.50 416.00 172.00
C 405.60 180.20 385.60 174.09 372.00 176.00
C 364.63 168.14 369.23 151.91 368.00 141.00
C 339.00 130.20 315.09 96.60 320.40 61.25 C 325.70 25.90 353.86 3.74 388.00 0.00
L 0.00 0.00
L 0.00 78.00
M 294.00 27.00 
C 301.60 34.79 309.11 44.23 318.00 50.00
C 314.97 54.47 309.98 57.57 307.00 62.00
C 298.34 54.16 289.78 45.62 282.00 37.00
C 286.98 35.60 289.53 29.49 294.00 27.00
M 491.00 27.00 
C 494.24 30.52 497.49 35.47 502.00 37.00
C 494.66 45.83 485.29 53.22 478.00 62.00
C 473.68 58.48 469.44 54.30 466.00 50.00
C 475.39 44.38 482.14 33.75 491.00 27.00
M 192.00 40.00 
C 192.00 45.33 192.00 50.67 192.00 56.00
C 197.33 56.00 202.67 56.00 208.00 56.00
C 208.00 61.33 208.00 66.67 208.00 72.00
C 202.67 72.00 197.33 72.00 192.00 72.00
C 192.00 77.33 192.00 82.67 192.00 88.00
C 186.67 88.00 181.33 88.00 176.00 88.00
C 176.00 82.67 176.00 77.33 176.00 72.00
C 170.67 72.00 165.33 72.00 160.00 72.00
C 160.00 66.67 160.00 61.33 160.00 56.00
C 165.33 56.00 170.67 56.00 176.00 56.00
C 176.00 50.67 176.00 45.33 176.00 40.00
C 181.33 40.00 186.67 40.00 192.00 40.00
M 312.00 64.00 
C 312.00 69.33 312.00 74.67 312.00 80.00
C 301.33 80.00 290.67 80.00 280.00 80.00
C 280.00 74.67 280.00 69.33 280.00 64.00
C 290.67 64.00 301.33 64.00 312.00 64.00
M 504.00 64.00 
C 504.00 69.33 504.00 74.67 504.00 80.00
C 493.33 80.00 482.67 80.00 472.00 80.00
C 472.00 74.67 472.00 69.33 472.00 64.00
C 482.67 64.00 493.33 64.00 504.00 64.00
M 307.00 83.00 
C 310.24 86.52 313.49 91.47 318.00 93.00
C 310.66 101.83 301.29 109.22 294.00 118.00
C 289.68 114.48 285.44 110.30 282.00 106.00
C 291.39 100.38 298.14 89.75 307.00 83.00
M 478.00 83.00 
C 485.60 90.79 493.11 100.23 502.00 106.00
C 498.97 110.47 493.98 113.57 491.00 118.00
C 481.98 111.46 472.51 102.01 466.00 93.00
C 470.98 91.60 473.53 85.49 478.00 83.00
M 464.00 184.00 
C 464.00 189.33 464.00 194.67 464.00 200.00
C 469.33 200.00 474.67 200.00 480.00 200.00
C 480.00 205.33 480.00 210.67 480.00 216.00
C 474.67 216.00 469.33 216.00 464.00 216.00
C 464.00 221.33 464.00 226.67 464.00 232.00
C 458.67 232.00 453.33 232.00 448.00 232.00
C 448.00 226.67 448.00 221.33 448.00 216.00
C 442.67 216.00 437.33 216.00 432.00 216.00
C 432.00 210.67 432.00 205.33 432.00 200.00
C 437.33 200.00 442.67 200.00 448.00 200.00
C 448.00 194.67 448.00 189.33 448.00 184.00
C 453.33 184.00 458.67 184.00 464.00 184.00
M 80.00 400.00 
C 80.00 405.33 80.00 410.67 80.00 416.00
C 85.33 416.00 90.67 416.00 96.00 416.00
C 96.00 421.33 96.00 426.67 96.00 432.00
C 90.67 432.00 85.33 432.00 80.00 432.00
C 80.00 437.33 80.00 442.67 80.00 448.00
C 74.67 448.00 69.33 448.00 64.00 448.00
C 64.00 442.67 64.00 437.33 64.00 432.00
C 58.67 432.00 53.33 432.00 48.00 432.00
C 48.00 426.67 48.00 421.33 48.00 416.00
C 53.33 416.00 58.67 416.00 64.00 416.00
C 64.00 410.67 64.00 405.33 64.00 400.00
C 69.33 400.00 74.67 400.00 80.00 400.00 Z"/>
</g>
<g fill="None" fill-opacity="0.0" stroke="#000000" stroke-opacity="0.99" stroke-width="0.3"><path d="
M 399.00 0.00 
L 388.00 0.00
C 353.86 3.74 325.70 25.90 320.40 61.25 C 315.09 96.60 339.00 130.20 368.00 141.00
C 369.23 151.91 364.63 168.14 372.00 176.00
C 385.60 174.09 405.60 180.20 416.00 172.00
C 415.54 162.50 416.43 150.47 416.00 141.00
C 445.94 129.83 467.70 97.06 463.19 62.25 C 458.69 27.44 432.19 5.04 399.00 0.00
M 401.00 136.00 
C 398.67 120.91 400.66 103.85 400.00 88.00
C 406.60 86.51 420.32 91.81 423.30 83.30 C 426.28 74.80 422.52 64.88 424.00 56.00
C 418.67 56.00 413.33 56.00 408.00 56.00
C 408.00 61.33 408.00 66.67 408.00 72.00
C 397.33 72.00 386.67 72.00 376.00 72.00
C 376.00 66.67 376.00 61.33 376.00 56.00
C 370.67 56.00 365.33 56.00 360.00 56.00
C 361.36 64.94 357.84 74.69 360.78 83.22 C 363.71 91.75 377.29 86.57 384.00 88.00
C 383.33 103.83 385.33 120.99 383.00 136.00
C 369.68 119.38 346.11 113.79 339.22 90.78 C 332.33 67.76 338.27 41.98 358.25 27.25 C 378.22 12.51 405.00 12.23 425.23 26.77 C 445.46 41.31 451.67 66.84 445.07 90.07 C 438.47 113.30 414.90 119.46 401.00 136.00
M 400.00 152.00 
C 403.48 163.36 390.88 159.42 384.00 160.00
C 380.52 148.64 393.12 152.58 400.00 152.00 Z"/>
</g>
<g fill="None" fill-opacity="0.0" stroke="#FFFFFF" stroke-opacity="1.00" stroke-width="0.3"><path d="
M 401.00 136.00 
C 414.90 119.46 438.47 113.30 445.07 90.07 C 451.67 66.84 445.46 41.31 425.23 26.77 C 405.00 12.23 378.22 12.51 358.25 27.25 C 338.27 41.98 332.33 67.76 339.22 90.78 C 346.11 113.79 369.68 119.38 383.00 136.00
C 385.33 120.99 383.33 103.83 384.00 88.00
C 377.29 86.57 363.71 91.75 360.78 83.22 C 357.84 74.69 361.36 64.94 360.00 56.00
C 365.33 56.00 370.67 56.00 376.00 56.00
C 376.00 61.33 376.00 66.67 376.00 72.00
C 386.67 72.00 397.33 72.00 408.00 72.00
C 408.00 66.67 408.00 61.33 408.00 56.00
C 413.33 56.00 418.67 56.00 424.00 56.00
C 422.52 64.88 426.28 74.80 423.30 83.30 C 420.32 91.81 406.60 86.51 400.00 88.00
C 400.66 103.85 398.67 120.91 401.00 136.00 Z"/>
</g>
<g fill="None" fill-opacity="0.0" stroke="#000000" stroke-opacity="0.98" stroke-width="0.3"><path d="
M 294.00 27.00 
C 289.53 29.49 286.98 35.60 282.00 37.00
C 289.78 45.62 298.34 54.16 307.00 62.00
C 309.98 57.57 314.97 54.47 318.00 50.00
C 309.11 44.23 301.60 34.79 294.00 27.00 Z"/>
</g>
<g fill="None" fill-opacity="0.0" stroke="#000000" stroke-opacity="0.98" stroke-width="0.3"><path d="
M 491.00 27.00 
C 482.14 33.75 475.39 44.38 466.00 50.00
C 469.44 54.30 473.68 58.48 478.00 62.00
C 485.29 53.22 494.66 45.83 502.00 37.00
C 497.49 35.47 494.24 30.52 491.00 27.00 Z"/>
</g>
<g fill="None" fill-opacity="0.0" stroke="#000000" stroke-opacity="1.00" stroke-width="0.3"><path d="
M 192.00 40.00 
C 186.67 40.00 181.33 40.00 176.00 40.00
C 176.00 45.33 176.00 50.67 176.00 56.00
C 170.67 56.00 165.33 56.00 160.00 56.00
C 160.00 61.33 160.00 66.67 160.00 72.00
C 165.33 72.00 170.67 72.00 176.00 72.00
C 176.00 77.33 176.00 82.67 176.00 88.00
C 181.33 88.00 186.67 88.00 192.00 88.00
C 192.00 82.67 192.00 77.33 192.00 72.00
C 197.33 72.00 202.67 72.00 208.00 72.00
C 208.00 66.67 208.00 61.33 208.00 56.00
C 202.67 56.00 197.33 56.00 192.00 56.00
C 192.00 50.67 192.00 45.33 192.00 40.00 Z"/>
</g>
<g fill="None" fill-opacity="0.0" stroke="#000000" stroke-opacity="1.00" stroke-width="0.3"><path d="
M 312.00 64.00 
C 301.33 64.00 290.67 64.00 280.00 64.00
C 280.00 69.33 280.00 74.67 280.00 80.00
C 290.67 80.00 301.33 80.00 312.00 80.00
C 312.00 74.67 312.00 69.33 312.00 64.00 Z"/>
</g>
<g fill="None" fill-opacity="0.0" stroke="#000000" stroke-opacity="1.00" stroke-width="0.3"><path d="
M 504.00 64.00 
C 493.33 64.00 482.67 64.00 472.00 64.00
C 472.00 69.33 472.00 74.67 472.00 80.00
C 482.67 80.00 493.33 80.00 504.00 80.00
C 504.00 74.67 504.00 69.33 504.00 64.00 Z"/>
</g>
<g fill="None" fill-opacity="0.0" stroke="#000000" stroke-opacity="1.00" stroke-width="0.3"><path d="
M 0.00 78.00 
L 0.00 128.00
C 5.33 128.00 10.67 128.00 16.00 128.00
C 16.00 118.33 16.00 108.67 16.00 99.00
C 36.09 118.90 57.73 138.60 76.00 160.00
C 78.62 159.29 81.28 159.53 84.00 160.00
C 94.68 146.88 107.93 133.54 121.00 123.00
C 136.39 140.55 155.74 155.92 170.00 174.00
C 174.30 170.56 178.48 166.32 182.00 162.00
C 162.48 143.30 142.25 123.11 124.00 104.00
C 121.11 104.21 118.68 105.33 116.00 104.00
C 105.50 117.00 92.02 130.47 79.00 141.00
C 62.38 122.88 43.67 106.17 27.00 88.00
C 36.67 88.00 46.33 88.00 56.00 88.00
C 56.00 82.67 56.00 77.33 56.00 72.00
C 38.81 71.88 20.40 72.17 4.00 72.00
C 3.40 74.33 1.24 75.87 0.00 78.00 Z"/>
</g>
<g fill="None" fill-opacity="0.0" stroke="#000000" stroke-opacity="0.98" stroke-width="0.3"><path d="
M 307.00 83.00 
C 298.14 89.75 291.39 100.38 282.00 106.00
C 285.44 110.30 289.68 114.48 294.00 118.00
C 301.29 109.22 310.66 101.83 318.00 93.00
C 313.49 91.47 310.24 86.52 307.00 83.00 Z"/>
</g>
<g fill="None" fill-opacity="0.0" stroke="#000000" stroke-opacity="0.94" stroke-width="0.3"><path d="
M 478.00 83.00 
C 473.53 85.49 470.98 91.60 466.00 93.00
C 472.51 102.01 481.98 111.46 491.00 118.00
C 493.98 113.57 498.97 110.47 502.00 106.00
C 493.11 100.23 485.60 90.79 478.00 83.00 Z"/>
</g>
<g fill="None" fill-opacity="0.0" stroke="#000000" stroke-opacity="1.00" stroke-width="0.3"><path d="
M 0.00 160.00 
C 5.33 160.00 10.67 160.00 16.00 160.00
C 16.00 154.67 16.00 149.33 16.00 144.00
C 10.67 144.00 5.33 144.00 0.00 144.00
L 0.00 160.00 Z"/>
</g>
<g fill="None" fill-opacity="0.0" stroke="#000000" stroke-opacity="0.99" stroke-width="0.3"><path d="
M 134.00 512.00 
L 380.00 512.00
C 380.31 510.19 382.00 508.23 384.00 508.00
C 383.06 483.95 383.50 462.79 379.00 441.00
C 407.86 452.19 440.62 449.17 464.77 434.42 C 488.92 419.68 508.96 391.82 512.00 364.00
L 512.00 339.00
C 508.87 314.09 492.83 291.91 473.75 275.59 C 454.68 259.27 426.79 254.68 400.25 257.80 C 373.70 260.92 357.30 273.67 339.11 295.11 C 320.91 316.55 319.16 338.52 322.00 368.00
C 310.05 366.28 300.21 363.20 288.00 362.00
C 285.92 351.30 288.52 342.99 294.75 339.75 C 300.99 336.51 306.25 327.78 309.81 323.25 C 313.36 318.71 314.07 314.79 316.65 309.70 C 319.23 304.60 318.62 299.28 319.35 292.69 C 320.09 286.11 329.28 287.42 333.25 283.39 C 337.22 279.37 343.18 276.38 343.93 270.08 C 344.69 263.79 343.27 251.11 344.00 244.00
C 340.77 242.76 339.63 239.57 336.00 240.00
C 335.29 209.63 334.48 189.59 317.23 171.77 C 299.99 153.94 283.23 144.55 258.00 144.00 C 232.77 143.45 212.83 152.79 196.10 171.10 C 179.36 189.40 175.18 208.96 176.00 240.00
C 172.16 240.01 171.19 242.59 168.00 244.00
C 169.19 250.49 166.70 265.13 168.29 270.70 C 169.87 276.26 174.82 281.37 179.25 284.74 C 183.67 288.10 193.27 286.63 192.40 294.25 C 191.52 301.87 194.84 304.67 196.60 310.25 C 198.36 315.84 199.04 319.73 202.91 324.08 C 206.79 328.43 211.43 336.13 217.75 339.81 C 224.07 343.50 225.55 351.48 224.00 362.00
C 212.08 362.55 203.27 366.81 191.25 368.20 C 179.23 369.59 171.73 373.52 158.75 374.61 C 145.77 375.69 142.17 385.77 140.80 396.75 C 139.43 407.73 135.65 417.57 134.39 429.25 C 133.13 440.92 130.88 451.49 129.93 463.92 C 128.99 476.35 128.47 493.63 128.00 508.00
C 130.34 508.60 131.87 510.76 134.00 512.00
M 320.00 240.00 
C 309.62 239.12 296.12 239.85 286.00 239.00 C 275.88 238.15 264.63 237.29 255.78 234.22 C 246.93 231.16 237.50 232.29 232.25 222.75 C 227.00 213.22 215.51 215.09 215.22 227.22 C 214.94 239.35 200.60 240.13 192.00 240.00
C 185.60 200.00 215.08 160.00 256.00 160.00 C 296.93 160.01 326.35 200.00 320.00 240.00
M 304.00 256.00 
C 304.92 279.47 306.84 308.52 287.25 324.25 C 267.65 339.98 244.46 340.13 224.75 324.25 C 205.05 308.36 207.07 278.73 208.00 255.00
C 215.52 253.32 223.62 248.19 227.00 241.00
C 250.33 253.73 277.35 254.93 304.00 256.00
M 192.00 256.00 
C 192.00 261.33 192.00 266.67 192.00 272.00
C 184.06 271.40 183.24 262.57 184.00 256.00
C 186.67 256.00 189.33 256.00 192.00 256.00
M 328.00 256.00 
C 328.75 262.57 327.98 271.36 320.00 272.00
C 320.00 266.67 320.00 261.33 320.00 256.00
C 322.67 256.00 325.33 256.00 328.00 256.00
M 408.00 273.00 
C 405.70 293.75 411.07 318.67 408.00 339.00 C 404.93 359.33 421.44 367.93 433.25 380.75 C 445.06 393.57 456.16 401.66 466.00 415.00
C 457.45 420.75 449.23 425.40 439.32 428.32 C 429.41 431.24 413.21 434.04 403.00 431.00 C 392.79 427.96 379.04 427.99 376.00 417.00 C 372.97 406.01 371.28 395.22 368.07 383.93 C 364.86 372.63 348.86 374.52 339.00 372.00
C 324.56 327.28 361.29 275.02 408.00 273.00
M 495.00 344.00 
C 471.33 344.00 447.67 344.00 424.00 344.00
C 424.00 320.33 424.00 296.67 424.00 273.00
C 460.27 274.77 493.03 307.78 495.00 344.00
M 272.00 350.00 
C 276.17 363.77 265.02 371.23 257.00 380.00
C 246.96 373.46 236.18 363.60 240.00 350.00
C 250.18 352.75 261.80 352.75 272.00 350.00
M 495.00 360.00 
C 494.69 375.56 487.11 389.44 479.00 402.00
C 463.75 389.90 449.88 374.06 436.00 360.00
C 455.67 360.00 475.33 360.00 495.00 360.00
M 244.00 391.00 
C 243.86 393.33 241.39 395.94 239.00 396.00
C 238.11 390.86 220.43 382.92 225.11 378.11 C 229.80 373.29 239.86 389.05 244.00 391.00
M 273.00 396.00 
C 270.67 395.86 268.06 393.39 268.00 391.00
C 271.98 389.18 282.55 372.99 287.07 377.93 C 291.60 382.87 273.65 391.11 273.00 396.00
M 208.00 381.00 
C 210.22 411.25 220.98 439.43 235.00 466.00
C 224.81 464.43 215.12 460.98 205.00 459.00
C 208.46 451.24 213.10 450.60 215.92 441.92 C 218.75 433.25 206.27 432.50 201.92 428.08 C 197.58 423.65 200.44 408.93 200.00 402.00 C 199.56 395.07 196.82 379.30 208.00 381.00
M 307.00 459.00 
C 296.87 460.77 287.16 464.22 277.00 466.00
C 291.05 439.43 301.69 411.27 304.00 381.00
C 314.74 379.29 312.72 394.14 312.00 401.00 C 311.28 407.86 314.43 422.71 310.74 427.74 C 307.06 432.78 293.75 432.18 296.00 441.00 C 298.26 449.83 303.49 451.27 307.00 459.00
M 248.00 412.00 
C 247.33 426.50 249.33 442.32 247.00 456.00
C 240.40 441.04 232.70 426.29 230.00 410.00
C 234.55 415.84 242.78 418.55 248.00 412.00
M 282.00 410.00 
C 279.47 426.30 271.51 441.01 265.00 456.00
C 262.67 442.24 264.66 426.51 264.00 412.00
C 269.53 418.08 277.21 415.53 282.00 410.00 Z"/>
</g>
<g fill="None" fill-opacity="0.0" stroke="#FFFFFF" stroke-opacity="1.00" stroke-width="0.3"><path d="
M 400.00 152.00 
C 393.12 152.58 380.52 148.64 384.00 160.00
C 390.88 159.42 403.48 163.36 400.00 152.00 Z"/>
</g>
<g fill="None" fill-opacity="0.0" stroke="#FFFFFF" stroke-opacity="1.00" stroke-width="0.3"><path d="
M 320.00 240.00 
C 326.35 200.00 296.93 160.01 256.00 160.00 C 215.08 160.00 185.60 200.00 192.00 240.00
C 200.60 240.13 214.94 239.35 215.22 227.22 C 215.51 215.09 227.00 213.22 232.25 222.75 C 237.50 232.29 246.93 231.16 255.78 234.22 C 264.63 237.29 275.88 238.15 286.00 239.00 C 296.12 239.85 309.62 239.12 320.00 240.00 Z"/>
</g>
<g fill="None" fill-opacity="0.0" stroke="#000000" stroke-opacity="1.00" stroke-width="0.3"><path d="
M 0.00 345.00 
C 1.17 347.52 2.34 349.50 4.00 352.00
C 68.47 351.99 134.81 352.01 200.00 352.00
C 200.00 346.67 200.00 341.33 200.00 336.00
C 181.33 336.00 162.67 336.00 144.00 336.00
C 143.68 317.86 144.43 297.97 144.00 280.00 C 143.57 262.03 144.83 242.42 144.00 225.00 C 143.17 207.58 147.58 189.11 140.00 176.00
C 126.36 177.88 106.44 171.89 96.00 180.00
C 96.02 231.02 95.98 284.16 96.00 336.00
C 90.67 336.00 85.33 336.00 80.00 336.00
C 79.21 317.25 81.05 295.44 80.00 277.00 C 78.95 258.56 83.81 238.18 76.00 224.00
C 62.36 225.88 42.44 219.89 32.00 228.00
C 32.04 263.02 31.97 300.16 32.00 336.00
C 26.67 336.00 21.33 336.00 16.00 336.00
C 16.00 282.67 16.00 229.33 16.00 176.00
C 10.67 176.00 5.33 176.00 0.00 176.00
L 0.00 345.00
M 128.00 192.00 
C 128.00 240.00 128.00 288.00 128.00 336.00
C 122.67 336.00 117.33 336.00 112.00 336.00
C 112.00 288.00 112.00 240.00 112.00 192.00
C 117.33 192.00 122.67 192.00 128.00 192.00
M 64.00 240.00 
C 64.00 272.00 64.00 304.00 64.00 336.00
C 58.67 336.00 53.33 336.00 48.00 336.00
C 48.00 304.00 48.00 272.00 48.00 240.00
C 53.33 240.00 58.67 240.00 64.00 240.00 Z"/>
</g>
<g fill="None" fill-opacity="0.0" stroke="#000000" stroke-opacity="1.00" stroke-width="0.3"><path d="
M 464.00 184.00 
C 458.67 184.00 453.33 184.00 448.00 184.00
C 448.00 189.33 448.00 194.67 448.00 200.00
C 442.67 200.00 437.33 200.00 432.00 200.00
C 432.00 205.33 432.00 210.67 432.00 216.00
C 437.33 216.00 442.67 216.00 448.00 216.00
C 448.00 221.33 448.00 226.67 448.00 232.00
C 453.33 232.00 458.67 232.00 464.00 232.00
C 464.00 226.67 464.00 221.33 464.00 216.00
C 469.33 216.00 474.67 216.00 480.00 216.00
C 480.00 210.67 480.00 205.33 480.00 200.00
C 474.67 200.00 469.33 200.00 464.00 200.00
C 464.00 194.67 464.00 189.33 464.00 184.00 Z"/>
</g>
<g fill="None" fill-opacity="0.0" stroke="#FFFFFF" stroke-opacity="1.00" stroke-width="0.3"><path d="
M 128.00 192.00 
C 122.67 192.00 117.33 192.00 112.00 192.00
C 112.00 240.00 112.00 288.00 112.00 336.00
C 117.33 336.00 122.67 336.00 128.00 336.00
C 128.00 288.00 128.00 240.00 128.00 192.00 Z"/>
</g>
<g fill="None" fill-opacity="0.0" stroke="#FFFFFF" stroke-opacity="1.00" stroke-width="0.3"><path d="
M 64.00 240.00 
C 58.67 240.00 53.33 240.00 48.00 240.00
C 48.00 272.00 48.00 304.00 48.00 336.00
C 53.33 336.00 58.67 336.00 64.00 336.00
C 64.00 304.00 64.00 272.00 64.00 240.00 Z"/>
</g>
<g fill="None" fill-opacity="0.0" stroke="#FFFFFF" stroke-opacity="1.00" stroke-width="0.3"><path d="
M 304.00 256.00 
C 277.35 254.93 250.33 253.73 227.00 241.00
C 223.62 248.19 215.52 253.32 208.00 255.00
C 207.07 278.73 205.05 308.36 224.75 324.25 C 244.46 340.13 267.65 339.98 287.25 324.25 C 306.84 308.52 304.92 279.47 304.00 256.00
M 283.00 280.00 
C 292.93 283.01 287.13 302.25 280.70 308.70 C 274.26 315.14 261.63 322.56 250.78 319.22 C 239.93 315.88 233.34 313.14 227.23 301.77 C 221.12 290.40 225.40 275.91 241.00 280.00 C 256.60 284.09 268.23 275.52 283.00 280.00 Z"/>
</g>
<g fill="None" fill-opacity="0.0" stroke="#FFFFFF" stroke-opacity="1.00" stroke-width="0.3"><path d="
M 192.00 256.00 
C 189.33 256.00 186.67 256.00 184.00 256.00
C 183.24 262.57 184.06 271.40 192.00 272.00
C 192.00 266.67 192.00 261.33 192.00 256.00 Z"/>
</g>
<g fill="None" fill-opacity="0.0" stroke="#FFFFFF" stroke-opacity="1.00" stroke-width="0.3"><path d="
M 328.00 256.00 
C 325.33 256.00 322.67 256.00 320.00 256.00
C 320.00 261.33 320.00 266.67 320.00 272.00
C 327.98 271.36 328.75 262.57 328.00 256.00 Z"/>
</g>
<g fill="None" fill-opacity="0.0" stroke="#FFFFFF" stroke-opacity="1.00" stroke-width="0.3"><path d="
M 408.00 273.00 
C 361.29 275.02 324.56 327.28 339.00 372.00
C 348.86 374.52 364.86 372.63 368.07 383.93 C 371.28 395.22 372.97 406.01 376.00 417.00 C 379.04 427.99 392.79 427.96 403.00 431.00 C 413.21 434.04 429.41 431.24 439.32 428.32 C 449.23 425.40 457.45 420.75 466.00 415.00
C 456.16 401.66 445.06 393.57 433.25 380.75 C 421.44 367.93 404.93 359.33 408.00 339.00 C 411.07 318.67 405.70 293.75 408.00 273.00 Z"/>
</g>
<g fill="None" fill-opacity="0.0" stroke="#FFFFFF" stroke-opacity="1.00" stroke-width="0.3"><path d="
M 495.00 344.00 
C 493.03 307.78 460.27 274.77 424.00 273.00
C 424.00 296.67 424.00 320.33 424.00 344.00
C 447.67 344.00 471.33 344.00 495.00 344.00 Z"/>
</g>
<g fill="None" fill-opacity="0.0" stroke="#000000" stroke-opacity="1.00" stroke-width="0.3"><path d="
M 283.00 280.00 
C 268.23 275.52 256.60 284.09 241.00 280.00 C 225.40 275.91 221.12 290.40 227.23 301.77 C 233.34 313.14 239.93 315.88 250.78 319.22 C 261.63 322.56 274.26 315.14 280.70 308.70 C 287.13 302.25 292.93 283.01 283.00 280.00
M 269.00 296.00 
C 265.08 306.36 246.94 306.37 243.00 296.00
C 251.67 296.00 260.33 296.00 269.00 296.00 Z"/>
</g>
<g fill="None" fill-opacity="0.0" stroke="#FFFFFF" stroke-opacity="1.00" stroke-width="0.3"><path d="
M 269.00 296.00 
C 260.33 296.00 251.67 296.00 243.00 296.00
C 246.94 306.37 265.08 306.36 269.00 296.00 Z"/>
</g>
<g fill="None" fill-opacity="0.0" stroke="#FFFFFF" stroke-opacity="1.00" stroke-width="0.3"><path d="
M 272.00 350.00 
C 261.80 352.75 250.18 352.75 240.00 350.00
C 236.18 363.60 246.96 373.46 257.00 380.00
C 265.02 371.23 276.17 363.77 272.00 350.00 Z"/>
</g>
<g fill="None" fill-opacity="0.0" stroke="#FFFFFF" stroke-opacity="1.00" stroke-width="0.3"><path d="
M 495.00 360.00 
C 475.33 360.00 455.67 360.00 436.00 360.00
C 449.88 374.06 463.75 389.90 479.00 402.00
C 487.11 389.44 494.69 375.56 495.00 360.00 Z"/>
</g>
<g fill="None" fill-opacity="0.0" stroke="#000000" stroke-opacity="0.00" stroke-width="0.3"><path d="
M 380.00 512.00 
L 512.00 512.00
L 512.00 364.00
C 508.96 391.82 488.92 419.68 464.77 434.42 C 440.62 449.17 407.86 452.19 379.00 441.00
C 383.50 462.79 383.06 483.95 384.00 508.00
C 382.00 508.23 380.31 510.19 380.00 512.00 Z"/>
</g>
<g fill="None" fill-opacity="0.0" stroke="#FFFFFF" stroke-opacity="1.00" stroke-width="0.3"><path d="
M 244.00 391.00 
C 239.86 389.05 229.80 373.29 225.11 378.11 C 220.43 382.92 238.11 390.86 239.00 396.00
C 241.39 395.94 243.86 393.33 244.00 391.00 Z"/>
</g>
<g fill="None" fill-opacity="0.0" stroke="#FFFFFF" stroke-opacity="1.00" stroke-width="0.3"><path d="
M 273.00 396.00 
C 273.65 391.11 291.60 382.87 287.07 377.93 C 282.55 372.99 271.98 389.18 268.00 391.00
C 268.06 393.39 270.67 395.86 273.00 396.00 Z"/>
</g>
<g fill="None" fill-opacity="0.0" stroke="#FFFFFF" stroke-opacity="1.00" stroke-width="0.3"><path d="
M 208.00 381.00 
C 196.82 379.30 199.56 395.07 200.00 402.00 C 200.44 408.93 197.58 423.65 201.92 428.08 C 206.27 432.50 218.75 433.25 215.92 441.92 C 213.10 450.60 208.46 451.24 205.00 459.00
C 215.12 460.98 224.81 464.43 235.00 466.00
C 220.98 439.43 210.22 411.25 208.00 381.00 Z"/>
</g>
<g fill="None" fill-opacity="0.0" stroke="#FFFFFF" stroke-opacity="1.00" stroke-width="0.3"><path d="
M 307.00 459.00 
C 303.49 451.27 298.26 449.83 296.00 441.00 C 293.75 432.18 307.06 432.78 310.74 427.74 C 314.43 422.71 311.28 407.86 312.00 401.00 C 312.72 394.14 314.74 379.29 304.00 381.00
C 301.69 411.27 291.05 439.43 277.00 466.00
C 287.16 464.22 296.87 460.77 307.00 459.00 Z"/>
</g>
<g fill="None" fill-opacity="0.0" stroke="#000000" stroke-opacity="1.00" stroke-width="0.3"><path d="
M 80.00 400.00 
C 74.67 400.00 69.33 400.00 64.00 400.00
C 64.00 405.33 64.00 410.67 64.00 416.00
C 58.67 416.00 53.33 416.00 48.00 416.00
C 48.00 421.33 48.00 426.67 48.00 432.00
C 53.33 432.00 58.67 432.00 64.00 432.00
C 64.00 437.33 64.00 442.67 64.00 448.00
C 69.33 448.00 74.67 448.00 80.00 448.00
C 80.00 442.67 80.00 437.33 80.00 432.00
C 85.33 432.00 90.67 432.00 96.00 432.00
C 96.00 426.67 96.00 421.33 96.00 416.00
C 90.67 416.00 85.33 416.00 80.00 416.00
C 80.00 410.67 80.00 405.33 80.00 400.00 Z"/>
</g>
<g fill="None" fill-opacity="0.0" stroke="#FFFFFF" stroke-opacity="1.00" stroke-width="0.3"><path d="
M 248.00 412.00 
C 242.78 418.55 234.55 415.84 230.00 410.00
C 232.70 426.29 240.40 441.04 247.00 456.00
C 249.33 442.32 247.33 426.50 248.00 412.00 Z"/>
</g>
<g fill="None" fill-opacity="0.0" stroke="#FFFFFF" stroke-opacity="1.00" stroke-width="0.3"><path d="
M 282.00 410.00 
C 277.21 415.53 269.53 418.08 264.00 412.00
C 264.66 426.51 262.67 442.24 265.00 456.00
C 271.51 441.01 279.47 426.30 282.00 410.00 Z"/>
</g>
<g fill="#000000" fill-opacity="0.01" stroke="None">
<path d="
M 0.00 78.00 
C 1.24 75.87 3.40 74.33 4.00 72.00
C 20.40 72.17 38.81 71.88 56.00 72.00
C 56.00 77.33 56.00 82.67 56.00 88.00
C 46.33 88.00 36.67 88.00 27.00 88.00
C 43.67 106.17 62.38 122.88 79.00 141.00
C 92.02 130.47 105.50 117.00 116.00 104.00
C 118.68 105.33 121.11 104.21 124.00 104.00
C 142.25 123.11 162.48 143.30 182.00 162.00
C 178.48 166.32 174.30 170.56 170.00 174.00
C 155.74 155.92 136.39 140.55 121.00 123.00
C 107.93 133.54 94.68 146.88 84.00 160.00
C 81.28 159.53 78.62 159.29 76.00 160.00
C 57.73 138.60 36.09 118.90 16.00 99.00
C 16.00 108.67 16.00 118.33 16.00 128.00
C 10.67 128.00 5.33 128.00 0.00 128.00
L 0.00 144.00
C 5.33 144.00 10.67 144.00 16.00 144.00
C 16.00 149.33 16.00 154.67 16.00 160.00
C 10.67 160.00 5.33 160.00 0.00 160.00
L 0.00 176.00
C 5.33 176.00 10.67 176.00 16.00 176.00
C 16.00 229.33 16.00 282.67 16.00 336.00
C 21.33 336.00 26.67 336.00 32.00 336.00
C 31.97 300.16 32.04 263.02 32.00 228.00
C 42.44 219.89 62.36 225.88 76.00 224.00
C 83.81 238.18 78.95 258.56 80.00 277.00 C 81.05 295.44 79.21 317.25 80.00 336.00
C 85.33 336.00 90.67 336.00 96.00 336.00
C 95.98 284.16 96.02 231.02 96.00 180.00
C 106.44 171.89 126.36 177.88 140.00 176.00
C 147.58 189.11 143.17 207.58 144.00 225.00 C 144.83 242.42 143.57 262.03 144.00 280.00 C 144.43 297.97 143.68 317.86 144.00 336.00
C 162.67 336.00 181.33 336.00 200.00 336.00
C 200.00 341.33 200.00 346.67 200.00 352.00
C 134.81 352.01 68.47 351.99 4.00 352.00
C 2.34 349.50 1.17 347.52 0.00 345.00
L 0.00 512.00
L 134.00 512.00
C 131.87 510.76 130.34 508.60 128.00 508.00
C 128.47 493.63 128.99 476.35 129.93 463.92 C 130.88 451.49 133.13 440.92 134.39 429.25 C 135.65 417.57 139.43 407.73 140.80 396.75 C 142.17 385.77 145.77 375.69 158.75 374.61 C 171.73 373.52 179.23 369.59 191.25 368.20 C 203.27 366.81 212.08 362.55 224.00 362.00
C 225.55 351.48 224.07 343.50 217.75 339.81 C 211.43 336.13 206.79 328.43 202.91 324.08 C 199.04 319.73 198.36 315.84 196.60 310.25 C 194.84 304.67 191.52 301.87 192.40 294.25 C 193.27 286.63 183.67 288.10 179.25 284.74 C 174.82 281.37 169.87 276.26 168.29 270.70 C 166.70 265.13 169.19 250.49 168.00 244.00
C 171.19 242.59 172.16 240.01 176.00 240.00
C 175.18 208.96 179.36 189.40 196.10 171.10 C 212.83 152.79 232.77 143.45 258.00 144.00 C 283.23 144.55 299.99 153.94 317.23 171.77 C 334.48 189.59 335.29 209.63 336.00 240.00
C 339.63 239.57 340.77 242.76 344.00 244.00
C 343.27 251.11 344.69 263.79 343.93 270.08 C 343.18 276.38 337.22 279.37 333.25 283.39 C 329.28 287.42 320.09 286.11 319.35 292.69 C 318.62 299.28 319.23 304.60 316.65 309.70 C 314.07 314.79 313.36 318.71 309.81 323.25 C 306.25 327.78 300.99 336.51 294.75 339.75 C 288.52 342.99 285.92 351.30 288.00 362.00
C 300.21 363.20 310.05 366.28 322.00 368.00
C 319.16 338.52 320.91 316.55 339.11 295.11 C 357.30 273.67 373.70 260.92 400.25 257.80 C 426.79 254.68 454.68 259.27 473.75 275.59 C 492.83 291.91 508.87 314.09 512.00 339.00
L 512.00 0.00
L 399.00 0.00
C 432.19 5.04 458.69 27.44 463.19 62.25 C 467.70 97.06 445.94 129.83 416.00 141.00
C 416.43 150.47 415.54 162.50 416.00 172.00
C 405.60 180.20 385.60 174.09 372.00 176.00
C 364.63 168.14 369.23 151.91 368.00 141.00
C 339.00 130.20 315.09 96.60 320.40 61.25 C 325.70 25.90 353.86 3.74 388.00 0.00
L 0.00 0.00
L 0.00 78.00
M 294.00 27.00 
C 301.60 34.79 309.11 44.23 318.00 50.00
C 314.97 54.47 309.98 57.57 307.00 62.00
C 298.34 54.16 289.78 45.62 282.00 37.00
C 286.98 35.60 289.53 29.49 294.00 27.00
M 491.00 27.00 
C 494.24 30.52 497.49 35.47 502.00 37.00
C 494.66 45.83 485.29 53.22 478.00 62.00
C 473.68 58.48 469.44 54.30 466.00 50.00
C 475.39 44.38 482.14 33.75 491.00 27.00
M 192.00 40.00 
C 192.00 45.33 192.00 50.67 192.00 56.00
C 197.33 56.00 202.67 56.00 208.00 56.00
C 208.00 61.33 208.00 66.67 208.00 72.00
C 202.67 72.00 197.33 72.00 192.00 72.00
C 192.00 77.33 192.00 82.67 192.00 88.00
C 186.67 88.00 181.33 88.00 176.00 88.00
C 176.00 82.67 176.00 77.33 176.00 72.00
C 170.67 72.00 165.33 72.00 160.00 72.00
C 160.00 66.67 160.00 61.33 160.00 56.00
C 165.33 56.00 170.67 56.00 176.00 56.00
C 176.00 50.67 176.00 45.33 176.00 40.00
C 181.33 40.00 186.67 40.00 192.00 40.00
M 312.00 64.00 
C 312.00 69.33 312.00 74.67 312.00 80.00
C 301.33 80.00 290.67 80.00 280.00 80.00
C 280.00 74.67 280.00 69.33 280.00 64.00
C 290.67 64.00 301.33 64.00 312.00 64.00
M 504.00 64.00 
C 504.00 69.33 504.00 74.67 504.00 80.00
C 493.33 80.00 482.67 80.00 472.00 80.00
C 472.00 74.67 472.00 69.33 472.00 64.00
C 482.67 64.00 493.33 64.00 504.00 64.00
M 307.00 83.00 
C 310.24 86.52 313.49 91.47 318.00 93.00
C 310.66 101.83 301.29 109.22 294.00 118.00
C 289.68 114.48 285.44 110.30 282.00 106.00
C 291.39 100.38 298.14 89.75 307.00 83.00
M 478.00 83.00 
C 485.60 90.79 493.11 100.23 502.00 106.00
C 498.97 110.47 493.98 113.57 491.00 118.00
C 481.98 111.46 472.51 102.01 466.00 93.00
C 470.98 91.60 473.53 85.49 478.00 83.00
M 464.00 184.00 
C 464.00 189.33 464.00 194.67 464.00 200.00
C 469.33 200.00 474.67 200.00 480.00 200.00
C 480.00 205.33 480.00 210.67 480.00 216.00
C 474.67 216.00 469.33 216.00 464.00 216.00
C 464.00 221.33 464.00 226.67 464.00 232.00
C 458.67 232.00 453.33 232.00 448.00 232.00
C 448.00 226.67 448.00 221.33 448.00 216.00
C 442.67 216.00 437.33 216.00 432.00 216.00
C 432.00 210.67 432.00 205.33 432.00 200.00
C 437.33 200.00 442.67 200.00 448.00 200.00
C 448.00 194.67 448.00 189.33 448.00 184.00
C 453.33 184.00 458.67 184.00 464.00 184.00
M 80.00 400.00 
C 80.00 405.33 80.00 410.67 80.00 416.00
C 85.33 416.00 90.67 416.00 96.00 416.00
C 96.00 421.33 96.00 426.67 96.00 432.00
C 90.67 432.00 85.33 432.00 80.00 432.00
C 80.00 437.33 80.00 442.67 80.00 448.00
C 74.67 448.00 69.33 448.00 64.00 448.00
C 64.00 442.67 64.00 437.33 64.00 432.00
C 58.67 432.00 53.33 432.00 48.00 432.00
C 48.00 426.67 48.00 421.33 48.00 416.00
C 53.33 416.00 58.67 416.00 64.00 416.00
C 64.00 410.67 64.00 405.33 64.00 400.00
C 69.33 400.00 74.67 400.00 80.00 400.00 Z"/>
</g>
<g fill="#000000" fill-opacity="0.99" stroke="None">
<path d="
M 399.00 0.00 
L 388.00 0.00
C 353.86 3.74 325.70 25.90 320.40 61.25 C 315.09 96.60 339.00 130.20 368.00 141.00
C 369.23 151.91 364.63 168.14 372.00 176.00
C 385.60 174.09 405.60 180.20 416.00 172.00
C 415.54 162.50 416.43 150.47 416.00 141.00
C 445.94 129.83 467.70 97.06 463.19 62.25 C 458.69 27.44 432.19 5.04 399.00 0.00
M 401.00 136.00 
C 398.67 120.91 400.66 103.85 400.00 88.00
C 406.60 86.51 420.32 91.81 423.30 83.30 C 426.28 74.80 422.52 64.88 424.00 56.00
C 418.67 56.00 413.33 56.00 408.00 56.00
C 408.00 61.33 408.00 66.67 408.00 72.00
C 397.33 72.00 386.67 72.00 376.00 72.00
C 376.00 66.67 376.00 61.33 376.00 56.00
C 370.67 56.00 365.33 56.00 360.00 56.00
C 361.36 64.94 357.84 74.69 360.78 83.22 C 363.71 91.75 377.29 86.57 384.00 88.00
C 383.33 103.83 385.33 120.99 383.00 136.00
C 369.68 119.38 346.11 113.79 339.22 90.78 C 332.33 67.76 338.27 41.98 358.25 27.25 C 378.22 12.51 405.00 12.23 425.23 26.77 C 445.46 41.31 451.67 66.84 445.07 90.07 C 438.47 113.30 414.90 119.46 401.00 136.00
M 400.00 152.00 
C 403.48 163.36 390.88 159.42 384.00 160.00
C 380.52 148.64 393.12 152.58 400.00 152.00 Z"/>
</g>
<g fill="#FFFFFF" fill-opacity="1.00" stroke="None">
<path d="
M 401.00 136.00 
C 414.90 119.46 438.47 113.30 445.07 90.07 C 451.67 66.84 445.46 41.31 425.23 26.77 C 405.00 12.23 378.22 12.51 358.25 27.25 C 338.27 41.98 332.33 67.76 339.22 90.78 C 346.11 113.79 369.68 119.38 383.00 136.00
C 385.33 120.99 383.33 103.83 384.00 88.00
C 377.29 86.57 363.71 91.75 360.78 83.22 C 357.84 74.69 361.36 64.94 360.00 56.00
C 365.33 56.00 370.67 56.00 376.00 56.00
C 376.00 61.33 376.00 66.67 376.00 72.00
C 386.67 72.00 397.33 72.00 408.00 72.00
C 408.00 66.67 408.00 61.33 408.00 56.00
C 413.33 56.00 418.67 56.00 424.00 56.00
C 422.52 64.88 426.28 74.80 423.30 83.30 C 420.32 91.81 406.60 86.51 400.00 88.00
C 400.66 103.85 398.67 120.91 401.00 136.00 Z"/>
</g>
<g fill="#000000" fill-opacity="0.98" stroke="None">
<path d="
M 294.00 27.00 
C 289.53 29.49 286.98 35.60 282.00 37.00
C 289.78 45.62 298.34 54.16 307.00 62.00
C 309.98 57.57 314.97 54.47 318.00 50.00
C 309.11 44.23 301.60 34.79 294.00 27.00 Z"/>
</g>
<g fill="#000000" fill-opacity="0.98" stroke="None">
<path d="
M 491.00 27.00 
C 482.14 33.75 475.39 44.38 466.00 50.00
C 469.44 54.30 473.68 58.48 478.00 62.00
C 485.29 53.22 494.66 45.83 502.00 37.00
C 497.49 35.47 494.24 30.52 491.00 27.00 Z"/>
</g>
<g fill="#000000" fill-opacity="1.00" stroke="None">
<path d="
M 192.00 40.00 
C 186.67 40.00 181.33 40.00 176.00 40.00
C 176.00 45.33 176.00 50.67 176.00 56.00
C 170.67 56.00 165.33 56.00 160.00 56.00
C 160.00 61.33 160.00 66.67 160.00 72.00
C 165.33 72.00 170.67 72.00 176.00 72.00
C 176.00 77.33 176.00 82.67 176.00 88.00
C 181.33 88.00 186.67 88.00 192.00 88.00
C 192.00 82.67 192.00 77.33 192.00 72.00
C 197.33 72.00 202.67 72.00 208.00 72.00
C 208.00 66.67 208.00 61.33 208.00 56.00
C 202.67 56.00 197.33 56.00 192.00 56.00
C 192.00 50.67 192.00 45.33 192.00 40.00 Z"/>
</g>
<g fill="#000000" fill-opacity="1.00" stroke="None">
<path d="
M 312.00 64.00 
C 301.33 64.00 290.67 64.00 280.00 64.00
C 280.00 69.33 280.00 74.67 280.00 80.00
C 290.67 80.00 301.33 80.00 312.00 80.00
C 312.00 74.67 312.00 69.33 312.00 64.00 Z"/>
</g>
<g fill="#000000" fill-opacity="1.00" stroke="None">
<path d="
M 504.00 64.00 
C 493.33 64.00 482.67 64.00 472.00 64.00
C 472.00 69.33 472.00 74.67 472.00 80.00
C 482.67 80.00 493.33 80.00 504.00 80.00
C 504.00 74.67 504.00 69.33 504.00 64.00 Z"/>
</g>
<g fill="#000000" fill-opacity="1.00" stroke="None">
<path d="
M 0.00 78.00 
L 0.00 128.00
C 5.33 128.00 10.67 128.00 16.00 128.00
C 16.00 118.33 16.00 108.67 16.00 99.00
C 36.09 118.90 57.73 138.60 76.00 160.00
C 78.62 159.29 81.28 159.53 84.00 160.00
C 94.68 146.88 107.93 133.54 121.00 123.00
C 136.39 140.55 155.74 155.92 170.00 174.00
C 174.30 170.56 178.48 166.32 182.00 162.00
C 162.48 143.30 142.25 123.11 124.00 104.00
C 121.11 104.21 118.68 105.33 116.00 104.00
C 105.50 117.00 92.02 130.47 79.00 141.00
C 62.38 122.88 43.67 106.17 27.00 88.00
C 36.67 88.00 46.33 88.00 56.00 88.00
C 56.00 82.67 56.00 77.33 56.00 72.00
C 38.81 71.88 20.40 72.17 4.00 72.00
C 3.40 74.33 1.24 75.87 0.00 78.00 Z"/>
</g>
<g fill="#000000" fill-opacity="0.98" stroke="None">
<path d="
M 307.00 83.00 
C 298.14 89.75 291.39 100.38 282.00 106.00
C 285.44 110.30 289.68 114.48 294.00 118.00
C 301.29 109.22 310.66 101.83 318.00 93.00
C 313.49 91.47 310.24 86.52 307.00 83.00 Z"/>
</g>
<g fill="#000000" fill-opacity="0.94" stroke="None">
<path d="
M 478.00 83.00 
C 473.53 85.49 470.98 91.60 466.00 93.00
C 472.51 102.01 481.98 111.46 491.00 118.00
C 493.98 113.57 498.97 110.47 502.00 106.00
C 493.11 100.23 485.60 90.79 478.00 83.00 Z"/>
</g>
<g fill="#000000" fill-opacity="1.00" stroke="None">
<path d="
M 0.00 160.00 
C 5.33 160.00 10.67 160.00 16.00 160.00
C 16.00 154.67 16.00 149.33 16.00 144.00
C 10.67 144.00 5.33 144.00 0.00 144.00
L 0.00 160.00 Z"/>
</g>
<g fill="#000000" fill-opacity="0.99" stroke="None">
<path d="
M 134.00 512.00 
L 380.00 512.00
C 380.31 510.19 382.00 508.23 384.00 508.00
C 383.06 483.95 383.50 462.79 379.00 441.00
C 407.86 452.19 440.62 449.17 464.77 434.42 C 488.92 419.68 508.96 391.82 512.00 364.00
L 512.00 339.00
C 508.87 314.09 492.83 291.91 473.75 275.59 C 454.68 259.27 426.79 254.68 400.25 257.80 C 373.70 260.92 357.30 273.67 339.11 295.11 C 320.91 316.55 319.16 338.52 322.00 368.00
C 310.05 366.28 300.21 363.20 288.00 362.00
C 285.92 351.30 288.52 342.99 294.75 339.75 C 300.99 336.51 306.25 327.78 309.81 323.25 C 313.36 318.71 314.07 314.79 316.65 309.70 C 319.23 304.60 318.62 299.28 319.35 292.69 C 320.09 286.11 329.28 287.42 333.25 283.39 C 337.22 279.37 343.18 276.38 343.93 270.08 C 344.69 263.79 343.27 251.11 344.00 244.00
C 340.77 242.76 339.63 239.57 336.00 240.00
C 335.29 209.63 334.48 189.59 317.23 171.77 C 299.99 153.94 283.23 144.55 258.00 144.00 C 232.77 143.45 212.83 152.79 196.10 171.10 C 179.36 189.40 175.18 208.96 176.00 240.00
C 172.16 240.01 171.19 242.59 168.00 244.00
C 169.19 250.49 166.70 265.13 168.29 270.70 C 169.87 276.26 174.82 281.37 179.25 284.74 C 183.67 288.10 193.27 286.63 192.40 294.25 C 191.52 301.87 194.84 304.67 196.60 310.25 C 198.36 315.84 199.04 319.73 202.91 324.08 C 206.79 328.43 211.43 336.13 217.75 339.81 C 224.07 343.50 225.55 351.48 224.00 362.00
C 212.08 362.55 203.27 366.81 191.25 368.20 C 179.23 369.59 171.73 373.52 158.75 374.61 C 145.77 375.69 142.17 385.77 140.80 396.75 C 139.43 407.73 135.65 417.57 134.39 429.25 C 133.13 440.92 130.88 451.49 129.93 463.92 C 128.99 476.35 128.47 493.63 128.00 508.00
C 130.34 508.60 131.87 510.76 134.00 512.00
M 320.00 240.00 
C 309.62 239.12 296.12 239.85 286.00 239.00 C 275.88 238.15 264.63 237.29 255.78 234.22 C 246.93 231.16 237.50 232.29 232.25 222.75 C 227.00 213.22 215.51 215.09 215.22 227.22 C 214.94 239.35 200.60 240.13 192.00 240.00
C 185.60 200.00 215.08 160.00 256.00 160.00 C 296.93 160.01 326.35 200.00 320.00 240.00
M 304.00 256.00 
C 304.92 279.47 306.84 308.52 287.25 324.25 C 267.65 339.98 244.46 340.13 224.75 324.25 C 205.05 308.36 207.07 278.73 208.00 255.00
C 215.52 253.32 223.62 248.19 227.00 241.00
C 250.33 253.73 277.35 254.93 304.00 256.00
M 192.00 256.00 
C 192.00 261.33 192.00 266.67 192.00 272.00
C 184.06 271.40 183.24 262.57 184.00 256.00
C 186.67 256.00 189.33 256.00 192.00 256.00
M 328.00 256.00 
C 328.75 262.57 327.98 271.36 320.00 272.00
C 320.00 266.67 320.00 261.33 320.00 256.00
C 322.67 256.00 325.33 256.00 328.00 256.00
M 408.00 273.00 
C 405.70 293.75 411.07 318.67 408.00 339.00 C 404.93 359.33 421.44 367.93 433.25 380.75 C 445.06 393.57 456.16 401.66 466.00 415.00
C 457.45 420.75 449.23 425.40 439.32 428.32 C 429.41 431.24 413.21 434.04 403.00 431.00 C 392.79 427.96 379.04 427.99 376.00 417.00 C 372.97 406.01 371.28 395.22 368.07 383.93 C 364.86 372.63 348.86 374.52 339.00 372.00
C 324.56 327.28 361.29 275.02 408.00 273.00
M 495.00 344.00 
C 471.33 344.00 447.67 344.00 424.00 344.00
C 424.00 320.33 424.00 296.67 424.00 273.00
C 460.27 274.77 493.03 307.78 495.00 344.00
M 272.00 350.00 
C 276.17 363.77 265.02 371.23 257.00 380.00
C 246.96 373.46 236.18 363.60 240.00 350.00
C 250.18 352.75 261.80 352.75 272.00 350.00
M 495.00 360.00 
C 494.69 375.56 487.11 389.44 479.00 402.00
C 463.75 389.90 449.88 374.06 436.00 360.00
C 455.67 360.00 475.33 360.00 495.00 360.00
M 244.00 391.00 
C 243.86 393.33 241.39 395.94 239.00 396.00
C 238.11 390.86 220.43 382.92 225.11 378.11 C 229.80 373.29 239.86 389.05 244.00 391.00
M 273.00 396.00 
C 270.67 395.86 268.06 393.39 268.00 391.00
C 271.98 389.18 282.55 372.99 287.07 377.93 C 291.60 382.87 273.65 391.11 273.00 396.00
M 208.00 381.00 
C 210.22 411.25 220.98 439.43 235.00 466.00
C 224.81 464.43 215.12 460.98 205.00 459.00
C 208.46 451.24 213.10 450.60 215.92 441.92 C 218.75 433.25 206.27 432.50 201.92 428.08 C 197.58 423.65 200.44 408.93 200.00 402.00 C 199.56 395.07 196.82 379.30 208.00 381.00
M 307.00 459.00 
C 296.87 460.77 287.16 464.22 277.00 466.00
C 291.05 439.43 301.69 411.27 304.00 381.00
C 314.74 379.29 312.72 394.14 312.00 401.00 C 311.28 407.86 314.43 422.71 310.74 427.74 C 307.06 432.78 293.75 432.18 296.00 441.00 C 298.26 449.83 303.49 451.27 307.00 459.00
M 248.00 412.00 
C 247.33 426.50 249.33 442.32 247.00 456.00
C 240.40 441.04 232.70 426.29 230.00 410.00
C 234.55 415.84 242.78 418.55 248.00 412.00
M 282.00 410.00 
C 279.47 426.30 271.51 441.01 265.00 456.00
C 262.67 442.24 264.66 426.51 264.00 412.00
C 269.53 418.08 277.21 415.53 282.00 410.00 Z"/>
</g>
<g fill="#FFFFFF" fill-opacity="1.00" stroke="None">
<path d="
M 400.00 152.00 
C 393.12 152.58 380.52 148.64 384.00 160.00
C 390.88 159.42 403.48 163.36 400.00 152.00 Z"/>
</g>
<g fill="#FFFFFF" fill-opacity="1.00" stroke="None">
<path d="
M 320.00 240.00 
C 326.35 200.00 296.93 160.01 256.00 160.00 C 215.08 160.00 185.60 200.00 192.00 240.00
C 200.60 240.13 214.94 239.35 215.22 227.22 C 215.51 215.09 227.00 213.22 232.25 222.75 C 237.50 232.29 246.93 231.16 255.78 234.22 C 264.63 237.29 275.88 238.15 286.00 239.00 C 296.12 239.85 309.62 239.12 320.00 240.00 Z"/>
</g>
<g fill="#000000" fill-opacity="1.00" stroke="None">
<path d="
M 0.00 345.00 
C 1.17 347.52 2.34 349.50 4.00 352.00
C 68.47 351.99 134.81 352.01 200.00 352.00
C 200.00 346.67 200.00 341.33 200.00 336.00
C 181.33 336.00 162.67 336.00 144.00 336.00
C 143.68 317.86 144.43 297.97 144.00 280.00 C 143.57 262.03 144.83 242.42 144.00 225.00 C 143.17 207.58 147.58 189.11 140.00 176.00
C 126.36 177.88 106.44 171.89 96.00 180.00
C 96.02 231.02 95.98 284.16 96.00 336.00
C 90.67 336.00 85.33 336.00 80.00 336.00
C 79.21 317.25 81.05 295.44 80.00 277.00 C 78.95 258.56 83.81 238.18 76.00 224.00
C 62.36 225.88 42.44 219.89 32.00 228.00
C 32.04 263.02 31.97 300.16 32.00 336.00
C 26.67 336.00 21.33 336.00 16.00 336.00
C 16.00 282.67 16.00 229.33 16.00 176.00
C 10.67 176.00 5.33 176.00 0.00 176.00
L 0.00 345.00
M 128.00 192.00 
C 128.00 240.00 128.00 288.00 128.00 336.00
C 122.67 336.00 117.33 336.00 112.00 336.00
C 112.00 288.00 112.00 240.00 112.00 192.00
C 117.33 192.00 122.67 192.00 128.00 192.00
M 64.00 240.00 
C 64.00 272.00 64.00 304.00 64.00 336.00
C 58.67 336.00 53.33 336.00 48.00 336.00
C 48.00 304.00 48.00 272.00 48.00 240.00
C 53.33 240.00 58.67 240.00 64.00 240.00 Z"/>
</g>
<g fill="#000000" fill-opacity="1.00" stroke="None">
<path d="
M 464.00 184.00 
C 458.67 184.00 453.33 184.00 448.00 184.00
C 448.00 189.33 448.00 194.67 448.00 200.00
C 442.67 200.00 437.33 200.00 432.00 200.00
C 432.00 205.33 432.00 210.67 432.00 216.00
C 437.33 216.00 442.67 216.00 448.00 216.00
C 448.00 221.33 448.00 226.67 448.00 232.00
C 453.33 232.00 458.67 232.00 464.00 232.00
C 464.00 226.67 464.00 221.33 464.00 216.00
C 469.33 216.00 474.67 216.00 480.00 216.00
C 480.00 210.67 480.00 205.33 480.00 200.00
C 474.67 200.00 469.33 200.00 464.00 200.00
C 464.00 194.67 464.00 189.33 464.00 184.00 Z"/>
</g>
<g fill="#FFFFFF" fill-opacity="1.00" stroke="None">
<path d="
M 128.00 192.00 
C 122.67 192.00 117.33 192.00 112.00 192.00
C 112.00 240.00 112.00 288.00 112.00 336.00
C 117.33 336.00 122.67 336.00 128.00 336.00
C 128.00 288.00 128.00 240.00 128.00 192.00 Z"/>
</g>
<g fill="#FFFFFF" fill-opacity="1.00" stroke="None">
<path d="
M 64.00 240.00 
C 58.67 240.00 53.33 240.00 48.00 240.00
C 48.00 272.00 48.00 304.00 48.00 336.00
C 53.33 336.00 58.67 336.00 64.00 336.00
C 64.00 304.00 64.00 272.00 64.00 240.00 Z"/>
</g>
<g fill="#FFFFFF" fill-opacity="1.00" stroke="None">
<path d="
M 304.00 256.00 
C 277.35 254.93 250.33 253.73 227.00 241.00
C 223.62 248.19 215.52 253.32 208.00 255.00
C 207.07 278.73 205.05 308.36 224.75 324.25 C 244.46 340.13 267.65 339.98 287.25 324.25 C 306.84 308.52 304.92 279.47 304.00 256.00
M 283.00 280.00 
C 292.93 283.01 287.13 302.25 280.70 308.70 C 274.26 315.14 261.63 322.56 250.78 319.22 C 239.93 315.88 233.34 313.14 227.23 301.77 C 221.12 290.40 225.40 275.91 241.00 280.00 C 256.60 284.09 268.23 275.52 283.00 280.00 Z"/>
</g>
<g fill="#FFFFFF" fill-opacity="1.00" stroke="None">
<path d="
M 192.00 256.00 
C 189.33 256.00 186.67 256.00 184.00 256.00
C 183.24 262.57 184.06 271.40 192.00 272.00
C 192.00 266.67 192.00 261.33 192.00 256.00 Z"/>
</g>
<g fill="#FFFFFF" fill-opacity="1.00" stroke="None">
<path d="
M 328.00 256.00 
C 325.33 256.00 322.67 256.00 320.00 256.00
C 320.00 261.33 320.00 266.67 320.00 272.00
C 327.98 271.36 328.75 262.57 328.00 256.00 Z"/>
</g>
<g fill="#FFFFFF" fill-opacity="1.00" stroke="None">
<path d="
M 408.00 273.00 
C 361.29 275.02 324.56 327.28 339.00 372.00
C 348.86 374.52 364.86 372.63 368.07 383.93 C 371.28 395.22 372.97 406.01 376.00 417.00 C 379.04 427.99 392.79 427.96 403.00 431.00 C 413.21 434.04 429.41 431.24 439.32 428.32 C 449.23 425.40 457.45 420.75 466.00 415.00
C 456.16 401.66 445.06 393.57 433.25 380.75 C 421.44 367.93 404.93 359.33 408.00 339.00 C 411.07 318.67 405.70 293.75 408.00 273.00 Z"/>
</g>
<g fill="#FFFFFF" fill-opacity="1.00" stroke="None">
<path d="
M 495.00 344.00 
C 493.03 307.78 460.27 274.77 424.00 273.00
C 424.00 296.67 424.00 320.33 424.00 344.00
C 447.67 344.00 471.33 344.00 495.00 344.00 Z"/>
</g>
<g fill="#000000" fill-opacity="1.00" stroke="None">
<path d="
M 283.00 280.00 
C 268.23 275.52 256.60 284.09 241.00 280.00 C 225.40 275.91 221.12 290.40 227.23 301.77 C 233.34 313.14 239.93 315.88 250.78 319.22 C 261.63 322.56 274.26 315.14 280.70 308.70 C 287.13 302.25 292.93 283.01 283.00 280.00
M 269.00 296.00 
C 265.08 306.36 246.94 306.37 243.00 296.00
C 251.67 296.00 260.33 296.00 269.00 296.00 Z"/>
</g>
<g fill="#FFFFFF" fill-opacity="1.00" stroke="None">
<path d="
M 269.00 296.00 
C 260.33 296.00 251.67 296.00 243.00 296.00
C 246.94 306.37 265.08 306.36 269.00 296.00 Z"/>
</g>
<g fill="#FFFFFF" fill-opacity="1.00" stroke="None">
<path d="
M 272.00 350.00 
C 261.80 352.75 250.18 352.75 240.00 350.00
C 236.18 363.60 246.96 373.46 257.00 380.00
C 265.02 371.23 276.17 363.77 272.00 350.00 Z"/>
</g>
<g fill="#FFFFFF" fill-opacity="1.00" stroke="None">
<path d="
M 495.00 360.00 
C 475.33 360.00 455.67 360.00 436.00 360.00
C 449.88 374.06 463.75 389.90 479.00 402.00
C 487.11 389.44 494.69 375.56 495.00 360.00 Z"/>
</g>
<g fill="#000000" fill-opacity="0.00" stroke="None">
<path d="
M 380.00 512.00 
L 512.00 512.00
L 512.00 364.00
C 508.96 391.82 488.92 419.68 464.77 434.42 C 440.62 449.17 407.86 452.19 379.00 441.00
C 383.50 462.79 383.06 483.95 384.00 508.00
C 382.00 508.23 380.31 510.19 380.00 512.00 Z"/>
</g>
<g fill="#FFFFFF" fill-opacity="1.00" stroke="None">
<path d="
M 244.00 391.00 
C 239.86 389.05 229.80 373.29 225.11 378.11 C 220.43 382.92 238.11 390.86 239.00 396.00
C 241.39 395.94 243.86 393.33 244.00 391.00 Z"/>
</g>
<g fill="#FFFFFF" fill-opacity="1.00" stroke="None">
<path d="
M 273.00 396.00 
C 273.65 391.11 291.60 382.87 287.07 377.93 C 282.55 372.99 271.98 389.18 268.00 391.00
C 268.06 393.39 270.67 395.86 273.00 396.00 Z"/>
</g>
<g fill="#FFFFFF" fill-opacity="1.00" stroke="None">
<path d="
M 208.00 381.00 
C 196.82 379.30 199.56 395.07 200.00 402.00 C 200.44 408.93 197.58 423.65 201.92 428.08 C 206.27 432.50 218.75 433.25 215.92 441.92 C 213.10 450.60 208.46 451.24 205.00 459.00
C 215.12 460.98 224.81 464.43 235.00 466.00
C 220.98 439.43 210.22 411.25 208.00 381.00 Z"/>
</g>
<g fill="#FFFFFF" fill-opacity="1.00" stroke="None">
<path d="
M 307.00 459.00 
C 303.49 451.27 298.26 449.83 296.00 441.00 C 293.75 432.18 307.06 432.78 310.74 427.74 C 314.43 422.71 311.28 407.86 312.00 401.00 C 312.72 394.14 314.74 379.29 304.00 381.00
C 301.69 411.27 291.05 439.43 277.00 466.00
C 287.16 464.22 296.87 460.77 307.00 459.00 Z"/>
</g>
<g fill="#000000" fill-opacity="1.00" stroke="None">
<path d="
M 80.00 400.00 
C 74.67 400.00 69.33 400.00 64.00 400.00
C 64.00 405.33 64.00 410.67 64.00 416.00
C 58.67 416.00 53.33 416.00 48.00 416.00
C 48.00 421.33 48.00 426.67 48.00 432.00
C 53.33 432.00 58.67 432.00 64.00 432.00
C 64.00 437.33 64.00 442.67 64.00 448.00
C 69.33 448.00 74.67 448.00 80.00 448.00
C 80.00 442.67 80.00 437.33 80.00 432.00
C 85.33 432.00 90.67 432.00 96.00 432.00
C 96.00 426.67 96.00 421.33 96.00 416.00
C 90.67 416.00 85.33 416.00 80.00 416.00
C 80.00 410.67 80.00 405.33 80.00 400.00 Z"/>
</g>
<g fill="#FFFFFF" fill-opacity="1.00" stroke="None">
<path d="
M 248.00 412.00 
C 242.78 418.55 234.55 415.84 230.00 410.00
C 232.70 426.29 240.40 441.04 247.00 456.00
C 249.33 442.32 247.33 426.50 248.00 412.00 Z"/>
</g>
<g fill="#FFFFFF" fill-opacity="1.00" stroke="None">
<path d="
M 282.00 410.00 
C 277.21 415.53 269.53 418.08 264.00 412.00
C 264.66 426.51 262.67 442.24 265.00 456.00
C 271.51 441.01 279.47 426.30 282.00 410.00 Z"/>
</g>
</svg>