<svg xmlns="http://www.w3.org/2000/svg" xmlns:v="https://svgstorm.com"
viewBox = "0 0 512 512"
width="512"
height="512">
<g fill="None" fill-opacity="0.0" stroke="#000000" stroke-opacity="0.00" stroke-width="0.3"><path d="
M 0.00 512.00 
L 512.00 512.00
L 512.00 0.00
L 0.00 0.00
L 0.00 512.00
M 428.00 97.00 
C 430.67 93.12 443.27 98.60 443.92 105.08 C 444.58 111.55 445.41 122.98 445.00 131.00 C 444.59 139.02 445.20 149.46 445.00 158.00 C 444.80 166.54 445.13 176.24 445.00 185.00 C 444.87 193.76 445.16 203.18 445.00 212.00 C 444.84 220.82 445.28 230.25 445.00 239.00 C 444.72 247.75 446.04 257.13 444.00 265.00
C 447.13 268.36 450.13 272.49 454.00 275.00
C 458.78 278.09 466.29 284.78 470.30 290.70 C 474.31 296.62 467.73 299.16 466.00 303.00
C 464.98 305.26 466.00 312.77 466.00 316.00
C 468.01 313.16 482.41 313.62 482.77 320.23 C 483.13 326.84 482.88 335.31 483.00 343.00 C 483.12 350.69 472.30 351.00 466.00 350.00
C 466.09 353.65 463.23 356.40 463.00 360.00
C 476.08 367.41 469.65 375.52 461.75 383.75 C 453.85 391.98 444.83 395.46 437.00 384.00
C 435.06 386.00 431.85 386.79 429.00 387.00
C 433.06 402.32 423.79 403.84 412.00 404.00 C 400.21 404.16 389.54 402.22 395.00 388.00
C 392.06 387.72 384.83 385.72 382.00 387.00
C 378.77 388.46 375.78 396.37 370.00 392.00 C 364.22 387.62 357.02 379.66 354.00 375.00
C 351.73 371.49 348.08 368.63 345.00 366.00
C 320.24 368.33 293.51 366.33 268.00 367.00
C 268.00 371.33 268.00 375.67 268.00 380.00
C 280.28 379.49 292.23 385.95 296.00 397.00
C 300.76 400.76 309.84 404.46 311.92 411.08 C 314.00 417.71 319.26 430.81 308.97 431.97 C 298.69 433.14 289.27 431.39 279.00 432.00 C 268.73 432.61 258.32 431.47 248.00 432.00 C 237.68 432.53 228.47 431.20 218.00 432.00 C 207.53 432.80 198.94 430.39 188.00 432.00 C 177.06 433.61 171.37 426.04 176.00 415.00
C 170.98 415.00 165.36 414.65 161.00 415.00
C 153.19 389.10 180.29 374.09 207.00 380.00
C 206.36 375.83 208.29 370.34 206.00 367.00
C 201.69 370.05 192.60 365.70 187.00 367.00 C 181.40 368.30 173.13 366.41 167.00 367.00 C 160.87 367.59 153.32 366.71 147.00 367.00 C 140.68 367.29 134.39 366.86 128.00 367.00 C 121.61 367.14 114.38 366.91 108.00 367.00 C 101.62 367.09 94.17 366.90 88.00 367.00 C 81.83 367.10 74.69 366.81 69.00 367.00 C 63.31 367.19 55.15 367.28 50.93 365.07 C 46.70 362.87 42.39 354.79 45.00 351.00
C 28.73 352.23 29.18 337.20 30.00 322.00 C 30.82 306.80 29.57 286.22 30.00 270.00 C 30.43 253.78 29.68 234.50 30.00 218.00 C 30.32 201.50 29.58 182.23 30.00 166.00 C 30.42 149.77 29.21 128.14 30.00 113.00 C 30.79 97.86 24.78 83.57 39.75 81.40 C 54.72 79.22 73.56 81.72 90.00 81.00 C 106.44 80.28 125.05 81.33 142.00 81.00 C 158.95 80.67 176.79 81.17 194.00 81.00 C 211.21 80.83 229.73 81.13 247.00 81.00 C 264.27 80.87 281.83 81.17 299.00 81.00 C 316.17 80.83 334.05 81.32 351.00 81.00 C 367.95 80.68 386.52 81.68 403.00 81.00 C 419.48 80.32 428.53 81.45 428.00 97.00 Z"/>
</g>
<g fill="None" fill-opacity="0.0" stroke="#000000" stroke-opacity="1.00" stroke-width="0.3"><path d="
M 45.00 351.00 
C 97.97 347.00 153.24 351.92 207.00 350.00
C 206.46 355.61 208.16 361.82 206.00 367.00
C 208.29 370.34 206.36 375.83 207.00 380.00
C 180.29 374.09 153.19 389.10 161.00 415.00
C 165.36 414.65 170.98 415.00 176.00 415.00
C 188.11 415.00 198.74 414.76 211.00 415.00 C 223.26 415.24 234.33 414.37 247.00 415.00 C 259.67 415.63 268.31 413.52 282.00 415.00 C 295.69 416.48 300.88 411.29 296.00 397.00
C 292.23 385.95 280.28 379.49 268.00 380.00
C 262.34 380.23 256.66 379.82 251.00 380.00
C 251.00 370.00 251.00 360.00 251.00 350.00
C 280.00 350.00 309.00 350.00 338.00 350.00
C 334.57 356.40 339.75 362.59 345.00 366.00
C 348.08 368.63 351.73 371.49 354.00 375.00
C 359.94 378.11 365.61 371.29 369.00 367.00
C 381.96 367.34 376.74 379.54 382.00 387.00
C 384.83 385.72 392.06 387.72 395.00 388.00
C 407.09 389.17 415.49 384.65 412.00 371.00
C 415.81 370.16 419.16 367.84 423.00 367.00
C 430.06 379.88 437.73 374.73 445.75 366.75 C 453.78 358.78 458.68 351.06 446.00 344.00
C 447.79 336.43 449.79 331.30 459.00 333.00 C 468.21 334.70 465.93 321.36 466.00 316.00
C 466.00 312.77 464.98 305.26 466.00 303.00
C 461.79 295.85 443.97 304.29 446.00 290.00
C 450.57 286.43 456.76 281.13 454.00 275.00
C 450.13 272.49 447.13 268.36 444.00 265.00
C 439.95 260.66 434.21 254.80 428.00 260.00
C 428.00 205.67 428.00 151.33 428.00 97.00
C 428.53 81.45 419.48 80.32 403.00 81.00 C 386.52 81.68 367.95 80.68 351.00 81.00 C 334.05 81.32 316.17 80.83 299.00 81.00 C 281.83 81.17 264.27 80.87 247.00 81.00 C 229.73 81.13 211.21 80.83 194.00 81.00 C 176.79 81.17 158.95 80.67 142.00 81.00 C 125.05 81.33 106.44 80.28 90.00 81.00 C 73.56 81.72 54.72 79.22 39.75 81.40 C 24.78 83.57 30.79 97.86 30.00 113.00 C 29.21 128.14 30.42 149.77 30.00 166.00 C 29.58 182.23 30.32 201.50 30.00 218.00 C 29.68 234.50 30.43 253.78 30.00 270.00 C 29.57 286.22 30.82 306.80 30.00 322.00 C 29.18 337.20 28.73 352.23 45.00 351.00
M 420.00 265.00 
C 407.30 263.05 416.06 244.79 401.00 246.00 C 385.94 247.21 375.97 244.29 379.00 263.00
C 375.44 263.60 372.24 265.37 369.00 267.00
C 366.49 259.91 354.65 255.07 350.75 261.75 C 346.86 268.43 335.93 271.11 337.00 279.00 C 338.07 286.89 350.30 290.79 342.00 300.00
C 327.21 296.65 325.03 304.92 325.00 317.00 C 324.97 329.08 327.32 337.15 342.00 334.00
C 341.70 337.06 344.00 339.32 345.00 342.00
C 333.64 344.02 321.85 342.74 310.00 343.00 C 298.15 343.26 285.94 342.87 274.00 343.00 C 262.06 343.13 250.01 342.91 238.00 343.00 C 225.99 343.09 214.07 342.90 202.00 343.00 C 189.93 343.10 178.19 342.82 166.00 343.00 C 153.81 343.18 141.30 342.63 129.00 343.00 C 116.70 343.37 105.50 342.17 93.00 343.00 C 80.50 343.83 70.05 341.15 57.00 343.00 C 43.95 344.85 34.79 340.97 37.00 327.00 C 39.21 313.03 36.06 303.97 37.00 291.00 C 37.94 278.03 36.62 266.55 37.00 254.00 C 37.38 241.45 36.98 230.35 37.00 218.00 C 37.02 205.65 37.31 194.39 37.00 182.00 C 36.69 169.61 37.86 158.69 37.00 146.00 C 36.14 133.31 38.98 123.45 37.00 110.00 C 35.02 96.55 38.42 86.26 53.00 89.00 C 67.58 91.74 75.83 87.76 89.00 89.00 C 102.17 90.24 112.46 88.44 125.00 89.00 C 137.54 89.56 148.72 88.74 161.00 89.00 C 173.28 89.26 184.81 88.87 197.00 89.00 C 209.19 89.13 221.88 88.90 234.00 89.00 C 246.13 89.10 257.98 88.87 270.00 89.00 C 282.02 89.13 294.07 88.75 306.00 89.00 C 317.93 89.25 330.21 88.47 342.00 89.00 C 353.79 89.53 366.49 87.84 378.00 89.00 C 389.51 90.16 404.18 86.50 415.00 89.00 C 425.82 91.50 418.37 110.15 420.00 120.00 C 421.63 129.85 419.26 144.95 420.00 156.00 C 420.74 167.05 419.66 180.39 420.00 192.00 C 420.34 203.61 419.83 216.09 420.00 228.00 C 420.17 239.91 419.87 252.99 420.00 265.00
M 405.00 254.00 
C 398.98 270.83 425.67 282.34 433.00 266.00
C 434.21 268.88 450.45 274.65 445.22 280.22 C 439.98 285.79 436.63 289.97 440.92 298.08 C 445.22 306.19 447.79 310.52 459.00 308.00
C 459.00 314.00 459.00 320.00 459.00 326.00
C 442.33 319.53 430.26 346.34 446.00 354.00
C 444.28 359.33 437.81 362.18 435.00 367.00
C 425.65 352.99 399.21 361.43 405.00 380.00
C 399.00 380.00 393.00 380.00 387.00 380.00
C 392.66 362.95 365.50 351.29 358.00 368.00
C 353.19 364.64 349.77 359.31 345.00 356.00
C 358.82 346.93 351.62 320.44 333.00 326.00
C 333.00 320.00 333.00 314.00 333.00 308.00
C 349.73 313.67 360.72 286.48 345.00 279.00
C 348.36 274.19 353.69 270.77 357.00 266.00
C 365.45 281.61 392.01 271.64 387.00 254.00
C 393.00 254.00 399.00 254.00 405.00 254.00
M 243.00 350.00 
C 243.00 360.00 243.00 370.00 243.00 380.00
C 233.33 380.00 223.67 380.00 214.00 380.00
C 213.02 372.92 215.30 368.33 214.00 361.00 C 212.70 353.67 215.03 348.38 223.00 350.00 C 230.97 351.62 235.36 348.79 243.00 350.00
M 290.00 407.00 
C 249.33 407.00 208.67 407.00 168.00 407.00
C 171.25 379.77 208.61 388.00 229.00 388.00 C 249.39 388.00 286.46 379.76 290.00 407.00 Z"/>
</g>
<g fill="None" fill-opacity="0.0" stroke="#FFFFFF" stroke-opacity="1.00" stroke-width="0.3"><path d="
M 420.00 265.00 
C 419.87 252.99 420.17 239.91 420.00 228.00 C 419.83 216.09 420.34 203.61 420.00 192.00 C 419.66 180.39 420.74 167.05 420.00 156.00 C 419.26 144.95 421.63 129.85 420.00 120.00 C 418.37 110.15 425.82 91.50 415.00 89.00 C 404.18 86.50 389.51 90.16 378.00 89.00 C 366.49 87.84 353.79 89.53 342.00 89.00 C 330.21 88.47 317.93 89.25 306.00 89.00 C 294.07 88.75 282.02 89.13 270.00 89.00 C 257.98 88.87 246.13 89.10 234.00 89.00 C 221.88 88.90 209.19 89.13 197.00 89.00 C 184.81 88.87 173.28 89.26 161.00 89.00 C 148.72 88.74 137.54 89.56 125.00 89.00 C 112.46 88.44 102.17 90.24 89.00 89.00 C 75.83 87.76 67.58 91.74 53.00 89.00 C 38.42 86.26 35.02 96.55 37.00 110.00 C 38.98 123.45 36.14 133.31 37.00 146.00 C 37.86 158.69 36.69 169.61 37.00 182.00 C 37.31 194.39 37.02 205.65 37.00 218.00 C 36.98 230.35 37.38 241.45 37.00 254.00 C 36.62 266.55 37.94 278.03 37.00 291.00 C 36.06 303.97 39.21 313.03 37.00 327.00 C 34.79 340.97 43.95 344.85 57.00 343.00 C 70.05 341.15 80.50 343.83 93.00 343.00 C 105.50 342.17 116.70 343.37 129.00 343.00 C 141.30 342.63 153.81 343.18 166.00 343.00 C 178.19 342.82 189.93 343.10 202.00 343.00 C 214.07 342.90 225.99 343.09 238.00 343.00 C 250.01 342.91 262.06 343.13 274.00 343.00 C 285.94 342.87 298.15 343.26 310.00 343.00 C 321.85 342.74 333.64 344.02 345.00 342.00
C 344.00 339.32 341.70 337.06 342.00 334.00
C 327.32 337.15 324.97 329.08 325.00 317.00 C 325.03 304.92 327.21 296.65 342.00 300.00
C 350.30 290.79 338.07 286.89 337.00 279.00 C 335.93 271.11 346.86 268.43 350.75 261.75 C 354.65 255.07 366.49 259.91 369.00 267.00
C 372.24 265.37 375.44 263.60 379.00 263.00
C 375.97 244.29 385.94 247.21 401.00 246.00 C 416.06 244.79 407.30 263.05 420.00 265.00
M 202.00 140.00 
C 219.67 140.00 237.33 140.00 255.00 140.00
C 253.54 121.60 284.21 121.50 283.00 140.00
C 297.91 138.25 319.35 138.84 319.00 158.00 C 318.65 177.16 319.04 192.86 319.00 212.00 C 318.96 231.14 318.76 247.24 319.00 267.00 C 319.24 286.76 300.70 286.97 284.00 286.00 C 267.30 285.03 245.98 286.14 229.00 286.00 C 212.02 285.86 191.46 285.35 175.00 286.00 C 158.54 286.65 139.05 287.83 139.00 268.00 C 138.95 248.17 139.39 232.31 139.00 213.00 C 138.61 193.69 140.02 178.55 139.00 159.00 C 137.98 139.45 159.25 137.67 175.00 140.00
C 172.64 121.74 204.71 121.55 202.00 140.00 Z"/>
</g>
<g fill="None" fill-opacity="0.0" stroke="#FFFFFF" stroke-opacity="0.96" stroke-width="0.3"><path d="
M 428.00 97.00 
C 428.00 151.33 428.00 205.67 428.00 260.00
C 434.21 254.80 439.95 260.66 444.00 265.00
C 446.04 257.13 444.72 247.75 445.00 239.00 C 445.28 230.25 444.84 220.82 445.00 212.00 C 445.16 203.18 444.87 193.76 445.00 185.00 C 445.13 176.24 444.80 166.54 445.00 158.00 C 445.20 149.46 444.59 139.02 445.00 131.00 C 445.41 122.98 444.58 111.55 443.92 105.08 C 443.27 98.60 430.67 93.12 428.00 97.00 Z"/>
</g>
<g fill="None" fill-opacity="0.0" stroke="#000000" stroke-opacity="1.00" stroke-width="0.3"><path d="
M 202.00 140.00 
C 204.71 121.55 172.64 121.74 175.00 140.00
C 159.25 137.67 137.98 139.45 139.00 159.00 C 140.02 178.55 138.61 193.69 139.00 213.00 C 139.39 232.31 138.95 248.17 139.00 268.00 C 139.05 287.83 158.54 286.65 175.00 286.00 C 191.46 285.35 212.02 285.86 229.00 286.00 C 245.98 286.14 267.30 285.03 284.00 286.00 C 300.70 286.97 319.24 286.76 319.00 267.00 C 318.76 247.24 318.96 231.14 319.00 212.00 C 319.04 192.86 318.65 177.16 319.00 158.00 C 319.35 138.84 297.91 138.25 283.00 140.00
C 284.21 121.50 253.54 121.60 255.00 140.00
C 237.33 140.00 219.67 140.00 202.00 140.00
M 191.00 133.00 
C 200.03 135.26 196.27 166.75 186.33 162.67 C 176.39 158.59 180.45 130.36 191.00 133.00
M 271.00 133.00 
C 278.02 134.54 273.66 145.17 275.00 150.00 C 276.34 154.83 274.37 165.68 267.00 163.00 C 259.63 160.32 264.32 151.52 263.00 146.00 C 261.68 140.48 263.29 131.31 271.00 133.00
M 255.00 147.00 
C 253.21 157.23 256.70 171.00 269.02 170.98 C 281.35 170.95 284.76 157.23 283.00 147.00
C 290.73 148.64 302.91 143.60 308.75 150.25 C 314.59 156.90 309.03 168.94 311.00 177.00
C 301.61 176.69 294.63 177.41 285.00 177.00 C 275.37 176.59 269.52 177.78 259.00 177.00 C 248.48 176.22 248.35 186.39 259.00 185.00 C 269.65 183.61 275.30 185.73 285.00 185.00 C 294.70 184.27 301.56 185.54 311.00 185.00
C 311.79 198.73 309.95 210.02 311.00 224.00 C 312.05 237.98 308.99 248.13 311.00 263.00 C 313.01 277.87 301.27 280.42 288.00 279.00 C 274.73 277.58 262.16 279.43 249.00 279.00 C 235.84 278.57 222.05 278.78 209.00 279.00 C 195.95 279.22 182.86 277.92 170.00 279.00 C 157.14 280.08 144.68 278.70 146.00 264.00 C 147.32 249.30 145.33 238.97 146.00 225.00 C 146.67 211.03 145.50 198.81 146.00 185.00
C 154.99 185.64 161.79 184.15 171.00 185.00 C 180.21 185.85 185.99 183.37 196.00 185.00 C 206.01 186.63 207.10 176.66 197.00 177.00 C 186.90 177.34 181.26 176.82 172.00 177.00 C 162.74 177.18 156.03 176.87 147.00 177.00
C 150.03 168.59 142.52 160.00 147.32 152.32 C 152.12 144.65 159.82 147.68 169.00 147.00 C 178.18 146.32 172.10 159.42 177.75 165.25 C 183.40 171.07 188.03 171.79 196.25 168.25 C 204.46 164.70 199.19 154.75 202.00 149.00 C 204.81 143.25 220.37 148.43 227.00 147.00 C 233.63 145.57 247.69 148.07 255.00 147.00 Z"/>
</g>
<g fill="None" fill-opacity="0.0" stroke="#FFFFFF" stroke-opacity="1.00" stroke-width="0.3"><path d="
M 191.00 133.00 
C 180.45 130.36 176.39 158.59 186.33 162.67 C 196.27 166.75 200.03 135.26 191.00 133.00 Z"/>
</g>
<g fill="None" fill-opacity="0.0" stroke="#FFFFFF" stroke-opacity="1.00" stroke-width="0.3"><path d="
M 271.00 133.00 
C 263.29 131.31 261.68 140.48 263.00 146.00 C 264.32 151.52 259.63 160.32 267.00 163.00 C 274.37 165.68 276.34 154.83 275.00 150.00 C 273.66 145.17 278.02 134.54 271.00 133.00 Z"/>
</g>
<g fill="None" fill-opacity="0.0" stroke="#FFFFFF" stroke-opacity="1.00" stroke-width="0.3"><path d="
M 255.00 147.00 
C 247.69 148.07 233.63 145.57 227.00 147.00 C 220.37 148.43 204.81 143.25 202.00 149.00 C 199.19 154.75 204.46 164.70 196.25 168.25 C 188.03 171.79 183.40 171.07 177.75 165.25 C 172.10 159.42 178.18 146.32 169.00 147.00 C 159.82 147.68 152.12 144.65 147.32 152.32 C 142.52 160.00 150.03 168.59 147.00 177.00
C 156.03 176.87 162.74 177.18 172.00 177.00 C 181.26 176.82 186.90 177.34 197.00 177.00 C 207.10 176.66 206.01 186.63 196.00 185.00 C 185.99 183.37 180.21 185.85 171.00 185.00 C 161.79 184.15 154.99 185.64 146.00 185.00
C 145.50 198.81 146.67 211.03 146.00 225.00 C 145.33 238.97 147.32 249.30 146.00 264.00 C 144.68 278.70 157.14 280.08 170.00 279.00 C 182.86 277.92 195.95 279.22 209.00 279.00 C 222.05 278.78 235.84 278.57 249.00 279.00 C 262.16 279.43 274.73 277.58 288.00 279.00 C 301.27 280.42 313.01 277.87 311.00 263.00 C 308.99 248.13 312.05 237.98 311.00 224.00 C 309.95 210.02 311.79 198.73 311.00 185.00
C 301.56 185.54 294.70 184.27 285.00 185.00 C 275.30 185.73 269.65 183.61 259.00 185.00 C 248.35 186.39 248.48 176.22 259.00 177.00 C 269.52 177.78 275.37 176.59 285.00 177.00 C 294.63 177.41 301.61 176.69 311.00 177.00
C 309.03 168.94 314.59 156.90 308.75 150.25 C 302.91 143.60 290.73 148.64 283.00 147.00
C 284.76 157.23 281.35 170.95 269.02 170.98 C 256.70 171.00 253.21 157.23 255.00 147.00
M 239.00 177.00 
C 244.65 179.22 240.85 186.92 235.00 185.00 C 229.15 183.08 222.98 186.91 217.00 185.00 C 211.02 183.09 215.50 175.14 221.00 177.00 C 226.50 178.87 233.65 174.90 239.00 177.00 Z"/>
</g>
<g fill="None" fill-opacity="0.0" stroke="#000000" stroke-opacity="1.00" stroke-width="0.3"><path d="
M 239.00 177.00 
C 233.65 174.90 226.50 178.87 221.00 177.00 C 215.50 175.14 211.02 183.09 217.00 185.00 C 222.98 186.91 229.15 183.08 235.00 185.00 C 240.85 186.92 244.65 179.22 239.00 177.00 Z"/>
</g>
<g fill="None" fill-opacity="0.0" stroke="#FFFFFF" stroke-opacity="1.00" stroke-width="0.3"><path d="
M 405.00 254.00 
C 399.00 254.00 393.00 254.00 387.00 254.00
C 392.01 271.64 365.45 281.61 357.00 266.00
C 353.69 270.77 348.36 274.19 345.00 279.00
C 360.72 286.48 349.73 313.67 333.00 308.00
C 333.00 314.00 333.00 320.00 333.00 326.00
C 351.62 320.44 358.82 346.93 345.00 356.00
C 349.77 359.31 353.19 364.64 358.00 368.00
C 365.50 351.29 392.66 362.95 387.00 380.00
C 393.00 380.00 399.00 380.00 405.00 380.00
C 399.21 361.43 425.65 352.99 435.00 367.00
C 437.81 362.18 444.28 359.33 446.00 354.00
C 430.26 346.34 442.33 319.53 459.00 326.00
C 459.00 320.00 459.00 314.00 459.00 308.00
C 447.79 310.52 445.22 306.19 440.92 298.08 C 436.63 289.97 439.98 285.79 445.22 280.22 C 450.45 274.65 434.21 268.88 433.00 266.00
C 425.67 282.34 398.98 270.83 405.00 254.00
M 400.00 293.00 
C 429.45 297.78 421.93 345.48 391.93 340.07 C 361.93 334.66 368.93 287.95 400.00 293.00 Z"/>
</g>
<g fill="None" fill-opacity="0.0" stroke="#FFFFFF" stroke-opacity="0.93" stroke-width="0.3"><path d="
M 454.00 275.00 
C 456.76 281.13 450.57 286.43 446.00 290.00
C 443.97 304.29 461.79 295.85 466.00 303.00
C 467.73 299.16 474.31 296.62 470.30 290.70 C 466.29 284.78 458.78 278.09 454.00 275.00 Z"/>
</g>
<g fill="None" fill-opacity="0.0" stroke="#000000" stroke-opacity="1.00" stroke-width="0.3"><path d="
M 400.00 293.00 
C 368.93 287.95 361.93 334.66 391.93 340.07 C 421.93 345.48 429.45 297.78 400.00 293.00
M 400.00 301.00 
C 419.71 305.08 411.63 338.32 391.78 332.22 C 371.93 326.12 378.95 296.64 400.00 301.00 Z"/>
</g>
<g fill="None" fill-opacity="0.0" stroke="#FFFFFF" stroke-opacity="1.00" stroke-width="0.3"><path d="
M 400.00 301.00 
C 378.95 296.64 371.93 326.12 391.78 332.22 C 411.63 338.32 419.71 305.08 400.00 301.00 Z"/>
</g>
<g fill="None" fill-opacity="0.0" stroke="#FFFFFF" stroke-opacity="0.96" stroke-width="0.3"><path d="
M 466.00 316.00 
C 465.93 321.36 468.21 334.70 459.00 333.00 C 449.79 331.30 447.79 336.43 446.00 344.00
C 458.68 351.06 453.78 358.78 445.75 366.75 C 437.73 374.73 430.06 379.88 423.00 367.00
C 419.16 367.84 415.81 370.16 412.00 371.00
C 415.49 384.65 407.09 389.17 395.00 388.00
C 389.54 402.22 400.21 404.16 412.00 404.00 C 423.79 403.84 433.06 402.32 429.00 387.00
C 431.85 386.79 435.06 386.00 437.00 384.00
C 444.83 395.46 453.85 391.98 461.75 383.75 C 469.65 375.52 476.08 367.41 463.00 360.00
C 463.23 356.40 466.09 353.65 466.00 350.00
C 472.30 351.00 483.12 350.69 483.00 343.00 C 482.88 335.31 483.13 326.84 482.77 320.23 C 482.41 313.62 468.01 313.16 466.00 316.00 Z"/>
</g>
<g fill="None" fill-opacity="0.0" stroke="#FFFFFF" stroke-opacity="0.96" stroke-width="0.3"><path d="
M 45.00 351.00 
C 42.39 354.79 46.70 362.87 50.93 365.07 C 55.15 367.28 63.31 367.19 69.00 367.00 C 74.69 366.81 81.83 367.10 88.00 367.00 C 94.17 366.90 101.62 367.09 108.00 367.00 C 114.38 366.91 121.61 367.14 128.00 367.00 C 134.39 366.86 140.68 367.29 147.00 367.00 C 153.32 366.71 160.87 367.59 167.00 367.00 C 173.13 366.41 181.40 368.30 187.00 367.00 C 192.60 365.70 201.69 370.05 206.00 367.00
C 208.16 361.82 206.46 355.61 207.00 350.00
C 153.24 351.92 97.97 347.00 45.00 351.00 Z"/>
</g>
<g fill="None" fill-opacity="0.0" stroke="#FFFFFF" stroke-opacity="1.00" stroke-width="0.3"><path d="
M 243.00 350.00 
C 235.36 348.79 230.97 351.62 223.00 350.00 C 215.03 348.38 212.70 353.67 214.00 361.00 C 215.30 368.33 213.02 372.92 214.00 380.00
C 223.67 380.00 233.33 380.00 243.00 380.00
C 243.00 370.00 243.00 360.00 243.00 350.00 Z"/>
</g>
<g fill="None" fill-opacity="0.0" stroke="#FFFFFF" stroke-opacity="0.97" stroke-width="0.3"><path d="
M 268.00 380.00 
C 268.00 375.67 268.00 371.33 268.00 367.00
C 293.51 366.33 320.24 368.33 345.00 366.00
C 339.75 362.59 334.57 356.40 338.00 350.00
C 309.00 350.00 280.00 350.00 251.00 350.00
C 251.00 360.00 251.00 370.00 251.00 380.00
C 256.66 379.82 262.34 380.23 268.00 380.00 Z"/>
</g>
<g fill="None" fill-opacity="0.0" stroke="#FFFFFF" stroke-opacity="0.94" stroke-width="0.3"><path d="
M 354.00 375.00 
C 357.02 379.66 364.22 387.62 370.00 392.00 C 375.78 396.37 378.77 388.46 382.00 387.00
C 376.74 379.54 381.96 367.34 369.00 367.00
C 365.61 371.29 359.94 378.11 354.00 375.00 Z"/>
</g>
<g fill="None" fill-opacity="0.0" stroke="#FFFFFF" stroke-opacity="1.00" stroke-width="0.3"><path d="
M 290.00 407.00 
C 286.46 379.76 249.39 388.00 229.00 388.00 C 208.61 388.00 171.25 379.77 168.00 407.00
C 208.67 407.00 249.33 407.00 290.00 407.00 Z"/>
</g>
<g fill="None" fill-opacity="0.0" stroke="#FFFFFF" stroke-opacity="0.94" stroke-width="0.3"><path d="
M 176.00 415.00 
C 171.37 426.04 177.06 433.61 188.00 432.00 C 198.94 430.39 207.53 432.80 218.00 432.00 C 228.47 431.20 237.68 432.53 248.00 432.00 C 258.32 431.47 268.73 432.61 279.00 432.00 C 289.27 431.39 298.69 433.14 308.97 431.97 C 319.26 430.81 314.00 417.71 311.92 411.08 C 309.84 404.46 300.76 400.76 296.00 397.00
C 300.88 411.29 295.69 416.48 282.00 415.00 C 268.31 413.52 259.67 415.63 247.00 415.00 C 234.33 414.37 223.26 415.24 211.00 415.00 C 198.74 414.76 188.11 415.00 176.00 415.00 Z"/>
</g>
<g fill="#000000" fill-opacity="0.00" stroke="None">
<path d="
M 0.00 512.00 
L 512.00 512.00
L 512.00 0.00
L 0.00 0.00
L 0.00 512.00
M 428.00 97.00 
C 430.67 93.12 443.27 98.60 443.92 105.08 C 444.58 111.55 445.41 122.98 445.00 131.00 C 444.59 139.02 445.20 149.46 445.00 158.00 C 444.80 166.54 445.13 176.24 445.00 185.00 C 444.87 193.76 445.16 203.18 445.00 212.00 C 444.84 220.82 445.28 230.25 445.00 239.00 C 444.72 247.75 446.04 257.13 444.00 265.00
C 447.13 268.36 450.13 272.49 454.00 275.00
C 458.78 278.09 466.29 284.78 470.30 290.70 C 474.31 296.62 467.73 299.16 466.00 303.00
C 464.98 305.26 466.00 312.77 466.00 316.00
C 468.01 313.16 482.41 313.62 482.77 320.23 C 483.13 326.84 482.88 335.31 483.00 343.00 C 483.12 350.69 472.30 351.00 466.00 350.00
C 466.09 353.65 463.23 356.40 463.00 360.00
C 476.08 367.41 469.65 375.52 461.75 383.75 C 453.85 391.98 444.83 395.46 437.00 384.00
C 435.06 386.00 431.85 386.79 429.00 387.00
C 433.06 402.32 423.79 403.84 412.00 404.00 C 400.21 404.16 389.54 402.22 395.00 388.00
C 392.06 387.72 384.83 385.72 382.00 387.00
C 378.77 388.46 375.78 396.37 370.00 392.00 C 364.22 387.62 357.02 379.66 354.00 375.00
C 351.73 371.49 348.08 368.63 345.00 366.00
C 320.24 368.33 293.51 366.33 268.00 367.00
C 268.00 371.33 268.00 375.67 268.00 380.00
C 280.28 379.49 292.23 385.95 296.00 397.00
C 300.76 400.76 309.84 404.46 311.92 411.08 C 314.00 417.71 319.26 430.81 308.97 431.97 C 298.69 433.14 289.27 431.39 279.00 432.00 C 268.73 432.61 258.32 431.47 248.00 432.00 C 237.68 432.53 228.47 431.20 218.00 432.00 C 207.53 432.80 198.94 430.39 188.00 432.00 C 177.06 433.61 171.37 426.04 176.00 415.00
C 170.98 415.00 165.36 414.65 161.00 415.00
C 153.19 389.10 180.29 374.09 207.00 380.00
C 206.36 375.83 208.29 370.34 206.00 367.00
C 201.69 370.05 192.60 365.70 187.00 367.00 C 181.40 368.30 173.13 366.41 167.00 367.00 C 160.87 367.59 153.32 366.71 147.00 367.00 C 140.68 367.29 134.39 366.86 128.00 367.00 C 121.61 367.14 114.38 366.91 108.00 367.00 C 101.62 367.09 94.17 366.90 88.00 367.00 C 81.83 367.10 74.69 366.81 69.00 367.00 C 63.31 367.19 55.15 367.28 50.93 365.07 C 46.70 362.87 42.39 354.79 45.00 351.00
C 28.73 352.23 29.18 337.20 30.00 322.00 C 30.82 306.80 29.57 286.22 30.00 270.00 C 30.43 253.78 29.68 234.50 30.00 218.00 C 30.32 201.50 29.58 182.23 30.00 166.00 C 30.42 149.77 29.21 128.14 30.00 113.00 C 30.79 97.86 24.78 83.57 39.75 81.40 C 54.72 79.22 73.56 81.72 90.00 81.00 C 106.44 80.28 125.05 81.33 142.00 81.00 C 158.95 80.67 176.79 81.17 194.00 81.00 C 211.21 80.83 229.73 81.13 247.00 81.00 C 264.27 80.87 281.83 81.17 299.00 81.00 C 316.17 80.83 334.05 81.32 351.00 81.00 C 367.95 80.68 386.52 81.68 403.00 81.00 C 419.48 80.32 428.53 81.45 428.00 97.00 Z"/>
</g>
<g fill="#000000" fill-opacity="1.00" stroke="None">
<path d="
M 45.00 351.00 
C 97.97 347.00 153.24 351.92 207.00 350.00
C 206.46 355.61 208.16 361.82 206.00 367.00
C 208.29 370.34 206.36 375.83 207.00 380.00
C 180.29 374.09 153.19 389.10 161.00 415.00
C 165.36 414.65 170.98 415.00 176.00 415.00
C 188.11 415.00 198.74 414.76 211.00 415.00 C 223.26 415.24 234.33 414.37 247.00 415.00 C 259.67 415.63 268.31 413.52 282.00 415.00 C 295.69 416.48 300.88 411.29 296.00 397.00
C 292.23 385.95 280.28 379.49 268.00 380.00
C 262.34 380.23 256.66 379.82 251.00 380.00
C 251.00 370.00 251.00 360.00 251.00 350.00
C 280.00 350.00 309.00 350.00 338.00 350.00
C 334.57 356.40 339.75 362.59 345.00 366.00
C 348.08 368.63 351.73 371.49 354.00 375.00
C 359.94 378.11 365.61 371.29 369.00 367.00
C 381.96 367.34 376.74 379.54 382.00 387.00
C 384.83 385.72 392.06 387.72 395.00 388.00
C 407.09 389.17 415.49 384.65 412.00 371.00
C 415.81 370.16 419.16 367.84 423.00 367.00
C 430.06 379.88 437.73 374.73 445.75 366.75 C 453.78 358.78 458.68 351.06 446.00 344.00
C 447.79 336.43 449.79 331.30 459.00 333.00 C 468.21 334.70 465.93 321.36 466.00 316.00
C 466.00 312.77 464.98 305.26 466.00 303.00
C 461.79 295.85 443.97 304.29 446.00 290.00
C 450.57 286.43 456.76 281.13 454.00 275.00
C 450.13 272.49 447.13 268.36 444.00 265.00
C 439.95 260.66 434.21 254.80 428.00 260.00
C 428.00 205.67 428.00 151.33 428.00 97.00
C 428.53 81.45 419.48 80.32 403.00 81.00 C 386.52 81.68 367.95 80.68 351.00 81.00 C 334.05 81.32 316.17 80.83 299.00 81.00 C 281.83 81.17 264.27 80.87 247.00 81.00 C 229.73 81.13 211.21 80.83 194.00 81.00 C 176.79 81.17 158.95 80.67 142.00 81.00 C 125.05 81.33 106.44 80.28 90.00 81.00 C 73.56 81.72 54.72 79.22 39.75 81.40 C 24.78 83.57 30.79 97.86 30.00 113.00 C 29.21 128.14 30.42 149.77 30.00 166.00 C 29.58 182.23 30.32 201.50 30.00 218.00 C 29.68 234.50 30.43 253.78 30.00 270.00 C 29.57 286.22 30.82 306.80 30.00 322.00 C 29.18 337.20 28.73 352.23 45.00 351.00
M 420.00 265.00 
C 407.30 263.05 416.06 244.79 401.00 246.00 C 385.94 247.21 375.97 244.29 379.00 263.00
C 375.44 263.60 372.24 265.37 369.00 267.00
C 366.49 259.91 354.65 255.07 350.75 261.75 C 346.86 268.43 335.93 271.11 337.00 279.00 C 338.07 286.89 350.30 290.79 342.00 300.00
C 327.21 296.65 325.03 304.92 325.00 317.00 C 324.97 329.08 327.32 337.15 342.00 334.00
C 341.70 337.06 344.00 339.32 345.00 342.00
C 333.64 344.02 321.85 342.74 310.00 343.00 C 298.15 343.26 285.94 342.87 274.00 343.00 C 262.06 343.13 250.01 342.91 238.00 343.00 C 225.99 343.09 214.07 342.90 202.00 343.00 C 189.93 343.10 178.19 342.82 166.00 343.00 C 153.81 343.18 141.30 342.63 129.00 343.00 C 116.70 343.37 105.50 342.17 93.00 343.00 C 80.50 343.83 70.05 341.15 57.00 343.00 C 43.95 344.85 34.79 340.97 37.00 327.00 C 39.21 313.03 36.06 303.97 37.00 291.00 C 37.94 278.03 36.62 266.55 37.00 254.00 C 37.38 241.45 36.98 230.35 37.00 218.00 C 37.02 205.65 37.31 194.39 37.00 182.00 C 36.69 169.61 37.86 158.69 37.00 146.00 C 36.14 133.31 38.98 123.45 37.00 110.00 C 35.02 96.55 38.42 86.26 53.00 89.00 C 67.58 91.74 75.83 87.76 89.00 89.00 C 102.17 90.24 112.46 88.44 125.00 89.00 C 137.54 89.56 148.72 88.74 161.00 89.00 C 173.28 89.26 184.81 88.87 197.00 89.00 C 209.19 89.13 221.88 88.90 234.00 89.00 C 246.13 89.10 257.98 88.87 270.00 89.00 C 282.02 89.13 294.07 88.75 306.00 89.00 C 317.93 89.25 330.21 88.47 342.00 89.00 C 353.79 89.53 366.49 87.84 378.00 89.00 C 389.51 90.16 404.18 86.50 415.00 89.00 C 425.82 91.50 418.37 110.15 420.00 120.00 C 421.63 129.85 419.26 144.95 420.00 156.00 C 420.74 167.05 419.66 180.39 420.00 192.00 C 420.34 203.61 419.83 216.09 420.00 228.00 C 420.17 239.91 419.87 252.99 420.00 265.00
M 405.00 254.00 
C 398.98 270.83 425.67 282.34 433.00 266.00
C 434.21 268.88 450.45 274.65 445.22 280.22 C 439.98 285.79 436.63 289.97 440.92 298.08 C 445.22 306.19 447.79 310.52 459.00 308.00
C 459.00 314.00 459.00 320.00 459.00 326.00
C 442.33 319.53 430.26 346.34 446.00 354.00
C 444.28 359.33 437.81 362.18 435.00 367.00
C 425.65 352.99 399.21 361.43 405.00 380.00
C 399.00 380.00 393.00 380.00 387.00 380.00
C 392.66 362.95 365.50 351.29 358.00 368.00
C 353.19 364.64 349.77 359.31 345.00 356.00
C 358.82 346.93 351.62 320.44 333.00 326.00
C 333.00 320.00 333.00 314.00 333.00 308.00
C 349.73 313.67 360.72 286.48 345.00 279.00
C 348.36 274.19 353.69 270.77 357.00 266.00
C 365.45 281.61 392.01 271.64 387.00 254.00
C 393.00 254.00 399.00 254.00 405.00 254.00
M 243.00 350.00 
C 243.00 360.00 243.00 370.00 243.00 380.00
C 233.33 380.00 223.67 380.00 214.00 380.00
C 213.02 372.92 215.30 368.33 214.00 361.00 C 212.70 353.67 215.03 348.38 223.00 350.00 C 230.97 351.62 235.36 348.79 243.00 350.00
M 290.00 407.00 
C 249.33 407.00 208.67 407.00 168.00 407.00
C 171.25 379.77 208.61 388.00 229.00 388.00 C 249.39 388.00 286.46 379.76 290.00 407.00 Z"/>
</g>
<g fill="#FFFFFF" fill-opacity="1.00" stroke="None">
<path d="
M 420.00 265.00 
C 419.87 252.99 420.17 239.91 420.00 228.00 C 419.83 216.09 420.34 203.61 420.00 192.00 C 419.66 180.39 420.74 167.05 420.00 156.00 C 419.26 144.95 421.63 129.85 420.00 120.00 C 418.37 110.15 425.82 91.50 415.00 89.00 C 404.18 86.50 389.51 90.16 378.00 89.00 C 366.49 87.84 353.79 89.53 342.00 89.00 C 330.21 88.47 317.93 89.25 306.00 89.00 C 294.07 88.75 282.02 89.13 270.00 89.00 C 257.98 88.87 246.13 89.10 234.00 89.00 C 221.88 88.90 209.19 89.13 197.00 89.00 C 184.81 88.87 173.28 89.26 161.00 89.00 C 148.72 88.74 137.54 89.56 125.00 89.00 C 112.46 88.44 102.17 90.24 89.00 89.00 C 75.83 87.76 67.58 91.74 53.00 89.00 C 38.42 86.26 35.02 96.55 37.00 110.00 C 38.98 123.45 36.14 133.31 37.00 146.00 C 37.86 158.69 36.69 169.61 37.00 182.00 C 37.31 194.39 37.02 205.65 37.00 218.00 C 36.98 230.35 37.38 241.45 37.00 254.00 C 36.62 266.55 37.94 278.03 37.00 291.00 C 36.06 303.97 39.21 313.03 37.00 327.00 C 34.79 340.97 43.95 344.85 57.00 343.00 C 70.05 341.15 80.50 343.83 93.00 343.00 C 105.50 342.17 116.70 343.37 129.00 343.00 C 141.30 342.63 153.81 343.18 166.00 343.00 C 178.19 342.82 189.93 343.10 202.00 343.00 C 214.07 342.90 225.99 343.09 238.00 343.00 C 250.01 342.91 262.06 343.13 274.00 343.00 C 285.94 342.87 298.15 343.26 310.00 343.00 C 321.85 342.74 333.64 344.02 345.00 342.00
C 344.00 339.32 341.70 337.06 342.00 334.00
C 327.32 337.15 324.97 329.08 325.00 317.00 C 325.03 304.92 327.21 296.65 342.00 300.00
C 350.30 290.79 338.07 286.89 337.00 279.00 C 335.93 271.11 346.86 268.43 350.75 261.75 C 354.65 255.07 366.49 259.91 369.00 267.00
C 372.24 265.37 375.44 263.60 379.00 263.00
C 375.97 244.29 385.94 247.21 401.00 246.00 C 416.06 244.79 407.30 263.05 420.00 265.00
M 202.00 140.00 
C 219.67 140.00 237.33 140.00 255.00 140.00
C 253.54 121.60 284.21 121.50 283.00 140.00
C 297.91 138.25 319.35 138.84 319.00 158.00 C 318.65 177.16 319.04 192.86 319.00 212.00 C 318.96 231.14 318.76 247.24 319.00 267.00 C 319.24 286.76 300.70 286.97 284.00 286.00 C 267.30 285.03 245.98 286.14 229.00 286.00 C 212.02 285.86 191.46 285.35 175.00 286.00 C 158.54 286.65 139.05 287.83 139.00 268.00 C 138.95 248.17 139.39 232.31 139.00 213.00 C 138.61 193.69 140.02 178.55 139.00 159.00 C 137.98 139.45 159.25 137.67 175.00 140.00
C 172.64 121.74 204.71 121.55 202.00 140.00 Z"/>
</g>
<g fill="#FFFFFF" fill-opacity="0.96" stroke="None">
<path d="
M 428.00 97.00 
C 428.00 151.33 428.00 205.67 428.00 260.00
C 434.21 254.80 439.95 260.66 444.00 265.00
C 446.04 257.13 444.72 247.75 445.00 239.00 C 445.28 230.25 444.84 220.82 445.00 212.00 C 445.16 203.18 444.87 193.76 445.00 185.00 C 445.13 176.24 444.80 166.54 445.00 158.00 C 445.20 149.46 444.59 139.02 445.00 131.00 C 445.41 122.98 444.58 111.55 443.92 105.08 C 443.27 98.60 430.67 93.12 428.00 97.00 Z"/>
</g>
<g fill="#000000" fill-opacity="1.00" stroke="None">
<path d="
M 202.00 140.00 
C 204.71 121.55 172.64 121.74 175.00 140.00
C 159.25 137.67 137.98 139.45 139.00 159.00 C 140.02 178.55 138.61 193.69 139.00 213.00 C 139.39 232.31 138.95 248.17 139.00 268.00 C 139.05 287.83 158.54 286.65 175.00 286.00 C 191.46 285.35 212.02 285.86 229.00 286.00 C 245.98 286.14 267.30 285.03 284.00 286.00 C 300.70 286.97 319.24 286.76 319.00 267.00 C 318.76 247.24 318.96 231.14 319.00 212.00 C 319.04 192.86 318.65 177.16 319.00 158.00 C 319.35 138.84 297.91 138.25 283.00 140.00
C 284.21 121.50 253.54 121.60 255.00 140.00
C 237.33 140.00 219.67 140.00 202.00 140.00
M 191.00 133.00 
C 200.03 135.26 196.27 166.75 186.33 162.67 C 176.39 158.59 180.45 130.36 191.00 133.00
M 271.00 133.00 
C 278.02 134.54 273.66 145.17 275.00 150.00 C 276.34 154.83 274.37 165.68 267.00 163.00 C 259.63 160.32 264.32 151.52 263.00 146.00 C 261.68 140.48 263.29 131.31 271.00 133.00
M 255.00 147.00 
C 253.21 157.23 256.70 171.00 269.02 170.98 C 281.35 170.95 284.76 157.23 283.00 147.00
C 290.73 148.64 302.91 143.60 308.75 150.25 C 314.59 156.90 309.03 168.94 311.00 177.00
C 301.61 176.69 294.63 177.41 285.00 177.00 C 275.37 176.59 269.52 177.78 259.00 177.00 C 248.48 176.22 248.35 186.39 259.00 185.00 C 269.65 183.61 275.30 185.73 285.00 185.00 C 294.70 184.27 301.56 185.54 311.00 185.00
C 311.79 198.73 309.95 210.02 311.00 224.00 C 312.05 237.98 308.99 248.13 311.00 263.00 C 313.01 277.87 301.27 280.42 288.00 279.00 C 274.73 277.58 262.16 279.43 249.00 279.00 C 235.84 278.57 222.05 278.78 209.00 279.00 C 195.95 279.22 182.86 277.92 170.00 279.00 C 157.14 280.08 144.68 278.70 146.00 264.00 C 147.32 249.30 145.33 238.97 146.00 225.00 C 146.67 211.03 145.50 198.81 146.00 185.00
C 154.99 185.64 161.79 184.15 171.00 185.00 C 180.21 185.85 185.99 183.37 196.00 185.00 C 206.01 186.63 207.10 176.66 197.00 177.00 C 186.90 177.34 181.26 176.82 172.00 177.00 C 162.74 177.18 156.03 176.87 147.00 177.00
C 150.03 168.59 142.52 160.00 147.32 152.32 C 152.12 144.65 159.82 147.68 169.00 147.00 C 178.18 146.32 172.10 159.42 177.75 165.25 C 183.40 171.07 188.03 171.79 196.25 168.25 C 204.46 164.70 199.19 154.75 202.00 149.00 C 204.81 143.25 220.37 148.43 227.00 147.00 C 233.63 145.57 247.69 148.07 255.00 147.00 Z"/>
</g>
<g fill="#FFFFFF" fill-opacity="1.00" stroke="None">
<path d="
M 191.00 133.00 
C 180.45 130.36 176.39 158.59 186.33 162.67 C 196.27 166.75 200.03 135.26 191.00 133.00 Z"/>
</g>
<g fill="#FFFFFF" fill-opacity="1.00" stroke="None">
<path d="
M 271.00 133.00 
C 263.29 131.31 261.68 140.48 263.00 146.00 C 264.32 151.52 259.63 160.32 267.00 163.00 C 274.37 165.68 276.34 154.83 275.00 150.00 C 273.66 145.17 278.02 134.54 271.00 133.00 Z"/>
</g>
<g fill="#FFFFFF" fill-opacity="1.00" stroke="None">
<path d="
M 255.00 147.00 
C 247.69 148.07 233.63 145.57 227.00 147.00 C 220.37 148.43 204.81 143.25 202.00 149.00 C 199.19 154.75 204.46 164.70 196.25 168.25 C 188.03 171.79 183.40 171.07 177.75 165.25 C 172.10 159.42 178.18 146.32 169.00 147.00 C 159.82 147.68 152.12 144.65 147.32 152.32 C 142.52 160.00 150.03 168.59 147.00 177.00
C 156.03 176.87 162.74 177.18 172.00 177.00 C 181.26 176.82 186.90 177.34 197.00 177.00 C 207.10 176.66 206.01 186.63 196.00 185.00 C 185.99 183.37 180.21 185.85 171.00 185.00 C 161.79 184.15 154.99 185.64 146.00 185.00
C 145.50 198.81 146.67 211.03 146.00 225.00 C 145.33 238.97 147.32 249.30 146.00 264.00 C 144.68 278.70 157.14 280.08 170.00 279.00 C 182.86 277.92 195.95 279.22 209.00 279.00 C 222.05 278.78 235.84 278.57 249.00 279.00 C 262.16 279.43 274.73 277.58 288.00 279.00 C 301.27 280.42 313.01 277.87 311.00 263.00 C 308.99 248.13 312.05 237.98 311.00 224.00 C 309.95 210.02 311.79 198.73 311.00 185.00
C 301.56 185.54 294.70 184.27 285.00 185.00 C 275.30 185.73 269.65 183.61 259.00 185.00 C 248.35 186.39 248.48 176.22 259.00 177.00 C 269.52 177.78 275.37 176.59 285.00 177.00 C 294.63 177.41 301.61 176.69 311.00 177.00
C 309.03 168.94 314.59 156.90 308.75 150.25 C 302.91 143.60 290.73 148.64 283.00 147.00
C 284.76 157.23 281.35 170.95 269.02 170.98 C 256.70 171.00 253.21 157.23 255.00 147.00
M 239.00 177.00 
C 244.65 179.22 240.85 186.92 235.00 185.00 C 229.15 183.08 222.98 186.91 217.00 185.00 C 211.02 183.09 215.50 175.14 221.00 177.00 C 226.50 178.87 233.65 174.90 239.00 177.00 Z"/>
</g>
<g fill="#000000" fill-opacity="1.00" stroke="None">
<path d="
M 239.00 177.00 
C 233.65 174.90 226.50 178.87 221.00 177.00 C 215.50 175.14 211.02 183.09 217.00 185.00 C 222.98 186.91 229.15 183.08 235.00 185.00 C 240.85 186.92 244.65 179.22 239.00 177.00 Z"/>
</g>
<g fill="#FFFFFF" fill-opacity="1.00" stroke="None">
<path d="
M 405.00 254.00 
C 399.00 254.00 393.00 254.00 387.00 254.00
C 392.01 271.64 365.45 281.61 357.00 266.00
C 353.69 270.77 348.36 274.19 345.00 279.00
C 360.72 286.48 349.73 313.67 333.00 308.00
C 333.00 314.00 333.00 320.00 333.00 326.00
C 351.62 320.44 358.82 346.93 345.00 356.00
C 349.77 359.31 353.19 364.64 358.00 368.00
C 365.50 351.29 392.66 362.95 387.00 380.00
C 393.00 380.00 399.00 380.00 405.00 380.00
C 399.21 361.43 425.65 352.99 435.00 367.00
C 437.81 362.18 444.28 359.33 446.00 354.00
C 430.26 346.34 442.33 319.53 459.00 326.00
C 459.00 320.00 459.00 314.00 459.00 308.00
C 447.79 310.52 445.22 306.19 440.92 298.08 C 436.63 289.97 439.98 285.79 445.22 280.22 C 450.45 274.65 434.21 268.88 433.00 266.00
C 425.67 282.34 398.98 270.83 405.00 254.00
M 400.00 293.00 
C 429.45 297.78 421.93 345.48 391.93 340.07 C 361.93 334.66 368.93 287.95 400.00 293.00 Z"/>
</g>
<g fill="#FFFFFF" fill-opacity="0.93" stroke="None">
<path d="
M 454.00 275.00 
C 456.76 281.13 450.57 286.43 446.00 290.00
C 443.97 304.29 461.79 295.85 466.00 303.00
C 467.73 299.16 474.31 296.62 470.30 290.70 C 466.29 284.78 458.78 278.09 454.00 275.00 Z"/>
</g>
<g fill="#000000" fill-opacity="1.00" stroke="None">
<path d="
M 400.00 293.00 
C 368.93 287.95 361.93 334.66 391.93 340.07 C 421.93 345.48 429.45 297.78 400.00 293.00
M 400.00 301.00 
C 419.71 305.08 411.63 338.32 391.78 332.22 C 371.93 326.12 378.95 296.64 400.00 301.00 Z"/>
</g>
<g fill="#FFFFFF" fill-opacity="1.00" stroke="None">
<path d="
M 400.00 301.00 
C 378.95 296.64 371.93 326.12 391.78 332.22 C 411.63 338.32 419.71 305.08 400.00 301.00 Z"/>
</g>
<g fill="#FFFFFF" fill-opacity="0.96" stroke="None">
<path d="
M 466.00 316.00 
C 465.93 321.36 468.21 334.70 459.00 333.00 C 449.79 331.30 447.79 336.43 446.00 344.00
C 458.68 351.06 453.78 358.78 445.75 366.75 C 437.73 374.73 430.06 379.88 423.00 367.00
C 419.16 367.84 415.81 370.16 412.00 371.00
C 415.49 384.65 407.09 389.17 395.00 388.00
C 389.54 402.22 400.21 404.16 412.00 404.00 C 423.79 403.84 433.06 402.32 429.00 387.00
C 431.85 386.79 435.06 386.00 437.00 384.00
C 444.83 395.46 453.85 391.98 461.75 383.75 C 469.65 375.52 476.08 367.41 463.00 360.00
C 463.23 356.40 466.09 353.65 466.00 350.00
C 472.30 351.00 483.12 350.69 483.00 343.00 C 482.88 335.31 483.13 326.84 482.77 320.23 C 482.41 313.62 468.01 313.16 466.00 316.00 Z"/>
</g>
<g fill="#FFFFFF" fill-opacity="0.96" stroke="None">
<path d="
M 45.00 351.00 
C 42.39 354.79 46.70 362.87 50.93 365.07 C 55.15 367.28 63.31 367.19 69.00 367.00 C 74.69 366.81 81.83 367.10 88.00 367.00 C 94.17 366.90 101.62 367.09 108.00 367.00 C 114.38 366.91 121.61 367.14 128.00 367.00 C 134.39 366.86 140.68 367.29 147.00 367.00 C 153.32 366.71 160.87 367.59 167.00 367.00 C 173.13 366.41 181.40 368.30 187.00 367.00 C 192.60 365.70 201.69 370.05 206.00 367.00
C 208.16 361.82 206.46 355.61 207.00 350.00
C 153.24 351.92 97.97 347.00 45.00 351.00 Z"/>
</g>
<g fill="#FFFFFF" fill-opacity="1.00" stroke="None">
<path d="
M 243.00 350.00 
C 235.36 348.79 230.97 351.62 223.00 350.00 C 215.03 348.38 212.70 353.67 214.00 361.00 C 215.30 368.33 213.02 372.92 214.00 380.00
C 223.67 380.00 233.33 380.00 243.00 380.00
C 243.00 370.00 243.00 360.00 243.00 350.00 Z"/>
</g>
<g fill="#FFFFFF" fill-opacity="0.97" stroke="None">
<path d="
M 268.00 380.00 
C 268.00 375.67 268.00 371.33 268.00 367.00
C 293.51 366.33 320.24 368.33 345.00 366.00
C 339.75 362.59 334.57 356.40 338.00 350.00
C 309.00 350.00 280.00 350.00 251.00 350.00
C 251.00 360.00 251.00 370.00 251.00 380.00
C 256.66 379.82 262.34 380.23 268.00 380.00 Z"/>
</g>
<g fill="#FFFFFF" fill-opacity="0.94" stroke="None">
<path d="
M 354.00 375.00 
C 357.02 379.66 364.22 387.62 370.00 392.00 C 375.78 396.37 378.77 388.46 382.00 387.00
C 376.74 379.54 381.96 367.34 369.00 367.00
C 365.61 371.29 359.94 378.11 354.00 375.00 Z"/>
</g>
<g fill="#FFFFFF" fill-opacity="1.00" stroke="None">
<path d="
M 290.00 407.00 
C 286.46 379.76 249.39 388.00 229.00 388.00 C 208.61 388.00 171.25 379.77 168.00 407.00
C 208.67 407.00 249.33 407.00 290.00 407.00 Z"/>
</g>
<g fill="#FFFFFF" fill-opacity="0.94" stroke="None">
<path d="
M 176.00 415.00 
C 171.37 426.04 177.06 433.61 188.00 432.00 C 198.94 430.39 207.53 432.80 218.00 432.00 C 228.47 431.20 237.68 432.53 248.00 432.00 C 258.32 431.47 268.73 432.61 279.00 432.00 C 289.27 431.39 298.69 433.14 308.97 431.97 C 319.26 430.81 314.00 417.71 311.92 411.08 C 309.84 404.46 300.76 400.76 296.00 397.00
C 300.88 411.29 295.69 416.48 282.00 415.00 C 268.31 413.52 259.67 415.63 247.00 415.00 C 234.33 414.37 223.26 415.24 211.00 415.00 C 198.74 414.76 188.11 415.00 176.00 415.00 Z"/>
</g>
</svg>