<svg xmlns="http://www.w3.org/2000/svg" xmlns:v="https://svgstorm.com"
viewBox = "0 0 512 512"
width="512"
height="512">
<g fill="None" fill-opacity="0.0" stroke="#000000" stroke-opacity="0.00" stroke-width="0.3"><path d="
M 0.00 435.00 
C 4.09 420.22 15.40 421.75 33.00 422.00 C 50.60 422.25 72.97 421.82 91.00 422.00
C 90.77 402.06 91.31 377.48 91.00 358.00 C 90.69 338.52 93.22 331.68 113.00 332.00 C 132.78 332.32 156.48 331.83 177.00 332.00 C 197.52 332.17 220.28 331.88 241.00 332.00
C 241.00 322.00 241.00 312.00 241.00 302.00
C 226.95 301.30 201.19 303.68 190.70 300.29 C 180.20 296.89 177.88 285.96 184.71 277.70 C 191.55 269.44 211.74 271.99 227.00 272.00 C 242.26 272.01 268.75 271.77 284.00 272.00 C 299.25 272.23 319.75 269.27 326.90 277.10 C 334.05 284.93 332.27 296.68 321.75 300.19 C 311.22 303.70 285.05 301.32 271.00 302.00
C 271.00 312.00 271.00 322.00 271.00 332.00
C 291.69 331.86 314.52 332.19 335.00 332.00 C 355.48 331.81 379.31 332.36 399.00 332.00 C 418.69 331.64 421.28 338.44 421.00 358.00 C 420.72 377.56 421.21 402.00 421.00 422.00
C 438.77 421.86 460.64 422.18 478.00 422.00 C 495.36 421.82 506.18 420.14 512.00 433.00
L 512.00 0.00
L 378.00 0.00
C 398.38 3.04 390.70 43.48 391.00 62.00 C 391.30 80.52 384.15 90.68 372.08 104.08 C 360.02 117.49 347.33 117.57 329.00 120.00
C 326.87 145.76 297.08 175.90 271.00 178.00
C 271.00 189.33 271.00 200.67 271.00 212.00
C 288.15 209.02 303.35 215.21 300.40 230.75 C 297.44 246.29 273.07 242.13 256.00 242.00 C 238.93 241.87 215.14 246.57 211.42 231.23 C 207.70 215.89 224.11 208.66 241.00 212.00
C 241.00 200.67 241.00 189.33 241.00 178.00
C 214.97 175.76 185.23 145.61 183.00 120.00
C 165.62 117.65 151.09 117.40 139.75 104.25 C 128.41 91.09 120.85 80.90 121.07 61.93 C 121.29 42.95 113.57 3.39 134.00 0.00
L 0.00 0.00
L 0.00 435.00 Z"/>
</g>
<g fill="None" fill-opacity="0.0" stroke="#000000" stroke-opacity="1.00" stroke-width="0.3"><path d="
M 378.00 0.00 
L 134.00 0.00
C 113.57 3.39 121.29 42.95 121.07 61.93 C 120.85 80.90 128.41 91.09 139.75 104.25 C 151.09 117.40 165.62 117.65 183.00 120.00
C 185.23 145.61 214.97 175.76 241.00 178.00
C 241.00 189.33 241.00 200.67 241.00 212.00
C 224.11 208.66 207.70 215.89 211.42 231.23 C 215.14 246.57 238.93 241.87 256.00 242.00 C 273.07 242.13 297.44 246.29 300.40 230.75 C 303.35 215.21 288.15 209.02 271.00 212.00
C 271.00 200.67 271.00 189.33 271.00 178.00
C 297.08 175.90 326.87 145.76 329.00 120.00
C 347.33 117.57 360.02 117.49 372.08 104.08 C 384.15 90.68 391.30 80.52 391.00 62.00 C 390.70 43.48 398.38 3.04 378.00 0.00
M 181.00 30.00 
C 181.00 50.00 181.00 70.00 181.00 90.00
C 168.99 90.44 160.39 83.17 154.81 73.75 C 149.23 64.33 151.32 44.71 151.00 30.00
C 161.00 30.00 171.00 30.00 181.00 30.00
M 361.00 30.00 
C 364.27 59.63 360.01 89.70 331.00 90.00
C 331.00 70.00 331.00 50.00 331.00 30.00
C 341.00 30.00 351.00 30.00 361.00 30.00 Z"/>
</g>
<g fill="None" fill-opacity="0.0" stroke="#000000" stroke-opacity="0.01" stroke-width="0.3"><path d="
M 181.00 30.00 
C 171.00 30.00 161.00 30.00 151.00 30.00
C 151.32 44.71 149.23 64.33 154.81 73.75 C 160.39 83.17 168.99 90.44 181.00 90.00
C 181.00 70.00 181.00 50.00 181.00 30.00 Z"/>
</g>
<g fill="None" fill-opacity="0.0" stroke="#000000" stroke-opacity="0.01" stroke-width="0.3"><path d="
M 361.00 30.00 
C 351.00 30.00 341.00 30.00 331.00 30.00
C 331.00 50.00 331.00 70.00 331.00 90.00
C 360.01 89.70 364.27 59.63 361.00 30.00 Z"/>
</g>
<g fill="None" fill-opacity="0.0" stroke="#000000" stroke-opacity="1.00" stroke-width="0.3"><path d="
M 0.00 435.00 
L 0.00 499.00
C 1.55 505.57 5.71 509.09 11.00 512.00
L 20.00 512.00
C 36.87 504.15 27.67 473.07 30.00 452.00
C 80.33 452.00 130.67 452.00 181.00 452.00
C 184.23 473.46 171.87 506.97 194.00 512.00
L 201.00 512.00
C 215.05 505.58 211.25 481.02 211.00 462.00 C 210.75 442.98 215.67 421.32 193.99 422.01 C 172.31 422.69 143.35 421.48 121.00 422.00
C 121.00 402.00 121.00 382.00 121.00 362.00
C 211.00 362.00 301.00 362.00 391.00 362.00
C 391.00 382.00 391.00 402.00 391.00 422.00
C 368.82 421.45 339.46 422.73 318.00 422.00 C 296.54 421.27 301.01 442.88 301.00 462.00 C 300.99 481.12 296.11 506.08 312.00 512.00
L 321.00 512.00
C 337.87 504.15 328.67 473.07 331.00 452.00
C 381.33 452.00 431.67 452.00 482.00 452.00
C 484.85 473.23 474.05 504.67 493.00 512.00
L 502.00 512.00
C 505.60 508.89 510.82 505.50 512.00 499.00
L 512.00 433.00
C 506.18 420.14 495.36 421.82 478.00 422.00 C 460.64 422.18 438.77 421.86 421.00 422.00
C 421.21 402.00 420.72 377.56 421.00 358.00 C 421.28 338.44 418.69 331.64 399.00 332.00 C 379.31 332.36 355.48 331.81 335.00 332.00 C 314.52 332.19 291.69 331.86 271.00 332.00
C 271.00 322.00 271.00 312.00 271.00 302.00
C 285.05 301.32 311.22 303.70 321.75 300.19 C 332.27 296.68 334.05 284.93 326.90 277.10 C 319.75 269.27 299.25 272.23 284.00 272.00 C 268.75 271.77 242.26 272.01 227.00 272.00 C 211.74 271.99 191.55 269.44 184.71 277.70 C 177.88 285.96 180.20 296.89 190.70 300.29 C 201.19 303.68 226.95 301.30 241.00 302.00
C 241.00 312.00 241.00 322.00 241.00 332.00
C 220.28 331.88 197.52 332.17 177.00 332.00 C 156.48 331.83 132.78 332.32 113.00 332.00 C 93.22 331.68 90.69 338.52 91.00 358.00 C 91.31 377.48 90.77 402.06 91.00 422.00
C 72.97 421.82 50.60 422.25 33.00 422.00 C 15.40 421.75 4.09 420.22 0.00 435.00 Z"/>
</g>
<g fill="None" fill-opacity="0.0" stroke="#000000" stroke-opacity="0.00" stroke-width="0.3"><path d="
M 201.00 512.00 
L 312.00 512.00
C 296.11 506.08 300.99 481.12 301.00 462.00 C 301.01 442.88 296.54 421.27 318.00 422.00 C 339.46 422.73 368.82 421.45 391.00 422.00
C 391.00 402.00 391.00 382.00 391.00 362.00
C 301.00 362.00 211.00 362.00 121.00 362.00
C 121.00 382.00 121.00 402.00 121.00 422.00
C 143.35 421.48 172.31 422.69 193.99 422.01 C 215.67 421.32 210.75 442.98 211.00 462.00 C 211.25 481.02 215.05 505.58 201.00 512.00 Z"/>
</g>
<g fill="None" fill-opacity="0.0" stroke="#000000" stroke-opacity="0.00" stroke-width="0.3"><path d="
M 20.00 512.00 
L 194.00 512.00
C 171.87 506.97 184.23 473.46 181.00 452.00
C 130.67 452.00 80.33 452.00 30.00 452.00
C 27.67 473.07 36.87 504.15 20.00 512.00 Z"/>
</g>
<g fill="None" fill-opacity="0.0" stroke="#000000" stroke-opacity="0.00" stroke-width="0.3"><path d="
M 321.00 512.00 
L 493.00 512.00
C 474.05 504.67 484.85 473.23 482.00 452.00
C 431.67 452.00 381.33 452.00 331.00 452.00
C 328.67 473.07 337.87 504.15 321.00 512.00 Z"/>
</g>
<g fill="None" fill-opacity="0.0" stroke="#000000" stroke-opacity="0.13" stroke-width="0.3"><path d="
M 0.00 512.00 
L 11.00 512.00
C 5.71 509.09 1.55 505.57 0.00 499.00
L 0.00 512.00 Z"/>
</g>
<g fill="None" fill-opacity="0.0" stroke="#000000" stroke-opacity="0.12" stroke-width="0.3"><path d="
M 502.00 512.00 
L 512.00 512.00
L 512.00 499.00
C 510.82 505.50 505.60 508.89 502.00 512.00 Z"/>
</g>
<g fill="#000000" fill-opacity="0.00" stroke="None">
<path d="
M 0.00 435.00 
C 4.09 420.22 15.40 421.75 33.00 422.00 C 50.60 422.25 72.97 421.82 91.00 422.00
C 90.77 402.06 91.31 377.48 91.00 358.00 C 90.69 338.52 93.22 331.68 113.00 332.00 C 132.78 332.32 156.48 331.83 177.00 332.00 C 197.52 332.17 220.28 331.88 241.00 332.00
C 241.00 322.00 241.00 312.00 241.00 302.00
C 226.95 301.30 201.19 303.68 190.70 300.29 C 180.20 296.89 177.88 285.96 184.71 277.70 C 191.55 269.44 211.74 271.99 227.00 272.00 C 242.26 272.01 268.75 271.77 284.00 272.00 C 299.25 272.23 319.75 269.27 326.90 277.10 C 334.05 284.93 332.27 296.68 321.75 300.19 C 311.22 303.70 285.05 301.32 271.00 302.00
C 271.00 312.00 271.00 322.00 271.00 332.00
C 291.69 331.86 314.52 332.19 335.00 332.00 C 355.48 331.81 379.31 332.36 399.00 332.00 C 418.69 331.64 421.28 338.44 421.00 358.00 C 420.72 377.56 421.21 402.00 421.00 422.00
C 438.77 421.86 460.64 422.18 478.00 422.00 C 495.36 421.82 506.18 420.14 512.00 433.00
L 512.00 0.00
L 378.00 0.00
C 398.38 3.04 390.70 43.48 391.00 62.00 C 391.30 80.52 384.15 90.68 372.08 104.08 C 360.02 117.49 347.33 117.57 329.00 120.00
C 326.87 145.76 297.08 175.90 271.00 178.00
C 271.00 189.33 271.00 200.67 271.00 212.00
C 288.15 209.02 303.35 215.21 300.40 230.75 C 297.44 246.29 273.07 242.13 256.00 242.00 C 238.93 241.87 215.14 246.57 211.42 231.23 C 207.70 215.89 224.11 208.66 241.00 212.00
C 241.00 200.67 241.00 189.33 241.00 178.00
C 214.97 175.76 185.23 145.61 183.00 120.00
C 165.62 117.65 151.09 117.40 139.75 104.25 C 128.41 91.09 120.85 80.90 121.07 61.93 C 121.29 42.95 113.57 3.39 134.00 0.00
L 0.00 0.00
L 0.00 435.00 Z"/>
</g>
<g fill="#000000" fill-opacity="1.00" stroke="None">
<path d="
M 378.00 0.00 
L 134.00 0.00
C 113.57 3.39 121.29 42.95 121.07 61.93 C 120.85 80.90 128.41 91.09 139.75 104.25 C 151.09 117.40 165.62 117.65 183.00 120.00
C 185.23 145.61 214.97 175.76 241.00 178.00
C 241.00 189.33 241.00 200.67 241.00 212.00
C 224.11 208.66 207.70 215.89 211.42 231.23 C 215.14 246.57 238.93 241.87 256.00 242.00 C 273.07 242.13 297.44 246.29 300.40 230.75 C 303.35 215.21 288.15 209.02 271.00 212.00
C 271.00 200.67 271.00 189.33 271.00 178.00
C 297.08 175.90 326.87 145.76 329.00 120.00
C 347.33 117.57 360.02 117.49 372.08 104.08 C 384.15 90.68 391.30 80.52 391.00 62.00 C 390.70 43.48 398.38 3.04 378.00 0.00
M 181.00 30.00 
C 181.00 50.00 181.00 70.00 181.00 90.00
C 168.99 90.44 160.39 83.17 154.81 73.75 C 149.23 64.33 151.32 44.71 151.00 30.00
C 161.00 30.00 171.00 30.00 181.00 30.00
M 361.00 30.00 
C 364.27 59.63 360.01 89.70 331.00 90.00
C 331.00 70.00 331.00 50.00 331.00 30.00
C 341.00 30.00 351.00 30.00 361.00 30.00 Z"/>
</g>
<g fill="#000000" fill-opacity="0.01" stroke="None">
<path d="
M 181.00 30.00 
C 171.00 30.00 161.00 30.00 151.00 30.00
C 151.32 44.71 149.23 64.33 154.81 73.75 C 160.39 83.17 168.99 90.44 181.00 90.00
C 181.00 70.00 181.00 50.00 181.00 30.00 Z"/>
</g>
<g fill="#000000" fill-opacity="0.01" stroke="None">
<path d="
M 361.00 30.00 
C 351.00 30.00 341.00 30.00 331.00 30.00
C 331.00 50.00 331.00 70.00 331.00 90.00
C 360.01 89.70 364.27 59.63 361.00 30.00 Z"/>
</g>
<g fill="#000000" fill-opacity="1.00" stroke="None">
<path d="
M 0.00 435.00 
L 0.00 499.00
C 1.55 505.57 5.71 509.09 11.00 512.00
L 20.00 512.00
C 36.87 504.15 27.67 473.07 30.00 452.00
C 80.33 452.00 130.67 452.00 181.00 452.00
C 184.23 473.46 171.87 506.97 194.00 512.00
L 201.00 512.00
C 215.05 505.58 211.25 481.02 211.00 462.00 C 210.75 442.98 215.67 421.32 193.99 422.01 C 172.31 422.69 143.35 421.48 121.00 422.00
C 121.00 402.00 121.00 382.00 121.00 362.00
C 211.00 362.00 301.00 362.00 391.00 362.00
C 391.00 382.00 391.00 402.00 391.00 422.00
C 368.82 421.45 339.46 422.73 318.00 422.00 C 296.54 421.27 301.01 442.88 301.00 462.00 C 300.99 481.12 296.11 506.08 312.00 512.00
L 321.00 512.00
C 337.87 504.15 328.67 473.07 331.00 452.00
C 381.33 452.00 431.67 452.00 482.00 452.00
C 484.85 473.23 474.05 504.67 493.00 512.00
L 502.00 512.00
C 505.60 508.89 510.82 505.50 512.00 499.00
L 512.00 433.00
C 506.18 420.14 495.36 421.82 478.00 422.00 C 460.64 422.18 438.77 421.86 421.00 422.00
C 421.21 402.00 420.72 377.56 421.00 358.00 C 421.28 338.44 418.69 331.64 399.00 332.00 C 379.31 332.36 355.48 331.81 335.00 332.00 C 314.52 332.19 291.69 331.86 271.00 332.00
C 271.00 322.00 271.00 312.00 271.00 302.00
C 285.05 301.32 311.22 303.70 321.75 300.19 C 332.27 296.68 334.05 284.93 326.90 277.10 C 319.75 269.27 299.25 272.23 284.00 272.00 C 268.75 271.77 242.26 272.01 227.00 272.00 C 211.74 271.99 191.55 269.44 184.71 277.70 C 177.88 285.96 180.20 296.89 190.70 300.29 C 201.19 303.68 226.95 301.30 241.00 302.00
C 241.00 312.00 241.00 322.00 241.00 332.00
C 220.28 331.88 197.52 332.17 177.00 332.00 C 156.48 331.83 132.78 332.32 113.00 332.00 C 93.22 331.68 90.69 338.52 91.00 358.00 C 91.31 377.48 90.77 402.06 91.00 422.00
C 72.97 421.82 50.60 422.25 33.00 422.00 C 15.40 421.75 4.09 420.22 0.00 435.00 Z"/>
</g>
<g fill="#000000" fill-opacity="0.00" stroke="None">
<path d="
M 201.00 512.00 
L 312.00 512.00
C 296.11 506.08 300.99 481.12 301.00 462.00 C 301.01 442.88 296.54 421.27 318.00 422.00 C 339.46 422.73 368.82 421.45 391.00 422.00
C 391.00 402.00 391.00 382.00 391.00 362.00
C 301.00 362.00 211.00 362.00 121.00 362.00
C 121.00 382.00 121.00 402.00 121.00 422.00
C 143.35 421.48 172.31 422.69 193.99 422.01 C 215.67 421.32 210.75 442.98 211.00 462.00 C 211.25 481.02 215.05 505.58 201.00 512.00 Z"/>
</g>
<g fill="#000000" fill-opacity="0.00" stroke="None">
<path d="
M 20.00 512.00 
L 194.00 512.00
C 171.87 506.97 184.23 473.46 181.00 452.00
C 130.67 452.00 80.33 452.00 30.00 452.00
C 27.67 473.07 36.87 504.15 20.00 512.00 Z"/>
</g>
<g fill="#000000" fill-opacity="0.00" stroke="None">
<path d="
M 321.00 512.00 
L 493.00 512.00
C 474.05 504.67 484.85 473.23 482.00 452.00
C 431.67 452.00 381.33 452.00 331.00 452.00
C 328.67 473.07 337.87 504.15 321.00 512.00 Z"/>
</g>
<g fill="#000000" fill-opacity="0.13" stroke="None">
<path d="
M 0.00 512.00 
L 11.00 512.00
C 5.71 509.09 1.55 505.57 0.00 499.00
L 0.00 512.00 Z"/>
</g>
<g fill="#000000" fill-opacity="0.12" stroke="None">
<path d="
M 502.00 512.00 
L 512.00 512.00
L 512.00 499.00
C 510.82 505.50 505.60 508.89 502.00 512.00 Z"/>
</g>
</svg>