<svg xmlns="http://www.w3.org/2000/svg" xmlns:v="https://svgstorm.com"
viewBox = "0 0 512 512"
width="512"
height="512">
<g fill="None" fill-opacity="0.0" stroke="#000000" stroke-opacity="0.00" stroke-width="0.3"><path d="
M 0.00 512.00 
L 512.00 512.00
L 512.00 0.00
L 0.00 0.00
L 0.00 512.00
M 367.00 291.00 
C 348.46 275.37 328.50 265.97 308.25 249.74 C 288.00 233.50 276.28 210.82 276.00 186.00
C 265.86 191.36 255.85 191.80 244.75 195.20 C 233.65 198.59 224.25 201.19 213.25 203.40 C 202.26 205.61 199.34 222.93 201.00 236.00
C 214.39 236.33 229.23 239.00 243.00 237.00 C 256.77 235.00 253.33 245.32 251.60 253.75 C 249.87 262.18 245.67 267.19 244.29 276.30 C 242.92 285.40 240.38 288.70 238.74 298.75 C 237.10 308.79 221.30 308.34 209.00 307.00
C 212.09 313.51 219.40 312.63 224.75 317.59 C 230.11 322.54 233.97 326.30 235.80 332.25 C 237.63 338.19 239.18 346.11 237.65 352.70 C 236.11 359.28 230.01 363.84 228.00 371.00
C 234.58 371.66 237.99 376.65 244.30 380.71 C 250.61 384.77 253.12 395.48 260.00 395.00
C 262.01 385.54 276.71 373.65 285.00 372.00
C 281.25 362.59 276.28 352.84 276.78 340.78 C 277.28 328.72 283.98 320.91 293.75 314.74 C 303.53 308.56 316.57 308.92 326.30 314.71 C 336.03 320.50 342.23 327.47 343.40 338.75 C 344.56 350.04 342.81 362.43 332.00 370.00
C 344.84 374.81 356.10 385.23 363.00 398.00
C 366.51 385.44 381.90 373.20 392.00 371.00
C 370.32 351.08 381.98 312.40 412.70 310.65 C 443.41 308.90 462.45 349.40 437.00 370.00
C 453.21 375.06 466.82 392.42 470.19 405.25 C 473.55 418.08 474.84 421.91 473.00 436.00 C 471.16 450.09 479.87 467.30 465.00 468.00 C 450.13 468.70 434.13 467.68 419.00 468.00 C 403.87 468.32 388.24 467.84 373.00 468.00 C 357.76 468.16 342.31 467.91 327.00 468.00 C 311.69 468.09 296.35 467.90 281.00 468.00 C 265.65 468.10 250.40 467.84 235.00 468.00 C 219.60 468.16 204.50 467.66 189.00 468.00 C 173.50 468.34 158.70 467.27 143.00 468.00 C 127.30 468.73 113.15 466.38 97.00 468.00 C 80.85 469.62 81.24 460.42 82.00 445.00 C 82.76 429.58 81.55 414.36 82.00 399.00 C 82.45 383.64 81.56 368.32 82.00 353.00 C 82.44 337.68 80.85 321.86 83.00 307.00
C 75.07 307.61 66.49 305.75 59.00 308.00
C 51.21 299.53 50.53 290.40 47.61 278.25 C 44.69 266.10 41.25 258.82 38.24 245.75 C 35.23 232.68 68.41 237.24 81.00 237.00
C 78.62 217.86 82.68 197.77 87.76 183.75 C 92.83 169.74 103.55 158.23 119.00 155.00
C 96.26 130.85 112.91 91.79 146.03 90.98 C 179.14 90.17 196.20 132.52 173.00 156.00
C 212.19 156.44 243.09 150.43 276.00 146.00
C 275.39 128.51 277.26 109.47 275.00 93.00
C 284.09 87.34 291.91 83.75 300.25 79.81 C 308.60 75.87 315.53 70.01 323.92 66.87 C 332.31 63.74 340.51 56.26 348.30 53.30 C 356.09 50.35 364.07 42.19 373.25 45.19 C 382.44 48.19 388.32 55.04 397.30 58.71 C 406.29 62.39 413.04 66.86 421.92 71.13 C 430.80 75.40 437.79 80.36 447.75 84.39 C 457.72 88.42 464.77 93.41 463.00 111.00 C 461.23 128.59 463.63 153.21 463.00 170.00 C 462.37 186.79 461.83 195.25 458.41 206.75 C 454.99 218.25 452.08 223.19 444.90 232.90 C 437.72 242.61 428.10 251.41 419.25 256.59 C 410.39 261.76 402.68 269.11 393.70 274.71 C 384.72 280.32 377.16 287.99 367.00 291.00 Z"/>
</g>
<g fill="None" fill-opacity="0.0" stroke="#000000" stroke-opacity="0.96" stroke-width="0.3"><path d="
M 367.00 291.00 
C 377.16 287.99 384.72 280.32 393.70 274.71 C 402.68 269.11 410.39 261.76 419.25 256.59 C 428.10 251.41 437.72 242.61 444.90 232.90 C 452.08 223.19 454.99 218.25 458.41 206.75 C 461.83 195.25 462.37 186.79 463.00 170.00 C 463.63 153.21 461.23 128.59 463.00 111.00 C 464.77 93.41 457.72 88.42 447.75 84.39 C 437.79 80.36 430.80 75.40 421.92 71.13 C 413.04 66.86 406.29 62.39 397.30 58.71 C 388.32 55.04 382.44 48.19 373.25 45.19 C 364.07 42.19 356.09 50.35 348.30 53.30 C 340.51 56.26 332.31 63.74 323.92 66.87 C 315.53 70.01 308.60 75.87 300.25 79.81 C 291.91 83.75 284.09 87.34 275.00 93.00
C 277.26 109.47 275.39 128.51 276.00 146.00
C 243.09 150.43 212.19 156.44 173.00 156.00
C 196.20 132.52 179.14 90.17 146.03 90.98 C 112.91 91.79 96.26 130.85 119.00 155.00
C 103.55 158.23 92.83 169.74 87.76 183.75 C 82.68 197.77 78.62 217.86 81.00 237.00
C 68.41 237.24 35.23 232.68 38.24 245.75 C 41.25 258.82 44.69 266.10 47.61 278.25 C 50.53 290.40 51.21 299.53 59.00 308.00
C 66.49 305.75 75.07 307.61 83.00 307.00
C 80.85 321.86 82.44 337.68 82.00 353.00 C 81.56 368.32 82.45 383.64 82.00 399.00 C 81.55 414.36 82.76 429.58 82.00 445.00 C 81.24 460.42 80.85 469.62 97.00 468.00 C 113.15 466.38 127.30 468.73 143.00 468.00 C 158.70 467.27 173.50 468.34 189.00 468.00 C 204.50 467.66 219.60 468.16 235.00 468.00 C 250.40 467.84 265.65 468.10 281.00 468.00 C 296.35 467.90 311.69 468.09 327.00 468.00 C 342.31 467.91 357.76 468.16 373.00 468.00 C 388.24 467.84 403.87 468.32 419.00 468.00 C 434.13 467.68 450.13 468.70 465.00 468.00 C 479.87 467.30 471.16 450.09 473.00 436.00 C 474.84 421.91 473.55 418.08 470.19 405.25 C 466.82 392.42 453.21 375.06 437.00 370.00
C 462.45 349.40 443.41 308.90 412.70 310.65 C 381.98 312.40 370.32 351.08 392.00 371.00
C 381.90 373.20 366.51 385.44 363.00 398.00
C 356.10 385.23 344.84 374.81 332.00 370.00
C 342.81 362.43 344.56 350.04 343.40 338.75 C 342.23 327.47 336.03 320.50 326.30 314.71 C 316.57 308.92 303.53 308.56 293.75 314.74 C 283.98 320.91 277.28 328.72 276.78 340.78 C 276.28 352.84 281.25 362.59 285.00 372.00
C 276.71 373.65 262.01 385.54 260.00 395.00
C 253.12 395.48 250.61 384.77 244.30 380.71 C 237.99 376.65 234.58 371.66 228.00 371.00
C 230.01 363.84 236.11 359.28 237.65 352.70 C 239.18 346.11 237.63 338.19 235.80 332.25 C 233.97 326.30 230.11 322.54 224.75 317.59 C 219.40 312.63 212.09 313.51 209.00 307.00
C 221.30 308.34 237.10 308.79 238.74 298.75 C 240.38 288.70 242.92 285.40 244.29 276.30 C 245.67 267.19 249.87 262.18 251.60 253.75 C 253.33 245.32 256.77 235.00 243.00 237.00 C 229.23 239.00 214.39 236.33 201.00 236.00
C 199.34 222.93 202.26 205.61 213.25 203.40 C 224.25 201.19 233.65 198.59 244.75 195.20 C 255.85 191.80 265.86 191.36 276.00 186.00
C 276.28 210.82 288.00 233.50 308.25 249.74 C 328.50 265.97 348.46 275.37 367.00 291.00
M 416.00 82.00 
C 416.00 106.00 416.00 130.00 416.00 154.00
C 405.43 158.58 397.09 166.68 386.00 174.00
C 386.09 181.46 386.09 191.55 386.00 199.00
C 364.68 205.69 373.46 236.30 394.01 235.01 C 414.56 233.71 420.19 207.49 399.00 198.00
C 399.00 192.00 399.00 186.00 399.00 180.00
C 409.74 176.68 409.02 170.42 419.30 166.29 C 429.59 162.16 428.95 150.45 428.00 136.00 C 427.05 121.55 428.72 103.75 428.00 89.00
C 436.52 93.94 441.04 96.47 450.00 100.00
C 448.57 118.18 448.47 145.17 449.00 163.00 C 449.53 180.83 449.18 196.12 444.43 206.77 C 439.68 217.41 436.88 225.59 426.25 235.25 C 415.62 244.91 407.49 247.63 397.70 255.71 C 387.90 263.79 378.72 267.62 369.00 276.00
C 350.65 262.31 335.85 253.86 317.08 238.92 C 298.32 223.97 288.46 204.94 288.00 180.00
C 295.81 178.73 302.41 172.51 303.20 163.75 C 303.99 154.99 297.92 144.39 289.00 145.00
C 289.08 129.80 288.89 113.49 289.00 99.00
C 295.97 98.42 301.14 92.30 309.00 90.00
C 308.23 104.14 310.02 121.15 309.00 135.00 C 307.98 148.85 308.14 161.19 317.75 165.39 C 327.37 169.59 328.18 177.66 338.00 179.00
C 338.00 185.33 338.00 191.67 338.00 198.00
C 319.19 204.69 321.82 233.25 343.08 235.07 C 364.34 236.88 372.89 204.77 352.00 199.00
C 354.03 183.43 351.82 170.75 339.75 165.81 C 327.68 160.87 321.73 152.73 323.00 136.00 C 324.27 119.27 322.88 98.59 322.00 82.00
C 336.80 76.47 348.36 67.57 363.00 62.00
C 363.00 78.00 363.00 94.00 363.00 110.00
C 343.26 116.85 345.59 145.77 367.25 147.80 C 388.90 149.83 397.41 116.00 375.00 110.00
C 375.00 93.67 375.00 77.33 375.00 61.00
C 389.63 68.99 401.16 76.14 416.00 82.00
M 143.00 103.00 
C 162.66 101.48 176.07 120.64 168.29 138.30 C 160.52 155.95 137.78 156.57 126.81 142.75 C 115.84 128.92 124.62 104.42 143.00 103.00
M 376.00 127.00 
C 375.82 136.07 362.63 137.23 362.94 128.92 C 363.25 120.60 371.46 119.42 376.00 127.00
M 289.00 157.00 
C 292.94 167.74 280.02 170.04 272.25 173.59 C 264.47 177.14 252.63 180.15 243.30 182.64 C 233.97 185.14 226.64 187.15 217.25 189.26 C 207.86 191.38 197.62 194.86 192.41 203.75 C 187.21 212.65 188.19 223.65 189.00 237.00
C 179.20 237.18 169.85 236.76 160.00 237.00 C 150.15 237.24 139.90 236.55 130.00 237.00 C 120.10 237.45 109.88 236.03 100.00 237.00 C 90.12 237.97 93.21 224.00 93.93 216.93 C 94.65 209.86 93.49 208.04 95.80 200.75 C 98.11 193.47 96.30 193.40 100.39 185.25 C 104.49 177.10 115.04 167.56 124.75 166.41 C 134.46 165.26 138.01 166.68 146.22 166.22 C 154.43 165.76 156.94 167.48 163.75 167.60 C 170.57 167.73 175.25 168.60 183.02 168.98 C 190.79 169.35 199.20 167.84 205.70 167.69 C 212.19 167.54 218.48 166.73 224.25 166.20 C 230.01 165.66 235.02 165.45 240.25 164.20 C 245.47 162.95 250.83 163.78 256.23 162.21 C 261.63 160.65 266.75 160.73 272.25 159.80 C 277.74 158.87 283.20 156.98 289.00 157.00
M 346.00 209.00 
C 347.19 210.71 348.65 213.12 351.00 213.00
C 350.07 215.29 350.60 217.42 351.00 220.00
C 344.90 224.91 336.67 221.96 338.00 213.00
C 341.59 211.47 342.00 209.26 346.00 209.00
M 395.00 209.00 
C 398.93 211.91 401.83 217.67 396.00 223.00
C 387.14 224.55 384.09 214.67 389.00 210.00
C 390.79 211.42 393.08 209.65 395.00 209.00
M 239.00 249.00 
C 234.21 265.29 230.23 278.06 227.00 295.00
C 221.33 295.00 215.67 295.00 210.00 295.00
C 210.20 286.10 209.72 276.20 210.00 268.00
C 199.93 261.05 184.18 264.28 170.00 264.00 C 155.82 263.72 137.24 263.63 123.00 264.00 C 108.76 264.37 92.19 260.94 82.00 268.00
C 84.22 275.56 82.43 281.78 83.00 290.00 C 83.57 298.22 70.59 294.10 65.00 295.00
C 62.39 279.26 57.46 264.27 53.00 249.00
C 114.41 250.67 177.62 250.67 239.00 249.00
M 197.00 277.00 
C 197.00 288.33 197.00 299.67 197.00 311.00
C 171.33 314.36 158.87 352.54 182.00 370.00
C 150.50 384.09 141.97 413.94 146.00 455.00
C 129.00 455.00 112.00 455.00 95.00 455.00
C 96.67 396.26 96.67 335.72 95.00 277.00
C 129.00 277.00 163.00 277.00 197.00 277.00
M 200.00 323.00 
C 217.29 321.18 228.98 337.54 222.87 352.92 C 216.76 368.30 197.68 367.62 187.75 357.25 C 177.82 346.88 184.95 324.58 200.00 323.00
M 306.00 323.00 
C 333.14 319.73 340.47 359.08 313.75 364.80 C 287.03 370.52 280.40 326.08 306.00 323.00
M 412.00 323.00 
C 427.81 320.54 440.09 338.09 433.88 352.90 C 427.68 367.71 407.25 368.92 397.70 356.30 C 388.16 343.67 397.09 325.32 412.00 323.00
M 251.00 455.00 
C 220.33 455.00 189.67 455.00 159.00 455.00
C 162.34 433.35 155.61 413.25 165.80 399.75 C 175.99 386.25 191.62 377.87 207.22 378.78 C 222.83 379.69 233.41 386.99 243.59 399.75 C 253.76 412.52 250.19 432.42 251.00 455.00
M 356.00 455.00 
C 325.33 455.00 294.67 455.00 264.00 455.00
C 265.52 432.51 260.81 413.50 270.19 400.75 C 279.57 387.99 292.99 378.59 309.03 378.98 C 325.06 379.37 337.39 384.87 347.71 398.30 C 358.04 411.74 355.83 433.08 356.00 455.00
M 461.00 455.00 
C 430.59 453.33 398.38 453.33 368.00 455.00
C 367.58 432.29 367.04 413.53 377.24 399.23 C 387.43 384.93 401.14 377.76 417.67 378.67 C 434.20 379.58 443.71 387.37 453.57 399.77 C 463.43 412.17 460.21 433.11 461.00 455.00 Z"/>
</g>
<g fill="None" fill-opacity="0.0" stroke="#000000" stroke-opacity="0.02" stroke-width="0.3"><path d="
M 416.00 82.00 
C 401.16 76.14 389.63 68.99 375.00 61.00
C 375.00 77.33 375.00 93.67 375.00 110.00
C 397.41 116.00 388.90 149.83 367.25 147.80 C 345.59 145.77 343.26 116.85 363.00 110.00
C 363.00 94.00 363.00 78.00 363.00 62.00
C 348.36 67.57 336.80 76.47 322.00 82.00
C 322.88 98.59 324.27 119.27 323.00 136.00 C 321.73 152.73 327.68 160.87 339.75 165.81 C 351.82 170.75 354.03 183.43 352.00 199.00
C 372.89 204.77 364.34 236.88 343.08 235.07 C 321.82 233.25 319.19 204.69 338.00 198.00
C 338.00 191.67 338.00 185.33 338.00 179.00
C 328.18 177.66 327.37 169.59 317.75 165.39 C 308.14 161.19 307.98 148.85 309.00 135.00 C 310.02 121.15 308.23 104.14 309.00 90.00
C 301.14 92.30 295.97 98.42 289.00 99.00
C 288.89 113.49 289.08 129.80 289.00 145.00
C 297.92 144.39 303.99 154.99 303.20 163.75 C 302.41 172.51 295.81 178.73 288.00 180.00
C 288.46 204.94 298.32 223.97 317.08 238.92 C 335.85 253.86 350.65 262.31 369.00 276.00
C 378.72 267.62 387.90 263.79 397.70 255.71 C 407.49 247.63 415.62 244.91 426.25 235.25 C 436.88 225.59 439.68 217.41 444.43 206.77 C 449.18 196.12 449.53 180.83 449.00 163.00 C 448.47 145.17 448.57 118.18 450.00 100.00
C 441.04 96.47 436.52 93.94 428.00 89.00
C 428.72 103.75 427.05 121.55 428.00 136.00 C 428.95 150.45 429.59 162.16 419.30 166.29 C 409.02 170.42 409.74 176.68 399.00 180.00
C 399.00 186.00 399.00 192.00 399.00 198.00
C 420.19 207.49 414.56 233.71 394.01 235.01 C 373.46 236.30 364.68 205.69 386.00 199.00
C 386.09 191.55 386.09 181.46 386.00 174.00
C 397.09 166.68 405.43 158.58 416.00 154.00
C 416.00 130.00 416.00 106.00 416.00 82.00 Z"/>
</g>
<g fill="None" fill-opacity="0.0" stroke="#000000" stroke-opacity="0.02" stroke-width="0.3"><path d="
M 143.00 103.00 
C 124.62 104.42 115.84 128.92 126.81 142.75 C 137.78 156.57 160.52 155.95 168.29 138.30 C 176.07 120.64 162.66 101.48 143.00 103.00 Z"/>
</g>
<g fill="None" fill-opacity="0.0" stroke="#000000" stroke-opacity="0.11" stroke-width="0.3"><path d="
M 376.00 127.00 
C 371.46 119.42 363.25 120.60 362.94 128.92 C 362.63 137.23 375.82 136.07 376.00 127.00 Z"/>
</g>
<g fill="None" fill-opacity="0.0" stroke="#000000" stroke-opacity="0.02" stroke-width="0.3"><path d="
M 289.00 157.00 
C 283.20 156.98 277.74 158.87 272.25 159.80 C 266.75 160.73 261.63 160.65 256.23 162.21 C 250.83 163.78 245.47 162.95 240.25 164.20 C 235.02 165.45 230.01 165.66 224.25 166.20 C 218.48 166.73 212.19 167.54 205.70 167.69 C 199.20 167.84 190.79 169.35 183.02 168.98 C 175.25 168.60 170.57 167.73 163.75 167.60 C 156.94 167.48 154.43 165.76 146.22 166.22 C 138.01 166.68 134.46 165.26 124.75 166.41 C 115.04 167.56 104.49 177.10 100.39 185.25 C 96.30 193.40 98.11 193.47 95.80 200.75 C 93.49 208.04 94.65 209.86 93.93 216.93 C 93.21 224.00 90.12 237.97 100.00 237.00 C 109.88 236.03 120.10 237.45 130.00 237.00 C 139.90 236.55 150.15 237.24 160.00 237.00 C 169.85 236.76 179.20 237.18 189.00 237.00
C 188.19 223.65 187.21 212.65 192.41 203.75 C 197.62 194.86 207.86 191.38 217.25 189.26 C 226.64 187.15 233.97 185.14 243.30 182.64 C 252.63 180.15 264.47 177.14 272.25 173.59 C 280.02 170.04 292.94 167.74 289.00 157.00 Z"/>
</g>
<g fill="None" fill-opacity="0.0" stroke="#000000" stroke-opacity="0.09" stroke-width="0.3"><path d="
M 346.00 209.00 
C 342.00 209.26 341.59 211.47 338.00 213.00
C 336.67 221.96 344.90 224.91 351.00 220.00
C 350.60 217.42 350.07 215.29 351.00 213.00
C 348.65 213.12 347.19 210.71 346.00 209.00 Z"/>
</g>
<g fill="None" fill-opacity="0.0" stroke="#000000" stroke-opacity="0.09" stroke-width="0.3"><path d="
M 395.00 209.00 
C 393.08 209.65 390.79 211.42 389.00 210.00
C 384.09 214.67 387.14 224.55 396.00 223.00
C 401.83 217.67 398.93 211.91 395.00 209.00 Z"/>
</g>
<g fill="None" fill-opacity="0.0" stroke="#000000" stroke-opacity="0.02" stroke-width="0.3"><path d="
M 239.00 249.00 
C 177.62 250.67 114.41 250.67 53.00 249.00
C 57.46 264.27 62.39 279.26 65.00 295.00
C 70.59 294.10 83.57 298.22 83.00 290.00 C 82.43 281.78 84.22 275.56 82.00 268.00
C 92.19 260.94 108.76 264.37 123.00 264.00 C 137.24 263.63 155.82 263.72 170.00 264.00 C 184.18 264.28 199.93 261.05 210.00 268.00
C 209.72 276.20 210.20 286.10 210.00 295.00
C 215.67 295.00 221.33 295.00 227.00 295.00
C 230.23 278.06 234.21 265.29 239.00 249.00 Z"/>
</g>
<g fill="None" fill-opacity="0.0" stroke="#000000" stroke-opacity="0.01" stroke-width="0.3"><path d="
M 197.00 277.00 
C 163.00 277.00 129.00 277.00 95.00 277.00
C 96.67 335.72 96.67 396.26 95.00 455.00
C 112.00 455.00 129.00 455.00 146.00 455.00
C 141.97 413.94 150.50 384.09 182.00 370.00
C 158.87 352.54 171.33 314.36 197.00 311.00
C 197.00 299.67 197.00 288.33 197.00 277.00 Z"/>
</g>
<g fill="None" fill-opacity="0.0" stroke="#000000" stroke-opacity="0.02" stroke-width="0.3"><path d="
M 200.00 323.00 
C 184.95 324.58 177.82 346.88 187.75 357.25 C 197.68 367.62 216.76 368.30 222.87 352.92 C 228.98 337.54 217.29 321.18 200.00 323.00 Z"/>
</g>
<g fill="None" fill-opacity="0.0" stroke="#000000" stroke-opacity="0.03" stroke-width="0.3"><path d="
M 306.00 323.00 
C 280.40 326.08 287.03 370.52 313.75 364.80 C 340.47 359.08 333.14 319.73 306.00 323.00 Z"/>
</g>
<g fill="None" fill-opacity="0.0" stroke="#000000" stroke-opacity="0.03" stroke-width="0.3"><path d="
M 412.00 323.00 
C 397.09 325.32 388.16 343.67 397.70 356.30 C 407.25 368.92 427.68 367.71 433.88 352.90 C 440.09 338.09 427.81 320.54 412.00 323.00 Z"/>
</g>
<g fill="None" fill-opacity="0.0" stroke="#000000" stroke-opacity="0.01" stroke-width="0.3"><path d="
M 251.00 455.00 
C 250.19 432.42 253.76 412.52 243.59 399.75 C 233.41 386.99 222.83 379.69 207.22 378.78 C 191.62 377.87 175.99 386.25 165.80 399.75 C 155.61 413.25 162.34 433.35 159.00 455.00
C 189.67 455.00 220.33 455.00 251.00 455.00 Z"/>
</g>
<g fill="None" fill-opacity="0.0" stroke="#000000" stroke-opacity="0.01" stroke-width="0.3"><path d="
M 356.00 455.00 
C 355.83 433.08 358.04 411.74 347.71 398.30 C 337.39 384.87 325.06 379.37 309.03 378.98 C 292.99 378.59 279.57 387.99 270.19 400.75 C 260.81 413.50 265.52 432.51 264.00 455.00
C 294.67 455.00 325.33 455.00 356.00 455.00 Z"/>
</g>
<g fill="None" fill-opacity="0.0" stroke="#000000" stroke-opacity="0.01" stroke-width="0.3"><path d="
M 461.00 455.00 
C 460.21 433.11 463.43 412.17 453.57 399.77 C 443.71 387.37 434.20 379.58 417.67 378.67 C 401.14 377.76 387.43 384.93 377.24 399.23 C 367.04 413.53 367.58 432.29 368.00 455.00
C 398.38 453.33 430.59 453.33 461.00 455.00 Z"/>
</g>
<g fill="#000000" fill-opacity="0.00" stroke="None">
<path d="
M 0.00 512.00 
L 512.00 512.00
L 512.00 0.00
L 0.00 0.00
L 0.00 512.00
M 367.00 291.00 
C 348.46 275.37 328.50 265.97 308.25 249.74 C 288.00 233.50 276.28 210.82 276.00 186.00
C 265.86 191.36 255.85 191.80 244.75 195.20 C 233.65 198.59 224.25 201.19 213.25 203.40 C 202.26 205.61 199.34 222.93 201.00 236.00
C 214.39 236.33 229.23 239.00 243.00 237.00 C 256.77 235.00 253.33 245.32 251.60 253.75 C 249.87 262.18 245.67 267.19 244.29 276.30 C 242.92 285.40 240.38 288.70 238.74 298.75 C 237.10 308.79 221.30 308.34 209.00 307.00
C 212.09 313.51 219.40 312.63 224.75 317.59 C 230.11 322.54 233.97 326.30 235.80 332.25 C 237.63 338.19 239.18 346.11 237.65 352.70 C 236.11 359.28 230.01 363.84 228.00 371.00
C 234.58 371.66 237.99 376.65 244.30 380.71 C 250.61 384.77 253.12 395.48 260.00 395.00
C 262.01 385.54 276.71 373.65 285.00 372.00
C 281.25 362.59 276.28 352.84 276.78 340.78 C 277.28 328.72 283.98 320.91 293.75 314.74 C 303.53 308.56 316.57 308.92 326.30 314.71 C 336.03 320.50 342.23 327.47 343.40 338.75 C 344.56 350.04 342.81 362.43 332.00 370.00
C 344.84 374.81 356.10 385.23 363.00 398.00
C 366.51 385.44 381.90 373.20 392.00 371.00
C 370.32 351.08 381.98 312.40 412.70 310.65 C 443.41 308.90 462.45 349.40 437.00 370.00
C 453.21 375.06 466.82 392.42 470.19 405.25 C 473.55 418.08 474.84 421.91 473.00 436.00 C 471.16 450.09 479.87 467.30 465.00 468.00 C 450.13 468.70 434.13 467.68 419.00 468.00 C 403.87 468.32 388.24 467.84 373.00 468.00 C 357.76 468.16 342.31 467.91 327.00 468.00 C 311.69 468.09 296.35 467.90 281.00 468.00 C 265.65 468.10 250.40 467.84 235.00 468.00 C 219.60 468.16 204.50 467.66 189.00 468.00 C 173.50 468.34 158.70 467.27 143.00 468.00 C 127.30 468.73 113.15 466.38 97.00 468.00 C 80.85 469.62 81.24 460.42 82.00 445.00 C 82.76 429.58 81.55 414.36 82.00 399.00 C 82.45 383.64 81.56 368.32 82.00 353.00 C 82.44 337.68 80.85 321.86 83.00 307.00
C 75.07 307.61 66.49 305.75 59.00 308.00
C 51.21 299.53 50.53 290.40 47.61 278.25 C 44.69 266.10 41.25 258.82 38.24 245.75 C 35.23 232.68 68.41 237.24 81.00 237.00
C 78.62 217.86 82.68 197.77 87.76 183.75 C 92.83 169.74 103.55 158.23 119.00 155.00
C 96.26 130.85 112.91 91.79 146.03 90.98 C 179.14 90.17 196.20 132.52 173.00 156.00
C 212.19 156.44 243.09 150.43 276.00 146.00
C 275.39 128.51 277.26 109.47 275.00 93.00
C 284.09 87.34 291.91 83.75 300.25 79.81 C 308.60 75.87 315.53 70.01 323.92 66.87 C 332.31 63.74 340.51 56.26 348.30 53.30 C 356.09 50.35 364.07 42.19 373.25 45.19 C 382.44 48.19 388.32 55.04 397.30 58.71 C 406.29 62.39 413.04 66.86 421.92 71.13 C 430.80 75.40 437.79 80.36 447.75 84.39 C 457.72 88.42 464.77 93.41 463.00 111.00 C 461.23 128.59 463.63 153.21 463.00 170.00 C 462.37 186.79 461.83 195.25 458.41 206.75 C 454.99 218.25 452.08 223.19 444.90 232.90 C 437.72 242.61 428.10 251.41 419.25 256.59 C 410.39 261.76 402.68 269.11 393.70 274.71 C 384.72 280.32 377.16 287.99 367.00 291.00 Z"/>
</g>
<g fill="#000000" fill-opacity="0.96" stroke="None">
<path d="
M 367.00 291.00 
C 377.16 287.99 384.72 280.32 393.70 274.71 C 402.68 269.11 410.39 261.76 419.25 256.59 C 428.10 251.41 437.72 242.61 444.90 232.90 C 452.08 223.19 454.99 218.25 458.41 206.75 C 461.83 195.25 462.37 186.79 463.00 170.00 C 463.63 153.21 461.23 128.59 463.00 111.00 C 464.77 93.41 457.72 88.42 447.75 84.39 C 437.79 80.36 430.80 75.40 421.92 71.13 C 413.04 66.86 406.29 62.39 397.30 58.71 C 388.32 55.04 382.44 48.19 373.25 45.19 C 364.07 42.19 356.09 50.35 348.30 53.30 C 340.51 56.26 332.31 63.74 323.92 66.87 C 315.53 70.01 308.60 75.87 300.25 79.81 C 291.91 83.75 284.09 87.34 275.00 93.00
C 277.26 109.47 275.39 128.51 276.00 146.00
C 243.09 150.43 212.19 156.44 173.00 156.00
C 196.20 132.52 179.14 90.17 146.03 90.98 C 112.91 91.79 96.26 130.85 119.00 155.00
C 103.55 158.23 92.83 169.74 87.76 183.75 C 82.68 197.77 78.62 217.86 81.00 237.00
C 68.41 237.24 35.23 232.68 38.24 245.75 C 41.25 258.82 44.69 266.10 47.61 278.25 C 50.53 290.40 51.21 299.53 59.00 308.00
C 66.49 305.75 75.07 307.61 83.00 307.00
C 80.85 321.86 82.44 337.68 82.00 353.00 C 81.56 368.32 82.45 383.64 82.00 399.00 C 81.55 414.36 82.76 429.58 82.00 445.00 C 81.24 460.42 80.85 469.62 97.00 468.00 C 113.15 466.38 127.30 468.73 143.00 468.00 C 158.70 467.27 173.50 468.34 189.00 468.00 C 204.50 467.66 219.60 468.16 235.00 468.00 C 250.40 467.84 265.65 468.10 281.00 468.00 C 296.35 467.90 311.69 468.09 327.00 468.00 C 342.31 467.91 357.76 468.16 373.00 468.00 C 388.24 467.84 403.87 468.32 419.00 468.00 C 434.13 467.68 450.13 468.70 465.00 468.00 C 479.87 467.30 471.16 450.09 473.00 436.00 C 474.84 421.91 473.55 418.08 470.19 405.25 C 466.82 392.42 453.21 375.06 437.00 370.00
C 462.45 349.40 443.41 308.90 412.70 310.65 C 381.98 312.40 370.32 351.08 392.00 371.00
C 381.90 373.20 366.51 385.44 363.00 398.00
C 356.10 385.23 344.84 374.81 332.00 370.00
C 342.81 362.43 344.56 350.04 343.40 338.75 C 342.23 327.47 336.03 320.50 326.30 314.71 C 316.57 308.92 303.53 308.56 293.75 314.74 C 283.98 320.91 277.28 328.72 276.78 340.78 C 276.28 352.84 281.25 362.59 285.00 372.00
C 276.71 373.65 262.01 385.54 260.00 395.00
C 253.12 395.48 250.61 384.77 244.30 380.71 C 237.99 376.65 234.58 371.66 228.00 371.00
C 230.01 363.84 236.11 359.28 237.65 352.70 C 239.18 346.11 237.63 338.19 235.80 332.25 C 233.97 326.30 230.11 322.54 224.75 317.59 C 219.40 312.63 212.09 313.51 209.00 307.00
C 221.30 308.34 237.10 308.79 238.74 298.75 C 240.38 288.70 242.92 285.40 244.29 276.30 C 245.67 267.19 249.87 262.18 251.60 253.75 C 253.33 245.32 256.77 235.00 243.00 237.00 C 229.23 239.00 214.39 236.33 201.00 236.00
C 199.34 222.93 202.26 205.61 213.25 203.40 C 224.25 201.19 233.65 198.59 244.75 195.20 C 255.85 191.80 265.86 191.36 276.00 186.00
C 276.28 210.82 288.00 233.50 308.25 249.74 C 328.50 265.97 348.46 275.37 367.00 291.00
M 416.00 82.00 
C 416.00 106.00 416.00 130.00 416.00 154.00
C 405.43 158.58 397.09 166.68 386.00 174.00
C 386.09 181.46 386.09 191.55 386.00 199.00
C 364.68 205.69 373.46 236.30 394.01 235.01 C 414.56 233.71 420.19 207.49 399.00 198.00
C 399.00 192.00 399.00 186.00 399.00 180.00
C 409.74 176.68 409.02 170.42 419.30 166.29 C 429.59 162.16 428.95 150.45 428.00 136.00 C 427.05 121.55 428.72 103.75 428.00 89.00
C 436.52 93.94 441.04 96.47 450.00 100.00
C 448.57 118.18 448.47 145.17 449.00 163.00 C 449.53 180.83 449.18 196.12 444.43 206.77 C 439.68 217.41 436.88 225.59 426.25 235.25 C 415.62 244.91 407.49 247.63 397.70 255.71 C 387.90 263.79 378.72 267.62 369.00 276.00
C 350.65 262.31 335.85 253.86 317.08 238.92 C 298.32 223.97 288.46 204.94 288.00 180.00
C 295.81 178.73 302.41 172.51 303.20 163.75 C 303.99 154.99 297.92 144.39 289.00 145.00
C 289.08 129.80 288.89 113.49 289.00 99.00
C 295.97 98.42 301.14 92.30 309.00 90.00
C 308.23 104.14 310.02 121.15 309.00 135.00 C 307.98 148.85 308.14 161.19 317.75 165.39 C 327.37 169.59 328.18 177.66 338.00 179.00
C 338.00 185.33 338.00 191.67 338.00 198.00
C 319.19 204.69 321.82 233.25 343.08 235.07 C 364.34 236.88 372.89 204.77 352.00 199.00
C 354.03 183.43 351.82 170.75 339.75 165.81 C 327.68 160.87 321.73 152.73 323.00 136.00 C 324.27 119.27 322.88 98.59 322.00 82.00
C 336.80 76.47 348.36 67.57 363.00 62.00
C 363.00 78.00 363.00 94.00 363.00 110.00
C 343.26 116.85 345.59 145.77 367.25 147.80 C 388.90 149.83 397.41 116.00 375.00 110.00
C 375.00 93.67 375.00 77.33 375.00 61.00
C 389.63 68.99 401.16 76.14 416.00 82.00
M 143.00 103.00 
C 162.66 101.48 176.07 120.64 168.29 138.30 C 160.52 155.95 137.78 156.57 126.81 142.75 C 115.84 128.92 124.62 104.42 143.00 103.00
M 376.00 127.00 
C 375.82 136.07 362.63 137.23 362.94 128.92 C 363.25 120.60 371.46 119.42 376.00 127.00
M 289.00 157.00 
C 292.94 167.74 280.02 170.04 272.25 173.59 C 264.47 177.14 252.63 180.15 243.30 182.64 C 233.97 185.14 226.64 187.15 217.25 189.26 C 207.86 191.38 197.62 194.86 192.41 203.75 C 187.21 212.65 188.19 223.65 189.00 237.00
C 179.20 237.18 169.85 236.76 160.00 237.00 C 150.15 237.24 139.90 236.55 130.00 237.00 C 120.10 237.45 109.88 236.03 100.00 237.00 C 90.12 237.97 93.21 224.00 93.93 216.93 C 94.65 209.86 93.49 208.04 95.80 200.75 C 98.11 193.47 96.30 193.40 100.39 185.25 C 104.49 177.10 115.04 167.56 124.75 166.41 C 134.46 165.26 138.01 166.68 146.22 166.22 C 154.43 165.76 156.94 167.48 163.75 167.60 C 170.57 167.73 175.25 168.60 183.02 168.98 C 190.79 169.35 199.20 167.84 205.70 167.69 C 212.19 167.54 218.48 166.73 224.25 166.20 C 230.01 165.66 235.02 165.45 240.25 164.20 C 245.47 162.95 250.83 163.78 256.23 162.21 C 261.63 160.65 266.75 160.73 272.25 159.80 C 277.74 158.87 283.20 156.98 289.00 157.00
M 346.00 209.00 
C 347.19 210.71 348.65 213.12 351.00 213.00
C 350.07 215.29 350.60 217.42 351.00 220.00
C 344.90 224.91 336.67 221.96 338.00 213.00
C 341.59 211.47 342.00 209.26 346.00 209.00
M 395.00 209.00 
C 398.93 211.91 401.83 217.67 396.00 223.00
C 387.14 224.55 384.09 214.67 389.00 210.00
C 390.79 211.42 393.08 209.65 395.00 209.00
M 239.00 249.00 
C 234.21 265.29 230.23 278.06 227.00 295.00
C 221.33 295.00 215.67 295.00 210.00 295.00
C 210.20 286.10 209.72 276.20 210.00 268.00
C 199.93 261.05 184.18 264.28 170.00 264.00 C 155.82 263.72 137.24 263.63 123.00 264.00 C 108.76 264.37 92.19 260.94 82.00 268.00
C 84.22 275.56 82.43 281.78 83.00 290.00 C 83.57 298.22 70.59 294.10 65.00 295.00
C 62.39 279.26 57.46 264.27 53.00 249.00
C 114.41 250.67 177.62 250.67 239.00 249.00
M 197.00 277.00 
C 197.00 288.33 197.00 299.67 197.00 311.00
C 171.33 314.36 158.87 352.54 182.00 370.00
C 150.50 384.09 141.97 413.94 146.00 455.00
C 129.00 455.00 112.00 455.00 95.00 455.00
C 96.67 396.26 96.67 335.72 95.00 277.00
C 129.00 277.00 163.00 277.00 197.00 277.00
M 200.00 323.00 
C 217.29 321.18 228.98 337.54 222.87 352.92 C 216.76 368.30 197.68 367.62 187.75 357.25 C 177.82 346.88 184.95 324.58 200.00 323.00
M 306.00 323.00 
C 333.14 319.73 340.47 359.08 313.75 364.80 C 287.03 370.52 280.40 326.08 306.00 323.00
M 412.00 323.00 
C 427.81 320.54 440.09 338.09 433.88 352.90 C 427.68 367.71 407.25 368.92 397.70 356.30 C 388.16 343.67 397.09 325.32 412.00 323.00
M 251.00 455.00 
C 220.33 455.00 189.67 455.00 159.00 455.00
C 162.34 433.35 155.61 413.25 165.80 399.75 C 175.99 386.25 191.62 377.87 207.22 378.78 C 222.83 379.69 233.41 386.99 243.59 399.75 C 253.76 412.52 250.19 432.42 251.00 455.00
M 356.00 455.00 
C 325.33 455.00 294.67 455.00 264.00 455.00
C 265.52 432.51 260.81 413.50 270.19 400.75 C 279.57 387.99 292.99 378.59 309.03 378.98 C 325.06 379.37 337.39 384.87 347.71 398.30 C 358.04 411.74 355.83 433.08 356.00 455.00
M 461.00 455.00 
C 430.59 453.33 398.38 453.33 368.00 455.00
C 367.58 432.29 367.04 413.53 377.24 399.23 C 387.43 384.93 401.14 377.76 417.67 378.67 C 434.20 379.58 443.71 387.37 453.57 399.77 C 463.43 412.17 460.21 433.11 461.00 455.00 Z"/>
</g>
<g fill="#000000" fill-opacity="0.02" stroke="None">
<path d="
M 416.00 82.00 
C 401.16 76.14 389.63 68.99 375.00 61.00
C 375.00 77.33 375.00 93.67 375.00 110.00
C 397.41 116.00 388.90 149.83 367.25 147.80 C 345.59 145.77 343.26 116.85 363.00 110.00
C 363.00 94.00 363.00 78.00 363.00 62.00
C 348.36 67.57 336.80 76.47 322.00 82.00
C 322.88 98.59 324.27 119.27 323.00 136.00 C 321.73 152.73 327.68 160.87 339.75 165.81 C 351.82 170.75 354.03 183.43 352.00 199.00
C 372.89 204.77 364.34 236.88 343.08 235.07 C 321.82 233.25 319.19 204.69 338.00 198.00
C 338.00 191.67 338.00 185.33 338.00 179.00
C 328.18 177.66 327.37 169.59 317.75 165.39 C 308.14 161.19 307.98 148.85 309.00 135.00 C 310.02 121.15 308.23 104.14 309.00 90.00
C 301.14 92.30 295.97 98.42 289.00 99.00
C 288.89 113.49 289.08 129.80 289.00 145.00
C 297.92 144.39 303.99 154.99 303.20 163.75 C 302.41 172.51 295.81 178.73 288.00 180.00
C 288.46 204.94 298.32 223.97 317.08 238.92 C 335.85 253.86 350.65 262.31 369.00 276.00
C 378.72 267.62 387.90 263.79 397.70 255.71 C 407.49 247.63 415.62 244.91 426.25 235.25 C 436.88 225.59 439.68 217.41 444.43 206.77 C 449.18 196.12 449.53 180.83 449.00 163.00 C 448.47 145.17 448.57 118.18 450.00 100.00
C 441.04 96.47 436.52 93.94 428.00 89.00
C 428.72 103.75 427.05 121.55 428.00 136.00 C 428.95 150.45 429.59 162.16 419.30 166.29 C 409.02 170.42 409.74 176.68 399.00 180.00
C 399.00 186.00 399.00 192.00 399.00 198.00
C 420.19 207.49 414.56 233.71 394.01 235.01 C 373.46 236.30 364.68 205.69 386.00 199.00
C 386.09 191.55 386.09 181.46 386.00 174.00
C 397.09 166.68 405.43 158.58 416.00 154.00
C 416.00 130.00 416.00 106.00 416.00 82.00 Z"/>
</g>
<g fill="#000000" fill-opacity="0.02" stroke="None">
<path d="
M 143.00 103.00 
C 124.62 104.42 115.84 128.92 126.81 142.75 C 137.78 156.57 160.52 155.95 168.29 138.30 C 176.07 120.64 162.66 101.48 143.00 103.00 Z"/>
</g>
<g fill="#000000" fill-opacity="0.11" stroke="None">
<path d="
M 376.00 127.00 
C 371.46 119.42 363.25 120.60 362.94 128.92 C 362.63 137.23 375.82 136.07 376.00 127.00 Z"/>
</g>
<g fill="#000000" fill-opacity="0.02" stroke="None">
<path d="
M 289.00 157.00 
C 283.20 156.98 277.74 158.87 272.25 159.80 C 266.75 160.73 261.63 160.65 256.23 162.21 C 250.83 163.78 245.47 162.95 240.25 164.20 C 235.02 165.45 230.01 165.66 224.25 166.20 C 218.48 166.73 212.19 167.54 205.70 167.69 C 199.20 167.84 190.79 169.35 183.02 168.98 C 175.25 168.60 170.57 167.73 163.75 167.60 C 156.94 167.48 154.43 165.76 146.22 166.22 C 138.01 166.68 134.46 165.26 124.75 166.41 C 115.04 167.56 104.49 177.10 100.39 185.25 C 96.30 193.40 98.11 193.47 95.80 200.75 C 93.49 208.04 94.65 209.86 93.93 216.93 C 93.21 224.00 90.12 237.97 100.00 237.00 C 109.88 236.03 120.10 237.45 130.00 237.00 C 139.90 236.55 150.15 237.24 160.00 237.00 C 169.85 236.76 179.20 237.18 189.00 237.00
C 188.19 223.65 187.21 212.65 192.41 203.75 C 197.62 194.86 207.86 191.38 217.25 189.26 C 226.64 187.15 233.97 185.14 243.30 182.64 C 252.63 180.15 264.47 177.14 272.25 173.59 C 280.02 170.04 292.94 167.74 289.00 157.00 Z"/>
</g>
<g fill="#000000" fill-opacity="0.09" stroke="None">
<path d="
M 346.00 209.00 
C 342.00 209.26 341.59 211.47 338.00 213.00
C 336.67 221.96 344.90 224.91 351.00 220.00
C 350.60 217.42 350.07 215.29 351.00 213.00
C 348.65 213.12 347.19 210.71 346.00 209.00 Z"/>
</g>
<g fill="#000000" fill-opacity="0.09" stroke="None">
<path d="
M 395.00 209.00 
C 393.08 209.65 390.79 211.42 389.00 210.00
C 384.09 214.67 387.14 224.55 396.00 223.00
C 401.83 217.67 398.93 211.91 395.00 209.00 Z"/>
</g>
<g fill="#000000" fill-opacity="0.02" stroke="None">
<path d="
M 239.00 249.00 
C 177.62 250.67 114.41 250.67 53.00 249.00
C 57.46 264.27 62.39 279.26 65.00 295.00
C 70.59 294.10 83.57 298.22 83.00 290.00 C 82.43 281.78 84.22 275.56 82.00 268.00
C 92.19 260.94 108.76 264.37 123.00 264.00 C 137.24 263.63 155.82 263.72 170.00 264.00 C 184.18 264.28 199.93 261.05 210.00 268.00
C 209.72 276.20 210.20 286.10 210.00 295.00
C 215.67 295.00 221.33 295.00 227.00 295.00
C 230.23 278.06 234.21 265.29 239.00 249.00 Z"/>
</g>
<g fill="#000000" fill-opacity="0.01" stroke="None">
<path d="
M 197.00 277.00 
C 163.00 277.00 129.00 277.00 95.00 277.00
C 96.67 335.72 96.67 396.26 95.00 455.00
C 112.00 455.00 129.00 455.00 146.00 455.00
C 141.97 413.94 150.50 384.09 182.00 370.00
C 158.87 352.54 171.33 314.36 197.00 311.00
C 197.00 299.67 197.00 288.33 197.00 277.00 Z"/>
</g>
<g fill="#000000" fill-opacity="0.02" stroke="None">
<path d="
M 200.00 323.00 
C 184.95 324.58 177.82 346.88 187.75 357.25 C 197.68 367.62 216.76 368.30 222.87 352.92 C 228.98 337.54 217.29 321.18 200.00 323.00 Z"/>
</g>
<g fill="#000000" fill-opacity="0.03" stroke="None">
<path d="
M 306.00 323.00 
C 280.40 326.08 287.03 370.52 313.75 364.80 C 340.47 359.08 333.14 319.73 306.00 323.00 Z"/>
</g>
<g fill="#000000" fill-opacity="0.03" stroke="None">
<path d="
M 412.00 323.00 
C 397.09 325.32 388.16 343.67 397.70 356.30 C 407.25 368.92 427.68 367.71 433.88 352.90 C 440.09 338.09 427.81 320.54 412.00 323.00 Z"/>
</g>
<g fill="#000000" fill-opacity="0.01" stroke="None">
<path d="
M 251.00 455.00 
C 250.19 432.42 253.76 412.52 243.59 399.75 C 233.41 386.99 222.83 379.69 207.22 378.78 C 191.62 377.87 175.99 386.25 165.80 399.75 C 155.61 413.25 162.34 433.35 159.00 455.00
C 189.67 455.00 220.33 455.00 251.00 455.00 Z"/>
</g>
<g fill="#000000" fill-opacity="0.01" stroke="None">
<path d="
M 356.00 455.00 
C 355.83 433.08 358.04 411.74 347.71 398.30 C 337.39 384.87 325.06 379.37 309.03 378.98 C 292.99 378.59 279.57 387.99 270.19 400.75 C 260.81 413.50 265.52 432.51 264.00 455.00
C 294.67 455.00 325.33 455.00 356.00 455.00 Z"/>
</g>
<g fill="#000000" fill-opacity="0.01" stroke="None">
<path d="
M 461.00 455.00 
C 460.21 433.11 463.43 412.17 453.57 399.77 C 443.71 387.37 434.20 379.58 417.67 378.67 C 401.14 377.76 387.43 384.93 377.24 399.23 C 367.04 413.53 367.58 432.29 368.00 455.00
C 398.38 453.33 430.59 453.33 461.00 455.00 Z"/>
</g>
</svg>