<svg xmlns="http://www.w3.org/2000/svg" xmlns:v="https://svgstorm.com"
viewBox = "0 0 512 512"
width="512"
height="512">
<g fill="None" fill-opacity="0.0" stroke="#000000" stroke-opacity="0.00" stroke-width="0.3"><path d="
M 0.00 512.00 
L 512.00 512.00
L 512.00 0.00
L 0.00 0.00
L 0.00 512.00
M 343.00 45.00 
C 343.67 50.74 345.65 56.15 346.00 62.00
C 352.44 62.02 360.35 71.71 366.08 67.08 C 371.82 62.45 378.19 57.79 383.25 64.75 C 388.30 71.71 392.65 73.13 398.00 79.00
C 392.99 87.39 387.84 90.92 391.31 100.69 C 394.77 110.47 400.61 114.40 412.00 114.00
C 412.47 122.31 411.38 129.59 412.00 138.00 C 412.62 146.41 401.13 144.64 395.00 146.00
C 393.87 152.35 390.36 158.00 388.00 164.00
C 392.25 167.41 393.76 173.62 398.00 177.00
C 391.99 184.49 383.96 190.55 378.00 198.00
C 365.48 182.98 340.60 191.53 343.00 212.00
C 333.33 212.00 323.67 212.00 314.00 212.00
C 313.33 206.26 311.35 200.85 311.00 195.00
C 305.15 195.52 299.69 188.48 293.98 189.02 C 288.27 189.56 284.54 196.63 279.00 198.00
C 272.99 190.51 264.96 184.45 259.00 177.00
C 263.25 173.59 264.76 167.38 269.00 164.00
C 266.78 157.93 263.50 152.31 262.00 146.00
C 256.51 144.14 244.99 147.04 245.00 139.00 C 245.02 130.96 244.99 122.11 245.00 114.00
C 250.17 112.58 259.05 113.87 262.30 109.30 C 265.54 104.72 265.66 98.62 269.00 94.00
C 265.39 89.37 261.92 84.22 259.00 79.00
C 266.70 74.88 268.95 65.98 276.75 61.75 C 284.55 57.52 290.38 71.80 299.68 66.68 C 308.98 61.56 315.24 57.85 314.00 45.00
C 323.67 45.00 333.33 45.00 343.00 45.00
M 228.00 124.00 
C 226.82 133.34 225.02 149.53 229.71 155.30 C 234.40 161.08 242.39 159.81 249.00 161.00
C 245.48 169.47 234.27 176.10 243.25 185.75 C 252.22 195.41 261.09 201.87 269.75 212.25 C 278.42 222.62 287.71 213.82 296.00 208.00
C 299.07 215.05 294.73 229.55 305.75 229.39 C 316.78 229.24 339.49 229.02 350.74 229.60 C 361.99 230.17 357.22 215.30 362.00 209.00
C 369.83 213.98 378.71 222.63 387.75 212.75 C 396.79 202.88 405.29 195.79 414.25 186.25 C 423.20 176.71 411.37 169.44 408.00 161.00
C 415.02 160.07 422.56 160.85 427.25 155.25 C 431.95 149.66 427.47 133.84 429.00 124.00
C 437.17 123.90 448.27 123.77 453.25 126.19 C 458.24 128.61 464.03 132.49 466.59 138.75 C 469.15 145.02 469.09 154.22 469.00 164.00 C 468.91 173.78 469.03 185.59 469.00 196.00 C 468.97 206.41 469.00 218.28 469.00 229.00 C 469.00 239.72 468.96 251.15 469.00 262.00 C 469.04 272.85 468.90 283.01 469.00 294.00 C 469.10 304.99 468.77 315.79 469.00 327.00 C 469.23 338.21 468.50 348.42 469.00 360.00 C 469.50 371.58 467.89 380.67 469.00 393.00 C 470.11 405.33 456.44 402.01 446.00 402.00 C 435.56 401.99 423.72 402.00 413.00 402.00 C 402.28 402.00 390.80 402.00 380.00 402.00 C 369.20 402.00 358.86 402.00 348.00 402.00 C 337.14 402.00 325.92 402.00 315.00 402.00 C 304.08 402.00 292.94 401.99 282.00 402.00 C 271.06 402.01 259.91 401.99 249.00 402.00 C 238.09 402.01 227.93 401.97 217.00 402.00 C 206.07 402.03 195.00 401.93 184.00 402.00 C 173.00 402.07 162.07 401.85 151.00 402.00 C 139.93 402.15 130.30 401.65 119.00 402.00 C 107.70 402.35 97.81 401.25 86.00 402.00 C 74.19 402.75 65.85 400.35 53.00 402.00 C 40.15 403.65 42.68 389.74 43.00 379.00 C 43.32 368.26 42.86 357.84 43.00 347.00 C 43.14 336.16 42.93 324.92 43.00 314.00 C 43.07 303.08 42.96 291.96 43.00 281.00 C 43.04 270.04 42.96 260.08 43.00 249.00 C 43.04 237.92 42.93 227.34 43.00 216.00 C 43.07 204.66 42.86 194.83 43.00 183.00 C 43.14 171.17 42.69 162.88 43.00 150.00 C 43.31 137.12 53.42 125.95 64.75 124.74 C 76.08 123.52 85.79 124.07 97.00 124.00 C 108.21 123.93 117.96 124.03 129.00 124.00 C 140.04 123.97 150.98 124.01 162.00 124.00 C 173.02 123.99 183.99 124.01 195.00 124.00 C 206.01 123.99 216.99 124.01 228.00 124.00
M 497.00 419.00 
C 501.14 450.82 480.00 469.43 449.00 467.00 C 418.00 464.57 384.56 467.89 353.00 467.00 C 321.44 466.11 287.70 466.98 256.00 467.00 C 224.30 467.02 191.53 466.02 160.00 467.00 C 128.47 467.98 95.05 464.41 64.00 467.00 C 32.95 469.59 10.51 451.50 15.00 419.00
C 175.66 419.00 336.33 419.00 497.00 419.00 Z"/>
</g>
<g fill="None" fill-opacity="0.0" stroke="#FFFFFF" stroke-opacity="0.96" stroke-width="0.3"><path d="
M 343.00 45.00 
C 333.33 45.00 323.67 45.00 314.00 45.00
C 315.24 57.85 308.98 61.56 299.68 66.68 C 290.38 71.80 284.55 57.52 276.75 61.75 C 268.95 65.98 266.70 74.88 259.00 79.00
C 261.92 84.22 265.39 89.37 269.00 94.00
C 265.66 98.62 265.54 104.72 262.30 109.30 C 259.05 113.87 250.17 112.58 245.00 114.00
C 244.99 122.11 245.02 130.96 245.00 139.00 C 244.99 147.04 256.51 144.14 262.00 146.00
C 263.50 152.31 266.78 157.93 269.00 164.00
C 264.76 167.38 263.25 173.59 259.00 177.00
C 264.96 184.45 272.99 190.51 279.00 198.00
C 284.54 196.63 288.27 189.56 293.98 189.02 C 299.69 188.48 305.15 195.52 311.00 195.00
C 311.35 200.85 313.33 206.26 314.00 212.00
C 323.67 212.00 333.33 212.00 343.00 212.00
C 340.60 191.53 365.48 182.98 378.00 198.00
C 383.96 190.55 391.99 184.49 398.00 177.00
C 393.76 173.62 392.25 167.41 388.00 164.00
C 390.36 158.00 393.87 152.35 395.00 146.00
C 401.13 144.64 412.62 146.41 412.00 138.00 C 411.38 129.59 412.47 122.31 412.00 114.00
C 400.61 114.40 394.77 110.47 391.31 100.69 C 387.84 90.92 392.99 87.39 398.00 79.00
C 392.65 73.13 388.30 71.71 383.25 64.75 C 378.19 57.79 371.82 62.45 366.08 67.08 C 360.35 71.71 352.44 62.02 346.00 62.00
C 345.65 56.15 343.67 50.74 343.00 45.00
M 337.00 87.00 
C 366.81 92.34 380.72 132.38 361.08 155.08 C 341.45 177.78 303.23 175.38 290.23 145.77 C 277.23 116.16 303.59 81.01 337.00 87.00 Z"/>
</g>
<g fill="None" fill-opacity="0.0" stroke="#000000" stroke-opacity="0.00" stroke-width="0.3"><path d="
M 337.00 87.00 
C 303.59 81.01 277.23 116.16 290.23 145.77 C 303.23 175.38 341.45 177.78 361.08 155.08 C 380.72 132.38 366.81 92.34 337.00 87.00 Z"/>
</g>
<g fill="None" fill-opacity="0.0" stroke="#000000" stroke-opacity="0.98" stroke-width="0.3"><path d="
M 228.00 124.00 
C 216.99 124.01 206.01 123.99 195.00 124.00 C 183.99 124.01 173.02 123.99 162.00 124.00 C 150.98 124.01 140.04 123.97 129.00 124.00 C 117.96 124.03 108.21 123.93 97.00 124.00 C 85.79 124.07 76.08 123.52 64.75 124.74 C 53.42 125.95 43.31 137.12 43.00 150.00 C 42.69 162.88 43.14 171.17 43.00 183.00 C 42.86 194.83 43.07 204.66 43.00 216.00 C 42.93 227.34 43.04 237.92 43.00 249.00 C 42.96 260.08 43.04 270.04 43.00 281.00 C 42.96 291.96 43.07 303.08 43.00 314.00 C 42.93 324.92 43.14 336.16 43.00 347.00 C 42.86 357.84 43.32 368.26 43.00 379.00 C 42.68 389.74 40.15 403.65 53.00 402.00 C 65.85 400.35 74.19 402.75 86.00 402.00 C 97.81 401.25 107.70 402.35 119.00 402.00 C 130.30 401.65 139.93 402.15 151.00 402.00 C 162.07 401.85 173.00 402.07 184.00 402.00 C 195.00 401.93 206.07 402.03 217.00 402.00 C 227.93 401.97 238.09 402.01 249.00 402.00 C 259.91 401.99 271.06 402.01 282.00 402.00 C 292.94 401.99 304.08 402.00 315.00 402.00 C 325.92 402.00 337.14 402.00 348.00 402.00 C 358.86 402.00 369.20 402.00 380.00 402.00 C 390.80 402.00 402.28 402.00 413.00 402.00 C 423.72 402.00 435.56 401.99 446.00 402.00 C 456.44 402.01 470.11 405.33 469.00 393.00 C 467.89 380.67 469.50 371.58 469.00 360.00 C 468.50 348.42 469.23 338.21 469.00 327.00 C 468.77 315.79 469.10 304.99 469.00 294.00 C 468.90 283.01 469.04 272.85 469.00 262.00 C 468.96 251.15 469.00 239.72 469.00 229.00 C 469.00 218.28 468.97 206.41 469.00 196.00 C 469.03 185.59 468.91 173.78 469.00 164.00 C 469.09 154.22 469.15 145.02 466.59 138.75 C 464.03 132.49 458.24 128.61 453.25 126.19 C 448.27 123.77 437.17 123.90 429.00 124.00
C 427.47 133.84 431.95 149.66 427.25 155.25 C 422.56 160.85 415.02 160.07 408.00 161.00
C 411.37 169.44 423.20 176.71 414.25 186.25 C 405.29 195.79 396.79 202.88 387.75 212.75 C 378.71 222.63 369.83 213.98 362.00 209.00
C 357.22 215.30 361.99 230.17 350.74 229.60 C 339.49 229.02 316.78 229.24 305.75 229.39 C 294.73 229.55 299.07 215.05 296.00 208.00
C 287.71 213.82 278.42 222.62 269.75 212.25 C 261.09 201.87 252.22 195.41 243.25 185.75 C 234.27 176.10 245.48 169.47 249.00 161.00
C 242.39 159.81 234.40 161.08 229.71 155.30 C 225.02 149.53 226.82 133.34 228.00 124.00
M 202.00 241.00 
C 212.32 245.68 218.39 248.19 227.25 256.75 C 236.12 265.30 244.32 273.41 246.39 281.75 C 248.47 290.10 256.54 300.16 253.65 311.69 C 250.75 323.23 260.29 349.47 245.75 350.19 C 231.20 350.91 208.16 349.98 192.00 350.00 C 175.84 350.02 152.88 350.95 137.00 350.00 C 121.12 349.05 98.00 352.53 84.92 350.07 C 71.84 347.60 81.50 319.31 79.99 308.99 C 78.48 298.67 83.06 288.15 86.19 280.75 C 89.32 273.35 97.29 262.95 105.75 255.41 C 114.22 247.87 121.56 245.13 132.00 241.00
C 102.57 212.48 125.94 161.04 167.01 161.99 C 208.07 162.95 228.00 210.00 202.00 241.00 Z"/>
</g>
<g fill="None" fill-opacity="0.0" stroke="#000000" stroke-opacity="0.02" stroke-width="0.3"><path d="
M 202.00 241.00 
C 228.00 210.00 208.07 162.95 167.01 161.99 C 125.94 161.04 102.57 212.48 132.00 241.00
C 121.56 245.13 114.22 247.87 105.75 255.41 C 97.29 262.95 89.32 273.35 86.19 280.75 C 83.06 288.15 78.48 298.67 79.99 308.99 C 81.50 319.31 71.84 347.60 84.92 350.07 C 98.00 352.53 121.12 349.05 137.00 350.00 C 152.88 350.95 175.84 350.02 192.00 350.00 C 208.16 349.98 231.20 350.91 245.75 350.19 C 260.29 349.47 250.75 323.23 253.65 311.69 C 256.54 300.16 248.47 290.10 246.39 281.75 C 244.32 273.41 236.12 265.30 227.25 256.75 C 218.39 248.19 212.32 245.68 202.00 241.00
M 161.00 181.00 
C 181.39 177.20 199.41 198.55 192.65 218.70 C 185.89 238.84 159.98 241.70 145.75 226.25 C 131.52 210.80 141.18 184.69 161.00 181.00
M 234.00 331.00 
C 189.00 331.00 144.00 331.00 99.00 331.00
C 99.46 306.36 98.85 290.34 113.26 275.25 C 127.68 260.16 140.67 258.38 164.00 258.00 C 187.33 257.62 205.05 259.51 218.75 275.25 C 232.46 290.99 234.56 304.87 234.00 331.00 Z"/>
</g>
<g fill="None" fill-opacity="0.0" stroke="#000000" stroke-opacity="0.98" stroke-width="0.3"><path d="
M 161.00 181.00 
C 141.18 184.69 131.52 210.80 145.75 226.25 C 159.98 241.70 185.89 238.84 192.65 218.70 C 199.41 198.55 181.39 177.20 161.00 181.00 Z"/>
</g>
<g fill="None" fill-opacity="0.0" stroke="#000000" stroke-opacity="0.99" stroke-width="0.3"><path d="
M 234.00 331.00 
C 234.56 304.87 232.46 290.99 218.75 275.25 C 205.05 259.51 187.33 257.62 164.00 258.00 C 140.67 258.38 127.68 260.16 113.26 275.25 C 98.85 290.34 99.46 306.36 99.00 331.00
C 144.00 331.00 189.00 331.00 234.00 331.00 Z"/>
</g>
<g fill="None" fill-opacity="0.0" stroke="#FFFFFF" stroke-opacity="0.98" stroke-width="0.3"><path d="
M 497.00 419.00 
C 336.33 419.00 175.66 419.00 15.00 419.00
C 10.51 451.50 32.95 469.59 64.00 467.00 C 95.05 464.41 128.47 467.98 160.00 467.00 C 191.53 466.02 224.30 467.02 256.00 467.00 C 287.70 466.98 321.44 466.11 353.00 467.00 C 384.56 467.89 418.00 464.57 449.00 467.00 C 480.00 469.43 501.14 450.82 497.00 419.00 Z"/>
</g>
<g fill="#000000" fill-opacity="0.00" stroke="None">
<path d="
M 0.00 512.00 
L 512.00 512.00
L 512.00 0.00
L 0.00 0.00
L 0.00 512.00
M 343.00 45.00 
C 343.67 50.74 345.65 56.15 346.00 62.00
C 352.44 62.02 360.35 71.71 366.08 67.08 C 371.82 62.45 378.19 57.79 383.25 64.75 C 388.30 71.71 392.65 73.13 398.00 79.00
C 392.99 87.39 387.84 90.92 391.31 100.69 C 394.77 110.47 400.61 114.40 412.00 114.00
C 412.47 122.31 411.38 129.59 412.00 138.00 C 412.62 146.41 401.13 144.64 395.00 146.00
C 393.87 152.35 390.36 158.00 388.00 164.00
C 392.25 167.41 393.76 173.62 398.00 177.00
C 391.99 184.49 383.96 190.55 378.00 198.00
C 365.48 182.98 340.60 191.53 343.00 212.00
C 333.33 212.00 323.67 212.00 314.00 212.00
C 313.33 206.26 311.35 200.85 311.00 195.00
C 305.15 195.52 299.69 188.48 293.98 189.02 C 288.27 189.56 284.54 196.63 279.00 198.00
C 272.99 190.51 264.96 184.45 259.00 177.00
C 263.25 173.59 264.76 167.38 269.00 164.00
C 266.78 157.93 263.50 152.31 262.00 146.00
C 256.51 144.14 244.99 147.04 245.00 139.00 C 245.02 130.96 244.99 122.11 245.00 114.00
C 250.17 112.58 259.05 113.87 262.30 109.30 C 265.54 104.72 265.66 98.62 269.00 94.00
C 265.39 89.37 261.92 84.22 259.00 79.00
C 266.70 74.88 268.95 65.98 276.75 61.75 C 284.55 57.52 290.38 71.80 299.68 66.68 C 308.98 61.56 315.24 57.85 314.00 45.00
C 323.67 45.00 333.33 45.00 343.00 45.00
M 228.00 124.00 
C 226.82 133.34 225.02 149.53 229.71 155.30 C 234.40 161.08 242.39 159.81 249.00 161.00
C 245.48 169.47 234.27 176.10 243.25 185.75 C 252.22 195.41 261.09 201.87 269.75 212.25 C 278.42 222.62 287.71 213.82 296.00 208.00
C 299.07 215.05 294.73 229.55 305.75 229.39 C 316.78 229.24 339.49 229.02 350.74 229.60 C 361.99 230.17 357.22 215.30 362.00 209.00
C 369.83 213.98 378.71 222.63 387.75 212.75 C 396.79 202.88 405.29 195.79 414.25 186.25 C 423.20 176.71 411.37 169.44 408.00 161.00
C 415.02 160.07 422.56 160.85 427.25 155.25 C 431.95 149.66 427.47 133.84 429.00 124.00
C 437.17 123.90 448.27 123.77 453.25 126.19 C 458.24 128.61 464.03 132.49 466.59 138.75 C 469.15 145.02 469.09 154.22 469.00 164.00 C 468.91 173.78 469.03 185.59 469.00 196.00 C 468.97 206.41 469.00 218.28 469.00 229.00 C 469.00 239.72 468.96 251.15 469.00 262.00 C 469.04 272.85 468.90 283.01 469.00 294.00 C 469.10 304.99 468.77 315.79 469.00 327.00 C 469.23 338.21 468.50 348.42 469.00 360.00 C 469.50 371.58 467.89 380.67 469.00 393.00 C 470.11 405.33 456.44 402.01 446.00 402.00 C 435.56 401.99 423.72 402.00 413.00 402.00 C 402.28 402.00 390.80 402.00 380.00 402.00 C 369.20 402.00 358.86 402.00 348.00 402.00 C 337.14 402.00 325.92 402.00 315.00 402.00 C 304.08 402.00 292.94 401.99 282.00 402.00 C 271.06 402.01 259.91 401.99 249.00 402.00 C 238.09 402.01 227.93 401.97 217.00 402.00 C 206.07 402.03 195.00 401.93 184.00 402.00 C 173.00 402.07 162.07 401.85 151.00 402.00 C 139.93 402.15 130.30 401.65 119.00 402.00 C 107.70 402.35 97.81 401.25 86.00 402.00 C 74.19 402.75 65.85 400.35 53.00 402.00 C 40.15 403.65 42.68 389.74 43.00 379.00 C 43.32 368.26 42.86 357.84 43.00 347.00 C 43.14 336.16 42.93 324.92 43.00 314.00 C 43.07 303.08 42.96 291.96 43.00 281.00 C 43.04 270.04 42.96 260.08 43.00 249.00 C 43.04 237.92 42.93 227.34 43.00 216.00 C 43.07 204.66 42.86 194.83 43.00 183.00 C 43.14 171.17 42.69 162.88 43.00 150.00 C 43.31 137.12 53.42 125.95 64.75 124.74 C 76.08 123.52 85.79 124.07 97.00 124.00 C 108.21 123.93 117.96 124.03 129.00 124.00 C 140.04 123.97 150.98 124.01 162.00 124.00 C 173.02 123.99 183.99 124.01 195.00 124.00 C 206.01 123.99 216.99 124.01 228.00 124.00
M 497.00 419.00 
C 501.14 450.82 480.00 469.43 449.00 467.00 C 418.00 464.57 384.56 467.89 353.00 467.00 C 321.44 466.11 287.70 466.98 256.00 467.00 C 224.30 467.02 191.53 466.02 160.00 467.00 C 128.47 467.98 95.05 464.41 64.00 467.00 C 32.95 469.59 10.51 451.50 15.00 419.00
C 175.66 419.00 336.33 419.00 497.00 419.00 Z"/>
</g>
<g fill="#FFFFFF" fill-opacity="0.96" stroke="None">
<path d="
M 343.00 45.00 
C 333.33 45.00 323.67 45.00 314.00 45.00
C 315.24 57.85 308.98 61.56 299.68 66.68 C 290.38 71.80 284.55 57.52 276.75 61.75 C 268.95 65.98 266.70 74.88 259.00 79.00
C 261.92 84.22 265.39 89.37 269.00 94.00
C 265.66 98.62 265.54 104.72 262.30 109.30 C 259.05 113.87 250.17 112.58 245.00 114.00
C 244.99 122.11 245.02 130.96 245.00 139.00 C 244.99 147.04 256.51 144.14 262.00 146.00
C 263.50 152.31 266.78 157.93 269.00 164.00
C 264.76 167.38 263.25 173.59 259.00 177.00
C 264.96 184.45 272.99 190.51 279.00 198.00
C 284.54 196.63 288.27 189.56 293.98 189.02 C 299.69 188.48 305.15 195.52 311.00 195.00
C 311.35 200.85 313.33 206.26 314.00 212.00
C 323.67 212.00 333.33 212.00 343.00 212.00
C 340.60 191.53 365.48 182.98 378.00 198.00
C 383.96 190.55 391.99 184.49 398.00 177.00
C 393.76 173.62 392.25 167.41 388.00 164.00
C 390.36 158.00 393.87 152.35 395.00 146.00
C 401.13 144.64 412.62 146.41 412.00 138.00 C 411.38 129.59 412.47 122.31 412.00 114.00
C 400.61 114.40 394.77 110.47 391.31 100.69 C 387.84 90.92 392.99 87.39 398.00 79.00
C 392.65 73.13 388.30 71.71 383.25 64.75 C 378.19 57.79 371.82 62.45 366.08 67.08 C 360.35 71.71 352.44 62.02 346.00 62.00
C 345.65 56.15 343.67 50.74 343.00 45.00
M 337.00 87.00 
C 366.81 92.34 380.72 132.38 361.08 155.08 C 341.45 177.78 303.23 175.38 290.23 145.77 C 277.23 116.16 303.59 81.01 337.00 87.00 Z"/>
</g>
<g fill="#000000" fill-opacity="0.00" stroke="None">
<path d="
M 337.00 87.00 
C 303.59 81.01 277.23 116.16 290.23 145.77 C 303.23 175.38 341.45 177.78 361.08 155.08 C 380.72 132.38 366.81 92.34 337.00 87.00 Z"/>
</g>
<g fill="#000000" fill-opacity="0.98" stroke="None">
<path d="
M 228.00 124.00 
C 216.99 124.01 206.01 123.99 195.00 124.00 C 183.99 124.01 173.02 123.99 162.00 124.00 C 150.98 124.01 140.04 123.97 129.00 124.00 C 117.96 124.03 108.21 123.93 97.00 124.00 C 85.79 124.07 76.08 123.52 64.75 124.74 C 53.42 125.95 43.31 137.12 43.00 150.00 C 42.69 162.88 43.14 171.17 43.00 183.00 C 42.86 194.83 43.07 204.66 43.00 216.00 C 42.93 227.34 43.04 237.92 43.00 249.00 C 42.96 260.08 43.04 270.04 43.00 281.00 C 42.96 291.96 43.07 303.08 43.00 314.00 C 42.93 324.92 43.14 336.16 43.00 347.00 C 42.86 357.84 43.32 368.26 43.00 379.00 C 42.68 389.74 40.15 403.65 53.00 402.00 C 65.85 400.35 74.19 402.75 86.00 402.00 C 97.81 401.25 107.70 402.35 119.00 402.00 C 130.30 401.65 139.93 402.15 151.00 402.00 C 162.07 401.85 173.00 402.07 184.00 402.00 C 195.00 401.93 206.07 402.03 217.00 402.00 C 227.93 401.97 238.09 402.01 249.00 402.00 C 259.91 401.99 271.06 402.01 282.00 402.00 C 292.94 401.99 304.08 402.00 315.00 402.00 C 325.92 402.00 337.14 402.00 348.00 402.00 C 358.86 402.00 369.20 402.00 380.00 402.00 C 390.80 402.00 402.28 402.00 413.00 402.00 C 423.72 402.00 435.56 401.99 446.00 402.00 C 456.44 402.01 470.11 405.33 469.00 393.00 C 467.89 380.67 469.50 371.58 469.00 360.00 C 468.50 348.42 469.23 338.21 469.00 327.00 C 468.77 315.79 469.10 304.99 469.00 294.00 C 468.90 283.01 469.04 272.85 469.00 262.00 C 468.96 251.15 469.00 239.72 469.00 229.00 C 469.00 218.28 468.97 206.41 469.00 196.00 C 469.03 185.59 468.91 173.78 469.00 164.00 C 469.09 154.22 469.15 145.02 466.59 138.75 C 464.03 132.49 458.24 128.61 453.25 126.19 C 448.27 123.77 437.17 123.90 429.00 124.00
C 427.47 133.84 431.95 149.66 427.25 155.25 C 422.56 160.85 415.02 160.07 408.00 161.00
C 411.37 169.44 423.20 176.71 414.25 186.25 C 405.29 195.79 396.79 202.88 387.75 212.75 C 378.71 222.63 369.83 213.98 362.00 209.00
C 357.22 215.30 361.99 230.17 350.74 229.60 C 339.49 229.02 316.78 229.24 305.75 229.39 C 294.73 229.55 299.07 215.05 296.00 208.00
C 287.71 213.82 278.42 222.62 269.75 212.25 C 261.09 201.87 252.22 195.41 243.25 185.75 C 234.27 176.10 245.48 169.47 249.00 161.00
C 242.39 159.81 234.40 161.08 229.71 155.30 C 225.02 149.53 226.82 133.34 228.00 124.00
M 202.00 241.00 
C 212.32 245.68 218.39 248.19 227.25 256.75 C 236.12 265.30 244.32 273.41 246.39 281.75 C 248.47 290.10 256.54 300.16 253.65 311.69 C 250.75 323.23 260.29 349.47 245.75 350.19 C 231.20 350.91 208.16 349.98 192.00 350.00 C 175.84 350.02 152.88 350.95 137.00 350.00 C 121.12 349.05 98.00 352.53 84.92 350.07 C 71.84 347.60 81.50 319.31 79.99 308.99 C 78.48 298.67 83.06 288.15 86.19 280.75 C 89.32 273.35 97.29 262.95 105.75 255.41 C 114.22 247.87 121.56 245.13 132.00 241.00
C 102.57 212.48 125.94 161.04 167.01 161.99 C 208.07 162.95 228.00 210.00 202.00 241.00 Z"/>
</g>
<g fill="#000000" fill-opacity="0.02" stroke="None">
<path d="
M 202.00 241.00 
C 228.00 210.00 208.07 162.95 167.01 161.99 C 125.94 161.04 102.57 212.48 132.00 241.00
C 121.56 245.13 114.22 247.87 105.75 255.41 C 97.29 262.95 89.32 273.35 86.19 280.75 C 83.06 288.15 78.48 298.67 79.99 308.99 C 81.50 319.31 71.84 347.60 84.92 350.07 C 98.00 352.53 121.12 349.05 137.00 350.00 C 152.88 350.95 175.84 350.02 192.00 350.00 C 208.16 349.98 231.20 350.91 245.75 350.19 C 260.29 349.47 250.75 323.23 253.65 311.69 C 256.54 300.16 248.47 290.10 246.39 281.75 C 244.32 273.41 236.12 265.30 227.25 256.75 C 218.39 248.19 212.32 245.68 202.00 241.00
M 161.00 181.00 
C 181.39 177.20 199.41 198.55 192.65 218.70 C 185.89 238.84 159.98 241.70 145.75 226.25 C 131.52 210.80 141.18 184.69 161.00 181.00
M 234.00 331.00 
C 189.00 331.00 144.00 331.00 99.00 331.00
C 99.46 306.36 98.85 290.34 113.26 275.25 C 127.68 260.16 140.67 258.38 164.00 258.00 C 187.33 257.62 205.05 259.51 218.75 275.25 C 232.46 290.99 234.56 304.87 234.00 331.00 Z"/>
</g>
<g fill="#000000" fill-opacity="0.98" stroke="None">
<path d="
M 161.00 181.00 
C 141.18 184.69 131.52 210.80 145.75 226.25 C 159.98 241.70 185.89 238.84 192.65 218.70 C 199.41 198.55 181.39 177.20 161.00 181.00 Z"/>
</g>
<g fill="#000000" fill-opacity="0.99" stroke="None">
<path d="
M 234.00 331.00 
C 234.56 304.87 232.46 290.99 218.75 275.25 C 205.05 259.51 187.33 257.62 164.00 258.00 C 140.67 258.38 127.68 260.16 113.26 275.25 C 98.85 290.34 99.46 306.36 99.00 331.00
C 144.00 331.00 189.00 331.00 234.00 331.00 Z"/>
</g>
<g fill="#FFFFFF" fill-opacity="0.98" stroke="None">
<path d="
M 497.00 419.00 
C 336.33 419.00 175.66 419.00 15.00 419.00
C 10.51 451.50 32.95 469.59 64.00 467.00 C 95.05 464.41 128.47 467.98 160.00 467.00 C 191.53 466.02 224.30 467.02 256.00 467.00 C 287.70 466.98 321.44 466.11 353.00 467.00 C 384.56 467.89 418.00 464.57 449.00 467.00 C 480.00 469.43 501.14 450.82 497.00 419.00 Z"/>
</g>
</svg>