<svg xmlns="http://www.w3.org/2000/svg" xmlns:v="https://svgstorm.com"
viewBox = "0 0 512 512"
width="512"
height="512">
<g fill="None" fill-opacity="0.0" stroke="#000000" stroke-opacity="0.13" stroke-width="0.3"><path d="
M 0.00 21.00 
C 1.11 9.05 8.97 1.13 21.00 0.00
L 0.00 0.00
L 0.00 21.00 Z"/>
</g>
<g fill="None" fill-opacity="0.0" stroke="#000000" stroke-opacity="0.99" stroke-width="0.3"><path d="
M 0.00 21.00 
L 0.00 240.00
C 2.26 241.24 0.86 243.24 2.00 245.00
C 20.35 249.21 14.56 226.81 15.00 208.00 C 15.44 189.19 14.81 164.04 15.00 144.00 C 15.19 123.96 14.93 100.41 15.00 80.00 C 15.07 59.59 15.00 37.62 15.00 18.00
C 31.31 12.22 51.33 15.63 71.00 15.00 C 90.67 14.37 112.89 15.28 133.00 15.00 C 153.11 14.72 173.70 15.10 194.00 15.00 C 214.30 14.90 235.65 15.00 256.00 15.00 C 276.35 15.00 296.69 14.88 317.00 15.00 C 337.31 15.12 358.87 14.70 379.00 15.00 C 399.13 15.30 420.31 14.31 440.00 15.00 C 459.69 15.69 480.62 12.12 497.00 18.00
C 497.00 125.83 497.00 235.47 497.00 344.00
C 336.33 344.00 175.67 344.00 15.00 344.00
C 16.16 327.33 13.45 306.22 15.00 290.00 C 16.55 273.78 13.57 259.56 0.00 270.00
L 0.00 380.00
C 5.10 399.33 17.29 398.93 40.00 398.00 C 62.71 397.07 90.35 398.49 114.00 398.00 C 137.65 397.51 164.10 398.36 188.00 398.00
C 186.18 410.09 190.80 435.64 186.81 444.25 C 182.81 452.86 182.39 464.99 168.00 467.00 C 153.60 469.01 129.92 466.73 115.00 467.00 C 100.08 467.27 88.28 466.56 86.08 482.08 C 83.89 497.60 87.93 508.61 100.00 512.00
L 329.00 512.00
C 338.74 501.38 329.43 495.47 313.00 497.00 C 296.57 498.53 277.10 496.30 260.00 497.00 C 242.90 497.70 224.40 496.67 207.00 497.00 C 189.60 497.33 171.53 496.83 154.00 497.00 C 136.47 497.17 118.56 496.87 101.00 497.00
C 98.16 485.52 102.34 479.54 113.00 481.00 C 123.66 482.46 131.95 480.32 142.00 481.00 C 152.05 481.68 160.26 480.70 170.00 481.00 C 179.74 481.30 189.38 480.87 199.00 481.00 C 208.62 481.13 217.43 480.95 227.00 481.00 C 236.57 481.05 246.45 481.00 256.00 481.00 C 265.55 481.00 274.43 481.05 284.00 481.00 C 293.57 480.95 303.38 481.14 313.00 481.00 C 322.62 480.86 331.23 481.32 341.00 481.00 C 350.77 480.68 359.94 481.70 370.00 481.00 C 380.06 480.30 387.24 482.60 398.00 481.00 C 408.76 479.40 414.35 484.85 411.00 497.00
C 400.84 497.23 389.00 496.69 379.00 497.00 C 369.00 497.31 359.32 495.02 353.00 501.00
C 353.63 503.16 353.60 505.77 353.00 508.00
C 355.07 508.69 357.09 510.63 359.00 512.00
L 415.00 512.00
C 420.04 507.76 425.26 504.07 425.99 494.99 C 426.73 485.92 425.54 472.88 418.10 468.90 C 410.66 464.92 399.20 466.99 388.00 467.00 C 376.80 467.01 361.18 465.94 350.00 467.00 C 338.82 468.06 332.74 461.19 329.42 454.23 C 326.11 447.27 324.27 445.43 324.34 435.32 C 324.41 425.22 326.48 408.43 324.00 398.00
C 347.88 398.38 374.38 397.50 398.00 398.00 C 421.62 398.50 449.33 397.03 472.00 398.00 C 494.67 398.97 507.94 399.50 512.00 379.00
L 512.00 16.00
C 508.49 8.76 502.40 1.33 493.00 0.00
L 21.00 0.00
C 8.97 1.13 1.11 9.05 0.00 21.00
M 497.00 358.00 
C 496.21 367.02 499.19 377.63 494.00 384.00
C 336.74 382.33 175.23 382.33 18.00 384.00
C 12.83 377.75 15.78 366.94 15.00 358.00
C 175.66 358.00 336.33 358.00 497.00 358.00
M 320.00 467.00 
C 277.33 467.00 234.67 467.00 192.00 467.00
C 198.43 457.51 202.11 449.85 202.60 438.25 C 203.10 426.65 202.80 420.43 202.00 408.00 C 201.20 395.57 212.26 397.42 223.00 398.00 C 233.74 398.58 244.66 397.37 255.00 398.00 C 265.34 398.63 276.20 396.88 286.00 398.00 C 295.80 399.12 309.47 392.78 310.00 405.00 C 310.53 417.22 308.89 422.32 309.22 435.22 C 309.56 448.13 313.04 457.51 320.00 467.00 Z"/>
</g>
<g fill="None" fill-opacity="0.0" stroke="#000000" stroke-opacity="0.08" stroke-width="0.3"><path d="
M 512.00 16.00 
L 512.00 0.00
L 493.00 0.00
C 502.40 1.33 508.49 8.76 512.00 16.00 Z"/>
</g>
<g fill="None" fill-opacity="0.0" stroke="#000000" stroke-opacity="0.03" stroke-width="0.3"><path d="
M 0.00 240.00 
L 0.00 270.00
C 13.57 259.56 16.55 273.78 15.00 290.00 C 13.45 306.22 16.16 327.33 15.00 344.00
C 175.67 344.00 336.33 344.00 497.00 344.00
C 497.00 235.47 497.00 125.83 497.00 18.00
C 480.62 12.12 459.69 15.69 440.00 15.00 C 420.31 14.31 399.13 15.30 379.00 15.00 C 358.87 14.70 337.31 15.12 317.00 15.00 C 296.69 14.88 276.35 15.00 256.00 15.00 C 235.65 15.00 214.30 14.90 194.00 15.00 C 173.70 15.10 153.11 14.72 133.00 15.00 C 112.89 15.28 90.67 14.37 71.00 15.00 C 51.33 15.63 31.31 12.22 15.00 18.00
C 15.00 37.62 15.07 59.59 15.00 80.00 C 14.93 100.41 15.19 123.96 15.00 144.00 C 14.81 164.04 15.44 189.19 15.00 208.00 C 14.56 226.81 20.35 249.21 2.00 245.00
C 0.86 243.24 2.26 241.24 0.00 240.00
M 472.00 106.00 
C 463.50 93.85 466.23 77.42 467.00 59.00 C 467.77 40.58 451.13 44.87 433.00 45.00 C 414.87 45.13 394.51 44.94 376.00 45.00 C 357.49 45.06 338.69 44.97 320.00 45.00 C 301.31 45.03 281.77 44.98 263.00 45.00
C 263.00 92.67 263.00 140.33 263.00 188.00
C 330.41 186.33 399.62 186.33 467.00 188.00
C 465.57 173.04 468.91 151.29 467.00 137.00 C 465.09 122.71 482.48 121.04 482.00 136.00 C 481.52 150.96 482.14 171.13 482.00 187.00 C 481.86 202.87 481.92 223.12 482.00 239.00 C 482.08 254.88 481.62 274.99 482.00 290.00 C 482.38 305.01 482.79 317.64 472.75 324.75 C 462.71 331.86 451.25 328.08 435.00 329.00 C 418.75 329.92 400.76 328.60 384.00 329.00 C 367.24 329.40 348.98 328.82 332.00 329.00 C 315.02 329.18 298.08 328.95 281.00 329.00 C 263.92 329.05 246.11 329.02 229.00 329.00 C 211.89 328.98 194.00 329.12 177.00 329.00 C 160.00 328.88 142.76 329.31 126.00 329.00 C 109.24 328.69 90.28 329.68 74.00 329.00 C 57.72 328.32 48.04 331.42 38.25 323.74 C 28.46 316.05 30.85 304.57 31.00 289.00 C 31.15 273.43 30.83 253.37 31.00 237.00 C 31.17 220.63 30.69 202.67 31.00 186.00 C 31.31 169.33 30.35 150.62 31.00 134.00 C 31.65 117.38 29.55 99.19 31.00 83.00 C 32.45 66.81 26.23 52.25 34.11 40.11 C 41.99 27.96 53.55 30.90 69.00 31.00 C 84.45 31.10 103.59 30.95 120.00 31.00 C 136.41 31.05 155.19 30.97 172.00 31.00 C 188.81 31.03 206.00 30.96 223.00 31.00 C 240.00 31.04 257.93 30.94 275.00 31.00 C 292.07 31.06 310.04 30.87 327.00 31.00 C 343.96 31.13 361.31 30.71 378.00 31.00 C 394.69 31.29 413.88 30.37 430.00 31.00 C 446.12 31.63 461.25 27.54 472.77 35.23 C 484.29 42.93 481.80 57.15 481.00 71.00 C 480.20 84.85 486.90 105.87 472.00 106.00
M 373.00 68.00 
C 373.01 84.93 351.59 76.38 336.00 78.00 C 320.41 79.62 298.06 75.99 283.00 79.00
C 275.01 69.82 280.02 62.11 293.00 64.00 C 305.98 65.89 323.83 62.49 337.00 64.00 C 350.17 65.51 364.47 60.05 373.00 68.00
M 278.00 103.00 
C 279.40 88.06 303.16 95.74 315.00 94.00 C 326.84 92.26 327.14 110.60 314.97 108.98 C 302.81 107.36 281.57 113.23 278.00 103.00
M 448.00 94.00 
C 455.33 104.15 449.37 110.23 435.00 109.00 C 420.63 107.77 402.75 109.62 388.00 109.00 C 373.25 108.38 357.06 109.41 343.00 109.00
C 340.08 105.11 339.93 103.76 339.00 99.00
C 340.68 97.50 342.59 96.22 343.00 94.00
C 376.92 94.02 413.99 94.00 448.00 94.00
M 391.00 135.00 
C 381.13 143.16 364.78 137.42 350.00 139.00 C 335.22 140.58 314.62 137.12 300.00 139.00 C 285.38 140.88 272.51 136.86 283.00 124.00
C 300.45 125.49 325.43 122.05 343.00 124.00 C 360.57 125.95 387.98 115.76 391.00 135.00
M 410.00 124.00 
C 418.47 124.70 435.17 126.42 444.00 125.00 C 452.83 123.58 454.22 135.74 447.23 138.57 C 440.24 141.40 422.69 137.36 414.00 139.00 C 405.31 140.64 404.17 128.90 410.00 124.00
M 352.00 169.00 
C 330.23 169.76 306.02 167.60 284.00 170.00
C 274.75 162.20 279.39 153.59 292.00 154.00 C 304.61 154.41 323.23 154.69 336.00 154.00 C 348.77 153.31 359.00 157.62 352.00 169.00 Z"/>
</g>
<g fill="None" fill-opacity="0.0" stroke="#000000" stroke-opacity="0.97" stroke-width="0.3"><path d="
M 472.00 106.00 
C 486.90 105.87 480.20 84.85 481.00 71.00 C 481.80 57.15 484.29 42.93 472.77 35.23 C 461.25 27.54 446.12 31.63 430.00 31.00 C 413.88 30.37 394.69 31.29 378.00 31.00 C 361.31 30.71 343.96 31.13 327.00 31.00 C 310.04 30.87 292.07 31.06 275.00 31.00 C 257.93 30.94 240.00 31.04 223.00 31.00 C 206.00 30.96 188.81 31.03 172.00 31.00 C 155.19 30.97 136.41 31.05 120.00 31.00 C 103.59 30.95 84.45 31.10 69.00 31.00 C 53.55 30.90 41.99 27.96 34.11 40.11 C 26.23 52.25 32.45 66.81 31.00 83.00 C 29.55 99.19 31.65 117.38 31.00 134.00 C 30.35 150.62 31.31 169.33 31.00 186.00 C 30.69 202.67 31.17 220.63 31.00 237.00 C 30.83 253.37 31.15 273.43 31.00 289.00 C 30.85 304.57 28.46 316.05 38.25 323.74 C 48.04 331.42 57.72 328.32 74.00 329.00 C 90.28 329.68 109.24 328.69 126.00 329.00 C 142.76 329.31 160.00 328.88 177.00 329.00 C 194.00 329.12 211.89 328.98 229.00 329.00 C 246.11 329.02 263.92 329.05 281.00 329.00 C 298.08 328.95 315.02 329.18 332.00 329.00 C 348.98 328.82 367.24 329.40 384.00 329.00 C 400.76 328.60 418.75 329.92 435.00 329.00 C 451.25 328.08 462.71 331.86 472.75 324.75 C 482.79 317.64 482.38 305.01 482.00 290.00 C 481.62 274.99 482.08 254.88 482.00 239.00 C 481.92 223.12 481.86 202.87 482.00 187.00 C 482.14 171.13 481.52 150.96 482.00 136.00 C 482.48 121.04 465.09 122.71 467.00 137.00 C 468.91 151.29 465.57 173.04 467.00 188.00
C 399.62 186.33 330.41 186.33 263.00 188.00
C 263.00 140.33 263.00 92.67 263.00 45.00
C 281.77 44.98 301.31 45.03 320.00 45.00 C 338.69 44.97 357.49 45.06 376.00 45.00 C 394.51 44.94 414.87 45.13 433.00 45.00 C 451.13 44.87 467.77 40.58 467.00 59.00 C 466.23 77.42 463.50 93.85 472.00 106.00
M 249.00 45.00 
C 249.00 92.67 249.00 140.33 249.00 188.00
C 239.33 188.00 229.67 188.00 220.00 188.00
C 219.92 161.85 198.72 134.80 173.00 127.00
C 199.43 101.14 177.55 59.38 144.78 60.78 C 112.01 62.18 97.61 103.82 121.00 126.00
C 97.12 134.35 73.23 160.94 74.00 188.00
C 64.91 186.34 54.07 186.35 45.00 188.00
C 44.89 173.27 45.14 158.75 45.00 144.00 C 44.86 129.25 45.27 114.82 45.00 100.00 C 44.73 85.18 45.58 71.00 45.00 56.00 C 44.42 41.00 58.44 45.26 72.00 45.00 C 85.56 44.74 101.81 45.12 116.00 45.00 C 130.19 44.88 145.51 45.06 160.00 45.00 C 174.49 44.94 189.32 45.03 204.00 45.00 C 218.68 44.97 234.24 45.02 249.00 45.00
M 144.00 75.00 
C 160.04 72.51 173.28 89.77 168.81 105.25 C 164.34 120.74 141.45 127.72 129.75 113.25 C 118.05 98.78 126.94 77.65 144.00 75.00
M 206.00 188.00 
C 167.26 186.33 126.72 186.33 88.00 188.00
C 90.77 157.69 119.78 136.22 149.00 137.00 C 178.23 137.77 200.63 158.10 206.00 188.00
M 176.00 202.00 
C 174.33 238.74 174.33 277.28 176.00 314.00
C 172.33 314.00 168.67 314.00 165.00 314.00
C 163.68 295.95 150.18 277.04 134.00 272.00
C 136.52 265.65 141.31 252.87 138.69 244.30 C 136.08 235.74 131.31 228.86 123.08 224.87 C 114.85 220.89 105.86 221.35 98.08 225.13 C 90.31 228.91 83.94 235.86 82.65 244.70 C 81.36 253.54 82.40 264.30 88.00 271.00
C 70.81 277.64 57.68 295.16 56.00 314.00
C 36.89 310.95 46.81 285.66 45.00 267.00 C 43.19 248.34 46.35 221.41 45.00 202.00
C 88.67 202.00 132.33 202.00 176.00 202.00
M 311.00 314.00 
C 308.89 295.42 294.48 275.67 278.00 271.00
C 294.44 251.15 280.27 223.23 256.00 223.00 C 231.72 222.77 217.84 251.51 234.00 271.00
C 217.70 275.72 203.28 295.54 201.00 314.00
C 184.41 317.00 190.96 300.00 190.00 288.00 C 189.04 276.00 190.92 262.94 190.00 250.00 C 189.08 237.06 191.49 226.06 190.00 212.00 C 188.51 197.94 206.31 202.01 218.00 202.00 C 229.69 201.99 244.23 201.85 256.00 202.00 C 267.77 202.15 281.66 201.56 293.00 202.00 C 304.34 202.44 322.93 197.37 322.00 211.00 C 321.07 224.63 322.70 236.26 322.00 249.00 C 321.30 261.74 322.92 275.10 322.00 287.00 C 321.08 298.90 327.78 317.13 311.00 314.00
M 467.00 202.00 
C 463.20 220.63 468.63 246.57 466.00 265.00 C 463.37 283.43 475.09 310.99 456.00 314.00
C 454.47 295.90 441.53 277.47 425.00 272.00
C 426.50 264.89 431.73 256.63 430.40 247.26 C 429.08 237.88 423.32 229.94 415.23 225.43 C 407.14 220.92 398.42 221.14 389.75 224.19 C 381.08 227.25 376.02 236.73 373.65 244.70 C 371.28 252.67 374.99 265.00 378.00 272.00
C 361.91 276.96 348.38 295.84 347.00 314.00
C 343.33 314.00 339.67 314.00 336.00 314.00
C 337.67 277.26 337.67 238.72 336.00 202.00
C 379.67 202.00 423.33 202.00 467.00 202.00
M 107.00 237.00 
C 124.59 233.77 131.87 260.07 114.08 265.13 C 96.30 270.20 89.32 240.25 107.00 237.00
M 253.00 237.00 
C 270.10 235.20 277.08 258.86 259.75 264.80 C 242.42 270.74 233.98 239.00 253.00 237.00
M 398.00 237.00 
C 415.84 233.72 422.90 261.49 404.70 265.71 C 386.49 269.94 381.04 240.12 398.00 237.00
M 150.00 314.00 
C 123.67 314.00 97.33 314.00 71.00 314.00
C 74.36 295.52 91.24 280.24 110.03 280.02 C 128.81 279.81 147.62 295.87 150.00 314.00
M 296.00 313.00 
C 269.92 314.67 242.05 314.66 216.00 313.00
C 220.69 295.37 236.37 280.01 256.07 280.07 C 275.77 280.14 291.17 294.99 296.00 313.00
M 441.00 314.00 
C 414.67 314.00 388.33 314.00 362.00 314.00
C 364.25 297.55 381.28 280.57 400.08 280.07 C 418.87 279.58 438.16 294.79 441.00 314.00 Z"/>
</g>
<g fill="None" fill-opacity="0.0" stroke="#000000" stroke-opacity="0.02" stroke-width="0.3"><path d="
M 249.00 45.00 
C 234.24 45.02 218.68 44.97 204.00 45.00 C 189.32 45.03 174.49 44.94 160.00 45.00 C 145.51 45.06 130.19 44.88 116.00 45.00 C 101.81 45.12 85.56 44.74 72.00 45.00 C 58.44 45.26 44.42 41.00 45.00 56.00 C 45.58 71.00 44.73 85.18 45.00 100.00 C 45.27 114.82 44.86 129.25 45.00 144.00 C 45.14 158.75 44.89 173.27 45.00 188.00
C 54.07 186.35 64.91 186.34 74.00 188.00
C 73.23 160.94 97.12 134.35 121.00 126.00
C 97.61 103.82 112.01 62.18 144.78 60.78 C 177.55 59.38 199.43 101.14 173.00 127.00
C 198.72 134.80 219.92 161.85 220.00 188.00
C 229.67 188.00 239.33 188.00 249.00 188.00
C 249.00 140.33 249.00 92.67 249.00 45.00 Z"/>
</g>
<g fill="None" fill-opacity="0.0" stroke="#000000" stroke-opacity="0.99" stroke-width="0.3"><path d="
M 373.00 68.00 
C 364.47 60.05 350.17 65.51 337.00 64.00 C 323.83 62.49 305.98 65.89 293.00 64.00 C 280.02 62.11 275.01 69.82 283.00 79.00
C 298.06 75.99 320.41 79.62 336.00 78.00 C 351.59 76.38 373.01 84.93 373.00 68.00 Z"/>
</g>
<g fill="None" fill-opacity="0.0" stroke="#000000" stroke-opacity="0.03" stroke-width="0.3"><path d="
M 144.00 75.00 
C 126.94 77.65 118.05 98.78 129.75 113.25 C 141.45 127.72 164.34 120.74 168.81 105.25 C 173.28 89.77 160.04 72.51 144.00 75.00 Z"/>
</g>
<g fill="None" fill-opacity="0.0" stroke="#000000" stroke-opacity="0.98" stroke-width="0.3"><path d="
M 278.00 103.00 
C 281.57 113.23 302.81 107.36 314.97 108.98 C 327.14 110.60 326.84 92.26 315.00 94.00 C 303.16 95.74 279.40 88.06 278.00 103.00 Z"/>
</g>
<g fill="None" fill-opacity="0.0" stroke="#000000" stroke-opacity="0.99" stroke-width="0.3"><path d="
M 448.00 94.00 
C 413.99 94.00 376.92 94.02 343.00 94.00
C 342.59 96.22 340.68 97.50 339.00 99.00
C 339.93 103.76 340.08 105.11 343.00 109.00
C 357.06 109.41 373.25 108.38 388.00 109.00 C 402.75 109.62 420.63 107.77 435.00 109.00 C 449.37 110.23 455.33 104.15 448.00 94.00 Z"/>
</g>
<g fill="None" fill-opacity="0.0" stroke="#000000" stroke-opacity="0.98" stroke-width="0.3"><path d="
M 391.00 135.00 
C 387.98 115.76 360.57 125.95 343.00 124.00 C 325.43 122.05 300.45 125.49 283.00 124.00
C 272.51 136.86 285.38 140.88 300.00 139.00 C 314.62 137.12 335.22 140.58 350.00 139.00 C 364.78 137.42 381.13 143.16 391.00 135.00 Z"/>
</g>
<g fill="None" fill-opacity="0.0" stroke="#000000" stroke-opacity="0.98" stroke-width="0.3"><path d="
M 410.00 124.00 
C 404.17 128.90 405.31 140.64 414.00 139.00 C 422.69 137.36 440.24 141.40 447.23 138.57 C 454.22 135.74 452.83 123.58 444.00 125.00 C 435.17 126.42 418.47 124.70 410.00 124.00 Z"/>
</g>
<g fill="None" fill-opacity="0.0" stroke="#000000" stroke-opacity="0.01" stroke-width="0.3"><path d="
M 206.00 188.00 
C 200.63 158.10 178.23 137.77 149.00 137.00 C 119.78 136.22 90.77 157.69 88.00 188.00
C 126.72 186.33 167.26 186.33 206.00 188.00 Z"/>
</g>
<g fill="None" fill-opacity="0.0" stroke="#000000" stroke-opacity="0.96" stroke-width="0.3"><path d="
M 352.00 169.00 
C 359.00 157.62 348.77 153.31 336.00 154.00 C 323.23 154.69 304.61 154.41 292.00 154.00 C 279.39 153.59 274.75 162.20 284.00 170.00
C 306.02 167.60 330.23 169.76 352.00 169.00 Z"/>
</g>
<g fill="None" fill-opacity="0.0" stroke="#000000" stroke-opacity="0.03" stroke-width="0.3"><path d="
M 176.00 202.00 
C 132.33 202.00 88.67 202.00 45.00 202.00
C 46.35 221.41 43.19 248.34 45.00 267.00 C 46.81 285.66 36.89 310.95 56.00 314.00
C 57.68 295.16 70.81 277.64 88.00 271.00
C 82.40 264.30 81.36 253.54 82.65 244.70 C 83.94 235.86 90.31 228.91 98.08 225.13 C 105.86 221.35 114.85 220.89 123.08 224.87 C 131.31 228.86 136.08 235.74 138.69 244.30 C 141.31 252.87 136.52 265.65 134.00 272.00
C 150.18 277.04 163.68 295.95 165.00 314.00
C 168.67 314.00 172.33 314.00 176.00 314.00
C 174.33 277.28 174.33 238.74 176.00 202.00 Z"/>
</g>
<g fill="None" fill-opacity="0.0" stroke="#000000" stroke-opacity="0.04" stroke-width="0.3"><path d="
M 311.00 314.00 
C 327.78 317.13 321.08 298.90 322.00 287.00 C 322.92 275.10 321.30 261.74 322.00 249.00 C 322.70 236.26 321.07 224.63 322.00 211.00 C 322.93 197.37 304.34 202.44 293.00 202.00 C 281.66 201.56 267.77 202.15 256.00 202.00 C 244.23 201.85 229.69 201.99 218.00 202.00 C 206.31 202.01 188.51 197.94 190.00 212.00 C 191.49 226.06 189.08 237.06 190.00 250.00 C 190.92 262.94 189.04 276.00 190.00 288.00 C 190.96 300.00 184.41 317.00 201.00 314.00
C 203.28 295.54 217.70 275.72 234.00 271.00
C 217.84 251.51 231.72 222.77 256.00 223.00 C 280.27 223.23 294.44 251.15 278.00 271.00
C 294.48 275.67 308.89 295.42 311.00 314.00 Z"/>
</g>
<g fill="None" fill-opacity="0.0" stroke="#000000" stroke-opacity="0.02" stroke-width="0.3"><path d="
M 467.00 202.00 
C 423.33 202.00 379.67 202.00 336.00 202.00
C 337.67 238.72 337.67 277.26 336.00 314.00
C 339.67 314.00 343.33 314.00 347.00 314.00
C 348.38 295.84 361.91 276.96 378.00 272.00
C 374.99 265.00 371.28 252.67 373.65 244.70 C 376.02 236.73 381.08 227.25 389.75 224.19 C 398.42 221.14 407.14 220.92 415.23 225.43 C 423.32 229.94 429.08 237.88 430.40 247.26 C 431.73 256.63 426.50 264.89 425.00 272.00
C 441.53 277.47 454.47 295.90 456.00 314.00
C 475.09 310.99 463.37 283.43 466.00 265.00 C 468.63 246.57 463.20 220.63 467.00 202.00 Z"/>
</g>
<g fill="None" fill-opacity="0.0" stroke="#000000" stroke-opacity="0.04" stroke-width="0.3"><path d="
M 107.00 237.00 
C 89.32 240.25 96.30 270.20 114.08 265.13 C 131.87 260.07 124.59 233.77 107.00 237.00 Z"/>
</g>
<g fill="None" fill-opacity="0.0" stroke="#000000" stroke-opacity="0.03" stroke-width="0.3"><path d="
M 253.00 237.00 
C 233.98 239.00 242.42 270.74 259.75 264.80 C 277.08 258.86 270.10 235.20 253.00 237.00 Z"/>
</g>
<g fill="None" fill-opacity="0.0" stroke="#000000" stroke-opacity="0.05" stroke-width="0.3"><path d="
M 398.00 237.00 
C 381.04 240.12 386.49 269.94 404.70 265.71 C 422.90 261.49 415.84 233.72 398.00 237.00 Z"/>
</g>
<g fill="None" fill-opacity="0.0" stroke="#000000" stroke-opacity="0.05" stroke-width="0.3"><path d="
M 150.00 314.00 
C 147.62 295.87 128.81 279.81 110.03 280.02 C 91.24 280.24 74.36 295.52 71.00 314.00
C 97.33 314.00 123.67 314.00 150.00 314.00 Z"/>
</g>
<g fill="None" fill-opacity="0.0" stroke="#000000" stroke-opacity="0.05" stroke-width="0.3"><path d="
M 296.00 313.00 
C 291.17 294.99 275.77 280.14 256.07 280.07 C 236.37 280.01 220.69 295.37 216.00 313.00
C 242.05 314.66 269.92 314.67 296.00 313.00 Z"/>
</g>
<g fill="None" fill-opacity="0.0" stroke="#000000" stroke-opacity="0.05" stroke-width="0.3"><path d="
M 441.00 314.00 
C 438.16 294.79 418.87 279.58 400.08 280.07 C 381.28 280.57 364.25 297.55 362.00 314.00
C 388.33 314.00 414.67 314.00 441.00 314.00 Z"/>
</g>
<g fill="None" fill-opacity="0.0" stroke="#000000" stroke-opacity="0.02" stroke-width="0.3"><path d="
M 497.00 358.00 
C 336.33 358.00 175.66 358.00 15.00 358.00
C 15.78 366.94 12.83 377.75 18.00 384.00
C 175.23 382.33 336.74 382.33 494.00 384.00
C 499.19 377.63 496.21 367.02 497.00 358.00 Z"/>
</g>
<g fill="None" fill-opacity="0.0" stroke="#000000" stroke-opacity="0.01" stroke-width="0.3"><path d="
M 415.00 512.00 
L 512.00 512.00
L 512.00 379.00
C 507.94 399.50 494.67 398.97 472.00 398.00 C 449.33 397.03 421.62 398.50 398.00 398.00 C 374.38 397.50 347.88 398.38 324.00 398.00
C 326.48 408.43 324.41 425.22 324.34 435.32 C 324.27 445.43 326.11 447.27 329.42 454.23 C 332.74 461.19 338.82 468.06 350.00 467.00 C 361.18 465.94 376.80 467.01 388.00 467.00 C 399.20 466.99 410.66 464.92 418.10 468.90 C 425.54 472.88 426.73 485.92 425.99 494.99 C 425.26 504.07 420.04 507.76 415.00 512.00 Z"/>
</g>
<g fill="None" fill-opacity="0.0" stroke="#000000" stroke-opacity="0.01" stroke-width="0.3"><path d="
M 0.00 512.00 
L 100.00 512.00
C 87.93 508.61 83.89 497.60 86.08 482.08 C 88.28 466.56 100.08 467.27 115.00 467.00 C 129.92 466.73 153.60 469.01 168.00 467.00 C 182.39 464.99 182.81 452.86 186.81 444.25 C 190.80 435.64 186.18 410.09 188.00 398.00
C 164.10 398.36 137.65 397.51 114.00 398.00 C 90.35 398.49 62.71 397.07 40.00 398.00 C 17.29 398.93 5.10 399.33 0.00 380.00
L 0.00 512.00 Z"/>
</g>
<g fill="None" fill-opacity="0.0" stroke="#000000" stroke-opacity="0.03" stroke-width="0.3"><path d="
M 320.00 467.00 
C 313.04 457.51 309.56 448.13 309.22 435.22 C 308.89 422.32 310.53 417.22 310.00 405.00 C 309.47 392.78 295.80 399.12 286.00 398.00 C 276.20 396.88 265.34 398.63 255.00 398.00 C 244.66 397.37 233.74 398.58 223.00 398.00 C 212.26 397.42 201.20 395.57 202.00 408.00 C 202.80 420.43 203.10 426.65 202.60 438.25 C 202.11 449.85 198.43 457.51 192.00 467.00
C 234.67 467.00 277.33 467.00 320.00 467.00 Z"/>
</g>
<g fill="None" fill-opacity="0.0" stroke="#000000" stroke-opacity="0.05" stroke-width="0.3"><path d="
M 329.00 512.00 
L 359.00 512.00
C 357.09 510.63 355.07 508.69 353.00 508.00
C 353.60 505.77 353.63 503.16 353.00 501.00
C 359.32 495.02 369.00 497.31 379.00 497.00 C 389.00 496.69 400.84 497.23 411.00 497.00
C 414.35 484.85 408.76 479.40 398.00 481.00 C 387.24 482.60 380.06 480.30 370.00 481.00 C 359.94 481.70 350.77 480.68 341.00 481.00 C 331.23 481.32 322.62 480.86 313.00 481.00 C 303.38 481.14 293.57 480.95 284.00 481.00 C 274.43 481.05 265.55 481.00 256.00 481.00 C 246.45 481.00 236.57 481.05 227.00 481.00 C 217.43 480.95 208.62 481.13 199.00 481.00 C 189.38 480.87 179.74 481.30 170.00 481.00 C 160.26 480.70 152.05 481.68 142.00 481.00 C 131.95 480.32 123.66 482.46 113.00 481.00 C 102.34 479.54 98.16 485.52 101.00 497.00
C 118.56 496.87 136.47 497.17 154.00 497.00 C 171.53 496.83 189.60 497.33 207.00 497.00 C 224.40 496.67 242.90 497.70 260.00 497.00 C 277.10 496.30 296.57 498.53 313.00 497.00 C 329.43 495.47 338.74 501.38 329.00 512.00 Z"/>
</g>
<g fill="#000000" fill-opacity="0.13" stroke="None">
<path d="
M 0.00 21.00 
C 1.11 9.05 8.97 1.13 21.00 0.00
L 0.00 0.00
L 0.00 21.00 Z"/>
</g>
<g fill="#000000" fill-opacity="0.99" stroke="None">
<path d="
M 0.00 21.00 
L 0.00 240.00
C 2.26 241.24 0.86 243.24 2.00 245.00
C 20.35 249.21 14.56 226.81 15.00 208.00 C 15.44 189.19 14.81 164.04 15.00 144.00 C 15.19 123.96 14.93 100.41 15.00 80.00 C 15.07 59.59 15.00 37.62 15.00 18.00
C 31.31 12.22 51.33 15.63 71.00 15.00 C 90.67 14.37 112.89 15.28 133.00 15.00 C 153.11 14.72 173.70 15.10 194.00 15.00 C 214.30 14.90 235.65 15.00 256.00 15.00 C 276.35 15.00 296.69 14.88 317.00 15.00 C 337.31 15.12 358.87 14.70 379.00 15.00 C 399.13 15.30 420.31 14.31 440.00 15.00 C 459.69 15.69 480.62 12.12 497.00 18.00
C 497.00 125.83 497.00 235.47 497.00 344.00
C 336.33 344.00 175.67 344.00 15.00 344.00
C 16.16 327.33 13.45 306.22 15.00 290.00 C 16.55 273.78 13.57 259.56 0.00 270.00
L 0.00 380.00
C 5.10 399.33 17.29 398.93 40.00 398.00 C 62.71 397.07 90.35 398.49 114.00 398.00 C 137.65 397.51 164.10 398.36 188.00 398.00
C 186.18 410.09 190.80 435.64 186.81 444.25 C 182.81 452.86 182.39 464.99 168.00 467.00 C 153.60 469.01 129.92 466.73 115.00 467.00 C 100.08 467.27 88.28 466.56 86.08 482.08 C 83.89 497.60 87.93 508.61 100.00 512.00
L 329.00 512.00
C 338.74 501.38 329.43 495.47 313.00 497.00 C 296.57 498.53 277.10 496.30 260.00 497.00 C 242.90 497.70 224.40 496.67 207.00 497.00 C 189.60 497.33 171.53 496.83 154.00 497.00 C 136.47 497.17 118.56 496.87 101.00 497.00
C 98.16 485.52 102.34 479.54 113.00 481.00 C 123.66 482.46 131.95 480.32 142.00 481.00 C 152.05 481.68 160.26 480.70 170.00 481.00 C 179.74 481.30 189.38 480.87 199.00 481.00 C 208.62 481.13 217.43 480.95 227.00 481.00 C 236.57 481.05 246.45 481.00 256.00 481.00 C 265.55 481.00 274.43 481.05 284.00 481.00 C 293.57 480.95 303.38 481.14 313.00 481.00 C 322.62 480.86 331.23 481.32 341.00 481.00 C 350.77 480.68 359.94 481.70 370.00 481.00 C 380.06 480.30 387.24 482.60 398.00 481.00 C 408.76 479.40 414.35 484.85 411.00 497.00
C 400.84 497.23 389.00 496.69 379.00 497.00 C 369.00 497.31 359.32 495.02 353.00 501.00
C 353.63 503.16 353.60 505.77 353.00 508.00
C 355.07 508.69 357.09 510.63 359.00 512.00
L 415.00 512.00
C 420.04 507.76 425.26 504.07 425.99 494.99 C 426.73 485.92 425.54 472.88 418.10 468.90 C 410.66 464.92 399.20 466.99 388.00 467.00 C 376.80 467.01 361.18 465.94 350.00 467.00 C 338.82 468.06 332.74 461.19 329.42 454.23 C 326.11 447.27 324.27 445.43 324.34 435.32 C 324.41 425.22 326.48 408.43 324.00 398.00
C 347.88 398.38 374.38 397.50 398.00 398.00 C 421.62 398.50 449.33 397.03 472.00 398.00 C 494.67 398.97 507.94 399.50 512.00 379.00
L 512.00 16.00
C 508.49 8.76 502.40 1.33 493.00 0.00
L 21.00 0.00
C 8.97 1.13 1.11 9.05 0.00 21.00
M 497.00 358.00 
C 496.21 367.02 499.19 377.63 494.00 384.00
C 336.74 382.33 175.23 382.33 18.00 384.00
C 12.83 377.75 15.78 366.94 15.00 358.00
C 175.66 358.00 336.33 358.00 497.00 358.00
M 320.00 467.00 
C 277.33 467.00 234.67 467.00 192.00 467.00
C 198.43 457.51 202.11 449.85 202.60 438.25 C 203.10 426.65 202.80 420.43 202.00 408.00 C 201.20 395.57 212.26 397.42 223.00 398.00 C 233.74 398.58 244.66 397.37 255.00 398.00 C 265.34 398.63 276.20 396.88 286.00 398.00 C 295.80 399.12 309.47 392.78 310.00 405.00 C 310.53 417.22 308.89 422.32 309.22 435.22 C 309.56 448.13 313.04 457.51 320.00 467.00 Z"/>
</g>
<g fill="#000000" fill-opacity="0.08" stroke="None">
<path d="
M 512.00 16.00 
L 512.00 0.00
L 493.00 0.00
C 502.40 1.33 508.49 8.76 512.00 16.00 Z"/>
</g>
<g fill="#000000" fill-opacity="0.03" stroke="None">
<path d="
M 0.00 240.00 
L 0.00 270.00
C 13.57 259.56 16.55 273.78 15.00 290.00 C 13.45 306.22 16.16 327.33 15.00 344.00
C 175.67 344.00 336.33 344.00 497.00 344.00
C 497.00 235.47 497.00 125.83 497.00 18.00
C 480.62 12.12 459.69 15.69 440.00 15.00 C 420.31 14.31 399.13 15.30 379.00 15.00 C 358.87 14.70 337.31 15.12 317.00 15.00 C 296.69 14.88 276.35 15.00 256.00 15.00 C 235.65 15.00 214.30 14.90 194.00 15.00 C 173.70 15.10 153.11 14.72 133.00 15.00 C 112.89 15.28 90.67 14.37 71.00 15.00 C 51.33 15.63 31.31 12.22 15.00 18.00
C 15.00 37.62 15.07 59.59 15.00 80.00 C 14.93 100.41 15.19 123.96 15.00 144.00 C 14.81 164.04 15.44 189.19 15.00 208.00 C 14.56 226.81 20.35 249.21 2.00 245.00
C 0.86 243.24 2.26 241.24 0.00 240.00
M 472.00 106.00 
C 463.50 93.85 466.23 77.42 467.00 59.00 C 467.77 40.58 451.13 44.87 433.00 45.00 C 414.87 45.13 394.51 44.94 376.00 45.00 C 357.49 45.06 338.69 44.97 320.00 45.00 C 301.31 45.03 281.77 44.98 263.00 45.00
C 263.00 92.67 263.00 140.33 263.00 188.00
C 330.41 186.33 399.62 186.33 467.00 188.00
C 465.57 173.04 468.91 151.29 467.00 137.00 C 465.09 122.71 482.48 121.04 482.00 136.00 C 481.52 150.96 482.14 171.13 482.00 187.00 C 481.86 202.87 481.92 223.12 482.00 239.00 C 482.08 254.88 481.62 274.99 482.00 290.00 C 482.38 305.01 482.79 317.64 472.75 324.75 C 462.71 331.86 451.25 328.08 435.00 329.00 C 418.75 329.92 400.76 328.60 384.00 329.00 C 367.24 329.40 348.98 328.82 332.00 329.00 C 315.02 329.18 298.08 328.95 281.00 329.00 C 263.92 329.05 246.11 329.02 229.00 329.00 C 211.89 328.98 194.00 329.12 177.00 329.00 C 160.00 328.88 142.76 329.31 126.00 329.00 C 109.24 328.69 90.28 329.68 74.00 329.00 C 57.72 328.32 48.04 331.42 38.25 323.74 C 28.46 316.05 30.85 304.57 31.00 289.00 C 31.15 273.43 30.83 253.37 31.00 237.00 C 31.17 220.63 30.69 202.67 31.00 186.00 C 31.31 169.33 30.35 150.62 31.00 134.00 C 31.65 117.38 29.55 99.19 31.00 83.00 C 32.45 66.81 26.23 52.25 34.11 40.11 C 41.99 27.96 53.55 30.90 69.00 31.00 C 84.45 31.10 103.59 30.95 120.00 31.00 C 136.41 31.05 155.19 30.97 172.00 31.00 C 188.81 31.03 206.00 30.96 223.00 31.00 C 240.00 31.04 257.93 30.94 275.00 31.00 C 292.07 31.06 310.04 30.87 327.00 31.00 C 343.96 31.13 361.31 30.71 378.00 31.00 C 394.69 31.29 413.88 30.37 430.00 31.00 C 446.12 31.63 461.25 27.54 472.77 35.23 C 484.29 42.93 481.80 57.15 481.00 71.00 C 480.20 84.85 486.90 105.87 472.00 106.00
M 373.00 68.00 
C 373.01 84.93 351.59 76.38 336.00 78.00 C 320.41 79.62 298.06 75.99 283.00 79.00
C 275.01 69.82 280.02 62.11 293.00 64.00 C 305.98 65.89 323.83 62.49 337.00 64.00 C 350.17 65.51 364.47 60.05 373.00 68.00
M 278.00 103.00 
C 279.40 88.06 303.16 95.74 315.00 94.00 C 326.84 92.26 327.14 110.60 314.97 108.98 C 302.81 107.36 281.57 113.23 278.00 103.00
M 448.00 94.00 
C 455.33 104.15 449.37 110.23 435.00 109.00 C 420.63 107.77 402.75 109.62 388.00 109.00 C 373.25 108.38 357.06 109.41 343.00 109.00
C 340.08 105.11 339.93 103.76 339.00 99.00
C 340.68 97.50 342.59 96.22 343.00 94.00
C 376.92 94.02 413.99 94.00 448.00 94.00
M 391.00 135.00 
C 381.13 143.16 364.78 137.42 350.00 139.00 C 335.22 140.58 314.62 137.12 300.00 139.00 C 285.38 140.88 272.51 136.86 283.00 124.00
C 300.45 125.49 325.43 122.05 343.00 124.00 C 360.57 125.95 387.98 115.76 391.00 135.00
M 410.00 124.00 
C 418.47 124.70 435.17 126.42 444.00 125.00 C 452.83 123.58 454.22 135.74 447.23 138.57 C 440.24 141.40 422.69 137.36 414.00 139.00 C 405.31 140.64 404.17 128.90 410.00 124.00
M 352.00 169.00 
C 330.23 169.76 306.02 167.60 284.00 170.00
C 274.75 162.20 279.39 153.59 292.00 154.00 C 304.61 154.41 323.23 154.69 336.00 154.00 C 348.77 153.31 359.00 157.62 352.00 169.00 Z"/>
</g>
<g fill="#000000" fill-opacity="0.97" stroke="None">
<path d="
M 472.00 106.00 
C 486.90 105.87 480.20 84.85 481.00 71.00 C 481.80 57.15 484.29 42.93 472.77 35.23 C 461.25 27.54 446.12 31.63 430.00 31.00 C 413.88 30.37 394.69 31.29 378.00 31.00 C 361.31 30.71 343.96 31.13 327.00 31.00 C 310.04 30.87 292.07 31.06 275.00 31.00 C 257.93 30.94 240.00 31.04 223.00 31.00 C 206.00 30.96 188.81 31.03 172.00 31.00 C 155.19 30.97 136.41 31.05 120.00 31.00 C 103.59 30.95 84.45 31.10 69.00 31.00 C 53.55 30.90 41.99 27.96 34.11 40.11 C 26.23 52.25 32.45 66.81 31.00 83.00 C 29.55 99.19 31.65 117.38 31.00 134.00 C 30.35 150.62 31.31 169.33 31.00 186.00 C 30.69 202.67 31.17 220.63 31.00 237.00 C 30.83 253.37 31.15 273.43 31.00 289.00 C 30.85 304.57 28.46 316.05 38.25 323.74 C 48.04 331.42 57.72 328.32 74.00 329.00 C 90.28 329.68 109.24 328.69 126.00 329.00 C 142.76 329.31 160.00 328.88 177.00 329.00 C 194.00 329.12 211.89 328.98 229.00 329.00 C 246.11 329.02 263.92 329.05 281.00 329.00 C 298.08 328.95 315.02 329.18 332.00 329.00 C 348.98 328.82 367.24 329.40 384.00 329.00 C 400.76 328.60 418.75 329.92 435.00 329.00 C 451.25 328.08 462.71 331.86 472.75 324.75 C 482.79 317.64 482.38 305.01 482.00 290.00 C 481.62 274.99 482.08 254.88 482.00 239.00 C 481.92 223.12 481.86 202.87 482.00 187.00 C 482.14 171.13 481.52 150.96 482.00 136.00 C 482.48 121.04 465.09 122.71 467.00 137.00 C 468.91 151.29 465.57 173.04 467.00 188.00
C 399.62 186.33 330.41 186.33 263.00 188.00
C 263.00 140.33 263.00 92.67 263.00 45.00
C 281.77 44.98 301.31 45.03 320.00 45.00 C 338.69 44.97 357.49 45.06 376.00 45.00 C 394.51 44.94 414.87 45.13 433.00 45.00 C 451.13 44.87 467.77 40.58 467.00 59.00 C 466.23 77.42 463.50 93.85 472.00 106.00
M 249.00 45.00 
C 249.00 92.67 249.00 140.33 249.00 188.00
C 239.33 188.00 229.67 188.00 220.00 188.00
C 219.92 161.85 198.72 134.80 173.00 127.00
C 199.43 101.14 177.55 59.38 144.78 60.78 C 112.01 62.18 97.61 103.82 121.00 126.00
C 97.12 134.35 73.23 160.94 74.00 188.00
C 64.91 186.34 54.07 186.35 45.00 188.00
C 44.89 173.27 45.14 158.75 45.00 144.00 C 44.86 129.25 45.27 114.82 45.00 100.00 C 44.73 85.18 45.58 71.00 45.00 56.00 C 44.42 41.00 58.44 45.26 72.00 45.00 C 85.56 44.74 101.81 45.12 116.00 45.00 C 130.19 44.88 145.51 45.06 160.00 45.00 C 174.49 44.94 189.32 45.03 204.00 45.00 C 218.68 44.97 234.24 45.02 249.00 45.00
M 144.00 75.00 
C 160.04 72.51 173.28 89.77 168.81 105.25 C 164.34 120.74 141.45 127.72 129.75 113.25 C 118.05 98.78 126.94 77.65 144.00 75.00
M 206.00 188.00 
C 167.26 186.33 126.72 186.33 88.00 188.00
C 90.77 157.69 119.78 136.22 149.00 137.00 C 178.23 137.77 200.63 158.10 206.00 188.00
M 176.00 202.00 
C 174.33 238.74 174.33 277.28 176.00 314.00
C 172.33 314.00 168.67 314.00 165.00 314.00
C 163.68 295.95 150.18 277.04 134.00 272.00
C 136.52 265.65 141.31 252.87 138.69 244.30 C 136.08 235.74 131.31 228.86 123.08 224.87 C 114.85 220.89 105.86 221.35 98.08 225.13 C 90.31 228.91 83.94 235.86 82.65 244.70 C 81.36 253.54 82.40 264.30 88.00 271.00
C 70.81 277.64 57.68 295.16 56.00 314.00
C 36.89 310.95 46.81 285.66 45.00 267.00 C 43.19 248.34 46.35 221.41 45.00 202.00
C 88.67 202.00 132.33 202.00 176.00 202.00
M 311.00 314.00 
C 308.89 295.42 294.48 275.67 278.00 271.00
C 294.44 251.15 280.27 223.23 256.00 223.00 C 231.72 222.77 217.84 251.51 234.00 271.00
C 217.70 275.72 203.28 295.54 201.00 314.00
C 184.41 317.00 190.96 300.00 190.00 288.00 C 189.04 276.00 190.92 262.94 190.00 250.00 C 189.08 237.06 191.49 226.06 190.00 212.00 C 188.51 197.94 206.31 202.01 218.00 202.00 C 229.69 201.99 244.23 201.85 256.00 202.00 C 267.77 202.15 281.66 201.56 293.00 202.00 C 304.34 202.44 322.93 197.37 322.00 211.00 C 321.07 224.63 322.70 236.26 322.00 249.00 C 321.30 261.74 322.92 275.10 322.00 287.00 C 321.08 298.90 327.78 317.13 311.00 314.00
M 467.00 202.00 
C 463.20 220.63 468.63 246.57 466.00 265.00 C 463.37 283.43 475.09 310.99 456.00 314.00
C 454.47 295.90 441.53 277.47 425.00 272.00
C 426.50 264.89 431.73 256.63 430.40 247.26 C 429.08 237.88 423.32 229.94 415.23 225.43 C 407.14 220.92 398.42 221.14 389.75 224.19 C 381.08 227.25 376.02 236.73 373.65 244.70 C 371.28 252.67 374.99 265.00 378.00 272.00
C 361.91 276.96 348.38 295.84 347.00 314.00
C 343.33 314.00 339.67 314.00 336.00 314.00
C 337.67 277.26 337.67 238.72 336.00 202.00
C 379.67 202.00 423.33 202.00 467.00 202.00
M 107.00 237.00 
C 124.59 233.77 131.87 260.07 114.08 265.13 C 96.30 270.20 89.32 240.25 107.00 237.00
M 253.00 237.00 
C 270.10 235.20 277.08 258.86 259.75 264.80 C 242.42 270.74 233.98 239.00 253.00 237.00
M 398.00 237.00 
C 415.84 233.72 422.90 261.49 404.70 265.71 C 386.49 269.94 381.04 240.12 398.00 237.00
M 150.00 314.00 
C 123.67 314.00 97.33 314.00 71.00 314.00
C 74.36 295.52 91.24 280.24 110.03 280.02 C 128.81 279.81 147.62 295.87 150.00 314.00
M 296.00 313.00 
C 269.92 314.67 242.05 314.66 216.00 313.00
C 220.69 295.37 236.37 280.01 256.07 280.07 C 275.77 280.14 291.17 294.99 296.00 313.00
M 441.00 314.00 
C 414.67 314.00 388.33 314.00 362.00 314.00
C 364.25 297.55 381.28 280.57 400.08 280.07 C 418.87 279.58 438.16 294.79 441.00 314.00 Z"/>
</g>
<g fill="#000000" fill-opacity="0.02" stroke="None">
<path d="
M 249.00 45.00 
C 234.24 45.02 218.68 44.97 204.00 45.00 C 189.32 45.03 174.49 44.94 160.00 45.00 C 145.51 45.06 130.19 44.88 116.00 45.00 C 101.81 45.12 85.56 44.74 72.00 45.00 C 58.44 45.26 44.42 41.00 45.00 56.00 C 45.58 71.00 44.73 85.18 45.00 100.00 C 45.27 114.82 44.86 129.25 45.00 144.00 C 45.14 158.75 44.89 173.27 45.00 188.00
C 54.07 186.35 64.91 186.34 74.00 188.00
C 73.23 160.94 97.12 134.35 121.00 126.00
C 97.61 103.82 112.01 62.18 144.78 60.78 C 177.55 59.38 199.43 101.14 173.00 127.00
C 198.72 134.80 219.92 161.85 220.00 188.00
C 229.67 188.00 239.33 188.00 249.00 188.00
C 249.00 140.33 249.00 92.67 249.00 45.00 Z"/>
</g>
<g fill="#000000" fill-opacity="0.99" stroke="None">
<path d="
M 373.00 68.00 
C 364.47 60.05 350.17 65.51 337.00 64.00 C 323.83 62.49 305.98 65.89 293.00 64.00 C 280.02 62.11 275.01 69.82 283.00 79.00
C 298.06 75.99 320.41 79.62 336.00 78.00 C 351.59 76.38 373.01 84.93 373.00 68.00 Z"/>
</g>
<g fill="#000000" fill-opacity="0.03" stroke="None">
<path d="
M 144.00 75.00 
C 126.94 77.65 118.05 98.78 129.75 113.25 C 141.45 127.72 164.34 120.74 168.81 105.25 C 173.28 89.77 160.04 72.51 144.00 75.00 Z"/>
</g>
<g fill="#000000" fill-opacity="0.98" stroke="None">
<path d="
M 278.00 103.00 
C 281.57 113.23 302.81 107.36 314.97 108.98 C 327.14 110.60 326.84 92.26 315.00 94.00 C 303.16 95.74 279.40 88.06 278.00 103.00 Z"/>
</g>
<g fill="#000000" fill-opacity="0.99" stroke="None">
<path d="
M 448.00 94.00 
C 413.99 94.00 376.92 94.02 343.00 94.00
C 342.59 96.22 340.68 97.50 339.00 99.00
C 339.93 103.76 340.08 105.11 343.00 109.00
C 357.06 109.41 373.25 108.38 388.00 109.00 C 402.75 109.62 420.63 107.77 435.00 109.00 C 449.37 110.23 455.33 104.15 448.00 94.00 Z"/>
</g>
<g fill="#000000" fill-opacity="0.98" stroke="None">
<path d="
M 391.00 135.00 
C 387.98 115.76 360.57 125.95 343.00 124.00 C 325.43 122.05 300.45 125.49 283.00 124.00
C 272.51 136.86 285.38 140.88 300.00 139.00 C 314.62 137.12 335.22 140.58 350.00 139.00 C 364.78 137.42 381.13 143.16 391.00 135.00 Z"/>
</g>
<g fill="#000000" fill-opacity="0.98" stroke="None">
<path d="
M 410.00 124.00 
C 404.17 128.90 405.31 140.64 414.00 139.00 C 422.69 137.36 440.24 141.40 447.23 138.57 C 454.22 135.74 452.83 123.58 444.00 125.00 C 435.17 126.42 418.47 124.70 410.00 124.00 Z"/>
</g>
<g fill="#000000" fill-opacity="0.01" stroke="None">
<path d="
M 206.00 188.00 
C 200.63 158.10 178.23 137.77 149.00 137.00 C 119.78 136.22 90.77 157.69 88.00 188.00
C 126.72 186.33 167.26 186.33 206.00 188.00 Z"/>
</g>
<g fill="#000000" fill-opacity="0.96" stroke="None">
<path d="
M 352.00 169.00 
C 359.00 157.62 348.77 153.31 336.00 154.00 C 323.23 154.69 304.61 154.41 292.00 154.00 C 279.39 153.59 274.75 162.20 284.00 170.00
C 306.02 167.60 330.23 169.76 352.00 169.00 Z"/>
</g>
<g fill="#000000" fill-opacity="0.03" stroke="None">
<path d="
M 176.00 202.00 
C 132.33 202.00 88.67 202.00 45.00 202.00
C 46.35 221.41 43.19 248.34 45.00 267.00 C 46.81 285.66 36.89 310.95 56.00 314.00
C 57.68 295.16 70.81 277.64 88.00 271.00
C 82.40 264.30 81.36 253.54 82.65 244.70 C 83.94 235.86 90.31 228.91 98.08 225.13 C 105.86 221.35 114.85 220.89 123.08 224.87 C 131.31 228.86 136.08 235.74 138.69 244.30 C 141.31 252.87 136.52 265.65 134.00 272.00
C 150.18 277.04 163.68 295.95 165.00 314.00
C 168.67 314.00 172.33 314.00 176.00 314.00
C 174.33 277.28 174.33 238.74 176.00 202.00 Z"/>
</g>
<g fill="#000000" fill-opacity="0.04" stroke="None">
<path d="
M 311.00 314.00 
C 327.78 317.13 321.08 298.90 322.00 287.00 C 322.92 275.10 321.30 261.74 322.00 249.00 C 322.70 236.26 321.07 224.63 322.00 211.00 C 322.93 197.37 304.34 202.44 293.00 202.00 C 281.66 201.56 267.77 202.15 256.00 202.00 C 244.23 201.85 229.69 201.99 218.00 202.00 C 206.31 202.01 188.51 197.94 190.00 212.00 C 191.49 226.06 189.08 237.06 190.00 250.00 C 190.92 262.94 189.04 276.00 190.00 288.00 C 190.96 300.00 184.41 317.00 201.00 314.00
C 203.28 295.54 217.70 275.72 234.00 271.00
C 217.84 251.51 231.72 222.77 256.00 223.00 C 280.27 223.23 294.44 251.15 278.00 271.00
C 294.48 275.67 308.89 295.42 311.00 314.00 Z"/>
</g>
<g fill="#000000" fill-opacity="0.02" stroke="None">
<path d="
M 467.00 202.00 
C 423.33 202.00 379.67 202.00 336.00 202.00
C 337.67 238.72 337.67 277.26 336.00 314.00
C 339.67 314.00 343.33 314.00 347.00 314.00
C 348.38 295.84 361.91 276.96 378.00 272.00
C 374.99 265.00 371.28 252.67 373.65 244.70 C 376.02 236.73 381.08 227.25 389.75 224.19 C 398.42 221.14 407.14 220.92 415.23 225.43 C 423.32 229.94 429.08 237.88 430.40 247.26 C 431.73 256.63 426.50 264.89 425.00 272.00
C 441.53 277.47 454.47 295.90 456.00 314.00
C 475.09 310.99 463.37 283.43 466.00 265.00 C 468.63 246.57 463.20 220.63 467.00 202.00 Z"/>
</g>
<g fill="#000000" fill-opacity="0.04" stroke="None">
<path d="
M 107.00 237.00 
C 89.32 240.25 96.30 270.20 114.08 265.13 C 131.87 260.07 124.59 233.77 107.00 237.00 Z"/>
</g>
<g fill="#000000" fill-opacity="0.03" stroke="None">
<path d="
M 253.00 237.00 
C 233.98 239.00 242.42 270.74 259.75 264.80 C 277.08 258.86 270.10 235.20 253.00 237.00 Z"/>
</g>
<g fill="#000000" fill-opacity="0.05" stroke="None">
<path d="
M 398.00 237.00 
C 381.04 240.12 386.49 269.94 404.70 265.71 C 422.90 261.49 415.84 233.72 398.00 237.00 Z"/>
</g>
<g fill="#000000" fill-opacity="0.05" stroke="None">
<path d="
M 150.00 314.00 
C 147.62 295.87 128.81 279.81 110.03 280.02 C 91.24 280.24 74.36 295.52 71.00 314.00
C 97.33 314.00 123.67 314.00 150.00 314.00 Z"/>
</g>
<g fill="#000000" fill-opacity="0.05" stroke="None">
<path d="
M 296.00 313.00 
C 291.17 294.99 275.77 280.14 256.07 280.07 C 236.37 280.01 220.69 295.37 216.00 313.00
C 242.05 314.66 269.92 314.67 296.00 313.00 Z"/>
</g>
<g fill="#000000" fill-opacity="0.05" stroke="None">
<path d="
M 441.00 314.00 
C 438.16 294.79 418.87 279.58 400.08 280.07 C 381.28 280.57 364.25 297.55 362.00 314.00
C 388.33 314.00 414.67 314.00 441.00 314.00 Z"/>
</g>
<g fill="#000000" fill-opacity="0.02" stroke="None">
<path d="
M 497.00 358.00 
C 336.33 358.00 175.66 358.00 15.00 358.00
C 15.78 366.94 12.83 377.75 18.00 384.00
C 175.23 382.33 336.74 382.33 494.00 384.00
C 499.19 377.63 496.21 367.02 497.00 358.00 Z"/>
</g>
<g fill="#000000" fill-opacity="0.01" stroke="None">
<path d="
M 415.00 512.00 
L 512.00 512.00
L 512.00 379.00
C 507.94 399.50 494.67 398.97 472.00 398.00 C 449.33 397.03 421.62 398.50 398.00 398.00 C 374.38 397.50 347.88 398.38 324.00 398.00
C 326.48 408.43 324.41 425.22 324.34 435.32 C 324.27 445.43 326.11 447.27 329.42 454.23 C 332.74 461.19 338.82 468.06 350.00 467.00 C 361.18 465.94 376.80 467.01 388.00 467.00 C 399.20 466.99 410.66 464.92 418.10 468.90 C 425.54 472.88 426.73 485.92 425.99 494.99 C 425.26 504.07 420.04 507.76 415.00 512.00 Z"/>
</g>
<g fill="#000000" fill-opacity="0.01" stroke="None">
<path d="
M 0.00 512.00 
L 100.00 512.00
C 87.93 508.61 83.89 497.60 86.08 482.08 C 88.28 466.56 100.08 467.27 115.00 467.00 C 129.92 466.73 153.60 469.01 168.00 467.00 C 182.39 464.99 182.81 452.86 186.81 444.25 C 190.80 435.64 186.18 410.09 188.00 398.00
C 164.10 398.36 137.65 397.51 114.00 398.00 C 90.35 398.49 62.71 397.07 40.00 398.00 C 17.29 398.93 5.10 399.33 0.00 380.00
L 0.00 512.00 Z"/>
</g>
<g fill="#000000" fill-opacity="0.03" stroke="None">
<path d="
M 320.00 467.00 
C 313.04 457.51 309.56 448.13 309.22 435.22 C 308.89 422.32 310.53 417.22 310.00 405.00 C 309.47 392.78 295.80 399.12 286.00 398.00 C 276.20 396.88 265.34 398.63 255.00 398.00 C 244.66 397.37 233.74 398.58 223.00 398.00 C 212.26 397.42 201.20 395.57 202.00 408.00 C 202.80 420.43 203.10 426.65 202.60 438.25 C 202.11 449.85 198.43 457.51 192.00 467.00
C 234.67 467.00 277.33 467.00 320.00 467.00 Z"/>
</g>
<g fill="#000000" fill-opacity="0.05" stroke="None">
<path d="
M 329.00 512.00 
L 359.00 512.00
C 357.09 510.63 355.07 508.69 353.00 508.00
C 353.60 505.77 353.63 503.16 353.00 501.00
C 359.32 495.02 369.00 497.31 379.00 497.00 C 389.00 496.69 400.84 497.23 411.00 497.00
C 414.35 484.85 408.76 479.40 398.00 481.00 C 387.24 482.60 380.06 480.30 370.00 481.00 C 359.94 481.70 350.77 480.68 341.00 481.00 C 331.23 481.32 322.62 480.86 313.00 481.00 C 303.38 481.14 293.57 480.95 284.00 481.00 C 274.43 481.05 265.55 481.00 256.00 481.00 C 246.45 481.00 236.57 481.05 227.00 481.00 C 217.43 480.95 208.62 481.13 199.00 481.00 C 189.38 480.87 179.74 481.30 170.00 481.00 C 160.26 480.70 152.05 481.68 142.00 481.00 C 131.95 480.32 123.66 482.46 113.00 481.00 C 102.34 479.54 98.16 485.52 101.00 497.00
C 118.56 496.87 136.47 497.17 154.00 497.00 C 171.53 496.83 189.60 497.33 207.00 497.00 C 224.40 496.67 242.90 497.70 260.00 497.00 C 277.10 496.30 296.57 498.53 313.00 497.00 C 329.43 495.47 338.74 501.38 329.00 512.00 Z"/>
</g>
</svg>